<svg xmlns="http://www.w3.org/2000/svg" width="180" height="235" fill="none" viewBox="0 0 180 235"><path id="Коломийський" fill="#C8C6C6" fill-rule="evenodd" d="m130.698 146.375-.355.036-.481-.088-.202.124-.334.088-1.252.583-.452.124-.436.227-.281.247-.196.047.11-.243-.315-.5.069-.393-.137-.299-.25-.134-.195.036-.153-.279-.201-.072-.362.041-.611-.015-.286-.351-.344-.052h-.427l-.367-.098-.161-.314.089-.589-.079-.309-.247-.057.007-.14-.868-.118h-.272l-.286-.135-.22-.237-.581-.113-.169-.104-.757.083-.319.356-.032.201-.205.114-.054.18-.553.14-.682.01-.868.186-.493.222-.422-.573-.245.155-.289.407-.195-.361-.104-.309-.312-.155-.083-.217-.25-.129-.564-.429-.342.145-.296.289-.502-.315-.364.062-.302.305-.22-.052-.245.067-.019.387-.384.083-.13.119-.33.031-.178.397-.463-.32-.121-.294-.425-.109-.182.114-.187-.036-.097-.155-.286-.139-.193.015-.182-.16-.712-.361-.466.015-.504-.155-.584-.268-.073-.387-.097-.114-.15-.573-.027-.32-.261-.082-.137-.134-.04-.129-.431-.341-.357-.088-.386-.289-.209-.098.012-.532-.178-.392-.19-.072-.301-.418.141-.207.21.248.24-.279.181-.459-.008-.31-.251-.309.768-.258.243-.305-.042-.098-.413-.217-.05-.093-.012-.495h-.166l-.46-.537-.317-.263-.259-.366-.039-.837-.328-.123-.108-.289-.228-.057-.147-.145-.251.005-.34-.191-.325-.299-.316-.113-.486-.413.027-.114.728-.279.012.32.551.403.296.155.127-.377-.061-.253-.295-.232.15-.145.421-.072.014-.707.053-.253.507-.392.294-.299.251.046.068.181-.145.707-.212-.078-.123.104.318.48-.189.221.559.326.105-.243-.129-.273.401-.388.267.233.152.335-.118.325.263.088.193-.325-.015-.222.286-.212.187-.309-.401-.248.029-.155-.219-.335.061-.398-.145-.562.298.01-.042-.434.265-.258-.013-.309.191-.31-.142-.108-.467-.104-.359-.222-.094-.273.024-.299-.26-.217-.487-.78-.149-.025.078-.264.071-.521.227-.846.08-.8.151-.14.355.042.167.154.259-.093.114-1.677.111-2.101 1.115.057.009-.165 2.198.119.086-1.719-.004-.206-.969-.078.022-.588.081-.903.024-.805.127-2.132.014-.821-.706.026-.334-.077-.197.082-.033-.273.141-.217-.256-.273-.276-.062-.404.051-.186-.186.025-.32-.356-.629-.209-.8-.479.18-.308.29-.253-.202-.37-.537-.392-.397-.303.258-.962-.624-.331-.171-.11.207-.17-.052-1.027-.645.13-.537-.377-.175-.119-.134.168-.331-.016-.201.155-.191-.052-.17-.505-.3-.734-.743.268-.196.227.036.237-.134.289.015 1.547-1.011.558-1.244.522-1.234-.281-.067-.131-.175-.331.067-.075-.171-.321-.335.219-.196.907-.33.246.366.22.594.424-.207.159.418.489-.758-.369-.29.454-.547.238.011.284.118.481-.175-.155-.511.284-.387.536-.423.281.056.357.155.542-.34.388.908.138-.103-.071-.578.078-.124-.124-.186-.283-.031-.111-.15.418-.067.254.33.458-.17.144.315.394.635.305.588.589.336.526.428.69.743.36-.18.015-.098.495-.073.078.042-.038.5.781.31.196-.026.022-.258.867.423.545.222.372.33.774.026.1-.619.05-.542.12-.268h.168l.189-.16.716.366.349.429.011.769.247.165.297.34.579.042.39.17.543.15.427.077.356.181.263.397h.175l.658.687.001.309.185.062-.213.676.334.3.172.309.201.114.785-.501.239-.067.712-.439.025-.201-.304-.02-.429-.475-.137-.475-.35-.521-.066-.191-.312-.413-.022-.155-.493-.072.396-.233-.208-.247.162-.279.047-.232.236.315.412.325.443.16.165.377.114.769-.227.361.414.516.279-.093.206-.542.196-.196.298.181-.084.237.078.212-.167.222-.032.222.151.129.85.17.486.181.399.103.423.346.373.247.281.403.193.222.195.438.037.331.301.464.418.263.086.259-.048.129.054.397-.108.243-.019.304.155.217.021.237.415.511.272.485.357.444.215-.428 1.006.79.213.283.425.274-.018.237.117.589.305-.078.964-.062.517-.118.642.485.815.691-.162.3 1.031.908 1.044.986-.114.335.691.083.042-.098.804.408.448.273.352-.098.583-.882.719.428.382-.666.133-.144.608-.248.123-.114.66.506.261-.093.17.217.543-1.104.401-.671.092-.289-.077-.295.667-1.512-.027-.134-.774-1.719-.124-.211-.532.036-.506-.976-.783-.825.333-.279 1.204-.914 1.529-1.027.551-.433.5-.289.314-.119-.675-.888-.101-.165-.413-.439.395-.335.331-.196-.384-.821-.159-.573-.34-.903-.367-.263-.485-.418-.864-.903-.165-.212.376-.356 1.093-1.12.14-.041-.15-.315-.147-.506-.129-.656-.006-.294.125-.691.113-.186.43-.506.865-.748.348-.243.538-.072.724.113 1.035-.051.769.18.415.052.484-.15.247-.01.464-.14.516-.464.244-.407.116-.496.975.026-.046-.217.35.047-.187-.522-.214-.314.005-.517-.066-.304.13-.088-.009-.304.405.046.103-.263.178-.145.603-.227.286-.026.603.109.41.01.551.31 1.231.526.476.15.76.392 1.094.392.948.243.494-.067.199-.093.284-.294.033-.398-.1-.325-.193-.392-.46-.738-.161-.336-.068-.542.216-.34.262-.145.399-.062.552.33.457.156.197.113.634.588.454.248.319.351.082.387-.269.45-.611.794-.658.656-.12.325.044.185.268.537.166.17.708.382.521.176.43.263.441.155.272.17.364.32.329.351.461.744.435.397.689.315.492.072.595.201.713.073.394-.052.565.015.53.269.984.691.473.454.336.46.423.516.238.222.694.877.36.367.472.598.582.486 1.098.557 1.686 1.125.392.429.036.134.01.289-.073.247-.274.47-.286.238-.623.289-.915.614-.368.366-.121.491.146.536.229.279.352.165.913.16 1.105.315.43.201.209.181.286.526-.04.47-.176.454-.237.372-.383.407-.571.388-.65.361-.359.299-.212.274-.097.273.03.243.155.253.288.289.356.191.532.211.372.057-.034.294-.419.088-.197-.026-.6.501-.553.392-.395.335-.421.274-.238.222-.523.624-.352.486-.487.763-.451.418-.083.145.047.599-.038.144.365.707-.116.346.201 1.641-.062 1.384-.214.898.503.789.238.934.486.744-.031.154-.276.48.209.646-.19.392.472.826-.049.222-.205.361-.094.506.147.433.338.114.115.402-.089.248.234.351.046.48-.185.877-.019.341-.151.614-.311.929-.148.552.028.419.26.929-.178.8.069.263-.033.423-.132.217-.141.469.283.547.17.253.232.176-.03.217.093.402-.127.325.124.367-.006.469-.345.563.047.289.124.145.148.655.081.557-.026.382-.135.109.379.562-.151.372.292.48-.078.242-.463.413-.207.331.173.062.625-.155.313-.196.239.02.086.16.009.914-.091.258.02.336-.271.433.016.258.17.227v.212l-.216.392v.294l.179.532.181.119.019.16-.816.031-.235.144-.493.098-.302.253-.669.072-.608-.134-.234-.093-.084-.237-.162-.021-.382.196-.381-.129-.309-.376-.495.041-.496-.191h-.109l-.404-.191-.468.062-.476-.284-.266-.433-.282-.243-.012-.563-.109-.051-.299.072-.337-.119-.123-.247-.324-.016-.253-.185-.739-.145-.664-.041-.371-.145-.241.325-.574.067-.101-.123-.331-.15-.34.144-.306.031-.489.135-.429-.088h-.546l-.232-.093-.045-.284-.36-.082-.637.252.128.517-.138.371-.331-.015-.208-.289-.132-.031-.34.217-.154.35-.342.062-.237-.113-.238-.217-.219-.103-.267-.026-.156.098-.264.325-.535.134-.156-.01-.41-.232-.378.026-.495.196-.42.413-.381.273-.315.295-.217-.083-.394.129-.17-.026-.258.098-.525.33-.212.006-.232.351-.474.34-.588.155-.161.077-.209.32-.477.197-.413.227-.139.402-.151.093-.055.248-.251.284-.357-.553-.434-.18-.192-.155-.378.274-.632-.718-.18.217-.441-.568-.351.263-.903.46-.212-.32.008-.269-.175-.619-.347-.031-.114-.48-.138-.015-.203-.945-.07-.134.019-.614.222-.501-.464.356-.362.057-.452-.057.02-.258-.418-.16-.279.01-.23-.139-.239.072-.205-.062-.101-.397-.391.217-.324.113-.345-.087-.341.092-.197-.252-.227-.155-.192-.336-.111.155-.245-.015-.075.258-.697-.496-.407-.232-.176-.464.005-.331-.214-.067-1.003.263-.38.129-.204.186-.25.124-.299.057.166.516-.036.119-.448.015-.449-.103-.114.33.097.274-.287.201-.129.181-.488-.026-.193-.202-.29-.031-.187.207-.297-.176-.541-.02-.135-.382-.017-.274-.135-.155-.32-.113-.081-.367-.122-.211-.067-.351-.314.165-.362-.078-.444-.304-.178-.31" clip-rule="evenodd"/><path stroke="#000" stroke-linecap="round" stroke-linejoin="round" stroke-width=".2" d="m130.698 146.375-.355.036-.481-.088-.202.124-.334.088-1.252.583-.452.124-.436.227-.281.247-.196.047.11-.243-.315-.5.069-.393-.137-.299-.25-.134-.195.036-.153-.279-.201-.072-.362.041-.611-.015-.286-.351-.344-.052h-.427l-.367-.098-.161-.314.089-.589-.079-.309-.247-.057.007-.14-.868-.118h-.272l-.286-.135-.22-.237-.581-.113-.169-.104-.757.083-.319.356-.032.201-.205.114-.054.18-.553.14-.682.01-.868.186-.493.222-.422-.573-.245.155-.289.407-.195-.361-.104-.309-.312-.155-.083-.217-.25-.129-.564-.429-.342.145-.296.289-.502-.315-.364.062-.302.305-.22-.052-.245.067-.019.387-.384.083-.13.119-.33.031-.178.397-.463-.32-.121-.294-.425-.109-.182.114-.187-.036-.097-.155-.286-.139-.193.015-.182-.16-.712-.361-.466.015-.504-.155-.584-.268-.073-.387-.097-.114-.15-.573-.027-.32-.261-.082-.137-.134-.04-.129-.431-.341-.357-.088-.386-.289-.209-.098.012-.532-.178-.392-.19-.072-.301-.418.141-.207.21.248.24-.279.181-.459-.008-.31-.251-.309.768-.258.243-.305-.042-.098-.413-.217-.05-.093-.012-.495h-.166l-.46-.537-.317-.263-.259-.366-.039-.837-.328-.123-.108-.289-.228-.057-.147-.145-.251.005-.34-.191-.325-.299-.316-.113-.486-.413.027-.114.728-.279.012.32.551.403.296.155.127-.377-.061-.253-.295-.232.15-.145.421-.072.014-.707.053-.253.507-.392.294-.299.251.046.068.181-.145.707-.212-.078-.123.104.318.48-.189.221.559.326.105-.243-.129-.273.401-.388.267.233.152.335-.118.325.263.088.193-.325-.015-.222.286-.212.187-.309-.401-.248.029-.155-.219-.335.061-.398-.145-.562.298.01-.042-.434.265-.258-.013-.309.191-.31-.142-.108-.467-.104-.359-.222-.094-.273.024-.299-.26-.217-.487-.78-.149-.025.078-.264.071-.521.227-.846.08-.8.151-.14.355.042.167.154.259-.093.114-1.677.111-2.101 1.115.057.009-.165 2.198.119.086-1.719-.004-.206-.969-.078.022-.588.081-.903.024-.805.127-2.132.014-.821-.706.026-.334-.077-.197.082-.033-.273.141-.217-.256-.273-.276-.062-.404.051-.186-.186.025-.32-.356-.629-.209-.8-.479.18-.308.29-.253-.202-.37-.537-.392-.397-.303.258-.962-.624-.331-.171-.11.207-.17-.052-1.027-.645.13-.537-.377-.175-.119-.134.168-.331-.016-.201.155-.191-.052-.17-.505-.3-.734-.743.268-.196.227.036.237-.134.289.015 1.547-1.011.558-1.244.522-1.234-.281-.067-.131-.175-.331.067-.075-.171-.321-.335.219-.196.907-.33.246.366.22.594.424-.207.159.418.489-.758-.369-.29.454-.547.238.011.284.118.481-.175-.155-.511.284-.387.536-.423.281.056.357.155.542-.34.388.908.138-.103-.071-.578.078-.124-.124-.186-.283-.031-.111-.15.418-.067.254.33.458-.17.144.315.394.635.305.588.589.336.526.428.69.743.36-.18.015-.098.495-.073.078.042-.038.5.781.31.196-.026.022-.258.867.423.545.222.372.33.774.026.1-.619.05-.542.12-.268h.168l.189-.16.716.366.349.429.011.769.247.165.297.34.579.042.39.17.543.15.427.077.356.181.263.397h.175l.658.687.001.309.185.062-.213.676.334.3.172.309.201.114.785-.501.239-.067.712-.439.025-.201-.304-.02-.429-.475-.137-.475-.35-.521-.066-.191-.312-.413-.022-.155-.493-.072.396-.233-.208-.247.162-.279.047-.232.236.315.412.325.443.16.165.377.114.769-.227.361.414.516.279-.093.206-.542.196-.196.298.181-.084.237.078.212-.167.222-.032.222.151.129.85.17.486.181.399.103.423.346.373.247.281.403.193.222.195.438.037.331.301.464.418.263.086.259-.048.129.054.397-.108.243-.019.304.155.217.021.237.415.511.272.485.357.444.215-.428 1.006.79.213.283.425.274-.018.237.117.589.305-.078.964-.062.517-.118.642.485.815.691-.162.3 1.031.908 1.044.986-.114.335.691.083.042-.098.804.408.448.273.352-.098.583-.882.719.428.382-.666.133-.144.608-.248.123-.114.66.506.261-.093.17.217.543-1.104.401-.671.092-.289-.077-.295.667-1.512-.027-.134-.774-1.719-.124-.211-.532.036-.506-.976-.783-.825.333-.279 1.204-.914 1.529-1.027.551-.433.5-.289.314-.119-.675-.888-.101-.165-.413-.439.395-.335.331-.196-.384-.821-.159-.573-.34-.903-.367-.263-.485-.418-.864-.903-.165-.212.376-.356 1.093-1.12.14-.041-.15-.315-.147-.506-.129-.656-.006-.294.125-.691.113-.186.43-.506.865-.748.348-.243.538-.072.724.113 1.035-.051.769.18.415.052.484-.15.247-.01.464-.14.516-.464.244-.407.116-.496.975.026-.046-.217.35.047-.187-.522-.214-.314.005-.517-.066-.304.13-.088-.009-.304.405.046.103-.263.178-.145.603-.227.286-.026.603.109.41.01.551.31 1.231.526.476.15.76.392 1.094.392.948.243.494-.067.199-.093.284-.294.033-.398-.1-.325-.193-.392-.46-.738-.161-.336-.068-.542.216-.34.262-.145.399-.062.552.33.457.156.197.113.634.588.454.248.319.351.082.387-.269.45-.611.794-.658.656-.12.325.044.185.268.537.166.17.708.382.521.176.43.263.441.155.272.17.364.32.329.351.461.744.435.397.689.315.492.072.595.201.713.073.394-.052.565.015.53.269.984.691.473.454.336.46.423.516.238.222.694.877.36.367.472.598.582.486 1.098.557 1.686 1.125.392.429.036.134.01.289-.073.247-.274.47-.286.238-.623.289-.915.614-.368.366-.121.491.146.536.229.279.352.165.913.16 1.105.315.43.201.209.181.286.526-.04.47-.176.454-.237.372-.383.407-.571.388-.65.361-.359.299-.212.274-.097.273.03.243.155.253.288.289.356.191.532.211.372.057-.034.294-.419.088-.197-.026-.6.501-.553.392-.395.335-.421.274-.238.222-.523.624-.352.486-.487.763-.451.418-.083.145.047.599-.038.144.365.707-.116.346.201 1.641-.062 1.384-.214.898.503.789.238.934.486.744-.031.154-.276.48.209.646-.19.392.472.826-.049.222-.205.361-.094.506.147.433.338.114.115.402-.089.248.234.351.046.48-.185.877-.019.341-.151.614-.311.929-.148.552.028.419.26.929-.178.8.069.263-.033.423-.132.217-.141.469.283.547.17.253.232.176-.03.217.093.402-.127.325.124.367-.006.469-.345.563.047.289.124.145.148.655.081.557-.026.382-.135.109.379.562-.151.372.292.48-.078.242-.463.413-.207.331.173.062.625-.155.313-.196.239.02.086.16.009.914-.091.258.02.336-.271.433.016.258.17.227v.212l-.216.392v.294l.179.532.181.119.019.16-.816.031-.235.144-.493.098-.302.253-.669.072-.608-.134-.234-.093-.084-.237-.162-.021-.382.196-.381-.129-.309-.376-.495.041-.496-.191h-.109l-.404-.191-.468.062-.476-.284-.266-.433-.282-.243-.012-.563-.109-.051-.299.072-.337-.119-.123-.247-.324-.016-.253-.185-.739-.145-.664-.041-.371-.145-.241.325-.574.067-.101-.123-.331-.15-.34.144-.306.031-.489.135-.429-.088h-.546l-.232-.093-.045-.284-.36-.082-.637.252.128.517-.138.371-.331-.015-.208-.289-.132-.031-.34.217-.154.35-.342.062-.237-.113-.238-.217-.219-.103-.267-.026-.156.098-.264.325-.535.134-.156-.01-.41-.232-.378.026-.495.196-.42.413-.381.273-.315.295-.217-.083-.394.129-.17-.026-.258.098-.525.33-.212.006-.232.351-.474.34-.588.155-.161.077-.209.32-.477.197-.413.227-.139.402-.151.093-.055.248-.251.284-.357-.553-.434-.18-.192-.155-.378.274-.632-.718-.18.217-.441-.568-.351.263-.903.46-.212-.32.008-.269-.175-.619-.347-.031-.114-.48-.138-.015-.203-.945-.07-.134.019-.614.222-.501-.464.356-.362.057-.452-.057.02-.258-.418-.16-.279.01-.23-.139-.239.072-.205-.062-.101-.397-.391.217-.324.113-.345-.087-.341.092-.197-.252-.227-.155-.192-.336-.111.155-.245-.015-.075.258-.697-.496-.407-.232-.176-.464.005-.331-.214-.067-1.003.263-.38.129-.204.186-.25.124-.299.057.166.516-.036.119-.448.015-.449-.103-.114.33.097.274-.287.201-.129.181-.488-.026-.193-.202-.29-.031-.187.207-.297-.176-.541-.02-.135-.382-.017-.274-.135-.155-.32-.113-.081-.367-.122-.211-.067-.351-.314.165-.362-.078-.444-.304-.178-.31"/><path id="Івано-Франківський" fill="#C8C6C6" fill-rule="evenodd" stroke="#000" stroke-linecap="round" stroke-linejoin="round" stroke-width=".2" d="m137.284 116.999-.689-.062.081-.305-1.012-1.042-1.054-.857.163-.31-.811-.733-.648-.428-.526.062-.932.057-.324.123-.121-.614.04-.242-.445-.248-.203-.305-1.012-.794-.203.428-.364-.428-.284-.491-.405-.49-.04-.248-.122-.242v-.31l.122-.243-.081-.371.081-.119-.122-.248-.405-.304-.284-.434-.04-.366-.203-.428-.202-.186-.283-.429-.365-.242-.405-.372-.405-.062-.486-.18-.851-.186-.162-.124.041-.243.162-.185-.081-.248.081-.243-.284-.186-.202.248-.203.491-.283.123-.405-.49.202-.372-.121-.794-.162-.372-.446-.181-.405-.309-.243-.305-.04.243-.162.248.202.242-.364.248.486.062v.186l.324.366.08.243.325.495.162.49.405.491h.324l-.041.18-.688.434-.243.062-.81.552-.203-.124-.162-.309-.324-.305.203-.676-.163-.062v-.305l-.688-.676h-.162l-.243-.428-.364-.186-.446-.062-.527-.18-.405-.124-.567-.062-.283-.367-.284-.124v-.8l-.324-.428-.729-.372-.202.186h-.162l-.122.248-.04.552-.122.614h-.769l-.365-.371-.526-.181-.891-.433v.247h-.203l-.769-.304.04-.496h-.081l-.526.062v.062l-.365.186-.689-.738-.526-.428-.567-.31-.324-.614-.405-.614-.122-.305-.486.124-.242-.31-.406.062.122.186h.284l.121.18-.081.125.04.614-.121.062-.405-.857-.527.304-.364-.123-.284-.062-.526.371-.284.429.162.49-.486.186-.283-.124h-.244l-.445.552.365.31-.487.733-.161-.429-.405.186-.243-.552-.244-.372-.891.31-.243.186.324.366.082.186.324-.062.121.124.283.057-.526 1.29-.526 1.228-1.539.981h-.325l-.202.124h-.243l-.284.186-.364-.372-.446-.552-.526-.367-.77-.552-.77-.304-.283.366-.608-.186-1.134-.124.082-.242-.406-.062-.607-.186-.243.248.121.124-.08.18-.203.124.081.248-.324.552v.305l.122.124-.122.242-.122.676-.283.491-.243.061v.31l-.73.49-.12.367h-.203l-.405-.243-.527.367-.04.304-.77.862-.364-.31-.446-.18-.283-.186-.648.124h-.122l-.284-.248-.202-.186-.486-.056-.405-.31-.284-.062h-.283l-.162.49.243.248-.162.186.202.119-.04.49.931.8.73.49.526.429.122.062.607.428-.122.428-.283.491v-.243l-.162-.31-.729.186-.162-.062-.405-.304h-.162l-.567-.553.567-.123-.243-.305-.324-.062-.324.243-.445-.062-.284-.305-.364.919-.203.31-.203.056h-.243l-.04.248-.284.367-.08.366-.203.186-.162.247-.325-.185-.404.062-.405-.062-.203-.124-.162-.243-.365-.124-.607.186-.324-.062-.445.243h-.163l.041.186-.202 1.285.243.124-.406.428-.283.124-.202.552-.324.367-.041.366-.243.243-.04.247.283.305.121.49-1.255.062-.608.062-.769-.062-1.094.186-.283.181-.446.123-.121.124-.446.119-.85.062-.527.124-.081.062-.567.124-.243.18-.77.248-.202.181-.04.247.202.609-.162.248v.181l.162.186.04.366-.688.186-.081-.124-.365.186-.161-.062-.527.304-.243.186-.284.119-.486.428-.283.124-.041.186-.81-.062-.405-.186-.203.124h-.485l-.162.243-.325.309v.485l-.161.372-.365.428-.365-.309-.485-.547-.851.609-.446-.062-.729.614-.243.242-.202.553-.81.795-.284.366-.162.366.122.491-.122.857-.08.67-.325.243-.567-.057-.283.243v.186l-.162.118-.244.553-.324.428.041.243-.04.366-.608.795-.77.242-.202.491-.284.062-.243.242H54.74l-.688.124.08-.186-.161-.671-.203-.547-.486-.366-.526.18-.203-.123h-.324l-.203-.119h-.404l-.568.18-.283-.061-.526.309-.082.367-.283-.124-.364-.429.04-.242.162-.124.608-.671-.284-.428-.567-.186-.364-.305-.081-.304-.406-.305-.161-.49-.365-.304-.04-.186-.365-.367.081-.428-.04-.181.242-.366-.161-.372.08-.366-.162-.429-.161-.547-.081-.186.202-.547-.162-.552-.162-.124-.162-.366-.081-.552v-.491l.567-.366.486-.429.04-.547.162-.247-.08-.243-.244-.31-.04-.118-.284-.248-.04-.124.122-.366v-.305l.121-.242-.081-.186.04-.491-.243-.918.487-.243.81.429.283.428.203.062.486.242.486.367.324.062.445-.243.284-.428.08-.186.041-.552-.243-.181.04-.433.203-.305.081-.366.203-.305.283-.186.162-.185h.527l.202-.305.162.062.446-.305.243.181.243-.181-.364-.371-.203-.609.162-.372.324-.119.486-.123-.04-.124.202-.367.081-.309.648-.547.243-.248.486.062.202-.124h.527l.121.186.203-.248.04-.614.122-.243.243-.186.162-.304.243.062-.04-.248.486-.366.688-.367-.324-.371-.162-.491.324-.242.243-.31.203-.057.324-.247.243-.124.607-.181.284-.186-.122-.366-.243.18-.12-.366-.285.062-.161-.372v-.242l-.163-.062.081-.429-.121-.185v-.305l-.162-.738.121-.248.203-.118.688-.248.203.062.526-.062.163.124.404.124.203-.062-.081-.31h.283l.203.124v.124h.486l.283-.062.041-.367.162-.185.162-.491.243.429.283-.305.082-.248-.608-.247-.08-.119.12-.496.203-.056v-.248l.486-.614.243.062.081.186.203.118.324-.428v-.49l.243-.367.242-.186.082-.49.08-.124.203-.552-.08-.248.282-.428.244-.062-.243-.248.283-.124v-.242l.203-.248.202.124.122-.062-.122-.243v-.247l.284-.49-.122-.063.324-.247v-.248l-.121-.18.08-.491.041-.186.405-.124.203-.371v-.181l.162-.186.202-.124v-.242l.122-.186.243-.062.121-.248v-.552l.122-.062.243-.428-.081-.248.202-.367-.121-.123.121-.248.324-.305v-.062l.324-.185.406-.924.04-.367.121-.185.163-.062.121.304.243.372.081.371.243.18.203.063h.526l.364-.305.325-.371.04-.367-.04-.31.242-.371.244-.304.364-.062.04-.248.527-.428-.162-.677.405-.247.203.062v-.31l.405-.676.324-.062.121-.186.284-.124.121-.304.203-.248-.081-.186.121-.304.405-.434.163.062.202-.366v-.31l.121-.31.163-.186.08-.304.446-.434.203-.304.161-.186.203.062.04-.31.244-.185.283-.124.284-.429.08-.371.163-.062.121-.305v-.124l.446-.557v-.186l.567-.49.08-.496.163-.49.202-.124.324-.124.325-.247v-.124l.323-.18.081-.187h.203l.283-.31-.04-.309.08-.243-.08-.185.526-.496v-.186l.244-.062h.202l.121-.242-.04-.248.364-.248v-.185l.163-.186.08-.248.244-.119-.243-.186.121-.123.081-.31-.122-.248-.364-.186-.04-.49.04-.124.527-.248.242.248.527-.371.243-.248.608-.367.121-.185.648-.31-.324-.31.203-.124-.567-.676.04-.433.243-.062.203.062.08-.31.284.124.121-.186.244-.186-.04-.18-.365-.124-.122-.186-.567-.495-.202-.248-.324-.062-.284.062-.364-.062-.446-.31-.486-.49.08-.372.204-.186.405-.123.364-.496-.527-.366.446-.31.081-.186-.324-.31h.243l.162.124.243-.247.122-.31.324-.49-.324-.124.445-.31.081-.186-.04-.31.283-.68-.284-.124-.161-.615-.284-.619v-.186l.121-.433.122-.124v-1.358l-.202-.619.161-.99-.242-.558-.162-.31.162-.552-.446-.434-.04-.123-.527-.372-2.754-1.858-.284-.186.203-.557.364-.805.04-.372.284-.558.04-.247 1.58.247.122.124.203-.124.445-.123-.04-.186.364-.124.243-.062.203.124.648.31.364-.31.85-.991.325-.31v-.186l-.365.124-.607-.124-.446.186-.567-.248-.202-.123-.284-.372.04-.31.203-.619-.04-.372-.122-.495-.324-.248-.486-.557-.932-.93-.243.063-.162.185-.364.558-.648.434-.203-.063-.162-.31-.405-.495-.648-.31-.445-.37-.487.061-.323.434-.162.123h-.284l-.243-.185-.243-.31-.162-.434-.243-.123-.364-.124-.527.062-.567.247-.567.062-.567-.247h-.405l-1.175.247-.648.248-.364-.062-.608.062-.648.062-.81-.31-.607-.186h-.325l-.81-.247-.688-.496-.324-.433-.405-.31.283-.124.203.062-.04-.867.121-.62.364.187.041-.496-.202-.372.08-.185.203.062.202-.124h.203l.04-.996.446-1.053v-.372l-.445-.062-.041-.62-1.499-.685-.162-.063-.324.253-.283.31-.608.186-.405.372-.648.433-.121.248-.244.062h-.242l-.284-.806-.202-.743-.041-.81.04-.62.203-1.8.081-.186 2.066.371 1.255.31.122-.248.243.124.243-.372.85-1.052 1.58 1.615.243.124.081-.253.081-.372.324-.867.243-.371.365-.934v-.31l.648-.434.08-.433-.647-.186-.041-.191.202-.681v-.62l.163-.686.162-.124.04-.434.365-.619.121.124.446-.253.324-.062.283-.186.122-.247h.405l.364-.186.081-.496-.648-.188.203-.31-.405-.374.04-.186-.81-.56-.405-.497h-.364l-1.256-.249.162-.746v-.373l-.08-.497.161-.187-.81-.498-.405-.062-.162-1.555v-.622h-.486l-.689-.063.122-.31h.405l.405-.312 1.053-.871.121-.062 2.188-.312.203-1.805.202-.872.243-1.12-.446-.063-.486-.996-.486-1.683.243-.373.406-.063.283-.81h.283l.73-.374.647-.187.648-.373-.202-.374.405-.187-.284-1.247-.121-.25-.04-.374-.162-.436-.041-.312.324-.374.567-.374.365-.437.08.062-.04.063.162.56 2.35-.56.161-.063V.681l.203.124.162-.187h.161V.93l-.08.25.202.124.04-.25.244.375h.324l.162.125v.25l-.284.31-.324.126-.04.312.08.249.122.187.122.374-.162.436.121.187.243.063.405.311.243.375-.04.249.161.187.365-.25.567-.249.77-.187h.283l.284-.187.283.063.406-.25.283-.312-.162-.187.446-.25.283-.124 1.58-.873.445.312v.312l.162.062v.25l.324.187.77.872.931.5.324.31.243.126.243.249.527.124.243-.249.243.063.284.56.445.374.08.312.649.436.365.063.283-.063.405-.312.243-.56.203-.063.405.312.93.436.447.374.567-.312.648.436.243.063v.125l.486.249.121-.125-.04-.25.162-.062h.567l.324-.124.567-.124.04.186.365.187.243.25.04.249v.623l-.324.31-.121.188.486.187.283.373.081.312.365.498.162.311.283.25.203.373-.122.374.122.311.202.311v.25l.284.435-.081.187.446.498.405.373.485.996.406.56-.081.373-.243.25-.041.186.284.498.242.933.122.062v.373l-.122.311.082.436.04.373-.04.497-.122.497.162.187-.04.187.202.56.081.123-.121.311.202.125-.243.686h.284l.04-.189.243-.124.648-.125.041-.062.648-.124.486-.249.081-.248.567-.311.162-.063.324.187.243.249.527.062.161-.124.081.124.082.31-.122.374.122.56.121.248-.041.248.081.624.122.31v.186l.202.371.324.434.243.062.081.253.608.185.162.248.284.186.283.31-.202.31-.405-.125-.406.248h-.202l-.283.377h-.487l-.243.743-.121.867-.041.377-.202.495v1.363l.162.563.121.247-.121.186-.122 1.239-.081 1.12.324.062.73.248.081.557.161.867.041.495-.041.749.77.31.527.247.161.124.284.062.486-.186.648.496.486.185.203.248.688.434.527.557.486.31.446.186.647.123h.648l.568.372.08.372-.04.433-.932.434-.243.248h-.121l-.365.247-1.255.991-.891 1.982-.122.186-.85.867-1.742 1.734.081.372-.041.433v.434l.081.371-.081.31.284.062-.04.186.161.186.406-.31.607.929.365.62.486.805.324.247.486.367.526 1.114.041.186.243.062 1.377.124.769.062.365.062 1.256.062.364.124h.162l.243-.31 1.296.929 1.175.557-.243.124.081.248-.041.18-.202.31v.31l-.162.062-.162.495v.372l-.324.186-.041.371.365.186.202.243-.081.186.203.186.324.185.526.248-.04.372-.203.743.324.118v.062l-.04.62h-.77l-.607-.124h-.77l-.121-.248-.162-.248-.487.062-.445-.366-.567-.124-.081.248-.283-.434h-.365l-.203-.062-.243.186-.081-.124-.728-.247-.041.185-.405-.247-.122.31-.324.309-.121-.124-.202.738-.082 1.053-.121.31-.041.923-.121.434.202.372.527-.124.121.248.284.49.405.371.243.372.324.124.405.304.405.558.851.681.202.243.607.371.325.31.162.495.121.124.486.367.162.31.041.31v.428l-.041.185-.486.558-.081.185.041.429h.243l1.539-.738.81-.372.324-.247.688-.367.163-.186.648-.495.526.31.445.495.244.186.202.18.041.186.283.124.202.124.163.248.243-.062.242.124.082.31.405.304.567.186.485.062.892.433-.041.248.405.118.527-.061-.041-1.11.041-.062 1.417-.18.365-.125.284-.123.648.247-.406.676-.364.186-.202.372-.122.614.162.924.202.433.122.553-.203.247.244.248.647.428.405.124.284.124.486.372.203-.124.121.49-.04.124.405.248.324.31.121.304-.202.372-.487.614-.445.371-1.134.615-.162.247-.041.31.082.738.324.614.243.862.566 1.296.243.8.082.8.081.49.04.31-.203.49.082.31.283.304.243.124.446-.062.283.062.648.31.202.062.365-.186.243-.248.284-.49.081-.372.04-.738-.04-.428-.041-.31-.324-.18-.162-.372.081-.372.162-.18.081-.31.689-.49 1.134-1.048.283-.248.243-.428-.04-.248-.445-.495-.244-.615.244-.31.283.125.243.185.729.372.202.062.243-.062.203-.186.405-.495.364-.367.486-.248.365.062.243.434.121.676-.121.614-.445.676-.203.62.162 1.29-.081.862v.433l-.121.8-.324.981-.527 1.234-.486.861-.202.553-.163.552.041.248.122.18.283.124.324.062.486-.124.162-.118.284-.248.081-.248.283-1.228.203-.552.121-.124.527-.186.405.062h1.053l.486.062.607.124.851.304.121.248.081.31.122.304.121.433v.615l.162.242.243.186.567.124.365-.124.526-.248.365-.056.364-.062.163.062.243.18.121.434v.552l-.121.49-.243.434-.527.428-.445.186h-.244l-.486.124-.445-.062-.77-.124h-1.013l-.728-.062-.527.062-.364.243-.851.738-.445.495-.122.18-.121.677v.31l.162.676.121.49.162.304-.162.062-1.094 1.11-.364.367.162.185.891.919.486.428.365.248.324.919.162.552.364.8-.324.248-.405.304.445.429.082.186.688.856-.324.124-.486.31-.567.428-1.539 1.043-1.175.918-.364.248.81.857.486.981.526-.062.122.247.81 1.714v.124l-.648 1.533.081.242-.121.31-.405.671-.527 1.104-.162-.247-.283.123-.649-.49-.121.124-.608.243-.121.123-.405.677-.689-.429-.607.857-.324.119-.486-.305-.77-.366-.04.062Z" clip-rule="evenodd"/><path id="Калуський" fill="#C8C6C6" fill-rule="evenodd" stroke="#000" stroke-linecap="round" stroke-linejoin="round" stroke-width=".2" d="m69.058 91.655-.134.098-.023.506-.123.268-.212.041-.128.233-.02.211-.206.114-.165.206.018.212-.213.377-.408.067-.011.18-.1.547.132.15-.02.227-.294.248.113.113-.301.486v.237l.133.217-.124.087-.202-.129-.214.238.013.242-.275.13.224.278-.228.052-.29.392.078.268-.196.568-.087.13-.077.433-.23.206-.273.403.018.48-.312.392-.21-.093-.1-.217-.249-.031-.466.62.009.227-.225.087-.106.45.086.118.593.258-.066.243-.308.325-.235-.408-.148.47-.156.186-.042.392-.289.057-.487-.016-.01-.149-.187-.104-.302.016.097.299-.194.057-.4-.134-.165-.119-.537.067-.224-.067-.676.253-.202.114-.102.221.144.754-.003.31.117.201-.054.392.159.103.003.248.123.372.317-.047.123.346.234-.211.132.412-.297.129-.61.181-.256.134-.297.253-.225.062-.23.305-.336.242.182.537.311.361-.681.32-.478.392.04.264-.243-.073-.181.274-.248.191-.108.237-.053.646-.203.263-.13-.202-.491-.01-.223.119-.503-.083-.213.264-.659.557-.077.33-.194.367.012.118-.459.104-.35.144-.156.377.223.583.344.392-.224.191-.238-.185-.444.258-.189-.037-.212.315-.506-.036-.172.207-.285.211-.188.294-.092.341-.183.33-.057.429.246.196-.04.537-.066.191-.3.402-.454.263-.299-.067-.482-.361-.49-.268-.211-.062-.296-.398-.803-.449-.497.238.266.96-.038.449.052.185-.097.238-.013.33-.118.361.04.129.283.259.024.118.257.315.071.212-.144.232-.045.563-.488.438-.579.372-.004.516.107.495.158.418.174.109.147.516-.212.547.096.186.165.583.164.403-.102.407.15.326-.206.356.028.201-.093.423.356.382.058.176.355.34.173.444.409.325.057.31.4.33.538.145.279.423-.587.702-.165.129-.032.222-.64.036-.184-.103-.35.139-.282.377-.038.206-.276.222-.09.248-.429.103-.455-.268-.27-.072-.055.96-.238.17-.511.258-.132.433-.068.052-.464-.408-.36-.242-.337.175-.092.129-.422.207-.173-.047-.202.14-.358.123-.14-.036-.19.269-.175.103-.194.408-.06.258-.207.087-.134.217-.29.124-.205-.057-.448-.299-.036-.16-.678-.036-.638.222-.11-.016-.298-.345-.133.015-.21.217-.434.309-.047.382-.295.372-.023.428-.113.336-.463.728-.08.356-.118.211-.495.186-.143.222.053.232.2.408.339.31.04.433-.295.315-.426.165-.53.46-.24.072-.412-.171-.156.016-.448-.109-.492-.356-.418.057-.217-.16-.469-.119-.552-.077-.286-.196-.215-.284-.31-.145-.335-.371-.177-.387-.019-.232-.13-.393.05-.547.515-.279-.152-.19.501-.573-.077-.274-.048-.485.046-.583-.154-.227.168-.46.515-.407-.027-.429-.27-.33-.113-.336.17-.222-.32-.526.171-.305-.431-.387.044-.376.22-.171-.006-.284.123-.562.268-.258.37-.263.18-.656-.257-.108-.76-.119-.34-.155-.195-.495-.267-.294-.055-.191-.295.366-.531.351-.316.304-.274.093-.276-.072-.458.201-.31-.196-.655-.216-.192.056-.163.181-.31.067-.791-.33-.244-.181-.324-.144-.52-.651-.356-.191-.291-.237.235-.635-.172-.439-.373-.18-.417-.269-.345.274-.24.015-.29-.258-.433-.222-.361.057-.018-.232-.125-.382-.268-.279-.195-.031-.371-.449-.108-.227.019-.248.379-.475.045-.242-.514-.217-.072-.227-.253-.243.065-.222-.079-.366.124-.361.188-.124.305-.067.04-.522.202-.19-.128-.243-.017-.274.085-.175-.135-.439.268-.201.007-.222-.181-.175-.157-.382-.45-.491-.455-.072-.268-.253-.114-.015-.514.325-.241-.15-.064-.201-.238-.274-.874.248-.346-.232-.331-.026-.12-.088-.336.078-.067.294-.376.34-.149.253-.206.135-.324-.026-.28.108-.101-.114-.428-.041-.32.114-.46-.109-.159.057-.253-.113-.593-.589-.297-.113-.527-.279-.367-.465-.122-.351-.043-.304-.14-.253-.361-.403-.103-.5-.293-.263-.178-.073-.248.093-.268-.175-.098-.46-.089-.201-.354-.108-.23-.382-.27-.279-.495-.237-.134-.238-.222-.062-.32-.18.197-.594-.023-.278-.298-.367.202-.511-.306-.428-.373-.382-.353-.274-.443.119-.252-.114-.35.341-.266-.067-.308-.217-.462.124-.245-.015-.175-.176.024-.408-.247-.283-.027-.589-.095-.155-.308-.118-.277.046-.812-.619-.54-.212-.31.057-.553-.103-.596.144-.44-.175.096-.042.02-.665.117-.439-.055-.372.146-.459.365-.578-.083-.387.178-.893.295-.501.115-.583.103-.046.326-.46.077-.345.114-.16-.002-.238.333-.186.447-.444-.13-.356.165-.186.072-.31-.385-.345-.142-.47.029-.087-.29-.429-.046-.624.05-.408-.106-.18-.553-.697-.375-.589.106-.294-.047-.237-.524-.372.78-.645.331-.196.07-.589.132-.345.178-.202-.036-.366-.235-.253.321-.274.385-.17-.143-.418-.452-.614.271-.248-.042-.186.1-.325-.002-.279.45-.5-.05-.17.52-.656.328.031.585-.485.148-.072 1.069-.01v-.692l-.088-.31-.395-.119-.294.047-.354.144-.517-.211-.389.041-.148-.046-.443-.424-.06-.34-.195-.325-.096-.32.033-.238-.17-.366-.269-.212-.138-.573-.384-.516.18-.402.19-.661.21-.444-.005-.263.358-.95.229-.227.08-.284.143-.201-.022-.17.206-.454.312-.44.112-.572-.009-.227.084-.496-.372-.356-.109-.222-.05-.315-.147-.294-.667-.31-.237-.19-.083-.32-.035-.418.12-.181.286-.232.424-.217.207-.232.377-.547.396-.315.675-1.177.463-.485.254-.036.724-.532.545-.578.198-.31.225-.165-.119-.454-.02-.346-.144-.407.153-.346.25-.052.57-.356.16-.253.204-.134.431.222.09.547.578.397.226-.124.396-.412.286.15.743-.821.449-.65-.057-.48.396-.316.119-.258.02-.273-.138-.294.099-.919.258-.826.294-.268.195-.067-.155-.527-.236-.227-.368-.113-.084-.496.358-.433.167-.29.095-.402-.16-.268.57-.93.058-.278.36-.129.14-.124.188-.371.163.046.404.273.238-.35.277-.15.093.17.31.274.104.304.032.418.465-.325.18-.03.61-.507.158-.03.254-.393-.033-.29.13-.314.026-.279.397-.263.542-.067.254-.18.23-.29-.085-.541.348-.197.445.005.275.28.472.36.2.362.308-.284.407-.454.166.175.288.46.122.046.336.351.218.521.37.217.405-.145.125-.185.384-.17.172.072.453-.006.12.104.47-.217.215-.377.262.062 1.042.108 2.234.3.79.201-.2.186.072.397 1.235.186.387.088.543.454.131-.098.194-.361.159-.46.346-.573.748-.609.298-.2.297-.336.18-.398.738-.382.428-.315.806-.345.51.206.67-1.264.91.444.256-.068.503.264.444.123.83.3.708.5.11.326-.09.325.079.382.562.072.266-.119.235-.294.457-.397.4-.196.3-.506.273-.284.013-.124.215-.212.197-.52.102-.042.133-.31.24-.118.231-.28.063-.345.095-.103 1.023.118.486-.072.23.155.2.026.197-.366.114-.083.366.212.401.087.261.13.331.051.28.377.26.175.374.052.463-.212.273.191.255.072.517-.216.477-.14.354.026.282.197.013.2.308.821.232.367.502.284.792.056.026-.314-.13-.506.202-.46.51-.846.132.078.737.061.333.222.268.073.206.17.219.542.28.242.499.047.818-.047-1.28-.707.69-.743.185-.144-.082-.351.342.005.634.392.694.072.114.057.521-.026.678-.495.008-.196.316-.01.188-.104.22-.263.47-.367.335-.175.148-.196 1.042-.862.604-.413.21-.036.739.031.239-.124.526-.051.077-.068.5-.118.393-.3.26-.113.29-.047.413-.222.401-.283.536-.217.778-.088.349.098.182-.16.162.02.282-.577 1.554-.372.779-.087-.011.128.544.857.628.496.33.377.679.345.265.217.29.325.16-.15.392-.108.39-.212.624-.263.214-.35-.281-.212.148-.418-.023-.346-.18-.325-.154-.506.265-.64.269-.243-.017-.283-.18-.424-.076-.433.003-.728.161-.305-.227-.619.078-.304.597-.666.424-.516-.014-.047.568-.216.541-.057.353.098.228.155.17.402.27.325.235.181.256.015.184-.123.339-.475.452-.057.452.372.67.356.38.449.174.335.223.057.623-.465.376-.552.17-.165.211-.052.958.909.49.599.301.247.152.444.024.413-.215.583-.042.32.282.372.225.155.564.196.455-.15.607.114.331-.14.023.18-.345.357-.847.97-.357.294-.658-.283-.175-.114-.246.036-.364.15.022.175-.433.083-.194.17-.148-.113-1.581-.263-.046.206-.244.604-.076.35-.344.8-.193.579.276.175 2.761 1.853.522.356.032.13.44.454-.173.567.183.31.225.521-.14 1.007.194.583.013 1.414-.125.108-.142.418.015.207.26.599.162.624.317.13-.303.68.04.269-.086.242-.424.258.331.14-.335.495-.133.32-.229.264-.164-.16h-.242l.321.325-.072.185-.477.295.561.397-.371.454-.403.134-.208.217-.082.382.496.49.443.294.349.047.302-.041.302.046.188.232.595.496.099.186.385.134.054.212-.266.17-.117.17-.267-.113-.11.299-.196-.083-.233.093-.044.403.569.681-.189.165.296.279-.631.304-.137.228-.59.34-.257.238-.528.392-.216-.258-.54.248-.046.144.027.45.36.18.141.304-.097.29-.127.123.244.145-.245.134-.042.294-.17.144-.026.186-.335.264.03.211-.14.279-.169-.031-.26.108.013.15-.527.495.054.197-.07.232.061.346-.306.294-.203.01-.075.175-.315.166-.02.139-.303.268-.343.078-.205.15-.172.474-.079.48-.556.527.014.16-.454.552-.007.17-.114.279-.146.062-.095.346-.293.47-.284.092-.234.196-.046.305-.181-.026-.193.129-.172.31-.474.438-.053.315-.173.18-.126.316L77 82.7l-.18.335-.147-.01-.423.439-.104.263.075.19-.2.228-.143.315-.258.14-.123.2-.327.073-.413.655-.025.284-.18-.03-.394.226.16.666-.525.423-.064.3-.363.061-.22.253-.248.424.041.304-.067.32-.304.413-.369.31-.528-.031-.199-.062-.25-.202-.067-.325-.254-.376-.109-.305-.167.046-.128.176-.058.402-.402.92-.298.144-.009.098-.317.304-.137.243.147.124-.22.376.09.202-.234.439Z" clip-rule="evenodd"/><path id="Надвірнянський" fill="#C8C6C6" fill-rule="evenodd" stroke="#000" stroke-linecap="round" stroke-linejoin="round" stroke-width=".2" d="m93.461 179.11-.243.119h-.324l-.486-.119-.243-.186-.81.429h-.122l-.202.299-.405.062-.243-.062-.567-.604-.081.062.243.3-.284.185-.162.3-.121.062-.04.423-.082.186-.567.604h-.405l-.243.242-.121.243-.04.366-.284.243-.163.423.122.361.122.124-1.094.485-.162.181-.081.242-.243.119-.162.186h-.202l-.203-.186-.486-.057-.365-.123-.324-.181-.445-.124-.04-.119.243-.547-.082-.299-.04-.547-.405-.305-.162-.18-.121-.486v-.18l-.284-.124-.567-.485-.85-.485-.163-.666-.121-.243.162-.304.162-.181.162-.485.203-.243.323-.304.486-.062.082-.243-.163-.18-.04-.243-.446-.18-.08-.186.08-.3-.08-.124v-.304l.566-.243.365-.423.162-.304.202-.181-.364-.671.324-.242.324-.971.243-.304.324-.119h.284l.445-.181.122-.124-.284-.547-.364-.727-.122-.124-.365-.243-.121-.18-.364-.367-.527-.423-.73-.243-.445-.124-.202-.118-.446-.186-.364-.057-.284-.124h-.486l-.121-.242v-.243l.121-.609.162-.118.081-.429-.121-.119.162-.671-.04-.665-.082-.305.284-.304-.04-.305-.082-.181-.08-.428-.163-.119-.364-.366-.243.062h-.284l-.081-.243-.324-.247-.162-.243-.04-.243-.243.062-.122-.18-.364-.124-.082-.062.122-.243-.08-.304-.203-.119-.487-.124-.526-.423v-.124l-.283-.366-.162-.062-.041-.243.162-.423-.04-.243-.162-.123-.608.242-.243-.242-.04-.486-.203-.062-.162-.242-.04-.186-.325-.119-.283-.304-.04-.243.202-.366-.121-.124-.284-.057-.122.119-.405-.119-.202-.124-.122-.242h-.202l-.243.18-.405-.118-.082-.124-.04-.423-.121-.124-.081-.243-.324-.062-.122-.428-.324.062-.729-.609-.283.062h-.487l-.243-.181-.202-.062-.203-.242-.04-.367-.284-.366v-.305l.081-.304-.04-.181.162-.428.04-.181.365-.428-.121-.305-.243-.304-.406-.429h-.405l-.08-.304-.325-.243-.364-.062-.162-.18-.284-.181-.526.057-.365-.119-.283-.428-.324-.062-.77-.424-.486-.123h-.283l-.446-.062-.364.304-.284.547.081.367.324.49.243.547-.121.124-.365.119-.08.242v.248l-.163.181-.486.242-.121.429.121.242-.081.124-.364.305-.203.304.121.243-.12.366.161.243-.689.366-.243.181-.283-.124-.122-.181-.526-.428v-.243l-.526-.18h-.284l-.203.118-.77.186-.323-.124-.365-.304-.729-.728-.445.243-.405-.062-.567-.305h-.284l-.364.305-.406-.062-.121-.305.121-.242.163-.79-.608-.062-.283-.062-.244-.124v-.18l-.283-.671-.243-.119-.284-.062-.202-.124-.405-.423-.081-.428-.121-.243.04-.248.243-.485-.04-.181-.365-.428-.567-.49v-.119l.162-1.037.203-.181-.163-.31.081-.361-.08-.186.08-.485.082-.366v-.248l-.406-.243-.242-.062h-.284l-.243-.304-.122-.305v-.242l-.08-.186.202-.119-.122-.49-.324-.305.284-.366-.203-.181.122-.247-.243-.181.04-.181-.08-.794.12-.305.203-.062.081-.242.446-.615.203-.18.161-.305-.364-.49-.608-.49-.243-.424-.445-.185-.243-.181-.203-.31v-.304l.324-.243v-.366l.203-.186.08-.181.082-.733.324-.304.486-1.099-.081-.429v-.304l.081-.367.526-.309.284.062.567-.181h.405l.203.119h.324l.202.123.526-.18.487.366.202.547.162.671-.081.186.689-.124h1.053l.243-.242.283-.062.203-.491.77-.242.607-.795.04-.366-.04-.243.324-.428.243-.553.162-.118v-.186l.283-.243.567.057.324-.243.081-.671.122-.856-.122-.491.163-.366.283-.366.81-.795.203-.553.243-.242.728-.614.446.062.85-.609.487.547.364.309.365-.428.162-.372v-.485l.324-.309.162-.243h.486l.202-.124.405.186.81.062.04-.186.284-.124.486-.428.284-.119.243-.186.527-.304.162.062.364-.186.081.124.689-.186-.041-.366-.162-.186v-.181l.162-.248-.202-.609.04-.247.203-.181.77-.248.242-.18.567-.124.081-.062.527-.124.85-.062.446-.119.121-.124.446-.123.284-.181 1.093-.186.77.062.607-.062 1.256-.062-.122-.49-.284-.305.041-.247.243-.243.04-.366.325-.367.202-.552.284-.124.405-.428-.243-.124.202-1.285-.04-.186h.162l.445-.243.324.062.608-.186.364.124.163.243.202.124.405.062.405-.062.324.186.162-.248.202-.186.081-.366.284-.367.04-.248h.243l.203-.056.203-.31.364-.919.284.305.445.062.324-.243.324.062.243.305-.567.123.567.553h.162l.405.304.162.062.73-.186.161.31v.243l.284-.491.121-.428-.607-.429-.122-.061-.526-.429-.73-.49-.93-.8.04-.49-.203-.119.162-.186-.243-.248.162-.49h.284l.283.062.405.31.486.056.203.186.283.248h.122l.648-.124.283.186.446.18.364.31.77-.862.04-.304.527-.367.405.243h.202l.122-.367.73-.49v-.31l.242-.061.284-.491.121-.676.122-.242-.122-.124v-.305l.324-.552-.08-.248.202-.124.08-.18-.12-.124.242-.248.608.186.405.062-.082.242 1.135.124.608.186.283-.366.77.304.769.552.526.367.446.552.365.372.728.733.527.309.04.181-.161.186.04.185-.162.305.122.186.364.124-.121.552 1.012.671.162.062.122-.243.324.181.972.614.284-.243.404.367.365.552.243.181.324-.243.486-.186.202.8.365.609-.041.31.203.181h.405l.283.062.244.247-.163.243.041.248.202-.062.324.062.73-.062-.041.856-.122 2.148v.794l-.08.919-.041.552.972.062v.243l-.081 1.713-2.187-.124v.186l-1.134-.062-.122 2.08-.121 1.657-.243.119-.162-.181h-.365l-.162.119-.08.795-.203.856-.081.491-.081.304h.162l.486.8.243.243v.242l.081.31.364.243.446.061.162.119-.203.31.041.304-.284.243.041.428h-.283l.121.553-.041.428.203.304-.041.181.406.248-.163.304-.283.243v.186l-.202.304-.243-.062.121-.304-.162-.367-.284-.242-.405.423.162.248-.121.242-.567-.304.202-.243-.324-.49.122-.062.202.062.162-.733-.08-.186h-.244l-.283.31-.527.366-.04.243v.733l-.446.062-.162.124.324.242.041.243-.122.366-.283-.119-.567-.428v-.304l-.729.304-.041.062.486.423.324.124.324.305.324.185h.284l.121.119.243.062.122.305.324.123.04.857.243.367.324.242.446.552h.162l.041.486.04.123.405.181.041.124-.243.305-.77.247.243.305.04.304-.202.485-.243.248-.203-.248-.121.186.284.429.202.062.162.423v.552l.202.062.365.304.365.062.445.362.04.123-.364.186-.284.79v.248l-.161.18-.081-.304.04-.243h-.162v.243l-.04.428-.163.243-.324-.124-.121.304-.121.062-.041.243-.365.062-.202.186-.446-.062-.243-.186-1.093.614-.689.057-.243.186-.324.428-.405.361-.162.367-.364.552-.203.243.324.124.122.242.202.305v.304l-.162.671.081.181v.49l.122.609-.446.243.162.851.243.124.365.976.931.242.082.243.445.124.243-.243.162-.248.324.248-.081.119.04.609-.04.124-.243.18v.186l.243.361-.081.186-.243.305.162.423-.446.428.243.243.689.671-.445 1.156.364.242.405.367.283.366-.121.424-.283.123-.446.486v.366l-.162.243h-.405l-.486.18v.552l-.121.3v.795l.04.18.04.485.041.124.527.79-.244.728-.162.124-.202.366-.405-.124-.284.305-.324.123-.364.362-.365.062-.445-.062-.284.124-.243-.062h-.364l-.365.062-.364.242-.162.181-.243.062-.689-.181-.162.361-.04.491-.284.485-.365.119h-.404l.283.304.203.367.202.242-.04.485.323.305.568.671.202.299.284.305-.446.185-.203.486-.161.118-.244.485h-.08l-.122.491.122.299-.081.243.121.49-.121.119-.203.062-.324.304-.081.305-.324.242-.203.243.162.361-.648.485-.324-.057-.324.542-.08.305.121.242-.162.186-.648.423.324.424.324.304.04.181-.77.485-.364.366-.04.181.405.366.324.119.202.305.324.304Z" clip-rule="evenodd"/><path id="Верховинський" fill="#C8C6C6" fill-rule="evenodd" stroke="#000" stroke-linecap="round" stroke-linejoin="round" stroke-width=".2" d="M114.523 234.086h-.729l.203-.779.08-.424-.324-.299-.121-.299-.081-.604.041-.299-.284-.362.081-.48-.648-.542-.243-.242-1.053-.841-.04-.666-.203-.181-.121-.299-1.256-.661-.041-.242.162-.604-.08-.842-.284-.541-.365-.3-.648-.784.203-.661-.041-.181.244-.542.161-.123-.04-.3-.405-.124-.486-.056-.324-.124-.405-.057-.324.119-.284-.062-.324-.238h-.688l-.446.181-.162-.305-.04-.299-.243-.361-.041-.785h-.527l-.567-.242-.607.242-.445.965-.608-.665-.446-.238-.121-.542-.405-.361-.527.361h-.364l-.324.238-.365-.119h-.85l-.122-.361.04-.785-.162-.423-.728-.361-.243-.119h-.365l-.405-.304-.08-.3-.73-.299-.162-.305-.08-.48-.204-.18.041-.243-.162-.423.203-.604-.082-.542.284-.542.202-.423.041-.423-.324-.3-.162-.423-.324-.361-.243-.485h-.243l-.486-.181.122-.423-.203-.666-.405-.237-1.013-.424.122-.665-.324-.485-.243-.119.243-.666-.162-.181-.04-.361-.162-.542-.406-.423-.729.119-.324-.119-.486.423-.283.361-.406-.123-.121-.057.243-.423-.243-.305v-.242l-.243-.238-.73-.547-.08-.542-.689-.304-1.012-.181.121-.361v-.728l.162-.48-.04-.423v-.485l.162-.424-.081-.18.162-.305-.081-.18.486-.243-.203-.361-.04-.305.243-.66-.04-.243.08-.304.365-.542.122-.305.404-.361.325-.243.283-.547.121-.299.203-.305.405-.361h.446l.364.119.243-.119.202-.547.527-.361.122-.181.364-.243-.121-.485v-.18l-.365-.79v-.299l-.162-.424-.324-.242-.162-.305-.283-.18-.081-.486-.284-.123-.162-.181v-.485l-.284-.243v-.299l-.242-.186v-.299l-.203-.243h-.203l-.404-.124-.244-.18-.364-.542-.324-.305-.081-.242-.607-.305-.891-.119-.122-.423.121-.304-.04-.243-.324-.666.162-.185.243-.119.081-.243.162-.18 1.093-.486-.121-.123-.122-.362.162-.423.284-.242.04-.367.122-.242.243-.243h.405l.567-.604.08-.186.042-.423.121-.062.162-.299.284-.186-.243-.299.08-.062.568.604.243.062.404-.062.203-.3h.122l.81-.428.243.186.486.118h.324l.243-.118-.324-.305-.203-.304-.324-.119-.405-.367.04-.18.365-.367.77-.485-.04-.18-.325-.305-.324-.423.648-.423.162-.186-.121-.243.08-.304.325-.542.324.057.648-.486-.162-.361.202-.242.324-.243.081-.304.324-.305.203-.062.122-.119-.122-.49.081-.243-.122-.299.122-.49h.08l.244-.485.162-.119.203-.485.445-.186-.284-.304-.202-.3-.567-.671-.324-.304.04-.485-.202-.243-.203-.366-.283-.305h.405l.364-.119.284-.485.04-.49.163-.361.688.18.243-.062.162-.18.364-.243.365-.062h.365l.243.062.283-.124-.04.124.242.181.163.062.405-.305.486.367-.082-.609.487-.367.445.305v.671l.081.062h.608v.485l-.122.423-.283.304-.081.305.202.366.446.119.405.243h.203l.324-.181.323.062.324-.062.608.062.243-.305h.365l.324-.123-.081-.305.242-.243.082.186-.203.485-.121.547-.163.852-.121.299.162.429-.041.242-.121.367.324.361-.04.305-.122.366.607.243.324.18.082.243.81-.423.121-.243.567-.304.486-.062.365.242.607-.485.77.666.283.186.446-.305.324.423.527.367.324.118.04.243-.081.49.202.119.811.181.567.49.242.423.365.119h.405l.365.366 1.093.852.405-.243h.162l-.081-.304v-.305l.243-.304.041-.305.283-.242.284-.361-.081-.243.243-.124.688-.119.284.243.446-.367.161.305.243.062.163-.428.405-.057.08.18.203-.123.081-.243-.243-.181.243-.423.203-.186.404-.056h.365l.203.423-.122.361.324.428.243.062-.041.3-.283.304.283.429.325.242.121.3.446.185.324.305.283.18.041-.123.526-.424.244-.123.08-.119h.244l.364.119h.486l.162-.119h.405l.243.18.405.671.162.119.284.062.283.181.202.423-.04.186.243.604v.185l-.162.119-.283.367.161.18.122.361.324.186.486.062.243.243.203.057.931.304.284.124h.567l.526.243h.203l.041.423-.365-.062-.689.18-.364.186-.122.119.081.423.203.485.243.243.081.124v.304l-.365.666.041.547-.081.243-.284.299-.486.243-.283-.181-.527-.062-.445.124-.284.119-.203.242-.121.305v.304l.284.485v.542l-.163.186-.202.181-.486.118-.486-.056-.567-.243-.122-.124-.485-.242-.244-.424-.283-.18-.364-.062-.487.062-.161.057-.973.97-.081.186.203.542.405.366-.041.423.203.305.04.361.568.243v.304l-.041.361-.243.362-.284.304-.243.547-.567.181-.364.242.202.243-.162.243-.445-.124-.324.366-.203.119-.121.243-.324.727-.324.3-.689.727-.283.181-.365.304.243.243v.181l-.364.18-.081.305-.446.242-.324.3-.284.242-.202.062-.162.181.203.124-.081.118-.487.243-.121.119-.162.062-.041.304-.04.909.162.237-.041.305.081.123.284-.062.202.181.081.305-.081.118-.243.243-.324.485.081.361-.364.243-.081.299.203.243-.041.423.121.361.081.79.081.361.243.362-.081.304.041.361-.162.181.405.361h.324v.367h-.203l-.324-.124v.366l.163.362v.299l.161.062.203-.062.527.242-.082.181-.405-.119h-.202l-.162.424-.041.18.162.542.162.062-.04.181.324.604.121.062.446.056.121.186.244.057.04.242.121.181.365.124.202.237-.08.186.162.361v.3l.202.124.243-.186.121.062.122.242.243.062-.081.362.081.18.041.423.202.119v.361l-.243.062.081.305h.203v.299l-.608.062-.243-.18-.122.056-.121.367-.243.18.04.362.324.18-.08.48.08.181.365.062.283.361-.08.485.04.3.243.304.243.119.324.062.081-.181.446.181.04.299.203.124v.237l.445.305.405.057.162.366-.202.181-.243.48.162.062.162-.062.405.361h.202l.243-.119.162.119-.04.423-.243.243.04.237-.405.728-.121.542-.162.237v.547l-.243.119.121.243-.04.18-.243.418h-.486l-.203.424.122.242-.284.3-.324.242-.283.3.04.361-.405.361.081.243h-.202l-.163.242.082.119-.122.361-.486.181-.162.242-.162.362.041.18-.203.238v.242l-.121.243-.041.361-.122.48.041.119-.162.542-.122.242.082.181.04.299-.122.305.082.299-.284.423.041.181-.243.361-.203.181-.243.361-.041.78-.161.299-.203.181-.081.242.04.48v.305l-.08.056-.122.362.122.48v.062l-1.783.242-.81.057Z" clip-rule="evenodd"/><path id="Косівський" fill="#C8C6C6" fill-rule="evenodd" stroke="#000" stroke-linecap="round" stroke-linejoin="round" stroke-width=".2" d="m130.721 179.014-.043-.382h-.184l-.522-.258-.602-.005-.268-.134-.935-.253-.206-.093-.218-.227-.492-.098-.318-.155-.155-.346-.146-.186.298-.377.146-.098-.001-.237-.243-.568.032-.201-.201-.397-.286-.197-.262-.046-.191-.119-.394-.686-.22-.202h-.413l-.185.13-.484-.006-.363-.134h-.224l-.089.171-.252.123-.53.424-.037.123-.278-.196-.312-.299-.45-.17-.114-.315-.348-.258-.266-.413.267-.315.073-.294-.25-.077-.349-.439.114-.325-.201-.444-.349-.021-.391.057-.233.18-.236.455.235.154-.06.243-.19.124-.105-.165-.387.056-.182.434-.245-.036-.159-.31-.426.367-.282-.243-.688.124-.24.113.049.248-.278.331-.278.252-.022.32-.25.32-.007.274.101.304-.162.026-.43.207-1.099-.857-.365-.33-.406-.047-.352-.093-.248-.407-.546-.516-.805-.197-.234-.098.112-.459-.041-.263-.346-.145-.519-.351-.342-.423-.444.279-.275-.176-.782-.624-.599.449-.351-.201-.496.025-.56.284-.112.269-.802.428-.115-.217-.304-.18-.598-.269.119-.361.026-.284-.341-.402.135-.331.028-.237-.129-.475.124-.299.148-.821.129-.552.196-.491-.102-.154-.207.232.044.294-.314.119-.351.005-.258.268-.609-.067-.309.083-.308-.057-.343.212-.201-.026-.412-.258-.422-.083-.239-.372.107-.309.293-.305.121-.464-.02-.429-.626-.01-.069-.051-.006-.692-.442-.294-.48.371.099.573-.494-.335-.4.289-.184-.036-.246-.181.056-.119.433.042.365-.047.387-.402.294-.083.302-.341.393.16.227-.418.165-.124.24-.717-.525-.748-.065-.171-.014-.485-.059-.139.002-.785.114-.304.006-.573.487-.186.424-.026.136-.227.023-.33.427-.527.3-.123.107-.403-.295-.387-.382-.341-.363-.268.431-1.146-.676-.661-.262-.268.45-.377-.138-.428.236-.336.059-.185-.239-.382.008-.14.241-.196.044-.139-.03-.573.07-.145-.328-.227-.166.238-.23.201-.438-.108-.076-.196-.946-.259-.355-.98-.278-.139-.147-.857.434-.222-.09-.594-.021-.495-.067-.191.151-.692.02-.304-.233-.294-.123-.259-.291-.113.202-.222.364-.578.124-.366.418-.372.333-.408.231-.16.696-.098 1.103-.583.229.201.473.047.182-.171.347-.093.06-.252.114-.057.122-.284.319.129.154-.294.064-.408-.024-.258.175.015-.049.243.116.32.161-.217-.007-.237.289-.749.341-.201.137.134.261.083.027.32.149.573.098.113.073.387.584.269.504.155.465-.016.713.361.182.16.193-.015.286.139.096.155.187.036.183-.113.425.108.121.294.463.32.178-.397.33-.031.13-.119.384-.082.019-.387.245-.067.22.051.302-.304.363-.062.503.315.296-.289.342-.145.564.428.25.129.083.217.312.155.104.31.195.361.288-.408.246-.155.422.573.492-.222.869-.185.682-.011.553-.139.054-.181.205-.113.032-.202.319-.356.757-.082.168.103.582.114.22.237.286.134h.272l.868.119-.007.139.247.057.079.31-.089.588.161.315.366.098h.428l.343.052.287.351.611.015.362-.041.201.072.153.279.194-.037.251.135.137.299-.069.392.315.501-.11.242.195-.046.282-.248.435-.227.453-.124 1.252-.583.334-.088.202-.124.481.088.355-.036.178.31.444.304.361.078.315-.166.067.351.122.212.081.366.32.114.135.155.017.273.135.382.541.021.297.176.187-.207.29.031.192.201.489.026.129-.18.287-.202-.098-.273.115-.33.449.103.448-.016.036-.118-.166-.516.299-.057.249-.124.204-.186.381-.129 1.003-.263.214.067-.005.33.176.465.407.232.697.496.075-.258.244.015.112-.155.192.336.227.154.197.253.341-.093.345.088.324-.113.391-.217.101.397.205.062.239-.072.23.139.279-.01.418.16-.02.258.451.057.362-.057.465-.356-.222.501-.02.614.071.134.202.944.139.016.113.48.347.031.176.619-.009.269.213.319.903-.459.35-.263.442.568.179-.217.633.717.378-.273.192.155.433.18.358.552-.101.14-.101.237-.192.052-.512.676.073.175-.427.46-.095-.052-.357.062-.164.108-.257.295-.236.516.008.418-.079.32-.223.454-.266.237-.339-.01-.246.078.091.211-.101.423-.479.264-.144.289-.263.351-.244-.031-.391-.222-.369.139-.144.48-.293.392-.204.666-.162.48.025.346-.183.681-.274.181-.407.459-.143.047-.073.211-.254.217-.706.759-.069.314-.217.006-.19.175-.078.506.022.294-.195.279-.221.149-.228.47-.231.145-.248.428-.471.294-.308.356-.35.336-.315.18-.176.005-.407-.216-.468-.083-.521.026-.531-.026-.221.093-.336.268-.441.558-.236.211-.293.155-.351.263-.082.14.036.278-.083.119-.288.01-.765.558-.33.186-.237.036.112.304.559.129.274.191.201.413-.076.3-.319.196-.085.366.143.346.155.139.535.135.482.402.297.501.356.253.083.283.027.749-.034.629-.05.207-.243.284-.446.222-.567-.16-.602-.666-.406-.17-.514.031-.61-.129-.2.206-.426.263-.486.522-.161.366-.036.423.228.408.594.408.147.258-.112.273-.229.202-.556-.052Z" clip-rule="evenodd"/></svg>