<svg xmlns="http://www.w3.org/2000/svg" width="306" height="227" fill="none" viewBox="0 0 306 227"><path id="Каховський" fill="#C8C6C6" fill-rule="evenodd" d="m208.836 153.084.577-.036-.036 1.714-.087 2.751-.083 3.086-.01 1.662.196 4.196.113 2.88.052 1.373.092 2.121-.02.986-.211 7.38-2.498-1.708-5.986-4.103-1.251-.893-1.386-.645-1.38-.253-1.36.026-1.875.248-1.241.469-1.087.625-.835.593-.71.15-2.736-1.739-.453-.263-.917-.238-.474-.18-1.189-.955-.057-.325-.665-.744-.417-.087-1.071-.831-1.118.206-.417-2.549-.16-.228-1.437-5.574-.335-1.331-.592-2.297-1.88.31-3.441.588.412 2.307-1.473.274-2.143.356-1.282.232-.577.119-.742.119-.175-1.043-1.283-7.169-5.398.883-1.663.289-.387-2.529-.159-1.162-.036-.026-.32-2.023-3.188.511-1.02.124-2.22.325-1.288.207-2.632.392-.968-.764-.417-2.369-.211-1.306 4.398-.676.052-.124-.216-1.512-.413-2.715-.458-3.303 1.288-.242 2.137-.372 2.055-.382 3.956-.702 1.643-.304 2.689-.465-.041-.309 1.664-.284-.958-5.378.427-.083-.124-.702-.499-3.199-.5-3.113-6.639 1.146-3.307.552-.422.036-.351-1.987-.036-.087-.628-3.68-.391-2.106-.66.108-3.858.702-.324-1.863-2.673.454-1.855.088-.01.547.196 2.085-.258.031-.144.377.057 1.079-.412.046-1.453-.031-.855-.712-2.189-1.992.515-.382 1.272-.584.644-1.357-.108-.273-.464-1.342 1.783-.656.381.681.504-.361.402-.242 1.365-.584-.18-2.384-1.88.356-.711-1.528-.561-1.047-.706-1.358-.299-.542-.139-.413-.628-.49-1.247-1.011-.561-.413 1.432-.785 1.123-.717 1.246-.491.366-.005.602.217.902.439 1.143.516.845.253 1.535.495 2.215.325 2.235.733 1.097.676 1.092.377 1.046-.031.804-.077.355-.062 1.602-.485-.314-.212-.145-1.853.155-.377-.902.31-.005-1.141-.386-.061-.355-.259-.088-.361.155-.371.432-.46.072-.309-.051-.553.149-.79.052.021.226-1.13-.072-.656-.195-.16-.402-.216-.356-.516-.412-.986-.463-.542.963-.279.232.382.098.34h.185l.489-.526 1.705-.557.134.94 1.309-.233.18.862.994-.17.175.892.654-.196.088.413.427.408.387.263-.181.279.325.237.247-.129 1.489 1.58 1.607-1.363 1.184-.872 1.365-.671 2.287-.774 2.313-.393 1.7.067 1.468.155 1.664.16 1.344-.33 1.107-.841.799-1.383.226-1.539.072-1.45.207-3.845 1.555-2.534.494-.594.923-1.063 1.122-2.157.521-3.314.86-2.307.747-2.405 2.086-2.24 2.014-1.533 1.514-1.171 2.91-2.235 2.22-3.98.15-3.978.607-1.203 2.339-1.59 2.539-1.739.963-.655 1.319-1.538 1.36-1.57.556-.66.428-1.14 1.2-2.736 2.4-5.414.902-3.071.407-1.368-.083-2.508.355-2.555.124-.784-.154-4.33-.026-.604.206-3.753.067-1.321 2.529-.062 1.931-.062 4.548-.124 1.597-.216 3.822-.548 5.069-.686.515 3.03.551 3.065.103-.03.824 4.154-.479.078.752 3.814.984-.176.85 4.485-.114.134.577 3.391.33 2.137.098.5-.026.197.556.36.18.011.098.176.237.087 1.685-2.147.376-.521 2.369-.387 1.04 1.275 2.653-.46-.18-1.378 1.694-.31-.458-2.853 6.531-1.074.953-.35h.86l.026.061-.026.17-.165.134-.077.274-.201.248-.015.232.124.15.257.015.17.108.031.166.026.32.16.185-.685.088-.49.124-.458.047-.819.144-.665.083.181 1.259.577 3.07.36-.082.603-.051.695-.165.912-.155.067.284.077.665.242 1.074.258-.041.345 2.064-.32.108-.463-.103-.124.103-.319.052-.227-.072-.149.124-1.793.304.32 2.292.386 3.143.474 3.195.221 1.729.814 5.64.242 1.668-6.587.315-3.323.144.459 2.803-3.477 2.498-1.556 1.135-2.76 3.505.788.614-1.242 1.641-.752.955-1.025 1.342-.324.397-.68.92-.417.623-.052-.03-1.55 2.038-.727.93-4.383 5.754-.958 1.27 1.267 8.464.165 1.063-1.355.212-1.164.16-1.653.263-2.849.408-.376.082-.288-1.956-1.483.232-4.816.723.185 1.569.036.408-.999.175.16.423.53 1.766-.015.376-.181.573.335 2.405.165 1.373.366 2.989.438 3.422.103.031.324 2.461.85.341.196.17.139 1.322-3.683.702-2.843.521-.021.026.242 1.636-.85.113.103.806-.757.103.196 1.362.118.981.258 1.817-.397.578 1.381.8.803-.103.248 1.77.015.268-1.494.171.335 2.451 3.472-.485 3.595-.48.427-.062 2.622 2.281.711 5.198.412 2.606.53 3.701-3.919.541-5.532.78-1.082.149-1.767.269-1.818.268.108 2.245.129 3.252" clip-rule="evenodd"/><path stroke="#000" stroke-linecap="round" stroke-linejoin="round" stroke-width=".2" d="m208.836 153.084.577-.036-.036 1.714-.087 2.751-.083 3.086-.01 1.662.196 4.196.113 2.88.052 1.373.092 2.121-.02.986-.211 7.38-2.498-1.708-5.986-4.103-1.251-.893-1.386-.645-1.38-.253-1.36.026-1.875.248-1.241.469-1.087.625-.835.593-.71.15-2.736-1.739-.453-.263-.917-.238-.474-.18-1.189-.955-.057-.325-.665-.744-.417-.087-1.071-.831-1.118.206-.417-2.549-.16-.228-1.437-5.574-.335-1.331-.592-2.297-1.88.31-3.441.588.412 2.307-1.473.274-2.143.356-1.282.232-.577.119-.742.119-.175-1.043-1.283-7.169-5.398.883-1.663.289-.387-2.529-.159-1.162-.036-.026-.32-2.023-3.188.511-1.02.124-2.22.325-1.288.207-2.632.392-.968-.764-.417-2.369-.211-1.306 4.398-.676.052-.124-.216-1.512-.413-2.715-.458-3.303 1.288-.242 2.137-.372 2.055-.382 3.956-.702 1.643-.304 2.689-.465-.041-.309 1.664-.284-.958-5.378.427-.083-.124-.702-.499-3.199-.5-3.113-6.639 1.146-3.307.552-.422.036-.351-1.987-.036-.087-.628-3.68-.391-2.106-.66.108-3.858.702-.324-1.863-2.673.454-1.855.088-.01.547.196 2.085-.258.031-.144.377.057 1.079-.412.046-1.453-.031-.855-.712-2.189-1.992.515-.382 1.272-.584.644-1.357-.108-.273-.464-1.342 1.783-.656.381.681.504-.361.402-.242 1.365-.584-.18-2.384-1.88.356-.711-1.528-.561-1.047-.706-1.358-.299-.542-.139-.413-.628-.49-1.247-1.011-.561-.413 1.432-.785 1.123-.717 1.246-.491.366-.005.602.217.902.439 1.143.516.845.253 1.535.495 2.215.325 2.235.733 1.097.676 1.092.377 1.046-.031.804-.077.355-.062 1.602-.485-.314-.212-.145-1.853.155-.377-.902.31-.005-1.141-.386-.061-.355-.259-.088-.361.155-.371.432-.46.072-.309-.051-.553.149-.79.052.021.226-1.13-.072-.656-.195-.16-.402-.216-.356-.516-.412-.986-.463-.542.963-.279.232.382.098.34h.185l.489-.526 1.705-.557.134.94 1.309-.233.18.862.994-.17.175.892.654-.196.088.413.427.408.387.263-.181.279.325.237.247-.129 1.489 1.58 1.607-1.363 1.184-.872 1.365-.671 2.287-.774 2.313-.393 1.7.067 1.468.155 1.664.16 1.344-.33 1.107-.841.799-1.383.226-1.539.072-1.45.207-3.845 1.555-2.534.494-.594.923-1.063 1.122-2.157.521-3.314.86-2.307.747-2.405 2.086-2.24 2.014-1.533 1.514-1.171 2.91-2.235 2.22-3.98.15-3.978.607-1.203 2.339-1.59 2.539-1.739.963-.655 1.319-1.538 1.36-1.57.556-.66.428-1.14 1.2-2.736 2.4-5.414.902-3.071.407-1.368-.083-2.508.355-2.555.124-.784-.154-4.33-.026-.604.206-3.753.067-1.321 2.529-.062 1.931-.062 4.548-.124 1.597-.216 3.822-.548 5.069-.686.515 3.03.551 3.065.103-.03.824 4.154-.479.078.752 3.814.984-.176.85 4.485-.114.134.577 3.391.33 2.137.098.5-.026.197.556.36.18.011.098.176.237.087 1.685-2.147.376-.521 2.369-.387 1.04 1.275 2.653-.46-.18-1.378 1.694-.31-.458-2.853 6.531-1.074.953-.35h.86l.026.061-.026.17-.165.134-.077.274-.201.248-.015.232.124.15.257.015.17.108.031.166.026.32.16.185-.685.088-.49.124-.458.047-.819.144-.665.083.181 1.259.577 3.07.36-.082.603-.051.695-.165.912-.155.067.284.077.665.242 1.074.258-.041.345 2.064-.32.108-.463-.103-.124.103-.319.052-.227-.072-.149.124-1.793.304.32 2.292.386 3.143.474 3.195.221 1.729.814 5.64.242 1.668-6.587.315-3.323.144.459 2.803-3.477 2.498-1.556 1.135-2.76 3.505.788.614-1.242 1.641-.752.955-1.025 1.342-.324.397-.68.92-.417.623-.052-.03-1.55 2.038-.727.93-4.383 5.754-.958 1.27 1.267 8.464.165 1.063-1.355.212-1.164.16-1.653.263-2.849.408-.376.082-.288-1.956-1.483.232-4.816.723.185 1.569.036.408-.999.175.16.423.53 1.766-.015.376-.181.573.335 2.405.165 1.373.366 2.989.438 3.422.103.031.324 2.461.85.341.196.17.139 1.322-3.683.702-2.843.521-.021.026.242 1.636-.85.113.103.806-.757.103.196 1.362.118.981.258 1.817-.397.578 1.381.8.803-.103.248 1.77.015.268-1.494.171.335 2.451 3.472-.485 3.595-.48.427-.062 2.622 2.281.711 5.198.412 2.606.53 3.701-3.919.541-5.532.78-1.082.149-1.767.269-1.818.268.108 2.245.129 3.252"/><path id="Генічеський" fill="#C8C6C6" fill-rule="evenodd" d="m273.057 127.325 2.158-.346.644 4.051 4.028-.609 7.33-1.099.36 3.35-.834.113.438 3.608.262-.026 1.783-.258 2.75-.346.134 1.151.391-.062.541.3 3.235 1.656 1.999 1.017.051.005 2.782-.351.2 2.199 1.154 10.193.407.181-1.02-.093.459.459-.871.119.721 5.393.505 3.882 2.57-.341.006.046-.289.387-.664.981-.448.496-.474.578-.412.366-.789.645-1.241.805-1.447.728-.51.176-.696.17-.566.232-2.576.372-2.374.438-1.381.331-.932.273-.685.176-.154-.01-1.623.314-.417.207-.222.248-.484.423-.577.433-.515.346-1.226.914-.468.402-.943.733-.494.475-.222.341-.098.026-.185.283-.237.48-.165.439-.201.779-.134.749-.062 1.295-.273.759-.407.413-.221.057-.103.191.057.252.165.145-.134.129.288.557.314.16.119.372.103.103.216.449.433 1.652v.155l.149.655.165 1.213.082.831.083.645.026.496.051.227.088 1.016.18 1.105.031.49.124.888.417 3.778.201 1.419.216 1.296.51 2.642.69 2.859.484 1.621.315 1.161.2.547.186.707.458 1.358.278.862.17.454.423 1.264.433 1.151.046.202.283.691.407 1.136.51 1.259.582 1.548.16.357.829 2.172.144.253.247.671.129.222.258.635.252.511.392.944.401.899.243.588.386.877.582 1.254.293.661-.252.098-.051-.124-.33.155-.098-.181-.34.372-7.118-2.973-6.341-2.322.124-3.608.025-4.934-5.599-5.342-2.359-2.25-3.559-3.83-4.692-3.04-3.771.537-.649-.005-.386.47-.118.567-.124.062-4.353 6.256-3.167-2.813-2.581-1.76-2.926-6.441-5.408-5.605-7.556 2.214-6.536-1.611-2.529-4.304-4.744-2.224-1.772 1.078-1.489.145-1.839-.356-2.817-2.71-1.226-.836.211-7.38.021-.986-.093-2.122-.052-1.372-.113-2.88-.196-4.196.011-1.662.082-3.087.088-2.751.036-1.713-.577.036-.129-3.252-.108-2.245 1.818-.268 1.767-.268 1.082-.15 5.532-.779 3.919-.542-.53-3.701-.412-2.606-.711-5.198-2.622-2.281-.427.062-3.596.48-3.471.485-.335-2.451 1.494-.171-.016-.268-.247-1.77-.803.103-1.381-.8.397-.578-.258-1.817-.118-.981-.196-1.362.757-.103-.103-.805.85-.114-.242-1.636.02-.026 2.844-.521 3.683-.702-.14-1.322-.195-.17-.85-.34-.325-2.462-.103-.031-.438-3.422-.365-2.988-.165-1.373-.335-2.405.18-.573.016-.377-.531-1.765-.159-.423.999-.176-.036-.408-.186-1.569 4.816-.722 1.484-.232.288 1.956.376-.083 2.849-.408 1.653-.263 1.164-.16 1.355-.212-.165-1.063-1.267-8.464.958-1.27 4.383-5.754.726-.93 1.551-2.038.051.03.418-.624.68-.918.324-.398 1.025-1.342.752-.954 1.241-1.642-.788-.614 2.761-3.504 1.556-1.136 3.477-2.498-.459-2.802 3.322-.145 6.588-.315 2.797-.129.067.49-.062.135.51 3.896.752 5.626 2.117-.279.572 4.28 1.71-.259.34 2.565 1.488-.175.876-.269 1.638-.206.984-.14.402 2.906 4.398-.655-.206.036.902 6.369.556 3.778 4.322-.351.741 6.07.284.608-4.693.614-.288.073.741 5.13-1.499.046.047 2.88-1.257.036v.914l.036.268-6.469.898.216 1.595-3.044.392.618 4.542 4.1-.5.237 1.744 5.29-.723.881 6.947-3.683.898.865 4.769" clip-rule="evenodd"/><path stroke="#000" stroke-linecap="round" stroke-linejoin="round" stroke-width=".2" d="m273.057 127.325 2.158-.346.644 4.051 4.028-.609 7.33-1.099.36 3.35-.834.113.438 3.608.262-.026 1.783-.258 2.75-.346.134 1.151.391-.062.541.3 3.235 1.656 1.999 1.017.051.005 2.782-.351.2 2.199 1.154 10.193.407.181-1.02-.093.459.459-.871.119.721 5.393.505 3.882 2.57-.341.006.046-.289.387-.664.981-.448.496-.474.578-.412.366-.789.645-1.241.805-1.447.728-.51.176-.696.17-.566.232-2.576.372-2.374.438-1.381.331-.932.273-.685.176-.154-.01-1.623.314-.417.207-.222.248-.484.423-.577.433-.515.346-1.226.914-.468.402-.943.733-.494.475-.222.341-.098.026-.185.283-.237.48-.165.439-.201.779-.134.749-.062 1.295-.273.759-.407.413-.221.057-.103.191.057.252.165.145-.134.129.288.557.314.16.119.372.103.103.216.449.433 1.652v.155l.149.655.165 1.213.082.831.083.645.026.496.051.227.088 1.016.18 1.105.031.49.124.888.417 3.778.201 1.419.216 1.296.51 2.642.69 2.859.484 1.621.315 1.161.2.547.186.707.458 1.358.278.862.17.454.423 1.264.433 1.151.046.202.283.691.407 1.136.51 1.259.582 1.548.16.357.829 2.172.144.253.247.671.129.222.258.635.252.511.392.944.401.899.243.588.386.877.582 1.254.293.661-.252.098-.051-.124-.33.155-.098-.181-.34.372-7.118-2.973-6.341-2.322.124-3.608.025-4.934-5.599-5.342-2.359-2.25-3.559-3.83-4.692-3.04-3.771.537-.649-.005-.386.47-.118.567-.124.062-4.353 6.256-3.167-2.813-2.581-1.76-2.926-6.441-5.408-5.605-7.556 2.214-6.536-1.611-2.529-4.304-4.744-2.224-1.772 1.078-1.489.145-1.839-.356-2.817-2.71-1.226-.836.211-7.38.021-.986-.093-2.122-.052-1.372-.113-2.88-.196-4.196.011-1.662.082-3.087.088-2.751.036-1.713-.577.036-.129-3.252-.108-2.245 1.818-.268 1.767-.268 1.082-.15 5.532-.779 3.919-.542-.53-3.701-.412-2.606-.711-5.198-2.622-2.281-.427.062-3.596.48-3.471.485-.335-2.451 1.494-.171-.016-.268-.247-1.77-.803.103-1.381-.8.397-.578-.258-1.817-.118-.981-.196-1.362.757-.103-.103-.805.85-.114-.242-1.636.02-.026 2.844-.521 3.683-.702-.14-1.322-.195-.17-.85-.34-.325-2.462-.103-.031-.438-3.422-.365-2.988-.165-1.373-.335-2.405.18-.573.016-.377-.531-1.765-.159-.423.999-.176-.036-.408-.186-1.569 4.816-.722 1.484-.232.288 1.956.376-.083 2.849-.408 1.653-.263 1.164-.16 1.355-.212-.165-1.063-1.267-8.464.958-1.27 4.383-5.754.726-.93 1.551-2.038.051.03.418-.624.68-.918.324-.398 1.025-1.342.752-.954 1.241-1.642-.788-.614 2.761-3.504 1.556-1.136 3.477-2.498-.459-2.802 3.322-.145 6.588-.315 2.797-.129.067.49-.062.135.51 3.896.752 5.626 2.117-.279.572 4.28 1.71-.259.34 2.565 1.488-.175.876-.269 1.638-.206.984-.14.402 2.906 4.398-.655-.206.036.902 6.369.556 3.778 4.322-.351.741 6.07.284.608-4.693.614-.288.073.741 5.13-1.499.046.047 2.88-1.257.036v.914l.036.268-6.469.898.216 1.595-3.044.392.618 4.542 4.1-.5.237 1.744 5.29-.723.881 6.947-3.683.898.865 4.769"/><path id="Бериславський" fill="#C8C6C6" fill-rule="evenodd" d="m120.548 57.373.485-.16.247-.175.5-.583.334-.455.237-.108.443-.516.15-.238.226-.676-.036-.134.546-1.466.077-.314.052-.553.757-.14 1.36-.195.227.201.252.005.489-.098.289.165.154-.227-.252-.088.051-.449.119-.087.319.005.16.108.412.563.16.407-.155.383.015.196.17.273.191.165.371.103.242.217.237.088.541-.201.443-.021-.036-.243-.212-.278.016-.527.144-.237.216-.109.912-.206.124.015.211-.221.144-.052.35-.305.232-.325.206-.206.083-.233-.078-.283.139-.233-.123-.413.01-.376-.144-.238.103-.34-.047-.248.134-.176.17.073.294.289.242-.031-.036-.243-.263-.33.216-.114.33.263.222.093.273-.072.262-.258.222-.098.649-.015.175.082.433.604.211.351-.17.201.005.212.299.433.582.527.201.098.381-.057.159.201.346-.087.319.015.196-.3.324-.035.113-.186.294-.233-.051-.18-.603-.186-.082-.083-.51-.954-.098-.542-.026-.403.061-.32.459-.284.191.01.582.3.267.03.351-.123.113-.273.134-.135.391-.16.222.016.237-.088.149.14-.247.118-.134.237.144.124.263-.046.185-.294.201.077.345-.01.186-.387.134-.13.257.099.366-.114-1.777-1.641-.252-.206-2.009-1.843.324-.573-1.669-.65-.103-.485-1.153.217-.299-1.327-.114-.857.814-.01-.005-.66-.108-.424-.546-1.884 2.091-.614.052.052.412-.119.572.062-.067-.78-.248-.557-.097-.702-.17-.356-.052-.32-.86-5.244-1.283.233-1.885.356-3.23.578-.597.093-.407-2.25.119-.016-.593-3.262.654-.139.165-.083-.211-1.12-.113-.407-.067-.48.118.005 1.612-.3-.18-.836-.422-2.214 1.978-.95.041 2.824.005 1.414.041 3.762 1.231-.216 1.2-.196 2.195-.403 1.004-.155-.314-1.853-.212-1.316-.041-.144-.237-1.533-.365-2.1.365-.078-.092-.542.226-.036-.164-.888-.232-1.445-.201-1.14 2.045-.775-.5-3.582-2.586 1.311-1.334.687-.494-3.107.092-.774v-.33l.217-2.287 3.199.681 2.678.547.597.134.119.104.469-.047.391-.475.289-.155.231.062.294-.015.53.284.392.082.453.02.428-.107.458-.207.778-.248.113-.082.273-.439.268.067.294.63.005.599-.088.438-.355.847-.268.397-.433.361-.401.227-.083.207.258.289.067.676-.052.15-.525.552.026.196.164.134.649.18.361-.102.268.232.53-.155.129.031.356-.124.345-.268.638-.33.371-.522.464-.35.231-.099.371-.268.217-.062.304.031.345.119.35.268.103.96-.088.883-.113.382-.597.562-.047.305.057.268.17.103.046.176.417.552.474.382.201.237.335.207.412-.005.52.144.119.454.232.444.082.439-.067.284-.103.103-.484.253.613.428.968-.48.587-.206 1.345-.702-.809-1.063-.767-.991-.495-1.61 1.504-.29 2.622-.526 1.128-.196.489-.114 2.751-.542.705-.113 1.741-.34 2.751-.496-.093-.444-.417-2.317-.531-2.68 3.843-.66 3.93-.712 1.257-.243.294 1.508.386-.062.34 1.883 1.107-.19.314 1.708-.087.124-1.612.3.298 1.671-.247.429-.113-.067-.464.68-.031.166-.18.356.675 3.695-.01.078 1.411-.243-.088-.764 1.659-.284 1.076-.206.067.614.397 2.018.17 1.09 1.89-.326 1.906-.31.237-.015 3.626-.614.603-.077 2.39-.383 4.275-.675 1.818-.259.541-.093 1.257-.175 1.009-.124.557-.093 1.452-.19 1.453-.233.87-.196.376-.15.423-.082.376.062.149.263.093.66.427 1.043.072.34.227 3.262.083 1.456.195.268h.325l.494-.077.469-.036.525-.078.314-.015.593.17.525-.14.969-.01-.067 1.322-.206 3.752.026.604.154 4.33-.124.785-.355 2.555.082 2.508-.406 1.367-.902 3.072-2.4 5.413-1.2 2.736-.428 1.14-.556.661-1.36 1.57-1.319 1.537-.963.656-2.539 1.739-2.339 1.59-.607 1.202-.15 3.98-2.22 3.978-2.91 2.235-1.514 1.172-2.014 1.533-2.086 2.24-.747 2.405-.86 2.307-.521 3.313-1.123 2.158-.922 1.063-.494.594-1.556 2.534-.206 3.845-.072 1.45-.226 1.538-.799 1.383-1.107.842-1.345.33-1.663-.16-1.468-.155-1.7-.067-2.313.392-2.287.774-1.365.671-1.184.873-1.607 1.362-1.489-1.58-.247.13-.325-.238.181-.278-.387-.264-.427-.407-.088-.413-.654.196-.175-.893-.994.17-.18-.862-1.309.233-.134-.94-1.705.558-.489.526h-.185l-.098-.34-.232-.382-.963.278.463.542.412.986.356.516.402.217.195.16.072.655-.226 1.13-.052-.02-.149.79.051.552-.072.31-.432.459-.155.371.088.362.355.258.386.062.006 1.14.901-.309-.155.376.145 1.853.314.212-1.602.485-.355.062-.804.077-1.046.032-1.092-.377-1.097-.676-2.235-.733-2.215-.325-1.535-.496-.845-.253-1.143-.516-.902-.439-.602-.216-.366.005-1.247.49-1.122.717-1.432.785-2.777 1.77-.623.496-1.087.727-.092-.572-.51-2.627-.526-2.989-.216-1.29-.685-3.866-3.127.578-.216-1.176-.484-2.395 1.257-.233.304-.072 1.674-.294-.16-.841-.407-2.498-.242-1.296 2.689-.5.463-.062.407.17 1.185-.237.196-.021-.253-1.198-.721-3.576.263-.036-.217-.878-.134-.697.083-.144-.654-.402-.041.046-.783-.48-.618-.403-.346-.294-.118-.015.819-1.3 2.179-3.5.829-1.347.386.248 1.432-2.596.351.237.922-1.677 1.349-2.472.757-1.379 1.458-2.704.829-1.476-2.776-1.523-1.54-.862-.577 1.043-1.386 2.55.356.211 1.416.774-1.55 2.844-.969 1.806-1.802-.965-.799 1.415-.839 1.563-.469.81-1.813-1.14-2.627-1.626-3.199-1.987-.458-.263-.345-.237-.381-.083-.021-.217-.556-.201-.479-.748-.067-.28.087-.474.16-.361.201-.32-.041-.212-.237-.371-.68-.511-.495-.202.237-.34.691-.356.175-.248.159-.532.546-.542.109-.227.067-.33-.062-.439-.109.01-.066-.304.113-.444.247-.248" clip-rule="evenodd"/><path stroke="#000" stroke-linecap="round" stroke-linejoin="round" stroke-width=".2" d="m120.548 57.373.485-.16.247-.175.5-.583.334-.455.237-.108.443-.516.15-.238.226-.676-.036-.134.546-1.466.077-.314.052-.553.757-.14 1.36-.195.227.201.252.005.489-.098.289.165.154-.227-.252-.088.051-.449.119-.087.319.005.16.108.412.563.16.407-.155.383.015.196.17.273.191.165.371.103.242.217.237.088.541-.201.443-.021-.036-.243-.212-.278.016-.527.144-.237.216-.109.912-.206.124.015.211-.221.144-.052.35-.305.232-.325.206-.206.083-.233-.078-.283.139-.233-.123-.413.01-.376-.144-.238.103-.34-.047-.248.134-.176.17.073.294.289.242-.031-.036-.243-.263-.33.216-.114.33.263.222.093.273-.072.262-.258.222-.098.649-.015.175.082.433.604.211.351-.17.201.005.212.299.433.582.527.201.098.381-.057.159.201.346-.087.319.015.196-.3.324-.035.113-.186.294-.233-.051-.18-.603-.186-.082-.083-.51-.954-.098-.542-.026-.403.061-.32.459-.284.191.01.582.3.267.03.351-.123.113-.273.134-.135.391-.16.222.016.237-.088.149.14-.247.118-.134.237.144.124.263-.046.185-.294.201.077.345-.01.186-.387.134-.13.257.099.366-.114-1.777-1.641-.252-.206-2.009-1.843.324-.573-1.669-.65-.103-.485-1.153.217-.299-1.327-.114-.857.814-.01-.005-.66-.108-.424-.546-1.884 2.091-.614.052.052.412-.119.572.062-.067-.78-.248-.557-.097-.702-.17-.356-.052-.32-.86-5.244-1.283.233-1.885.356-3.23.578-.597.093-.407-2.25.119-.016-.593-3.262.654-.139.165-.083-.211-1.12-.113-.407-.067-.48.118.005 1.612-.3-.18-.836-.422-2.214 1.978-.95.041 2.824.005 1.414.041 3.762 1.231-.216 1.2-.196 2.195-.403 1.004-.155-.314-1.853-.212-1.316-.041-.144-.237-1.533-.365-2.1.365-.078-.092-.542.226-.036-.164-.888-.232-1.445-.201-1.14 2.045-.775-.5-3.582-2.586 1.311-1.334.687-.494-3.107.092-.774v-.33l.217-2.287 3.199.681 2.678.547.597.134.119.104.469-.047.391-.475.289-.155.231.062.294-.015.53.284.392.082.453.02.428-.107.458-.207.778-.248.113-.082.273-.439.268.067.294.63.005.599-.088.438-.355.847-.268.397-.433.361-.401.227-.083.207.258.289.067.676-.052.15-.525.552.026.196.164.134.649.18.361-.102.268.232.53-.155.129.031.356-.124.345-.268.638-.33.371-.522.464-.35.231-.099.371-.268.217-.062.304.031.345.119.35.268.103.96-.088.883-.113.382-.597.562-.047.305.057.268.17.103.046.176.417.552.474.382.201.237.335.207.412-.005.52.144.119.454.232.444.082.439-.067.284-.103.103-.484.253.613.428.968-.48.587-.206 1.345-.702-.809-1.063-.767-.991-.495-1.61 1.504-.29 2.622-.526 1.128-.196.489-.114 2.751-.542.705-.113 1.741-.34 2.751-.496-.093-.444-.417-2.317-.531-2.68 3.843-.66 3.93-.712 1.257-.243.294 1.508.386-.062.34 1.883 1.107-.19.314 1.708-.087.124-1.612.3.298 1.671-.247.429-.113-.067-.464.68-.031.166-.18.356.675 3.695-.01.078 1.411-.243-.088-.764 1.659-.284 1.076-.206.067.614.397 2.018.17 1.09 1.89-.326 1.906-.31.237-.015 3.626-.614.603-.077 2.39-.383 4.275-.675 1.818-.259.541-.093 1.257-.175 1.009-.124.557-.093 1.452-.19 1.453-.233.87-.196.376-.15.423-.082.376.062.149.263.093.66.427 1.043.072.34.227 3.262.083 1.456.195.268h.325l.494-.077.469-.036.525-.078.314-.015.593.17.525-.14.969-.01-.067 1.322-.206 3.752.026.604.154 4.33-.124.785-.355 2.555.082 2.508-.406 1.367-.902 3.072-2.4 5.413-1.2 2.736-.428 1.14-.556.661-1.36 1.57-1.319 1.537-.963.656-2.539 1.739-2.339 1.59-.607 1.202-.15 3.98-2.22 3.978-2.91 2.235-1.514 1.172-2.014 1.533-2.086 2.24-.747 2.405-.86 2.307-.521 3.313-1.123 2.158-.922 1.063-.494.594-1.556 2.534-.206 3.845-.072 1.45-.226 1.538-.799 1.383-1.107.842-1.345.33-1.663-.16-1.468-.155-1.7-.067-2.313.392-2.287.774-1.365.671-1.184.873-1.607 1.362-1.489-1.58-.247.13-.325-.238.181-.278-.387-.264-.427-.407-.088-.413-.654.196-.175-.893-.994.17-.18-.862-1.309.233-.134-.94-1.705.558-.489.526h-.185l-.098-.34-.232-.382-.963.278.463.542.412.986.356.516.402.217.195.16.072.655-.226 1.13-.052-.02-.149.79.051.552-.072.31-.432.459-.155.371.088.362.355.258.386.062.006 1.14.901-.309-.155.376.145 1.853.314.212-1.602.485-.355.062-.804.077-1.046.032-1.092-.377-1.097-.676-2.235-.733-2.215-.325-1.535-.496-.845-.253-1.143-.516-.902-.439-.602-.216-.366.005-1.247.49-1.122.717-1.432.785-2.777 1.77-.623.496-1.087.727-.092-.572-.51-2.627-.526-2.989-.216-1.29-.685-3.866-3.127.578-.216-1.176-.484-2.395 1.257-.233.304-.072 1.674-.294-.16-.841-.407-2.498-.242-1.296 2.689-.5.463-.062.407.17 1.185-.237.196-.021-.253-1.198-.721-3.576.263-.036-.217-.878-.134-.697.083-.144-.654-.402-.041.046-.783-.48-.618-.403-.346-.294-.118-.015.819-1.3 2.179-3.5.829-1.347.386.248 1.432-2.596.351.237.922-1.677 1.349-2.472.757-1.379 1.458-2.704.829-1.476-2.776-1.523-1.54-.862-.577 1.043-1.386 2.55.356.211 1.416.774-1.55 2.844-.969 1.806-1.802-.965-.799 1.415-.839 1.563-.469.81-1.813-1.14-2.627-1.626-3.199-1.987-.458-.263-.345-.237-.381-.083-.021-.217-.556-.201-.479-.748-.067-.28.087-.474.16-.361.201-.32-.041-.212-.237-.371-.68-.511-.495-.202.237-.34.691-.356.175-.248.159-.532.546-.542.109-.227.067-.33-.062-.439-.109.01-.066-.304.113-.444.247-.248"/><path id="Скадовський" fill="#C8C6C6" fill-rule="evenodd" d="m96.261 191.42.562.315.33.108.236-.134.948.31.546.263.31.108.303.171.526.186.458-.078.366.098.53.222.175.17.294.088.572.067.371.155.242.176.783.201.345.041.309-.051.247.108 1.133.165.613.32.804.176 1.014.01.248-.047.288-.211.453.093.129.093h.443l.252-.217.479.077.067-.232.449-.263.195-.01.181-.336.211-.191.17.062.072-.387.237.083.108-.145.309.083.155-.047.211-.222.18-.072.525-.434.588-.222.494-.237.036-.232.211-.062.175.144.253-.34.015-.331.289.026.391.233.515.567.093.238.149.165.253.139.201.222.283.165.077.336.113.067.176-.16.149.263.402.114.582.361.783.273.437.083.176-.057.494-.046.309-.078.386-.258-.02-.16.34-.443.139-.295.139.021.397.439.556.325.17.181.407.247.201.202.638.407.722.233h.618l.391-.191.433.087.154-.031.824.295.876.35.412-.005.165.119.551-.005.314-.217-.072-.144-.324-.042-.309.171-.371-.057.494-.207.464.016.479.32.293.139.454.31.283.072.891.346.33.423.324.16.299-.021.294-.113.103-.232.376-.031.046.19-.196.222-.407.119-.736-.093-.448.031-.345.078-.608.309-.66.207-.922.098-1.009-.021-1.149-.093-.973-.113-.479-.124-2.225-.31-.629-.026-.386.104-.809.005-1.37.072-.814-.041-1.566-.289-.164.005-.603-.119-.355-.005-.871-.098-.876-.186-1.385-.366-.232.01-.737-.088-.607-.113-.644-.083-2.287-.459-1.102-.171-.886-.206-.613-.119-.634-.18-.257-.036-1.973-.439-.237-.01-.675-.155-.278-.093-1.37-.336-1.607-.583-.392-.067-.144-.098-.87-.284-.536-.144-1.73-.387-.717-.207-1.499-.392-1.195-.263-.432-.062-.613-.15-1.777-.341-.886-.113-.299.041-.227-.046-.355.046-1.715-.413-1.113-.299-.474-.093-.824-.253-1.746-.506-2.364-.629-.876-.258-1.241-.326-2.117-.64-.484-.154-.68-.171-1.741-.578-.608-.227-3.1-1.063-.217-.005-1.55-.511-.47-.078-.653-.247-.531-.165-.268-.042-.433-.144-1.833-.718-1.736-.516-.18-.088-1.288-.392-1.226-.407-1.602-.589-1.102-.32-2.462-.779-.881-.269-1.056-.294-1.51-.475-.494-.206-.139-.243-.654-.015-1.277-.299-1.072-.269-.752-.144-.999-.248-2.637-.464-2.004-.31-2.436-.413-.345-.093-1.952-.366-.747-.207-.273-.01-2.086-.459-1.515-.326-.963-.221-1.118-.212-3.07-.707-.56-.155-4.029-.97-1.39-.346-2.622-.686-.52-.099-1.232-.32-1.442-.438-.72-.191-1.32-.454-1.024-.382-.582-.274-.274-.165-.906-.454-.768-.444-.834-.557-1.308-.955-.165-.191-.809-.697-.35-.33-.943-.991-.231-.279-.397-.563-.422-.655-.31-.583-.18-.243-.365-.635-.3-.815-.432-1.497-.144-.955-.072-1.362.02-.878.15-.929.216-.722.19-.408.315-.397.36-.196.382-.088.309.16.015 1.078.124.548.056.825-.015.924.015.475-.098.155-.04.562-.099.542-.046.893-.046.382.103.821.175.975.185.604.428.996.803 1.414.793.996.412.45.35.294 1.067.764.803.516.18.155.423.216.639.253.535.16.902.15.948.036.525-.031.716-.129 1.149-.32.659-.325.206-.331.278-.015.314-.165.222-.227.309-.145.211-.284.577-.48.469-.572.412-.372.288-.186.587-.712.438-.49.134-.083.742-.888.37-.299.068-.181.236-.247.15-.305.247-.206.278-.491-.005-.175.196-.062.34-.428.005-.197.314-.206.376-.614.366-.248.417-.372.593-.335.788-.253.67-.083.56-.232.29-8.696-.166-3.428.31-1.579-.418-4.155.041-.216.747-1.549.51-.475.99-.459.998.32.423-.423.453-.991.453-.934.278-.914 3.323-3.339 1.565-2.317 1.026-1.487 1.627.594 2.024.733 3.966 1.445 3.6 1.311 1.613.619 2.189.826 1.2.464 3.796.491 1.113.149 1.267.387 1.097.382 1.226.527 1.066.531 1.03.64 1.808.769.412.238.505.217.783.139.644.026.891-.057.48-.16.957-.63.165-.056.942-.692.629-.299 1.17-.774.674-.486.551-.32.618-.454.227-.124.716-.722.32-.233 1.514-.686.334-.186 1.03-.991.69-.531.943-.48 1.84-1.172.427-.144.577-.062.67.16.483.356.268.542.654.856.433.284.654.114.263.082.396-.005.377-.067 1.236-.418.716-.392.417.005.185.119.165.402.155.114.252-.041.118-.124.315-1.084v-.516l.453-.496.973-.531.685-.062.887-.599.633-.676.428.521.752 1.249.123.14 1.154 1.651.288.738.418 1.151 1.669.439.355-.109 1.025.424.623.237.196 1.548.979.615 1.648-.264.978-.087 1.139-.135 1.112-.185 1.01.526.088.857.036.759.02 1.078.144 1.172.479 3.7.479.222.392.098 1.076.341.624.857 1.189 1.569.124.191-.7.149.133.981.397 2.72.567 3.752.139.976.252 2.694.072.407.299 2.163.227 1.476.175 1.342.237 1.476 3.466-.444.098.718.149 1.285.083.583 3.93-.661 2.539-.418 3.364-.536.773-.114.02-.067-.598-4.47-.35-2.653-.293-2.394 3.173-.486 3.553-.567 3.951-.728 2.905-.48 5.027-.815 2.632-.393 1.288-.206 2.22-.325 1.02-.124 3.188-.511.32 2.023.036.026.159 1.161.387 2.529 1.663-.289 5.398-.882 1.283 7.168.175 1.043.742-.119.577-.118 1.282-.233 2.143-.356 1.473-.273-.412-2.307 3.441-.589 1.88-.309.592 2.296.335 1.332 1.437 5.574.16.227.417 2.55-1.468.268.912 5.234.917 5.233-1.87.687-.196-.666-.211-.403-.283-.361-.052-.134-.468-.661-.479-.49-.438-.232-.304-.037-.371.099-.458.221-.366.444-.474.893-.134.454-.015.382.293-.144.036-.232.485-.202-.382.367.011.124-.598.299-.448.02-.695-.067-.253.057-.144.336-.17.154-.124.48.026.434.258.067.185-.201.211-.372.047.294-.191.104-.201.221-.273.522-.448.325-.901.082-.273.093-.139-.031-.062-.278-.283-.305-.263-.201-.227.098-.118.33.093 1.363.309.893.242.33.448.274.098.128.484.336.335.279.69.351.5.005.133.294.443.408.402.469.453.274-.185.072-.706.103-.252-.046-.737-.269-.396-.191-.685-.263-.783-.253-.495.016-.51.088-.401.154-.794.826-.278.764-.103.501.057.593.17.594.093.149.453.418.149.217.186.475.432.924.232.217-.067.123.155.166.314-.191.247.191-.366.222-.885.108-.505-.036-.52-.258-.577-.356-.253-.243-.329-.397-.109-.047-.813-1.207-.413-.202.042.315-.454-.026-.314.217-.34.423-.036.15-.365.118-.711.021-1.051.124-.124.119-.077.309.093.31.402.129.149-.144.273.351.294.216-.237.109-.083-.145-.293-.129-.366.072-.15-.031-.463-.366-.695-.877-.783-1.146-.072-.016-.201-.34-.273-.351-.479-.485-.912-1.002-.562-.547-.35-.433-.067-.201.093-.408.34-.346.093-.155v-.609l-.521-.196-.314.196-.17.01-.201-.113-.17-.238-.345-.144-.582-.372-.381-.413-.232-.588-.046-.377-.206-.521-.299-.361-.386.304-.237.31-.716.475-.144.216-.175 1.048-.15.31-.118.402-.011.532.067.831.165.196.304-.005.577.155-.072.144-.505-.087-.386-.016-.34.103-.536.047-.288-.036-.335.051-.489-.232-.263-.248-.155-.278.078-.196-.031-.589-.124-.521-.046-.439.092-.258.119.036.304.372.34.227.273.083.504-.037.412-.17.258-.201.211-.279.083-.227.082-.532.036-1.192-.17-.614-.118-.294-.402-.475-.314-.274-.979-.572-.36-.238-.176-.046-.314.046-.123-.057-.711-.118-.299-.109-.618-.433-.629.02-.252.129-.304.274-.402.118-.695.062-.603.083-.803.382-.289.186-.149.196-.103.294-.041.367.026.51.365 1.28-.072.155-.448-.077-.293-.207-.16-.191-.134-.309-.015-.465.077-.217.257-.18.258-.299.062-.465-.077-.908.118-.625.258-.547.072-.284.195.078.191-.295.18-.18.423-.289.056-.145.196-.093.221-.247-.092-.279-.165-.201-.324-.599-.51-.47-.351-.248-.113-.216-.283-.212-.109-.155-.164-.005-.356-.052-.231.032-.062.185-.366.341-.139.485-.278.315-.124.692.113.17-.067.175-.427-.01-.283.418-.134-.026-.273.171-.51.428-.036.139.118.171-.16.139-.442.191-.212.222-.267.026-.655.351-.185.573-.015.144-.165.191-.392.238-.01.19-.139.109-.412-.01-.222.129-1.179-.682-.232-.16-.592-.278-.706.056-1.035-.294-.407-.366-.196-.263-.144-.346-.175-.191-.088-.516-.242-.573-.314-.083-.201.021-.608-.088-.968-.201-.453.041-.768.01-.788.485.175.8.454.326.118.258-.015.222-.186.583-.278.542.005.263-.422.108-.139.222-.211.134-.037.253.124.609.227.238.273-.098.092-.279.273.093.021.423.227-.041.628.036.525-.041-.01.149-.252.057-.459-.067-.525.165-.608.047-.566.129-.933-.016-.396.036-1.231-.005-.428-.108-.551-.083-.551-.02-.371.036-.628.243-.686.221-.88.171-.474-.021-.896-.16-.222.036-.098.171-.396.026-.145-.171-.257-.154-1.561-.31-1.159-.423-.103-.15-.299-.005-.304-.072-.37.268-.711-.155-.453.062-.881.207-.562.288-.479-.041-.18-.062-.474-.34-.247-.222-.392.036-.319-.031-.211-.088-.428.005-.257.119-.108.258-.49-.212-.705-.495-.624-.258-.319-.083-.33.155-.571.072-.057.057-.623.263-.356.062-.36.196-.113.387-.222.393-.417.155-.706-.073-1.452.114-.608.144-.484.222-.098.16-.35-.01-.84.377-.32.108-.499-.149-.505-.274-.237-.206-.561-.207-.613-.031-1.056.222-.901.212-.17.087-.315.403-.165.041h-1.025l-.618.238-.309.175-.767.227-.752.392-.52.424-.459.16-.772.33-.603.077-.247.439-.155.052-.237.423-.087.578.092.145.31.18.17-.124.102.171.562-.042 1.112.176.191-.047.237.129.355.016.397.118.654.047.17-.057.314.139 1.087.238.366-.01.71.206.268.026.454.181.324-.067.345.103" clip-rule="evenodd"/><path stroke="#000" stroke-linecap="round" stroke-linejoin="round" stroke-width=".2" d="m96.261 191.42.562.315.33.108.236-.134.948.31.546.263.31.108.303.171.526.186.458-.078.366.098.53.222.175.17.294.088.572.067.371.155.242.176.783.201.345.041.309-.051.247.108 1.133.165.613.32.804.176 1.014.01.248-.047.288-.211.453.093.129.093h.443l.252-.217.479.077.067-.232.449-.263.195-.01.181-.336.211-.191.17.062.072-.387.237.083.108-.145.309.083.155-.047.211-.222.18-.072.525-.434.588-.222.494-.237.036-.232.211-.062.175.144.253-.34.015-.331.289.026.391.233.515.567.093.238.149.165.253.139.201.222.283.165.077.336.113.067.176-.16.149.263.402.114.582.361.783.273.437.083.176-.057.494-.046.309-.078.386-.258-.02-.16.34-.443.139-.295.139.021.397.439.556.325.17.181.407.247.201.202.638.407.722.233h.618l.391-.191.433.087.154-.031.824.295.876.35.412-.005.165.119.551-.005.314-.217-.072-.144-.324-.042-.309.171-.371-.057.494-.207.464.016.479.32.293.139.454.31.283.072.891.346.33.423.324.16.299-.021.294-.113.103-.232.376-.031.046.19-.196.222-.407.119-.736-.093-.448.031-.345.078-.608.309-.66.207-.922.098-1.009-.021-1.149-.093-.973-.113-.479-.124-2.225-.31-.629-.026-.386.104-.809.005-1.37.072-.814-.041-1.566-.289-.164.005-.603-.119-.355-.005-.871-.098-.876-.186-1.385-.366-.232.01-.737-.088-.607-.113-.644-.083-2.287-.459-1.102-.171-.886-.206-.613-.119-.634-.18-.257-.036-1.973-.439-.237-.01-.675-.155-.278-.093-1.37-.336-1.607-.583-.392-.067-.144-.098-.87-.284-.536-.144-1.73-.387-.717-.207-1.499-.392-1.195-.263-.432-.062-.613-.15-1.777-.341-.886-.113-.299.041-.227-.046-.355.046-1.715-.413-1.113-.299-.474-.093-.824-.253-1.746-.506-2.364-.629-.876-.258-1.241-.326-2.117-.64-.484-.154-.68-.171-1.741-.578-.608-.227-3.1-1.063-.217-.005-1.55-.511-.47-.078-.653-.247-.531-.165-.268-.042-.433-.144-1.833-.718-1.736-.516-.18-.088-1.288-.392-1.226-.407-1.602-.589-1.102-.32-2.462-.779-.881-.269-1.056-.294-1.51-.475-.494-.206-.139-.243-.654-.015-1.277-.299-1.072-.269-.752-.144-.999-.248-2.637-.464-2.004-.31-2.436-.413-.345-.093-1.952-.366-.747-.207-.273-.01-2.086-.459-1.515-.326-.963-.221-1.118-.212-3.07-.707-.56-.155-4.029-.97-1.39-.346-2.622-.686-.52-.099-1.232-.32-1.442-.438-.72-.191-1.32-.454-1.024-.382-.582-.274-.274-.165-.906-.454-.768-.444-.834-.557-1.308-.955-.165-.191-.809-.697-.35-.33-.943-.991-.231-.279-.397-.563-.422-.655-.31-.583-.18-.243-.365-.635-.3-.815-.432-1.497-.144-.955-.072-1.362.02-.878.15-.929.216-.722.19-.408.315-.397.36-.196.382-.088.309.16.015 1.078.124.548.056.825-.015.924.015.475-.098.155-.04.562-.099.542-.046.893-.046.382.103.821.175.975.185.604.428.996.803 1.414.793.996.412.45.35.294 1.067.764.803.516.18.155.423.216.639.253.535.16.902.15.948.036.525-.031.716-.129 1.149-.32.659-.325.206-.331.278-.015.314-.165.222-.227.309-.145.211-.284.577-.48.469-.572.412-.372.288-.186.587-.712.438-.49.134-.083.742-.888.37-.299.068-.181.236-.247.15-.305.247-.206.278-.491-.005-.175.196-.062.34-.428.005-.197.314-.206.376-.614.366-.248.417-.372.593-.335.788-.253.67-.083.56-.232.29-8.696-.166-3.428.31-1.579-.418-4.155.041-.216.747-1.549.51-.475.99-.459.998.32.423-.423.453-.991.453-.934.278-.914 3.323-3.339 1.565-2.317 1.026-1.487 1.627.594 2.024.733 3.966 1.445 3.6 1.311 1.613.619 2.189.826 1.2.464 3.796.491 1.113.149 1.267.387 1.097.382 1.226.527 1.066.531 1.03.64 1.808.769.412.238.505.217.783.139.644.026.891-.057.48-.16.957-.63.165-.056.942-.692.629-.299 1.17-.774.674-.486.551-.32.618-.454.227-.124.716-.722.32-.233 1.514-.686.334-.186 1.03-.991.69-.531.943-.48 1.84-1.172.427-.144.577-.062.67.16.483.356.268.542.654.856.433.284.654.114.263.082.396-.005.377-.067 1.236-.418.716-.392.417.005.185.119.165.402.155.114.252-.041.118-.124.315-1.084v-.516l.453-.496.973-.531.685-.062.887-.599.633-.676.428.521.752 1.249.123.14 1.154 1.651.288.738.418 1.151 1.669.439.355-.109 1.025.424.623.237.196 1.548.979.615 1.648-.264.978-.087 1.139-.135 1.112-.185 1.01.526.088.857.036.759.02 1.078.144 1.172.479 3.7.479.222.392.098 1.076.341.624.857 1.189 1.569.124.191-.7.149.133.981.397 2.72.567 3.752.139.976.252 2.694.072.407.299 2.163.227 1.476.175 1.342.237 1.476 3.466-.444.098.718.149 1.285.083.583 3.93-.661 2.539-.418 3.364-.536.773-.114.02-.067-.598-4.47-.35-2.653-.293-2.394 3.173-.486 3.553-.567 3.951-.728 2.905-.48 5.027-.815 2.632-.393 1.288-.206 2.22-.325 1.02-.124 3.188-.511.32 2.023.036.026.159 1.161.387 2.529 1.663-.289 5.398-.882 1.283 7.168.175 1.043.742-.119.577-.118 1.282-.233 2.143-.356 1.473-.273-.412-2.307 3.441-.589 1.88-.309.592 2.296.335 1.332 1.437 5.574.16.227.417 2.55-1.468.268.912 5.234.917 5.233-1.87.687-.196-.666-.211-.403-.283-.361-.052-.134-.468-.661-.479-.49-.438-.232-.304-.037-.371.099-.458.221-.366.444-.474.893-.134.454-.015.382.293-.144.036-.232.485-.202-.382.367.011.124-.598.299-.448.02-.695-.067-.253.057-.144.336-.17.154-.124.48.026.434.258.067.185-.201.211-.372.047.294-.191.104-.201.221-.273.522-.448.325-.901.082-.273.093-.139-.031-.062-.278-.283-.305-.263-.201-.227.098-.118.33.093 1.363.309.893.242.33.448.274.098.128.484.336.335.279.69.351.5.005.133.294.443.408.402.469.453.274-.185.072-.706.103-.252-.046-.737-.269-.396-.191-.685-.263-.783-.253-.495.016-.51.088-.401.154-.794.826-.278.764-.103.501.057.593.17.594.093.149.453.418.149.217.186.475.432.924.232.217-.067.123.155.166.314-.191.247.191-.366.222-.885.108-.505-.036-.52-.258-.577-.356-.253-.243-.329-.397-.109-.047-.813-1.207-.413-.202.042.315-.454-.026-.314.217-.34.423-.036.15-.365.118-.711.021-1.051.124-.124.119-.077.309.093.31.402.129.149-.144.273.351.294.216-.237.109-.083-.145-.293-.129-.366.072-.15-.031-.463-.366-.695-.877-.783-1.146-.072-.016-.201-.34-.273-.351-.479-.485-.912-1.002-.562-.547-.35-.433-.067-.201.093-.408.34-.346.093-.155v-.609l-.521-.196-.314.196-.17.01-.201-.113-.17-.238-.345-.144-.582-.372-.381-.413-.232-.588-.046-.377-.206-.521-.299-.361-.386.304-.237.31-.716.475-.144.216-.175 1.048-.15.31-.118.402-.011.532.067.831.165.196.304-.005.577.155-.072.144-.505-.087-.386-.016-.34.103-.536.047-.288-.036-.335.051-.489-.232-.263-.248-.155-.278.078-.196-.031-.589-.124-.521-.046-.439.092-.258.119.036.304.372.34.227.273.083.504-.037.412-.17.258-.201.211-.279.083-.227.082-.532.036-1.192-.17-.614-.118-.294-.402-.475-.314-.274-.979-.572-.36-.238-.176-.046-.314.046-.123-.057-.711-.118-.299-.109-.618-.433-.629.02-.252.129-.304.274-.402.118-.695.062-.603.083-.803.382-.289.186-.149.196-.103.294-.041.367.026.51.365 1.28-.072.155-.448-.077-.293-.207-.16-.191-.134-.309-.015-.465.077-.217.257-.18.258-.299.062-.465-.077-.908.118-.625.258-.547.072-.284.195.078.191-.295.18-.18.423-.289.056-.145.196-.093.221-.247-.092-.279-.165-.201-.324-.599-.51-.47-.351-.248-.113-.216-.283-.212-.109-.155-.164-.005-.356-.052-.231.032-.062.185-.366.341-.139.485-.278.315-.124.692.113.17-.067.175-.427-.01-.283.418-.134-.026-.273.171-.51.428-.036.139.118.171-.16.139-.442.191-.212.222-.267.026-.655.351-.185.573-.015.144-.165.191-.392.238-.01.19-.139.109-.412-.01-.222.129-1.179-.682-.232-.16-.592-.278-.706.056-1.035-.294-.407-.366-.196-.263-.144-.346-.175-.191-.088-.516-.242-.573-.314-.083-.201.021-.608-.088-.968-.201-.453.041-.768.01-.788.485.175.8.454.326.118.258-.015.222-.186.583-.278.542.005.263-.422.108-.139.222-.211.134-.037.253.124.609.227.238.273-.098.092-.279.273.093.021.423.227-.041.628.036.525-.041-.01.149-.252.057-.459-.067-.525.165-.608.047-.566.129-.933-.016-.396.036-1.231-.005-.428-.108-.551-.083-.551-.02-.371.036-.628.243-.686.221-.88.171-.474-.021-.896-.16-.222.036-.098.171-.396.026-.145-.171-.257-.154-1.561-.31-1.159-.423-.103-.15-.299-.005-.304-.072-.37.268-.711-.155-.453.062-.881.207-.562.288-.479-.041-.18-.062-.474-.34-.247-.222-.392.036-.319-.031-.211-.088-.428.005-.257.119-.108.258-.49-.212-.705-.495-.624-.258-.319-.083-.33.155-.571.072-.057.057-.623.263-.356.062-.36.196-.113.387-.222.393-.417.155-.706-.073-1.452.114-.608.144-.484.222-.098.16-.35-.01-.84.377-.32.108-.499-.149-.505-.274-.237-.206-.561-.207-.613-.031-1.056.222-.901.212-.17.087-.315.403-.165.041h-1.025l-.618.238-.309.175-.767.227-.752.392-.52.424-.459.16-.772.33-.603.077-.247.439-.155.052-.237.423-.087.578.092.145.31.18.17-.124.102.171.562-.042 1.112.176.191-.047.237.129.355.016.397.118.654.047.17-.057.314.139 1.087.238.366-.01.71.206.268.026.454.181.324-.067.345.103"/><path id="Херсонський" fill="#C8C6C6" fill-rule="evenodd" d="m115.075 163.9-.237-1.476-.175-1.342-.227-1.476-.299-2.162-.072-.408-.252-2.694-.139-.976-.567-3.752-.396-2.72-.134-.981.7-.149-.123-.191-1.19-1.569-.623-.857-1.077-.341-.391-.098-.479-.222-.48-3.7-.144-1.172-.02-1.078-.036-.759-.088-.857-1.009-.526-1.113.186-1.138.134-.979.087-1.648.264-.979-.615-.196-1.548-.623-.237-1.025-.424-.355.109-1.67-.439-.416-1.151-.289-.738-1.154-1.651-.123-.14-.752-1.249-.428-.521-.633.676-.886.599-.685.062-.974.531-.453.496v.516l-.314 1.084-.119.124-.252.041-.155-.114-.164-.402-.186-.119-.417-.005-.716.392-1.236.418-.376.067-.397.006-.263-.083-.654-.114-.432-.284-.655-.856-.267-.542-.485-.356-.67-.16-.576.062-.428.144-1.838 1.172-.943.48-.69.531-1.03.991-.335.186-1.515.686-.319.233-.716.722-.227.124-.618.454-.55.32-.676.486-1.169.774-.628.299-.943.692-.165.056-.958.63-.479.16-.89.057-.645-.026-.782-.139-.505-.217-.412-.238-1.808-.769-1.03-.64-1.067-.531-1.226-.527-1.097-.381-1.267-.388-1.112-.149-3.797-.491-1.2-.464-2.189-.826-1.612-.619-3.6-1.311-3.966-1.445-2.025-.733-1.627-.594.757-5.341 1.35-1.564 1.642-1.915.495-.573.52-.17-.103-.583 1.762-.31-.165-1.141 4.872-.846.67-.124.047.211 1.261-.19-.68-4.253-.267-1.476-1.216.206-.2-1.079-.145-.923 2.03-.465.144-.046 2.25-.506.155.965 1.9-.33 3.24-.584-.22-1.357 3.254-.764.938-.211-.304-1.698-.247-1.446-.211-1.125 1.591-.289-.062-.3 1.762-1.408-.515-.681-.932-1.301-.345-.852.916.594 3.184 2.013 1.91 1.244.201.005.155.129.891.609.134.217.891.598 1.37.687 2.674-.46-.176-.99-.463-2.741 1.597-.315 2.56-.408.664-.129 2.514-.428.921-.15.516 3.102 2.503-.423 1.808-.294.268-.073.68-.087-.073-.393-.437-2.714 1.37-.233-.196-1.434-.175-1.09-.093-.861-.144-.486.49-.103.736-.108-.18.284.01.315-.083.221.103.842 2.081-.336.088.547-.088.64h.335l.144.46.608-.067.067.562 2.24-.382.073.382.16.14.303-.026 1.968-.315.654-.134 1.654-.269.69-.088.087-.036.876-.144.149.8.243 1.522.453 2.565.263.217.535-.02.15-.253 2.997-.48v.237l1.654-.284.304.997.468-.197.186-.242.35-.212-.386-.691.247-.124.196.057 1.097-.197.613-.077 1.241-.196-.113-.681.381-.088 1.004-.134 2.045-.356 2.102-.418 1.21-.228.536-.129.149.01 2.504-.5 1.555-.284-.273-1.42-1.88.29-.299.03-.056-.262-.294-1.827-.247.046-1.535.212-2.292.438-.938.17-.365-.247-.448-.155-.346-.232-.54-.269.108-.294.309-.562.046-.496-.02-.397-.17-.227 1.339-.263 2.333-.408 3.626-.645-.365-2.065.041-.046 1.741-.3 3.116-.557-.34-1.853-2.292.392-.366-2.1-.278-1.26-.608-1.605.711-1.15.629-1.038.365.289.433.212.881.547.525.392.763.48.031-.031.767.433.129.176 1.942 1.249.314.03.118.016.346.294.618.403.783.48.041-.046.654.402-.083.145.134.697.217.877-.263.036.721 3.577.253 1.197-.196.02-1.185.238-.407-.17-.463.061-2.689.501.242 1.296.407 2.498.16.84-1.674.295-.304.072-1.257.233.484 2.394.216 1.177 3.127-.578.685 3.866.216 1.29.526 2.988.51 2.627.092.573 1.087-.727.623-.496 2.777-1.77.561.413 1.247 1.011.628.491.139.412.299.542.706 1.358.561 1.047.711 1.528 1.88-.356.18 2.385-1.365.583-.402.242-.504.362-.382-.682-1.782.656.464 1.342.108.273-.644 1.358-1.272.583-.515.382 2.189 1.992.855.712 1.453.031.412-.046-.057-1.079.144-.377.258-.031-.196-2.085.01-.547 1.854-.088 2.674-.454.324 1.863 3.858-.702.659-.108.392 2.106.628 3.68.036.088.351 1.987.422-.037 3.307-.552 6.639-1.146.5 3.113.499 3.2.124.701-.427.083.958 5.378-1.664.284.041.309-2.689.465-1.643.304-3.956.702-2.055.382-2.137.372-1.288.242.458 3.303.412 2.715.217 1.513-.052.123-4.398.676.211 1.306.417 2.369.968.764-5.027.816-2.905.48-3.951.727-3.554.568-3.172.485.293 2.395.35 2.653.598 4.47-.021.067-.772.113-3.364.537-2.539.418-3.93.661-.083-.584-.149-1.285-.098-.717-3.466.444" clip-rule="evenodd"/><path stroke="#000" stroke-linecap="round" stroke-linejoin="round" stroke-width=".2" d="m115.075 163.9-.237-1.476-.175-1.342-.227-1.476-.299-2.162-.072-.408-.252-2.694-.139-.976-.567-3.752-.396-2.72-.134-.981.7-.149-.123-.191-1.19-1.569-.623-.857-1.077-.341-.391-.098-.479-.222-.48-3.7-.144-1.172-.02-1.078-.036-.759-.088-.857-1.009-.526-1.113.186-1.138.134-.979.087-1.648.264-.979-.615-.196-1.548-.623-.237-1.025-.424-.355.109-1.67-.439-.416-1.151-.289-.738-1.154-1.651-.123-.14-.752-1.249-.428-.521-.633.676-.886.599-.685.062-.974.531-.453.496v.516l-.314 1.084-.119.124-.252.041-.155-.114-.164-.402-.186-.119-.417-.005-.716.392-1.236.418-.376.067-.397.006-.263-.083-.654-.114-.432-.284-.655-.856-.267-.542-.485-.356-.67-.16-.576.062-.428.144-1.838 1.172-.943.48-.69.531-1.03.991-.335.186-1.515.686-.319.233-.716.722-.227.124-.618.454-.55.32-.676.486-1.169.774-.628.299-.943.692-.165.056-.958.63-.479.16-.89.057-.645-.026-.782-.139-.505-.217-.412-.238-1.808-.769-1.03-.64-1.067-.531-1.226-.527-1.097-.381-1.267-.388-1.112-.149-3.797-.491-1.2-.464-2.189-.826-1.612-.619-3.6-1.311-3.966-1.445-2.025-.733-1.627-.594.757-5.341 1.35-1.564 1.642-1.915.495-.573.52-.17-.103-.583 1.762-.31-.165-1.141 4.872-.846.67-.124.047.211 1.261-.19-.68-4.253-.267-1.476-1.216.206-.2-1.079-.145-.923 2.03-.465.144-.046 2.25-.506.155.965 1.9-.33 3.24-.584-.22-1.357 3.254-.764.938-.211-.304-1.698-.247-1.446-.211-1.125 1.591-.289-.062-.3 1.762-1.408-.515-.681-.932-1.301-.345-.852.916.594 3.184 2.013 1.91 1.244.201.005.155.129.891.609.134.217.891.598 1.37.687 2.674-.46-.176-.99-.463-2.741 1.597-.315 2.56-.408.664-.129 2.514-.428.921-.15.516 3.102 2.503-.423 1.808-.294.268-.073.68-.087-.073-.393-.437-2.714 1.37-.233-.196-1.434-.175-1.09-.093-.861-.144-.486.49-.103.736-.108-.18.284.01.315-.083.221.103.842 2.081-.336.088.547-.088.64h.335l.144.46.608-.067.067.562 2.24-.382.073.382.16.14.303-.026 1.968-.315.654-.134 1.654-.269.69-.088.087-.036.876-.144.149.8.243 1.522.453 2.565.263.217.535-.02.15-.253 2.997-.48v.237l1.654-.284.304.997.468-.197.186-.242.35-.212-.386-.691.247-.124.196.057 1.097-.197.613-.077 1.241-.196-.113-.681.381-.088 1.004-.134 2.045-.356 2.102-.418 1.21-.228.536-.129.149.01 2.504-.5 1.555-.284-.273-1.42-1.88.29-.299.03-.056-.262-.294-1.827-.247.046-1.535.212-2.292.438-.938.17-.365-.247-.448-.155-.346-.232-.54-.269.108-.294.309-.562.046-.496-.02-.397-.17-.227 1.339-.263 2.333-.408 3.626-.645-.365-2.065.041-.046 1.741-.3 3.116-.557-.34-1.853-2.292.392-.366-2.1-.278-1.26-.608-1.605.711-1.15.629-1.038.365.289.433.212.881.547.525.392.763.48.031-.031.767.433.129.176 1.942 1.249.314.03.118.016.346.294.618.403.783.48.041-.046.654.402-.083.145.134.697.217.877-.263.036.721 3.577.253 1.197-.196.02-1.185.238-.407-.17-.463.061-2.689.501.242 1.296.407 2.498.16.84-1.674.295-.304.072-1.257.233.484 2.394.216 1.177 3.127-.578.685 3.866.216 1.29.526 2.988.51 2.627.092.573 1.087-.727.623-.496 2.777-1.77.561.413 1.247 1.011.628.491.139.412.299.542.706 1.358.561 1.047.711 1.528 1.88-.356.18 2.385-1.365.583-.402.242-.504.362-.382-.682-1.782.656.464 1.342.108.273-.644 1.358-1.272.583-.515.382 2.189 1.992.855.712 1.453.031.412-.046-.057-1.079.144-.377.258-.031-.196-2.085.01-.547 1.854-.088 2.674-.454.324 1.863 3.858-.702.659-.108.392 2.106.628 3.68.036.088.351 1.987.422-.037 3.307-.552 6.639-1.146.5 3.113.499 3.2.124.701-.427.083.958 5.378-1.664.284.041.309-2.689.465-1.643.304-3.956.702-2.055.382-2.137.372-1.288.242.458 3.303.412 2.715.217 1.513-.052.123-4.398.676.211 1.306.417 2.369.968.764-5.027.816-2.905.48-3.951.727-3.554.568-3.172.485.293 2.395.35 2.653.598 4.47-.021.067-.772.113-3.364.537-2.539.418-3.93.661-.083-.584-.149-1.285-.098-.717-3.466.444"/></svg>