<svg xmlns="http://www.w3.org/2000/svg" width="290" height="241" fill="none" viewBox="0 0 290 241"><path id="Лубенський" fill="#C8C6C6" fill-rule="evenodd" d="m82.301 110.671-.37-.538.67-.585-1.036-1.077-.072-.043-1.02-1.042-.85-.83-.54.664-.97-.421-.468.426-.469-.413-.247-.106-.402.474-.448.294-.103-.005-.556-.463.463-1.256-1.694-.599-.845-.322-1.329-.462-.113.024-.51-.293-.041-.211-.18-.179-.65-1.785-.736-.11-.546.164-1.18-.797-.16.249.274.639-.047.282-.165.325-.128-.239-.397-.284.072-.276-.067-.414.144-.687-.03-.299-.454.025.15-.603.133-.282-.484.017-.18.077-.062.2-.52-.16-.217.25.315.015.005.222-.15.09-.55-.115.056.201.51.222.134.241-.201.046-.258-.178-.133.015-.273.402.33.364-.155.405-.042.338-.19.005-.134.195-.17-.332-.35.047-.083.213-.19-.224-.13.313-.19.155-.659-.01-.252-.211-.175.266-.279-.105-.206.469.155.254-.062.441-.18.249-.237-.092-.16.253.113.151.449-.079.577.762-.042.908-.257.588-.799.246-.468-.129-.53.051-.125.106-.082.354-.34-.048-.32.194-.447-.083-.443.466-.392.09-.077.278-.252-.063-.279.403-.417.341-.314-.403-.464.231.042.246-.237.046-.134-.207.092-.164-.164-.14-.47.094.083.154-.391.119-.196-.124-.216-.293-.376.461h-.17l-.304.215.108.712.031.913.304-.137.165.159-.047.232-.18.03-.041.187-.221.06.164.293-.123.109.226.509-.118.259-.088.429-.247.566-.273.429-.134.317-.252-.009.118.438-.185.324-.304.081-.227.208-.005.194-.417.542.118.119.361-.029-.144.576-.459-.115-.164.286.226.209.036.139-.278.168-.185.354.365.208-.144.172-.154-.086-.078.276.175.171-.19.551-.335-.064-.288.239-.382-.262-.33-.561.037-.199-.278-.087-.448-.368.36-.198-.154-.313-.371-.129-.587.032-.242-.091.309-.469-4.59-1.747-1.257-.453-1.777-.684-.01-.043-.484-5.648.273-.572.093-.333-.593-1.095-.268-.542-.566-1.056-1.015-.005-.66-.038-1.838-.072-.876-3.669-.02-.283-.763.186-.798.162-1.468.362-1.576.35-.407-1.385-.618-1.926-1.324-1.54.088-.185-.628-.633-.289-.594-.144-.48-.402-.492-1.004-1.082v-.08l-1.242-1.398-.412-.434 1.025-.877.567-.477.206.266.67.987.963-.589 1.7-1.113-.789-.755-.649-.758-.283-.514.392-1.926.051-1.322.747.125.134-.535-.376-.271-.484-.162-.15.026.572-2.257.14-.318-.032-.227.206-.604-1.937-1.316-1.107-.662-1.138-.737-.145-2.572-.747-.2-.051-.806-.288-3.335-.82-.13-.865-.183v-.279l.175-.758.263-.464-.144-.029-.402-.666-.422-.306-.428-.394-.582.72-.237.852-.118.626-.093.251-.618.091-.34-.377-.288-.299-1.752-1.936-.71-.8-.856-1.55-.056-.022-.423-.77.315-.75.453-.555.381-.558.15-.068-.346-.33-.566-.336-.15-.25-.515-.19-.108-.266-.469-.472-.165-.312.114-.249.237-.003 2.694-.728 1.566.101-.407-2.86-.474-.123-.026-.105-1.221-.33-.046.064-.912-.26-.108.172-.598-.17.005-.196-.638-.189.01-.09-.814-.235-.031.098-.422-.153.01-.077-.459-.13-.051-.068-.984-.26-.072-.114-.355-.105-.067.072-1.195-.334-1.89-.548-.423-.925-.711-1.096-.051-.945-.237-.056-.438-.074-.639-.575-.968-.82-2.066-1.804 1.18-1.62-.629-.474-1.813-1.334.31-.416-.938-.704.968-3.915-.098-.203-.504.019-.376-.222-.119-.186-.35-.299.798-.525.48.008 1.524-.993 1.978-1.319-.948-1.47 1.113-.724.051-.073.814-2.06-.567-1.044-.195-.418.427-.202 1.087-.26 1.113-.212 1.272-.2 2.498-.477.077.223.644.823.294.013.412-.441.33.12-.14.349.098.22.793.098.52.123 1.113-.62.041-.133-.195-.152-.294-.017-.391.136-.273.162.04-.485.186-.38.392-.173.185-.301-.165-.183-.226-.08.062-.313-.078-.131-.355-.184-.304-.71 2.308.016-.042-.87 1.02.108.376-2.132.294-.323.335.05.309-.506.128-.09 1.535-.193-.04-.156-.779-1.714.36-.64.006-.243.36-.077.356-.262.34-.057.196.087.185-.194 2.277.2.206 1.196.062.19.236.107 2.313 1.124.36-.761 3.782 1.814 1.88.197-.02-.088.627.069.742-.43.459.424.267-.217.134.137-.242.279.165.257-.17.208-.113-.076-.201.203.175.149.015.95.114.958-.314.023-.222.29.02.187-.133.131.123.268.87.283-.138.252.195.192.438.047.5.322 1.164 1.768.33.257.324-.02.551-.273.495-.505.216-.324.2.075.423.028.551-.278.356-.4.726-.11.711.136.34.182.139.244.36-.072 3.843-.109-.154-1.276 1.174-.123 2.158-.267-.082 1.47 4.82.273.336.006.37-.134.443.072-.195.229.278.445.067-.279.18-.214.14-.427.318-.152.248.133.026.323.175.454.448.512.185.034.258-.272.072-.322.227-.036 1.983.93.304-.808.37-.534-.443-.198-.813-.523.468-.232.01-.165-.313-.085-.13-.315.325.048-.062-.468.768-.066.37-.16.608-.279 2.215.059 2.725-2.182 2.617-2.065 1.04.115.428-.384-.201-.3-.041-.536-.16-.988-.01-.216.263-.093.484-.046-.031-.613.757-.111.185.195.453-.153.294.07.386-.167.722.644-.212.21.953.911.886-.088.505-.22.639-.42.571-.029.809-.091-.103 1.04-.257.01-.109.316.134.12.52.126.397.23.32.111.21.224.227.064-.376.695-.494.847-.407 1.06-.098.106-.062.506 1.942-.163.227.09.056.296.278.023.217.124.139.226.443.223.108.233-.227.076-.01.429.072.172.263.267.36-.027.062-.13-.18-.28.36-.08-.015.585.186.222.252-.033.227.189-.206.228-.412.27-.052.143.242.354-.175.34-.51 1.334-.15.682.093.25.402-.1.557.162.391-.098.819.101-.33.781.412.287-.04.293.581-.105.31-.262.586.488.294.067.428 1.22-.006.123.289.156-.005.545.144.245.01.25.16.215.056.281-.262.81.654 1.505.525-.405.582-.377.145.117.273-.185.437.493-.19.282.391.511-.226.624.474 1.148-.042.468-.33.055-.072.256-.437.103-.18 1.583.046.399.16.228.226.083.536-.146.417-.258.31.2.056.233.535 1.315-.082 1.666.263.021-.129 1.359-.046.26.762.358-.737 2.129 1.963.79.922.383.103.078.18.436.232.135.314.486.469.18.232.25.17-.031.443-.253.19.05.294.396.03.289.124.274.335.03.227.179.036.287-.18.35-.016.463-.309.207.258.268 1.777.37-.119.373-.195.312.18.079.227-.106.051-.274.695.02.577.07.175-.272-.01-.29.134-.308.273-.082.129-.253-.139-.181.139-.602.17-.029-.031-.224.355-.505.211-.142.052-.246.144-.205-.01-.338-.304-.366.052-.248.582-.84.355-.378.216.047.526-.39.427.138.33-.17.175-.186-.082-.16.036-.23.242-.082.226.123.309-.276.026-.465h.217l.52-.302.345.035.206.135.242.371.036.374.361.255.443.652-.083.163.345.338-.061.164-.284.26.011.41.123.099-.211.801.119.154.236-.084.212.393.298-.014 2.282 2.334-.257.135-.588.774.026.158.268.157.433-.606.355-.008 1.01-.098-.047.626-.262 2.252-.232 1.283-.85.22.211.443.448 1.434.32 1.136.85-.39.468.5-.134.446-.19.303-.345.732-.273.33-.35.339-.32.43.211.592-.041.661-.34.906-.783 1.948-.541 1.66-.628.14-1.015-.187-.448.045-1.313.374-.201.082-.067.199.077.502-.134.238-.015.356-2.436.018-.006.448.047 2.02h-.381l-.536.062-.309-.063.026.197.721.145.036-.06.675.093.015.072.469.086-.052.194.448.394-.133.436 1.061.853.334.408 1.154.635.582.314 1.324.952.86.645.567.477.577.6-.86 1.602-.037.288.15.263.206.078.232.254-.181.075-.046.218-.227-.155-.046.45-.278-.16-.16.244-.098.753.062.135.392.04-.021.291.299.04.17.334-.088.26-.531.518-.504.065.139 1.223 1.962.402.665.184 2.601 2.457.52.522-.17.18.119.183-.109.481.315.688.2.194.33-.01.237-.146.433-.057.18.252.597.196.088-.402.222-.077.025-.215-.108-.228.18-.102.474.214 1.154-.163.397.056.731.172 1.978 1.023 1.813.963.742.355 1.359.543-.092.544-.15.993.036.17 1.139.006.211-.02.067 2.767.036 1.984-1.679.603.232.603-1.994.844v.101l.325 2.241.216 1.701-.638.931-2.143 3.171-1.159 1.746.077.082-.02 1.514-.042.67.052.035-.036 2.386 1.241.987-.881 1.23.485.826-.243.446-.448.383.062.393-.067.313-.422.047-.592 1.087-2.401-.246.036-.445-.927-.277-.695-.068-.253-.493.196-.378.216-.749-.18-.105.062-.401-.556-.119-2.354-.583-1.406-.993-.304-.181-.557-.697-1.365 1.092-.278-.572-1.236.604-2.369-.096-.067 1.051-.675.147-.149-.278-.253-.008-.762-.56-.206-.033.036.355h-.165l-.057.455-.551.272-.376-.43-.159.263-.747-.403-.366-.551-.391-.2-.335-.417.165-.686-.036-.337-.124-.292-.294-.083-.144.304-.288-.211-2.251.054-.186-.041-2.55-.389-.128.466-.005.782-.186-.04-.005 1.203-1.025-.568-.185.307-.423-.175-.664-.348-1.638-.984.865-1.514.15-.286-1.206-.851 1.139-1.586-1.04-.463-.933-.791-1.01.835-1.895-.952-3.034-1.577-.84-1.171" clip-rule="evenodd"/><path stroke="#000" stroke-linecap="round" stroke-linejoin="round" stroke-width=".2" d="m82.301 110.671-.37-.538.67-.585-1.036-1.077-.072-.043-1.02-1.042-.85-.83-.54.664-.97-.421-.468.426-.469-.413-.247-.106-.402.474-.448.294-.103-.005-.556-.463.463-1.256-1.694-.599-.845-.322-1.329-.462-.113.024-.51-.293-.041-.211-.18-.179-.65-1.785-.736-.11-.546.164-1.18-.797-.16.249.274.639-.047.282-.165.325-.128-.239-.397-.284.072-.276-.067-.414.144-.687-.03-.299-.454.025.15-.603.133-.282-.484.017-.18.077-.062.2-.52-.16-.217.25.315.015.005.222-.15.09-.55-.115.056.201.51.222.134.241-.201.046-.258-.178-.133.015-.273.402.33.364-.155.405-.042.338-.19.005-.134.195-.17-.332-.35.047-.083.213-.19-.224-.13.313-.19.155-.659-.01-.252-.211-.175.266-.279-.105-.206.469.155.254-.062.441-.18.249-.237-.092-.16.253.113.151.449-.079.577.762-.042.908-.257.588-.799.246-.468-.129-.53.051-.125.106-.082.354-.34-.048-.32.194-.447-.083-.443.466-.392.09-.077.278-.252-.063-.279.403-.417.341-.314-.403-.464.231.042.246-.237.046-.134-.207.092-.164-.164-.14-.47.094.083.154-.391.119-.196-.124-.216-.293-.376.461h-.17l-.304.215.108.712.031.913.304-.137.165.159-.047.232-.18.03-.041.187-.221.06.164.293-.123.109.226.509-.118.259-.088.429-.247.566-.273.429-.134.317-.252-.009.118.438-.185.324-.304.081-.227.208-.005.194-.417.542.118.119.361-.029-.144.576-.459-.115-.164.286.226.209.036.139-.278.168-.185.354.365.208-.144.172-.154-.086-.078.276.175.171-.19.551-.335-.064-.288.239-.382-.262-.33-.561.037-.199-.278-.087-.448-.368.36-.198-.154-.313-.371-.129-.587.032-.242-.091.309-.469-4.59-1.747-1.257-.453-1.777-.684-.01-.043-.484-5.648.273-.572.093-.333-.593-1.095-.268-.542-.566-1.056-1.015-.005-.66-.038-1.838-.072-.876-3.669-.02-.283-.763.186-.798.162-1.468.362-1.576.35-.407-1.385-.618-1.926-1.324-1.54.088-.185-.628-.633-.289-.594-.144-.48-.402-.492-1.004-1.082v-.08l-1.242-1.398-.412-.434 1.025-.877.567-.477.206.266.67.987.963-.589 1.7-1.113-.789-.755-.649-.758-.283-.514.392-1.926.051-1.322.747.125.134-.535-.376-.271-.484-.162-.15.026.572-2.257.14-.318-.032-.227.206-.604-1.937-1.316-1.107-.662-1.138-.737-.145-2.572-.747-.2-.051-.806-.288-3.335-.82-.13-.865-.183v-.279l.175-.758.263-.464-.144-.029-.402-.666-.422-.306-.428-.394-.582.72-.237.852-.118.626-.093.251-.618.091-.34-.377-.288-.299-1.752-1.936-.71-.8-.856-1.55-.056-.022-.423-.77.315-.75.453-.555.381-.558.15-.068-.346-.33-.566-.336-.15-.25-.515-.19-.108-.266-.469-.472-.165-.312.114-.249.237-.003 2.694-.728 1.566.101-.407-2.86-.474-.123-.026-.105-1.221-.33-.046.064-.912-.26-.108.172-.598-.17.005-.196-.638-.189.01-.09-.814-.235-.031.098-.422-.153.01-.077-.459-.13-.051-.068-.984-.26-.072-.114-.355-.105-.067.072-1.195-.334-1.89-.548-.423-.925-.711-1.096-.051-.945-.237-.056-.438-.074-.639-.575-.968-.82-2.066-1.804 1.18-1.62-.629-.474-1.813-1.334.31-.416-.938-.704.968-3.915-.098-.203-.504.019-.376-.222-.119-.186-.35-.299.798-.525.48.008 1.524-.993 1.978-1.319-.948-1.47 1.113-.724.051-.073.814-2.06-.567-1.044-.195-.418.427-.202 1.087-.26 1.113-.212 1.272-.2 2.498-.477.077.223.644.823.294.013.412-.441.33.12-.14.349.098.22.793.098.52.123 1.113-.62.041-.133-.195-.152-.294-.017-.391.136-.273.162.04-.485.186-.38.392-.173.185-.301-.165-.183-.226-.08.062-.313-.078-.131-.355-.184-.304-.71 2.308.016-.042-.87 1.02.108.376-2.132.294-.323.335.05.309-.506.128-.09 1.535-.193-.04-.156-.779-1.714.36-.64.006-.243.36-.077.356-.262.34-.057.196.087.185-.194 2.277.2.206 1.196.062.19.236.107 2.313 1.124.36-.761 3.782 1.814 1.88.197-.02-.088.627.069.742-.43.459.424.267-.217.134.137-.242.279.165.257-.17.208-.113-.076-.201.203.175.149.015.95.114.958-.314.023-.222.29.02.187-.133.131.123.268.87.283-.138.252.195.192.438.047.5.322 1.164 1.768.33.257.324-.02.551-.273.495-.505.216-.324.2.075.423.028.551-.278.356-.4.726-.11.711.136.34.182.139.244.36-.072 3.843-.109-.154-1.276 1.174-.123 2.158-.267-.082 1.47 4.82.273.336.006.37-.134.443.072-.195.229.278.445.067-.279.18-.214.14-.427.318-.152.248.133.026.323.175.454.448.512.185.034.258-.272.072-.322.227-.036 1.983.93.304-.808.37-.534-.443-.198-.813-.523.468-.232.01-.165-.313-.085-.13-.315.325.048-.062-.468.768-.066.37-.16.608-.279 2.215.059 2.725-2.182 2.617-2.065 1.04.115.428-.384-.201-.3-.041-.536-.16-.988-.01-.216.263-.093.484-.046-.031-.613.757-.111.185.195.453-.153.294.07.386-.167.722.644-.212.21.953.911.886-.088.505-.22.639-.42.571-.029.809-.091-.103 1.04-.257.01-.109.316.134.12.52.126.397.23.32.111.21.224.227.064-.376.695-.494.847-.407 1.06-.098.106-.062.506 1.942-.163.227.09.056.296.278.023.217.124.139.226.443.223.108.233-.227.076-.01.429.072.172.263.267.36-.027.062-.13-.18-.28.36-.08-.015.585.186.222.252-.033.227.189-.206.228-.412.27-.052.143.242.354-.175.34-.51 1.334-.15.682.093.25.402-.1.557.162.391-.098.819.101-.33.781.412.287-.04.293.581-.105.31-.262.586.488.294.067.428 1.22-.006.123.289.156-.005.545.144.245.01.25.16.215.056.281-.262.81.654 1.505.525-.405.582-.377.145.117.273-.185.437.493-.19.282.391.511-.226.624.474 1.148-.042.468-.33.055-.072.256-.437.103-.18 1.583.046.399.16.228.226.083.536-.146.417-.258.31.2.056.233.535 1.315-.082 1.666.263.021-.129 1.359-.046.26.762.358-.737 2.129 1.963.79.922.383.103.078.18.436.232.135.314.486.469.18.232.25.17-.031.443-.253.19.05.294.396.03.289.124.274.335.03.227.179.036.287-.18.35-.016.463-.309.207.258.268 1.777.37-.119.373-.195.312.18.079.227-.106.051-.274.695.02.577.07.175-.272-.01-.29.134-.308.273-.082.129-.253-.139-.181.139-.602.17-.029-.031-.224.355-.505.211-.142.052-.246.144-.205-.01-.338-.304-.366.052-.248.582-.84.355-.378.216.047.526-.39.427.138.33-.17.175-.186-.082-.16.036-.23.242-.082.226.123.309-.276.026-.465h.217l.52-.302.345.035.206.135.242.371.036.374.361.255.443.652-.083.163.345.338-.061.164-.284.26.011.41.123.099-.211.801.119.154.236-.084.212.393.298-.014 2.282 2.334-.257.135-.588.774.026.158.268.157.433-.606.355-.008 1.01-.098-.047.626-.262 2.252-.232 1.283-.85.22.211.443.448 1.434.32 1.136.85-.39.468.5-.134.446-.19.303-.345.732-.273.33-.35.339-.32.43.211.592-.041.661-.34.906-.783 1.948-.541 1.66-.628.14-1.015-.187-.448.045-1.313.374-.201.082-.067.199.077.502-.134.238-.015.356-2.436.018-.006.448.047 2.02h-.381l-.536.062-.309-.063.026.197.721.145.036-.06.675.093.015.072.469.086-.052.194.448.394-.133.436 1.061.853.334.408 1.154.635.582.314 1.324.952.86.645.567.477.577.6-.86 1.602-.037.288.15.263.206.078.232.254-.181.075-.046.218-.227-.155-.046.45-.278-.16-.16.244-.098.753.062.135.392.04-.021.291.299.04.17.334-.088.26-.531.518-.504.065.139 1.223 1.962.402.665.184 2.601 2.457.52.522-.17.18.119.183-.109.481.315.688.2.194.33-.01.237-.146.433-.057.18.252.597.196.088-.402.222-.077.025-.215-.108-.228.18-.102.474.214 1.154-.163.397.056.731.172 1.978 1.023 1.813.963.742.355 1.359.543-.092.544-.15.993.036.17 1.139.006.211-.02.067 2.767.036 1.984-1.679.603.232.603-1.994.844v.101l.325 2.241.216 1.701-.638.931-2.143 3.171-1.159 1.746.077.082-.02 1.514-.042.67.052.035-.036 2.386 1.241.987-.881 1.23.485.826-.243.446-.448.383.062.393-.067.313-.422.047-.592 1.087-2.401-.246.036-.445-.927-.277-.695-.068-.253-.493.196-.378.216-.749-.18-.105.062-.401-.556-.119-2.354-.583-1.406-.993-.304-.181-.557-.697-1.365 1.092-.278-.572-1.236.604-2.369-.096-.067 1.051-.675.147-.149-.278-.253-.008-.762-.56-.206-.033.036.355h-.165l-.057.455-.551.272-.376-.43-.159.263-.747-.403-.366-.551-.391-.2-.335-.417.165-.686-.036-.337-.124-.292-.294-.083-.144.304-.288-.211-2.251.054-.186-.041-2.55-.389-.128.466-.005.782-.186-.04-.005 1.203-1.025-.568-.185.307-.423-.175-.664-.348-1.638-.984.865-1.514.15-.286-1.206-.851 1.139-1.586-1.04-.463-.933-.791-1.01.835-1.895-.952-3.034-1.577-.84-1.171"/><path id="Полтавський" fill="#C8C6C6" fill-rule="evenodd" d="m157.018 220.079 2.405-2.498.829-1.068.83-.692.201-.206 1.184-1.038.181-.222 1.262-1.156-1.314-1.62-1.88-1.182.186-.305-2.231-1.388-2.086-1.301.026-1.177-3.77-.062.056-3.267 3.302.072.5-.005 3.008-1.254.041-.134 1.921.506.433-1.688-.778-.211.464-1.771-1.185-.315.989-4.175 4.78.97.33.052.154-.501.448-.046-.123-.594-.088-.098.015-.34.217-2.411.35-.155-.098-.562 2.091-.098.608-.036.299-1.992.077-.713.402-2.296.263-1.332-.964-.227.495-1.791-1.463-.454-.124.34-1.833-.567-.943-.238-.232-1.564-.061-.289.113-.077-.242-.635-.17-.108.211-.217.221-.057.232-.253-.005-.278-.237-.129-.427-.372-.443-2.508-.098-.475-1.298-.976-.768-.712-.025-.072.082-1.053 1.844-2.116.046-.764-.056-.413-.217-.005-.02-.248-.933-.722-.288-.909-.582-1.703-1.123.124-.464-3.602-.319-2.447-.149-1.259-.562-.114-.082.114h-.392l-.005.351-3.405-.764-1.061.903-1.802-1.621-.67-.536-.067.066-.912-.853.325-.237.752.012.268-.447-.005-.142-.217-.405-.721.115-.057-.268-.484.2.124-.291-.072-.26-.124-.04-.154-.833-.217-.312.176-.279.005-.207-.217-.098-.587-.068-.391.164-.299.293-.618.194-.417.253-.402.003-.5.122-.154-.078-.005-.247-.309-.066-.407.386-.217.037-.206-.24-.468.014-.428-.241.155-.293-.196-.171.02-.233-.185-.053.067-.228.412-.2-.155-.271-.391-.277-.33.024-.18-.086-.268-.397.036-.178.196-.105-.124-.28.175-.122-.026-.321.047-.319.283.076.124-.155-.227-.117-.139-.217-.252-.662.118-.291-.01-.204.474-.427.149.266.943-.057-.083-.519.119-1.665-.016-.211-.355-.503-.211-.16.046-.198-.391.037-.098.134-.824.335-.16.098-.118-.294.118-.13-.149-.153-.119.208-.196.009-.077.279-.443-.003-.216-.083v-.394l-.062-.217.067-.209-.309-.462-.247-.071-.407-.329.02-.389-.288-.101-.459-.385-.236-.026-.304.181-.629-.924-.165-.292-.37.257-1.247-.148-.036-.24-.711-.273-.247-.127-.242.086-.464-.583-.134-.338.33-.089-.355-2.856 1.251.098.139-.455.103-.672.397-2.25.237.146.345.072.134-.357.36-.143.067.159.212-.047.195.175 1.206-.531.535.565.304.364.232.308.479.442.458.033.526-.224.474-.082.499-.409.397-.643.948-1.585.026-4.087 1.426-.094 1.206-.05-.057-1.132 1.844-.098.088-.216.479-.038.061-.392-.103-1.156.304-.025-.19-2.376.577.068.247.11 1.21.02 1.329-.375.484-.488 1.401-1.488 1.546.349-.098-.349.154-.731.315-.192-.201-.828-.608.107-.129-.395.098-.197-.026-.326-.355-.87-2.303.659-.319-.969.52-.242.216-.116.593-.559 1.437-.624.02-.438-.046-.29-.144-.255.566-.165.109.282.504-.378.211.922.536-.107-.031.345 1.623.171 1.638.297.17.197.649-.265.437-.12.309.064 1.206.134.077-.153.464-.53-.103-.118.031-1.148.149.05 1.257.039.072-.237.376-.719.53-.805.222-.415-.052-.073-.674-.32-.242-1.004-.85-.06.005-1.062-.309-.173-.011-.276.176-.096.005-.167 1.808-.392.195.504.51-.257.644-.116.206-.316.448-.137.212-.541.041-.332.912.093 1.632.104.505-.993.237-.415.747-.013-.067-2.212 1.911.017.716.043.031.572.747-.017-.036-1.05 1.926-.264.721-.241.17-.095.572.454.046-.413.067-.111.361-.022-.232-.503-.16-.744.284-.008.041-.908.366.006.031-.399.226.031.026-2.437.021-2.445.747-.478.262-.198.727-.637v-.05l-1.164-1.415-.464-.61.242-.496-.252-.59.695-.5.376.056.551.147.587.045.464-.068.567-.37 1.097-.089-.036-.638.577-.005-.201-1.13-.356-.813-.608-.851-.293-.236-.222-.256-.216-.41-.618.105-.371-.737-.124-.805.284-.02.602-.323 1.958-.247-.047-.887-.103-.936-.098-.525-1.025.023-1.55.193-.072-1.334-.062-1.742h-1.149l-.175-.827-.092-.69-.253-.738-.587-1.41-.113-.085-1.386-.697.129-1.155.015-1.427-1.684-.078-.603-.468-.932-.787-.804-.586-.705.876-.484-.724-.114.017-.535-.926-.021-.14-.515-.606-.247.207-1.175.806-1.097-.08-.309-.927-.134-.1-.499-.115-.309.02-.232.621-.84-.45-.247-.254-.108-.333-.355-.323-.243-.048-.504-.309-.026-.188.165-.099.056-.31.248-.167.309-.107-.052-.267-.242-.39-.736-.425-.072-.01-.207.463-.005.347-.314.594-.278.015-.149-.407-.258.313-.371-.023-.824-.206.103-.248.402-.27.257-.066.34-.527.299-.254-.226-.627-.114-.13-.402-.096.083-.308.118-.134-.015-.248.191-.43-.495-.182.283-.328.134.031.248-.604.906-.298 1.36-.348.819-.253-.191-.529.196-.34.412-1.206-.118-.308.314-.266-.041-.611 1.215-.007 2.328-1.228.927.062v-.65l-.612-.347-.104-.098.083-1.057.237-2.146.669-3.535 1.031-1.995.69-1.466.216-.39.69-.8.443-1.41.325-1.153-.665-.217 1.154-1.336.289.203.638-1.395.155-1.605.206-.534.582-.371.515-.211 1.01-.337-.315-.595-.19-.159.082-.13-.087-.346.061-.372.201-.283.809-.318-.242-.205-.52-.583.973-1.014.34.26.701.038-.258.74 1.314.108-.175-.554.164-.594.788.02.052-1.033.036-.056.639.04 1.875.072.231.334.088.227.288.342.237.202.134-.084.531-.082 1.272-.043-.067-.756.742-.057.005-.272 1.128-.088.366.196.046-.199-.02-.434.468.049-.026-.677.809.35.397.16.298.655-.185.196.731.874 1.53.933.108.283-.17.494-.767 1.7.01.072 3.508 3.102.984.809.216.232.587-.23 1.597.21 2.225.32 1.041.526-.181.18-.499.656.273.136-.093.485.314.441.206.448.175.239-.237.204-.005.423-.062.144-.376.05-.128.123.036.488.098.262.448.492.18.003.397.27-.047.263.139.05.242-.115.309-.271.047-.151-.129-.209-.345-.105-.093-.3.371-.192.155.281.303.089.124-.051.371.1.041.182.232.098.407.3.438.587.252.168-.206.253-.01.406.175.166.036.376.309-.32-.088-.287-.278-.159.32-.312.7 1.228-.134.335-.551 1.929-.263.52-.494-.049-.665.968-1.921 2.877.18.69.753.092-.495 1.607-.17.642.901-.014.067.13.129 1.572.598.114-.026 1.07.278-.003.206.098.932.704.485.23.072.213.288.312.16-.06.19-.303.278-.296.073-.31.376.082.432-.054.237.312.592.401.737.354.242.039.18.153.34.087.345-.03.34.59.196.225.227-.01.505-.203.2-.215.325.072-.02.149.17.205.18.043.309-.5.18-.007.283.185-.123.234.288.18.278-.047.248.065-.217-.405.108-.31.294-.161.124-.313-.093-.09.211-.613.005-.171.227-.32.226-.149-.005-.16-.262-.26.309-.047.216.25.201.082-.448.558.031 1.216.16.848.097.276.16.079.294-.267.221-.028.155.097.278.017.17-.177.391-.046.078-.241-.165-.262.046-.59.196-.17-.253-.44-.247-.073.206-.574.685-.674-.314-.393-.103-.825-.041-.679.062-.169.443-.146.391-.248.165.133.68.12.211-.595.309-.345.711-.307 1.262.34-.083.706-.716.976.577.046.237-.264.114.19 1.179-.155.026-.166 1.344-.732 1.664-.2-.216-.636.659-.108 1.334.02.469.2.396.388.845-.418.386-.769.104-.117.453.377.154.054.855.071.721.093 2.427.278.839.25 1.061.285 1.339.38-.628 2.325.031.725.309 4.455 1.035-.147.011.246.551.14.067 1.514.443.104.144.976-2.169 1.574-.278.941-.922 1-.443.503-.633.654-.727.789-.669 1.249-.309.614-.866 1.61-.273.339-.731 1.017-.458.6-.376.299-.227.244.531 2.143.221.945.665-.152.087.193.18.028.042.236-.274.569-.298.23-.129.18-.211.1-.778.065.015.449.165.247.361.117.52-.285.52.538.325.144 1.169 1.483 1.633-.421.252.457 1.88 3.564.639.828 1.442 1.286.727.448.772-.576.232.192 1.262.69 1.53.804.602-.476.32-.331.077-.281.551-.42 2.596.296-.082.523-.794.177.139.803-.376.098-.484.029.011.145.267.281.072.261.325.15.556.424.304.313.088.199.314.214.453.048.927-.28.974.167.86.188 1.097.775 1.175-.541.546-.529.293.09 1.736.686.417.775 1.581.599 1.036.41-.217.59.629.043.062.105.484.13.252.003.098.218.263.164.108.16-.113.644-.191.404-.046.568.123.602.098.268.397.469-.242.349-.474.129-.253-.296-.386.206-.211.349-.258.238.248.333-.268.131.18.134.252.368.547.342-.541.93.381 1.128.252.243-.304.698-.247.378-.01.45-.15.332.346.335.031.501.206.429-.191.173 1.236 1.382.67-.05.499.021 1.814.348.267 1.368.15.875-.34.029-.016.289-.293.022-.304.184-.227-.372-.68.331.377.414.793.127-.031.087-1.087 1.932.232-.011.324.266 1.149.623.098.16.386.052.566.016-.005-.182.66.037.633-.026.675-.082.809.142 1.421.332.505.199 1.123 2.173 1.107-.094 1.566-.099 1.283-.112-.016-.282.402-.068.474-.018 2.081-.177.17-.233.464-.017.092.973-.917.298.145.94.468.596.366.418.716.992.149.039.14.476.365.716.273.869.263.966.561 1.853 1.237 2.797.551 1.349-.211.171-.351.163-.314.074-.041.344-.253.03-2.158.239-.68.063-.937.124-1.53.13-.134.086-.18.306-.052.32.078.236.175.208 1.715.408-.273 1.139.68.14-.433 1.715 1.901.471-.021.133 2.983.71.062.331.412.783-.155.694-.613 2.404-1.602-.375-.087.401-.922-.217-1.041-.272-1.828-.439-.485-.131-1.622-.379-1.504-.371-1.35-.306-2.111-.499-.258 1.041.046.016-.71 3.069-.078.142-.474 2.05 2.638.625.628.649.175-.242.32.089.319-.116-.088.416-.185.599-.32 1.374-.087.441-.567 2.434-.072.28 2.014.702.443.207-.17.111-.257.405-1.69 2.291-.582.826-.659.81-1.679 1.982-.093.191-2.884 3.396-.299.372.772 2.813-.448.531-.335.088.134.273-.386.171.103.263-.108.315-.258.026-.005.433-.103.413-1.107-.666.36-.872-1.787-1.048-2.138-.185-.164.335-3.725.015-1.313-.314-2.632-.594-.886.114-.531.098-.715.041-.217-.16-.402.201-.257-.124-.376-.345-.304-.517-.088-.283-.164-.238-.031-.222.036-.485-1.092-.573-2.256-1.218-.109-.067-.834.681-.237.14-.438.924.423.18-.433.8-.407.687.113.077-.345.594-.417-.212-.525 1.729-.227.583-.412 1.182.01.077-.422 1.229-.634 1.961.124.454.438 1.863.489 1.895.484 2.002.119.423 1.05 4.274.114.516.391 1.399-.412.247-.134-.082.17-.47-.252-.062-.093.238-.17-.067-.098-.3.144-.103-.108-.232.124-.134-.428-.537-.334-.434-.392-.335-.422.134-.335-.857-.247-.093-.34-.314-.16-.269-.031-.217-.206-.129-.309-.072-.397.052-.195-.171-.057-.227.098-.366-.206-.207-.067.444-.263.021-.098-.201.175-.099.098-.381-.108-.109-.479.398.021-.331-.366-.005-.015-.377-1.108 1.807-.273-.429-.232-.201-.118.093-.278.506-.222.65-.123 1.672v.356l-.088.537-.391.078-.201.139-.407-.284-.134.423-.335.346-.283.196-.119-.108-.443.041-.242-.206-.505-.816-1.262-.469.145-.217-.248-.305.047-.232.257-.325.33-.083.144-.18.242-.036.309.278-.02.196.757.062.428-.222.381-.758.056-.284-.314-.217-.407.294-.211-.206-.304-.088-.355.083-.181-.067-.092-.202-.752-.129-.443-.026-.613-.315-.175-.294-.067-.536-.124.02-.474-.113-.329.139-.248-.062-.417.145-.499.041-.521.196-.092-.119-.382.3.155.392.026.253.268.052.18-.083-.031.33-.283.088-.011.294.248-.165.18.176-.5.294-.298-.005-.196.149-.108.217.061.119-.134.309-.164.119-.346.041-.242-.294.078-.475-.299-.258.046-.232.186-.124-.181-.268-.896.325-.056.098-.284-.057-.252.16-.016-.273-.844.258-.072.309-.376.315-.407-.077-.047.206-.206.222-.226-.144-.031.237-.114.072.387 1.017.226.263.005.625-.082.227.335.97-1.499-.247-.046.418-.206.031-.443-.486-.268.047-.139.299-.665.687-.165.087-.566-.118-.582.511-.613.397-.701-.005-.309-.619-.108-.037-.237.222-.314.124.149.227-.365.021-.047-.243-.237.083-.134.15.057 1.145-.263.109-1.21.191-.268-.258-.015-.186-.325-.227-.34.149-.02-.278-.134-.212.077-.15-.221-.418-.412.166-.057.165-.268.149-.201.403-.103.046-.402-.201-.345.057-.226.341-.186.216-1.318.754.128.377-.304.154-.221-.005-.16.243-.19-.119.098-.289-.242-.098-.134.196-.335.026.005.325.087.46-.159.021-.067.221.103.191.062.558.118.18.216.088-.118.356-.412-.129-.129-.118-.252.026-.464-.104-.18-.268-.17.046-.201.279.139.361-.17.274-.19.139-.031.3.247.139-.098.232-.247.041-.15.135v.278l.212.3-.279.201-.108.449.577.656-.144.144.366.454-.794.671-.118-.124-.469.475-.124-.134-.793.248-.195.031-1.396-1.306-1.067-.981-.293.217-.046.119-.397.289-.304.475-.299.242-1.823-1.404-.253-.175-.134.227-.69.944-.159-.061-.433-.315-1.391-1.069-1.535-1.151-1.05-.815-.783-.382.067.346.247.872.031.449.113.341-.257.449.458.686.113.614.381 1.296-2.163.568.438.939-2.977 1.254.299.645-.979.893.082.656-.793.025-1.01.971-.103.371-.427.909 1.226.495.515.284-.211.537.793.614-1.159 1.843.041.036-.881 1.424-.061-.01-1.417 2.266-.628 3.576-.155.991-.221 1.229.968.8-.448.598 2.642 1.698-.036.346-.077 1.641 1.066-.036.165-.005-.01 1.079-.103.284-.386.433-.536.212-.041-.346-.521-.098-.54.015-.186 1.951.397-.041.298.268.248-.113.345.149.309-.16.113.068.072.294-.401.113.025.196-.133.372-.655-.093.072-.165-.355.031-.041.165-.593-.082-1.936.077.077 2.421.046 2.193 1.345-.046.767-.966 1.618 1.182-.139.191-.361.191-.319.398-.469.268-.242.217-.247.676-.268.134-.495.098-.118.078.196.727-.217.279.108.15.376.021-.309.784.103.444-.468.15-.016.175-.618.542.294.258-.005.196-.371.057-.15.113.047.3.376.299.118.31-.123.217-.562.16-.144.469-.34-.093.33-1.249.098-.624-.912-.769-1.278-.356-.824.077-.571.015-.505-.098-.397-.216-.433-.32-.345-.346-.283-.449-.366-.253-.566-.227-.809.17-.417-.072-.469-.361-.87-1.182-.258-.284-.839-.506-1.257.33-.819.073-1.036.01-.252-.072-.34-.253-.36-.46-.567-.805-.283-.48-.078-.346-.067-.892.634-1.461.051-.382-.082-.268-.216-.326-.371-.19-.613-.61-.386-.237-.449-.124-.515.042-.195.077-.649.413-.551.119-.315-.021-.525-.222-.479-.568-.412-.681-.33-.361-.381-.264-.448-.098-.531-.232-.097-.119-.377-1.331-.164-.46-.66-.614-.242-.088-1.756-.34-1.144-.088-.51-.077-.19-.078-1.587-1.001-.674-.444-.376-.17-.747-.01-.335-.104" clip-rule="evenodd"/><path stroke="#000" stroke-linecap="round" stroke-linejoin="round" stroke-width=".2" d="m157.018 220.079 2.405-2.498.829-1.068.83-.692.201-.206 1.184-1.038.181-.222 1.262-1.156-1.314-1.62-1.88-1.182.186-.305-2.231-1.388-2.086-1.301.026-1.177-3.77-.062.056-3.267 3.302.072.5-.005 3.008-1.254.041-.134 1.921.506.433-1.688-.778-.211.464-1.771-1.185-.315.989-4.175 4.78.97.33.052.154-.501.448-.046-.123-.594-.088-.098.015-.34.217-2.411.35-.155-.098-.562 2.091-.098.608-.036.299-1.992.077-.713.402-2.296.263-1.332-.964-.227.495-1.791-1.463-.454-.124.34-1.833-.567-.943-.238-.232-1.564-.061-.289.113-.077-.242-.635-.17-.108.211-.217.221-.057.232-.253-.005-.278-.237-.129-.427-.372-.443-2.508-.098-.475-1.298-.976-.768-.712-.025-.072.082-1.053 1.844-2.116.046-.764-.056-.413-.217-.005-.02-.248-.933-.722-.288-.909-.582-1.703-1.123.124-.464-3.602-.319-2.447-.149-1.259-.562-.114-.082.114h-.392l-.005.351-3.405-.764-1.061.903-1.802-1.621-.67-.536-.067.066-.912-.853.325-.237.752.012.268-.447-.005-.142-.217-.405-.721.115-.057-.268-.484.2.124-.291-.072-.26-.124-.04-.154-.833-.217-.312.176-.279.005-.207-.217-.098-.587-.068-.391.164-.299.293-.618.194-.417.253-.402.003-.5.122-.154-.078-.005-.247-.309-.066-.407.386-.217.037-.206-.24-.468.014-.428-.241.155-.293-.196-.171.02-.233-.185-.053.067-.228.412-.2-.155-.271-.391-.277-.33.024-.18-.086-.268-.397.036-.178.196-.105-.124-.28.175-.122-.026-.321.047-.319.283.076.124-.155-.227-.117-.139-.217-.252-.662.118-.291-.01-.204.474-.427.149.266.943-.057-.083-.519.119-1.665-.016-.211-.355-.503-.211-.16.046-.198-.391.037-.098.134-.824.335-.16.098-.118-.294.118-.13-.149-.153-.119.208-.196.009-.077.279-.443-.003-.216-.083v-.394l-.062-.217.067-.209-.309-.462-.247-.071-.407-.329.02-.389-.288-.101-.459-.385-.236-.026-.304.181-.629-.924-.165-.292-.37.257-1.247-.148-.036-.24-.711-.273-.247-.127-.242.086-.464-.583-.134-.338.33-.089-.355-2.856 1.251.098.139-.455.103-.672.397-2.25.237.146.345.072.134-.357.36-.143.067.159.212-.047.195.175 1.206-.531.535.565.304.364.232.308.479.442.458.033.526-.224.474-.082.499-.409.397-.643.948-1.585.026-4.087 1.426-.094 1.206-.05-.057-1.132 1.844-.098.088-.216.479-.038.061-.392-.103-1.156.304-.025-.19-2.376.577.068.247.11 1.21.02 1.329-.375.484-.488 1.401-1.488 1.546.349-.098-.349.154-.731.315-.192-.201-.828-.608.107-.129-.395.098-.197-.026-.326-.355-.87-2.303.659-.319-.969.52-.242.216-.116.593-.559 1.437-.624.02-.438-.046-.29-.144-.255.566-.165.109.282.504-.378.211.922.536-.107-.031.345 1.623.171 1.638.297.17.197.649-.265.437-.12.309.064 1.206.134.077-.153.464-.53-.103-.118.031-1.148.149.05 1.257.039.072-.237.376-.719.53-.805.222-.415-.052-.073-.674-.32-.242-1.004-.85-.06.005-1.062-.309-.173-.011-.276.176-.096.005-.167 1.808-.392.195.504.51-.257.644-.116.206-.316.448-.137.212-.541.041-.332.912.093 1.632.104.505-.993.237-.415.747-.013-.067-2.212 1.911.017.716.043.031.572.747-.017-.036-1.05 1.926-.264.721-.241.17-.095.572.454.046-.413.067-.111.361-.022-.232-.503-.16-.744.284-.008.041-.908.366.006.031-.399.226.031.026-2.437.021-2.445.747-.478.262-.198.727-.637v-.05l-1.164-1.415-.464-.61.242-.496-.252-.59.695-.5.376.056.551.147.587.045.464-.068.567-.37 1.097-.089-.036-.638.577-.005-.201-1.13-.356-.813-.608-.851-.293-.236-.222-.256-.216-.41-.618.105-.371-.737-.124-.805.284-.02.602-.323 1.958-.247-.047-.887-.103-.936-.098-.525-1.025.023-1.55.193-.072-1.334-.062-1.742h-1.149l-.175-.827-.092-.69-.253-.738-.587-1.41-.113-.085-1.386-.697.129-1.155.015-1.427-1.684-.078-.603-.468-.932-.787-.804-.586-.705.876-.484-.724-.114.017-.535-.926-.021-.14-.515-.606-.247.207-1.175.806-1.097-.08-.309-.927-.134-.1-.499-.115-.309.02-.232.621-.84-.45-.247-.254-.108-.333-.355-.323-.243-.048-.504-.309-.026-.188.165-.099.056-.31.248-.167.309-.107-.052-.267-.242-.39-.736-.425-.072-.01-.207.463-.005.347-.314.594-.278.015-.149-.407-.258.313-.371-.023-.824-.206.103-.248.402-.27.257-.066.34-.527.299-.254-.226-.627-.114-.13-.402-.096.083-.308.118-.134-.015-.248.191-.43-.495-.182.283-.328.134.031.248-.604.906-.298 1.36-.348.819-.253-.191-.529.196-.34.412-1.206-.118-.308.314-.266-.041-.611 1.215-.007 2.328-1.228.927.062v-.65l-.612-.347-.104-.098.083-1.057.237-2.146.669-3.535 1.031-1.995.69-1.466.216-.39.69-.8.443-1.41.325-1.153-.665-.217 1.154-1.336.289.203.638-1.395.155-1.605.206-.534.582-.371.515-.211 1.01-.337-.315-.595-.19-.159.082-.13-.087-.346.061-.372.201-.283.809-.318-.242-.205-.52-.583.973-1.014.34.26.701.038-.258.74 1.314.108-.175-.554.164-.594.788.02.052-1.033.036-.056.639.04 1.875.072.231.334.088.227.288.342.237.202.134-.084.531-.082 1.272-.043-.067-.756.742-.057.005-.272 1.128-.088.366.196.046-.199-.02-.434.468.049-.026-.677.809.35.397.16.298.655-.185.196.731.874 1.53.933.108.283-.17.494-.767 1.7.01.072 3.508 3.102.984.809.216.232.587-.23 1.597.21 2.225.32 1.041.526-.181.18-.499.656.273.136-.093.485.314.441.206.448.175.239-.237.204-.005.423-.062.144-.376.05-.128.123.036.488.098.262.448.492.18.003.397.27-.047.263.139.05.242-.115.309-.271.047-.151-.129-.209-.345-.105-.093-.3.371-.192.155.281.303.089.124-.051.371.1.041.182.232.098.407.3.438.587.252.168-.206.253-.01.406.175.166.036.376.309-.32-.088-.287-.278-.159.32-.312.7 1.228-.134.335-.551 1.929-.263.52-.494-.049-.665.968-1.921 2.877.18.69.753.092-.495 1.607-.17.642.901-.014.067.13.129 1.572.598.114-.026 1.07.278-.003.206.098.932.704.485.23.072.213.288.312.16-.06.19-.303.278-.296.073-.31.376.082.432-.054.237.312.592.401.737.354.242.039.18.153.34.087.345-.03.34.59.196.225.227-.01.505-.203.2-.215.325.072-.02.149.17.205.18.043.309-.5.18-.007.283.185-.123.234.288.18.278-.047.248.065-.217-.405.108-.31.294-.161.124-.313-.093-.09.211-.613.005-.171.227-.32.226-.149-.005-.16-.262-.26.309-.047.216.25.201.082-.448.558.031 1.216.16.848.097.276.16.079.294-.267.221-.028.155.097.278.017.17-.177.391-.046.078-.241-.165-.262.046-.59.196-.17-.253-.44-.247-.073.206-.574.685-.674-.314-.393-.103-.825-.041-.679.062-.169.443-.146.391-.248.165.133.68.12.211-.595.309-.345.711-.307 1.262.34-.083.706-.716.976.577.046.237-.264.114.19 1.179-.155.026-.166 1.344-.732 1.664-.2-.216-.636.659-.108 1.334.02.469.2.396.388.845-.418.386-.769.104-.117.453.377.154.054.855.071.721.093 2.427.278.839.25 1.061.285 1.339.38-.628 2.325.031.725.309 4.455 1.035-.147.011.246.551.14.067 1.514.443.104.144.976-2.169 1.574-.278.941-.922 1-.443.503-.633.654-.727.789-.669 1.249-.309.614-.866 1.61-.273.339-.731 1.017-.458.6-.376.299-.227.244.531 2.143.221.945.665-.152.087.193.18.028.042.236-.274.569-.298.23-.129.18-.211.1-.778.065.015.449.165.247.361.117.52-.285.52.538.325.144 1.169 1.483 1.633-.421.252.457 1.88 3.564.639.828 1.442 1.286.727.448.772-.576.232.192 1.262.69 1.53.804.602-.476.32-.331.077-.281.551-.42 2.596.296-.082.523-.794.177.139.803-.376.098-.484.029.011.145.267.281.072.261.325.15.556.424.304.313.088.199.314.214.453.048.927-.28.974.167.86.188 1.097.775 1.175-.541.546-.529.293.09 1.736.686.417.775 1.581.599 1.036.41-.217.59.629.043.062.105.484.13.252.003.098.218.263.164.108.16-.113.644-.191.404-.046.568.123.602.098.268.397.469-.242.349-.474.129-.253-.296-.386.206-.211.349-.258.238.248.333-.268.131.18.134.252.368.547.342-.541.93.381 1.128.252.243-.304.698-.247.378-.01.45-.15.332.346.335.031.501.206.429-.191.173 1.236 1.382.67-.05.499.021 1.814.348.267 1.368.15.875-.34.029-.016.289-.293.022-.304.184-.227-.372-.68.331.377.414.793.127-.031.087-1.087 1.932.232-.011.324.266 1.149.623.098.16.386.052.566.016-.005-.182.66.037.633-.026.675-.082.809.142 1.421.332.505.199 1.123 2.173 1.107-.094 1.566-.099 1.283-.112-.016-.282.402-.068.474-.018 2.081-.177.17-.233.464-.017.092.973-.917.298.145.94.468.596.366.418.716.992.149.039.14.476.365.716.273.869.263.966.561 1.853 1.237 2.797.551 1.349-.211.171-.351.163-.314.074-.041.344-.253.03-2.158.239-.68.063-.937.124-1.53.13-.134.086-.18.306-.052.32.078.236.175.208 1.715.408-.273 1.139.68.14-.433 1.715 1.901.471-.021.133 2.983.71.062.331.412.783-.155.694-.613 2.404-1.602-.375-.087.401-.922-.217-1.041-.272-1.828-.439-.485-.131-1.622-.379-1.504-.371-1.35-.306-2.111-.499-.258 1.041.046.016-.71 3.069-.078.142-.474 2.05 2.638.625.628.649.175-.242.32.089.319-.116-.088.416-.185.599-.32 1.374-.087.441-.567 2.434-.072.28 2.014.702.443.207-.17.111-.257.405-1.69 2.291-.582.826-.659.81-1.679 1.982-.093.191-2.884 3.396-.299.372.772 2.813-.448.531-.335.088.134.273-.386.171.103.263-.108.315-.258.026-.005.433-.103.413-1.107-.666.36-.872-1.787-1.048-2.138-.185-.164.335-3.725.015-1.313-.314-2.632-.594-.886.114-.531.098-.715.041-.217-.16-.402.201-.257-.124-.376-.345-.304-.517-.088-.283-.164-.238-.031-.222.036-.485-1.092-.573-2.256-1.218-.109-.067-.834.681-.237.14-.438.924.423.18-.433.8-.407.687.113.077-.345.594-.417-.212-.525 1.729-.227.583-.412 1.182.01.077-.422 1.229-.634 1.961.124.454.438 1.863.489 1.895.484 2.002.119.423 1.05 4.274.114.516.391 1.399-.412.247-.134-.082.17-.47-.252-.062-.093.238-.17-.067-.098-.3.144-.103-.108-.232.124-.134-.428-.537-.334-.434-.392-.335-.422.134-.335-.857-.247-.093-.34-.314-.16-.269-.031-.217-.206-.129-.309-.072-.397.052-.195-.171-.057-.227.098-.366-.206-.207-.067.444-.263.021-.098-.201.175-.099.098-.381-.108-.109-.479.398.021-.331-.366-.005-.015-.377-1.108 1.807-.273-.429-.232-.201-.118.093-.278.506-.222.65-.123 1.672v.356l-.088.537-.391.078-.201.139-.407-.284-.134.423-.335.346-.283.196-.119-.108-.443.041-.242-.206-.505-.816-1.262-.469.145-.217-.248-.305.047-.232.257-.325.33-.083.144-.18.242-.036.309.278-.02.196.757.062.428-.222.381-.758.056-.284-.314-.217-.407.294-.211-.206-.304-.088-.355.083-.181-.067-.092-.202-.752-.129-.443-.026-.613-.315-.175-.294-.067-.536-.124.02-.474-.113-.329.139-.248-.062-.417.145-.499.041-.521.196-.092-.119-.382.3.155.392.026.253.268.052.18-.083-.031.33-.283.088-.011.294.248-.165.18.176-.5.294-.298-.005-.196.149-.108.217.061.119-.134.309-.164.119-.346.041-.242-.294.078-.475-.299-.258.046-.232.186-.124-.181-.268-.896.325-.056.098-.284-.057-.252.16-.016-.273-.844.258-.072.309-.376.315-.407-.077-.047.206-.206.222-.226-.144-.031.237-.114.072.387 1.017.226.263.005.625-.082.227.335.97-1.499-.247-.046.418-.206.031-.443-.486-.268.047-.139.299-.665.687-.165.087-.566-.118-.582.511-.613.397-.701-.005-.309-.619-.108-.037-.237.222-.314.124.149.227-.365.021-.047-.243-.237.083-.134.15.057 1.145-.263.109-1.21.191-.268-.258-.015-.186-.325-.227-.34.149-.02-.278-.134-.212.077-.15-.221-.418-.412.166-.057.165-.268.149-.201.403-.103.046-.402-.201-.345.057-.226.341-.186.216-1.318.754.128.377-.304.154-.221-.005-.16.243-.19-.119.098-.289-.242-.098-.134.196-.335.026.005.325.087.46-.159.021-.067.221.103.191.062.558.118.18.216.088-.118.356-.412-.129-.129-.118-.252.026-.464-.104-.18-.268-.17.046-.201.279.139.361-.17.274-.19.139-.031.3.247.139-.098.232-.247.041-.15.135v.278l.212.3-.279.201-.108.449.577.656-.144.144.366.454-.794.671-.118-.124-.469.475-.124-.134-.793.248-.195.031-1.396-1.306-1.067-.981-.293.217-.046.119-.397.289-.304.475-.299.242-1.823-1.404-.253-.175-.134.227-.69.944-.159-.061-.433-.315-1.391-1.069-1.535-1.151-1.05-.815-.783-.382.067.346.247.872.031.449.113.341-.257.449.458.686.113.614.381 1.296-2.163.568.438.939-2.977 1.254.299.645-.979.893.082.656-.793.025-1.01.971-.103.371-.427.909 1.226.495.515.284-.211.537.793.614-1.159 1.843.041.036-.881 1.424-.061-.01-1.417 2.266-.628 3.576-.155.991-.221 1.229.968.8-.448.598 2.642 1.698-.036.346-.077 1.641 1.066-.036.165-.005-.01 1.079-.103.284-.386.433-.536.212-.041-.346-.521-.098-.54.015-.186 1.951.397-.041.298.268.248-.113.345.149.309-.16.113.068.072.294-.401.113.025.196-.133.372-.655-.093.072-.165-.355.031-.041.165-.593-.082-1.936.077.077 2.421.046 2.193 1.345-.046.767-.966 1.618 1.182-.139.191-.361.191-.319.398-.469.268-.242.217-.247.676-.268.134-.495.098-.118.078.196.727-.217.279.108.15.376.021-.309.784.103.444-.468.15-.016.175-.618.542.294.258-.005.196-.371.057-.15.113.047.3.376.299.118.31-.123.217-.562.16-.144.469-.34-.093.33-1.249.098-.624-.912-.769-1.278-.356-.824.077-.571.015-.505-.098-.397-.216-.433-.32-.345-.346-.283-.449-.366-.253-.566-.227-.809.17-.417-.072-.469-.361-.87-1.182-.258-.284-.839-.506-1.257.33-.819.073-1.036.01-.252-.072-.34-.253-.36-.46-.567-.805-.283-.48-.078-.346-.067-.892.634-1.461.051-.382-.082-.268-.216-.326-.371-.19-.613-.61-.386-.237-.449-.124-.515.042-.195.077-.649.413-.551.119-.315-.021-.525-.222-.479-.568-.412-.681-.33-.361-.381-.264-.448-.098-.531-.232-.097-.119-.377-1.331-.164-.46-.66-.614-.242-.088-1.756-.34-1.144-.088-.51-.077-.19-.078-1.587-1.001-.674-.444-.376-.17-.747-.01-.335-.104"/><path id="Миргородський" fill="#C8C6C6" fill-rule="evenodd" d="m137.178 138.48-.134-.341-.366-.342-.561-.163-2.617-.586-.927-.046-.206-.325-.062-.381.103-.184-.02-.46-.402-.461-.809-2.821-.731-2.436-.458-.176-2.998-1.092-.52-.121-1.592-.299-.788-.105-.407-.184-.072-.193.026-.344-.103-.17-.201-.029-.464-.226-.273.035-.35.164-.474-.235-1.555-.857-.66-.348.51-.504-.407-.137.593-1.087.422-.047.067-.313-.062-.393.448-.383.242-.446-.484-.826.881-1.23-1.241-.987.036-2.386-.052-.035.041-.67.021-1.514-.077-.082 1.158-1.746 2.143-3.171.639-.931-.216-1.701-.325-2.241v-.101l1.993-.844-.231-.603 1.679-.603-.036-1.983-.067-2.767-.211.019-1.139-.005-.036-.171.15-.993.092-.544-1.36-.543-.741-.355-1.813-.963-1.978-1.023-.732-.172-.396-.056-1.154.163-.474-.214-.18.102.108.228-.026.215-.221.076-.088.403-.598-.196-.18-.252-.433.057-.236.146-.33.01-.201-.194-.314-.688.108-.481-.118-.183.17-.18-.521-.522-2.601-2.457-.664-.184-1.963-.402-.139-1.223.505-.065.53-.518.088-.26-.17-.334-.299-.04.021-.29-.392-.04-.062-.136.098-.753.16-.244.278.16.047-.45.226.154.046-.217.181-.075-.232-.254-.206-.078-.149-.263.036-.288.86-1.603-.577-.599-.567-.477-.86-.645-1.324-.952-.582-.314-1.153-.635-.335-.408-1.061-.853.134-.436-.449-.394.052-.194-.469-.087-.015-.071-.675-.093-.036.06-.721-.145-.026-.197.309.063.536-.061h.381l-.046-2.022.005-.447 2.436-.019.015-.355.134-.238-.077-.502.067-.199.201-.082 1.313-.374.448-.045 1.015.188.629-.142.54-1.66.783-1.947.34-.906.042-.661-.212-.591.32-.431.35-.339.273-.33.345-.732.191-.303.134-.446-.469-.5-.85.39-.319-1.136-.448-1.434-.212-.443.85-.22.232-1.283.263-2.252.046-.626-1.009.098-.356.008-.433.606-.267-.157-.026-.158.587-.774.257-.135-2.281-2.334-.299.014-.211-.394-.237.085-.119-.154.211-.802-.123-.098-.01-.41.283-.26.062-.164-.345-.338.082-.163-.443-.652-.361-.255-.036-.374-.242-.372-.206-.134-.345-.035-.52.302h-.216l-.026.465-.309.276-.227-.124-.242.082-.036.23.082.161-.175.186-.33.17-.427-.138-.525.39-.217-.047-.355.377-.582.84-.052.249.304.365.01.338-.144.205-.051.246-.212.143-.355.505.031.224-.17.029-.139.601.139.181-.129.254-.273.082-.134.309.011.29-.176.271-.576-.07-.696-.02-.051.274-.227.106-.18-.08.195-.312.119-.373-1.777-.37-.258-.267.31-.207.015-.464.18-.35-.036-.287-.227-.178-.334-.03-.124-.275-.031-.288-.294-.397-.19-.05-.443.253-.17.032-.232-.25-.469-.18-.314-.486-.232-.135-.18-.436-.103-.078-.922-.384-1.963-.79.737-2.128-.762-.358.046-.26.129-1.359-.263-.021.083-1.666-.536-1.316-.057-.232-.309-.2-.417.258-.536.145-.226-.083-.16-.228-.046-.398.18-1.583.438-.103.072-.256.33-.056.04-.467-.473-1.148.227-.624-.392-.511.19-.282-.437-.493-.273.184-.144-.117-.582.378-.526.404-.654-1.504.263-.81-.057-.281-.16-.215-.01-.25-.144-.245.005-.545-.288-.157.005-.122-.428-1.22-.293-.068-.588-.487-.309.262-.582.104.041-.293-.412-.286.33-.781-.819-.101-.391.098-.557-.162-.401.1-.093-.25.15-.683.51-1.333.174-.34-.242-.354.052-.143.412-.27.206-.229-.227-.188-.252.033-.186-.222.016-.586-.36.08.18.281-.062.13-.36.027-.264-.267-.072-.173.01-.429.227-.075-.108-.234-.443-.222-.139-.226-.216-.124-.278-.023-.057-.297-.227-.089-1.942.163.062-.506.098-.107.407-1.06.494-.846.377-.695-.227-.064-.211-.224-.32-.11-.396-.231-.52-.127-.135-.12.109-.315.257-.01.103-1.04-.809.091-.571.028-.639.421-.505.22-.886.088-.952-.91.21-.211-.72-.644-.387.166-.232-.167-.056-.254-.206-.385-.17-.192 1.411-1.239.185.077.655.407.468-.25.402-.588-.01-.372-.247-.296.298-.707.546-.05.16-.382-.402-.735.093-.111-.335-.721.175-.21.567.15.608.066.144.07.165-.513 1.174.51 1.025.399-.268-1.296.742-1.187.283-.522-.262-.298.072-.418-.01-.386.638-.254.212.209.422.017.18-.114.211.064.263-.28.263-.379.88-1.35.13.019.355-.355.401.29.232-.191 2.478.233 1.287 1.55.093.026.572-.487.386-.396.227.017.314.398.901-.32.52-1.393 1.154.1.361-.12.597.096.098.068.268.717.35.382.629.61 1.05-.033.006.085.731.083.572.454.654-1.063.314.504.423-.343-.258-.392-.005-.263.433-.528.067-.64.278-.86-.175-.283.118-.334-.067-.35.201-.276.629-.268.144-.328.19-.167.217-.025.164-.2.423.13V1.66l.134-.298.402.192.401-.467.747.45-.129.6.042.167.345.148.407-.029.618 1.116 1.452.285.098 1.667 4.682-.085.088 3.143.881-.017 1.679-.286.52.031.247.2-.098.16.098.666.5.034-.077 1.17 1.231.95.298-.196-.041-.236-.19-.495-.15-.163.155-.135 2.498-1.03 1.066.277.227.282-.114.753.644.375.067-.212.211-.123.103-.328.232-.322.021-.377.185-.31.35-.02.299.087.253-.085.164.212.036.238.176.242.252.158.02.383.603.288.309.108.052-.174.551.18.196-.289.437-.343-.031-.59 1.288-.047.742-.005.056-.295.67-.35.144.017.711.532.556-.22.387.207.36.076 1.427.394.031.515 1.133.368.556.13 4.271.946 1.854.423.937.198-.077.34.201.059.469.26.813.577 1.015-.065 3.441-.247-.005-.41.309-.35.01-.203-.227-.433v-.851l1.551-.04 2.034-.575-.175-.255-.211-.532 1.159-.612.453.235.103-.145.428-.924-.417-.649-1.154-.385-.696-.208-.638.123-.248-.601-.144-.457.52-.33.212-.076.128.375.088.013.989-.351.175-.087.464-.022-.268-.54.597-.248.989-.363 1.139-.529.561-.214.077.298.191-.018.984-.308.355.823.005.392.556.408.206.524h.201l.51.43.129-.174.216-.065.31-.531-.062-.38.252.192 2.606-3.474 2.056 1.573 2.508 1.947-.139.183.788.616.02.416.207.084-.088.221.917.456-.175.213-.134.327.092.384.217.089.252-.726.108-.107.521-.018.52-.41.293-.161.752.68.325-.526-.149-.164-.577-.317.036-.134.448-.282.299-.13.262-.034.469.12-.026.215.113.233.206.17.155-.135.927.18.119.197.273.023.556.408.366.144-.711 1.869-.469-.164-.118.173-.186-.089-.263.346.31.022 1.014.955.515-.134.16.154.376-.162.17-.64.438-.9.082-.707.165-1.474 1.813-.474 1.046-.853.237-.114.159-.202 1.345-.37 1.195.048.515.195.824-.112.335-.268.932-.962.788.98.149-.086 1.015.425.299-.047.129.491.118.212.165 1.369.319 2.327.026.104-.226 2.04-.222 2.11.052.707.129 1.216.159.624.263.27-.077.18.834.607.495-.088.391.797.227.612.664 1.125 2.143 1.528 1.87 1.155.329.295.392.05.937.953.592.568.474.328.248-.248.144.107.211.36.067.398 1.411.638-.597.58-.587.517-.809-.35.026.677-.469-.05.021.435-.047.199-.365-.196-1.128.087-.006.273-.741.057.067.756-1.273.043-.53.082-.134.083-.237-.201-.288-.342-.088-.227-.232-.333-1.875-.074-.638-.04-.036.057-.052 1.033-.788-.02-.165.594.175.554-1.313-.108.257-.74-.7-.039-.34-.259-.974 1.014.521.583.242.205-.809.318-.201.283-.062.372.088.345-.083.131.191.16.314.594-1.009.337-.515.21-.582.372-.206.534-.155 1.605-.639 1.395-.288-.203-1.154 1.336.664.217-.324 1.152-.443 1.41-.69.8-.216.391-.691 1.466-1.03 1.995-.67 3.535-.236 2.146-.083 1.057.103.098.613.347v.65l-.927-.062-2.328 1.228-1.216.007.041.611-.314.266.119.308-.412 1.205-.196.341.19.529-.818.253-1.36.348-.907.298-.247.604-.134-.03-.283.327.494.183-.19.429.015.248-.118.134-.083.308.402.096.113.13.227.627-.299.254-.34.527-.257.066-.402.27-.103.248.824.206.371.023.257-.313.15.407.278-.015.314-.594.005-.347.206-.463.072.01.737.425.242.39.052.268-.31.106-.247.167-.056.31-.165.099.026.188.504.31.243.047.355.323.108.333.247.255.84.45.232-.621.309-.02.499.113.134.101.309.926 1.097.08 1.175-.805.247-.207.515.606.021.14.535.926.114-.017.484.724.705-.876.804.586.932.787.603.468 1.684.078-.015 1.427-.129 1.155 1.386.697.113.085.587 1.41.253.739.092.69.175.826h1.149l.062 1.743.072 1.333 1.55-.193 1.025-.023.098.525.103.936.047.887-1.958.247-.602.323-.284.02.124.805.371.738.618-.105.216.409.222.257.293.235.608.85.356.815.2 1.13-.576.004.036.638-1.097.089-.567.37-.464.068-.587-.045-.551-.147-.376-.056-.695.501.252.59-.242.495.464.61 1.164 1.415v.05l-.727.637-.262.198-.747.478-.021 2.445-.026 2.437-.226-.03-.031.398-.366-.006-.041.908-.284.008.16.744.232.503-.361.022-.067.111-.046.413-.572-.453-.17.095-.721.24-1.926.264.036 1.051-.747.017-.031-.572-.716-.044-1.911-.017.067 2.212-.747.013-.237.416-.505.992-1.632-.104-.912-.092-.041.331-.212.541-.448.138-.206.315-.644.117-.51.256-.195-.504-1.808.393-.005.166-.175.096.01.276.309.173-.005 1.062.85.06.242 1.004.674.32.052.073-.222.415-.53.805-.376.719-.072.237-1.257-.039-.149-.05-.031 1.148.103.119-.464.529-.077.153-1.206-.134-.309-.064-.437.12-.649.265-.17-.197-1.638-.297-1.623-.17.031-.346-.536.107-.211-.922-.504.379-.109-.283-.566.166.144.254.046.29-.02.439-1.437.624-.593.558-.216.116-.52.242.319.97 2.303-.66.355.87.026.326-.098.198.129.394.608-.107.201.828-.315.192-.154.731.098.35-1.546-.349-1.401 1.488-.484.487-1.329.376-1.21-.021-.247-.11-.577-.068.19 2.376-.304.025.103 1.156-.061.392-.479.038-.088.216-1.844.098.057 1.132-1.206.05-1.426.094-.026 4.087-.948 1.585-.397.643-.499.409-.474.082-.526.224-.458-.033-.479-.442-.232-.308-.304-.364-.535-.565-1.206.531-.195-.175-.212.047-.066-.159-.361.143-.134.357-.345-.072-.237-.146-.397 2.25-.103.672-.139.455-1.251-.098.355 2.856-.33.089" clip-rule="evenodd"/><path stroke="#000" stroke-linecap="round" stroke-linejoin="round" stroke-width=".2" d="m137.178 138.48-.134-.341-.366-.342-.561-.163-2.617-.586-.927-.046-.206-.325-.062-.381.103-.184-.02-.46-.402-.461-.809-2.821-.731-2.436-.458-.176-2.998-1.092-.52-.121-1.592-.299-.788-.105-.407-.184-.072-.193.026-.344-.103-.17-.201-.029-.464-.226-.273.035-.35.164-.474-.235-1.555-.857-.66-.348.51-.504-.407-.137.593-1.087.422-.047.067-.313-.062-.393.448-.383.242-.446-.484-.826.881-1.23-1.241-.987.036-2.386-.052-.035.041-.67.021-1.514-.077-.082 1.158-1.746 2.143-3.171.639-.931-.216-1.701-.325-2.241v-.101l1.993-.844-.231-.603 1.679-.603-.036-1.983-.067-2.767-.211.019-1.139-.005-.036-.171.15-.993.092-.544-1.36-.543-.741-.355-1.813-.963-1.978-1.023-.732-.172-.396-.056-1.154.163-.474-.214-.18.102.108.228-.026.215-.221.076-.088.403-.598-.196-.18-.252-.433.057-.236.146-.33.01-.201-.194-.314-.688.108-.481-.118-.183.17-.18-.521-.522-2.601-2.457-.664-.184-1.963-.402-.139-1.223.505-.065.53-.518.088-.26-.17-.334-.299-.04.021-.29-.392-.04-.062-.136.098-.753.16-.244.278.16.047-.45.226.154.046-.217.181-.075-.232-.254-.206-.078-.149-.263.036-.288.86-1.603-.577-.599-.567-.477-.86-.645-1.324-.952-.582-.314-1.153-.635-.335-.408-1.061-.853.134-.436-.449-.394.052-.194-.469-.087-.015-.071-.675-.093-.036.06-.721-.145-.026-.197.309.063.536-.061h.381l-.046-2.022.005-.447 2.436-.019.015-.355.134-.238-.077-.502.067-.199.201-.082 1.313-.374.448-.045 1.015.188.629-.142.54-1.66.783-1.947.34-.906.042-.661-.212-.591.32-.431.35-.339.273-.33.345-.732.191-.303.134-.446-.469-.5-.85.39-.319-1.136-.448-1.434-.212-.443.85-.22.232-1.283.263-2.252.046-.626-1.009.098-.356.008-.433.606-.267-.157-.026-.158.587-.774.257-.135-2.281-2.334-.299.014-.211-.394-.237.085-.119-.154.211-.802-.123-.098-.01-.41.283-.26.062-.164-.345-.338.082-.163-.443-.652-.361-.255-.036-.374-.242-.372-.206-.134-.345-.035-.52.302h-.216l-.026.465-.309.276-.227-.124-.242.082-.036.23.082.161-.175.186-.33.17-.427-.138-.525.39-.217-.047-.355.377-.582.84-.052.249.304.365.01.338-.144.205-.051.246-.212.143-.355.505.031.224-.17.029-.139.601.139.181-.129.254-.273.082-.134.309.011.29-.176.271-.576-.07-.696-.02-.051.274-.227.106-.18-.08.195-.312.119-.373-1.777-.37-.258-.267.31-.207.015-.464.18-.35-.036-.287-.227-.178-.334-.03-.124-.275-.031-.288-.294-.397-.19-.05-.443.253-.17.032-.232-.25-.469-.18-.314-.486-.232-.135-.18-.436-.103-.078-.922-.384-1.963-.79.737-2.128-.762-.358.046-.26.129-1.359-.263-.021.083-1.666-.536-1.316-.057-.232-.309-.2-.417.258-.536.145-.226-.083-.16-.228-.046-.398.18-1.583.438-.103.072-.256.33-.056.04-.467-.473-1.148.227-.624-.392-.511.19-.282-.437-.493-.273.184-.144-.117-.582.378-.526.404-.654-1.504.263-.81-.057-.281-.16-.215-.01-.25-.144-.245.005-.545-.288-.157.005-.122-.428-1.22-.293-.068-.588-.487-.309.262-.582.104.041-.293-.412-.286.33-.781-.819-.101-.391.098-.557-.162-.401.1-.093-.25.15-.683.51-1.333.174-.34-.242-.354.052-.143.412-.27.206-.229-.227-.188-.252.033-.186-.222.016-.586-.36.08.18.281-.062.13-.36.027-.264-.267-.072-.173.01-.429.227-.075-.108-.234-.443-.222-.139-.226-.216-.124-.278-.023-.057-.297-.227-.089-1.942.163.062-.506.098-.107.407-1.06.494-.846.377-.695-.227-.064-.211-.224-.32-.11-.396-.231-.52-.127-.135-.12.109-.315.257-.01.103-1.04-.809.091-.571.028-.639.421-.505.22-.886.088-.952-.91.21-.211-.72-.644-.387.166-.232-.167-.056-.254-.206-.385-.17-.192 1.411-1.239.185.077.655.407.468-.25.402-.588-.01-.372-.247-.296.298-.707.546-.05.16-.382-.402-.735.093-.111-.335-.721.175-.21.567.15.608.066.144.07.165-.513 1.174.51 1.025.399-.268-1.296.742-1.187.283-.522-.262-.298.072-.418-.01-.386.638-.254.212.209.422.017.18-.114.211.064.263-.28.263-.379.88-1.35.13.019.355-.355.401.29.232-.191 2.478.233 1.287 1.55.093.026.572-.487.386-.396.227.017.314.398.901-.32.52-1.393 1.154.1.361-.12.597.096.098.068.268.717.35.382.629.61 1.05-.033.006.085.731.083.572.454.654-1.063.314.504.423-.343-.258-.392-.005-.263.433-.528.067-.64.278-.86-.175-.283.118-.334-.067-.35.201-.276.629-.268.144-.328.19-.167.217-.025.164-.2.423.13V1.66l.134-.298.402.192.401-.467.747.45-.129.6.042.167.345.148.407-.029.618 1.116 1.452.285.098 1.667 4.682-.085.088 3.143.881-.017 1.679-.286.52.031.247.2-.098.16.098.666.5.034-.077 1.17 1.231.95.298-.196-.041-.236-.19-.495-.15-.163.155-.135 2.498-1.03 1.066.277.227.282-.114.753.644.375.067-.212.211-.123.103-.328.232-.322.021-.377.185-.31.35-.02.299.087.253-.085.164.212.036.238.176.242.252.158.02.383.603.288.309.108.052-.174.551.18.196-.289.437-.343-.031-.59 1.288-.047.742-.005.056-.295.67-.35.144.017.711.532.556-.22.387.207.36.076 1.427.394.031.515 1.133.368.556.13 4.271.946 1.854.423.937.198-.077.34.201.059.469.26.813.577 1.015-.065 3.441-.247-.005-.41.309-.35.01-.203-.227-.433v-.851l1.551-.04 2.034-.575-.175-.255-.211-.532 1.159-.612.453.235.103-.145.428-.924-.417-.649-1.154-.385-.696-.208-.638.123-.248-.601-.144-.457.52-.33.212-.076.128.375.088.013.989-.351.175-.087.464-.022-.268-.54.597-.248.989-.363 1.139-.529.561-.214.077.298.191-.018.984-.308.355.823.005.392.556.408.206.524h.201l.51.43.129-.174.216-.065.31-.531-.062-.38.252.192 2.606-3.474 2.056 1.573 2.508 1.947-.139.183.788.616.02.416.207.084-.088.221.917.456-.175.213-.134.327.092.384.217.089.252-.726.108-.107.521-.018.52-.41.293-.161.752.68.325-.526-.149-.164-.577-.317.036-.134.448-.282.299-.13.262-.034.469.12-.026.215.113.233.206.17.155-.135.927.18.119.197.273.023.556.408.366.144-.711 1.869-.469-.164-.118.173-.186-.089-.263.346.31.022 1.014.955.515-.134.16.154.376-.162.17-.64.438-.9.082-.707.165-1.474 1.813-.474 1.046-.853.237-.114.159-.202 1.345-.37 1.195.048.515.195.824-.112.335-.268.932-.962.788.98.149-.086 1.015.425.299-.047.129.491.118.212.165 1.369.319 2.327.026.104-.226 2.04-.222 2.11.052.707.129 1.216.159.624.263.27-.077.18.834.607.495-.088.391.797.227.612.664 1.125 2.143 1.528 1.87 1.155.329.295.392.05.937.953.592.568.474.328.248-.248.144.107.211.36.067.398 1.411.638-.597.58-.587.517-.809-.35.026.677-.469-.05.021.435-.047.199-.365-.196-1.128.087-.006.273-.741.057.067.756-1.273.043-.53.082-.134.083-.237-.201-.288-.342-.088-.227-.232-.333-1.875-.074-.638-.04-.036.057-.052 1.033-.788-.02-.165.594.175.554-1.313-.108.257-.74-.7-.039-.34-.259-.974 1.014.521.583.242.205-.809.318-.201.283-.062.372.088.345-.083.131.191.16.314.594-1.009.337-.515.21-.582.372-.206.534-.155 1.605-.639 1.395-.288-.203-1.154 1.336.664.217-.324 1.152-.443 1.41-.69.8-.216.391-.691 1.466-1.03 1.995-.67 3.535-.236 2.146-.083 1.057.103.098.613.347v.65l-.927-.062-2.328 1.228-1.216.007.041.611-.314.266.119.308-.412 1.205-.196.341.19.529-.818.253-1.36.348-.907.298-.247.604-.134-.03-.283.327.494.183-.19.429.015.248-.118.134-.083.308.402.096.113.13.227.627-.299.254-.34.527-.257.066-.402.27-.103.248.824.206.371.023.257-.313.15.407.278-.015.314-.594.005-.347.206-.463.072.01.737.425.242.39.052.268-.31.106-.247.167-.056.31-.165.099.026.188.504.31.243.047.355.323.108.333.247.255.84.45.232-.621.309-.02.499.113.134.101.309.926 1.097.08 1.175-.805.247-.207.515.606.021.14.535.926.114-.017.484.724.705-.876.804.586.932.787.603.468 1.684.078-.015 1.427-.129 1.155 1.386.697.113.085.587 1.41.253.739.092.69.175.826h1.149l.062 1.743.072 1.333 1.55-.193 1.025-.023.098.525.103.936.047.887-1.958.247-.602.323-.284.02.124.805.371.738.618-.105.216.409.222.257.293.235.608.85.356.815.2 1.13-.576.004.036.638-1.097.089-.567.37-.464.068-.587-.045-.551-.147-.376-.056-.695.501.252.59-.242.495.464.61 1.164 1.415v.05l-.727.637-.262.198-.747.478-.021 2.445-.026 2.437-.226-.03-.031.398-.366-.006-.041.908-.284.008.16.744.232.503-.361.022-.067.111-.046.413-.572-.453-.17.095-.721.24-1.926.264.036 1.051-.747.017-.031-.572-.716-.044-1.911-.017.067 2.212-.747.013-.237.416-.505.992-1.632-.104-.912-.092-.041.331-.212.541-.448.138-.206.315-.644.117-.51.256-.195-.504-1.808.393-.005.166-.175.096.01.276.309.173-.005 1.062.85.06.242 1.004.674.32.052.073-.222.415-.53.805-.376.719-.072.237-1.257-.039-.149-.05-.031 1.148.103.119-.464.529-.077.153-1.206-.134-.309-.064-.437.12-.649.265-.17-.197-1.638-.297-1.623-.17.031-.346-.536.107-.211-.922-.504.379-.109-.283-.566.166.144.254.046.29-.02.439-1.437.624-.593.558-.216.116-.52.242.319.97 2.303-.66.355.87.026.326-.098.198.129.394.608-.107.201.828-.315.192-.154.731.098.35-1.546-.349-1.401 1.488-.484.487-1.329.376-1.21-.021-.247-.11-.577-.068.19 2.376-.304.025.103 1.156-.061.392-.479.038-.088.216-1.844.098.057 1.132-1.206.05-1.426.094-.026 4.087-.948 1.585-.397.643-.499.409-.474.082-.526.224-.458-.033-.479-.442-.232-.308-.304-.364-.535-.565-1.206.531-.195-.175-.212.047-.066-.159-.361.143-.134.357-.345-.072-.237-.146-.397 2.25-.103.672-.139.455-1.251-.098.355 2.856-.33.089"/><path id="Кременчуцький" fill="#C8C6C6" fill-rule="evenodd" d="m98.94 194.255-.067.186-.335.01-.417-.397-.284-.176-.51-.186-.195.114v.661l-.078.18-.963.186-.21.232-.434.186-.406-.098-.366-.79-.325-.149-.087-.248.587-.563-.026-.185-.86-1.017-.242-.129-1.504.325-.32-.005-.396-.243-.175-.253-.062-.247.175-.775.01-.758-.082-.294-.474-.929.02-.155.582-.583.016-.238-.175-.428-.722-.924-.386-.588-.88-1.626-.243-.32-.643-.465-.258-.516-.005-.66.16-.326-1.602-1.342-.881.171-1.5-.465-.411-.077-.68.248-.366.093-.469.056-.587-.289-.731.222-.222-.026-.365-.289-.268-.325-.19-.635-.17-.273-.403-.403-.391-.294-.474-.072-.391.026-.407.129-.14-.031-.504-.403-.459-.568-.123-.753.15-.599.34-.681.02-.625-.186-.882-.231-.362-.716-.123-.48.02-.798.253-.412.362-.943.49-.448.082-.19.253-.623.016-2.277-.325-.927.02-.768-.279-.664-.784-.69-.351-.593-.232-.474-.32-.484-.222-.494-.036-.48.273-.38.031-.438-.051-.284-.145-.365-.077-.587.092-.243.253-.442.558-.371.273-.413.171-.51.098-.865.026-.396.087-.644.46-.263.098-.273-.103-.175-.243-.119-.305.067-.526-.267-.227-.48-.005-.927-1.074-.376-.201-.937-.021-.68-.48-.144-.026-2.133.336-.443-.083-.257.005-.247.104-.315.433-.33.212-.432.206-.366.077h-.303l-.505-.278-.417-.439-.176-.32-.396-.423-.325-.181-.628-.015-.417.165-.783.728-.366-.052-.129-.15-.19-.464-.376-1.636-.124-.408-.165-.201-1.04-.444-.088.005-.69-.268-.453-.083-.242-.144-.402-.372-.943-.805-1.658-1.223-.47-.233-.973-.206-.417-.181-.89-.552-2.72-2.302.386-.872.283-.227.386-.408-.139-.206-.376.129-.448.046-.53-.191-.124-.459.041-.248.165-.289 1.205-.872.083-.382.005-.723.087-.283.81-1.079.066-.325.469-1.134.041-1.296.144-.289.16-.148.443-.112.283-.209.047-.465.262-.326.263.238.309.09.325.221.309.479-.073.34.093.129.067.372.175.414.381.265.273.385.546.394.495.173.525.049.366-.166-.113-.255.108-.127.298.014v.257l.397.093.567.325.314.01.438.138.911.028.387.185.36.093.598.351.515.403.901.402.31.222.39.124.624.522.392.258.525.242.433.067.463-.02.325.046.432.331.253.092 1.107.026.654-.103 1.458-.129.386.072.48.026.468.134.783-.041.046-.268-.144-.465.052-.237-.15-.253-.026-.279.072-.16-.04-.423.164-.418-.124-.155-.376-.031-.324-.222-.18-.211-.366-.253-.381-.482-.345-.322-.33.004-.258.166-.664.14-.484-.227-.258-.301-.231-.416-.083-.273-.407-.601-.268-.556.119-.44-.01-.189.164-.439.067-.9-.067-.412-.026-.537-.185-.41-.381.079-.65-.09-.447-.206-.134.041-.031-.472-.381-.309-.196-.04-.041-.183.056-.413.201-.256.654-.371.057.046.556-.224.294-.371-.01-.211-.124-.24-.077-.509-.15-.153-.236-.516.061-.268-.02-.608.087-.275.01-.339.279-.595-.057-.155-.036-.899.088-.691.577-1.202.242-.16.474-.063 1.04.012 1.087-.013.38-.211.16-.306.145-.505 1.34-1.019.262-.073.15-.209.504-.477.093-.202.252-.006-.113-1.903.474-.038.17-.165-.15-.251-.386-.041.216-.257-.046-.091-.422-.183.025-.323.294-.107.108.238.366-.118-.268-.301.268-.064-.093-.41-.304.009.067-.34-.139-.062-.046-.34.231-.09-.133-.268.262-.317-.051-.315-.129-.238-.294.04.201-.488-.216-.168-.103-.245.479-.275.026-.143-.397-.633-1.298-1.139-1.06-.56-1.536-.732 1.02-1.229-.258-2.447-.38-.527-.243-.042.186-.495-.01-.22-.263-.431-.175-.503.108-.086.417.058.144-.274-.309-.09.263-.254.082-.173-.154-.18-.31.07-.303-.127-.01-.36-.268-.075-.052.176-.402.022-.252-.316.288-.239.335.063.191-.55-.175-.171.077-.277.155.087.144-.172-.366-.208.186-.354.278-.168-.036-.14-.227-.208.165-.286.458.115.145-.576-.361.028-.119-.119.418-.542.005-.194.226-.207.304-.081.186-.324-.119-.439.253.01.134-.317.273-.43.247-.566.087-.429.119-.258-.227-.51.124-.108-.165-.294.221-.06.042-.186.18-.03.046-.233-.165-.159-.303.137-.031-.912-.109-.712.304-.216h.17l.376-.46.217.293.195.124.392-.12-.083-.153.47-.095.164.14-.093.164.134.208.237-.047-.041-.245.464-.231.314.403.417-.342.278-.403.252.064.078-.279.391-.09.443-.466.448.084.32-.194.34.047.082-.353.124-.107.53-.05.469.129.798-.246.258-.589.04-.907-.576-.762-.448.079-.113-.151.16-.253.236.092.18-.249.062-.441-.154-.255.206-.468.278.104.175-.266.252.212.66.009.19-.155.13-.312.19.224.082-.214.35-.047.17.333.134-.196.19-.005.042-.338.154-.405-.33-.364.274-.402.134-.015.258.178.2-.046-.134-.241-.51-.222-.056-.201.55.116.15-.091-.005-.222-.314-.015.216-.25.52.16.062-.2.18-.076.485-.018-.134.282-.15.603.454-.024.03.298-.144.687.068.414-.073.276.397.284.129.239.165-.324.046-.283-.273-.639.16-.248 1.18.796.545-.164.737.11.649 1.785.18.18.041.211.51.292.114-.024 1.329.462.844.322 1.695.599-.464 1.256.557.463.103.005.448-.294.401-.474.248.107.468.412.47-.426.968.421.54-.663.85.83 1.02 1.042.072.042 1.035 1.077-.67.585.372.539.84 1.171 3.033 1.578 1.896.951 1.01-.835.931.791 1.041.463-1.138 1.586 1.205.851-.15.286-.865 1.514 1.638.984.665.348.422.175.186-.307 1.025.568.005-1.203.185.04.005-.782.129-.466 2.55.389.185.042 2.25-.055.29.211.144-.304.293.083.124.292.036.337-.165.686.335.417.391.2.366.551.747.403.16-.263.376.43.551-.272.056-.455h.165l-.036-.355.206.033.763.56.252.008.149.278.675-.147.067-1.051 2.369.096 1.237-.604.278.572 1.365-1.092.556.697.304.181 1.406.994 2.354.582.556.119-.062.401.181.105-.217.749-.195.378.252.493.695.068.928.277-.036.445 2.4.246.407.137-.51.504.659.348 1.556.857.474.235.35-.163.273-.036.463.227.201.028.103.17-.025.344.072.193.407.184.788.105 1.591.299.521.121 2.997 1.092.459.176.731 2.436.809 2.821.402.461.02.46-.103.184.062.381.206.325.927.047 2.617.585.561.163.366.342.134.341.134.338.463.582.242-.086.248.128.71.272.036.241 1.247.147.371-.257.165.292.628.924.304-.18.237.025.458.385.289.102-.021.388.407.33.247.07.31.463-.067.208.061.218v.393l.217.083.443.004.077-.28.196-.008.118-.208.15.152-.119.13.119.295.159-.098.824-.335.098-.135.392-.036-.047.197.212.16.355.503.015.211-.118 1.665.082.519-.942.058-.15-.267-.474.428.011.203-.119.292.252.661.14.217.226.117-.123.156-.284-.077-.046.32.026.32-.175.122.123.28-.195.105-.037.179.268.396.181.086.329-.023.392.276.154.272-.412.199-.067.228.186.053-.021.233.196.171-.155.293.428.241.469-.014.206.24.216-.037.407-.385.309.065.005.247.155.078.499-.122.402-.003.417-.253.618-.194.299-.293.392-.163.587.067.216.098-.005.207-.175.279.216.312.155.833.123.04.072.261-.123.29.484-.199.057.267.721-.115.216.405.005.142-.268.447-.752-.012-.324.237.911.854.067-.067.67.537 1.803 1.62 1.061-.903 3.405.764.005-.351h.391l.083-.113.561.113.15 1.259.319 2.447.463 3.602 1.123-.124.582 1.704.289.908.932.723.021.247.216.005.057.413-.047.764-1.844 2.116-.082 1.053.026.072.767.713 1.298.975.098.475.443 2.508.428.372.237.129.005.279-.232.252-.222.057-.211.217.17.108.242.635-.113.078.062.289.232 1.564.942.237 1.834.568.124-.341 1.462.454-.494 1.791.963.227-.263 1.332-.401 2.296-.078.713-.298 1.992-.608.036-2.091.098.097.563-.35.155-.216 2.41-.016.34.088.098.124.594-.449.047-.154.5-.33-.051-4.78-.971-.989 4.176 1.185.314-.464 1.771.778.211-.433 1.688-1.921-.506-.041.134-3.008 1.255-.5.005-3.301-.072-.057 3.267 3.77.062-.025 1.176 2.086 1.301 2.23 1.388-.185.305 1.879 1.182 1.314 1.62-1.262 1.156-.18.222-1.185 1.038-.201.206-.829.692-.829 1.068-2.406 2.498-.474-.119-.607-.578-.217-.258-.613-.929-.561-.753-.479-.212-.505-.258-.603-.258-1.025-.33-.654-.454-.937-.836-.304-.3-.505-.619-.582-.604-.69-.408-1.041-.469-.468-.15-.763-.109-.783.119-1.03-.201-.829-.201-.726-.346.02-.196-.422.026-.768.315-1.02.268-.515-.047-.443.155-.515.047-.432-.135-.68-.423-.392-.072-.402-.248-.267-.449-.593-.506-.571-.449-1.18-2.451-1.859.072-.485.165-.139.166-.02.593-.067.341-.139.351-1.005.862h-.386l.098.469-.294.3-.293-.274-.871 1.466.711.438-.258.45-1.39 2.286-.649.108-.108-.557-1.144.211.124.579.489-.083.067.511-1.298-.212-.402-.02-.633.061-.072-.789-.083-.083-.432.01-.31-1.599-3.409.634.103.542-.433.047-.536.578-.015.34-.17.093-.546-.165-.335.232.391-2.606-.479-.428.037-.326.231-1.558-3.775-.62-.155 1.182-.113.589-2.272-1.42-.252.258.026.496.211 2.761-.469-.346-2.148-1.44-1.504-1.027.021-.738-.366-.01-.299.186-1.009.506-.16-.341-.953.439-.546-1.285.969-.398-1.128-2.606.005-.356-1.154-2.55.211-.222-.263-.604.819-.289.176-.165.236-.356.577-.382.242-.114.299-.237.222-.294.046-.733-.062-.496-.201-.309-.128-.434-.253-.377-.35.068.026-.408.263.01.01-.661-.088-.232-.206-.227.01-.294.263-.423v-.233l-.19-.144-.418.062-.195-.062-.819-.996-.459-.594-.7-1.151-.794.067.134-.366-.056-.139-.541-.124-.232-.176.062-.227-.69-.072.103-.33.231.01.505-.222.304-.227.227.124.299.062.092-.155.335.155.118-.093.583-1.151.782-1.58-1.159-.418-.509-.371-1.031-1.363-.37.109-.011-.48-.077-.124-.036-.743-.412-1.089-1.798-1.771-.231.114.149.155.448 1.455.258.908.015 3.551-.005.713.005 2.756-.196 1.476" clip-rule="evenodd"/><path stroke="#000" stroke-linecap="round" stroke-linejoin="round" stroke-width=".2" d="m98.94 194.255-.067.186-.335.01-.417-.397-.284-.176-.51-.186-.195.114v.661l-.078.18-.963.186-.21.232-.434.186-.406-.098-.366-.79-.325-.149-.087-.248.587-.563-.026-.185-.86-1.017-.242-.129-1.504.325-.32-.005-.396-.243-.175-.253-.062-.247.175-.775.01-.758-.082-.294-.474-.929.02-.155.582-.583.016-.238-.175-.428-.722-.924-.386-.588-.88-1.626-.243-.32-.643-.465-.258-.516-.005-.66.16-.326-1.602-1.342-.881.171-1.5-.465-.411-.077-.68.248-.366.093-.469.056-.587-.289-.731.222-.222-.026-.365-.289-.268-.325-.19-.635-.17-.273-.403-.403-.391-.294-.474-.072-.391.026-.407.129-.14-.031-.504-.403-.459-.568-.123-.753.15-.599.34-.681.02-.625-.186-.882-.231-.362-.716-.123-.48.02-.798.253-.412.362-.943.49-.448.082-.19.253-.623.016-2.277-.325-.927.02-.768-.279-.664-.784-.69-.351-.593-.232-.474-.32-.484-.222-.494-.036-.48.273-.38.031-.438-.051-.284-.145-.365-.077-.587.092-.243.253-.442.558-.371.273-.413.171-.51.098-.865.026-.396.087-.644.46-.263.098-.273-.103-.175-.243-.119-.305.067-.526-.267-.227-.48-.005-.927-1.074-.376-.201-.937-.021-.68-.48-.144-.026-2.133.336-.443-.083-.257.005-.247.104-.315.433-.33.212-.432.206-.366.077h-.303l-.505-.278-.417-.439-.176-.32-.396-.423-.325-.181-.628-.015-.417.165-.783.728-.366-.052-.129-.15-.19-.464-.376-1.636-.124-.408-.165-.201-1.04-.444-.088.005-.69-.268-.453-.083-.242-.144-.402-.372-.943-.805-1.658-1.223-.47-.233-.973-.206-.417-.181-.89-.552-2.72-2.302.386-.872.283-.227.386-.408-.139-.206-.376.129-.448.046-.53-.191-.124-.459.041-.248.165-.289 1.205-.872.083-.382.005-.723.087-.283.81-1.079.066-.325.469-1.134.041-1.296.144-.289.16-.148.443-.112.283-.209.047-.465.262-.326.263.238.309.09.325.221.309.479-.073.34.093.129.067.372.175.414.381.265.273.385.546.394.495.173.525.049.366-.166-.113-.255.108-.127.298.014v.257l.397.093.567.325.314.01.438.138.911.028.387.185.36.093.598.351.515.403.901.402.31.222.39.124.624.522.392.258.525.242.433.067.463-.02.325.046.432.331.253.092 1.107.026.654-.103 1.458-.129.386.072.48.026.468.134.783-.041.046-.268-.144-.465.052-.237-.15-.253-.026-.279.072-.16-.04-.423.164-.418-.124-.155-.376-.031-.324-.222-.18-.211-.366-.253-.381-.482-.345-.322-.33.004-.258.166-.664.14-.484-.227-.258-.301-.231-.416-.083-.273-.407-.601-.268-.556.119-.44-.01-.189.164-.439.067-.9-.067-.412-.026-.537-.185-.41-.381.079-.65-.09-.447-.206-.134.041-.031-.472-.381-.309-.196-.04-.041-.183.056-.413.201-.256.654-.371.057.046.556-.224.294-.371-.01-.211-.124-.24-.077-.509-.15-.153-.236-.516.061-.268-.02-.608.087-.275.01-.339.279-.595-.057-.155-.036-.899.088-.691.577-1.202.242-.16.474-.063 1.04.012 1.087-.013.38-.211.16-.306.145-.505 1.34-1.019.262-.073.15-.209.504-.477.093-.202.252-.006-.113-1.903.474-.038.17-.165-.15-.251-.386-.041.216-.257-.046-.091-.422-.183.025-.323.294-.107.108.238.366-.118-.268-.301.268-.064-.093-.41-.304.009.067-.34-.139-.062-.046-.34.231-.09-.133-.268.262-.317-.051-.315-.129-.238-.294.04.201-.488-.216-.168-.103-.245.479-.275.026-.143-.397-.633-1.298-1.139-1.06-.56-1.536-.732 1.02-1.229-.258-2.447-.38-.527-.243-.042.186-.495-.01-.22-.263-.431-.175-.503.108-.086.417.058.144-.274-.309-.09.263-.254.082-.173-.154-.18-.31.07-.303-.127-.01-.36-.268-.075-.052.176-.402.022-.252-.316.288-.239.335.063.191-.55-.175-.171.077-.277.155.087.144-.172-.366-.208.186-.354.278-.168-.036-.14-.227-.208.165-.286.458.115.145-.576-.361.028-.119-.119.418-.542.005-.194.226-.207.304-.081.186-.324-.119-.439.253.01.134-.317.273-.43.247-.566.087-.429.119-.258-.227-.51.124-.108-.165-.294.221-.06.042-.186.18-.03.046-.233-.165-.159-.303.137-.031-.912-.109-.712.304-.216h.17l.376-.46.217.293.195.124.392-.12-.083-.153.47-.095.164.14-.093.164.134.208.237-.047-.041-.245.464-.231.314.403.417-.342.278-.403.252.064.078-.279.391-.09.443-.466.448.084.32-.194.34.047.082-.353.124-.107.53-.05.469.129.798-.246.258-.589.04-.907-.576-.762-.448.079-.113-.151.16-.253.236.092.18-.249.062-.441-.154-.255.206-.468.278.104.175-.266.252.212.66.009.19-.155.13-.312.19.224.082-.214.35-.047.17.333.134-.196.19-.005.042-.338.154-.405-.33-.364.274-.402.134-.015.258.178.2-.046-.134-.241-.51-.222-.056-.201.55.116.15-.091-.005-.222-.314-.015.216-.25.52.16.062-.2.18-.076.485-.018-.134.282-.15.603.454-.024.03.298-.144.687.068.414-.073.276.397.284.129.239.165-.324.046-.283-.273-.639.16-.248 1.18.796.545-.164.737.11.649 1.785.18.18.041.211.51.292.114-.024 1.329.462.844.322 1.695.599-.464 1.256.557.463.103.005.448-.294.401-.474.248.107.468.412.47-.426.968.421.54-.663.85.83 1.02 1.042.072.042 1.035 1.077-.67.585.372.539.84 1.171 3.033 1.578 1.896.951 1.01-.835.931.791 1.041.463-1.138 1.586 1.205.851-.15.286-.865 1.514 1.638.984.665.348.422.175.186-.307 1.025.568.005-1.203.185.04.005-.782.129-.466 2.55.389.185.042 2.25-.055.29.211.144-.304.293.083.124.292.036.337-.165.686.335.417.391.2.366.551.747.403.16-.263.376.43.551-.272.056-.455h.165l-.036-.355.206.033.763.56.252.008.149.278.675-.147.067-1.051 2.369.096 1.237-.604.278.572 1.365-1.092.556.697.304.181 1.406.994 2.354.582.556.119-.062.401.181.105-.217.749-.195.378.252.493.695.068.928.277-.036.445 2.4.246.407.137-.51.504.659.348 1.556.857.474.235.35-.163.273-.036.463.227.201.028.103.17-.025.344.072.193.407.184.788.105 1.591.299.521.121 2.997 1.092.459.176.731 2.436.809 2.821.402.461.02.46-.103.184.062.381.206.325.927.047 2.617.585.561.163.366.342.134.341.134.338.463.582.242-.086.248.128.71.272.036.241 1.247.147.371-.257.165.292.628.924.304-.18.237.025.458.385.289.102-.021.388.407.33.247.07.31.463-.067.208.061.218v.393l.217.083.443.004.077-.28.196-.008.118-.208.15.152-.119.13.119.295.159-.098.824-.335.098-.135.392-.036-.047.197.212.16.355.503.015.211-.118 1.665.082.519-.942.058-.15-.267-.474.428.011.203-.119.292.252.661.14.217.226.117-.123.156-.284-.077-.046.32.026.32-.175.122.123.28-.195.105-.037.179.268.396.181.086.329-.023.392.276.154.272-.412.199-.067.228.186.053-.021.233.196.171-.155.293.428.241.469-.014.206.24.216-.037.407-.385.309.065.005.247.155.078.499-.122.402-.003.417-.253.618-.194.299-.293.392-.163.587.067.216.098-.005.207-.175.279.216.312.155.833.123.04.072.261-.123.29.484-.199.057.267.721-.115.216.405.005.142-.268.447-.752-.012-.324.237.911.854.067-.067.67.537 1.803 1.62 1.061-.903 3.405.764.005-.351h.391l.083-.113.561.113.15 1.259.319 2.447.463 3.602 1.123-.124.582 1.704.289.908.932.723.021.247.216.005.057.413-.047.764-1.844 2.116-.082 1.053.026.072.767.713 1.298.975.098.475.443 2.508.428.372.237.129.005.279-.232.252-.222.057-.211.217.17.108.242.635-.113.078.062.289.232 1.564.942.237 1.834.568.124-.341 1.462.454-.494 1.791.963.227-.263 1.332-.401 2.296-.078.713-.298 1.992-.608.036-2.091.098.097.563-.35.155-.216 2.41-.016.34.088.098.124.594-.449.047-.154.5-.33-.051-4.78-.971-.989 4.176 1.185.314-.464 1.771.778.211-.433 1.688-1.921-.506-.041.134-3.008 1.255-.5.005-3.301-.072-.057 3.267 3.77.062-.025 1.176 2.086 1.301 2.23 1.388-.185.305 1.879 1.182 1.314 1.62-1.262 1.156-.18.222-1.185 1.038-.201.206-.829.692-.829 1.068-2.406 2.498-.474-.119-.607-.578-.217-.258-.613-.929-.561-.753-.479-.212-.505-.258-.603-.258-1.025-.33-.654-.454-.937-.836-.304-.3-.505-.619-.582-.604-.69-.408-1.041-.469-.468-.15-.763-.109-.783.119-1.03-.201-.829-.201-.726-.346.02-.196-.422.026-.768.315-1.02.268-.515-.047-.443.155-.515.047-.432-.135-.68-.423-.392-.072-.402-.248-.267-.449-.593-.506-.571-.449-1.18-2.451-1.859.072-.485.165-.139.166-.02.593-.067.341-.139.351-1.005.862h-.386l.098.469-.294.3-.293-.274-.871 1.466.711.438-.258.45-1.39 2.286-.649.108-.108-.557-1.144.211.124.579.489-.083.067.511-1.298-.212-.402-.02-.633.061-.072-.789-.083-.083-.432.01-.31-1.599-3.409.634.103.542-.433.047-.536.578-.015.34-.17.093-.546-.165-.335.232.391-2.606-.479-.428.037-.326.231-1.558-3.775-.62-.155 1.182-.113.589-2.272-1.42-.252.258.026.496.211 2.761-.469-.346-2.148-1.44-1.504-1.027.021-.738-.366-.01-.299.186-1.009.506-.16-.341-.953.439-.546-1.285.969-.398-1.128-2.606.005-.356-1.154-2.55.211-.222-.263-.604.819-.289.176-.165.236-.356.577-.382.242-.114.299-.237.222-.294.046-.733-.062-.496-.201-.309-.128-.434-.253-.377-.35.068.026-.408.263.01.01-.661-.088-.232-.206-.227.01-.294.263-.423v-.233l-.19-.144-.418.062-.195-.062-.819-.996-.459-.594-.7-1.151-.794.067.134-.366-.056-.139-.541-.124-.232-.176.062-.227-.69-.072.103-.33.231.01.505-.222.304-.227.227.124.299.062.092-.155.335.155.118-.093.583-1.151.782-1.58-1.159-.418-.509-.371-1.031-1.363-.37.109-.011-.48-.077-.124-.036-.743-.412-1.089-1.798-1.771-.231.114.149.155.448 1.455.258.908.015 3.551-.005.713.005 2.756-.196 1.476"/></svg>