<svg xmlns="http://www.w3.org/2000/svg" width="225" height="262" fill="none" viewBox="0 0 225 262"><path id="Рівненський" fill="#C8C6C6" fill-rule="evenodd" d="m97.095 227.12-.421.105.026.334-2.112.101-1.78 2.418-.186.385.153.227-.144.29-.217.186-.042.483-.064.187-.569-.096-.538-.205-.924-.288-1.765-.651-.598-.237.197-.605.111-.462.281-.872.416-.967.48-1.06-1.003-.336-.77.174-.232.313-.24.061-.626-.177-.34-.053-.532.656-.202-.308-.234-.198-.802.207-.853.107-1.195-.948-1.473-1.283-.732-.728-1.802-2.072-.39-.507-.153-1.106-.29-.968-.246-.02-.199-.914-.705-.5-.273-1.309-.098-.645-.36-.143-.144.254-.795-.015-.473-.057.056-.389-.623-.237-.15.011-.375-.639-.188-.209-.746-.711.12-.137.208-.44.253-.728.479-.64-.318-.228-.88-.374-.41-.496.531-.156.35-.111.507.122.674.345.094-.233.149-.099.561-.118.867.238.248-.103.29-.023.244-.117 1.168.424 1.089.288.72-.142.024.28.207.388.604.147.766.319.81-.05.395.12.534-.19.705-.06.554-.243.081-.108.039-.675-.05-.57-.325-.465-.109-.356.096-.763-.117-.588.923.104.116-.935.082-.127-.338-.129.766-1.786-1.76-1.483.73-1.711.26.081.287-.354.305-.929.135-.879.28-1.248.142.13.617.305.499.37.281.007-.047-.14-.095-.829.324-2.172.328.021-.068-.543-.261-1.163-.615-2.831-.104-.519.117-.34-.59-.292-1.392 2.153-.48.393-.9.534-.792.523-.854.688-.911.464-.119-.493-.524-.411-.922-.121-.057.234-.234.047-.185.311-1.042-.784-.24.325-.504-.152-.4-.914.203-.21.122-.266.247-.263.4.082.59-1.441-.465-.437-.455-.257-.31-.051-.66-.25-1.207-.285-.379.801-.744.458-.235-.353-.36-.67-.34-.251-.277-.294-.059-.218-.705-.739-.123.127-.79-.86.327-.366.595-.298-.437-.258.072-1.733-.19-1.434-.543-.056-.023-.52-1.261.097-.176-.253-.195-.547-1.08-.374-.203.057-.555-.29-.096-.136-.614-.305-.43-.166-.176.003-.43.145-.301.222-.311-.007-.126.294-1.218-.114-.251.899-.168-.116-.101-.244-.412-.584.424-.215-.027-.116.634-.763.133-.097.486-.676.733-.922.435-.501.102-.104-.441-.342-.552-.495-.558-.556-.209-.646.022-.082.794-1 .603-.793.877-1.106-.018-.347.28-.684.463-.573.244-.178.605-.671.114-.484-.016-.752.248-.557.219-.245-.026-.186.255-.637-.133-.313.07-.46-.013-.547-.317-1.628-.181-1.046.082-.585.333-1.28.276-.262.237-.595.175-.28.182-.474.05-.538-.007-.435-.012-.742.036-.059.027-1.16.18-.513-.01-.464.036-.739.17-.579.28-.577.214-.35.161-.408.122-1.824-.057-.371.195-.129.257.063.312-.231.221.028.146.3.292.055.308-.213.091-.199.37.134.272.215.27-.144.211.117.224-.032.407.12v.255l.311.072.65-.392.192.194-.124.144.075.265.268.138.188-.181.35-.024.31-.092.32.221.037.179.322.318.445-.237.564-.094.472.045.138.111.498-.047.362-.107.146.037.388-.088.454.137.302.263.233-.49.025-.547.254-1.128.13-.437.493-.011.272-.071.084-.118-.09-.064-.14-.496.045-.536-.068-.158-1.215-1.215-.4-.361-.44-.457-.56.153-.053.157-.32.265-.15.006-.672-.511.351-4.275.138-1.59.283-3.449-.316-.38-2.554-2.536 1.45-.603.474.116.276-.104.09-.232.58-.207.576.134.218-.151.68.009.299.088.465-.312.518-.209.838-.425.414-.134.104.043.73-.104.422.234.318-.039.249-.142.624.113.258-.206.403-.07-.26-1.248-.1-.47.193-.102-.056-.222-.278-.193.575-1.722.205-.197 1.627-.134-.294-1.218-.256-1.253-.618-2.716-.198-.938-.296-.234-1.515-1.049-1.516-1.071-2.956-2.043-1.524.688-.867-.062-.557.156-.427-.038-.845-.281-.866-.212-1.005-.323-.096-.143.24-.24-.112-.389.13-.138-.204-.46.224-.03.13-.153.062-.29.049-.734-.05-.232-.26-.237-.687-.809-.036-.285.348-.598.583-.32.903-.576 1.188.07.557.339.765.012 1.407-.305.505-.801 1.088-.369.347-.217.153-.218.756-.188.325-.165.27-.359 1.049-.072.55-.632.172-.086.083-.491.216-.543-.058-.322-.773-1.098-.195-.56-.05-.289.197-.117.131-.214.324-.117.165-.165-.39-.577-.271-.159-.101-.293.817-1.466.21-.088.045-.369.395-.074.938-.017.427.028.515-.268.293-.019.373-.192.215-.422.232.218-.008.587-.096.232.469.445-.106.244-.25.16-.348-.098-.126.121-.21.904-.544.138-.003.082-.921.063-.388.221.024.757-.027.877 2.347.048.918.062.911.024.7-.104.537-.032.133-.317.986-.1-.136.375.273 1.306-.005.511.158.169.306.623.296-.021.278-.117.836-.093.172-.124.022-.187.523-.422.49-.276.005.338-.071.274.205.5v.294l.166.453-.013.637.5.234.487.461.15.662.45 2.671.463-.101-.064-.344.723-.107-.097-.343.603-.083.04.189.437.504.37-.088-.12-.399 1.331-.182.566.637-.082.418.391.434.5.48.458.358.217-.288.077-.559.232-.06.865-.581.129.171-.052.214.222.189-.078.553.315-.192-.031.404.118.429.222.039.185.331.273.265.51-.257.304.466.082-.261.284-.112.422.185.469.036.479.105.139.634.134.16.829.75.103.314.134.103-.953.936-.196.251-.128.542.35.191.283.323.16.064-.088.427-.226.639 5.439.206 1.648.099.5.494.283.107 1.89 1.768-.01.756.33.081.386-.398.67-.463-.685-2.267.324-.754-.469-.511.382-.926.577.045.309.202.283.344.834.193.412.301.134.254.021.397-.175.106.206.375.232.723-.608.056-.211.108.18.506.257.202.376-.225.665-1.453-.85-.525-.031-.391-.237-.484.113-.177-1.617-2.519-1.525.348-.309-.216-.324-.305-.371-.61-.562-.452-.257-.541.273-.133.7.177.036.249.402.163.366-.142.216.3.572-.049.443.765.324-.002.598.24.623.007-.19-.589.149-.098.433.181.34-.457.329-.066.515.202.139.43.881-.325-.098-.319-.149-.202-.484-.329-.18-.04-.145-.198-.458-.353-.17-.075-.438-.031-.304-.477-.103-.304.052-.221-.572-.579-.33-.126.201-.561-.948-.671-.432-.223-.417-.815.036-.126 1.71-2.2.777-.096.139-.153 1.731-1.912.314-.197 1.736-.994.778-.702.742-.177 1.081.021.248-.113 1.071-.705.613-.199.376.041.237.124 1.54-.012.35.278.124.008-.155 1.367-.056.725.026.426.113.165.438.154.247.329.278.521.392.453 1.159.727-.186.934-.015.426.056 1.35.34.847.376.639.047.329.17.252-.35.221-.454-.101-.551.293-.124.359.953.554 1.695.748.026-.166.788-.612.314-.142.644-.052.309-.215.438-.106-.052-.735.304-.339.16-.462.464-.485.283-.39.005-.167 1.066-.722.01.543.114.509.098.11.293-.143-.046-.868.69-.037.165.474.371.253.144.005.464-.631.267.068.892-.913.334-1.768.181-.056.561.271.232.242-.17.408.118.254.284.06.159.383.206.034.165-.142.474.01.572-.059.201.126-.031-.454 2.925-.108.989-.027.062 1.261 1.411-.044.217-.382 1.529-.007.624-.02 3.054.031 1.839.009.119.08.999.715.396.333 1.293 1.02.989.749 1.247.975 1.442 1.091 1.401 1.015.288.284 1.669 3.658.103.021.675-.164.206.08.51.045.381-.112.953.366.057.106.901.187.15.194.211.43.298.221-.036.345-.432 1.075-.134.429.041.404.16.682.783.142.103.358-.011.342.155.101.082.268.222.161.242.323.376.094-.036.331.463.277.407.546.016.466.463.584-.015.252.51.056.448.169 1.427.485.067.292.216.268.412.639.067.279.33.687.257.254.407 1.02-.031.188.18.262-.051.559-.139.288-.031.49.906.466-.139.25.52.192-.365.982.402.168-.088.223-.798.312-.345.396-.32-.126-.242.655-.201-.007.124.792.144.321.247.269.005.361.278.303.088-.182.675.011.242.416-.201.327.551.539.623.254.232.157.237.333.253.137-.067.248-.279.577-.211.082-.304.803.562.187-.747 1.711.443 1.671-.33.354-.221.137-.041.254-.227.236-.18.345-.124.386.021.409-.16.178-.088.36.222.094.036.328.17.076.041.311.252.215-.082.263.067.196-.206.064-.108.275.067.321-.026.507.056.319-.149.299-.237.091.052.341.139.506-.145.095-.02.216-.16.216-.092.575.236.199.732.379-.18 1.167-.109.836-.128.122.252.23-.041.174.175.092-.082.41.273.048.283.173.273-.007.407.171.226.176-.082.14.165.364.479-.237.093.097.267-.046.098.268-.154.776.041.327-.098.276-.366.369.006.205-.155.202.242.276-.062.253.335.477-.113.23.391.037.103.193-.046.235-.196.096-.01.432.324.338.031.189-.092.287.046.341-.072.196.015.399-.072.473-.298.05-.14.196-.376.308-.01.267-.18.02-.216.547.273.38-.32.326-.154-.032-.186.248-.226.425.273.111-.062.157-.237.188.005.158-.381 1.467-.134.405-.314-.203-.201.261-.644-.118-.237.379-.494-.284-.16.363-.397-.124-.427.221-.35.38-.201.023-.186.617.201.319.206.092.227-.047.298.255-.072.358.026.966-.412.455.521.561-.531.326-.232.304-.36.295.026.314.303.044.083.189-.289.045-.154.174-.459.093-.144-.164-.309.052-.108.297.108.255-.031.264.783.297.51.819.355.008.165.282.943.437.262.227-.061.225-.016.606-.551.835-.165.604 1.355 2.886-1.674.179-.036.216-.963.104-.278.116-.536.09-1.509.024-.706-.098-.051-.048-.819-.105-.789.062-.674.284-.474-.047-.057-.523-.664-1.505.422.095.216-.746-.103-.03.15-.483-.057-.115.093-.3-.32-.188-.144.04-.443-.18-.092-.158-.083-.421-.283.2-.242-.073-.016.265-.267.177-.088.414-.309.471-1.149-.481-.046.408-.16.604-.695-.51-.278.803.118.209-.304.044-.211.142-.093.72-.216.591-.257.367.422.508.577.512-.32.459-.716.014-.571-.043-.572-.096-1.004-.33-.418-.175-.803-.217-.598-.221-.36 1.131-.423 1.144-.061.307-1.628.831-.469 1.415-.705-.54-.17-.047-.474-.267-1.443-.089-.432-.098-.242.065-.5-.189-.443-.328-.505-.284-.7-.168-.665-.467-.211-.299-.551-.432-.809.804-.927.835-.01.316-.572 1.407-.092-.036-.928.814-.314.794-.232-.064-1.282-.828-.33-.888-.633-.054-.114.368-.268.166-.303.654.031.742-.186.803-.664-.006-.572.074-1.066-.186-.175.014-.382.24-.442-.083-.067.357.329.207.005.311-.231.275-.258.467-.438-.194h-.242l-.227.313.263.165v.256l-.103.176.139.945-.721.104.129.83 1.092-.162-.036-.271 1.282-.204.042.314-.243.077-.02.611-.582.148-.438-.094-.134.416-.211-.009-.067-.435-.247.045-.057.335v.446l-.556-.153-.108-.102-.433.044-.881.181.036-.38.253-.719.067-.347-.15-.956-.458.08.015.156-.469.072.078.191.077.555-.134.48-.051.563.072.318-.345.084v.205l-.206.26.633.421.242.246-.118.378-.047.618-.134-.006-.422-.016-.072.078-.51.009-.505-.19-.144.644-.031.296.01 1.571-.237 1.31-1.741-.418-.231 1.201-.583 2.913-.623-.201-.587-.016-.747-.182-.134.596-.561 2.12-.253.911-2.281-.833-1.643.384-.68 1.803-.495 1.175.005.369-.108.442-.175-.126-.701.571-.396.213-1.149.435-.453.148.561.857.33.334-.222.566-1.112-.038-.361-.143.309 1.069-.025.148-.521.044-.134.057-.535.267-.464-.616-.123.284-.253.268-.18.296.324.312-.103.108.428.208-.283.571-.825-.114-.103.321.145.238-.124.259-.577.361-.057.112.665.343-.088.334-.597-.462-.299-.016-.113.516-.253.225-.211.513.103.274.196.099-.34.754.299.134.062.167.37.042-.149.289-.17-.071-.551-.003-.412-.354-.773.041-.35.176-.149.301-.495.315.052.19-.799-.032-.092-.392-.51.164.097-.297.531-.321.211.01-.283-.584-.124.057-.051.292.108.134-.443.087-.35.147-.124-.091-.345.16-.371.356-.458-.086-.289.091-.175-.288-.134-.038-.211.256-.098-.101-.309.101-.196-.033-.098-.219-.211.116-.34-.158-.232.066-.345-.254-.123.053-.49-.018-.082.123-.361.047-.051.202-.531.092.031.719-.149.294-.252.018-.479.151-.217-.089-.376-.026-.334.132-.176.262.093.249-.479.272-.227.271-.103.439-.19.249-.304-.059-.335.158-.026.251-.17-.01-.185.141-.361.019-.319.446-.18.007-.304.179.072.268-.026.25-.17.246-.062.313-.206.158-.299.34.006.207-.273.201-.248-.018-.216.284-.165.388.041.175-.154.119-.057.246-.062.114.278.35.042.402-.093.196-.206.173-.103.327-.304.128-.216.303-.057.363-.294.089-.262.375-.227.108-.366.064-.561.381-.046.221-.665.057-.291-.116-.172-.163-.72.207-.28.344-.154-.058-.038.302-.224.033-.51.19-.265.028-.255-.09-.175.12-.375-.619-.35-.376-.225-.352-.123-.036-.52-.358-.323-.11-.654-.074-.209-.171-.379-.454.11-.305-1.183-.462.45-1.229.442-1.145.124-.409-.488.193.072-.497-.059-1.126.254-.099.366.303.167.04.196-.159.57-.281.68.056-.166-2.419.642.029-.04-1.018.376-.185.052-.156-.09-1.106" clip-rule="evenodd"/><path stroke="#000" stroke-linecap="round" stroke-linejoin="round" stroke-width=".2" d="m97.095 227.12-.421.105.026.334-2.112.101-1.78 2.418-.186.385.153.227-.144.29-.217.186-.042.483-.064.187-.569-.096-.538-.205-.924-.288-1.765-.651-.598-.237.197-.605.111-.462.281-.872.416-.967.48-1.06-1.003-.336-.77.174-.232.313-.24.061-.626-.177-.34-.053-.532.656-.202-.308-.234-.198-.802.207-.853.107-1.195-.948-1.473-1.283-.732-.728-1.802-2.072-.39-.507-.153-1.106-.29-.968-.246-.02-.199-.914-.705-.5-.273-1.309-.098-.645-.36-.143-.144.254-.795-.015-.473-.057.056-.389-.623-.237-.15.011-.375-.639-.188-.209-.746-.711.12-.137.208-.44.253-.728.479-.64-.318-.228-.88-.374-.41-.496.531-.156.35-.111.507.122.674.345.094-.233.149-.099.561-.118.867.238.248-.103.29-.023.244-.117 1.168.424 1.089.288.72-.142.024.28.207.388.604.147.766.319.81-.05.395.12.534-.19.705-.06.554-.243.081-.108.039-.675-.05-.57-.325-.465-.109-.356.096-.763-.117-.588.923.104.116-.935.082-.127-.338-.129.766-1.786-1.76-1.483.73-1.711.26.081.287-.354.305-.929.135-.879.28-1.248.142.13.617.305.499.37.281.007-.047-.14-.095-.829.324-2.172.328.021-.068-.543-.261-1.163-.615-2.831-.104-.519.117-.34-.59-.292-1.392 2.153-.48.393-.9.534-.792.523-.854.688-.911.464-.119-.493-.524-.411-.922-.121-.057.234-.234.047-.185.311-1.042-.784-.24.325-.504-.152-.4-.914.203-.21.122-.266.247-.263.4.082.59-1.441-.465-.437-.455-.257-.31-.051-.66-.25-1.207-.285-.379.801-.744.458-.235-.353-.36-.67-.34-.251-.277-.294-.059-.218-.705-.739-.123.127-.79-.86.327-.366.595-.298-.437-.258.072-1.733-.19-1.434-.543-.056-.023-.52-1.261.097-.176-.253-.195-.547-1.08-.374-.203.057-.555-.29-.096-.136-.614-.305-.43-.166-.176.003-.43.145-.301.222-.311-.007-.126.294-1.218-.114-.251.899-.168-.116-.101-.244-.412-.584.424-.215-.027-.116.634-.763.133-.097.486-.676.733-.922.435-.501.102-.104-.441-.342-.552-.495-.558-.556-.209-.646.022-.082.794-1 .603-.793.877-1.106-.018-.347.28-.684.463-.573.244-.178.605-.671.114-.484-.016-.752.248-.557.219-.245-.026-.186.255-.637-.133-.313.07-.46-.013-.547-.317-1.628-.181-1.046.082-.585.333-1.28.276-.262.237-.595.175-.28.182-.474.05-.538-.007-.435-.012-.742.036-.059.027-1.16.18-.513-.01-.464.036-.739.17-.579.28-.577.214-.35.161-.408.122-1.824-.057-.371.195-.129.257.063.312-.231.221.028.146.3.292.055.308-.213.091-.199.37.134.272.215.27-.144.211.117.224-.032.407.12v.255l.311.072.65-.392.192.194-.124.144.075.265.268.138.188-.181.35-.024.31-.092.32.221.037.179.322.318.445-.237.564-.094.472.045.138.111.498-.047.362-.107.146.037.388-.088.454.137.302.263.233-.49.025-.547.254-1.128.13-.437.493-.011.272-.071.084-.118-.09-.064-.14-.496.045-.536-.068-.158-1.215-1.215-.4-.361-.44-.457-.56.153-.053.157-.32.265-.15.006-.672-.511.351-4.275.138-1.59.283-3.449-.316-.38-2.554-2.536 1.45-.603.474.116.276-.104.09-.232.58-.207.576.134.218-.151.68.009.299.088.465-.312.518-.209.838-.425.414-.134.104.043.73-.104.422.234.318-.039.249-.142.624.113.258-.206.403-.07-.26-1.248-.1-.47.193-.102-.056-.222-.278-.193.575-1.722.205-.197 1.627-.134-.294-1.218-.256-1.253-.618-2.716-.198-.938-.296-.234-1.515-1.049-1.516-1.071-2.956-2.043-1.524.688-.867-.062-.557.156-.427-.038-.845-.281-.866-.212-1.005-.323-.096-.143.24-.24-.112-.389.13-.138-.204-.46.224-.03.13-.153.062-.29.049-.734-.05-.232-.26-.237-.687-.809-.036-.285.348-.598.583-.32.903-.576 1.188.07.557.339.765.012 1.407-.305.505-.801 1.088-.369.347-.217.153-.218.756-.188.325-.165.27-.359 1.049-.072.55-.632.172-.086.083-.491.216-.543-.058-.322-.773-1.098-.195-.56-.05-.289.197-.117.131-.214.324-.117.165-.165-.39-.577-.271-.159-.101-.293.817-1.466.21-.088.045-.369.395-.074.938-.017.427.028.515-.268.293-.019.373-.192.215-.422.232.218-.008.587-.096.232.469.445-.106.244-.25.16-.348-.098-.126.121-.21.904-.544.138-.003.082-.921.063-.388.221.024.757-.027.877 2.347.048.918.062.911.024.7-.104.537-.032.133-.317.986-.1-.136.375.273 1.306-.005.511.158.169.306.623.296-.021.278-.117.836-.093.172-.124.022-.187.523-.422.49-.276.005.338-.071.274.205.5v.294l.166.453-.013.637.5.234.487.461.15.662.45 2.671.463-.101-.064-.344.723-.107-.097-.343.603-.083.04.189.437.504.37-.088-.12-.399 1.331-.182.566.637-.082.418.391.434.5.48.458.358.217-.288.077-.559.232-.06.865-.581.129.171-.052.214.222.189-.078.553.315-.192-.031.404.118.429.222.039.185.331.273.265.51-.257.304.466.082-.261.284-.112.422.185.469.036.479.105.139.634.134.16.829.75.103.314.134.103-.953.936-.196.251-.128.542.35.191.283.323.16.064-.088.427-.226.639 5.439.206 1.648.099.5.494.283.107 1.89 1.768-.01.756.33.081.386-.398.67-.463-.685-2.267.324-.754-.469-.511.382-.926.577.045.309.202.283.344.834.193.412.301.134.254.021.397-.175.106.206.375.232.723-.608.056-.211.108.18.506.257.202.376-.225.665-1.453-.85-.525-.031-.391-.237-.484.113-.177-1.617-2.519-1.525.348-.309-.216-.324-.305-.371-.61-.562-.452-.257-.541.273-.133.7.177.036.249.402.163.366-.142.216.3.572-.049.443.765.324-.002.598.24.623.007-.19-.589.149-.098.433.181.34-.457.329-.066.515.202.139.43.881-.325-.098-.319-.149-.202-.484-.329-.18-.04-.145-.198-.458-.353-.17-.075-.438-.031-.304-.477-.103-.304.052-.221-.572-.579-.33-.126.201-.561-.948-.671-.432-.223-.417-.815.036-.126 1.71-2.2.777-.096.139-.153 1.731-1.912.314-.197 1.736-.994.778-.702.742-.177 1.081.021.248-.113 1.071-.705.613-.199.376.041.237.124 1.54-.012.35.278.124.008-.155 1.367-.056.725.026.426.113.165.438.154.247.329.278.521.392.453 1.159.727-.186.934-.015.426.056 1.35.34.847.376.639.047.329.17.252-.35.221-.454-.101-.551.293-.124.359.953.554 1.695.748.026-.166.788-.612.314-.142.644-.052.309-.215.438-.106-.052-.735.304-.339.16-.462.464-.485.283-.39.005-.167 1.066-.722.01.543.114.509.098.11.293-.143-.046-.868.69-.037.165.474.371.253.144.005.464-.631.267.068.892-.913.334-1.768.181-.056.561.271.232.242-.17.408.118.254.284.06.159.383.206.034.165-.142.474.01.572-.059.201.126-.031-.454 2.925-.108.989-.027.062 1.261 1.411-.044.217-.382 1.529-.007.624-.02 3.054.031 1.839.009.119.08.999.715.396.333 1.293 1.02.989.749 1.247.975 1.442 1.091 1.401 1.015.288.284 1.669 3.658.103.021.675-.164.206.08.51.045.381-.112.953.366.057.106.901.187.15.194.211.43.298.221-.036.345-.432 1.075-.134.429.041.404.16.682.783.142.103.358-.011.342.155.101.082.268.222.161.242.323.376.094-.036.331.463.277.407.546.016.466.463.584-.015.252.51.056.448.169 1.427.485.067.292.216.268.412.639.067.279.33.687.257.254.407 1.02-.031.188.18.262-.051.559-.139.288-.031.49.906.466-.139.25.52.192-.365.982.402.168-.088.223-.798.312-.345.396-.32-.126-.242.655-.201-.007.124.792.144.321.247.269.005.361.278.303.088-.182.675.011.242.416-.201.327.551.539.623.254.232.157.237.333.253.137-.067.248-.279.577-.211.082-.304.803.562.187-.747 1.711.443 1.671-.33.354-.221.137-.041.254-.227.236-.18.345-.124.386.021.409-.16.178-.088.36.222.094.036.328.17.076.041.311.252.215-.082.263.067.196-.206.064-.108.275.067.321-.026.507.056.319-.149.299-.237.091.052.341.139.506-.145.095-.02.216-.16.216-.092.575.236.199.732.379-.18 1.167-.109.836-.128.122.252.23-.041.174.175.092-.082.41.273.048.283.173.273-.007.407.171.226.176-.082.14.165.364.479-.237.093.097.267-.046.098.268-.154.776.041.327-.098.276-.366.369.006.205-.155.202.242.276-.062.253.335.477-.113.23.391.037.103.193-.046.235-.196.096-.01.432.324.338.031.189-.092.287.046.341-.072.196.015.399-.072.473-.298.05-.14.196-.376.308-.01.267-.18.02-.216.547.273.38-.32.326-.154-.032-.186.248-.226.425.273.111-.062.157-.237.188.005.158-.381 1.467-.134.405-.314-.203-.201.261-.644-.118-.237.379-.494-.284-.16.363-.397-.124-.427.221-.35.38-.201.023-.186.617.201.319.206.092.227-.047.298.255-.072.358.026.966-.412.455.521.561-.531.326-.232.304-.36.295.026.314.303.044.083.189-.289.045-.154.174-.459.093-.144-.164-.309.052-.108.297.108.255-.031.264.783.297.51.819.355.008.165.282.943.437.262.227-.061.225-.016.606-.551.835-.165.604 1.355 2.886-1.674.179-.036.216-.963.104-.278.116-.536.09-1.509.024-.706-.098-.051-.048-.819-.105-.789.062-.674.284-.474-.047-.057-.523-.664-1.505.422.095.216-.746-.103-.03.15-.483-.057-.115.093-.3-.32-.188-.144.04-.443-.18-.092-.158-.083-.421-.283.2-.242-.073-.016.265-.267.177-.088.414-.309.471-1.149-.481-.046.408-.16.604-.695-.51-.278.803.118.209-.304.044-.211.142-.093.72-.216.591-.257.367.422.508.577.512-.32.459-.716.014-.571-.043-.572-.096-1.004-.33-.418-.175-.803-.217-.598-.221-.36 1.131-.423 1.144-.061.307-1.628.831-.469 1.415-.705-.54-.17-.047-.474-.267-1.443-.089-.432-.098-.242.065-.5-.189-.443-.328-.505-.284-.7-.168-.665-.467-.211-.299-.551-.432-.809.804-.927.835-.01.316-.572 1.407-.092-.036-.928.814-.314.794-.232-.064-1.282-.828-.33-.888-.633-.054-.114.368-.268.166-.303.654.031.742-.186.803-.664-.006-.572.074-1.066-.186-.175.014-.382.24-.442-.083-.067.357.329.207.005.311-.231.275-.258.467-.438-.194h-.242l-.227.313.263.165v.256l-.103.176.139.945-.721.104.129.83 1.092-.162-.036-.271 1.282-.204.042.314-.243.077-.02.611-.582.148-.438-.094-.134.416-.211-.009-.067-.435-.247.045-.057.335v.446l-.556-.153-.108-.102-.433.044-.881.181.036-.38.253-.719.067-.347-.15-.956-.458.08.015.156-.469.072.078.191.077.555-.134.48-.051.563.072.318-.345.084v.205l-.206.26.633.421.242.246-.118.378-.047.618-.134-.006-.422-.016-.072.078-.51.009-.505-.19-.144.644-.031.296.01 1.571-.237 1.31-1.741-.418-.231 1.201-.583 2.913-.623-.201-.587-.016-.747-.182-.134.596-.561 2.12-.253.911-2.281-.833-1.643.384-.68 1.803-.495 1.175.005.369-.108.442-.175-.126-.701.571-.396.213-1.149.435-.453.148.561.857.33.334-.222.566-1.112-.038-.361-.143.309 1.069-.025.148-.521.044-.134.057-.535.267-.464-.616-.123.284-.253.268-.18.296.324.312-.103.108.428.208-.283.571-.825-.114-.103.321.145.238-.124.259-.577.361-.057.112.665.343-.088.334-.597-.462-.299-.016-.113.516-.253.225-.211.513.103.274.196.099-.34.754.299.134.062.167.37.042-.149.289-.17-.071-.551-.003-.412-.354-.773.041-.35.176-.149.301-.495.315.052.19-.799-.032-.092-.392-.51.164.097-.297.531-.321.211.01-.283-.584-.124.057-.051.292.108.134-.443.087-.35.147-.124-.091-.345.16-.371.356-.458-.086-.289.091-.175-.288-.134-.038-.211.256-.098-.101-.309.101-.196-.033-.098-.219-.211.116-.34-.158-.232.066-.345-.254-.123.053-.49-.018-.082.123-.361.047-.051.202-.531.092.031.719-.149.294-.252.018-.479.151-.217-.089-.376-.026-.334.132-.176.262.093.249-.479.272-.227.271-.103.439-.19.249-.304-.059-.335.158-.026.251-.17-.01-.185.141-.361.019-.319.446-.18.007-.304.179.072.268-.026.25-.17.246-.062.313-.206.158-.299.34.006.207-.273.201-.248-.018-.216.284-.165.388.041.175-.154.119-.057.246-.062.114.278.35.042.402-.093.196-.206.173-.103.327-.304.128-.216.303-.057.363-.294.089-.262.375-.227.108-.366.064-.561.381-.046.221-.665.057-.291-.116-.172-.163-.72.207-.28.344-.154-.058-.038.302-.224.033-.51.19-.265.028-.255-.09-.175.12-.375-.619-.35-.376-.225-.352-.123-.036-.52-.358-.323-.11-.654-.074-.209-.171-.379-.454.11-.305-1.183-.462.45-1.229.442-1.145.124-.409-.488.193.072-.497-.059-1.126.254-.099.366.303.167.04.196-.159.57-.281.68.056-.166-2.419.642.029-.04-1.018.376-.185.052-.156-.09-1.106"/><path id="Сарненський" fill="#C8C6C6" fill-rule="evenodd" d="m121.256 109.371-.139.152-.778.096-1.71 2.2-.036.126.417.816.433.223.948.67-.201.561.33.126.571.579-.051.221.103.304.304.478.437.03.17.076.459.353.144.197.18.04.485.329.149.203.098.319-.881.325-.139-.43-.515-.202-.33.065-.34.457-.432-.18-.15.098.191.589-.623-.008-.598-.24-.324.002-.443-.764-.572.049-.217-.301-.365.143-.402-.164-.036-.248-.701-.177-.273.132.258.542.561.451.371.61.325.305.309.216 1.525-.348 1.617 2.519-.114.178.237.483.031.391.85.525-.664 1.453-.376.226-.258-.203-.18-.505.211-.108.608-.057-.232-.723-.206-.374.175-.107-.02-.397-.134-.254-.412-.3-.835-.194-.283-.344-.309-.202-.577-.045-.381.926.469.512-.325.754.685 2.266-.669.463-.387.398-.329-.08.01-.756-1.89-1.769-.284-.106-.499-.495-1.649-.099-5.439-.206.227-.639.087-.427-.159-.064-.284-.322-.35-.192.129-.542.196-.25.952-.937-.134-.102-.102-.315-.83-.75-.134-.16-.139-.634-.479-.104-.468-.037-.423-.185-.283.112-.083.261-.303-.465-.51.256-.273-.265-.186-.331-.221-.039-.119-.428.031-.405-.314.193.077-.554-.221-.189.051-.214-.128-.171-.866.581-.232.06-.077.559-.216.288-.459-.358-.499-.48-.392-.433.083-.419-.567-.637-1.33.182.12.399-.37.089-.437-.505-.04-.188-.604.083.098.342-.723.107.064.344-.464.101-.45-2.67-.15-.663-.486-.461-.5-.234.012-.637-.166-.453v-.294l-.205-.5.071-.274-.005-.338-.49.277-.523.422-.022.187-.171.123-.836.093-.279.117-.295.022-.307-.623-.157-.17.004-.511-.273-1.305.136-.376-.985.1-.134.317-.537.032-.7.105-.91-.025-.918-.062-2.348-.048.027-.877-.024-.757.388-.221.921-.063.004-.081.544-.139.21-.904.126-.121.348.099.25-.161.105-.243-.469-.446.097-.231.007-.588-.232-.218.519-.51.319-.129.45-.046.34-.09.19-.324.061-.391.402-.54.81-.387.73-.856.15-.322.285.004 3.549-.155 1.14-.074 3.671-.127.494-1.35.427-1.04.052-.214-1.021-.166.063-.274-.169-.23-.071-.311-.266-.247-.264-.573-.33.106-.194-.04-.62.242-.218-.088-.316.02-.329-.182-1.286-.315.316-1.921-.423-.265-.248-.431-.605-.151-.369.077-.355-.846-.615-.39.568-1.25.234-.222.344-.15.67-.124-.066-.567.16-1.285.302-.692.134-.435.215.087.533.053-.171.985.976.25.362-1.443.66.119-.294 1.562-.168.4-.595.471-.369.18-.48.096.204.384.776.156.537.004.217.115.01.158.258.085.089.452-.554.546-.398.198 4.268-1.294.433.137.134-.241.499-.148.258.017.062-.119.963-.3.247-.14.943 1.06.077-.097-.232-.36.016-.301.396-.596 2.195-.675.947-.355-.128-.372-1.489-.137-.252-.124.026-.199-.268-.17.149-.428-.247-.161-.077-.373-.32-.101-.149-.202.113-.137-.129-.457.181-.635.314-.295-.098-.286.129-.286.195-.009.222.181.283-.157.186.082.273-.247.36.063-.051.318.324-.119.294-.429.314-.292-.041-.166-.242-.194.252-.176.289.15.118-.188-.211-.45.412-.128.067-.11-.206-.203.134-.36.556-.248.268-.427.165-.032.283.15.227-.109.602-.432.309-.05 2.251-.681-.149-.594.335-.098.036-.308.335-.03.015-.27.278-.066-.082.516.226.007.067-.23.35-.359-.103-.538.382-.14.041-.252.226-.175-.061-.281-.227-.085-.103.228-.211-.096.226-.218.088-.696-.211-.05.149-.447.139-.101-.474-.3.196-.272-1.525-.879-.829.396-.283.055-1.844.463-1.221.273-.175-.23-.494-.824-.603-1.466-.531-1.584.062-.26.18-1.65-.705.179-1.298.157-2.4.192-.114.324-.304.243-.134.01.036-.7-1.03-1.058-.304-.275.608-.173.933-.948.69.05.566-.055.175-1.718-.386-.605-.263-.142-.159-.468-.191.02-.499-.502-1.092-.656-1.839-2.194-1.885-1.392-1.612-1.711 1.302-.375-.07-.49 2.507-.096 2.173-.064.65-1.653.726-1.718-.469-.147-.5-.081-1.004-.354-.458-1.246-.742-1.886 1.942-4.47-3.328-2.957-1.764-.895-1.52-.816-1.085.975-.276-.354.226-.156-.237-.816-.172-.467-.163-.682-.192-.118-.571.33-.619.277-.567.193-.761-1.404.098-.843.92.639.01-.504.136-.203.381-.098.232.106.44-.056 2.869-4.102.882.04.189-.732 1.178.215-.03.24 1.473.454.34.127.17-.172.288.473.371.729.247.024-.051.251.566.082 1.036.243.134.383 1.365.269.355.228.386-.065.052-.25.237-.137.252.248.902-.065-.067-.265-.268-.082-.144-1.752-.294.074-.149-1.271-1.499-.502.443-1.7.484.217.984-.46.128-.629.32-.153-.263-1.357 1.174.268.103-.486 2.385.515.902.155.922-.716.345.065.345-.327 1.705 1.265 2.323-3.636-.041-1.565 6.788.504.66-.937.134-.114-.345-1.174 3.234-1.114.191-1.425.185.283.232.039.185-.123.232.081.237.29.546.323.453-.052.799.047 1.663.066.366-.147.84-.01.376.115 1.385.113.902-.02 1.004 1.387.422.273.531-.036.865-.39.304-.166.85.613 1.149.827.221.31-.402.644.057.344.438.086.237.298-.139.216.113.197-.02.398-.186.044-.041.787-.103.21.17.216-.34.413.088.284.298-.054.309-.275.34.11.253.395.778.453.278.417.623-.231.35.22-.417.465.36.598.145.073.438.042.793.147.144-.106.675-.912 2.58-.402.876.712 1.221 1.185.36.32 2.843.206.207-.008 3.039 1.642 1.576-1.789 1.385-1.584.093.309.742.061-.052-.67.015-.387.407-.706.145.267 17.095-.659.479 10.512.108 3.03.037 1.964.154.19.865-.405 1.17-.389 1.607-.336 1.895 1.84v1.073l-2.539 3.396.324 1.341-.036.264-.654.926 2.292-.004-.082-.534 2.137-.018.814.03h3.415l.134-.04 1.278-1.287 1.694.855 1.159.626 2.303-.08.458-.004 1.829-.267 1.854.197.7-.671.907-.006.082.237-.36.547-.397.394.01.415.139.272-.092.18.247.599.474.324.463.108.32.002-.021-.65.438-.05.422-.296.747-1.208.165-.334-.566.056-.392-2.817.85-1.29 1.499 1.745.206-.42.443-.7.165-.564 4.445 2.532.438.567.561.479 1.035.757 1.154-.276-.005-.252.664-.242.134-.241.428-.322.386.146 1.206.358 1.287-.074.031.386.299.078.139.475.762-.154.423.157 1.725.347.139 1.063.356.32-.763 4.127-.288.21-1.118.692-.304.35-.401.355-.206.111-.515.604-.243.223-.669.455.046.743-.062-.002.14 1.959-1.237.296.258 1.364.227 1.393-.964-.403-.757-.27-.19.567-.593.613-1.308 1.394-.835.198-1.916.357-.556.049-.505-.002.103 2.504.232 4.113 1.381-.046.031 1.088.443.277-.124.696.371.353.283.125.273.347-.057.427.026.368-1.287.127-1.201.05-.051-.76-.829-.536-.505-.61-1.324-.595-.293-.207-.268-.333-.232-.175-.335-.376-.129-.028-.422-.489.062-.387-.562-1.109.67-1.351-.603.052-.798-.012-1.221.092.093 1.177.041.981-.031.164-.479 1.64.026.673-.618 1.349.206 4.512 2.673 1.133-.17.832.289.928-.454.865-.051.298.067.39-.793.886-.17.035-.938 1.716-.417.498-.448.438-.263.035-3.873.631.639 3.854 1.097 2.425-.366.056-.366.282-.221.492-.134.078-.124.356.103.133.433.2-.067.546.731.062.526-.033.154.069.052.373.283.652.062.373-.876.132-.314 1.124-.196.554-1.22.14-.644.781-1.664 2.061-1.283.136.15 1.567.304.189-.181.755-.813 1.356.324.262-2.055 2.076.546.949-.819.668-.567-.019.021.434.402 3.7-.382.403.186 1.596-.541.225-.541.054.052 1.108-.454-.008-.314.076-.798-.225-.196.743-.85.317-.129.54.217.969-.371.849-.258 1.408.737 1.39-4.069.253-.119 1.028-3.806.273-.989.065.015.336.727.771-.212 1.874-.88-.083-.392.605-.953.531.278 1.22-1.426-.485-.448-.168-.51-.057.015-.252-.464-.584-.015-.465-.407-.547-.463-.277.036-.331-.376-.094-.242-.322-.222-.162-.082-.268-.155-.101.01-.342-.103-.357-.783-.143-.159-.682-.041-.404.133-.429.433-1.075.036-.344-.299-.222-.211-.43-.149-.193-.901-.188-.057-.105-.953-.367-.381.113-.51-.046-.206-.079-.675.163-.103-.02-1.669-3.659-.288-.284-1.401-1.015-1.443-1.091-1.246-.975-.989-.748-1.293-1.02-.396-.333-1-.716-.118-.08-1.839-.009-3.054-.031-.624.02-1.529.008-.217.381-1.411.044-.062-1.261-.989.027-2.926.109.031.453-.2-.126-.572.059-.474-.01-.165.142-.206-.034-.16-.383-.283-.06-.118-.254.17-.408-.232-.241-.562-.271-.18.055-.335 1.768-.891.913-.268-.067-.463.63-.144-.004-.371-.254-.165-.474-.69.037.046.869-.294.142-.097-.11-.114-.509-.01-.543-1.066.722-.005.167-.284.39-.463.485-.16.462-.304.339.052.735-.438.106-.309.215-.644.053-.314.141-.788.613-.026.165-1.695-.748-.953-.553.124-.36.551-.292.453.1.351-.221-.17-.251-.047-.33-.376-.639-.34-.847-.056-1.35.015-.426.185-.934-1.159-.726-.391-.454-.278-.52-.247-.33-.438-.154-.114-.165-.026-.426.057-.724.155-1.368-.124-.007-.35-.279-1.54.012-.237-.124-.376-.041-.613.199-1.072.705-.247.113-1.082-.021-.741.177-.778.702-1.736.994-.314.197-1.731 1.913" clip-rule="evenodd"/><path stroke="#000" stroke-linecap="round" stroke-linejoin="round" stroke-width=".2" d="m121.256 109.371-.139.152-.778.096-1.71 2.2-.036.126.417.816.433.223.948.67-.201.561.33.126.571.579-.051.221.103.304.304.478.437.03.17.076.459.353.144.197.18.04.485.329.149.203.098.319-.881.325-.139-.43-.515-.202-.33.065-.34.457-.432-.18-.15.098.191.589-.623-.008-.598-.24-.324.002-.443-.764-.572.049-.217-.301-.365.143-.402-.164-.036-.248-.701-.177-.273.132.258.542.561.451.371.61.325.305.309.216 1.525-.348 1.617 2.519-.114.178.237.483.031.391.85.525-.664 1.453-.376.226-.258-.203-.18-.505.211-.108.608-.057-.232-.723-.206-.374.175-.107-.02-.397-.134-.254-.412-.3-.835-.194-.283-.344-.309-.202-.577-.045-.381.926.469.512-.325.754.685 2.266-.669.463-.387.398-.329-.08.01-.756-1.89-1.769-.284-.106-.499-.495-1.649-.099-5.439-.206.227-.639.087-.427-.159-.064-.284-.322-.35-.192.129-.542.196-.25.952-.937-.134-.102-.102-.315-.83-.75-.134-.16-.139-.634-.479-.104-.468-.037-.423-.185-.283.112-.083.261-.303-.465-.51.256-.273-.265-.186-.331-.221-.039-.119-.428.031-.405-.314.193.077-.554-.221-.189.051-.214-.128-.171-.866.581-.232.06-.077.559-.216.288-.459-.358-.499-.48-.392-.433.083-.419-.567-.637-1.33.182.12.399-.37.089-.437-.505-.04-.188-.604.083.098.342-.723.107.064.344-.464.101-.45-2.67-.15-.663-.486-.461-.5-.234.012-.637-.166-.453v-.294l-.205-.5.071-.274-.005-.338-.49.277-.523.422-.022.187-.171.123-.836.093-.279.117-.295.022-.307-.623-.157-.17.004-.511-.273-1.305.136-.376-.985.1-.134.317-.537.032-.7.105-.91-.025-.918-.062-2.348-.048.027-.877-.024-.757.388-.221.921-.063.004-.081.544-.139.21-.904.126-.121.348.099.25-.161.105-.243-.469-.446.097-.231.007-.588-.232-.218.519-.51.319-.129.45-.046.34-.09.19-.324.061-.391.402-.54.81-.387.73-.856.15-.322.285.004 3.549-.155 1.14-.074 3.671-.127.494-1.35.427-1.04.052-.214-1.021-.166.063-.274-.169-.23-.071-.311-.266-.247-.264-.573-.33.106-.194-.04-.62.242-.218-.088-.316.02-.329-.182-1.286-.315.316-1.921-.423-.265-.248-.431-.605-.151-.369.077-.355-.846-.615-.39.568-1.25.234-.222.344-.15.67-.124-.066-.567.16-1.285.302-.692.134-.435.215.087.533.053-.171.985.976.25.362-1.443.66.119-.294 1.562-.168.4-.595.471-.369.18-.48.096.204.384.776.156.537.004.217.115.01.158.258.085.089.452-.554.546-.398.198 4.268-1.294.433.137.134-.241.499-.148.258.017.062-.119.963-.3.247-.14.943 1.06.077-.097-.232-.36.016-.301.396-.596 2.195-.675.947-.355-.128-.372-1.489-.137-.252-.124.026-.199-.268-.17.149-.428-.247-.161-.077-.373-.32-.101-.149-.202.113-.137-.129-.457.181-.635.314-.295-.098-.286.129-.286.195-.009.222.181.283-.157.186.082.273-.247.36.063-.051.318.324-.119.294-.429.314-.292-.041-.166-.242-.194.252-.176.289.15.118-.188-.211-.45.412-.128.067-.11-.206-.203.134-.36.556-.248.268-.427.165-.032.283.15.227-.109.602-.432.309-.05 2.251-.681-.149-.594.335-.098.036-.308.335-.03.015-.27.278-.066-.082.516.226.007.067-.23.35-.359-.103-.538.382-.14.041-.252.226-.175-.061-.281-.227-.085-.103.228-.211-.096.226-.218.088-.696-.211-.05.149-.447.139-.101-.474-.3.196-.272-1.525-.879-.829.396-.283.055-1.844.463-1.221.273-.175-.23-.494-.824-.603-1.466-.531-1.584.062-.26.18-1.65-.705.179-1.298.157-2.4.192-.114.324-.304.243-.134.01.036-.7-1.03-1.058-.304-.275.608-.173.933-.948.69.05.566-.055.175-1.718-.386-.605-.263-.142-.159-.468-.191.02-.499-.502-1.092-.656-1.839-2.194-1.885-1.392-1.612-1.711 1.302-.375-.07-.49 2.507-.096 2.173-.064.65-1.653.726-1.718-.469-.147-.5-.081-1.004-.354-.458-1.246-.742-1.886 1.942-4.47-3.328-2.957-1.764-.895-1.52-.816-1.085.975-.276-.354.226-.156-.237-.816-.172-.467-.163-.682-.192-.118-.571.33-.619.277-.567.193-.761-1.404.098-.843.92.639.01-.504.136-.203.381-.098.232.106.44-.056 2.869-4.102.882.04.189-.732 1.178.215-.03.24 1.473.454.34.127.17-.172.288.473.371.729.247.024-.051.251.566.082 1.036.243.134.383 1.365.269.355.228.386-.065.052-.25.237-.137.252.248.902-.065-.067-.265-.268-.082-.144-1.752-.294.074-.149-1.271-1.499-.502.443-1.7.484.217.984-.46.128-.629.32-.153-.263-1.357 1.174.268.103-.486 2.385.515.902.155.922-.716.345.065.345-.327 1.705 1.265 2.323-3.636-.041-1.565 6.788.504.66-.937.134-.114-.345-1.174 3.234-1.114.191-1.425.185.283.232.039.185-.123.232.081.237.29.546.323.453-.052.799.047 1.663.066.366-.147.84-.01.376.115 1.385.113.902-.02 1.004 1.387.422.273.531-.036.865-.39.304-.166.85.613 1.149.827.221.31-.402.644.057.344.438.086.237.298-.139.216.113.197-.02.398-.186.044-.041.787-.103.21.17.216-.34.413.088.284.298-.054.309-.275.34.11.253.395.778.453.278.417.623-.231.35.22-.417.465.36.598.145.073.438.042.793.147.144-.106.675-.912 2.58-.402.876.712 1.221 1.185.36.32 2.843.206.207-.008 3.039 1.642 1.576-1.789 1.385-1.584.093.309.742.061-.052-.67.015-.387.407-.706.145.267 17.095-.659.479 10.512.108 3.03.037 1.964.154.19.865-.405 1.17-.389 1.607-.336 1.895 1.84v1.073l-2.539 3.396.324 1.341-.036.264-.654.926 2.292-.004-.082-.534 2.137-.018.814.03h3.415l.134-.04 1.278-1.287 1.694.855 1.159.626 2.303-.08.458-.004 1.829-.267 1.854.197.7-.671.907-.006.082.237-.36.547-.397.394.01.415.139.272-.092.18.247.599.474.324.463.108.32.002-.021-.65.438-.05.422-.296.747-1.208.165-.334-.566.056-.392-2.817.85-1.29 1.499 1.745.206-.42.443-.7.165-.564 4.445 2.532.438.567.561.479 1.035.757 1.154-.276-.005-.252.664-.242.134-.241.428-.322.386.146 1.206.358 1.287-.074.031.386.299.078.139.475.762-.154.423.157 1.725.347.139 1.063.356.32-.763 4.127-.288.21-1.118.692-.304.35-.401.355-.206.111-.515.604-.243.223-.669.455.046.743-.062-.002.14 1.959-1.237.296.258 1.364.227 1.393-.964-.403-.757-.27-.19.567-.593.613-1.308 1.394-.835.198-1.916.357-.556.049-.505-.002.103 2.504.232 4.113 1.381-.046.031 1.088.443.277-.124.696.371.353.283.125.273.347-.057.427.026.368-1.287.127-1.201.05-.051-.76-.829-.536-.505-.61-1.324-.595-.293-.207-.268-.333-.232-.175-.335-.376-.129-.028-.422-.489.062-.387-.562-1.109.67-1.351-.603.052-.798-.012-1.221.092.093 1.177.041.981-.031.164-.479 1.64.026.673-.618 1.349.206 4.512 2.673 1.133-.17.832.289.928-.454.865-.051.298.067.39-.793.886-.17.035-.938 1.716-.417.498-.448.438-.263.035-3.873.631.639 3.854 1.097 2.425-.366.056-.366.282-.221.492-.134.078-.124.356.103.133.433.2-.067.546.731.062.526-.033.154.069.052.373.283.652.062.373-.876.132-.314 1.124-.196.554-1.22.14-.644.781-1.664 2.061-1.283.136.15 1.567.304.189-.181.755-.813 1.356.324.262-2.055 2.076.546.949-.819.668-.567-.019.021.434.402 3.7-.382.403.186 1.596-.541.225-.541.054.052 1.108-.454-.008-.314.076-.798-.225-.196.743-.85.317-.129.54.217.969-.371.849-.258 1.408.737 1.39-4.069.253-.119 1.028-3.806.273-.989.065.015.336.727.771-.212 1.874-.88-.083-.392.605-.953.531.278 1.22-1.426-.485-.448-.168-.51-.057.015-.252-.464-.584-.015-.465-.407-.547-.463-.277.036-.331-.376-.094-.242-.322-.222-.162-.082-.268-.155-.101.01-.342-.103-.357-.783-.143-.159-.682-.041-.404.133-.429.433-1.075.036-.344-.299-.222-.211-.43-.149-.193-.901-.188-.057-.105-.953-.367-.381.113-.51-.046-.206-.079-.675.163-.103-.02-1.669-3.659-.288-.284-1.401-1.015-1.443-1.091-1.246-.975-.989-.748-1.293-1.02-.396-.333-1-.716-.118-.08-1.839-.009-3.054-.031-.624.02-1.529.008-.217.381-1.411.044-.062-1.261-.989.027-2.926.109.031.453-.2-.126-.572.059-.474-.01-.165.142-.206-.034-.16-.383-.283-.06-.118-.254.17-.408-.232-.241-.562-.271-.18.055-.335 1.768-.891.913-.268-.067-.463.63-.144-.004-.371-.254-.165-.474-.69.037.046.869-.294.142-.097-.11-.114-.509-.01-.543-1.066.722-.005.167-.284.39-.463.485-.16.462-.304.339.052.735-.438.106-.309.215-.644.053-.314.141-.788.613-.026.165-1.695-.748-.953-.553.124-.36.551-.292.453.1.351-.221-.17-.251-.047-.33-.376-.639-.34-.847-.056-1.35.015-.426.185-.934-1.159-.726-.391-.454-.278-.52-.247-.33-.438-.154-.114-.165-.026-.426.057-.724.155-1.368-.124-.007-.35-.279-1.54.012-.237-.124-.376-.041-.613.199-1.072.705-.247.113-1.082-.021-.741.177-.778.702-1.736.994-.314.197-1.731 1.913"/><path id="Вараський" fill="#C8C6C6" fill-rule="evenodd" d="m87.558 101.575-.215.423-.373.192-.293.019-.515.268-.427-.029-.937.018-.396.073-.044.37-.211.087-.817 1.467-.587-.676-4.74-5.154-3.244-.466-.779-.139-.213-.084.013-.309-.132-.208.208-.41-.172-.275.218-.28-.183-.09.206-.527-.105-.385-.376-.114-.205-.326-.065-.382-.372.2-.01-.262-.142-.251-.137-.575.245.204.157.011.123-.265-.194-.064.123-.56-.288-.293.174-.28-.144-.14.176-.193-.402-.182-.115-.277-.5-.098-.146-.106.018-.208-.118-.217-.241-.159v-.234l-.41-.263-.645-.084.058-.15-.28-.18-.139.157-.242-.087-.157.119-.267-.17.497-.556-.023-.68-.28-.03-.533.75.003-.308-.193-.198.153-.263-.048-.606-.326.013-.065.163-.63-.288.176-.445-.406.01.087-.295.259-.288-.322-.302-.357-.038-.014-.291-.27.084-.627-.173-.178-.215-.133.146-.633-.091-.378-.612-.352-.474-.506-.289.084-.36-.264-.004-.081-.111-.04-1.235-.066-.075-.444.038-.174-.311.179-.218.013-.33.319-.114.454-.445.073-.36-.085-.265.115-.128.135-.384-.11-.199-.302-.033-.362-.493.359-.558.454-.081.019-.295.454-.035.239-.153-.375-.346-.252-.457-.49-.747-2.02 1.692-1.548-.549-.654.6-2.197-.933.283-1.892.09-.716-2.946.034.136.482-.785 1.022.527.611.11.532-.422.107-.724-.31-.74.24-.132.497-.505.132.068-.128-.368-.92.922.024.13-.102-.256-.381.043-.472-.162-.595-.802.211-.213-1.675-.699-.509-.21-.58-.428-.442-1.125.299-.181-.565-.822.25-.874-3.032.53-.77v-.615l-.042-2.174-.04-.924.002-.902-.197-.061-.505.139-1.283.136.486-2.45-.452.008-1.384.276.688-1.888-1.325.317-.064-.32-.31.334-2.943.533-.45-2.558 3.828-.696-.032-.338-1.044-.729-1.024-.124-.447-.869.761-1.984.664-.672.51-.177.67-.232.016-.606-.435-.451.547-.886.099-.596-.36-.863-.73-.652-.123-.435-.182-1.324-.271-.53-1.266.811-.737-2.921-1.145.657.14.425-.977.335-.17-2.335 3.205-.22-.084.865.918.235.94-2.703 1.69.46.121-.326.22-.66.39-.506.127-.296-.03-.504.343-.334.374-.705-.07-.112.06-.375-.11-.247.267-.272.518-.157.175-.53.34-.49-.175-.097-.026-.396-.164-.172-.024-.285.126-.137.672-.239.076-.22.22-.154-.02-.29.075-.287.021-.514.091-.266-.11-.43-.138-.151.97-1.056.508-.553.037-.615-.191-.49-.182-.318.315-.323.578-.939.258-.327.004-.387.516-1.456.125-.056-.258-.534-.315-.496-.561-1.34-.034.186-.713.922-.4.157-.222-.35-.31-.032.459-1.977.36-.332-.517-.94-.51-.07-.28-.94-.995-.828.033-.447.258.063.093-.163-.188-.582.18-.278.236.01.281-.177.115-.256.273.201.24-.413-.201-.133-.039-.324.159-.308-.088-.244.12-.161-.25-.167-.44-.717-.078.02-.108-.9.131-.173-.106-.304.095-.46-.042-.278.44-.517.32.124.037-.484.46-.532.58-1.338.468-.649.314-.19.323-.103.59-.444.547-.266 1.722-1.842-1.927-.821-.752-.174-4.132-.214-.015-.197-.646-.132-1.667-1.254-.524-.004.182-.38-.315-.882.254.106 5.5.608 2.998.32 1.003.095.513-.098 1.925-.493.552-.083.96-.295.333-.072 1.165.292.644-.015-.14-.64-.705-2.084L58.48.238l1.358.074.02.54 2.376-.083.962.325.272.13.047.808-.431-.011-.063 1.135.321.173.254.363.282.104.425-.26.327.08.554.037 1.043-.072.736.08.262.166.112.228.274.188.545-.19.37.214.313.036.203.18.777-.062.389-.185.264.043.354.21.249.076.372.328.253.117.564.022.473-.199.287.155.248-.347.216.01.114-.166V4.25l.519.06.4.202.075-.229-.184-.138.227-.16.215.05.094-.146.22.02.207-.145.072.336.226-.116-.072-.504.387-.12.04.334.4-.227.411-.123-.051-.27.303.107.151-.324 4.585.877.606 1.494 1.108.041 1.478.03.384.092.843.03.148.116.4.769-.05.131.426.638.504.177.606.539.354.272.19-.03.408 1.274.366.346.106.341.677.64.422-.214.04-.357.82.136-.152.196.106.154-.065 1.243.04.086.543-.258.23.107.354-.05.2.147.209-.142.056-.325.114-.01.52.266.02.07.68.576.655-.171.08.043 1.51-.55.316.116-.017-.581.56.162 2.312-.106 1.764-.14.067.376.175.352.654-.296.247-.07.464.316.772.872 2.081-.492.958-.03.531.087 1.035.119.634-.095.463.014 2.066-2.104.01 2.956-.005 1.284.01 2.226 2.653-.274.953 2.034 2.354.745.051 1.812.041 1.564-2.323 3.637-1.705-1.265-.345.326-.345-.064-.922.716-.901-.156-2.385-.515-.103.486-1.174-.267.262 1.356-.319.154-.129.628-.984.46-.484-.217-.443 1.7 1.499.502.15 1.272.293-.075.144 1.752.268.083.067.265-.901.065-.253-.248-.237.136-.051.25-.386.066-.356-.229-1.365-.268-.134-.384-1.035-.243-.567-.081.052-.252-.247-.024-.371-.729-.289-.473-.17.173-.34-.128-1.473-.454.03-.24-1.178-.215-.188.733-.883-.04-2.87 4.102-.438.055-.232-.106-.382.099-.135.202-.01.505-.92-.64-.099.843.761 1.405.568-.193.618-.278.572-.33.192.119.162.682.172.467.238.815-.226.156.276.354 1.085-.974 1.52.816 1.763.895 3.328 2.956-1.942 4.47.742 1.887.459 1.246 1.004.353.5.082.468.146-.726 1.718-.649 1.654-2.174.064-2.506.095.07.49-1.303.375 1.612 1.712 1.885 1.391 1.839 2.195 1.092.656.5.501.19-.019.16.467.263.143.386.604-.175 1.719-.567.054-.69-.05-.932.949-.608.172.304.275 1.03 1.058-.036.7.134-.01.304-.243.113-.323 2.4-.192 1.298-.158.706-.178-.18 1.65-.062.26.53 1.584.603 1.466.495.824.175.23 1.221-.274 1.843-.462.284-.056.829-.396 1.525.88-.196.271.474.3-.139.102-.15.446.212.05-.088.697-.227.218.212.095.103-.227.226.084.062.281-.227.175-.041.252-.381.14.103.539-.35.358-.067.23-.227-.007.083-.515-.279.066-.015.27-.335.03-.036.307-.335.099.15.593-2.251.68-.309.052-.603.432-.226.11-.284-.152-.165.032-.267.428-.557.247-.134.361.206.202-.067.11-.412.129.212.45-.119.187-.288-.15-.253.177.242.194.042.166-.315.292-.293.429-.325.119.052-.319-.361-.062-.273.246-.185-.081-.283.157-.222-.181-.196.008-.128.286.097.287-.314.294-.18.636.129.456-.114.138.15.201.319.101.077.373.248.161-.15.428.268.171-.026.199.253.124 1.488.137.129.371-.948.356-2.194.674-.397.596-.015.3.232.361-.078.097-.942-1.059-.247.139-.964.3-.061.12-.258-.018-.5.148-.134.241-.432-.137-4.268 1.294.398-.198.554-.546-.09-.452-.258-.085-.01-.158-.216-.115-.537-.004-.776-.156-.204-.384.48-.096.368-.18.596-.47.167-.4.296-1.563-.661-.118-.362 1.442-.977-.25.172-.985-.533-.052-.215-.087-.134.435-.302.692-.16 1.285.066.566-.67.124-.344.15-.234.222-.569 1.25.616.391.355.845.368-.077.606.151.248.432.422.264-.315 1.921 1.286.315.328.182.317-.02.218.089.62-.242.194.04.33-.106.264.573.266.246.071.312.169.23-.063.274 1.021.166-.052.213-.427 1.041-.494 1.35-3.672.127-1.14.073-3.548.156-.285-.004-.15.322-.73.855-.81.387-.402.541-.062.39-.19.325-.339.089-.45.046-.32.13-.518.51" clip-rule="evenodd"/><path stroke="#000" stroke-linecap="round" stroke-linejoin="round" stroke-width=".2" d="m87.558 101.575-.215.423-.373.192-.293.019-.515.268-.427-.029-.937.018-.396.073-.044.37-.211.087-.817 1.467-.587-.676-4.74-5.154-3.244-.466-.779-.139-.213-.084.013-.309-.132-.208.208-.41-.172-.275.218-.28-.183-.09.206-.527-.105-.385-.376-.114-.205-.326-.065-.382-.372.2-.01-.262-.142-.251-.137-.575.245.204.157.011.123-.265-.194-.064.123-.56-.288-.293.174-.28-.144-.14.176-.193-.402-.182-.115-.277-.5-.098-.146-.106.018-.208-.118-.217-.241-.159v-.234l-.41-.263-.645-.084.058-.15-.28-.18-.139.157-.242-.087-.157.119-.267-.17.497-.556-.023-.68-.28-.03-.533.75.003-.308-.193-.198.153-.263-.048-.606-.326.013-.065.163-.63-.288.176-.445-.406.01.087-.295.259-.288-.322-.302-.357-.038-.014-.291-.27.084-.627-.173-.178-.215-.133.146-.633-.091-.378-.612-.352-.474-.506-.289.084-.36-.264-.004-.081-.111-.04-1.235-.066-.075-.444.038-.174-.311.179-.218.013-.33.319-.114.454-.445.073-.36-.085-.265.115-.128.135-.384-.11-.199-.302-.033-.362-.493.359-.558.454-.081.019-.295.454-.035.239-.153-.375-.346-.252-.457-.49-.747-2.02 1.692-1.548-.549-.654.6-2.197-.933.283-1.892.09-.716-2.946.034.136.482-.785 1.022.527.611.11.532-.422.107-.724-.31-.74.24-.132.497-.505.132.068-.128-.368-.92.922.024.13-.102-.256-.381.043-.472-.162-.595-.802.211-.213-1.675-.699-.509-.21-.58-.428-.442-1.125.299-.181-.565-.822.25-.874-3.032.53-.77v-.615l-.042-2.174-.04-.924.002-.902-.197-.061-.505.139-1.283.136.486-2.45-.452.008-1.384.276.688-1.888-1.325.317-.064-.32-.31.334-2.943.533-.45-2.558 3.828-.696-.032-.338-1.044-.729-1.024-.124-.447-.869.761-1.984.664-.672.51-.177.67-.232.016-.606-.435-.451.547-.886.099-.596-.36-.863-.73-.652-.123-.435-.182-1.324-.271-.53-1.266.811-.737-2.921-1.145.657.14.425-.977.335-.17-2.335 3.205-.22-.084.865.918.235.94-2.703 1.69.46.121-.326.22-.66.39-.506.127-.296-.03-.504.343-.334.374-.705-.07-.112.06-.375-.11-.247.267-.272.518-.157.175-.53.34-.49-.175-.097-.026-.396-.164-.172-.024-.285.126-.137.672-.239.076-.22.22-.154-.02-.29.075-.287.021-.514.091-.266-.11-.43-.138-.151.97-1.056.508-.553.037-.615-.191-.49-.182-.318.315-.323.578-.939.258-.327.004-.387.516-1.456.125-.056-.258-.534-.315-.496-.561-1.34-.034.186-.713.922-.4.157-.222-.35-.31-.032.459-1.977.36-.332-.517-.94-.51-.07-.28-.94-.995-.828.033-.447.258.063.093-.163-.188-.582.18-.278.236.01.281-.177.115-.256.273.201.24-.413-.201-.133-.039-.324.159-.308-.088-.244.12-.161-.25-.167-.44-.717-.078.02-.108-.9.131-.173-.106-.304.095-.46-.042-.278.44-.517.32.124.037-.484.46-.532.58-1.338.468-.649.314-.19.323-.103.59-.444.547-.266 1.722-1.842-1.927-.821-.752-.174-4.132-.214-.015-.197-.646-.132-1.667-1.254-.524-.004.182-.38-.315-.882.254.106 5.5.608 2.998.32 1.003.095.513-.098 1.925-.493.552-.083.96-.295.333-.072 1.165.292.644-.015-.14-.64-.705-2.084L58.48.238l1.358.074.02.54 2.376-.083.962.325.272.13.047.808-.431-.011-.063 1.135.321.173.254.363.282.104.425-.26.327.08.554.037 1.043-.072.736.08.262.166.112.228.274.188.545-.19.37.214.313.036.203.18.777-.062.389-.185.264.043.354.21.249.076.372.328.253.117.564.022.473-.199.287.155.248-.347.216.01.114-.166V4.25l.519.06.4.202.075-.229-.184-.138.227-.16.215.05.094-.146.22.02.207-.145.072.336.226-.116-.072-.504.387-.12.04.334.4-.227.411-.123-.051-.27.303.107.151-.324 4.585.877.606 1.494 1.108.041 1.478.03.384.092.843.03.148.116.4.769-.05.131.426.638.504.177.606.539.354.272.19-.03.408 1.274.366.346.106.341.677.64.422-.214.04-.357.82.136-.152.196.106.154-.065 1.243.04.086.543-.258.23.107.354-.05.2.147.209-.142.056-.325.114-.01.52.266.02.07.68.576.655-.171.08.043 1.51-.55.316.116-.017-.581.56.162 2.312-.106 1.764-.14.067.376.175.352.654-.296.247-.07.464.316.772.872 2.081-.492.958-.03.531.087 1.035.119.634-.095.463.014 2.066-2.104.01 2.956-.005 1.284.01 2.226 2.653-.274.953 2.034 2.354.745.051 1.812.041 1.564-2.323 3.637-1.705-1.265-.345.326-.345-.064-.922.716-.901-.156-2.385-.515-.103.486-1.174-.267.262 1.356-.319.154-.129.628-.984.46-.484-.217-.443 1.7 1.499.502.15 1.272.293-.075.144 1.752.268.083.067.265-.901.065-.253-.248-.237.136-.051.25-.386.066-.356-.229-1.365-.268-.134-.384-1.035-.243-.567-.081.052-.252-.247-.024-.371-.729-.289-.473-.17.173-.34-.128-1.473-.454.03-.24-1.178-.215-.188.733-.883-.04-2.87 4.102-.438.055-.232-.106-.382.099-.135.202-.01.505-.92-.64-.099.843.761 1.405.568-.193.618-.278.572-.33.192.119.162.682.172.467.238.815-.226.156.276.354 1.085-.974 1.52.816 1.763.895 3.328 2.956-1.942 4.47.742 1.887.459 1.246 1.004.353.5.082.468.146-.726 1.718-.649 1.654-2.174.064-2.506.095.07.49-1.303.375 1.612 1.712 1.885 1.391 1.839 2.195 1.092.656.5.501.19-.019.16.467.263.143.386.604-.175 1.719-.567.054-.69-.05-.932.949-.608.172.304.275 1.03 1.058-.036.7.134-.01.304-.243.113-.323 2.4-.192 1.298-.158.706-.178-.18 1.65-.062.26.53 1.584.603 1.466.495.824.175.23 1.221-.274 1.843-.462.284-.056.829-.396 1.525.88-.196.271.474.3-.139.102-.15.446.212.05-.088.697-.227.218.212.095.103-.227.226.084.062.281-.227.175-.041.252-.381.14.103.539-.35.358-.067.23-.227-.007.083-.515-.279.066-.015.27-.335.03-.036.307-.335.099.15.593-2.251.68-.309.052-.603.432-.226.11-.284-.152-.165.032-.267.428-.557.247-.134.361.206.202-.067.11-.412.129.212.45-.119.187-.288-.15-.253.177.242.194.042.166-.315.292-.293.429-.325.119.052-.319-.361-.062-.273.246-.185-.081-.283.157-.222-.181-.196.008-.128.286.097.287-.314.294-.18.636.129.456-.114.138.15.201.319.101.077.373.248.161-.15.428.268.171-.026.199.253.124 1.488.137.129.371-.948.356-2.194.674-.397.596-.015.3.232.361-.078.097-.942-1.059-.247.139-.964.3-.061.12-.258-.018-.5.148-.134.241-.432-.137-4.268 1.294.398-.198.554-.546-.09-.452-.258-.085-.01-.158-.216-.115-.537-.004-.776-.156-.204-.384.48-.096.368-.18.596-.47.167-.4.296-1.563-.661-.118-.362 1.442-.977-.25.172-.985-.533-.052-.215-.087-.134.435-.302.692-.16 1.285.066.566-.67.124-.344.15-.234.222-.569 1.25.616.391.355.845.368-.077.606.151.248.432.422.264-.315 1.921 1.286.315.328.182.317-.02.218.089.62-.242.194.04.33-.106.264.573.266.246.071.312.169.23-.063.274 1.021.166-.052.213-.427 1.041-.494 1.35-3.672.127-1.14.073-3.548.156-.285-.004-.15.322-.73.855-.81.387-.402.541-.062.39-.19.325-.339.089-.45.046-.32.13-.518.51"/><path id="Дубенський" fill="#C8C6C6" fill-rule="evenodd" d="m31.702 245.264-.037.703.16.334.49.676 2.355.354.433 1.618-2.054.467.106.494-1.01.033.267 1.615-.504.129-.029.82-1.023.346-.097.335-.518 2.192-.801.312-.492.113-.693.085-.782.032-1.215.007-.554.16-1.229.23-.306 3.015-.076.823-.822-.137-.084.997-.136.815-.499-.457-.757-.485-.23-.164-.563-.207-.284-.264-.174-.531-.642-.677-.214-.424-.121-.375-.302-.194-.171-.311-1.371-2.008-1.248-1.556-.186-.393-.432-.634-.913-1.258-.394-.516-.563-.887-.662-.944-.964-1.249-.817-1.145-.28-.461-.87-1.599.027-.199.401-1.594.216-.655.141-.668.03-.491.111-.444-.123-.164-.46-.163-.022-.326.256-.448.574-.152.153-.682.208-.422-.688-.801-1.372-.95-.923-.568-.842-.692-.265-.51-.117-.394.079-.298.065-.758.2-.773 1.181-.161.102-.226-.1-.578-.174-.247.162-.545.463-1.181.114-.45 1.397.19-.266-.843-.008-.902.046-1.903.086-.604-2.079-1.087-.471-.231-1.037-.149-.337.036-.409.113-.964.364-.483.288-.734.295-.938-.148-.342-.22-.014-.313-.112-.925-.838-.113-.093-.701.531.066-.008-.744.32.038-.116-.923 1.943.217v-.39l-.2-.659 1.373-.69.872-.465.848-.506-.945-1.278-.767-.472.512-1.036-.407-.903-.253-.423.192-.325-.472-.593.206-.158.512.057.224-.034.466-.353.283-.124-.043-.284.303-.095-.139-.391.145-.05.428.038-.134.303.372.041.036.332.114.184-.208.101.083.178.425.324.041.284.21.114-.148.43.418.075.02-.243.24.141.436-.234.307.314.017-.262.29.107.103-.349.203-.152.223-.026.144-.163-.264-.113.036-.158.421-.343.046-.4-.152-.518.237-.216-.154-.078-.24.188-.108-.237.141-.171-.12-.318-.213-.044-.026-.229.077-.279-.162-.233-.308-.201-.5-.244-.448-.091-.503-.017.025.161-.267.29-.14-.198-.162.075-.318-.254-.14-.327.12-.339.24-.078-.202-.449.043-.462-.121-.405-.194-.154.132-.331-.168-.157.142-.141-.13-.265-.305.103-.23-.262.015-.148-.2-.174.017-.242-.172-.192.17-.123-.009-.309-.43-.008-.118.197-.235.023-.123-.205-.175.229-.127-.153-.33.144-.13-.224.084-.326-.247-.401.022-.291.143-.171.217-.007.089-.487.216.292.233-.26-.018-.189.217-.225.308.177-.152-.574-.22-.616-.953-.095.1-.493-.07-.578-.283.134-.48-.024-.602-.228-.78-.47-1.23-.365-.374-.208-.368-.279-.469-.481.23-.055.301.052.55.391.515.235.787-.178.547.147.44.162.725.177.37.03.21-.438.47.246.15.252.406.164.024-.68.287-.893.134-.33.172-.648.013-.745.086-.563.023-.703-.036-.615-.22-.472-.378-.272.039-.273-.153-.318-.615-.768-.41-.137-.657-.356-.348-.134-.398-.311-.11-.251.182-.861-.04-.46-.182-.667.087-1.151.178.05.507.402.582.331.15-.058 1.237.112.369-.116.893-.192.758-.046.232-.06.971-.094-.206.533-.022.23.248.367.46.102.793.061.717.007 1.29.054.873.284.492.211-.228.482 1.086.148 1.182-.021.521-.449.23-.079.561-.091.42-.133.098-.138.363.006.284-.383-.167-.077.385-.455.46.131.285-.132.122-.484.259-.575-.035-.219.54-1.698-.058-.726-.158-1.261-.486.177-1.087.345.296-1.665.099-.78-.55-.041-.123-.489.236-.299-.106-.178.025-.54-.256-.031-.282-.131-.04-2.632.753-.003.491.048.467.195.158.321.364.545.326.285.451 1.072.398-.084.33.014.374-.172.848-.067-.13.435.04.123 1.16.099 1.092-.012.58.104.275.057.64.041.424.077.194-.304-.176-.344-.01-.226-.126-.28-.333-.156-.001-.31-.322.078-.113-.16-.08-.589-.127-.126-.162.235-.118-.72.3-.047-.274-.239-.36-.001.108-.234-.762-.283-.44.143-.49-.065-.336-.156.029-.23.436-.177.108-.587-.257.1-.235.417-.188-.21-.268-.033.063-.292.14-.232-.14-.14-.016-.255.1-.167.177.022.119.533.184-.571.275-.289.777-.343.096.084-.09.278.563.044.14-.064.058-.256.182-.2.204.024.183-.427-.026-.454-.145-.3.294-.227-.068-1.237-.207-.403-.303-.397-.44-.109-.094-.159.33-.253-.482-.289.36-.229.1-.278.157-.027.3.108.277.586.476.74-.104.06.238.313.154.402.15.127.07.235.285-.001.158.334.238.088.275-.073.286.314.376.051.17-.076.65.008.56.263.286-.079.677.25.674.013.492.153.18-1.266-.014-.182-.17-.29.836-.646.279.369.038.243.166.407.521-.203.768-.335 1.1-.436-.061-.155.836-.471 1.474-.099.688-.338 2.153-.991-.014.37.298-.09.442-.326.557-.622.752-.033.398.028.305.398.172.143.32.059-.19-.865v-.823l-.108.001-.004-.395-.083-.404.157-.199.415-.106.22-.134.466.174.71.064.245.148.328.066 1.68-.338 1.12-.274 1.81-.506 1.055-.307.09.754.151.859.101.78-.289.106.098.436.114.189.372.12.238.257.132.398-.028.164.29.463.587.579.504.413-.321.254-.476.243-.435.085-.043.418.158.638.273-.04 1.084.022.55.075.385.106.553.042.327-.25.389-.032.244-.106.628-.097.402-.255.57-.132.627.467.561.402.505.422.708 1.443.246.462.956 1.938.25.563.046.2-.043.522.18.382.241.196.074.239.167.223.27.081-.486.676-.132.097-.634.763.027.116-.424.215.411.584.102.244.167.116.251-.899 1.219.114.126-.294.31.007.303-.222.429-.144.176-.004.43.166.613.305.096.136.555.29.204-.057 1.08.374.195.547.175.253 1.262-.097.023.52.543.056.19 1.434-.072 1.733.437.258-.596.298-.326.367.79.859.123-.127.705.739.058.218.277.294.34.251.36.67.236.353.744-.458.379-.801 1.207.285.66.25.31.051.455.257.465.437-.59 1.441-.4-.082-.248.264-.122.265-.202.21.4.914.504.152.24-.324 1.042.783.185-.311.234-.047.056-.234.923.121.524.411.119.494.91-.464.854-.689.793-.523.9-.534.48-.393 1.391-2.152.59.291-.117.34.105.52.615 2.83.26 1.163.068.543-.327-.021-.324 2.172.095.829.047.14-.281-.007-.5-.37-.616-.305-.142-.13-.28 1.248-.135.879-.305.929-.288.354-.26-.081-.729 1.711 1.76 1.483-.766 1.786.337.129-.081.127-.116.935-.924-.104.118.588-.096.763.109.356.325.466.05.569-.039.675-.081.108-.555.243-.705.06-.534.19-.394-.12-.81.05-.766-.318-.604-.148-.208-.388-.023-.279-.72.142-1.09-.289-1.167-.424-.245.117-.29.023-.248.103-.866-.238-.562.118-.148.099-.094.233-.674-.345-.507-.122-.35.111-.532.156.411.496.88.374.317.229-.479.64-.252.727-.21.44-.119.137.747.711.188.209.375.639.15-.012.623.237-.056.389.473.058.794.015.144-.254.36.143.098.644.274 1.31.705.5.199.913.245.021.291.968.153 1.105.39.507 1.802 2.072.732.729 1.473 1.282 1.195.949.853-.107.801-.208.235.198.202.309.532-.656.34.052.625.177.241-.061.232-.313.77-.173 1.002.336-.48 1.059-.415.967-.28.873-.112.462-.197.604-1.165-.463-1.374-.519-.371-.066-.888-.842-.23-.103-.535.405-.564.615-1.69 1.735-.101.052-.909.88-.97.098-.121-.898-.154-.243-.455-.392-.713-.35-.602-.014-.404.14-.79-.465-.107-.477-.518-.932-.603-.133-.701.262-.138-.091-.874-.068-.665.131-.347.148-.179.083-.019.227.157.333-.004.161-.451.381-1.602 1.449-.57.719-.658.968-.553.317-.005.349-.122.293-.378.228-.184.4.12.667-.23.272-.467.777-.46.708-.357.033-.735.246-.268.142-.182.215-.463.242-.176.017-.272.185-.153-.044-.247.108-.181.29-.377-.223-.189.045-.395-.214-.714-.065-.538-.126-.659.253-.295.223-.135-.01-.725.165-.523-.1-.316.067-.116.284-.604-.14-.398-.249-.476-.238-.762-.288-.41.05-.235-.256-.4 1.249-.03.262-.173.073.012.176-.369.106-.939.118-.275.09-.806-.864-.763.08-4.96 3.247-.113-.028-.454-.4-.835-.956-1.367-.908-.887-.529-.215-.172-.4-.158-.981 1.881-.822 1.545-.16-.082-1.422-.258-3.08-.469.142-1.053-1.09-.101-1.016-.119-1.026.945-1.243 1.113-.02.958-.013 1.791" clip-rule="evenodd"/><path stroke="#000" stroke-linecap="round" stroke-linejoin="round" stroke-width=".2" d="m31.702 245.264-.037.703.16.334.49.676 2.355.354.433 1.618-2.054.467.106.494-1.01.033.267 1.615-.504.129-.029.82-1.023.346-.097.335-.518 2.192-.801.312-.492.113-.693.085-.782.032-1.215.007-.554.16-1.229.23-.306 3.015-.076.823-.822-.137-.084.997-.136.815-.499-.457-.757-.485-.23-.164-.563-.207-.284-.264-.174-.531-.642-.677-.214-.424-.121-.375-.302-.194-.171-.311-1.371-2.008-1.248-1.556-.186-.393-.432-.634-.913-1.258-.394-.516-.563-.887-.662-.944-.964-1.249-.817-1.145-.28-.461-.87-1.599.027-.199.401-1.594.216-.655.141-.668.03-.491.111-.444-.123-.164-.46-.163-.022-.326.256-.448.574-.152.153-.682.208-.422-.688-.801-1.372-.95-.923-.568-.842-.692-.265-.51-.117-.394.079-.298.065-.758.2-.773 1.181-.161.102-.226-.1-.578-.174-.247.162-.545.463-1.181.114-.45 1.397.19-.266-.843-.008-.902.046-1.903.086-.604-2.079-1.087-.471-.231-1.037-.149-.337.036-.409.113-.964.364-.483.288-.734.295-.938-.148-.342-.22-.014-.313-.112-.925-.838-.113-.093-.701.531.066-.008-.744.32.038-.116-.923 1.943.217v-.39l-.2-.659 1.373-.69.872-.465.848-.506-.945-1.278-.767-.472.512-1.036-.407-.903-.253-.423.192-.325-.472-.593.206-.158.512.057.224-.034.466-.353.283-.124-.043-.284.303-.095-.139-.391.145-.05.428.038-.134.303.372.041.036.332.114.184-.208.101.083.178.425.324.041.284.21.114-.148.43.418.075.02-.243.24.141.436-.234.307.314.017-.262.29.107.103-.349.203-.152.223-.026.144-.163-.264-.113.036-.158.421-.343.046-.4-.152-.518.237-.216-.154-.078-.24.188-.108-.237.141-.171-.12-.318-.213-.044-.026-.229.077-.279-.162-.233-.308-.201-.5-.244-.448-.091-.503-.017.025.161-.267.29-.14-.198-.162.075-.318-.254-.14-.327.12-.339.24-.078-.202-.449.043-.462-.121-.405-.194-.154.132-.331-.168-.157.142-.141-.13-.265-.305.103-.23-.262.015-.148-.2-.174.017-.242-.172-.192.17-.123-.009-.309-.43-.008-.118.197-.235.023-.123-.205-.175.229-.127-.153-.33.144-.13-.224.084-.326-.247-.401.022-.291.143-.171.217-.007.089-.487.216.292.233-.26-.018-.189.217-.225.308.177-.152-.574-.22-.616-.953-.095.1-.493-.07-.578-.283.134-.48-.024-.602-.228-.78-.47-1.23-.365-.374-.208-.368-.279-.469-.481.23-.055.301.052.55.391.515.235.787-.178.547.147.44.162.725.177.37.03.21-.438.47.246.15.252.406.164.024-.68.287-.893.134-.33.172-.648.013-.745.086-.563.023-.703-.036-.615-.22-.472-.378-.272.039-.273-.153-.318-.615-.768-.41-.137-.657-.356-.348-.134-.398-.311-.11-.251.182-.861-.04-.46-.182-.667.087-1.151.178.05.507.402.582.331.15-.058 1.237.112.369-.116.893-.192.758-.046.232-.06.971-.094-.206.533-.022.23.248.367.46.102.793.061.717.007 1.29.054.873.284.492.211-.228.482 1.086.148 1.182-.021.521-.449.23-.079.561-.091.42-.133.098-.138.363.006.284-.383-.167-.077.385-.455.46.131.285-.132.122-.484.259-.575-.035-.219.54-1.698-.058-.726-.158-1.261-.486.177-1.087.345.296-1.665.099-.78-.55-.041-.123-.489.236-.299-.106-.178.025-.54-.256-.031-.282-.131-.04-2.632.753-.003.491.048.467.195.158.321.364.545.326.285.451 1.072.398-.084.33.014.374-.172.848-.067-.13.435.04.123 1.16.099 1.092-.012.58.104.275.057.64.041.424.077.194-.304-.176-.344-.01-.226-.126-.28-.333-.156-.001-.31-.322.078-.113-.16-.08-.589-.127-.126-.162.235-.118-.72.3-.047-.274-.239-.36-.001.108-.234-.762-.283-.44.143-.49-.065-.336-.156.029-.23.436-.177.108-.587-.257.1-.235.417-.188-.21-.268-.033.063-.292.14-.232-.14-.14-.016-.255.1-.167.177.022.119.533.184-.571.275-.289.777-.343.096.084-.09.278.563.044.14-.064.058-.256.182-.2.204.024.183-.427-.026-.454-.145-.3.294-.227-.068-1.237-.207-.403-.303-.397-.44-.109-.094-.159.33-.253-.482-.289.36-.229.1-.278.157-.027.3.108.277.586.476.74-.104.06.238.313.154.402.15.127.07.235.285-.001.158.334.238.088.275-.073.286.314.376.051.17-.076.65.008.56.263.286-.079.677.25.674.013.492.153.18-1.266-.014-.182-.17-.29.836-.646.279.369.038.243.166.407.521-.203.768-.335 1.1-.436-.061-.155.836-.471 1.474-.099.688-.338 2.153-.991-.014.37.298-.09.442-.326.557-.622.752-.033.398.028.305.398.172.143.32.059-.19-.865v-.823l-.108.001-.004-.395-.083-.404.157-.199.415-.106.22-.134.466.174.71.064.245.148.328.066 1.68-.338 1.12-.274 1.81-.506 1.055-.307.09.754.151.859.101.78-.289.106.098.436.114.189.372.12.238.257.132.398-.028.164.29.463.587.579.504.413-.321.254-.476.243-.435.085-.043.418.158.638.273-.04 1.084.022.55.075.385.106.553.042.327-.25.389-.032.244-.106.628-.097.402-.255.57-.132.627.467.561.402.505.422.708 1.443.246.462.956 1.938.25.563.046.2-.043.522.18.382.241.196.074.239.167.223.27.081-.486.676-.132.097-.634.763.027.116-.424.215.411.584.102.244.167.116.251-.899 1.219.114.126-.294.31.007.303-.222.429-.144.176-.004.43.166.613.305.096.136.555.29.204-.057 1.08.374.195.547.175.253 1.262-.097.023.52.543.056.19 1.434-.072 1.733.437.258-.596.298-.326.367.79.859.123-.127.705.739.058.218.277.294.34.251.36.67.236.353.744-.458.379-.801 1.207.285.66.25.31.051.455.257.465.437-.59 1.441-.4-.082-.248.264-.122.265-.202.21.4.914.504.152.24-.324 1.042.783.185-.311.234-.047.056-.234.923.121.524.411.119.494.91-.464.854-.689.793-.523.9-.534.48-.393 1.391-2.152.59.291-.117.34.105.52.615 2.83.26 1.163.068.543-.327-.021-.324 2.172.095.829.047.14-.281-.007-.5-.37-.616-.305-.142-.13-.28 1.248-.135.879-.305.929-.288.354-.26-.081-.729 1.711 1.76 1.483-.766 1.786.337.129-.081.127-.116.935-.924-.104.118.588-.096.763.109.356.325.466.05.569-.039.675-.081.108-.555.243-.705.06-.534.19-.394-.12-.81.05-.766-.318-.604-.148-.208-.388-.023-.279-.72.142-1.09-.289-1.167-.424-.245.117-.29.023-.248.103-.866-.238-.562.118-.148.099-.094.233-.674-.345-.507-.122-.35.111-.532.156.411.496.88.374.317.229-.479.64-.252.727-.21.44-.119.137.747.711.188.209.375.639.15-.012.623.237-.056.389.473.058.794.015.144-.254.36.143.098.644.274 1.31.705.5.199.913.245.021.291.968.153 1.105.39.507 1.802 2.072.732.729 1.473 1.282 1.195.949.853-.107.801-.208.235.198.202.309.532-.656.34.052.625.177.241-.061.232-.313.77-.173 1.002.336-.48 1.059-.415.967-.28.873-.112.462-.197.604-1.165-.463-1.374-.519-.371-.066-.888-.842-.23-.103-.535.405-.564.615-1.69 1.735-.101.052-.909.88-.97.098-.121-.898-.154-.243-.455-.392-.713-.35-.602-.014-.404.14-.79-.465-.107-.477-.518-.932-.603-.133-.701.262-.138-.091-.874-.068-.665.131-.347.148-.179.083-.019.227.157.333-.004.161-.451.381-1.602 1.449-.57.719-.658.968-.553.317-.005.349-.122.293-.378.228-.184.4.12.667-.23.272-.467.777-.46.708-.357.033-.735.246-.268.142-.182.215-.463.242-.176.017-.272.185-.153-.044-.247.108-.181.29-.377-.223-.189.045-.395-.214-.714-.065-.538-.126-.659.253-.295.223-.135-.01-.725.165-.523-.1-.316.067-.116.284-.604-.14-.398-.249-.476-.238-.762-.288-.41.05-.235-.256-.4 1.249-.03.262-.173.073.012.176-.369.106-.939.118-.275.09-.806-.864-.763.08-4.96 3.247-.113-.028-.454-.4-.835-.956-1.367-.908-.887-.529-.215-.172-.4-.158-.981 1.881-.822 1.545-.16-.082-1.422-.258-3.08-.469.142-1.053-1.09-.101-1.016-.119-1.026.945-1.243 1.113-.02.958-.013 1.791"/></svg>