<svg xmlns="http://www.w3.org/2000/svg" width="234" height="307" fill="none" viewBox="0 0 234 307"><path id="Роменський" fill="#C8C6C6" fill-rule="evenodd" stroke="#000" stroke-linecap="round" stroke-linejoin="round" stroke-width=".2" d="m73.365 257.127-1.55.039v.852l.226.432-.01.204-.31.35.006.409-3.44.248-1.015.065-.814-.577-.469-.26-.2-.058.076-.341-.937-.199-1.854-.422-4.27-.946-.557-.13-1.133-.368-.03-.515-1.428-.394-.36-.076-.386-.208-.557.221-.71-.532-.145-.017-.67.35-.056.295-.742.005-1.287.046.03.59-.437.344-.196.29-.551-.182-.052.175-.309-.109-.602-.288-.02-.382-.253-.158-.175-.242-.036-.238-.165-.212-.253.085-.298-.087-.35.019-.186.311-.02.376-.232.323-.103.328-.211.123-.068.212-.643-.375.113-.754-.227-.281-1.066-.276-2.498 1.029-.154.134.149.164.19.495.042.236-.3.196-1.23-.95.077-1.17-.5-.034-.097-.667.097-.159-.247-.2-.52-.031-1.68.286-.88.017-.088-3.143-4.682.085-.098-1.667-1.452-.285-.618-1.116-.407.029-.345-.148-.041-.168.128-.599-.747-.45-.401.467-.402-.192-.134.298v.406l-.422-.129-.165.199-.217.026-.19.166-.144.329-.629.268-.2.276.066.35-.118.334.175.283-.278.86-.067.64-.433.528.005.262.258.393-.422.342-.315-.503-.654 1.062-.572-.453-.731-.083-.005-.085-1.051.032-.628-.61-.35-.381-.268-.717-.098-.069-.598-.096-.36.121-1.154-.1-.52 1.392-.902.321-.314-.398-.227-.017-.386.396-.572.487-.092-.026-1.288-1.55-2.478-.233-.231.19-.402-.289-.423-.327.268-.185-.365-.713-.52-1.27-.305-.315.057-.144.762-.8 1.206-1.066.077-.091.309-1.02.268-.592.448-.435.948-1.058-.402-.584.288-.324.443-.627.263-.261 1.272.228.335-.53-.041-.176.144-.18-.226-.198-1.572-.346.3-.695.344-.507.928-3.707-.304-.22-.01-.295-.114-.221.072-.401.67-.368.855.159.211.068.088-.192.664-.617-.005-.642.046-1.209.263-2.254.067-1.072-.067-.185-.809-1.349-.407-.729.206-.132.86.177.315.014.422-.628.417.023.345-.167.686-.054.35-.121.355-.236.593-.101.283-.258.324-.019.454-.114.231.043.35.178.402-.085.02-.758.897-.163.201-.197.618-.122.505-.193-.294-.148-.077-.239-.268.083-.175-.428-1.308.215-.258-.099-.278-.912-.108-.51-1.504.141-.036-.494-.103.007-1.952-3.563-.598-1.333.01-.23-.164-.501.056-.168.629.234.407-1.042-.428-.404.119-.382.061-1.146-.324-.052-.33-.94-.185-.027-.186-.36.16-.29-.005-.251.556-.136.289-.347.051-.232.283-.049-.02-.169-.232-.136.407-.48.134-.001.129-.391.211-.091.288.027.237-.387.124-.428-1.313-.209.293-.639.119-1.395.772-.217-.057-.13-.262-.04-.165-.436.026-.16-.304-.544-.026-.291-.314-.263-.119-.245.103-.611.361-.407.433-.26.092-.213.294.112.17-.149.15.448.236.033.16-.093.556.101.093-.222.469-.227.02-.107-.221-.341.427-.219.196-.263-.211-.4-.958-2.123.015-1.475.258-.42.01-1.173-.01-2.48.293-.607.366-.868.386-.042.284.074-.057-.412 1.046-.212 2.673-.499 1.705-.341.448.032.66.267.74-.037.789.236 2.756.393.051.535 1.087.18 1.015.134 1.565.256 2.365.67.164-.294-.118-.361.283-.09.551-.068.449.053.319.098.505.067.252.1.742-2.669.834.151-.144-.348.237-.033.247.106.438-.245.098-.291.237-.124.525.563 2.272.485.32-1.034-.526-.234-.052-.674.083-.661.592-.011-.108-3.033-.026-.528-.33-.222 4.023-1.068.206.101 2.179 2.243 1.148.13 1.005.175.808-.383.634-.403.464-.236.576-.378.191-.174.294 1.037.077.449.026.618-.072.328.185.872-.062.516 1.072.436.752.345.777.745-.52.934-.597 1.004-.227 1.04 1.03.248.016-.1.479.126.304-.049.427.263.273.265.407.15.536-.057.242.109.36-.476.654-1.671 1.422-.599 1-.054 1.127-.111.114-.078.314.134.304-.012.376.098.19.186.186.015.36-.18.608.3.5.062.427-.074.196.079.252-.356-.01-.22.211-.205.206.125.428.025.247.086.453.041.382-.027.432-.22.412.076.84.358.582-1.366.417.172 2.416 1.09.721.265.773-.09.144-.247-.932-.607-.032-.177.47-.217.05-.309.29-.114.277-.394.016-.25.226-.399-.026-.375.387-.172.19.19.067.208.294.009-.093-.247.196-.016.314-.19.206-.338.412.131.186-.269.098-.501.386-.143.144-.457.402-.671-.129-.125.68-.495 1.319-.923-.186-.264-.165-.371-.396-1.15.685-.017-.062-.257-.263-.093-.077-.175.01-1.494.026-.354.299-.265-.041-.28.355-.033.381.143.49-.06.623.257.35-.083.258.076.21-.1.526.169.17.12.5.125.103.214-.082 1.498.412.244.453.175.165.438-.387.482.469.445.103-.032.428.669.432 1.015.289.601.525 1.18.211-.135.835.347.072-.122.309.192.479.209.242.277.263.509.412.543-.052.163.16.379.283.04.047.318-.428.114-.062.198.088.24-.711.12-.304 1.674-.222 1.501-.174.396-.232.317-.217.132-.35.34-.613.395.124.373-.237.178.103.242.19.034.34.298.304.094.428.009.752.133-.057.536.088.758 1.9-.445.222.332.335-.098.262.176.201.432.469.398-.32.292-.401.244-.397.078.768 2.955 1.9 4.124.546-.297.34-.118.108-.116.994-.314.068-.154.422-.08.448-.304.5.005.314 1.064.798.526.139.786-.01.222.139.364.062.78-.402.468-.087.394.278.68-.098.294-.093.379-.329.265-.783.534-.134.319-.232.782-.417 1.864-1.52-.093-.015.688-.062.497 1.21.087.15.291.371.189-.021.222.119.6.025.451-.072.381-.108 1.122.433.435.453.611.191.115.355.072-.531 1.143-.149.236-.536.282-.783.642-.674.69 1.452 1.331-.407.477-1.463 1.585-.623-.605-.53-.927-.474.261-.304.036-1.39.773-.377.381-.484.6-.963.994.772.853.567.672 1.046.878.494.394.51.32.628.666.49.75.226.224.304.132.278.703.212.455.185.25.325.259.082.144.494.289.119-.005.989.557.659.404.283.241-.092 1.321.334.278.557.554 1.174 1.535 1.185 1.644.572.766-.397.3.118.479.083.966.206.412.062.252-.088.138.237.42.015.556.206.706-.685.065.17 1.993.145-.091.54-.037.232.072.294 2.436.041.475.325.436.221.412-.134.218-.299.047-1.014-.425-.15.086-.788-.98-.932.962-.335.268-.824.112-.515-.196-1.195-.046-1.344.369-.16.202-.237.114-1.046.853-1.813.474-.165 1.474-.082.707-.438.899-.17.641-.376.162-.16-.154-.515.134-1.014-.955-.31-.023.263-.345.186.089.118-.173.469.164.71-1.869-.365-.144-.556-.408-.273-.023-.119-.196-.927-.181-.154.135-.206-.171-.114-.232.026-.214-.469-.121-.262.034-.299.13-.448.282-.036.134.577.317.15.164-.325.525-.752-.679-.294.16-.52.411-.52.018-.109.107-.252.726-.216-.089-.093-.384.134-.327.175-.213-.917-.456.088-.221-.206-.084-.02-.416-.789-.616.14-.183-2.51-1.947-2.054-1.573-2.607 3.474-.252-.193.062.381-.31.53-.216.066-.129.173-.51-.429h-.2l-.206-.524-.557-.408-.005-.392-.355-.823-.984.308-.19.018-.078-.298-.561.214-1.139.529-.989.363-.597.247.268.541-.464.022-.175.086-.989.352-.087-.013-.13-.375-.21.077-.52.329.144.457.247.601.638-.123.696.208 1.154.385.417.648-.428.925-.103.145-.453-.235-1.159.612.211.532.175.255-2.034.575Z" clip-rule="evenodd"/><path id="Шосткинський" fill="#C8C6C6" fill-rule="evenodd" d="m96.597 97.217.561.44.294.074.345-.108.623-.483.232-.016.02.573.088.653.53 1.085 1.51.089-.021.688.624.046.35-.125.134.142.324.065.479-.056.629-.248.628-.099.201.793.34.852.489 1.099.119 1.883.108 1.963 2.447-.464.072.277.072 1.163.201.03.123 2.051.654-.248 1.144-1.126.968 1.061-.134.502-.237.453.083.149.304.23.226.471.289.216.113.344-.309.434-.283.213.51.909.267-.019.062 2.031 2.102-.232.072.284.85.046.02 1.159.634.24.35.319.052.657-.15.277-.365.152-.479-.001-.526.272.026.257.634 2.043-.572.849-.268-.173-.052-.2-.339.078-.263-.159-.644-.25-.675-.535-.664-.577-.366-.184-1.148-.079-1.093.074-.36.101.139.47-.397-.144-.695.588-.68.049-.232.544-.098-.049-.602-.746-.17.016-.144-.929-.155-.759.005-.524.51-.67-1.066-.805-.021-.292-.324-.245-.345.608-.417.405-.289.378-1.118.831v.307l-.355.35-1.174.685-.155-.252-.185-.583-.263-.175-1.097-.562-.175.441-1.298-.688-.17-.318-.273-.24-.124.293-.288.216-.407-.392-1.247-1.417-.953-2.863-.087-.212-1.077 1.763.407 1.325.505.701-.046.188-.263.038-.443-.03-.495.233-.283.057-.5-.011-.252-1.292-.551.099-1.143.1.097.538-.298.047-.237-.612-.072.005-.413-.725-.103.477-.226.701.02.537-.139.153.155.169-.01.459.154.227-.051.244-.711-.672-.237-.597-.206-.095-.211.175.273.367.04.41-.056.117 1.03.617-.118.563-.232.42.108.66.556.492.397.229.196.188.098.976-.036.637-.186.115-.36.48-.32.217-.484.156-.18.238-.438.151-.458.082-.134.226.216.45-.376-.052-.118.068-.856-.004-.206-.086.052-.634-.211-.059.16-.527.257-.422-.154-.517.092-.046-.257-.367-.356.427-.082.214-.33-.013-.237.285.15.264-1.072.859-.18.254-.221-.025-.881.315-.639-.04.02.389-.118.216-.015.417.056.273-.056.495-.16.214-.757.358-.33.054-.5.249-.489.036-.463-.193-.217.128-.144-.134.18-.244-.309-.346-.118-.239-.02-.263.19-.216.314.191.232-.172.304-.079-.397-.53-.206-.506-.005-.214.124-.153.546.093.283-.019.221-.174-.015-.7-.134-.339-.293-.152-.325-.06.005-.301.654-.566.52-.027.232-.137.13-.439.174-.127-.103-1.453-.561.069-.469-.054-.02.38-.51.195.417.23-.01.364-.933.547-.278-.207-.432.16-.242-.133-.057-.15.113-.255-.185-.261.04-.419.078-.133.752-.314.263-.04-.113-.337-.273.179-.52.067-.47-.206.006.211-.608.164-1.159-2.015-.067-.171-.407-.011-.85.138-.401.457-.443-.179-.201.294-.34-.167.2-.294-.793-.368-.52-.145-.469.326-.216-.19.211-.106-1.071-1.678-1.05-.82-.217.11-.02-.265-.202-.073-.206.133-.247-.11.016-.237.37.027.042-.541.2-.434-.216-.016-.242-.138-.731-1.277.067-.59.195-.411-.098-.341-.607-.495-.34-.407-.737-1.046-.211-.709.597-.231 1.154-.012-.505-1.81-.133-.584.206.028.144-.34-.093-.652-.154-.207-.371.007-.237-.183-.464-.047-.154-.2-.773-.444-.54-.496-.387-.099-.453-.186-.876-.464-.876-.494-1.097-.686.036-.459.53-.003.14-.25.772-.102.083-.291-.356-.74-.2.1-.758.11-2.05.334-1.329-1.593-.19.094-1.344-1.634-.124-.129-.134-.327-.33.156-.092-.047-1.005.556-.736.553-.258-.153-1.73-1.238-.104-.484-.618-1.205-.674-.352-1.067-.751-.623-.379-.644-.733-.113.079-.376-.27-.083-.288.82-.615-.037-.361-.458-.129-.721.233-.283-.016.02.203-.577.148.093.102-.35.395.33.591-.31.05-.55-.278.025-.82-.325-.168-.69.048-.18-.026.072-.525-.19-.501-.248.02-.185.151-.737-.022-.082.068-.556-.062-.387-.191-.443.098-.067.365-.237-.131-1.52-.16-.663-.35-.541.065-.64.288-.154.291.083.073-.407.756-.165.079-.407-.037-.03.417-.598.263-.242.224-.392.259-.273.243-.427.181-.165.375.067.164-.284.161.258.258-.53.446.071.095-.638.404-.222-.197-.37.066-.289-.112-.417.08-.345.343-.273.424-.376.179-.541-.022-.19-.142-.14-.382-.195-.095-.119.28-.381.106-.119-.324-.695-.48-.196.314-.299-.038.84.711-.247.056-.386-.03-.227.171-.14.278-.35-.078-.231.054-.35.245-.315.29-.139.273-.401.222-.289.283-.536-.376-.206.276-.34.04-.407-.388-.221.422.041.445-.314-.027-.258.113.057.368-.15.133-.05.274-.387-.695.057-.02-.505-.997-.268-.47-.572-.15-.37-.517-.155-.33.129-.29-.119-.094-.02-.319-.284-.174-.206.132-.33.013-.102-.093-.34.142.602 1.19-.206-.082-.412.22-.51-.348-.829-.623-.427.103.185-.265-.072-.245-.289-.096-.401.111-.588-.025-.309-.384-.108-.587.067-.17.469.33.592-.02.608-.326.263-.191.247-.606.082-.37-.319-.405-.716.157-.432-.27-.114-.293-.082-.448-.5-.863-1.056-.974.484-.454-1.123-.979-.21-.28-1.196-.904-.283-.247-.34-.446-.345-.685-.026-.41-.237-.179-.005-.266-.124-.307.211-.097.067-.232-.257-.252-.144-.378-.083-1.049-.288.119-.227.27-.03.32-.233-.194.088-.127-.37-.149-.078-.398.396-.399.165-.377.536.019.077-.182-.005-.353.855.425.031-.092-.227-.31.052-.548.2-.22.356-.107.114-.164-.083-.345.505-.44.283-.618.366-.475.072-.514.716-.644.31-.153.421.246.289.046.252-.142.145-.348-.026-.331-.289-.814.108-.142-.03-.216-.196.008-.047-.286-.118-.179.01-.227-.221.022-.103-.056-.536-.043-.119-.143.108-.189-.17-.184.021-.24-.093-.542.206-.12-.458-.36.077-.565-.01-.396.242-.146.242.098.216-.14-.036-.217-.664-.513-.14-.38.305-.156.175.124.144.323.33.02.139-.338-.113-.61.03-.72.516.273.221-.067.047-.42.154-.515.32.141.252-.01.592-.275.7-.06.35-.132.707-.548.123-.34-.082-.239-.124-.89-.087-.282-.196-.226-.392-.051.304-.657.314-.03.268.272.186-.049.232-.676-.01-.51.154-.078.479.34.216.098.392-.024.705-.408.242-.031.212.33-.103.363.175.263.247.138.227-.015.185-.309-.005-.366.15-.067.236.208.299.028.293-.119.232-.353.062-.442.721-.19-.2-.595.659-.28-.18-.305.118-.143.37.249.439.684.21.16.294.027.356-.402.036-.254.479.008.762.073.268-.089.19-.194.088-.237.16-.017.195-.347.34-.204-.324-.207.268-.248.247-.119.237.004.242.12.459-.296.102.205.675.197.15.086.216.408.396-.101 1.844-.17.191-.438-.154-.622.149-.075v-.294l.2-.503.135-.162.695.13.18-.14.016-.202-.19-.262.154-.512.391-.198.15-.008.36.213.459.108.602-.105.16-.4.015-.574-.15-.43-.19-.308-.7-.964-.155-.298-.118.247-.201.057-.407.244-.155-.047.026-.313.15-.416-.078-.32-.231-.165-.062.199-.371-.08-1.05-.57-.212-.209-.098-.263.088-.42-.093-.38.206-.104-.129-.673-.314.02-.294-.401-.345-.815h-.618l-1.303-.39-.989-.394-.087-.353.21-.31.212.296.35.057.448-.344.01-.195-.185-.219-.227-.713.14-.495.226-.355.958.133.824.078.588.105.319-.172.556-.046.253-.397.242-.525.273-.278 2.132-1.421 1.077-.173.783 2.508 1.617 1.088.165-.097.154-.431.273-.21.067-.163.325-.199.19-.034 1.04-.328.593-.327.402-.055 1.875.031.824-.007-.02-2.528-.042-1.745-.02-2.742-.242.088-.47.278.058.391-.145.137-2.487-.597.015-.325-.412-.055-.484-.001-1.061.343.015-.22.391-.58.17-.531-.633-1.057-.35-.508-1.983-.906.607-1.068-3.456-1.75-.932-.484-1.144-.459-.175-.161-.886-.444-.438.14-.314-.045-.17.068.114.438-.057.431.448.136.665.066-.037.377-1.54-.126.108-.627.073-.91.273-.649.098-.35.607.022.042-.406-.067-.597-.057-.13-.31-.05-.123-.2.119-.282-.335-.454-.325-.005-.288-.192.108-.304-.433-.288-.067-.309.201-.39-.144-.279-.34-.361.057-.18-.211-.337.015-.288.268-.15.34.286.216-.06-.015-.466.268-.108.494-.44-.072-.23.15-.353-.145-.363.036-.147-.402-.358.212-.442-.67-.432-.211.245-.247-.23.386-.558.376-.419.15.051.118.576.17.27.195.077.268-.058.242-.196.248-.47.33-.192.246.013.382.163.231-.17.114-.202.15-.71.365-.37.479-.32-.108-.306-.258-.144-.03-.16.504-.935-.103-.202-.438-.002-.108-.24.041-.444-.211-.238-.088-.301.114-.136.005-.446.18.072.304.447.052.243.649-.716.097.054.67-1.252.304-.07.057-.301-.268-.373.123-.313-.2-.104-.377.033-.02-.164.253-.184.195.154.134-.225.273-.153-.098-.3.015-.258-.17-.051-.015-.317.16-.167-.082-.215.216-.355.226.166.284-.138-.665-.758.02-.085.742-.782.186.193.381-.327-.33-.718-.185.013-.572-.568-.206-.403.278-.08.588.473.267.056.16-.102.129-.289.16-.558-.021-.328.525-.126.3-.32.118-.507.16-.236.262-.186.134.047.335-1.388.185-.625 1.52.43-.032-.554-.077-.38-.53-.482.226-.442.268-.172.593-.005.066-.228-.16-.172.346-.706.551.471.18-.187.696.581.53.124.376-.003.577.127.83.265.762-.409.906.486.057.673-.283.25-.016.272.212.111.108.37-.459.58-.144.434.052.2-.346.14-.51.088-.226.13-.732.057-.231.299-.026.824-.263.44h-.206l-.108.388-.253.067.222.354.536.451.855-.197.54.824 1.762-.196.525.402 2.195.3.206.004.474-1.035-.145-.5-.242-.179-.494-.205-.196-.33-.36-.205-.32-.077-.062-.48.371.168.278-.044.567.336.974.71.69.708.314-.055-.247-.669-.175-.312.566-.505.253-.049.257-.377.654-.514.763-.848.443-.045.968-.378.139-.157.376-.022.175.07.407-.164.505.042.535-.102.289.11.396-.024.232-.144.134-.29.448-.326.175-.018.268-.266.248-.102.406-.024.227-.227-.051-.175-.222-.154-.015-.365.247-.282.293-.195.531.047.32-.1.448-.059.334-.304.448-.277.7.027.614 1.296.932-.13.36-.331.727-.071.221-.568 1.252-.198.593-.09.396-.29.695-.153.917.013 1.319.277.566.198.48-.132.9.259.212.17.098.28-.015.583-.088.614.14.489.282.234.155.47.54.57.403.573-.052.235-.407.458-.448.401-.474.727 3.054 1.902.454-.14 1.313-.016.757.776.212-.19-.047-.352.129-.286.206-.072.865.497.325.742.036.62.618.675.433.11.592.83-.057.3.15.92-.216.993-.057 1.312-.392 1.123.438.175.278-.038.17.106.273-.096.227.215.505-.068-.248.503.021.231.355.507.18.53.346.144.577.411.623-.472.664.377.902.622.113.379-.02.551-.227 1.178.18.396.809.641.458.323.654.088 1.293-.09.557.197.54-.15.16.815.278.538.32.806.36.411-.309.403-.66 1.216.727 1.035.33.198.283.313.51.717 1.174.05.716.594.629.584.911.715-.298.35-.175 2.13-.366.53-.314.309-.175.458-.253.176-.252.065-.639.372.19.38-.133.667 1.025 1.103-.289.307-.123.746-.891.116-1.875 1.639.01.52.051-.023 1.463-.142.18 1.677.382.558.5.202.061.797.211.106.206.518.237.12-.752.77.005.15.237.369-.118.38-.165-.218.165 2.726.242.331.046.178-.056.364.092.087.366-.036.788-.213.083-.112.34.184.303-.188.284.085.407-.077.113.252.36.152.181.367.386.257-.211.507-.196.88-.51.586.062.282.484 1.002.129.436.443.047.041.558.69-.05.15-.068.165-.068 1.195-.15.716-.03 1.014.327.191 1.184.242.445.046.265.273.563.572.765-.16.45.062.143.623.443.232.106.253.331.34.147.154.355.273.263-.525 1.071 1.061 1.061 1.458-.45.901.995-.252.116-.14.353-.036 1.015-.077.578.371.642-.397.252-.762.816 1.556.36 1.056-1.258 1.694.102.582-.05.139.082.031.243.33.257.438.017.401.267.165.478.469.266.077.489.067.107 1.041.653.242.108.299.332.355.082 1.025.557.134.181-.088.256.268.215.103.394-.051.258.159.493.387.1.257.225.752-.122.165.07-.093.346.139.2-.036.285.191.266.366.041.365-.06.206.083.176.475.401.09.268.38.067.23.314.127-.123.563.077.266-.278.127-.016.191.196.11v.228l.227.164.046.736-.139.364-.015.262-.129.172.026.346-.232.295-.057.38-.201.193.114.19-.206.267.046.315.191.415-.047.335.109.17.329.14.206.266.211.103.145.232.422.317.144.032.057.51.257.159.006.27.36.232-.02.314.164.511-.185.842.031.307.108.229-.031.253.33.482-.134.224-.005.301-.289.586.062.336-.304.459-.288-.058-.258.077-.247.454.031.305-.216.252-.484-.029-.227.216-.35.06-.072.232-.268-.025-.232.257-.026.185-.484-.162-.15-.167-.309-.042-.19.22-.222-.05-.175.135-.443.087-.108.099-.391.023-.309.225-.315-.033-.262.064-.15-.182-.438.142-.149-.179-.438-.18-.577.246-.303-.076-.212.056-.216-.21-.515-.03-.932-.166-.284-.44-.268-.054-.242.208-.273.418.006.193-.346.426-.092.408-.304.181-.181.222-.339.072-.526-.126-.263.033-.123.152-.531.167-.422-.033-.386.3-.902-.2-.355.267-.407.112-.211.228-.232.124-.247.016-.371-.322-.067-.13-.299.013-.046-.164-.201-.041-.175-.217-.175.118-.397-.07-.438.519-.216.66-.422.075-.248-.14-.175-.31-.335.084-.752.537-.422.007-.495.213-.489.337-.232-.025-.252.35-.175-.008-.103-.381-.32-.136-.298.264-.258.085-.144-.33-.18-.091-.227.183-.5.062-.582-.037-.046.545-.464.126-.51-.07-.036.369-.247.326-.391.153-.284-.078-.185.201-.263.113-.134.451-.056.19-.289-.047-.365.102v.177l-.443.11-.232.349-.02.211" clip-rule="evenodd"/><path stroke="#000" stroke-linecap="round" stroke-linejoin="round" stroke-width=".2" d="m96.597 97.217.561.44.294.074.345-.108.623-.483.232-.016.02.573.088.653.53 1.085 1.51.089-.021.688.624.046.35-.125.134.142.324.065.479-.056.629-.248.628-.099.201.793.34.852.489 1.099.119 1.883.108 1.963 2.447-.464.072.277.072 1.163.201.03.123 2.051.654-.248 1.144-1.126.968 1.061-.134.502-.237.453.083.149.304.23.226.471.289.216.113.344-.309.434-.283.213.51.909.267-.019.062 2.031 2.102-.232.072.284.85.046.02 1.159.634.24.35.319.052.657-.15.277-.365.152-.479-.001-.526.272.026.257.634 2.043-.572.849-.268-.173-.052-.2-.339.078-.263-.159-.644-.25-.675-.535-.664-.577-.366-.184-1.148-.079-1.093.074-.36.101.139.47-.397-.144-.695.588-.68.049-.232.544-.098-.049-.602-.746-.17.016-.144-.929-.155-.759.005-.524.51-.67-1.066-.805-.021-.292-.324-.245-.345.608-.417.405-.289.378-1.118.831v.307l-.355.35-1.174.685-.155-.252-.185-.583-.263-.175-1.097-.562-.175.441-1.298-.688-.17-.318-.273-.24-.124.293-.288.216-.407-.392-1.247-1.417-.953-2.863-.087-.212-1.077 1.763.407 1.325.505.701-.046.188-.263.038-.443-.03-.495.233-.283.057-.5-.011-.252-1.292-.551.099-1.143.1.097.538-.298.047-.237-.612-.072.005-.413-.725-.103.477-.226.701.02.537-.139.153.155.169-.01.459.154.227-.051.244-.711-.672-.237-.597-.206-.095-.211.175.273.367.04.41-.056.117 1.03.617-.118.563-.232.42.108.66.556.492.397.229.196.188.098.976-.036.637-.186.115-.36.48-.32.217-.484.156-.18.238-.438.151-.458.082-.134.226.216.45-.376-.052-.118.068-.856-.004-.206-.086.052-.634-.211-.059.16-.527.257-.422-.154-.517.092-.046-.257-.367-.356.427-.082.214-.33-.013-.237.285.15.264-1.072.859-.18.254-.221-.025-.881.315-.639-.04.02.389-.118.216-.015.417.056.273-.056.495-.16.214-.757.358-.33.054-.5.249-.489.036-.463-.193-.217.128-.144-.134.18-.244-.309-.346-.118-.239-.02-.263.19-.216.314.191.232-.172.304-.079-.397-.53-.206-.506-.005-.214.124-.153.546.093.283-.019.221-.174-.015-.7-.134-.339-.293-.152-.325-.06.005-.301.654-.566.52-.027.232-.137.13-.439.174-.127-.103-1.453-.561.069-.469-.054-.02.38-.51.195.417.23-.01.364-.933.547-.278-.207-.432.16-.242-.133-.057-.15.113-.255-.185-.261.04-.419.078-.133.752-.314.263-.04-.113-.337-.273.179-.52.067-.47-.206.006.211-.608.164-1.159-2.015-.067-.171-.407-.011-.85.138-.401.457-.443-.179-.201.294-.34-.167.2-.294-.793-.368-.52-.145-.469.326-.216-.19.211-.106-1.071-1.678-1.05-.82-.217.11-.02-.265-.202-.073-.206.133-.247-.11.016-.237.37.027.042-.541.2-.434-.216-.016-.242-.138-.731-1.277.067-.59.195-.411-.098-.341-.607-.495-.34-.407-.737-1.046-.211-.709.597-.231 1.154-.012-.505-1.81-.133-.584.206.028.144-.34-.093-.652-.154-.207-.371.007-.237-.183-.464-.047-.154-.2-.773-.444-.54-.496-.387-.099-.453-.186-.876-.464-.876-.494-1.097-.686.036-.459.53-.003.14-.25.772-.102.083-.291-.356-.74-.2.1-.758.11-2.05.334-1.329-1.593-.19.094-1.344-1.634-.124-.129-.134-.327-.33.156-.092-.047-1.005.556-.736.553-.258-.153-1.73-1.238-.104-.484-.618-1.205-.674-.352-1.067-.751-.623-.379-.644-.733-.113.079-.376-.27-.083-.288.82-.615-.037-.361-.458-.129-.721.233-.283-.016.02.203-.577.148.093.102-.35.395.33.591-.31.05-.55-.278.025-.82-.325-.168-.69.048-.18-.026.072-.525-.19-.501-.248.02-.185.151-.737-.022-.082.068-.556-.062-.387-.191-.443.098-.067.365-.237-.131-1.52-.16-.663-.35-.541.065-.64.288-.154.291.083.073-.407.756-.165.079-.407-.037-.03.417-.598.263-.242.224-.392.259-.273.243-.427.181-.165.375.067.164-.284.161.258.258-.53.446.071.095-.638.404-.222-.197-.37.066-.289-.112-.417.08-.345.343-.273.424-.376.179-.541-.022-.19-.142-.14-.382-.195-.095-.119.28-.381.106-.119-.324-.695-.48-.196.314-.299-.038.84.711-.247.056-.386-.03-.227.171-.14.278-.35-.078-.231.054-.35.245-.315.29-.139.273-.401.222-.289.283-.536-.376-.206.276-.34.04-.407-.388-.221.422.041.445-.314-.027-.258.113.057.368-.15.133-.05.274-.387-.695.057-.02-.505-.997-.268-.47-.572-.15-.37-.517-.155-.33.129-.29-.119-.094-.02-.319-.284-.174-.206.132-.33.013-.102-.093-.34.142.602 1.19-.206-.082-.412.22-.51-.348-.829-.623-.427.103.185-.265-.072-.245-.289-.096-.401.111-.588-.025-.309-.384-.108-.587.067-.17.469.33.592-.02.608-.326.263-.191.247-.606.082-.37-.319-.405-.716.157-.432-.27-.114-.293-.082-.448-.5-.863-1.056-.974.484-.454-1.123-.979-.21-.28-1.196-.904-.283-.247-.34-.446-.345-.685-.026-.41-.237-.179-.005-.266-.124-.307.211-.097.067-.232-.257-.252-.144-.378-.083-1.049-.288.119-.227.27-.03.32-.233-.194.088-.127-.37-.149-.078-.398.396-.399.165-.377.536.019.077-.182-.005-.353.855.425.031-.092-.227-.31.052-.548.2-.22.356-.107.114-.164-.083-.345.505-.44.283-.618.366-.475.072-.514.716-.644.31-.153.421.246.289.046.252-.142.145-.348-.026-.331-.289-.814.108-.142-.03-.216-.196.008-.047-.286-.118-.179.01-.227-.221.022-.103-.056-.536-.043-.119-.143.108-.189-.17-.184.021-.24-.093-.542.206-.12-.458-.36.077-.565-.01-.396.242-.146.242.098.216-.14-.036-.217-.664-.513-.14-.38.305-.156.175.124.144.323.33.02.139-.338-.113-.61.03-.72.516.273.221-.067.047-.42.154-.515.32.141.252-.01.592-.275.7-.06.35-.132.707-.548.123-.34-.082-.239-.124-.89-.087-.282-.196-.226-.392-.051.304-.657.314-.03.268.272.186-.049.232-.676-.01-.51.154-.078.479.34.216.098.392-.024.705-.408.242-.031.212.33-.103.363.175.263.247.138.227-.015.185-.309-.005-.366.15-.067.236.208.299.028.293-.119.232-.353.062-.442.721-.19-.2-.595.659-.28-.18-.305.118-.143.37.249.439.684.21.16.294.027.356-.402.036-.254.479.008.762.073.268-.089.19-.194.088-.237.16-.017.195-.347.34-.204-.324-.207.268-.248.247-.119.237.004.242.12.459-.296.102.205.675.197.15.086.216.408.396-.101 1.844-.17.191-.438-.154-.622.149-.075v-.294l.2-.503.135-.162.695.13.18-.14.016-.202-.19-.262.154-.512.391-.198.15-.008.36.213.459.108.602-.105.16-.4.015-.574-.15-.43-.19-.308-.7-.964-.155-.298-.118.247-.201.057-.407.244-.155-.047.026-.313.15-.416-.078-.32-.231-.165-.062.199-.371-.08-1.05-.57-.212-.209-.098-.263.088-.42-.093-.38.206-.104-.129-.673-.314.02-.294-.401-.345-.815h-.618l-1.303-.39-.989-.394-.087-.353.21-.31.212.296.35.057.448-.344.01-.195-.185-.219-.227-.713.14-.495.226-.355.958.133.824.078.588.105.319-.172.556-.046.253-.397.242-.525.273-.278 2.132-1.421 1.077-.173.783 2.508 1.617 1.088.165-.097.154-.431.273-.21.067-.163.325-.199.19-.034 1.04-.328.593-.327.402-.055 1.875.031.824-.007-.02-2.528-.042-1.745-.02-2.742-.242.088-.47.278.058.391-.145.137-2.487-.597.015-.325-.412-.055-.484-.001-1.061.343.015-.22.391-.58.17-.531-.633-1.057-.35-.508-1.983-.906.607-1.068-3.456-1.75-.932-.484-1.144-.459-.175-.161-.886-.444-.438.14-.314-.045-.17.068.114.438-.057.431.448.136.665.066-.037.377-1.54-.126.108-.627.073-.91.273-.649.098-.35.607.022.042-.406-.067-.597-.057-.13-.31-.05-.123-.2.119-.282-.335-.454-.325-.005-.288-.192.108-.304-.433-.288-.067-.309.201-.39-.144-.279-.34-.361.057-.18-.211-.337.015-.288.268-.15.34.286.216-.06-.015-.466.268-.108.494-.44-.072-.23.15-.353-.145-.363.036-.147-.402-.358.212-.442-.67-.432-.211.245-.247-.23.386-.558.376-.419.15.051.118.576.17.27.195.077.268-.058.242-.196.248-.47.33-.192.246.013.382.163.231-.17.114-.202.15-.71.365-.37.479-.32-.108-.306-.258-.144-.03-.16.504-.935-.103-.202-.438-.002-.108-.24.041-.444-.211-.238-.088-.301.114-.136.005-.446.18.072.304.447.052.243.649-.716.097.054.67-1.252.304-.07.057-.301-.268-.373.123-.313-.2-.104-.377.033-.02-.164.253-.184.195.154.134-.225.273-.153-.098-.3.015-.258-.17-.051-.015-.317.16-.167-.082-.215.216-.355.226.166.284-.138-.665-.758.02-.085.742-.782.186.193.381-.327-.33-.718-.185.013-.572-.568-.206-.403.278-.08.588.473.267.056.16-.102.129-.289.16-.558-.021-.328.525-.126.3-.32.118-.507.16-.236.262-.186.134.047.335-1.388.185-.625 1.52.43-.032-.554-.077-.38-.53-.482.226-.442.268-.172.593-.005.066-.228-.16-.172.346-.706.551.471.18-.187.696.581.53.124.376-.003.577.127.83.265.762-.409.906.486.057.673-.283.25-.016.272.212.111.108.37-.459.58-.144.434.052.2-.346.14-.51.088-.226.13-.732.057-.231.299-.026.824-.263.44h-.206l-.108.388-.253.067.222.354.536.451.855-.197.54.824 1.762-.196.525.402 2.195.3.206.004.474-1.035-.145-.5-.242-.179-.494-.205-.196-.33-.36-.205-.32-.077-.062-.48.371.168.278-.044.567.336.974.71.69.708.314-.055-.247-.669-.175-.312.566-.505.253-.049.257-.377.654-.514.763-.848.443-.045.968-.378.139-.157.376-.022.175.07.407-.164.505.042.535-.102.289.11.396-.024.232-.144.134-.29.448-.326.175-.018.268-.266.248-.102.406-.024.227-.227-.051-.175-.222-.154-.015-.365.247-.282.293-.195.531.047.32-.1.448-.059.334-.304.448-.277.7.027.614 1.296.932-.13.36-.331.727-.071.221-.568 1.252-.198.593-.09.396-.29.695-.153.917.013 1.319.277.566.198.48-.132.9.259.212.17.098.28-.015.583-.088.614.14.489.282.234.155.47.54.57.403.573-.052.235-.407.458-.448.401-.474.727 3.054 1.902.454-.14 1.313-.016.757.776.212-.19-.047-.352.129-.286.206-.072.865.497.325.742.036.62.618.675.433.11.592.83-.057.3.15.92-.216.993-.057 1.312-.392 1.123.438.175.278-.038.17.106.273-.096.227.215.505-.068-.248.503.021.231.355.507.18.53.346.144.577.411.623-.472.664.377.902.622.113.379-.02.551-.227 1.178.18.396.809.641.458.323.654.088 1.293-.09.557.197.54-.15.16.815.278.538.32.806.36.411-.309.403-.66 1.216.727 1.035.33.198.283.313.51.717 1.174.05.716.594.629.584.911.715-.298.35-.175 2.13-.366.53-.314.309-.175.458-.253.176-.252.065-.639.372.19.38-.133.667 1.025 1.103-.289.307-.123.746-.891.116-1.875 1.639.01.52.051-.023 1.463-.142.18 1.677.382.558.5.202.061.797.211.106.206.518.237.12-.752.77.005.15.237.369-.118.38-.165-.218.165 2.726.242.331.046.178-.056.364.092.087.366-.036.788-.213.083-.112.34.184.303-.188.284.085.407-.077.113.252.36.152.181.367.386.257-.211.507-.196.88-.51.586.062.282.484 1.002.129.436.443.047.041.558.69-.05.15-.068.165-.068 1.195-.15.716-.03 1.014.327.191 1.184.242.445.046.265.273.563.572.765-.16.45.062.143.623.443.232.106.253.331.34.147.154.355.273.263-.525 1.071 1.061 1.061 1.458-.45.901.995-.252.116-.14.353-.036 1.015-.077.578.371.642-.397.252-.762.816 1.556.36 1.056-1.258 1.694.102.582-.05.139.082.031.243.33.257.438.017.401.267.165.478.469.266.077.489.067.107 1.041.653.242.108.299.332.355.082 1.025.557.134.181-.088.256.268.215.103.394-.051.258.159.493.387.1.257.225.752-.122.165.07-.093.346.139.2-.036.285.191.266.366.041.365-.06.206.083.176.475.401.09.268.38.067.23.314.127-.123.563.077.266-.278.127-.016.191.196.11v.228l.227.164.046.736-.139.364-.015.262-.129.172.026.346-.232.295-.057.38-.201.193.114.19-.206.267.046.315.191.415-.047.335.109.17.329.14.206.266.211.103.145.232.422.317.144.032.057.51.257.159.006.27.36.232-.02.314.164.511-.185.842.031.307.108.229-.031.253.33.482-.134.224-.005.301-.289.586.062.336-.304.459-.288-.058-.258.077-.247.454.031.305-.216.252-.484-.029-.227.216-.35.06-.072.232-.268-.025-.232.257-.026.185-.484-.162-.15-.167-.309-.042-.19.22-.222-.05-.175.135-.443.087-.108.099-.391.023-.309.225-.315-.033-.262.064-.15-.182-.438.142-.149-.179-.438-.18-.577.246-.303-.076-.212.056-.216-.21-.515-.03-.932-.166-.284-.44-.268-.054-.242.208-.273.418.006.193-.346.426-.092.408-.304.181-.181.222-.339.072-.526-.126-.263.033-.123.152-.531.167-.422-.033-.386.3-.902-.2-.355.267-.407.112-.211.228-.232.124-.247.016-.371-.322-.067-.13-.299.013-.046-.164-.201-.041-.175-.217-.175.118-.397-.07-.438.519-.216.66-.422.075-.248-.14-.175-.31-.335.084-.752.537-.422.007-.495.213-.489.337-.232-.025-.252.35-.175-.008-.103-.381-.32-.136-.298.264-.258.085-.144-.33-.18-.091-.227.183-.5.062-.582-.037-.046.545-.464.126-.51-.07-.036.369-.247.326-.391.153-.284-.078-.185.201-.263.113-.134.451-.056.19-.289-.047-.365.102v.177l-.443.11-.232.349-.02.211"/><path id="Конотопський" fill="#C8C6C6" fill-rule="evenodd" d="m67.187 189.495-1.421.599-.654 1.671-.361.476-.242-.109-.536.057-.407-.15-.273-.265-.427-.263-.304.049-.48-.126-.014.1-1.03-.248.226-1.04.597-1.004.52-.934-.777-.745-.752-.345-1.071-.436.061-.516-.185-.872.072-.328-.026-.618-.077-.448-.294-1.038-.19.174-.577.378-.464.236-.633.403-.809.383-1.004-.175-1.149-.13-2.179-2.243-.206-.101-4.023 1.068.33.222.026.528.108 3.034-.592.01-.083.661.052.674.525.234-.319 1.034-2.272-.484-.525-.564-.237.124-.098.291-.438.245-.247-.106-.237.033.145.348-.835-.15-.742 2.668-.252-.1-.505-.067-.32-.098-.447-.053-.551.068-.284.09.119.361-.165.294-2.364-.67-1.566-.256-1.015-.134-1.087-.18-.051-.535-2.756-.392-.788-.237-.742.037-.659-.267-.448-.032-1.705.341-2.673.499-1.046.212.057.412-.284-.074-.386.042-.366.868-.293.607-.284-.089-.777-.002-.02.315-.434.163-.226-.013-2.715-.41-.67.001-.236.053.216-.831-1.293-3.319-.231-.725.252-.166.15-.276-.712-.768-.886.439-2.487 1.568.103 1.476-.273-.286-.263.01-.288-.181-.655-.08-.108-.205-.911-.264-.134-.28-.665-.24.103-.679.284-.7.18-.289.18-.446.062-.46.15-.142.643-.417.124-.251-.155-.695.299-.132.124.107.396-.582.36-.654.335.241.706-.996-.072-.319-1.133-.542-.902-.729.938-1.744-.17-.942-1.715-.204-.948-.133.258-1.359-1.402-.177-2.353-.275-.794-.133-1.133-.151-.958-.161-.608.563-.55-.361-.526-.361.757-1.298 1.236-1.936 2.261-4.016-.515-.393-1.01-.88-1.22-1.322 1.262-1.682.937-1.187-.788-.585.974-1.165.69-.116 2.843-.356-.067-.605 1.046-.108-.242-1.964-.386-.402-.402-.559 1.53-1.78 1.658-1.813.124-.165-.69-.239-.201-1.263.675-.374-.068-.847.629-.028.077-1.075-.134-.099-.01-.412.345-.079.01-.306-.365.25-.134-.274-.16.018-.067.372-.37.146-.238-.106.258-.345.118-.268-.88.181-.057.164-.428.095.078-.197-.624.006-.072-.283.186-.476.489.083 1.076-.295-.123-.325-.453-.014-.376.232.072-.357-.35-.075.236-.289.253-.046.196.093.303-.5.237-.207.304.223.232-.22.144-.463.562-.19-.325-.419.505-.871-.196-.062-.221-.389-.36-.408-.104-.444.196-.05.613-1.084-.422-.233-.933-.584-.314-.102-.036.265-.469.082-.154.232-.284-.216-.206.121-.19-.152-.299-.479-.216-.246-.047-.703.02-.764.222-.546.103-.446-.556-.105.052-.154-.17-.498-.552-1.004-.164-.343-.577-1.647 1.89-.745.093-.383.211.166.129-.412-.026-.455.211-.216.979.919-.454.861-.092.269-.593.173-.062-.233-.324.082.118.414-.16.156.562.702.273.033.335.275.16-.04.376.202.185.365.005.418-.221.007-.02.631.082.3.422-.079.587.059.01.116.768.121.129-.367.268-.174.015.376.556-.021.062.282 1.226.225.211-.196.144-.287-.252-.286-.046-.2.056-.497-.185-.122.165-.217.03-.388-.952-.403-.31.077.021-.207-.422-.172.139-.333.438.093.736-.088.314.132-.082.143.247.465.196.037.17-.109.211.341 1.205-.15.109-.34.015-.469-.087-.591.458-.194-.175-.57-.48-.139-.839-.037-.026-.366.36.01.676-1.326.216-.503-1.365-1.192-.453-.374.88-3.924.083-.418.979-.89-.428-1.622.041-.326.418-1.633.092-.304.459.033v-.221l.437.014.232.07.098.351.196-.013.5-.162.545-.454.64-.289.308-.939 1.2.126.114-1.004.03-1.251-.314-.063-.309-.881-.051-.278.02-.706-.303-.364-.696-.257-.603-.279-.036-1.054.325-.274-.587-.253-.52-.067.01-1.224.33-.165-.227-.449.675-.081 2.147-.374.541.137.732.294.231-.48.407-.676.634-.28-.49-.256-.396-.003-1.638-.207-1.277-1.902-1.731-1.377-.196-.209.015-2.848.021-.595-.036-1.032-.206-.054-1.128.333-.53-.456-.315.177-.221-.425-.062-.345.005-.392.232-.64.355-.594.14-.15.587-.302.365-.343.103-.402-.525-.68.01-.534.15-.214 1.107.147.577-.057.16-.076.427-.103.83.623.51.347.411-.219.206.081-.602-1.19.34-.141.102.093.33-.013.206-.132.284.174.02.32.119.093-.13.29.155.33.371.517.572.15.268.47.504.997-.056.02.386.695.052-.274.15-.133-.058-.368.258-.112.314.026-.041-.445.221-.422.407.388.34-.04.206-.276.536.376.288-.283.402-.222.14-.273.313-.29.35-.245.233-.055.35.079.139-.278.226-.17.387.03.247-.057-.84-.712.3.039.195-.314.695.48.119.325.38-.107.12-.28.195.095.14.382.19.142.54.022.377-.18.273-.423.345-.343.417-.08.288.112.371-.066.222.197.638-.404-.072-.095.53-.446-.257-.258.284-.16-.068-.165.166-.374.427-.182.273-.243.391-.26.242-.223.598-.263.031-.417.407.037.165-.079.407-.756-.083-.073.155-.291.639-.288.54-.064.665.35 1.52.159.236.13.067-.364.443-.098.386.19.557.063.082-.068.737.022.185-.151.247-.02.191.501-.072.525.18.026.69-.048.325.168-.026.82.551.279.31-.05-.33-.592.35-.395-.093-.102.577-.148-.02-.203.283.016.72-.233.46.129.035.36-.819.616.083.288.376.27.113-.079.644.733.623.379 1.066.751.675.352.618 1.205.103.484 1.73 1.238.258.153.737-.554 1.005-.555.092.047.33-.156.134.327.123.129 1.345 1.633.19-.093 1.33 1.593 2.05-.334.756-.11.201-.1.356.74-.083.291-.772.102-.14.25-.53.003-.036.459 1.097.686.876.494.875.464.454.186.386.099.54.496.773.444.155.2.464.047.237.183.37-.007.155.207.093.652-.145.34-.206-.028.134.584.505 1.81-1.154.012-.597.231.211.709.737 1.046.34.407.607.495.098.341-.196.411-.067.59.732 1.277.242.138.216.016-.2.434-.042.541-.37-.027-.016.237.247.11.206-.133.201.073.02.265.217-.11 1.05.82 1.072 1.678-.211.106.216.19.469-.326.52.145.793.368-.2.294.34.167.2-.294.443.179.402-.457.85-.138.407.011.067.171 1.159 2.015.608-.164-.005-.211.468.206.52-.067.273-.179.114.337-.263.04-.752.314-.077.133-.041.419.185.261-.113.255.056.15.242.133.433-.16.278.207.932-.547.01-.364-.416-.23.51-.195.02-.38.469.054.561-.069.103 1.453-.175.127-.129.439-.232.137-.52.028-.654.565-.005.301.324.06.294.152.134.339.015.7-.221.174-.284.019-.545-.093-.124.153.005.214.206.506.397.53-.304.079-.232.172-.314-.191-.19.216.02.263.118.239.31.346-.181.244.144.134.217-.128.463.193.49-.036.499-.249.33-.054.757-.358.16-.214.056-.495-.056-.273.015-.418.118-.215-.02-.389.638.04.881-.315.222.025.18-.254 1.072-.859-.15-.264.237-.285.33.013.082-.214.356-.427.257.367-.093.046.155.517-.258.422-.16.527.212.059-.052.634.206.086.855.004.119-.068.376.052-.216-.45.133-.226.459-.082.438-.151.18-.238.484-.156.32-.217.36-.48.186-.115.035-.637-.097-.976-.196-.188-.397-.23-.556-.491-.108-.66.232-.42.118-.563-1.03-.617.057-.117-.042-.41-.273-.367.212-.175.206.095.237.597.71.672.052-.244-.155-.227.01-.459-.154-.169.14-.153-.021-.537.226-.701.103-.477.412.725.073-.005.237.612.298-.047-.098-.538 1.144-.1.551-.099.252 1.292.5.011.283-.057.495-.233.443.03.262-.038.047-.188-.505-.701-.407-1.325 1.077-1.763.087.212.953 2.863 1.247 1.417.407.392.288-.216.124-.293.273.24.17.319 1.298.688.175-.442 1.097.562.263.175.185.583.154.252 1.175-.685.355-.35v-.307l1.118-.83.288-.379.418-.405.345-.607.324.244.021.292 1.066.805-.51.67-.005.524.155.759.144.929.17-.016.602.746.098.049.232-.544.68-.049.695-.588.397.144-.139-.47.36-.101 1.092-.074 1.149.079.366.184.664.577.675.535.644.251.262.158.34-.078.052.2.268.173-.011.895-.798.896-.469-.252-.788.06-.226.575.072.106-.278.322-.217.135-.077.26-.057.527-1.05.602.051.693.453.428.284.576.051.548-.793.416.139.763-1.421.237-.655.144.227.538.263.478-.325.281.031.111-.314.127.474 1.007-.041.173.118.567.021.649.448.03.35-.043.747-.372.33.269.082.218.293.055.366.377-.02.124.293.65.392.327.438.601.072-.584.432.129.248-.474.973.227-.587 1.814.258-.034.473.251.618-.206-.056-.37.196-.182.242-.04.077.301v.4l.144.113.345.048.855.505.289.08.36-.019.567.405-.062.239-.427.183.072.278.355.063.196.197.015.302-.52.679-.309.188-.278.317-.273.127-.505.406-.082.313.324.269-.01.239-.186.157-.304.036-.051.182.257.28.078.278-.165.187-.319-.132-.078-.179.134-.286-.092-.18-.428-.183-.273.207-.258.062-.206-.086-.391-.368-.448-.199-.479.621.68 1.634-.593.358-.103.25-.005.717.098.262-.412-.074.021-.206-.392-.277-.319 1.428-.217.751-.216-.021-.448-.469-.232.132-.113.322-.407.001.005.286-.412.113-.031.274-.242.1-.196-.024-.154.152.473 1.047 1.005.362-.289.91-.432-.14-.881.197-.191.081-.252.278.046.176.237.189-.206.195-.144.51-.252-.063-.263.033-.191.509-.309.227-.273-.181-.304.005-.226.108-.294.385-.057.244.407.022.093.277-.226.199-.438.264-.155.284-.16.103-.077-.335-.293.033-.134.378-.381-.425-.052-.18-.34-.164-.154.056-.376.624-.258-.135-.412-.045-.16.264-.278-.002-.34.161.093.417-.18.015-.109-.173-.221.127.283.317-.226.117-.526-.134-.036.252.237.156.283-.094.15.112-.067.247-.423-.167-.19.072-.263.271.211.396-.268.422-.092.251.051.33-.139.043.036.064-.417.982.211.732.51 1.672-1.401 1.575-.453.206-.556.731.144.883.103 1.84-.283.506.463.228.314-.085.418 1.149-.067.446-2.02-.318-.437.648-1.025 1.06-.454.733-.577.828.17.111-.288 1.18-.788 3.1-.412-.136-1.757.349-.515.221-1.267.618-.365-.023-.067.245.355.11-.113.352-.016.992-.412.302-.103-.214-.5-.125-.17-.12-.525-.169-.211.1-.257-.075-.35.082-.624-.257-.49.06-.38-.143-.356.034.041.279-.298.266-.026.353-.01 1.494.077.175.262.094.062.257-.685.016.397 1.151.165.371.185.263-1.319.923-.68.496.13.125-.402.67-.145.457-.386.143-.098.501-.185.269-.412-.131-.206.338-.315.191-.195.015.092.247-.293-.009-.067-.208-.19-.189-.387.172.026.374-.227.399-.015.251-.278.393-.289.114-.051.309-.469.217.031.177.932.607-.144.247-.773.09-.72-.264-2.416-1.091-.418-.171-.582 1.365-.84-.357-.411-.077-.433.221-.381.026-.453-.041-.248-.086-.427-.025-.206-.125-.211.205.01.22-.253.356-.195-.079-.428.074-.5-.061-.607-.301-.36.181-.186-.015-.19-.186-.377-.099-.304.012-.314-.134-.113.078-1.128.112-1 .053" clip-rule="evenodd"/><path stroke="#000" stroke-linecap="round" stroke-linejoin="round" stroke-width=".2" d="m67.187 189.495-1.421.599-.654 1.671-.361.476-.242-.109-.536.057-.407-.15-.273-.265-.427-.263-.304.049-.48-.126-.014.1-1.03-.248.226-1.04.597-1.004.52-.934-.777-.745-.752-.345-1.071-.436.061-.516-.185-.872.072-.328-.026-.618-.077-.448-.294-1.038-.19.174-.577.378-.464.236-.633.403-.809.383-1.004-.175-1.149-.13-2.179-2.243-.206-.101-4.023 1.068.33.222.026.528.108 3.034-.592.01-.083.661.052.674.525.234-.319 1.034-2.272-.484-.525-.564-.237.124-.098.291-.438.245-.247-.106-.237.033.145.348-.835-.15-.742 2.668-.252-.1-.505-.067-.32-.098-.447-.053-.551.068-.284.09.119.361-.165.294-2.364-.67-1.566-.256-1.015-.134-1.087-.18-.051-.535-2.756-.392-.788-.237-.742.037-.659-.267-.448-.032-1.705.341-2.673.499-1.046.212.057.412-.284-.074-.386.042-.366.868-.293.607-.284-.089-.777-.002-.02.315-.434.163-.226-.013-2.715-.41-.67.001-.236.053.216-.831-1.293-3.319-.231-.725.252-.166.15-.276-.712-.768-.886.439-2.487 1.568.103 1.476-.273-.286-.263.01-.288-.181-.655-.08-.108-.205-.911-.264-.134-.28-.665-.24.103-.679.284-.7.18-.289.18-.446.062-.46.15-.142.643-.417.124-.251-.155-.695.299-.132.124.107.396-.582.36-.654.335.241.706-.996-.072-.319-1.133-.542-.902-.729.938-1.744-.17-.942-1.715-.204-.948-.133.258-1.359-1.402-.177-2.353-.275-.794-.133-1.133-.151-.958-.161-.608.563-.55-.361-.526-.361.757-1.298 1.236-1.936 2.261-4.016-.515-.393-1.01-.88-1.22-1.322 1.262-1.682.937-1.187-.788-.585.974-1.165.69-.116 2.843-.356-.067-.605 1.046-.108-.242-1.964-.386-.402-.402-.559 1.53-1.78 1.658-1.813.124-.165-.69-.239-.201-1.263.675-.374-.068-.847.629-.028.077-1.075-.134-.099-.01-.412.345-.079.01-.306-.365.25-.134-.274-.16.018-.067.372-.37.146-.238-.106.258-.345.118-.268-.88.181-.057.164-.428.095.078-.197-.624.006-.072-.283.186-.476.489.083 1.076-.295-.123-.325-.453-.014-.376.232.072-.357-.35-.075.236-.289.253-.046.196.093.303-.5.237-.207.304.223.232-.22.144-.463.562-.19-.325-.419.505-.871-.196-.062-.221-.389-.36-.408-.104-.444.196-.05.613-1.084-.422-.233-.933-.584-.314-.102-.036.265-.469.082-.154.232-.284-.216-.206.121-.19-.152-.299-.479-.216-.246-.047-.703.02-.764.222-.546.103-.446-.556-.105.052-.154-.17-.498-.552-1.004-.164-.343-.577-1.647 1.89-.745.093-.383.211.166.129-.412-.026-.455.211-.216.979.919-.454.861-.092.269-.593.173-.062-.233-.324.082.118.414-.16.156.562.702.273.033.335.275.16-.04.376.202.185.365.005.418-.221.007-.02.631.082.3.422-.079.587.059.01.116.768.121.129-.367.268-.174.015.376.556-.021.062.282 1.226.225.211-.196.144-.287-.252-.286-.046-.2.056-.497-.185-.122.165-.217.03-.388-.952-.403-.31.077.021-.207-.422-.172.139-.333.438.093.736-.088.314.132-.082.143.247.465.196.037.17-.109.211.341 1.205-.15.109-.34.015-.469-.087-.591.458-.194-.175-.57-.48-.139-.839-.037-.026-.366.36.01.676-1.326.216-.503-1.365-1.192-.453-.374.88-3.924.083-.418.979-.89-.428-1.622.041-.326.418-1.633.092-.304.459.033v-.221l.437.014.232.07.098.351.196-.013.5-.162.545-.454.64-.289.308-.939 1.2.126.114-1.004.03-1.251-.314-.063-.309-.881-.051-.278.02-.706-.303-.364-.696-.257-.603-.279-.036-1.054.325-.274-.587-.253-.52-.067.01-1.224.33-.165-.227-.449.675-.081 2.147-.374.541.137.732.294.231-.48.407-.676.634-.28-.49-.256-.396-.003-1.638-.207-1.277-1.902-1.731-1.377-.196-.209.015-2.848.021-.595-.036-1.032-.206-.054-1.128.333-.53-.456-.315.177-.221-.425-.062-.345.005-.392.232-.64.355-.594.14-.15.587-.302.365-.343.103-.402-.525-.68.01-.534.15-.214 1.107.147.577-.057.16-.076.427-.103.83.623.51.347.411-.219.206.081-.602-1.19.34-.141.102.093.33-.013.206-.132.284.174.02.32.119.093-.13.29.155.33.371.517.572.15.268.47.504.997-.056.02.386.695.052-.274.15-.133-.058-.368.258-.112.314.026-.041-.445.221-.422.407.388.34-.04.206-.276.536.376.288-.283.402-.222.14-.273.313-.29.35-.245.233-.055.35.079.139-.278.226-.17.387.03.247-.057-.84-.712.3.039.195-.314.695.48.119.325.38-.107.12-.28.195.095.14.382.19.142.54.022.377-.18.273-.423.345-.343.417-.08.288.112.371-.066.222.197.638-.404-.072-.095.53-.446-.257-.258.284-.16-.068-.165.166-.374.427-.182.273-.243.391-.26.242-.223.598-.263.031-.417.407.037.165-.079.407-.756-.083-.073.155-.291.639-.288.54-.064.665.35 1.52.159.236.13.067-.364.443-.098.386.19.557.063.082-.068.737.022.185-.151.247-.02.191.501-.072.525.18.026.69-.048.325.168-.026.82.551.279.31-.05-.33-.592.35-.395-.093-.102.577-.148-.02-.203.283.016.72-.233.46.129.035.36-.819.616.083.288.376.27.113-.079.644.733.623.379 1.066.751.675.352.618 1.205.103.484 1.73 1.238.258.153.737-.554 1.005-.555.092.047.33-.156.134.327.123.129 1.345 1.633.19-.093 1.33 1.593 2.05-.334.756-.11.201-.1.356.74-.083.291-.772.102-.14.25-.53.003-.036.459 1.097.686.876.494.875.464.454.186.386.099.54.496.773.444.155.2.464.047.237.183.37-.007.155.207.093.652-.145.34-.206-.028.134.584.505 1.81-1.154.012-.597.231.211.709.737 1.046.34.407.607.495.098.341-.196.411-.067.59.732 1.277.242.138.216.016-.2.434-.042.541-.37-.027-.016.237.247.11.206-.133.201.073.02.265.217-.11 1.05.82 1.072 1.678-.211.106.216.19.469-.326.52.145.793.368-.2.294.34.167.2-.294.443.179.402-.457.85-.138.407.011.067.171 1.159 2.015.608-.164-.005-.211.468.206.52-.067.273-.179.114.337-.263.04-.752.314-.077.133-.041.419.185.261-.113.255.056.15.242.133.433-.16.278.207.932-.547.01-.364-.416-.23.51-.195.02-.38.469.054.561-.069.103 1.453-.175.127-.129.439-.232.137-.52.028-.654.565-.005.301.324.06.294.152.134.339.015.7-.221.174-.284.019-.545-.093-.124.153.005.214.206.506.397.53-.304.079-.232.172-.314-.191-.19.216.02.263.118.239.31.346-.181.244.144.134.217-.128.463.193.49-.036.499-.249.33-.054.757-.358.16-.214.056-.495-.056-.273.015-.418.118-.215-.02-.389.638.04.881-.315.222.025.18-.254 1.072-.859-.15-.264.237-.285.33.013.082-.214.356-.427.257.367-.093.046.155.517-.258.422-.16.527.212.059-.052.634.206.086.855.004.119-.068.376.052-.216-.45.133-.226.459-.082.438-.151.18-.238.484-.156.32-.217.36-.48.186-.115.035-.637-.097-.976-.196-.188-.397-.23-.556-.491-.108-.66.232-.42.118-.563-1.03-.617.057-.117-.042-.41-.273-.367.212-.175.206.095.237.597.71.672.052-.244-.155-.227.01-.459-.154-.169.14-.153-.021-.537.226-.701.103-.477.412.725.073-.005.237.612.298-.047-.098-.538 1.144-.1.551-.099.252 1.292.5.011.283-.057.495-.233.443.03.262-.038.047-.188-.505-.701-.407-1.325 1.077-1.763.087.212.953 2.863 1.247 1.417.407.392.288-.216.124-.293.273.24.17.319 1.298.688.175-.442 1.097.562.263.175.185.583.154.252 1.175-.685.355-.35v-.307l1.118-.83.288-.379.418-.405.345-.607.324.244.021.292 1.066.805-.51.67-.005.524.155.759.144.929.17-.016.602.746.098.049.232-.544.68-.049.695-.588.397.144-.139-.47.36-.101 1.092-.074 1.149.079.366.184.664.577.675.535.644.251.262.158.34-.078.052.2.268.173-.011.895-.798.896-.469-.252-.788.06-.226.575.072.106-.278.322-.217.135-.077.26-.057.527-1.05.602.051.693.453.428.284.576.051.548-.793.416.139.763-1.421.237-.655.144.227.538.263.478-.325.281.031.111-.314.127.474 1.007-.041.173.118.567.021.649.448.03.35-.043.747-.372.33.269.082.218.293.055.366.377-.02.124.293.65.392.327.438.601.072-.584.432.129.248-.474.973.227-.587 1.814.258-.034.473.251.618-.206-.056-.37.196-.182.242-.04.077.301v.4l.144.113.345.048.855.505.289.08.36-.019.567.405-.062.239-.427.183.072.278.355.063.196.197.015.302-.52.679-.309.188-.278.317-.273.127-.505.406-.082.313.324.269-.01.239-.186.157-.304.036-.051.182.257.28.078.278-.165.187-.319-.132-.078-.179.134-.286-.092-.18-.428-.183-.273.207-.258.062-.206-.086-.391-.368-.448-.199-.479.621.68 1.634-.593.358-.103.25-.005.717.098.262-.412-.074.021-.206-.392-.277-.319 1.428-.217.751-.216-.021-.448-.469-.232.132-.113.322-.407.001.005.286-.412.113-.031.274-.242.1-.196-.024-.154.152.473 1.047 1.005.362-.289.91-.432-.14-.881.197-.191.081-.252.278.046.176.237.189-.206.195-.144.51-.252-.063-.263.033-.191.509-.309.227-.273-.181-.304.005-.226.108-.294.385-.057.244.407.022.093.277-.226.199-.438.264-.155.284-.16.103-.077-.335-.293.033-.134.378-.381-.425-.052-.18-.34-.164-.154.056-.376.624-.258-.135-.412-.045-.16.264-.278-.002-.34.161.093.417-.18.015-.109-.173-.221.127.283.317-.226.117-.526-.134-.036.252.237.156.283-.094.15.112-.067.247-.423-.167-.19.072-.263.271.211.396-.268.422-.092.251.051.33-.139.043.036.064-.417.982.211.732.51 1.672-1.401 1.575-.453.206-.556.731.144.883.103 1.84-.283.506.463.228.314-.085.418 1.149-.067.446-2.02-.318-.437.648-1.025 1.06-.454.733-.577.828.17.111-.288 1.18-.788 3.1-.412-.136-1.757.349-.515.221-1.267.618-.365-.023-.067.245.355.11-.113.352-.016.992-.412.302-.103-.214-.5-.125-.17-.12-.525-.169-.211.1-.257-.075-.35.082-.624-.257-.49.06-.38-.143-.356.034.041.279-.298.266-.026.353-.01 1.494.077.175.262.094.062.257-.685.016.397 1.151.165.371.185.263-1.319.923-.68.496.13.125-.402.67-.145.457-.386.143-.098.501-.185.269-.412-.131-.206.338-.315.191-.195.015.092.247-.293-.009-.067-.208-.19-.189-.387.172.026.374-.227.399-.015.251-.278.393-.289.114-.051.309-.469.217.031.177.932.607-.144.247-.773.09-.72-.264-2.416-1.091-.418-.171-.582 1.365-.84-.357-.411-.077-.433.221-.381.026-.453-.041-.248-.086-.427-.025-.206-.125-.211.205.01.22-.253.356-.195-.079-.428.074-.5-.061-.607-.301-.36.181-.186-.015-.19-.186-.377-.099-.304.012-.314-.134-.113.078-1.128.112-1 .053"/><path id="Сумський" fill="#C8C6C6" fill-rule="evenodd" stroke="#000" stroke-linecap="round" stroke-linejoin="round" stroke-width=".2" d="m127.315 269.632-1.324.306-.206-.331-2.045 1.277.181.169-.335.263-.299.427-.381.125-1.411-.639-.067-.398-.211-.36-.145-.106-.247.248-.474-.329-.592-.568-.938-.952-.391-.051-.33-.295-1.869-1.155-2.143-1.527-.665-1.126-.226-.612-.392-.797-.494.088-.835-.606.078-.18-.263-.27-.16-.625-.129-1.215-.051-.708.221-2.11.227-2.04-.026-.103-.319-2.328-.165-1.368-.119-.212-.128-.492.134-.218-.222-.411-.324-.437-.042-.474-.293-2.436-.232-.073-.541.037-.144.091-.17-1.993.685-.064-.206-.706-.015-.556-.237-.42.087-.138-.062-.253-.206-.412-.082-.965-.118-.479.396-.301-.572-.765-1.184-1.644-1.175-1.535-.556-.555-.335-.277.093-1.322-.283-.241-.66-.404-.989-.557-.118.006-.495-.29-.082-.143-.324-.26-.186-.249-.211-.456-.278-.703-.304-.132-.227-.224-.489-.75-.629-.665-.51-.321-.494-.394-1.046-.877-.566-.672-.773-.854.964-.993.484-.601.376-.381 1.39-.773.304-.036.474-.26.531.927.623.605 1.463-1.586.407-.477-1.453-1.331.675-.689.783-.642.536-.282.149-.237.53-1.143-.355-.072-.191-.115-.453-.611-.432-.434.108-1.122.072-.381-.026-.452-.118-.6.02-.221-.371-.19-.149-.29-1.21-.088.061-.496.016-.688 1.519.093.417-1.865.232-.782.134-.319.783-.534.33-.264.092-.379.098-.294-.278-.681.088-.394.401-.468-.061-.779-.139-.365.01-.222-.139-.786-.799-.526-.314-1.064-.499-.005-.449.304-.422.081-.067.154-.994.314-.108.116-.34.117-.546.298-1.9-4.125-.768-2.954.396-.079.402-.244.32-.292-.47-.398-.2-.432-.263-.176-.335.098-.221-.331-1.9.445-.088-.758.056-.536-.752-.134-.427-.009-.304-.093-.34-.299-.19-.034-.104-.242.237-.178-.123-.372.613-.395.35-.341.216-.132.232-.316.175-.397.222-1.501.303-1.674.711-.12-.087-.239.062-.199.427-.114-.046-.318-.284-.04-.16-.378.052-.163-.412-.544-.263-.508-.242-.277-.479-.21-.309-.191-.072.122-.834-.348-.211.135-.526-1.18-.288-.6-.433-1.016-.427-.669-.103.032-.47-.445.387-.481-.165-.438-.453-.176-.412-.244.082-1.497.413-.302.015-.992.113-.352-.355-.111.067-.245.365.023 1.267-.618.516-.221 1.756-.349.412.136.788-3.099.289-1.181-.17-.111.577-.828.453-.733 1.025-1.06.438-.648 2.019.319.067-.447-.417-1.149-.315.085-.463-.228.283-.506-.103-1.84-.144-.883.556-.731.453-.206 1.401-1.574-.51-1.673-.211-.732.418-.982-.037-.064.139-.043-.051-.33.093-.251.268-.422-.212-.396.263-.271.191-.071.422.166.067-.247-.149-.111-.284.094-.237-.157.036-.252.526.134.226-.117-.283-.317.222-.127.108.173.18-.015-.093-.417.34-.161.278.002.16-.264.412.046.258.134.376-.624.154-.056.34.164.052.18.381.426.134-.379.293-.033.078.335.159-.103.155-.283.438-.265.226-.199-.092-.277-.407-.022.056-.244.294-.385.227-.108.303-.004.273.18.31-.227.19-.509.263-.033.252.063.052-.155.669.196.448.077.825.509.679.485 1 .581.85.298.726.64 1.149.875 1.117-.093 1.036-.118.736-.758 1.267-1.335 1.242-1.382.834-.693.381-.412 1.206.34.308.119.794.414.283.229-.18.381 1.73.625.505.237.623-.758.325.29.417.283.036.194.237.337.577.354.247.007.5.25.309.279.345.097.17.224.474.118 1.236.211.814.014.412-.646.438-.76 1.473-.002.252.249.917.794 1.35.961.86.574 1.571-1.615.155-.192v-.592l.092-.323.284-.014.35.314.963.181.237-.096.278.05.289-.076.365.004.273.181.294-.032.293.065.145.132.37.076.196.138.721-.074.109.265.329 4.663.098 1.494.041.142.031.212 1.679 2.23 2.349 1.262 1.252-1.478.463.463 1.139-.13.376-.014.535.463.825.235.293-.067.356-.215.118-.154.088-.368.314-.532.319.239.222.457.401.267.129.196.423.098.437-.179.186.145-.052.441.387.148.072.139.309.161 1.421-.016-.01-1.12-.108-.273v-.493l.453-.138.67-.626-.098-.292 1.427-1.09.875.978.315.085.304-.457.334-.148.34.034.907.281.247-.434.222-.166.103-.327-.103-.424.278-.213.52-.131.288.064.577.041.531-.066.53-.349.263-.45-.026-.448.098-.322.252-.137.433-.007.34-.135-.072-.524-.108-.381.149-.153.412-.148.572-.332 1.138-.464.175-.108.299.191-.041.23.922.401.19.018.583-.193.329-.256.335.053.155.112.159.391.556.501.176.399.401.232.418-.038.494.279.067 1.797.438-.211.304-.308.335-.135.324-.233.118-.264.454-.35.108-.38-.17-.424.093-.342.216-.292.108-.365.273-.203.49-.215.777.24 1.752-.333.731.227.319.184.176-.242 1.195.518 1.411.567-.01.323-.413.138-.041.091-.499.289-.17 1.013.128.202.346.203.056.444-.417.484-.283.4-.392.334-.02.341.062 2.438.314.42-.948.759.144.492.448.568.232.096.412.318.232.356-.057.168-.37.23-.057.156.154.497.248.192.18.27.154.454-.185.4 1.04.372.747.445.464.206.561.654-.52.274-.381.905-.098.536.155.302v.719l.324.04.103-.328.242.381.366.253-.283 1.54-1.525-.47-.665 1.096.222.014.294.17.242-.188.108.106.443-.236.252.431-.062.205.176.413.273.124.257.451.288.15.073.258.401.73-.026.166.335.463.268.249.052.355.546.329.283-.181.33.228.082.325.355.134.047.134.329.052.618-.616.155-.194.299-.012-.031-.172.118-.199 1.314-.84.103-.346.365-.148.479.467.212-.072.139.091-.036.276.695-.498.046.155-.134.283.201.264.51-.028.237-.103.041-.388-.226-.295.396-.106.176-.32.545-.016.134-.246.582-.047.753-.639.072-.24-.078-.163 1.978.075-.129.351.165.436.618.354.412.281.855.495.387-.19.407-.306 1.087.036.221-.145.773 1.339.201.445.252.05.448-.227.546.598.397.332-.057.473.036.269.17.019.113.449-.448.045-.01.532-.283.151-.031.259.252.047.062.32.36-.007.129.336-.391.276-.078.199-.793-.014-.062.414-.849.049-.109.916-.597.175-.036.358-.402.034-.953.448-.891-.113-.69-.164-.603-.225-.324-.274-.345-.453-.201.105.51.675.221.834.5.479-.196.174-.448.188.242.529.67.597.17-.009.535 1.51.103.058.155.381-.083.147-.314.159-.345.492-.093.512-.494.05-.155.599.124.092-.391.736-.124.083-.052.562-.298.148.613 1.598.432.079.485-.12.133.303.222.144.546-.028.062.131.86-.2.603.023-.103.28-.382.641.608.296 1.2-.026.397-.123-.026.653.232.156.453.512.139.559-.216.052-.253.205.006.244.561.503-.139.122-1.849.86.108.246.561 1.043.134.137.541.335.525.403-.664.275-.556.341-.433.667.242.317.314.113.505.273.242.05.356-.071.309.26.19.614.392.503.551 1.439.046.356-.02.467.041 1.116-.021.275-.242 1.007-.262.498-.273 1.122v.336l.087.355.309.486.448.226 1.062.4.154.227.901.887.371.405.325.12.278-.019.448-.13.623-.018.433-.174.51.465.675.565-.505 1.147-.216.56-.557 1.209.227.234-.015.177-.227.251-.314.452-.011.349.109.083.226.415-.175.3.016.141-.423.117-.237.171.783 1.261-.484 1.2-.026.8-.118.29-.258.04-.201.284-.041.239.134.15.015.244-.082.238.026.367.17.258-.036.362-.217.267-.036.241.387.549.659.487.726-.13.526.136.329.148.325-.018.149.093-.762 1.087.144 1.605-.278.385-.541-.327-.932-.681-.485-.399-1.684.86-1.298.645-.556-.078-1.005.013-.695-.112-.314.483-.335.375.015.807-.087.241.876 1.355.886 2.456.133-.219.248-.108.314.056-.17.907.232.269.134.267.195.2-.432.527-1.716 1.196-.206.33-.36.779-.273.261 1.566 1.158.999.634.608.577.247.489.031.421.654 1.454-.051.132-.366-.333-.247-.127-.407-.079-.201-.177-.562-.269-.494.056-.098-.358-.53-.003-.057.347-.417.259-.072.116.036.564-.382.015-.247.238.093.502-.556-.088-.742-.22-2.261-.418-.624-.164-.092.366-.464-.141-.108-.241-.129-.024-.566.504-.088.162-.278-.117-.417.424.391 1.185-.458.136-.283-.284.144-.202-.294-.064-.134-.138.201-.157-.196-.379-.577-.32.098-.688-.149-.186-.247-.079-.134-.349-.309-.076.046.419.34.622.067.193-.433.985.212.361-.16.364-.289.097-.252-.083-.314.083-.381-.064-.011.244-.159.424-.201.4-.69-.006-.387.117-.118-.587.649-.113-.021-.347.412-.092-.412-1.261-.144.026-.577.675-.128-.138v-.323l-.124-.121-.021-.29-.288-.34-.221-.002-.382-.151.206-.142.263.085.309-.071.289.034.355-.215.458.177.114.252.221-.219-.082-.391-.129-.2.175-.113-.232-.745.155-.3-.057-.179.361-.619.02-.179.309-.083-.092-.239-.335-.22-.077-.21-.407.032-.103-.312-.078-.548.495-.376.108-.316-.232-.175-.211-.052-.098-.2-.675-.322-.288.032-.592-.164-.294.023-.093.492-.123.303-.485.468-.376.505-.607-.323-.629-.142-.726-.068-1.066.003-.067.142-.371.023-.561.606-.361-.163-.402-.286-.206-.053-1.308-.859.299-.507.18-.423-1.03-.43.185-.507.304-.05.041.144.634.123.376.167.324.045.325.144.839.106-.087-.159-.263-.024-.736-.266-.083-.121-.443-.257.113-.326-.061-.427-.237-.664.324-.248-.015-.127.793-.569-.129-.235-.613-.461-.051-.698.324.191.309-.745.073-.461-.382-.032.052-.287.309-.192.932-.2.088-.22.036-1.179.149-.051.304.096.438-.024-.067-.19-.505-.338-.489-.58-.093-.384-.479-.531.546.023.155-.242.118.057.247-.11.062-.141-.602-.249-.083.151-.36-.003-.176-.301.191-.799-.427.215-.716-.209-.33-1.26-.139-.109-.464-.117-.381-.153-.072.382-.232.341-.041.371-.165.11-.226-.023-.588.152-.685-.025-.056.629-.186-.13-.314.081-.324-.008.113.322-.469.308-.716-.281-1.334-.689.026-.588-1.195-.119-.01.422-.526.584-.118.411-.381-.165-.412-.288.092-.285-.036-.426.119-.024-.907-.689-.051-.384-.248.035-.427-.263-.211.514.211.291-.268.262-.664.421-.289.014-.371-.179-.231-.237-.057-.318.242-.21-.067-.41.103-.306-.134-.494-.18-.241.283-.336-.366-.231-.051-.109.381-.484-.227-.307.006-.233.252-.051.211.147-.005.253-.154.206.066.235.284.1.741-.405.495-.006.422.312.655-.578.164-.107-.108-.224.005-.603-.237.075-.561.601-.211.122-.212-.083-.113-.338.412-.569.371-.097.278.052.294.158.077.138.469-.121.149-.145.247.079.315-.067.061.203.49.054.17.106-.32.211.577.338.49-.753.273-.301-.428-.293-2.266-1.416-.572.122-.252-.557-.345.087-.026-.199-.433-.032-.062.249-.422-.13-.768-.415-.345.023-.51-.22-.288-.265-.155-.358-.417.063-.608-.005-.159.069-.788.172h-.546l-.366-1.884-.088.331-.221.289.17.599-.124.288-.52.159-.119.402-.417.16-.829.524-.582-.865v-.374l-.701-.217-.123-.088-.036-.322-.093.068-.834-.263-.093.101-.659-.173-.078.357.701.182.546.506-.103.242.005.361-.103.593-.253.508.32-.148.247-.012.149-.139.145.236.206.144-.279.493-.252.109.232.182.345-.137.165.213-.196.365.35.081.021-.303.499.262.006.141-.181.2-.34-.061-.185.166-.036.527.118 1.82-.556.03-.355.226-.407.818-.17.14-.587.19-.397.405.036.257-.051.407-.191.308-.304.195-.242.066-.793.063-.387.244-.293.535-.263 1.015.031.367-.087.458-.366.728-.16.158-.139.355-.129.97-.01.479-.16.469-.535.746-.392.229-.54.044-.351.123-.376.321-.283.431-.283.53-.242.345-.485.276-.309.018-.695-.15-.402.058-.18.113-.237.292-.268.2-.52.22-.479.281.623.799-.659.798-.108-.038-.351.171-.226.343.046.292-.232-.077-.144.52-.18.906-.201.686.041.288-.623-.147-.062.322-.118.058-.546-.68-.515-.16-.634-.152-1.04.162-.346.031.222.853.34.953-.18.836-.253.986.361.317-.196.249-.675.987-.278.73-.659-.217-.036.311-.181.324.191.441-.252.15-1.103.391-.772.395-1.092.651-.227.22-.36-.012-.515.277-1.056.261-.16-.022-.376.286.051.243-.092.396-.304.04-.417.279-.258.055-.072.196.288.114.016.263-.448.107-.17-.115-.196-.151-.155.187-.185.576-.335.166-.18-.029-.489.257-.325.429.015.18-.19.154-.335.093-.067.129-.494.267-.531.021-.494.919.236.105-.097.277.092.193-.087.499-.283.764-.65-.145-.468-.161-.093.314-.191.047-.71-.234-.34.264-.351.133-.546-.043-.788-.108-.932-.182-.386.043-.247 1.135.036.126-.325 1.229-.288-.095-.49 1.469-.283.687-.391.856-.449.765-.237.339 1.026.774-.644.87-1.103-.81-1.02.99-.607.221-.912.202Z" clip-rule="evenodd"/><path id="Охтирський" fill="#C8C6C6" fill-rule="evenodd" d="m149.075 300.608-.062.169.041.678.103.826.314.393-.685.674-.206.573.248.075.252.438-.196.171-.046.59.165.262-.078.241-.391.046-.17.177-.278-.017-.155-.097-.221.028-.294.267-.159-.079-.098-.276-.16-.848-.031-1.216.448-.558-.201-.082-.216-.25-.309.047.263.261.005.159-.227.148-.227.321-.005.171-.211.612.093.091-.124.313-.294.161-.108.31.217.405-.247-.065-.279.047-.288-.18.123-.234-.283-.185-.18.008-.309.499-.18-.043-.17-.205.02-.149-.324-.072-.201.215-.505.203-.227.01-.195-.225-.34-.589-.346.029-.34-.087-.18-.153-.242-.039-.736-.354-.593-.401-.237-.312-.432.054-.376-.082-.072.31-.279.296-.19.302-.16.061-.288-.312-.072-.213-.485-.23-.932-.704-.206-.098-.278.003.026-1.07-.598-.114-.128-1.572-.067-.13-.902.014.17-.642.495-1.607-.752-.093-.181-.689 1.922-2.877.664-.968.495.049.262-.52.551-1.929.134-.335-.7-1.228-.32.312.279.159.087.287-.309.319-.036-.375-.175-.166.01-.406.206-.254-.252-.167-.438-.588-.407-.299-.232-.098-.041-.182-.371-.1-.123.051-.304-.089-.155-.281-.371.191.093.301.345.105.129.209-.046.151-.31.271-.242.115-.139-.05.047-.263-.397-.27-.18-.003-.448-.492-.098-.262-.036-.488.129-.122.376-.051.061-.144.005-.423.237-.204-.175-.239-.206-.448-.314-.441.093-.485-.273-.136.499-.655.181-.181-1.041-.526-2.225-.321-1.597-.21-.587.23-.216-.231-.984-.809-3.508-3.102-.01-.072.767-1.7.17-.494-.108-.283-1.53-.933-.731-.875.185-.195-.298-.655-.397-.16.587-.517.598-.58.381-.124.299-.428.334-.263-.18-.168 2.045-1.277.206.33 1.324-.305.912-.202.607-.221 1.02-.99 1.103.81.643-.87-1.025-.774.237-.339.448-.765.392-.857.283-.686.489-1.469.289.095.324-1.229-.036-.126.248-1.135.386-.043.932.182.788.108.546.043.351-.133.34-.265.71.235.191-.047.093-.314.468.161.649.145.284-.764.087-.499-.092-.193.097-.278-.237-.104.495-.919.53-.021.495-.267.067-.129.335-.093.19-.154-.015-.18.324-.429.49-.257.18.029.335-.166.185-.577.155-.186.196.151.17.114.448-.106-.016-.263-.288-.114.072-.196.258-.056.417-.278.304-.041.092-.395-.051-.243.376-.286.159.022 1.056-.261.515-.278.361.013.227-.22 1.092-.651.772-.395 1.103-.391.252-.15-.191-.441.181-.324.036-.311.659.217.278-.73.675-.987.196-.249-.361-.317.252-.986.181-.837-.34-.952-.222-.853.345-.031 1.041-.163.633.153.516.16.546.68.118-.058.062-.322.623.147-.041-.288.201-.686.18-.906.144-.52.232.077-.046-.292.226-.343.351-.171.108.038.659-.798-.623-.799.479-.281.52-.22.268-.201.237-.291.18-.113.402-.058.695.15.309-.018.484-.277.242-.344.284-.53.283-.431.376-.321.35-.123.541-.044.392-.229.535-.746.16-.469.01-.479.129-.97.139-.356.16-.157.366-.728.087-.458-.031-.367.263-1.015.293-.535.387-.244.793-.063.242-.067.304-.195.19-.307.052-.407-.036-.257.396-.405.588-.191.17-.139.406-.818.356-.226.556-.03-.118-1.82.036-.527.185-.166.34.061.18-.2-.005-.141-.499-.262-.021.303-.35-.081.196-.365-.165-.213-.345.137-.232-.182.252-.109.279-.493-.206-.144-.145-.237-.149.14-.247.012-.32.148.253-.509.103-.592-.005-.361.103-.242-.546-.506-.701-.182.077-.357.66.173.092-.101.835.263.093-.068.036.322.123.088.701.217v.374l.582.865.829-.524.417-.16.119-.402.52-.159.124-.288-.17-.599.221-.29.088-.33.365 1.883.546.001.788-.172.16-.069.608.005.417-.063.155.358.288.265.51.22.345-.023.768.415.422.13.062-.249.432.032.026.199.345-.087.253.556.572-.121 2.266 1.415.428.294-.274.301-.489.753-.577-.338.32-.211-.17-.106-.49-.054-.061-.204-.315.068-.247-.079-.149.145-.469.12-.077-.137-.294-.158-.278-.052-.371.097-.412.568.113.339.212.082.211-.121.561-.602.237-.074-.005.603.108.223-.165.108-.654.578-.422-.312-.495.006-.741.405-.284-.1-.067-.235.155-.206.005-.253-.211-.147-.253.051-.005.233.227.306-.381.485.051.108.366.232-.283.336.18.241.134.494-.103.306.067.41-.242.21.056.318.232.237.371.178.289-.013.664-.421.268-.262-.211-.291.211-.514.427.263.248-.035.051.384.907.689-.119.024.036.426-.092.285.412.288.381.165.118-.412.526-.583.01-.422 1.195.119-.026.588 1.334.689.716.281.469-.308-.114-.322.325.007.314-.081.186.131.056-.629.685.025.587-.153.227.024.165-.11.041-.371.232-.341.072-.382.381.153.464.117.139.108.329 1.261.716.209.428-.215-.191.798.176.301.36.004.082-.152.603.25-.062.141-.247.11-.118-.057-.155.242-.546-.023.479.531.093.384.489.58.505.338.067.19-.438.024-.304-.096-.149.051-.036 1.179-.088.22-.932.2-.309.192-.052.287.381.032-.072.461-.309.745-.324-.191.051.698.613.46.129.236-.793.568.015.128-.324.248.237.663.061.428-.113.325.443.258.082.121.737.266.263.023.087.16-.839-.106-.325-.144-.324-.045-.376-.167-.634-.123-.041-.144-.304.05-.185.506 1.03.43-.181.424-.298.506 1.308.86.206.052.402.287.36.163.562-.606.371-.023.067-.142 1.066-.003.726.068.629.142.607.323.376-.505.484-.468.124-.304.093-.491.293-.023.593.164.288-.033.675.323.098.2.211.051.232.176-.108.316-.495.375.077.549.104.312.406-.032.078.21.334.22.093.239-.309.083-.02.179-.361.619.057.179-.155.3.232.744-.175.113.129.201.082.39-.221.22-.114-.253-.458-.177-.356.216-.288-.034-.309.071-.263-.085-.206.142.381.151.222.002.288.34.021.29.123.121v.322l.129.139.577-.675.144-.026.412 1.261-.412.092.021.347-.649.112.118.588.387-.117.69.006.201-.4.159-.424.011-.245.381.065.314-.083.252.082.289-.096.159-.364-.211-.361.433-.985-.067-.194-.34-.621-.046-.42.309.077.134.349.247.079.149.185-.098.688.577.321.196.379-.201.157.134.138.294.064-.145.202.284.284.458-.137-.391-1.185.417-.423.278.117.088-.162.566-.504.129.024.108.241.464.141.092-.366.624.164 2.261.417.742.221.556.088-.093-.503.247-.238.382-.015-.036-.563.072-.116.417-.259.056-.347.531.002.098.359.494-.056.562.269.201.177.407.079.247.127.365.333.109.241-.371.705-.026.552.103.275.324.097.402.018.077.828 1.051 1.334-.026.293.134.146-.02.24-.191.196.217.278.329-.016 1.004 1.931.253.289 1.128.392.85.438.242.191.386.519 1.37 1.058.685.374.443.596-.087.169.778.323.252.014.258-.15.133.15-.02.282.087.151.325-.048.18.238.376.057.474-.462.052-.292-.773.18-.046-.314.68-.732.484.88.237.291.077.341.407.33.206.301.051 1.511.011.732-.309.138.02 4.639.119.399.741-.099.299 1.295 1.211 1.128-.871.987 2.045 1.985.216-.26.232.024 1.365.245.922.145-.324.59 1.179.302.999.236.211-.636.881.247-.345 1.441-.474-.04-.077.481-.34.047-.407.707-1.092-.147-.396 1.905-.412-.013-.057.368-1.133-.479.02-.218-.762-.349-.325-.319-.077-.145.222-.113.324-.33-1.082-.207-.427-.011-.891-.332-.634-.337-.494.502-1.236.999-1.247-.184-.515.064-1.993.336-1.118.134 1.633 1.994-.093.499-.252.013-.129.703-.15-.207-.298.588-1.71-1.295-.675.952-1.319-.903-1.885-1.336.072-.707-1.71-.265-.227-.712-.922-1.467-.164-.221-.315.329v.233l-.2.078-.243.25.016.273-.206.327-.211.158.01.218-1.108.285-1.514-.235.098 1.208.427.722-.257 1.506-2.256-1.578-1.087-.824-1.04-.741-.17.067-.819.572.231.271-1.535 2.101-.571.802 2.421 1.58.473.118-.077.308-.201.185-.963.298-.53.46-.876.647-2.375-.344-.448-.031-.015.219-.325.277-.144.604.067.286.026.464.077.262-.278.84-.005.417.139.223-.026.488-1.931-.266-.243 1.104-.298-.092-1.376-.419-1.344-.451.093-.334-.201-.033-.247.808-.196.504-.139-.035-2.488-1.151-1.143-.655-1.844 2.212-1.015.83-.186.181-.618.467-.953.164-.365.095-1.618.849.577.72-.597.51.232.145.02.134-.283.161-.103.626-.433.33-.046.12-.33-.077-.299.513-.731 1.367-.335.751-.242.134-.85-.172.216-.933-.092-.739.123-.204-1.056-.235-.731-.277-.232-.009-.221.834-.253-.067.031-.208-.175-.132-.051-.211-.696-.126-.685.119-.618.058-1.097-.331-.191.015.557 1.694.376 1.221.015.56-.448.124-.278.227-.227.074-1.761.36-.078.029-1.339-.38-1.061-.284-.839-.25-2.426-.279-.722-.093-.855-.071-.154-.054-.453-.376-.103.116-.387.769-.845.419-.396-.389-.469-.199-1.334-.02-.659.107.216.637-1.664.199-1.344.733-.026.165-1.179.155-.114-.19-.237.264-.576-.046.715-.976.083-.705-1.262-.341-.711.308-.309.344-.211.596-.68-.12-.165-.134-.391.248-.443.146" clip-rule="evenodd"/><path stroke="#000" stroke-linecap="round" stroke-linejoin="round" stroke-width=".2" d="m149.075 300.608-.062.169.041.678.103.826.314.393-.685.674-.206.573.248.075.252.438-.196.171-.046.59.165.262-.078.241-.391.046-.17.177-.278-.017-.155-.097-.221.028-.294.267-.159-.079-.098-.276-.16-.848-.031-1.216.448-.558-.201-.082-.216-.25-.309.047.263.261.005.159-.227.148-.227.321-.005.171-.211.612.093.091-.124.313-.294.161-.108.31.217.405-.247-.065-.279.047-.288-.18.123-.234-.283-.185-.18.008-.309.499-.18-.043-.17-.205.02-.149-.324-.072-.201.215-.505.203-.227.01-.195-.225-.34-.589-.346.029-.34-.087-.18-.153-.242-.039-.736-.354-.593-.401-.237-.312-.432.054-.376-.082-.072.31-.279.296-.19.302-.16.061-.288-.312-.072-.213-.485-.23-.932-.704-.206-.098-.278.003.026-1.07-.598-.114-.128-1.572-.067-.13-.902.014.17-.642.495-1.607-.752-.093-.181-.689 1.922-2.877.664-.968.495.049.262-.52.551-1.929.134-.335-.7-1.228-.32.312.279.159.087.287-.309.319-.036-.375-.175-.166.01-.406.206-.254-.252-.167-.438-.588-.407-.299-.232-.098-.041-.182-.371-.1-.123.051-.304-.089-.155-.281-.371.191.093.301.345.105.129.209-.046.151-.31.271-.242.115-.139-.05.047-.263-.397-.27-.18-.003-.448-.492-.098-.262-.036-.488.129-.122.376-.051.061-.144.005-.423.237-.204-.175-.239-.206-.448-.314-.441.093-.485-.273-.136.499-.655.181-.181-1.041-.526-2.225-.321-1.597-.21-.587.23-.216-.231-.984-.809-3.508-3.102-.01-.072.767-1.7.17-.494-.108-.283-1.53-.933-.731-.875.185-.195-.298-.655-.397-.16.587-.517.598-.58.381-.124.299-.428.334-.263-.18-.168 2.045-1.277.206.33 1.324-.305.912-.202.607-.221 1.02-.99 1.103.81.643-.87-1.025-.774.237-.339.448-.765.392-.857.283-.686.489-1.469.289.095.324-1.229-.036-.126.248-1.135.386-.043.932.182.788.108.546.043.351-.133.34-.265.71.235.191-.047.093-.314.468.161.649.145.284-.764.087-.499-.092-.193.097-.278-.237-.104.495-.919.53-.021.495-.267.067-.129.335-.093.19-.154-.015-.18.324-.429.49-.257.18.029.335-.166.185-.577.155-.186.196.151.17.114.448-.106-.016-.263-.288-.114.072-.196.258-.056.417-.278.304-.041.092-.395-.051-.243.376-.286.159.022 1.056-.261.515-.278.361.013.227-.22 1.092-.651.772-.395 1.103-.391.252-.15-.191-.441.181-.324.036-.311.659.217.278-.73.675-.987.196-.249-.361-.317.252-.986.181-.837-.34-.952-.222-.853.345-.031 1.041-.163.633.153.516.16.546.68.118-.058.062-.322.623.147-.041-.288.201-.686.18-.906.144-.52.232.077-.046-.292.226-.343.351-.171.108.038.659-.798-.623-.799.479-.281.52-.22.268-.201.237-.291.18-.113.402-.058.695.15.309-.018.484-.277.242-.344.284-.53.283-.431.376-.321.35-.123.541-.044.392-.229.535-.746.16-.469.01-.479.129-.97.139-.356.16-.157.366-.728.087-.458-.031-.367.263-1.015.293-.535.387-.244.793-.063.242-.067.304-.195.19-.307.052-.407-.036-.257.396-.405.588-.191.17-.139.406-.818.356-.226.556-.03-.118-1.82.036-.527.185-.166.34.061.18-.2-.005-.141-.499-.262-.021.303-.35-.081.196-.365-.165-.213-.345.137-.232-.182.252-.109.279-.493-.206-.144-.145-.237-.149.14-.247.012-.32.148.253-.509.103-.592-.005-.361.103-.242-.546-.506-.701-.182.077-.357.66.173.092-.101.835.263.093-.068.036.322.123.088.701.217v.374l.582.865.829-.524.417-.16.119-.402.52-.159.124-.288-.17-.599.221-.29.088-.33.365 1.883.546.001.788-.172.16-.069.608.005.417-.063.155.358.288.265.51.22.345-.023.768.415.422.13.062-.249.432.032.026.199.345-.087.253.556.572-.121 2.266 1.415.428.294-.274.301-.489.753-.577-.338.32-.211-.17-.106-.49-.054-.061-.204-.315.068-.247-.079-.149.145-.469.12-.077-.137-.294-.158-.278-.052-.371.097-.412.568.113.339.212.082.211-.121.561-.602.237-.074-.005.603.108.223-.165.108-.654.578-.422-.312-.495.006-.741.405-.284-.1-.067-.235.155-.206.005-.253-.211-.147-.253.051-.005.233.227.306-.381.485.051.108.366.232-.283.336.18.241.134.494-.103.306.067.41-.242.21.056.318.232.237.371.178.289-.013.664-.421.268-.262-.211-.291.211-.514.427.263.248-.035.051.384.907.689-.119.024.036.426-.092.285.412.288.381.165.118-.412.526-.583.01-.422 1.195.119-.026.588 1.334.689.716.281.469-.308-.114-.322.325.007.314-.081.186.131.056-.629.685.025.587-.153.227.024.165-.11.041-.371.232-.341.072-.382.381.153.464.117.139.108.329 1.261.716.209.428-.215-.191.798.176.301.36.004.082-.152.603.25-.062.141-.247.11-.118-.057-.155.242-.546-.023.479.531.093.384.489.58.505.338.067.19-.438.024-.304-.096-.149.051-.036 1.179-.088.22-.932.2-.309.192-.052.287.381.032-.072.461-.309.745-.324-.191.051.698.613.46.129.236-.793.568.015.128-.324.248.237.663.061.428-.113.325.443.258.082.121.737.266.263.023.087.16-.839-.106-.325-.144-.324-.045-.376-.167-.634-.123-.041-.144-.304.05-.185.506 1.03.43-.181.424-.298.506 1.308.86.206.052.402.287.36.163.562-.606.371-.023.067-.142 1.066-.003.726.068.629.142.607.323.376-.505.484-.468.124-.304.093-.491.293-.023.593.164.288-.033.675.323.098.2.211.051.232.176-.108.316-.495.375.077.549.104.312.406-.032.078.21.334.22.093.239-.309.083-.02.179-.361.619.057.179-.155.3.232.744-.175.113.129.201.082.39-.221.22-.114-.253-.458-.177-.356.216-.288-.034-.309.071-.263-.085-.206.142.381.151.222.002.288.34.021.29.123.121v.322l.129.139.577-.675.144-.026.412 1.261-.412.092.021.347-.649.112.118.588.387-.117.69.006.201-.4.159-.424.011-.245.381.065.314-.083.252.082.289-.096.159-.364-.211-.361.433-.985-.067-.194-.34-.621-.046-.42.309.077.134.349.247.079.149.185-.098.688.577.321.196.379-.201.157.134.138.294.064-.145.202.284.284.458-.137-.391-1.185.417-.423.278.117.088-.162.566-.504.129.024.108.241.464.141.092-.366.624.164 2.261.417.742.221.556.088-.093-.503.247-.238.382-.015-.036-.563.072-.116.417-.259.056-.347.531.002.098.359.494-.056.562.269.201.177.407.079.247.127.365.333.109.241-.371.705-.026.552.103.275.324.097.402.018.077.828 1.051 1.334-.026.293.134.146-.02.24-.191.196.217.278.329-.016 1.004 1.931.253.289 1.128.392.85.438.242.191.386.519 1.37 1.058.685.374.443.596-.087.169.778.323.252.014.258-.15.133.15-.02.282.087.151.325-.048.18.238.376.057.474-.462.052-.292-.773.18-.046-.314.68-.732.484.88.237.291.077.341.407.33.206.301.051 1.511.011.732-.309.138.02 4.639.119.399.741-.099.299 1.295 1.211 1.128-.871.987 2.045 1.985.216-.26.232.024 1.365.245.922.145-.324.59 1.179.302.999.236.211-.636.881.247-.345 1.441-.474-.04-.077.481-.34.047-.407.707-1.092-.147-.396 1.905-.412-.013-.057.368-1.133-.479.02-.218-.762-.349-.325-.319-.077-.145.222-.113.324-.33-1.082-.207-.427-.011-.891-.332-.634-.337-.494.502-1.236.999-1.247-.184-.515.064-1.993.336-1.118.134 1.633 1.994-.093.499-.252.013-.129.703-.15-.207-.298.588-1.71-1.295-.675.952-1.319-.903-1.885-1.336.072-.707-1.71-.265-.227-.712-.922-1.467-.164-.221-.315.329v.233l-.2.078-.243.25.016.273-.206.327-.211.158.01.218-1.108.285-1.514-.235.098 1.208.427.722-.257 1.506-2.256-1.578-1.087-.824-1.04-.741-.17.067-.819.572.231.271-1.535 2.101-.571.802 2.421 1.58.473.118-.077.308-.201.185-.963.298-.53.46-.876.647-2.375-.344-.448-.031-.015.219-.325.277-.144.604.067.286.026.464.077.262-.278.84-.005.417.139.223-.026.488-1.931-.266-.243 1.104-.298-.092-1.376-.419-1.344-.451.093-.334-.201-.033-.247.808-.196.504-.139-.035-2.488-1.151-1.143-.655-1.844 2.212-1.015.83-.186.181-.618.467-.953.164-.365.095-1.618.849.577.72-.597.51.232.145.02.134-.283.161-.103.626-.433.33-.046.12-.33-.077-.299.513-.731 1.367-.335.751-.242.134-.85-.172.216-.933-.092-.739.123-.204-1.056-.235-.731-.277-.232-.009-.221.834-.253-.067.031-.208-.175-.132-.051-.211-.696-.126-.685.119-.618.058-1.097-.331-.191.015.557 1.694.376 1.221.015.56-.448.124-.278.227-.227.074-1.761.36-.078.029-1.339-.38-1.061-.284-.839-.25-2.426-.279-.722-.093-.855-.071-.154-.054-.453-.376-.103.116-.387.769-.845.419-.396-.389-.469-.199-1.334-.02-.659.107.216.637-1.664.199-1.344.733-.026.165-1.179.155-.114-.19-.237.264-.576-.046.715-.976.083-.705-1.262-.341-.711.308-.309.344-.211.596-.68-.12-.165-.134-.391.248-.443.146"/></svg>