<svg xmlns="http://www.w3.org/2000/svg" width="225" height="237" fill="none" viewBox="0 0 225 237"><path id="Гайсинський" fill="#C8C6C6" fill-rule="evenodd" d="m169.174 232.59-.943.428-.155-.283.16-.718-.427.341-.346.196-.427-.17-.355.015-.449.217-1.468.846-.267-.387-.181-.139-.365-.109-.696.062-.298-.087-.299-.315-.242.026-.515.356-.237-.119-.474-.139-.294-.196.021-.713.062-.872-.825-.057.258-.371-.16-.263-.505.407-.479-.211-.134.206-.329.222-.459-.212-.267.666-.376.052-.593-.269-.154-.397-.309-.253-.212-.31.098-.072-.092-.248-.217.042-.541-.305v-.247l.129-.362.696-.196.216-.005.376-.165.02.17.263-.067.098.274.185.093.644.165.201-.155.222-.774.211-.207.51-.051.092.17.289.057.412-.083-.031-.175.335-.067-.041-.713-.155.073-.139-.274-.417-.341-.083-1.161-.113-.088-.829 1.213-.284-.088-.412-.025-.154.098-.18-.057-.284-.227-.18.108-.433-.026-.381-.108-.16.113-.01.439-.144-.005-.036.583-1.329-.031-.201-.088-.098-.222-.402-.402-.288-.145-.422-.01-.577-.088-.17.248-2.261-.077.283-.145.474-.113.572-.677-.423-.283-.257-.248-.273-.459-.974.412-1.185-1.047-.705-.991-2.365-2.581-.226.171-.268-.723-.268-.155-.087.129-.582-.067-.206-.129-.273-.129.015-.48-.057-.299.026-.909.371-.304.139-.026.124-.263-.175-.377.015-.186.438-.258.134-.619-.031-.506.092-.97.835-.403.803-.8.675-1.538.093-.274-.247-.934 1.014-.666-.324-.196-.15-1.063-.051-.506-.119-.02-.067-.511-.37-.072-.618-.46-.459-.16-.433-.284-.046-.438-.139-.057-.072-1.27.34-.134.18.088.592-.109-.061-.474.283-.036.386.051.247-.253.49.248-.222-2.317-.201-.011-.025-.325-.412-.165-.186.392-.494.217-.083.15-.247-.072-.108.443.294.217.056.253-.582-.057-.561-.449-.232-.02.026-.238-.376-.082-.422.051.056-.217-.185-.092-.237-.259-.793-.335-.083-.341-.144.036-1.118-1.522-.051-.325.165-.155.036-.17.252-.104.191-.191.128-.5-.056-.305.299-1.14.262-.021-.067-.444-.19-.382-.088-.32-.319-.536-.155-.511-.092-.702.391-1.177-.191-.599.505-.005.201-.062.453.114.665.093h.654l.628.062.129-.047.479-.599.165-.407.34-.284.247-.129.047-.15.334-.103-.123-2.813h-1.427l-.021-.428-.443-.124-.396-.052-.618-.32-.407-.02-.515.077-.556-.093-.196.088-.139-.088-.387.016-.087-.093-.356-.072-.17.046-.504-.005-.345-.119-.402.098-.994.026-.649.258-.165-.134-.34-.475.402-1.192-.248-.083.186-.562-.134-.057.366-1.228-.119-.455-.19-.531-.438-.356-.639-.599-.752-.418-.376-.103-.216-.119-.129-.222.886-.33-.634-1.492-.319.176h-.232l-.7.34-.495.145-.123.547-.253.31-.432.258-.16.278-.386-.433-.825-1.977-1.009.351-.768.243-.324-.021-1.293-.289.319-.021.031-.789-.123-.831-.253-.377.15-.207.226-.046.289-.191-.026-.175.108-.228.216-.061.397-.517.041-.191-.061-.273 2.771-.929.144.186.793.351.304.108.494.088.546.051.526-1.202 1.174.495.969.258.88.32.356-.423.18.052.438-.294.407.113.252-.046.314.232.273-.201-.097-.134-.181.046-.427-.15 2.05-1.512.118.201.412.021.242.459h.346l.324.124.299-.098.458-.242.139-.279.222-.129.139.114v.18l.226.367.253.02v-.449l-.083-.206.119-.181-.788-.149.067-.114-.191-.263-.355.067-.289-.217-.175-.33.654-.48.593.444.19-.042-.139-.345.047-.382.175-.233.216-.092 2.261.026.34-.398 1.659 1.708.314-.061.592-.511.397.495.355.052.526.459.365.077.078-.686-.35.083-.181-.176-.314-.599-.211-.49.242-.743.422-.01.155-.104-.283-.211-.062-.387-.201-.067-.33-.867.289-.114.262-.191 1.386-.501-.134-.748-.216-.428-.222-.042-.046-.216.072-.31-.046-.248.262-.217.067-.206-.031-.408.062-.082.912-2.545.185-.444-.515-1.094.345-.253-1.02-.206-.16-.114-.236.026-.366-.118-.376.289-.747-.351.02-.46-.309.191.016.284-.366-.464.021-.093-.304-.599-.33.083.154-.295-.345-.671-.17-.154-.556.387-.252.263-.294.423-.721-.929-.886.64-.963-1.393.18-.32-.036-1.239-.103-.16-.484-.418-.397-.511.217-.186.005-.175-.325.123-.268-.48.356-.005.999-.583.458.33.33.15.726.485.624.64.18.134.263.32.401-.423.263.31.479.48 1.916-1.698-.226-.207-1.046-.557-.222-.227-.566-.155-.211.01-.242.119-.181-.052-.376-.314-.17-.062-.242.134-.345.026-.206-.232-.433-.682-.607-.552-.279-.134-.077-.346-.329-.511.092-.227.263-.258.206-.289.252-.914.134-.366.314-.083.413-.335.293-.114-.206-.485.319-.067.655.212.458-.109.222-.299-.227-.991.448-.723-.433-.144-.098-.232-.041-.393-.201-.335-.128-.527-.124-.103.165-.237-.531-.351.021-.263-.114-.207.124-.402.17-.098.845-.155.19-.191.582.268 1.036.63.669-.284.031-.217-.51-.66-.17-.413-.056-.279-.165-.372-1.025.016-1.612-.444-.649-.15.046-.325-1.385.186-.114-.005-.242-.3-.664.155-.047.196-.855.165-.165-.154-2.024.418-1.777.335.098-.268-.16-.315-.644-.449-.031-.671.011-1.234.716-.268.036-.217-.34-.046-.072-.124-.624.005-.257.062-.227.207-.113.263-.036.34-.356.021-.319-.155-.118.16-1.798-.758.067-.351.278-.862-.283.072-.108-.294-.253-.165-.402-.423.376-.14.145-.222.345.155.051-.361.139-.274.057-.273.052-2.024.231.083-.056-.346.046-.242-.067-.207.34-.124.021-.118.757-.104.298-.412.876.16.057-.609-1.576-.527.206-.769.834.454.355.269.299.067.093-.248.355-.325-.051-.429.113-.392-.113-.377-.665-.232-.571.026-.268-.15-.139-.619 2.137-1.213.809-.377 1.566-.645.932-2.513 1.138-3.159.17-.588 2.323.769-.123.32 1.669.211.19-.113.083-.434 1.246.935.809.655 1.128.717.402.3-.083.196.536.211.149-.005.587.387.052.501.252.588.263.475.989-.557.469-.552.293-.037.165-.123.175-.346.052-.351.175-.134.16-.295.468-.294.603-.433.057-.222.309-.181.113.098.268-.201.417.103.361-.088.355.073.314.237.227.392.268.047.36.242.17-.056.51-.475.381-.258.242-.083.227.103.186-.712.839.16.227-.212.309-1.145-.181-.372-.149-.124.531-.124.901-.247.252-.604.66-.764.371.026.381.284.505-.191.133-.129.387.258.278.129.232-.238.062-.247.118-.109.258.346 1.014-.769.108-.268-.02-.584-.046-.258-.14-.299-.288-.361-.216-.351-.356-.382.392-.398.376.357 2.003-1.864.196-.072.072.181.443.124.16.258.546.686.026.207.216.077.366-.382 1.154-1.941-.279-.32-.556-.769-.175-.49.252-1.522.145.041.144-.212.86-.258.232-.026-.01-.614.685-.547.566-.413 1.571-1.233.325-.609.329.206.541-1.084.036-.18-.716-.47.124-.217 1.123.299.855.253-.742 1.538 1.576.79.134-.47.036-.413.134-.314-.144-.243 1.097-.036.263.026.396.227.16.299-.072.284.118.243.191.113.922 2.163.289.893.273.727.175.573.144.62.366-.109-.459 2.596.026.289 1.983.057.18-.015 1.267.062.294-.238.17.181.159-.093-.113-.175.098-.135.165.439.134.15.319-.067-.185-.258-.155-.418.623-.083.083-.346.196-.134.309.428.164.377.129.63.108.088.031.273.464.423.252.645.145.558.139.33.015.645.165-.026.891 1.399.963-.583.175.32.186-.176.288-.129.448-.392.325-.191.232-.418.175-.005.34.248.731-.635.046.335-.211.036-.103.754.108.17.052.305.16.124.324-.119.113.315-.602.769 1.035.753-3.703 5.229.587 1.249.149.227-.623 1.249-.144.237.551.237.556.424.247.062.093.356-.165.299.814.377.314.222.588 1.197.659-.34.433-.269 1.05.707 1.298.258.675.16-.263.305-.303.211-1.041.666-.288-.351-.33.527.443.413.057.123.391.372.134-.088.479.547.386 4.176.912.191 1.138.676.474.088.366 7.819.742.516.108-.196.865-.057.639.506.046-.052.603.155.314.15-.402.531 3.498.872 2.122.537-.093.48-.484.109.917 1.507.561.139-.056.263.391.434.284.459-.274.697-1.164-.418-.983 2.668.587.222-.134.382.371.134-.412 1.089.989-.402 2.117 2.245 1.668 1.749 2.504.227-.325.609v.362l.15.557.978-.108.284 1.12.571-.067.155.985.129.114.494-.083.077.537.119.423 1.02-.175.201.511v.335l-.289.331v.758l-.19.109.056.237.33.351-.129.279-.118.036-.181.248-.237.077-.051-.196-1.607.253-1.066.222.046.201-.155.181.15.629-.35.625.067.356.7 1.192.288.124.886-.129.845.258 1.041.341.819.743.298.015.047.274-.217.325-.041 1.074.108.129.083.351-.201.614.345.32.015.5.129.047-.057.258.232.124.242.02.248.196.267.083-.118.428.201-.02-.268 1.909.185.072.011.186-.206.181-.418-.294-.18-.021-.314.098-.082.16-.443-.325-.315-.067-.376.175-.293.392.051.357.706.072.448-.212.247.243-.092.284.015.072-.381 2.369-1.726-.279-.056.258-.356.294-.726-.19-.175.913-.304 1.456.536.154-.304 1.399-.809-.232-.129.098.041.449.093.181.206.743-.412.216-.103-.108-1.355.748.021.176-.587.32-.088-.248-.154-.103-1.54.516-.021.289-1.813 1.182-.201-.33-1.581.547.077.392.319.32.309.408-.412.289-1.21.996-.634.501-2.812 2.332-.458.418-1.803 1.508.355.5.253.15.51.072.149.361.33.14.02.263-.082.289.036.248.159.263.366.351-.402.082-.051.088-.443-.17.221.908-.026.15.16.196-.072.867-.381-.021-.036.403-1.252-.119-.191 1.931-.293-.021-.562.237.15.15-.041.258-.289.062-.149.108.402.522-.16.268-.541.305-.046.356-.196.124-.062-.191-.53-.165-.34-.016-.098 1.239.474.088-.067.681.319.098.072.485.175.232.484.186.103.279.371.149-.134.388.433 1.285-.422.273.633 1.017.345.831-.407 1.043.047.283-.273.32-.206.083.201.191-.345.052.077.428.19.439-.036.335.474.604.144.516-.097.382-.423.366-.535-.025-.397.299-1.18-.129-.443-.109-1.241-.051-.525.057-.742.206-.798.372-.263.232-.263.02-.772.341-.649.63-.624-.506-.381-.232-.34-.331-.438.026-.556.14.562 1.445.649 1.151.412.769.097.284-.278.304.351.206.01 1.017-.175.676-.165 1.347-.093.506.113.176.32.201-.088.454-.268-.057-.154.738-.155.228-.334-.114-.093.243-.443-.155-.103.263.979.304-.258.847-.134.273-.391-.366-.315-.108-.566-.078-.84.047-.123-.078.267-1.352-.365-.119-1.309-.506-1.54-.655-.314 1.12-.036.532-.469.469-.412-.077-.149.361-.412.367.268.139.262 1.017-.484.051-.623-.32-.263.171.031.134-.123.32-.222.031-.252-.212-.33.088-.386.212-.232-.166h-.263l-.113-.108-.335-.108-.242.124-.34-.093-.546.144-.026.227-.494-.062-.253-.129-.293.036-.66-.087-.242-.104-1.143-.232-.546-.428-.294.051-.618-.273-.113-.604-.35-1.223-.454-.108-1.993.144-1.061.248-.891.253-.968.222-1.087.268-.16.062-.309.289-.695 1.094.406.924-.025.046-1.293.573-.242-.521-.454.222" clip-rule="evenodd"/><path stroke="#000" stroke-linecap="round" stroke-linejoin="round" stroke-width=".2" d="m169.174 232.59-.943.428-.155-.283.16-.718-.427.341-.346.196-.427-.17-.355.015-.449.217-1.468.846-.267-.387-.181-.139-.365-.109-.696.062-.298-.087-.299-.315-.242.026-.515.356-.237-.119-.474-.139-.294-.196.021-.713.062-.872-.825-.057.258-.371-.16-.263-.505.407-.479-.211-.134.206-.329.222-.459-.212-.267.666-.376.052-.593-.269-.154-.397-.309-.253-.212-.31.098-.072-.092-.248-.217.042-.541-.305v-.247l.129-.362.696-.196.216-.005.376-.165.02.17.263-.067.098.274.185.093.644.165.201-.155.222-.774.211-.207.51-.051.092.17.289.057.412-.083-.031-.175.335-.067-.041-.713-.155.073-.139-.274-.417-.341-.083-1.161-.113-.088-.829 1.213-.284-.088-.412-.025-.154.098-.18-.057-.284-.227-.18.108-.433-.026-.381-.108-.16.113-.01.439-.144-.005-.036.583-1.329-.031-.201-.088-.098-.222-.402-.402-.288-.145-.422-.01-.577-.088-.17.248-2.261-.077.283-.145.474-.113.572-.677-.423-.283-.257-.248-.273-.459-.974.412-1.185-1.047-.705-.991-2.365-2.581-.226.171-.268-.723-.268-.155-.087.129-.582-.067-.206-.129-.273-.129.015-.48-.057-.299.026-.909.371-.304.139-.026.124-.263-.175-.377.015-.186.438-.258.134-.619-.031-.506.092-.97.835-.403.803-.8.675-1.538.093-.274-.247-.934 1.014-.666-.324-.196-.15-1.063-.051-.506-.119-.02-.067-.511-.37-.072-.618-.46-.459-.16-.433-.284-.046-.438-.139-.057-.072-1.27.34-.134.18.088.592-.109-.061-.474.283-.036.386.051.247-.253.49.248-.222-2.317-.201-.011-.025-.325-.412-.165-.186.392-.494.217-.083.15-.247-.072-.108.443.294.217.056.253-.582-.057-.561-.449-.232-.02.026-.238-.376-.082-.422.051.056-.217-.185-.092-.237-.259-.793-.335-.083-.341-.144.036-1.118-1.522-.051-.325.165-.155.036-.17.252-.104.191-.191.128-.5-.056-.305.299-1.14.262-.021-.067-.444-.19-.382-.088-.32-.319-.536-.155-.511-.092-.702.391-1.177-.191-.599.505-.005.201-.062.453.114.665.093h.654l.628.062.129-.047.479-.599.165-.407.34-.284.247-.129.047-.15.334-.103-.123-2.813h-1.427l-.021-.428-.443-.124-.396-.052-.618-.32-.407-.02-.515.077-.556-.093-.196.088-.139-.088-.387.016-.087-.093-.356-.072-.17.046-.504-.005-.345-.119-.402.098-.994.026-.649.258-.165-.134-.34-.475.402-1.192-.248-.083.186-.562-.134-.057.366-1.228-.119-.455-.19-.531-.438-.356-.639-.599-.752-.418-.376-.103-.216-.119-.129-.222.886-.33-.634-1.492-.319.176h-.232l-.7.34-.495.145-.123.547-.253.31-.432.258-.16.278-.386-.433-.825-1.977-1.009.351-.768.243-.324-.021-1.293-.289.319-.021.031-.789-.123-.831-.253-.377.15-.207.226-.046.289-.191-.026-.175.108-.228.216-.061.397-.517.041-.191-.061-.273 2.771-.929.144.186.793.351.304.108.494.088.546.051.526-1.202 1.174.495.969.258.88.32.356-.423.18.052.438-.294.407.113.252-.046.314.232.273-.201-.097-.134-.181.046-.427-.15 2.05-1.512.118.201.412.021.242.459h.346l.324.124.299-.098.458-.242.139-.279.222-.129.139.114v.18l.226.367.253.02v-.449l-.083-.206.119-.181-.788-.149.067-.114-.191-.263-.355.067-.289-.217-.175-.33.654-.48.593.444.19-.042-.139-.345.047-.382.175-.233.216-.092 2.261.026.34-.398 1.659 1.708.314-.061.592-.511.397.495.355.052.526.459.365.077.078-.686-.35.083-.181-.176-.314-.599-.211-.49.242-.743.422-.01.155-.104-.283-.211-.062-.387-.201-.067-.33-.867.289-.114.262-.191 1.386-.501-.134-.748-.216-.428-.222-.042-.046-.216.072-.31-.046-.248.262-.217.067-.206-.031-.408.062-.082.912-2.545.185-.444-.515-1.094.345-.253-1.02-.206-.16-.114-.236.026-.366-.118-.376.289-.747-.351.02-.46-.309.191.016.284-.366-.464.021-.093-.304-.599-.33.083.154-.295-.345-.671-.17-.154-.556.387-.252.263-.294.423-.721-.929-.886.64-.963-1.393.18-.32-.036-1.239-.103-.16-.484-.418-.397-.511.217-.186.005-.175-.325.123-.268-.48.356-.005.999-.583.458.33.33.15.726.485.624.64.18.134.263.32.401-.423.263.31.479.48 1.916-1.698-.226-.207-1.046-.557-.222-.227-.566-.155-.211.01-.242.119-.181-.052-.376-.314-.17-.062-.242.134-.345.026-.206-.232-.433-.682-.607-.552-.279-.134-.077-.346-.329-.511.092-.227.263-.258.206-.289.252-.914.134-.366.314-.083.413-.335.293-.114-.206-.485.319-.067.655.212.458-.109.222-.299-.227-.991.448-.723-.433-.144-.098-.232-.041-.393-.201-.335-.128-.527-.124-.103.165-.237-.531-.351.021-.263-.114-.207.124-.402.17-.098.845-.155.19-.191.582.268 1.036.63.669-.284.031-.217-.51-.66-.17-.413-.056-.279-.165-.372-1.025.016-1.612-.444-.649-.15.046-.325-1.385.186-.114-.005-.242-.3-.664.155-.047.196-.855.165-.165-.154-2.024.418-1.777.335.098-.268-.16-.315-.644-.449-.031-.671.011-1.234.716-.268.036-.217-.34-.046-.072-.124-.624.005-.257.062-.227.207-.113.263-.036.34-.356.021-.319-.155-.118.16-1.798-.758.067-.351.278-.862-.283.072-.108-.294-.253-.165-.402-.423.376-.14.145-.222.345.155.051-.361.139-.274.057-.273.052-2.024.231.083-.056-.346.046-.242-.067-.207.34-.124.021-.118.757-.104.298-.412.876.16.057-.609-1.576-.527.206-.769.834.454.355.269.299.067.093-.248.355-.325-.051-.429.113-.392-.113-.377-.665-.232-.571.026-.268-.15-.139-.619 2.137-1.213.809-.377 1.566-.645.932-2.513 1.138-3.159.17-.588 2.323.769-.123.32 1.669.211.19-.113.083-.434 1.246.935.809.655 1.128.717.402.3-.083.196.536.211.149-.005.587.387.052.501.252.588.263.475.989-.557.469-.552.293-.037.165-.123.175-.346.052-.351.175-.134.16-.295.468-.294.603-.433.057-.222.309-.181.113.098.268-.201.417.103.361-.088.355.073.314.237.227.392.268.047.36.242.17-.056.51-.475.381-.258.242-.083.227.103.186-.712.839.16.227-.212.309-1.145-.181-.372-.149-.124.531-.124.901-.247.252-.604.66-.764.371.026.381.284.505-.191.133-.129.387.258.278.129.232-.238.062-.247.118-.109.258.346 1.014-.769.108-.268-.02-.584-.046-.258-.14-.299-.288-.361-.216-.351-.356-.382.392-.398.376.357 2.003-1.864.196-.072.072.181.443.124.16.258.546.686.026.207.216.077.366-.382 1.154-1.941-.279-.32-.556-.769-.175-.49.252-1.522.145.041.144-.212.86-.258.232-.026-.01-.614.685-.547.566-.413 1.571-1.233.325-.609.329.206.541-1.084.036-.18-.716-.47.124-.217 1.123.299.855.253-.742 1.538 1.576.79.134-.47.036-.413.134-.314-.144-.243 1.097-.036.263.026.396.227.16.299-.072.284.118.243.191.113.922 2.163.289.893.273.727.175.573.144.62.366-.109-.459 2.596.026.289 1.983.057.18-.015 1.267.062.294-.238.17.181.159-.093-.113-.175.098-.135.165.439.134.15.319-.067-.185-.258-.155-.418.623-.083.083-.346.196-.134.309.428.164.377.129.63.108.088.031.273.464.423.252.645.145.558.139.33.015.645.165-.026.891 1.399.963-.583.175.32.186-.176.288-.129.448-.392.325-.191.232-.418.175-.005.34.248.731-.635.046.335-.211.036-.103.754.108.17.052.305.16.124.324-.119.113.315-.602.769 1.035.753-3.703 5.229.587 1.249.149.227-.623 1.249-.144.237.551.237.556.424.247.062.093.356-.165.299.814.377.314.222.588 1.197.659-.34.433-.269 1.05.707 1.298.258.675.16-.263.305-.303.211-1.041.666-.288-.351-.33.527.443.413.057.123.391.372.134-.088.479.547.386 4.176.912.191 1.138.676.474.088.366 7.819.742.516.108-.196.865-.057.639.506.046-.052.603.155.314.15-.402.531 3.498.872 2.122.537-.093.48-.484.109.917 1.507.561.139-.056.263.391.434.284.459-.274.697-1.164-.418-.983 2.668.587.222-.134.382.371.134-.412 1.089.989-.402 2.117 2.245 1.668 1.749 2.504.227-.325.609v.362l.15.557.978-.108.284 1.12.571-.067.155.985.129.114.494-.083.077.537.119.423 1.02-.175.201.511v.335l-.289.331v.758l-.19.109.056.237.33.351-.129.279-.118.036-.181.248-.237.077-.051-.196-1.607.253-1.066.222.046.201-.155.181.15.629-.35.625.067.356.7 1.192.288.124.886-.129.845.258 1.041.341.819.743.298.015.047.274-.217.325-.041 1.074.108.129.083.351-.201.614.345.32.015.5.129.047-.057.258.232.124.242.02.248.196.267.083-.118.428.201-.02-.268 1.909.185.072.011.186-.206.181-.418-.294-.18-.021-.314.098-.082.16-.443-.325-.315-.067-.376.175-.293.392.051.357.706.072.448-.212.247.243-.092.284.015.072-.381 2.369-1.726-.279-.056.258-.356.294-.726-.19-.175.913-.304 1.456.536.154-.304 1.399-.809-.232-.129.098.041.449.093.181.206.743-.412.216-.103-.108-1.355.748.021.176-.587.32-.088-.248-.154-.103-1.54.516-.021.289-1.813 1.182-.201-.33-1.581.547.077.392.319.32.309.408-.412.289-1.21.996-.634.501-2.812 2.332-.458.418-1.803 1.508.355.5.253.15.51.072.149.361.33.14.02.263-.082.289.036.248.159.263.366.351-.402.082-.051.088-.443-.17.221.908-.026.15.16.196-.072.867-.381-.021-.036.403-1.252-.119-.191 1.931-.293-.021-.562.237.15.15-.041.258-.289.062-.149.108.402.522-.16.268-.541.305-.046.356-.196.124-.062-.191-.53-.165-.34-.016-.098 1.239.474.088-.067.681.319.098.072.485.175.232.484.186.103.279.371.149-.134.388.433 1.285-.422.273.633 1.017.345.831-.407 1.043.047.283-.273.32-.206.083.201.191-.345.052.077.428.19.439-.036.335.474.604.144.516-.097.382-.423.366-.535-.025-.397.299-1.18-.129-.443-.109-1.241-.051-.525.057-.742.206-.798.372-.263.232-.263.02-.772.341-.649.63-.624-.506-.381-.232-.34-.331-.438.026-.556.14.562 1.445.649 1.151.412.769.097.284-.278.304.351.206.01 1.017-.175.676-.165 1.347-.093.506.113.176.32.201-.088.454-.268-.057-.154.738-.155.228-.334-.114-.093.243-.443-.155-.103.263.979.304-.258.847-.134.273-.391-.366-.315-.108-.566-.078-.84.047-.123-.078.267-1.352-.365-.119-1.309-.506-1.54-.655-.314 1.12-.036.532-.469.469-.412-.077-.149.361-.412.367.268.139.262 1.017-.484.051-.623-.32-.263.171.031.134-.123.32-.222.031-.252-.212-.33.088-.386.212-.232-.166h-.263l-.113-.108-.335-.108-.242.124-.34-.093-.546.144-.026.227-.494-.062-.253-.129-.293.036-.66-.087-.242-.104-1.143-.232-.546-.428-.294.051-.618-.273-.113-.604-.35-1.223-.454-.108-1.993.144-1.061.248-.891.253-.968.222-1.087.268-.16.062-.309.289-.695 1.094.406.924-.025.046-1.293.573-.242-.521-.454.222"/><path id="Хмільницький" fill="#C8C6C6" fill-rule="evenodd" d="m81.749 65.231-.2.011-.604-.128-.463-.295-.52.08-.294-.052-.572.222-.304-.243-.046-.53-.123-.17-.098-.59-.01-.433-.104-.29.469-.667.036-.207-1.818-1.226-1.19-.818-.325.456-.432-1.129-1.437.586-.119.148-.165-.06-.34.055-.139.19-.283.204-.35.16-.252-.581-.346-.076-.576.155-.13.272-1.168-.637-1.18-.576-.453-.245-.412-.128-1.005-.139-.469.266-.102-.176.046-.233-.289-.611-.257-.014-.201-.952.02-.136-.855-.216-.231.143-.799.172-.087.096-.485.194-.309-.058-.231.055-.186.28-.36.125-1.638-.387.082-.676-.468-.245-1.19-.323-.464-.068-.031.132-.32 1.942-.133.154-.845.201.015.14-.68-.077-.139.181-.386-.197.129-.27-.016-.16-.231-.134-.19.04-.454-.057-.48.59-.19-.357-.448.1-.721-.35-.196-.034-.247.268-.072.211-.299-.234.108-.192.052-.549-.062-.497-.345-1.087-1 .515-.175.84-.54 1.287.716.453.16.07.896.14.2.247.289.18.242.243.278.43-.144.734.015.345.15.68.082.103.278.752-.118 1.193-1.973-.58-.561-.005-.69-.494-.12-.238-.597-.275-.2-.28-.562-.499-.216-.092-.685-.4h-.67l-.49.319-1.498 1.035-1.463.97-1.715-.328-.278-.513-.732-.25.129-.776-.453-.537-1.582 1.232-.927-1.195-.16-.036-.082-.203-.02-.339-.36-.094-.135-.158-.036-.291-.448.24-.958.383-.206-.462-.005-.21-.381-.014v-.419l-1.314.407-.139-.429-1.355.46-.453-1.426.634-1.074.283-.52.232-.13.123-.726.134-.509.108-.226.073-.416 1.117.446.644-1.623.577-.07-.118-.404-.222-.15-1.746.28-.283-.244-.335-.203-.242.183-.87-.136-.377.053-.262-.066-.294-.239-.046-.16.226-.135.067-.23-.098-.379.072-.253-.123-.24.02-.427-.118-.136.103-.4-.005-.494.206-.17.175-.452.005-.623-.031-.228.14-.364.2.117.417.074.119-.197.278-.118.237.017.283.17.263.071.247.474.124.143.03.252.392.199.129.192.314-.063.237-.227.067-.287.263-.16.412-.488.262.01.134-.158-.01-.441-.247-.71-.36-.292-.14-.264.031-.338.582-.57.057-.287-.443-.837-.994-.744-.253-.29-.824-.563-.453-.15.041-.666.175-.404-.005-.256.366-.356.103.044.49-.504.107-.947.31-.088.37-.008.263.061.654-.892.15-.239-.248-.202.778-1.895.52.18.335.212.155.003.015-1.106-.026-1.863-.118-.276.077-.141-.891-.673-.608-.49-2.359-1.702.052-1.124-.35-2.895 1.076-.229 1.02-.163.412.024 1.648-.258-.402-.973.953-1.01 1.602-1.662-1.082-.266-.334-.128-.237-.194-.02-1.132 1.555-.246.015-1.398.742.281.391.017 1.386-.23.922.009.51-.142.659-.136.273-.1-.005-.598.15-.313.396-.33.695.034.407-.036.505.043.628-.13.552-.057.175-.141.484-.15.963-.732.335-.186.628-.14.562-.016.479-.105.587-.066.572.103.674.182.68.217.31.02.149.17.654.477.865.02.917.075.572-.03 1.076-.17h1.17l1.7.047.097-.18.258.147 1.102-.234.592-.357.402-.361.37-.145.449-.088.386-.14.768-.373.108-.263.685-.273.082.352 1.036-.147.824-.073.639-.09.376-.099.391-.04.603.003 1.014-.275.588.21-.263.683.283-.044.448.024-.072-.445.299-.827.17-.065 1.231-.286-.093-2.152.402.013.196-.142.948.583.061 1.458 1.195.117.52.097.516-.027.705-.406 2.576.676 1.761.476 2.586 1.558.927-.52 1.412-1.01.463-2.132-.046-.29.252-.11.356-.026.133-.249-.33-.089.258-.918-.02-.163.247-.326.17.182.644.326.427-.063.232-.1.381.144.443-.059.356.129.139-.14.397-.034.02.24.268-.16.52-.19.036.474.155.33.113.522.551.276.2.437.197-.077.963-.495.86-.335.32-.072.556-.204.556-.277.5-.29-.088.46.221.454.98.924.653 1.431.345.187.134.604-.092.1.195.204-.067.213.634-.195.572 1.695.072.009.51-.147 1.797-.726.304-.21.021-.372.051-3.26.294-.11.541.038.216-.083.371-.315.252-.083.237.06.309-.185.021.277.17.102.226-.087.191.387.33.072-.335-.998 1.504.64.355.181.871.376.968.606.912.499-.201-.584.051-.157 1.541-.57.231.568.742-.297.247.665.242.396.15.374.721-.219.077-.59.376-.747.572-1.207.335-.132.752.005-.01-.615-.696.073-.015-.127.015-1.716-.015-.645.041-.37 1.612.094 1.252.15-.072-1.175 2.034-.133.515-.02.016-.778.237.026 2.282-.193.221-.647.675-2.401.237-.711.577.017.551-.076.86.092.093.38.154.11.237.007.124.11.608.133.303.12-.273 1.128.768.237.124.255.345.382-.366.31-.242.076.376.381 2.647 1.012-.072.177.412.649.485.427.334.375.119.085-.211.52-.469 1.813-.057.36.696-.1.211-.15.432.054.052 1.504.742.757-1.067 1.285-.051.015-1.252 1.302.072.063.057.05 1.138.593.732.258-.155 2.821.103.025 2.725 1.703.35.231.073.528.185.555.041.33-.025.34-.773-.128-.129.76-.072-.037-.221.394.355.307-.536.702-.85 1.319-.206.4-.973-.21-.031.241-.5 1.544-.056.235-.917.127-.093.598.134.363-.015.245.396.09.273-.03.742.147.53.917 1.314 2.014-.546.129.237.578.608-.128 1.782 1.713-.531.563-.247.466-.258.7-.17.351-.231.32-.253.456-.159.183-.273.783.031.042-.139 1.328-.047.25-.371 3.455-.072.796-.108.784.721.69.283.435.109.686.231.271 1.098 1.024-.989.76-.526.592-.329.263-.294.362-.191.108-.34.385-.401.523.34.648.51.413.19.304 1.005.76.674.737-.257.217.314 1.249-1.396.376-.257.148-.119.89-.443-.041-.546-.22-.257-.176-.449 1.03-.216.59.531.569-1.87.093-.489-.058-1.154.097-.84.034-1.947.21-.618-1.084-.917-1.275-.438.444-.18.438v.207l.376.455.16.047.165.204.36.638.685.507-3.966.874-.242.032-1.921.42-.866.17-.278-1.106-.716.092-.149.163-.036.223-.309.323-.304.666.057.558-.155.197-.299-.142-.546-.546-.298-.936-1.819.465-.257.079-.227.165-1.097.277-.02-.084-1.273.27-1.148.303-1.123.316-.211-.02-1.613-.525-.453-.052-.386-.23-.572-.203-.19.875.123.112-.288.486-.788 1.185-.485-.438-.329.482-.263.233-.01.255.175.125.067.212.551.696.201-.017.221.124.567.838.222.403.293.13.644.102.443.55-.046.041 1.349 1.795.397.579-.526.913-.432.795-.582 1.156-.443-.176-.423-.371-.098-.196-.515-.279-.376.248-.273-.052-.582-.237-.082-.104-.453-.206-.428.026-.458-.3-.16.016-.031-.268-.113-.145.056-.175-.438-.099-.267.037-.124.144-.361-.036-.324.175-.139.217.139.212-.01.212.103.32-.047.227-.164.15-.237-.171-.263-.031-.33-.274-.17-.304-.309-.016-1.777-1.455-.242-.32.242-.552-.34-.109-.577-.304-.515-.361-.072.211.577 1.863.067.274-.474.015-1.694.005.051-.748v-1.517l-.041-.749-.392-.053-.947-.385-1.067-.097-.025-.397-.088-.115-.16-.523.515-.16.114-.21-.273-.17-.428-.37-.098-.242-.989-.311-.077.184-.716.85-1.015 1.165-.345.442.212.521.231.336.083.35-1.087.228-.211-.088-.248-.258-.36 1.027.232.279-.459.196.036.072-.958.702-.175-.475-.134-.211-.062-.454-.262-.16-.727.934.47 1.187-.238.046-.386-.155-.278.01-.206-.237-.35.398-.191-.408-.526-.816.01-.34-.288-.248-.293-.062-.253-.186-.185-.366-.134-.098-.165-.506.278-.227-.01-.33-.556-.77-.48-.476-.308-.161-.608-.02-.052-.207-.226-.352-.206-.204-.505-.295-.376-.313" clip-rule="evenodd"/><path stroke="#000" stroke-linecap="round" stroke-linejoin="round" stroke-width=".2" d="m81.749 65.231-.2.011-.604-.128-.463-.295-.52.08-.294-.052-.572.222-.304-.243-.046-.53-.123-.17-.098-.59-.01-.433-.104-.29.469-.667.036-.207-1.818-1.226-1.19-.818-.325.456-.432-1.129-1.437.586-.119.148-.165-.06-.34.055-.139.19-.283.204-.35.16-.252-.581-.346-.076-.576.155-.13.272-1.168-.637-1.18-.576-.453-.245-.412-.128-1.005-.139-.469.266-.102-.176.046-.233-.289-.611-.257-.014-.201-.952.02-.136-.855-.216-.231.143-.799.172-.087.096-.485.194-.309-.058-.231.055-.186.28-.36.125-1.638-.387.082-.676-.468-.245-1.19-.323-.464-.068-.031.132-.32 1.942-.133.154-.845.201.015.14-.68-.077-.139.181-.386-.197.129-.27-.016-.16-.231-.134-.19.04-.454-.057-.48.59-.19-.357-.448.1-.721-.35-.196-.034-.247.268-.072.211-.299-.234.108-.192.052-.549-.062-.497-.345-1.087-1 .515-.175.84-.54 1.287.716.453.16.07.896.14.2.247.289.18.242.243.278.43-.144.734.015.345.15.68.082.103.278.752-.118 1.193-1.973-.58-.561-.005-.69-.494-.12-.238-.597-.275-.2-.28-.562-.499-.216-.092-.685-.4h-.67l-.49.319-1.498 1.035-1.463.97-1.715-.328-.278-.513-.732-.25.129-.776-.453-.537-1.582 1.232-.927-1.195-.16-.036-.082-.203-.02-.339-.36-.094-.135-.158-.036-.291-.448.24-.958.383-.206-.462-.005-.21-.381-.014v-.419l-1.314.407-.139-.429-1.355.46-.453-1.426.634-1.074.283-.52.232-.13.123-.726.134-.509.108-.226.073-.416 1.117.446.644-1.623.577-.07-.118-.404-.222-.15-1.746.28-.283-.244-.335-.203-.242.183-.87-.136-.377.053-.262-.066-.294-.239-.046-.16.226-.135.067-.23-.098-.379.072-.253-.123-.24.02-.427-.118-.136.103-.4-.005-.494.206-.17.175-.452.005-.623-.031-.228.14-.364.2.117.417.074.119-.197.278-.118.237.017.283.17.263.071.247.474.124.143.03.252.392.199.129.192.314-.063.237-.227.067-.287.263-.16.412-.488.262.01.134-.158-.01-.441-.247-.71-.36-.292-.14-.264.031-.338.582-.57.057-.287-.443-.837-.994-.744-.253-.29-.824-.563-.453-.15.041-.666.175-.404-.005-.256.366-.356.103.044.49-.504.107-.947.31-.088.37-.008.263.061.654-.892.15-.239-.248-.202.778-1.895.52.18.335.212.155.003.015-1.106-.026-1.863-.118-.276.077-.141-.891-.673-.608-.49-2.359-1.702.052-1.124-.35-2.895 1.076-.229 1.02-.163.412.024 1.648-.258-.402-.973.953-1.01 1.602-1.662-1.082-.266-.334-.128-.237-.194-.02-1.132 1.555-.246.015-1.398.742.281.391.017 1.386-.23.922.009.51-.142.659-.136.273-.1-.005-.598.15-.313.396-.33.695.034.407-.036.505.043.628-.13.552-.057.175-.141.484-.15.963-.732.335-.186.628-.14.562-.016.479-.105.587-.066.572.103.674.182.68.217.31.02.149.17.654.477.865.02.917.075.572-.03 1.076-.17h1.17l1.7.047.097-.18.258.147 1.102-.234.592-.357.402-.361.37-.145.449-.088.386-.14.768-.373.108-.263.685-.273.082.352 1.036-.147.824-.073.639-.09.376-.099.391-.04.603.003 1.014-.275.588.21-.263.683.283-.044.448.024-.072-.445.299-.827.17-.065 1.231-.286-.093-2.152.402.013.196-.142.948.583.061 1.458 1.195.117.52.097.516-.027.705-.406 2.576.676 1.761.476 2.586 1.558.927-.52 1.412-1.01.463-2.132-.046-.29.252-.11.356-.026.133-.249-.33-.089.258-.918-.02-.163.247-.326.17.182.644.326.427-.063.232-.1.381.144.443-.059.356.129.139-.14.397-.034.02.24.268-.16.52-.19.036.474.155.33.113.522.551.276.2.437.197-.077.963-.495.86-.335.32-.072.556-.204.556-.277.5-.29-.088.46.221.454.98.924.653 1.431.345.187.134.604-.092.1.195.204-.067.213.634-.195.572 1.695.072.009.51-.147 1.797-.726.304-.21.021-.372.051-3.26.294-.11.541.038.216-.083.371-.315.252-.083.237.06.309-.185.021.277.17.102.226-.087.191.387.33.072-.335-.998 1.504.64.355.181.871.376.968.606.912.499-.201-.584.051-.157 1.541-.57.231.568.742-.297.247.665.242.396.15.374.721-.219.077-.59.376-.747.572-1.207.335-.132.752.005-.01-.615-.696.073-.015-.127.015-1.716-.015-.645.041-.37 1.612.094 1.252.15-.072-1.175 2.034-.133.515-.02.016-.778.237.026 2.282-.193.221-.647.675-2.401.237-.711.577.017.551-.076.86.092.093.38.154.11.237.007.124.11.608.133.303.12-.273 1.128.768.237.124.255.345.382-.366.31-.242.076.376.381 2.647 1.012-.072.177.412.649.485.427.334.375.119.085-.211.52-.469 1.813-.057.36.696-.1.211-.15.432.054.052 1.504.742.757-1.067 1.285-.051.015-1.252 1.302.072.063.057.05 1.138.593.732.258-.155 2.821.103.025 2.725 1.703.35.231.073.528.185.555.041.33-.025.34-.773-.128-.129.76-.072-.037-.221.394.355.307-.536.702-.85 1.319-.206.4-.973-.21-.031.241-.5 1.544-.056.235-.917.127-.093.598.134.363-.015.245.396.09.273-.03.742.147.53.917 1.314 2.014-.546.129.237.578.608-.128 1.782 1.713-.531.563-.247.466-.258.7-.17.351-.231.32-.253.456-.159.183-.273.783.031.042-.139 1.328-.047.25-.371 3.455-.072.796-.108.784.721.69.283.435.109.686.231.271 1.098 1.024-.989.76-.526.592-.329.263-.294.362-.191.108-.34.385-.401.523.34.648.51.413.19.304 1.005.76.674.737-.257.217.314 1.249-1.396.376-.257.148-.119.89-.443-.041-.546-.22-.257-.176-.449 1.03-.216.59.531.569-1.87.093-.489-.058-1.154.097-.84.034-1.947.21-.618-1.084-.917-1.275-.438.444-.18.438v.207l.376.455.16.047.165.204.36.638.685.507-3.966.874-.242.032-1.921.42-.866.17-.278-1.106-.716.092-.149.163-.036.223-.309.323-.304.666.057.558-.155.197-.299-.142-.546-.546-.298-.936-1.819.465-.257.079-.227.165-1.097.277-.02-.084-1.273.27-1.148.303-1.123.316-.211-.02-1.613-.525-.453-.052-.386-.23-.572-.203-.19.875.123.112-.288.486-.788 1.185-.485-.438-.329.482-.263.233-.01.255.175.125.067.212.551.696.201-.017.221.124.567.838.222.403.293.13.644.102.443.55-.046.041 1.349 1.795.397.579-.526.913-.432.795-.582 1.156-.443-.176-.423-.371-.098-.196-.515-.279-.376.248-.273-.052-.582-.237-.082-.104-.453-.206-.428.026-.458-.3-.16.016-.031-.268-.113-.145.056-.175-.438-.099-.267.037-.124.144-.361-.036-.324.175-.139.217.139.212-.01.212.103.32-.047.227-.164.15-.237-.171-.263-.031-.33-.274-.17-.304-.309-.016-1.777-1.455-.242-.32.242-.552-.34-.109-.577-.304-.515-.361-.072.211.577 1.863.067.274-.474.015-1.694.005.051-.748v-1.517l-.041-.749-.392-.053-.947-.385-1.067-.097-.025-.397-.088-.115-.16-.523.515-.16.114-.21-.273-.17-.428-.37-.098-.242-.989-.311-.077.184-.716.85-1.015 1.165-.345.442.212.521.231.336.083.35-1.087.228-.211-.088-.248-.258-.36 1.027.232.279-.459.196.036.072-.958.702-.175-.475-.134-.211-.062-.454-.262-.16-.727.934.47 1.187-.238.046-.386-.155-.278.01-.206-.237-.35.398-.191-.408-.526-.816.01-.34-.288-.248-.293-.062-.253-.186-.185-.366-.134-.098-.165-.506.278-.227-.01-.33-.556-.77-.48-.476-.308-.161-.608-.02-.052-.207-.226-.352-.206-.204-.505-.295-.376-.313"/><path id="Тульчинський" fill="#C8C6C6" fill-rule="evenodd" d="m125.527 234.35.32-1.151.474-1.512.051-.367-.232-.707-.221-.351-.453-.583-.51-1.218-.315.212-.314-.62-1.653.568-.685-1.331-.5.603-.448.036v.424l-.227.072-1.72.119-.489-.418-.649-.749-.309-.273-1.18.247-.541.145-.298.284-.799.588-.937-.423-.376.015-.273.093-.093.14-.479.201-.675.191-.592-1.265-.237-1.13.324-.402-.777.092-2.148.331.134-1.11-.335-.088-.865-.309-.052.134-.252-.036-.618-.274-.397-.242-.407-.166-.252.362-.387-.496-1.277-1.589-1.056.836-.742-.95.227-.217.252.181-.041-.336.185-.129-.103-.185.145-.253-.083-.078-.494.129-.397.264-.067-.191-.293-.331-.011-.335-.092-.274-.016-.284.345-.185.376-.434.114-.258.17.077.298-.598.716.351.134-.196.176-.563-.042-.315.088-.413.123-.227-.679-.377-1.685-.805-.123-.299.103-.155.788-1.424-1.154-1.038.103-.186-.659-.794-.17-.274-.505-.382-.294-.392-.55-.305-.773-.242-1.314-.196-.716-.073-.108-.345.793-.929.232-.728.031-.64-.062-.17-.134-1.012-.365-.537-.057-.382.165-.278.03-.573.212-.449-.175-.878-.01-.196-.371-.898h-.247l-.531-.599-.582-.588-.196.201-.577-.407-.401-.186-.454-.155-.005-.191-.288-.16-.047-.176.284-.294.092-.015.031-.382-.139-.196.284-.403.21.011.17-.568.109-.212-1.092-.681-.031-.201-1.108-.677.134-.092.119-.46.123-.186.289-.227-.31-.325-.169-.542-.015-.304-.088-.289.366-.098.33-.496.056-.299-.01-.444-.067-.537.273-.289.129-.361v-.49l-.114-.362.278-.222-.623-.887-.433.382-2.04.691-1.405.465-1.02.655-.572.403-1.04-1.6.458-.3-1.272-1.904.608-.403-2.19-3.339-1.287-.526.86-1.672-1.736-.501-.438.191-.33-.052-.03-.217.17-2.054 2.616-.944-.015-.712-.232-.558-2.256-1.45-.453-1.099-.01-.377.072-.114-.778-.671-.078-.186-.278-.273-.262-.083-.3.104.294-2.096.794-.377.056-.067.454-1.161.7-.655 1.612-1.451.752-1.584 1.314.34.34-.805.433-.098.607-1.094.644 1.378.165-.284.438-.609.597-.934-.592-.614-.407-.496.026-.743.299.387.345-.439.062-.263.19-.423.804-.31.268.011.782-.434.624-.49.51-.31.35-.356.397-.248.185-.232.737-.64.597-.248.422-.5-.376-.145-.17-.439-.69-.732.36-.32-.813-.625.402-2.245.087-.253-.32-.144.176-.475.201-.413.232-.609-.418.041-.072-.413-.34.134-.16-.154.021-.181.289-.145-.402-.407-1.149-1.089.062-.558-.479-.139-.428-.31-.628-.511-.484.243-1.056.583-1.38-1.115-.407-.299.484-.609-.288-.108h-.232l-.526-.305.083-.222.19-.211.376.01.53-.196.063-.155.283-.227.01-.207.443-.382.294-.005.098-.258.252-.289-.216-.067-.284-.351-1.04.609-.88-1.553.128-.083-2.37-1.29-.077-.011-.077-.903-.675.031-.129-.727.737-.176.48.217.545-1.053-.01-.325.17-.33-.02-.212.324-.289.278-.052.211-.33.356-.077.365.02.14-.248.015-.263-.155-.402-.16-.202.35-1.429.238-.336.5.217.633.237.216.165.227.315.123-.16.145-.469-.454-.3-.118-.242.788-.067.88.154.124.212.248-.098.304.103-.134.361.324.243 1.138.656.15-.057.129-.233-.206-.325.108-.671.2-.49.974.521.211-.01.7 1.363.876.242.86.269.17 1.006.402.026 1.623.237.263-.015.84.083.396-.594-.165-.377.18-.196.33.031.093-.175-.114-.114.041-.258.145-.098.036-.227-.35-.17-.119-.238.098-.196-.082-.506-.629-.536-.536-.909.109-.052.422-.449.304-.469 1.988-1.543.335.216.129.516.01.228.587.361 1.453.222 1.411.088.191-.682.278-.857-.016-.051.593-1.621.777-1.915.531-1.45 1.257.331.283.356-.041.361-.34.294.999.769-.268.191-.015.403-.252.32-.248.067-.386.304.026.692-.397.666.072.361.768.372.381.01.211.196.464.057.149.211.119.749.422.598.139.532.211.243.15.01.335-.217.226-.005.34.253.227-.031.159-.196.397-.119.649.062.556-.119.273.026.289-.093.51.341-.242.325-.078.232.031.243.423.449.7.5.387-.067.108-.17.535-.274.485-.036v-.253l.154-.485.072-.521.304-.434.407-.196.391-.681.51-.268.248-.227.144-.326.123-.588.073-.082.376-.078.803-.449.386-.599.34-.149.464.129.268.232.134.449.221.222.011.635.128.433-.01.465.17.418-.036.898.154.211.15.052.448-.242.227-.346.195-.083.242.145.109.273.02.439-.252.867-.062.506.062.774.005.63.242.289.391-.088.33-.382.479-.408.324-.098.567.3 1.097.268.417-.062.449.217.365.444.407.056.453.63.413.289.355.367.324.056.052-.227-.309-.81-.582-1.409.366-.465.484.357.165-.016-.536-1.084.515-.108 1.102-.408-.062-.273-.237-.424-.406-.629.077-.036-.057-.362-.129-.314.129-.336.32-.057.206-.263.072-.273-.742-.909.489-.397-.839-1.027.128-.109.407.021.428-.17-.021-.449 1.309-.233 1.457.429.397.304.155.202.463.315.196.268.33-.026.458.026-.021.119-.339.123.066.207-.046.242.057.346-.232-.082-.051 2.023-.057.273-.139.274-.052.361-.345-.155-.144.222-.376.14.402.423.252.165.108.294.284-.072-.279.862-.067.351 1.798.758.119-.159.319.154.355-.02.036-.341.114-.263.226-.206.258-.062.623-.006.072.124.34.047-.036.217-.716.268-.01 1.233.031.671.644.449.159.315-.097.269 1.777-.336 2.024-.418.165.155.855-.165.046-.196.665-.155.242.299.113.005 1.386-.185-.047.325.649.149 1.612.444 1.025-.015.165.371.057.279.17.413.51.661-.031.216-.67.284-1.035-.629-.582-.269-.191.191-.845.155-.169.098-.124.403.113.206-.02.263.53.351-.165.238.124.103.129.526.201.336.041.392.098.232.433.145-.449.722.227.991-.221.3-.459.108-.654-.211-.319.067.206.485-.294.113-.412.336-.314.082-.134.367-.253.913-.206.289-.262.258-.093.228.33.51.077.346.278.135.608.552.433.681.206.232.345-.026.242-.134.17.062.376.315.18.051.242-.118.211-.01.567.154.221.227 1.046.558.227.206-1.916 1.698-.48-.48-.262-.309-.402.423-.263-.32-.18-.134-.623-.64-.726-.485-.33-.15-.459-.33-.999.583-.355.005.268.48.324-.124-.005.176-.216.185.396.511.484.418.104.16.036 1.239-.181.32.964 1.394.885-.64.722.929.293-.424.253-.263.556-.387.17.155.345.671-.155.294.33-.083.304.599-.02.093.365.465-.015-.284.309-.191-.021.459.747.351.376-.289.366.119.237-.026.16.113 1.02.207-.346.253.516 1.094-.186.444-.912 2.544-.061.083.031.407-.067.207-.263.217.046.247-.072.31.047.217.221.041.216.429.134.748-1.385.501-.263.191-.288.113.329.867.201.067.062.387.283.212-.154.103-.423.01-.242.744.211.49.315.599.18.175.35-.083-.077.687-.366-.077-.525-.46-.356-.051-.396-.496-.593.511-.314.062-1.658-1.708-.34.397-2.261-.026-.217.093-.175.232-.046.382.139.346-.191.041-.592-.444-.654.48.175.331.288.216.356-.067.19.264-.067.113.788.15-.118.18.082.207v.449l-.252-.021-.227-.366v-.181l-.139-.114-.221.13-.139.278-.459.243-.299.098-.324-.124h-.345l-.242-.459-.412-.021-.119-.201-2.05 1.512.428.15.18-.047.098.134-.273.202-.314-.232-.253.046-.407-.114-.437.295-.181-.052-.355.423-.881-.32-.968-.258-1.175-.495-.525 1.202-.546-.051-.495-.088-.303-.109-.794-.35-.144-.186-2.771.929.062.273-.041.191-.397.516-.216.062-.109.227.026.176-.288.191-.227.046-.149.207.252.376.124.831-.031.79-.32.021 1.293.289.325.02.767-.242 1.01-.351.824 1.977.386.433.16-.279.433-.258.252-.309.124-.547.494-.145.701-.341h.231l.32-.175.633 1.492-.886.33.129.222.216.119.376.103.753.418.638.598.438.357.191.531.118.454-.366 1.229.134.057-.185.562.247.083-.402 1.192.34.475.165.134.649-.258.994-.026.402-.098.345.119.505.005.17-.047.355.073.088.092.386-.015.139.088.196-.088.556.093.515-.077.407.02.618.32.397.052.443.124.02.428h1.427l.124 2.813-.335.103-.046.15-.248.129-.34.284-.164.407-.479.599-.129.046-.629-.062h-.654l-.664-.092-.453-.114-.201.062-.505.005.19.599-.391 1.177.093.701.154.511.32.537.087.32.191.382.067.444-.263.021-.299 1.14.057.305-.129.501-.19.191-.253.103-.036.17-.165.155.052.325 1.118 1.523.144-.037.082.341.793.336.237.258.186.093-.057.216.422-.051.376.082-.025.238.231.02.562.449.582.057-.057-.253-.293-.217.108-.444.247.073.082-.15.495-.217.185-.392.412.165.026.325.201.011.221 2.317-.489-.248-.247.253-.387-.052-.283.037.062.474-.592.109-.181-.088-.34.134.072 1.27.14.057.046.438.433.284.458.16.618.46.371.072.067.511.118.021.052.505.149 1.064.325.196-1.015.665.247.935-.092.273-.675 1.538-.804.8-.834.403-.093.97.031.506-.134.619-.438.258-.015.186.175.377-.123.263-.139.026-.371.304-.026.909.056.299-.015.48.273.129-.221.392-.227-.149-.175.485.304.382-.145.144.165.14-.118.557-.515-.263-.665 1.017-.134.588.067.382.016.552-.047.238-.17.278.237.243.248.449.139.341-.186.382-.335.474-.144.511-.17.103-.536.713.237.258-.386.578-.613-.279-.479-.459-.118-.573-.315-.81-.123-.093-.407-.981-.304-.005-.901-.129-.345.361-.114.31-.319.232-.67-.908-.602-.171-.031-.108-1.319-.232-.695-.088-1.031 3.84-.123 1.29-.304 2.535.232.185-.675.155-2.802.836-.155.073-1.56.583.108.511-.093.629.144.233-.175.242-.515-.237v-.083l-.546-.34.005-.093-.221-.46-.541-.036" clip-rule="evenodd"/><path stroke="#000" stroke-linecap="round" stroke-linejoin="round" stroke-width=".2" d="m125.527 234.35.32-1.151.474-1.512.051-.367-.232-.707-.221-.351-.453-.583-.51-1.218-.315.212-.314-.62-1.653.568-.685-1.331-.5.603-.448.036v.424l-.227.072-1.72.119-.489-.418-.649-.749-.309-.273-1.18.247-.541.145-.298.284-.799.588-.937-.423-.376.015-.273.093-.093.14-.479.201-.675.191-.592-1.265-.237-1.13.324-.402-.777.092-2.148.331.134-1.11-.335-.088-.865-.309-.052.134-.252-.036-.618-.274-.397-.242-.407-.166-.252.362-.387-.496-1.277-1.589-1.056.836-.742-.95.227-.217.252.181-.041-.336.185-.129-.103-.185.145-.253-.083-.078-.494.129-.397.264-.067-.191-.293-.331-.011-.335-.092-.274-.016-.284.345-.185.376-.434.114-.258.17.077.298-.598.716.351.134-.196.176-.563-.042-.315.088-.413.123-.227-.679-.377-1.685-.805-.123-.299.103-.155.788-1.424-1.154-1.038.103-.186-.659-.794-.17-.274-.505-.382-.294-.392-.55-.305-.773-.242-1.314-.196-.716-.073-.108-.345.793-.929.232-.728.031-.64-.062-.17-.134-1.012-.365-.537-.057-.382.165-.278.03-.573.212-.449-.175-.878-.01-.196-.371-.898h-.247l-.531-.599-.582-.588-.196.201-.577-.407-.401-.186-.454-.155-.005-.191-.288-.16-.047-.176.284-.294.092-.015.031-.382-.139-.196.284-.403.21.011.17-.568.109-.212-1.092-.681-.031-.201-1.108-.677.134-.092.119-.46.123-.186.289-.227-.31-.325-.169-.542-.015-.304-.088-.289.366-.098.33-.496.056-.299-.01-.444-.067-.537.273-.289.129-.361v-.49l-.114-.362.278-.222-.623-.887-.433.382-2.04.691-1.405.465-1.02.655-.572.403-1.04-1.6.458-.3-1.272-1.904.608-.403-2.19-3.339-1.287-.526.86-1.672-1.736-.501-.438.191-.33-.052-.03-.217.17-2.054 2.616-.944-.015-.712-.232-.558-2.256-1.45-.453-1.099-.01-.377.072-.114-.778-.671-.078-.186-.278-.273-.262-.083-.3.104.294-2.096.794-.377.056-.067.454-1.161.7-.655 1.612-1.451.752-1.584 1.314.34.34-.805.433-.098.607-1.094.644 1.378.165-.284.438-.609.597-.934-.592-.614-.407-.496.026-.743.299.387.345-.439.062-.263.19-.423.804-.31.268.011.782-.434.624-.49.51-.31.35-.356.397-.248.185-.232.737-.64.597-.248.422-.5-.376-.145-.17-.439-.69-.732.36-.32-.813-.625.402-2.245.087-.253-.32-.144.176-.475.201-.413.232-.609-.418.041-.072-.413-.34.134-.16-.154.021-.181.289-.145-.402-.407-1.149-1.089.062-.558-.479-.139-.428-.31-.628-.511-.484.243-1.056.583-1.38-1.115-.407-.299.484-.609-.288-.108h-.232l-.526-.305.083-.222.19-.211.376.01.53-.196.063-.155.283-.227.01-.207.443-.382.294-.005.098-.258.252-.289-.216-.067-.284-.351-1.04.609-.88-1.553.128-.083-2.37-1.29-.077-.011-.077-.903-.675.031-.129-.727.737-.176.48.217.545-1.053-.01-.325.17-.33-.02-.212.324-.289.278-.052.211-.33.356-.077.365.02.14-.248.015-.263-.155-.402-.16-.202.35-1.429.238-.336.5.217.633.237.216.165.227.315.123-.16.145-.469-.454-.3-.118-.242.788-.067.88.154.124.212.248-.098.304.103-.134.361.324.243 1.138.656.15-.057.129-.233-.206-.325.108-.671.2-.49.974.521.211-.01.7 1.363.876.242.86.269.17 1.006.402.026 1.623.237.263-.015.84.083.396-.594-.165-.377.18-.196.33.031.093-.175-.114-.114.041-.258.145-.098.036-.227-.35-.17-.119-.238.098-.196-.082-.506-.629-.536-.536-.909.109-.052.422-.449.304-.469 1.988-1.543.335.216.129.516.01.228.587.361 1.453.222 1.411.088.191-.682.278-.857-.016-.051.593-1.621.777-1.915.531-1.45 1.257.331.283.356-.041.361-.34.294.999.769-.268.191-.015.403-.252.32-.248.067-.386.304.026.692-.397.666.072.361.768.372.381.01.211.196.464.057.149.211.119.749.422.598.139.532.211.243.15.01.335-.217.226-.005.34.253.227-.031.159-.196.397-.119.649.062.556-.119.273.026.289-.093.51.341-.242.325-.078.232.031.243.423.449.7.5.387-.067.108-.17.535-.274.485-.036v-.253l.154-.485.072-.521.304-.434.407-.196.391-.681.51-.268.248-.227.144-.326.123-.588.073-.082.376-.078.803-.449.386-.599.34-.149.464.129.268.232.134.449.221.222.011.635.128.433-.01.465.17.418-.036.898.154.211.15.052.448-.242.227-.346.195-.083.242.145.109.273.02.439-.252.867-.062.506.062.774.005.63.242.289.391-.088.33-.382.479-.408.324-.098.567.3 1.097.268.417-.062.449.217.365.444.407.056.453.63.413.289.355.367.324.056.052-.227-.309-.81-.582-1.409.366-.465.484.357.165-.016-.536-1.084.515-.108 1.102-.408-.062-.273-.237-.424-.406-.629.077-.036-.057-.362-.129-.314.129-.336.32-.057.206-.263.072-.273-.742-.909.489-.397-.839-1.027.128-.109.407.021.428-.17-.021-.449 1.309-.233 1.457.429.397.304.155.202.463.315.196.268.33-.026.458.026-.021.119-.339.123.066.207-.046.242.057.346-.232-.082-.051 2.023-.057.273-.139.274-.052.361-.345-.155-.144.222-.376.14.402.423.252.165.108.294.284-.072-.279.862-.067.351 1.798.758.119-.159.319.154.355-.02.036-.341.114-.263.226-.206.258-.062.623-.006.072.124.34.047-.036.217-.716.268-.01 1.233.031.671.644.449.159.315-.097.269 1.777-.336 2.024-.418.165.155.855-.165.046-.196.665-.155.242.299.113.005 1.386-.185-.047.325.649.149 1.612.444 1.025-.015.165.371.057.279.17.413.51.661-.031.216-.67.284-1.035-.629-.582-.269-.191.191-.845.155-.169.098-.124.403.113.206-.02.263.53.351-.165.238.124.103.129.526.201.336.041.392.098.232.433.145-.449.722.227.991-.221.3-.459.108-.654-.211-.319.067.206.485-.294.113-.412.336-.314.082-.134.367-.253.913-.206.289-.262.258-.093.228.33.51.077.346.278.135.608.552.433.681.206.232.345-.026.242-.134.17.062.376.315.18.051.242-.118.211-.01.567.154.221.227 1.046.558.227.206-1.916 1.698-.48-.48-.262-.309-.402.423-.263-.32-.18-.134-.623-.64-.726-.485-.33-.15-.459-.33-.999.583-.355.005.268.48.324-.124-.005.176-.216.185.396.511.484.418.104.16.036 1.239-.181.32.964 1.394.885-.64.722.929.293-.424.253-.263.556-.387.17.155.345.671-.155.294.33-.083.304.599-.02.093.365.465-.015-.284.309-.191-.021.459.747.351.376-.289.366.119.237-.026.16.113 1.02.207-.346.253.516 1.094-.186.444-.912 2.544-.061.083.031.407-.067.207-.263.217.046.247-.072.31.047.217.221.041.216.429.134.748-1.385.501-.263.191-.288.113.329.867.201.067.062.387.283.212-.154.103-.423.01-.242.744.211.49.315.599.18.175.35-.083-.077.687-.366-.077-.525-.46-.356-.051-.396-.496-.593.511-.314.062-1.658-1.708-.34.397-2.261-.026-.217.093-.175.232-.046.382.139.346-.191.041-.592-.444-.654.48.175.331.288.216.356-.067.19.264-.067.113.788.15-.118.18.082.207v.449l-.252-.021-.227-.366v-.181l-.139-.114-.221.13-.139.278-.459.243-.299.098-.324-.124h-.345l-.242-.459-.412-.021-.119-.201-2.05 1.512.428.15.18-.047.098.134-.273.202-.314-.232-.253.046-.407-.114-.437.295-.181-.052-.355.423-.881-.32-.968-.258-1.175-.495-.525 1.202-.546-.051-.495-.088-.303-.109-.794-.35-.144-.186-2.771.929.062.273-.041.191-.397.516-.216.062-.109.227.026.176-.288.191-.227.046-.149.207.252.376.124.831-.031.79-.32.021 1.293.289.325.02.767-.242 1.01-.351.824 1.977.386.433.16-.279.433-.258.252-.309.124-.547.494-.145.701-.341h.231l.32-.175.633 1.492-.886.33.129.222.216.119.376.103.753.418.638.598.438.357.191.531.118.454-.366 1.229.134.057-.185.562.247.083-.402 1.192.34.475.165.134.649-.258.994-.026.402-.098.345.119.505.005.17-.047.355.073.088.092.386-.015.139.088.196-.088.556.093.515-.077.407.02.618.32.397.052.443.124.02.428h1.427l.124 2.813-.335.103-.046.15-.248.129-.34.284-.164.407-.479.599-.129.046-.629-.062h-.654l-.664-.092-.453-.114-.201.062-.505.005.19.599-.391 1.177.093.701.154.511.32.537.087.32.191.382.067.444-.263.021-.299 1.14.057.305-.129.501-.19.191-.253.103-.036.17-.165.155.052.325 1.118 1.523.144-.037.082.341.793.336.237.258.186.093-.057.216.422-.051.376.082-.025.238.231.02.562.449.582.057-.057-.253-.293-.217.108-.444.247.073.082-.15.495-.217.185-.392.412.165.026.325.201.011.221 2.317-.489-.248-.247.253-.387-.052-.283.037.062.474-.592.109-.181-.088-.34.134.072 1.27.14.057.046.438.433.284.458.16.618.46.371.072.067.511.118.021.052.505.149 1.064.325.196-1.015.665.247.935-.092.273-.675 1.538-.804.8-.834.403-.093.97.031.506-.134.619-.438.258-.015.186.175.377-.123.263-.139.026-.371.304-.026.909.056.299-.015.48.273.129-.221.392-.227-.149-.175.485.304.382-.145.144.165.14-.118.557-.515-.263-.665 1.017-.134.588.067.382.016.552-.047.238-.17.278.237.243.248.449.139.341-.186.382-.335.474-.144.511-.17.103-.536.713.237.258-.386.578-.613-.279-.479-.459-.118-.573-.315-.81-.123-.093-.407-.981-.304-.005-.901-.129-.345.361-.114.31-.319.232-.67-.908-.602-.171-.031-.108-1.319-.232-.695-.088-1.031 3.84-.123 1.29-.304 2.535.232.185-.675.155-2.802.836-.155.073-1.56.583.108.511-.093.629.144.233-.175.242-.515-.237v-.083l-.546-.34.005-.093-.221-.46-.541-.036"/><path id="Жмеринський" fill="#C8C6C6" fill-rule="evenodd" d="m79.128 171.502-1.334-.98-1.174-.821-1.875-1.806-.371-.331-.556.207-.732.211-.17.176-.165-.072-.087-.315-.165-.336-.721.119-.201-.33-.124-.341-1.097-.578-.644.299-1.133.547-.15-.098-.082-.686.067-.227-.03-.604-1.273.351-1.05.206-.33-.118-.346-.222-.654-.083-.128-.062-.155.207-.381.072-.258-.021-.52-.211-.577-.935-.659.393-.154-.578-.284-.62-.03-.149-.28-.284-.251-.351-.366-.614.15-.584.035-.273-1.159-.072v-.114l-1.035-.077-.412.464-.386-.17-1.185 1.223-.273.026-.623-.093-.546-.036-.366.108-.376-.118-.247-.145-.5-.191-.237.403-.19.067-.485.005-.443-.139-.762-.068-.139-.325-.232-.991-.062-.387.01-.738-.133-.139-.031-.294-.129-.057-.026-.496-.288-.701-.366-.553-.242.005-.644-.283-.37-.006-.882-.17-1.308.16-1.097-.532-.119-.345.268-.057.273.072.325-.588-.103-.16.175-.501-.124-.433.083-.186-.067-.578.16-.573-.165-.64-.67-1.074-1.432.553-.041-.367-.186-1.073-.17.026-.16-.32-.185-.145-.123-1.868.118-.723-.314-.898.427-1.419.444-.289.288.531.752-.449-.222-.325-.02-.232-.072-.836-.35-.351-.175.454-.17-.01-1.19-.95-.464-.057-.304.202-.273-.491-.118-.34-.165-.258-.252-.16-.964-1.296-.417.284-.304-.052-.252-.16-.33.057-.49-.175-.257-.207-.345-.371-.206-.057-.046-.64.139-.155-.108-.32.19-.165-.278-.392.026-.191-.19-.805-.279.092-.051-.149-.227-.145-.515.062-.407-.041-.407-.098-.051.588-.175.382-.557 1.657-.298.542-.109.263-.242-.01-.242-.434-.263.434.212.31-.608.671-.247.092-.17-.072-.315.444-.947-.568-.057-.108-.35-.232-.227.082-.232.186-.113.222-.505-.005-.355-.114-.397-.33-.577-.052-.118-.062-.242.181.093.413-.093.181-.217-.253-.175-.037-.674-.485-.454-.134-.664-.433-.917-1.12-.798-.898-.47-.098-1.905-.8-.87-.491-.515-.392-.124-.026.278-.361-.041-.284-.371-.697-.216-.294-.155-.103-.139-.604-.34-.32-.14-.573-.323-.356-.217-.356-.098-.403.423-.511.087-.433-.077-.233-.155-.077-1.04.392-.618.093-.273-.227-.762-.516-.64-.403.047-.474-.19-.171.046-.289-.124-.051-.716-.883-.432-.01-.186-.098-.21-.258-.29-.104-.34.568-.288.351-.232-.17-.077-.253-1.947-1.409-.242-.232-.062-.222-.273-.346-.38.206-.696.434.072.113-.737.434-.396.196.118.604-.2.289-.578.671-.087.041-2.045.449-.19.093-.995.65-.86.202-.355-.387-.639-1.131.278-3.21-.232-.124.01-.304-.164-.351.309-.408-.33-.397.041-.155.3-.434.303-.175.288-.594v-.217l-.149-.335.242-.067.556.088.02-.362.094-.092.2.356.238-.14-.516-.841.371-.821.186-.578-.732-.258-.232-.469-.375-.527-.335-.898-.186-.165-.077-.258-.02-.485.262-.325-.52-.393-.891-.609.68-1.016.417-.568.984-1.487.32-1.316.602-1.945.263.015.628.212-.041-.733.087-.666.124-.129.809-.072-.289-.558.402-.077.32-.124.427-.052.283.196.273-.093.804.026.386-.098.206.01.505.145h.283l.453.114.469.061.314-.01.618-.186-.257-.511-.706-.64-.252-.16-.495-.428-.211-.273-.103-.372.906-.552.238-.212.525-.939.546-1.069-.088-.093-.989-1.305.572-.501.603-.31.046-.16-.093-.289.134-.087.454.118.798.491.227-.233.097.145.557.263.283-.867.026-.289-.098-.397h.314l.752.815.623.413 1.52.888.37-.088 1.665-1.672-.052-.263-.175-.28-.18-.138.118-.527.119-.232.026-.49-.119-.367.01-.346.196-.124.299-.52.304-.29.417.145.263-.068.618.078.19-.29.33.021.54.186.17-.413.573-.387.334.207.5.175-.015.114.242.407.479.465.273.129.613.449.36.212.695.665.433.558.211-.067.438-.29.284.76.633-.192.186-.108.262-.32.242.088.114-.191.267-.01.196-.207.216.253.227.134.32.047.705.247.356.248.051-.242-.108-.238.273-.17.51-.48.113-.258.53-.65-.308-.32-.196-.088.211-.186-.196-.191.36-.109.248-.175.438.361.242-.428-.005-.274.515.13.118-.238.01-.382.135-.129.407-.155.108-.19-.02-.29-.17-.51.025-.094-.16-.423-.18-.242-.072-.362.047-.284.56-.118-.02.325.356.366.237.119.268.026.092.294.16.18-.37.636.442-.114.186.196.216-.217-.129-.258.242-.093-.123-.165.123-.129.062-.485.211-.103.469-.036.15-.32.375.056.18.197.047.216-.026.398.252.428.13-.062.36.279.015-.325.459-.041.55.087.64.217.344.94.284.004.747-.325.303-.289.335-.02.763-.227.144-.104.221-.536.227-.067.232-.269.283-.041.366-.14-.046-.515-.31-2.4-.072-.145-.252-.088-.103-.211-.196-.155.407-.336 1.298-1.192.706-.702.772-.216.855-.346.248-.16.061-.202.423-.402 1.22-1.481.397-.104.36.15.279-.206.196-.403.061-.475.212-.077.185.165.221.077.206-.165.18.016.197-.186.386.119.093.165.489-.031.355.222.654.252.263-.16.381.114.222-.015.335.232.082.129.469.15.129-.589 2.302.392 1.669.346.824 1.105.108.113.51.279.613.248.67.015.716.795-1.242.098.052.392.144.454.309.584-.613.278.155 1.311.066.351.037.728-.165.026-.047.211-.221.109-.48.057-.159.206.155.222.386.387.762.5.284-.046.283.047.211.19.386.057-.16.29.284.025.036.202.356.211-.01.114.448.284.046.144.458-.005.144-.227.407-.031.443-.103.217.067.334-.083.032-.17.267-.093.047.836 1.138.026-.088.18L66.9 95.69l1.432 1.998.077.082.933.176.71.923.201.212.701.041-.474.929.005.78.273-.011.52.088.304-.01.237-.114-.072.367.124.093-.01.263.35.335.18.032-.154.33.267.392.448.119.119.082.041.269-.093.196-.082.408.675 1.471 1.4-.181-.01.134-1.833.279.129.521.19.299.01.212-.52.026-.237-.155-.628-.093-.376-.113-.474.077-.16-.057-.278.191-.463.104-.459-.042.67.852-.386.371-.407.924.38.171-.102.314-.36.083.695.723.139.232.875 1.006.19.176.444.635-.407-.021-.582.165.02.202.598.402-.5.568.268.263.422.315 1.52 1.022.175.155-.536.402-.422.176-.088.108.232.294-.072.418.18.491.35.345-.252.212.284.408-.237.49.051.191.454.155.066-.8-.206-.325.516-.563.968.692.968-.826.237.299.134.062.397-.057.221-.376.288-.052.413.15.649.516-.289.253.088.129.21-.005.217.118.062.217.355.398-.345.345-.468-.263-.273.217.273.356.314.542.144.279-.515.428-.154.206.077.475-.098.439.15.397-.675 1.502-.222.542-.304 1.063.33.14-.072.423-.145.542-.231.077-.418-.196-.128-.242-.284-.006-.128.099-.165.345-.366.176.294.155.108.149.046.295.51.304.041.274.201.345.17.145.258.449.103-.067.515-.067.098-.3.242.274.592.852 1.612 2.219-.216.635-.2.036-.284.304.072.491-.14.149-.37-.48-.15-.253-.303.176.298.325.067.212-.128.165-.443.258-.083.191.108.397-.01.212.273.562.582-.278.335.702.288.413.047.48.206.428.32.547.282.335.273.16.67.563.551.191.381.222.382.485.18.387-.737.176.129.727.675-.031.077.904.077.01 2.37 1.29-.13.083.882 1.553 1.04-.609.283.351.217.067-.253.289-.098.258-.293.005-.443.382-.01.207-.283.227-.062.155-.53.196-.377-.01-.19.211-.083.222.525.305h.232l.289.108-.484.609.406.299 1.38 1.115 1.057-.583.484-.243.628.511.428.31.479.139-.062.558 1.149 1.089.401.407-.288.145-.02.181.16.154.34-.134.071.413.418-.041-.232.609-.201.413-.175.475.32.144-.088.253-.402 2.245.814.625-.361.32.69.733.17.438.376.145-.422.5-.598.248-.736.64-.186.232-.396.248-.35.356-.51.31-.624.49-.783.434-.267-.011-.804.31-.19.423-.062.264-.345.438-.3-.387-.025.743.407.496.592.614-.597.934-.438.609-.165.284-.644-1.378-.608 1.094-.432.098-.34.805-1.314-.34-.752 1.584-1.612 1.451-.7.655-.454 1.161-.056.067-.794.377" clip-rule="evenodd"/><path stroke="#000" stroke-linecap="round" stroke-linejoin="round" stroke-width=".2" d="m79.128 171.502-1.334-.98-1.174-.821-1.875-1.806-.371-.331-.556.207-.732.211-.17.176-.165-.072-.087-.315-.165-.336-.721.119-.201-.33-.124-.341-1.097-.578-.644.299-1.133.547-.15-.098-.082-.686.067-.227-.03-.604-1.273.351-1.05.206-.33-.118-.346-.222-.654-.083-.128-.062-.155.207-.381.072-.258-.021-.52-.211-.577-.935-.659.393-.154-.578-.284-.62-.03-.149-.28-.284-.251-.351-.366-.614.15-.584.035-.273-1.159-.072v-.114l-1.035-.077-.412.464-.386-.17-1.185 1.223-.273.026-.623-.093-.546-.036-.366.108-.376-.118-.247-.145-.5-.191-.237.403-.19.067-.485.005-.443-.139-.762-.068-.139-.325-.232-.991-.062-.387.01-.738-.133-.139-.031-.294-.129-.057-.026-.496-.288-.701-.366-.553-.242.005-.644-.283-.37-.006-.882-.17-1.308.16-1.097-.532-.119-.345.268-.057.273.072.325-.588-.103-.16.175-.501-.124-.433.083-.186-.067-.578.16-.573-.165-.64-.67-1.074-1.432.553-.041-.367-.186-1.073-.17.026-.16-.32-.185-.145-.123-1.868.118-.723-.314-.898.427-1.419.444-.289.288.531.752-.449-.222-.325-.02-.232-.072-.836-.35-.351-.175.454-.17-.01-1.19-.95-.464-.057-.304.202-.273-.491-.118-.34-.165-.258-.252-.16-.964-1.296-.417.284-.304-.052-.252-.16-.33.057-.49-.175-.257-.207-.345-.371-.206-.057-.046-.64.139-.155-.108-.32.19-.165-.278-.392.026-.191-.19-.805-.279.092-.051-.149-.227-.145-.515.062-.407-.041-.407-.098-.051.588-.175.382-.557 1.657-.298.542-.109.263-.242-.01-.242-.434-.263.434.212.31-.608.671-.247.092-.17-.072-.315.444-.947-.568-.057-.108-.35-.232-.227.082-.232.186-.113.222-.505-.005-.355-.114-.397-.33-.577-.052-.118-.062-.242.181.093.413-.093.181-.217-.253-.175-.037-.674-.485-.454-.134-.664-.433-.917-1.12-.798-.898-.47-.098-1.905-.8-.87-.491-.515-.392-.124-.026.278-.361-.041-.284-.371-.697-.216-.294-.155-.103-.139-.604-.34-.32-.14-.573-.323-.356-.217-.356-.098-.403.423-.511.087-.433-.077-.233-.155-.077-1.04.392-.618.093-.273-.227-.762-.516-.64-.403.047-.474-.19-.171.046-.289-.124-.051-.716-.883-.432-.01-.186-.098-.21-.258-.29-.104-.34.568-.288.351-.232-.17-.077-.253-1.947-1.409-.242-.232-.062-.222-.273-.346-.38.206-.696.434.072.113-.737.434-.396.196.118.604-.2.289-.578.671-.087.041-2.045.449-.19.093-.995.65-.86.202-.355-.387-.639-1.131.278-3.21-.232-.124.01-.304-.164-.351.309-.408-.33-.397.041-.155.3-.434.303-.175.288-.594v-.217l-.149-.335.242-.067.556.088.02-.362.094-.092.2.356.238-.14-.516-.841.371-.821.186-.578-.732-.258-.232-.469-.375-.527-.335-.898-.186-.165-.077-.258-.02-.485.262-.325-.52-.393-.891-.609.68-1.016.417-.568.984-1.487.32-1.316.602-1.945.263.015.628.212-.041-.733.087-.666.124-.129.809-.072-.289-.558.402-.077.32-.124.427-.052.283.196.273-.093.804.026.386-.098.206.01.505.145h.283l.453.114.469.061.314-.01.618-.186-.257-.511-.706-.64-.252-.16-.495-.428-.211-.273-.103-.372.906-.552.238-.212.525-.939.546-1.069-.088-.093-.989-1.305.572-.501.603-.31.046-.16-.093-.289.134-.087.454.118.798.491.227-.233.097.145.557.263.283-.867.026-.289-.098-.397h.314l.752.815.623.413 1.52.888.37-.088 1.665-1.672-.052-.263-.175-.28-.18-.138.118-.527.119-.232.026-.49-.119-.367.01-.346.196-.124.299-.52.304-.29.417.145.263-.068.618.078.19-.29.33.021.54.186.17-.413.573-.387.334.207.5.175-.015.114.242.407.479.465.273.129.613.449.36.212.695.665.433.558.211-.067.438-.29.284.76.633-.192.186-.108.262-.32.242.088.114-.191.267-.01.196-.207.216.253.227.134.32.047.705.247.356.248.051-.242-.108-.238.273-.17.51-.48.113-.258.53-.65-.308-.32-.196-.088.211-.186-.196-.191.36-.109.248-.175.438.361.242-.428-.005-.274.515.13.118-.238.01-.382.135-.129.407-.155.108-.19-.02-.29-.17-.51.025-.094-.16-.423-.18-.242-.072-.362.047-.284.56-.118-.02.325.356.366.237.119.268.026.092.294.16.18-.37.636.442-.114.186.196.216-.217-.129-.258.242-.093-.123-.165.123-.129.062-.485.211-.103.469-.036.15-.32.375.056.18.197.047.216-.026.398.252.428.13-.062.36.279.015-.325.459-.041.55.087.64.217.344.94.284.004.747-.325.303-.289.335-.02.763-.227.144-.104.221-.536.227-.067.232-.269.283-.041.366-.14-.046-.515-.31-2.4-.072-.145-.252-.088-.103-.211-.196-.155.407-.336 1.298-1.192.706-.702.772-.216.855-.346.248-.16.061-.202.423-.402 1.22-1.481.397-.104.36.15.279-.206.196-.403.061-.475.212-.077.185.165.221.077.206-.165.18.016.197-.186.386.119.093.165.489-.031.355.222.654.252.263-.16.381.114.222-.015.335.232.082.129.469.15.129-.589 2.302.392 1.669.346.824 1.105.108.113.51.279.613.248.67.015.716.795-1.242.098.052.392.144.454.309.584-.613.278.155 1.311.066.351.037.728-.165.026-.047.211-.221.109-.48.057-.159.206.155.222.386.387.762.5.284-.046.283.047.211.19.386.057-.16.29.284.025.036.202.356.211-.01.114.448.284.046.144.458-.005.144-.227.407-.031.443-.103.217.067.334-.083.032-.17.267-.093.047.836 1.138.026-.088.18L66.9 95.69l1.432 1.998.077.082.933.176.71.923.201.212.701.041-.474.929.005.78.273-.011.52.088.304-.01.237-.114-.072.367.124.093-.01.263.35.335.18.032-.154.33.267.392.448.119.119.082.041.269-.093.196-.082.408.675 1.471 1.4-.181-.01.134-1.833.279.129.521.19.299.01.212-.52.026-.237-.155-.628-.093-.376-.113-.474.077-.16-.057-.278.191-.463.104-.459-.042.67.852-.386.371-.407.924.38.171-.102.314-.36.083.695.723.139.232.875 1.006.19.176.444.635-.407-.021-.582.165.02.202.598.402-.5.568.268.263.422.315 1.52 1.022.175.155-.536.402-.422.176-.088.108.232.294-.072.418.18.491.35.345-.252.212.284.408-.237.49.051.191.454.155.066-.8-.206-.325.516-.563.968.692.968-.826.237.299.134.062.397-.057.221-.376.288-.052.413.15.649.516-.289.253.088.129.21-.005.217.118.062.217.355.398-.345.345-.468-.263-.273.217.273.356.314.542.144.279-.515.428-.154.206.077.475-.098.439.15.397-.675 1.502-.222.542-.304 1.063.33.14-.072.423-.145.542-.231.077-.418-.196-.128-.242-.284-.006-.128.099-.165.345-.366.176.294.155.108.149.046.295.51.304.041.274.201.345.17.145.258.449.103-.067.515-.067.098-.3.242.274.592.852 1.612 2.219-.216.635-.2.036-.284.304.072.491-.14.149-.37-.48-.15-.253-.303.176.298.325.067.212-.128.165-.443.258-.083.191.108.397-.01.212.273.562.582-.278.335.702.288.413.047.48.206.428.32.547.282.335.273.16.67.563.551.191.381.222.382.485.18.387-.737.176.129.727.675-.031.077.904.077.01 2.37 1.29-.13.083.882 1.553 1.04-.609.283.351.217.067-.253.289-.098.258-.293.005-.443.382-.01.207-.283.227-.062.155-.53.196-.377-.01-.19.211-.083.222.525.305h.232l.289.108-.484.609.406.299 1.38 1.115 1.057-.583.484-.243.628.511.428.31.479.139-.062.558 1.149 1.089.401.407-.288.145-.02.181.16.154.34-.134.071.413.418-.041-.232.609-.201.413-.175.475.32.144-.088.253-.402 2.245.814.625-.361.32.69.733.17.438.376.145-.422.5-.598.248-.736.64-.186.232-.396.248-.35.356-.51.31-.624.49-.783.434-.267-.011-.804.31-.19.423-.062.264-.345.438-.3-.387-.025.743.407.496.592.614-.597.934-.438.609-.165.284-.644-1.378-.608 1.094-.432.098-.34.805-1.314-.34-.752 1.584-1.612 1.451-.7.655-.454 1.161-.056.067-.794.377"/><path id="Вінницький" fill="#C8C6C6" fill-rule="evenodd" stroke="#000" stroke-linecap="round" stroke-linejoin="round" stroke-width=".2" d="m82.84 139.343-.18-.387-.381-.486-.382-.222-.55-.19-.67-.563-.273-.16-.284-.336-.319-.547-.206-.428-.046-.48-.289-.413-.335-.702-.582.279-.273-.563.01-.211-.108-.398.083-.191.443-.258.129-.165-.067-.211-.3-.326.305-.175.15.253.37.48.14-.15-.073-.49.283-.305.201-.036.217-.635-1.613-2.219-.592-.852-.242-.273-.098.299-.515.067-.103.067-.258-.449-.17-.144-.2-.346-.042-.274-.51-.304-.046-.294-.108-.15-.294-.155.366-.175.165-.346.129-.098.283.005.129.243.417.196.232-.078.144-.542.072-.423-.33-.139.304-1.063.222-.542.675-1.502-.15-.398.098-.438-.077-.475.154-.207.515-.428-.144-.279-.314-.542-.273-.356.273-.216.469.263.345-.346-.356-.397-.061-.217-.217-.119-.211.005-.088-.129.289-.253-.65-.516-.411-.149-.289.051-.221.377-.397.057-.134-.062-.237-.3-.968.826-.968-.691-.515.562.206.325-.067.8-.454-.155-.051-.191.237-.49-.284-.408.253-.211-.35-.346-.18-.49.072-.418-.232-.295.087-.108.423-.175.535-.403-.175-.155-1.52-1.022-.422-.315-.267-.263.5-.567-.598-.403-.02-.201.581-.166.407.021-.443-.635-.19-.175-.876-1.006-.14-.233-.695-.722.361-.083.103-.315-.381-.17.407-.924.386-.371-.67-.852.459.041.463-.103.279-.191.16.057.473-.078.376.114.629.093.237.155.52-.026-.01-.212-.191-.299-.129-.522 1.834-.278.01-.134-1.4.18-.676-1.471.083-.407.093-.197-.042-.268-.118-.083-.448-.118-.268-.392.154-.331-.18-.031-.35-.335.01-.264-.124-.092.073-.367-.237.114-.304.01-.52-.088-.273.01-.006-.779.474-.929-.7-.041-.201-.212-.711-.924-.932-.175-.078-.083-1.431-1.997 1.715-1.136.087-.18-1.138-.026-.046-.836-.268.093-.031.17-.335.082-.216-.067-.443.104-.407.03-.144.228-.459.005-.046-.145-.448-.284.01-.113-.356-.212-.036-.201-.283-.026.16-.289-.387-.057-.21-.19-.284-.047-.283.046-.763-.5-.386-.387-.154-.222.16-.207.478-.056.222-.109.046-.212.165-.025-.036-.728-.067-.351-.155-1.311.613-.279-.309-.583-.144-.454-.051-.392 1.24-.098-.715-.795-.67-.016-.613-.247-.51-.279-.108-.114-.824-1.104-1.669-.346-2.302-.392-.129.588-.469-.15-.082-.129-.335-.232-.221.016-.382-.114-.262.16-.654-.253-.356-.222-.49.031-.092-.165-.386-.119-.196.186-.18-.015-.206.165-.222-.077-.185-.166-.211.078-.062.475-.196.402-.278.207-.36-.15-.397.103-1.22 1.481-.423.403-.062.201-.247.16-.855.346-.773.217-.706.702-1.298 1.192-.407.336-.334-.217-.345.201h-.371l-.165-.082-.515.123-.01-.64-.093-.34-.144-.165.03-.186-.396-1.445-.067-.16-.2.02.365-.567.412-.12.314-.144.17-.01.103-.372-.046-.567-.284.041-1.014-.78-.047-.66.14-.217-.69-.253.288-1.393.386-.578.314.16.124-.238-.072-.222-.227-.082.335-1.383-.175-.96-.593-1.12-.103-.057-.061-.392.324-.516.14-.579-.31-.2.392-.729-.021-.139-.551-.867-.093-.227-.396-.692-.18-.516-.526-.51-.726-.042-.5-.361-.592-.243-.212-.304-.164-1.213 1.483-.088-.041-.888-.974.042-.056-.632-.417.014-.006-.451.057-.76 1.01-.071-.01-.26.829-.049-.119-1.41.14.005.375-.712-.283-.126.52-.564.757-1.057.732.251.278.513 1.715.328 1.463-.97 1.499-1.035.49-.32h.669l.685.401.216.092.562.499.2.28.598.275.119.238.69.493.561.007 1.973.579.118-1.193-.278-.752-.082-.103-.15-.68-.015-.345.144-.734-.278-.43-.242-.242-.288-.181-.201-.248-.897-.139-.16-.07-.715-.453.54-1.288.176-.84 1-.514.344 1.087.062.497-.051.55-.109.191.3.234.071-.21.247-.269.196.034.721.35.448-.1.191.356.479-.589.453.057.19-.04.233.133.015.162-.129.269.387.197.139-.181.68.076-.016-.139.845-.2.134-.155.32-1.942.03-.132.464.068 1.19.323.468.244-.082.677 1.638.387.36-.126.186-.28.232-.054.309.058.484-.194.087-.096.799-.172.232-.143.855.216-.02.136.2.952.258.014.288.611-.046.233.103.176.468-.265 1.005.138.412.128.453.246 1.18.576 1.169.637.129-.273.577-.155.345.076.252.58.35-.158.284-.204.139-.19.34-.056.165.06.118-.148 1.437-.585.433 1.128.324-.455 1.19.817 1.818 1.226-.036.207-.469.667.103.29.01.433.099.59.123.17.047.53.303.243.572-.221.294.05.52-.08.464.296.602.129.201-.012.376.314.505.294.206.204.227.353.051.207.608.02.309.16.48.477.555.77.01.33-.278.227.165.505.134.099.186.366.252.186.294.062.288.248-.01.34.525.816.19.407.351-.397.206.237.278-.01.387.155.236-.046-.468-1.188.726-.934.263.16.061.454.135.212.175.475.958-.702-.036-.072.458-.197-.232-.278.36-1.027.248.258.211.087 1.087-.227-.082-.35-.232-.336-.211-.521.345-.443 1.014-1.165.716-.85.078-.184.989.311.098.242.427.371.273.17-.113.21-.515.16.16.523.087.114.026.398 1.066.096.948.385.391.054.041.748v1.518l-.051.748 1.695-.005.473-.015-.067-.274-.576-1.863.072-.212.515.362.577.304.34.109-.243.552.243.32 1.777 1.455.309.015.17.305.329.273.263.032.237.17.165-.15.046-.227-.103-.32.01-.212-.139-.211.139-.217.325-.175.36.036.124-.145.268-.036.438.098-.057.176.113.144.031.269.16-.016.458.3.428-.026.453.206.083.103.582.238.273.051.376-.247.515.278.098.196.422.372.443.175.582-1.156.433-.794.525-.914-.397-.578-1.349-1.795.046-.041-.443-.55-.644-.103-.293-.13-.222-.403-.566-.838-.222-.123-.201.016-.551-.695-.067-.212-.175-.126.01-.254.263-.234.33-.482.484.439.788-1.185.289-.486-.124-.113.19-.875.572.203.387.231.453.052 1.612.524.211.02 1.123-.316 1.149-.303 1.272-.27.02.084 1.098-.277.226-.164.258-.08 1.818-.464.299.935.546.547.298.141.155-.197-.057-.557.304-.666.309-.323.036-.223.15-.164.716-.091.278 1.106.865-.17 1.921-.42.243-.032 3.966-.875-.685-.507-.361-.637-.165-.204-.159-.048-.376-.454v-.207l.18-.438.438-.444.916 1.274.619 1.085 1.947-.21.839-.034 1.154-.097.489.057 1.87-.093-.53-.568.216-.59.448-1.03.257.175.546.22.443.041.119-.89.257-.148 1.396-.375-.314-1.249.258-.217-.675-.738-1.005-.76-.19-.303-.51-.414-.34-.647.402-.523.34-.385.19-.108.294-.362.33-.263.525-.592.989-.76-1.097-1.024-.232-.272-.108-.685-.283-.434-.722-.692.109-.783.072-.796.371-3.455.046-.25.139-1.328.35.414.345.33.768.258.474.205 1.246.361.351.068.52-.166.736-.13.242-.16.649-.06.361.057.412.17.649-.187.433.16.541.034.051.079.51-.112.283-.183.253.034.067.139.891-.055.989 1.265.371-.386 1.107-.51.979-.255.592-.072.263.288.741-.07 1.195.347.237.123.67.062.237-.093.582-.434.201-.253.211-.007.603.535.159.205.737-.392.144-.107.046-.266.459-.419 1.035-.888.732 1.192.195.555 1.963-.011.015-3.44-.005-1.38 1.38.08.989-.025 2.03-.177.726 1.125.232.404.144.152 1.149-1.648.185.146.17-.124.222.236.103.243.474.449.288.186.335-.188.391.092.732-2.026.036-.025.355-.978.253-.302-.011-.301 1.175-1.512.443.3.257.273.737.366-.016-.233.376-1.09 1.984.763.963.334 1.416.553.211-.616 1.7.659 1.159.465.17.164.036.501.072.064 1.097.441-.288.726-.392-.208-.659 1.12-.932.605.257.897-.422.575-.85 1.074.546.115.237.347-.541.358 2.509 3.824.159.308.109.63.123.908.093.466.288 1.117.49.04.206.82-.294-.08-.299 1.46.958.311 1.304 1.492.345.503.365-.526.139.043.789.05.041.812-.134-.008.062.632-.33.147-.278-.093-.35-.227-.454-.109-.165.107-.442-.1-.186.014-.324.326-.134.257-.016.416-.175.277-.247.134-.34.018-.082.26.206.08.525.947-.149.09.164.255.706 1.246.402.367.19.098.521.397.118-.011 1.077.477.19.007.309 1.125.145.322-1.036.695-.34.191-.561.395.283.575-1.36 1.41-.082.05.34.422-1.247 1.06-.479.6-.35-.01-.216.09-.876.229-1.282.38-.412.104.231 1.6-.319-.064-.098.024-.134.694-.005.238.113.836.546.175.546.434.057.175.35.537-.026.49-.098.067.335.604-.02.537.108.63-.108.552.345.454.108.475.35.428.258.418.906.207.613.082.299-.113.34.051.35.15.191.165.185-.175.155-.362.175-.02.664.284 1.062.49 2.142 1.57-.324.2-.036.3-.191.144-.278-.026-.124.202.253 1.176.365.264.16.294.01.34.165.31-.046.3-.237.2-.124.238.18.207.459-.016-.701 1.094.078.13.525.52.448.32.196.362.479.454.381.537.185.15.624.118 1.226-.562 2.307 1.626.217-.6.051-.81.103-.614.103-.3.335-.515.175-.17.252.428.907 1.125.479.635-.273.124.02.516-.113.371.685.604.752.155.289.227-.15.191-.391.155-.062.284-.221.237-.696.078-.469-.29-.195-.02-.387-.217-.19-.046.232 1.058.319 1.305 1.313.558.062 2.906-.479-.382-.293.51-.103 1.126.185.046-.191 1.192.114.656-.66.14.176 1.65.643 1.39.989-.047.196 1.182-.721.118-.175.145-.536.067-.19.114-.232-.135-.376-.036.108.279-1.35.222-.638.124-.345.459-.227.031.211 1.275.211.738.17.408.057.325-.294-.015-.479-.212-.803-.232-.258.087-.34-.139-.154-.351-.464-.289-.185.315-.361 1.218-.412 1.507-.669 2.178.51.49-.145.315-.535.067-.237.15.154.542-.108.062-.397-.3-.159-.237-.237-.129-.371-.532-.829-.201.01.124-.196.134-.082.346-.623.083.154.418.185.258-.319.067-.134-.15-.165-.439-.097.135.113.175-.16.093-.17-.181-.293.238-1.268-.062-.18.015-1.983-.057-.026-.289.459-2.596-.366.109-.144-.62-.175-.573-.273-.727-.289-.893-.922-2.163-.19-.113-.119-.243.072-.284-.159-.299-.397-.227-.263-.026-1.097.036.144.243-.134.314-.036.413-.134.47-1.576-.79.742-1.538-.855-.253-1.123-.299-.124.217.716.47-.036.18-.54 1.084-.33-.206-.325.609-1.571 1.233-.566.413-.685.547.01.614-.232.026-.86.258-.144.212-.144-.041-.253 1.522.175.49.557.769.278.32-1.154 1.941-.366.382-.216-.077-.026-.207-.546-.686-.159-.258-.443-.124-.072-.181-.196.072-2.004 1.864-.376-.357-.391.398.355.382.216.351.289.361.139.299.046.258.021.584-.108.268-1.015.769-.258-.346-.118.109-.062.247-.232.238-.278-.129-.386-.258-.134.129-.505.191-.381-.284-.371-.026-.659.764-.253.604-.901.247-.53.124.149.124.18.372-.309 1.145-.226.212-.84-.16-.186.712-.226-.103-.242.083-.381.258-.51.474-.17.057-.361-.242-.268-.047-.226-.392-.315-.237-.355-.073-.361.088-.417-.103-.268.201-.113-.098-.309.181-.057.222-.602.433-.469.294-.16.295-.175.134-.051.351-.175.346-.165.123-.294.037-.469.552-.989.557-.262-.475-.253-.588-.051-.501-.587-.387-.15.005-.535-.211.082-.196-.402-.3-1.128-.717-.808-.656-1.247-.934-.082.434-.191.113-1.669-.211.124-.32-2.323-.769-.17.588-1.138 3.159-.933 2.513-1.566.645-.808.377-2.138 1.213.139.619.268.15.572-.026.664.232.113.377-.113.392.052.429-.356.325-.092.248-.299-.067-.356-.269-.834-.454-.206.769 1.576.527-.057.609-.875-.16-.299.412-.757.104-.459-.026-.329.026-.196-.269-.464-.315-.154-.201-.397-.304-1.457-.429-1.309.233.021.449-.428.17-.407-.021-.128.108.839 1.028-.489.397.742.908-.072.274-.207.263-.319.057-.129.335.129.315.057.361-.077.037.406.629.237.423.062.274-1.102.408-.515.108.535 1.084-.164.015-.484-.356-.366.465.582 1.409.309.81-.052.227-.324-.057-.356-.366-.412-.289-.453-.63-.407-.057-.365-.443-.449-.217-.417.062-1.097-.269-.567-.299-.324.098-.479.408-.33.382-.391.087-.242-.289-.005-.629-.062-.774.062-.506.252-.867-.02-.439-.109-.274-.242-.144-.195.083-.227.345-.448.243-.15-.052-.154-.211.036-.898-.17-.418.01-.465-.129-.433-.01-.635-.221-.222-.134-.449-.268-.232-.464-.13-.34.15-.386.599-.803.449-.376.077-.073.083-.123.588-.144.325-.248.228-.51.268-.391.681-.407.196-.304.434-.072.521-.154.485v.253l-.485.036-.535.274-.109.17-.386.067-.7-.5-.423-.449-.031-.243.077-.232.243-.325-.51-.341-.289.093-.273-.026-.556.119-.649-.062-.397.118-.159.197-.227.031-.34-.253-.227.005-.334.217-.15-.011-.211-.242-.139-.532-.422-.599-.119-.748-.149-.212-.464-.056-.211-.196-.381-.011-.768-.371-.072-.362.397-.665-.026-.692.386-.304.247-.068.253-.32.015-.402.268-.191-.999-.769.34-.294.041-.362-.283-.356-1.257-.33-.531 1.45-.777 1.915-.593 1.621.016.051-.279.857-.19.681-1.411-.087-1.453-.222-.587-.362-.01-.227-.129-.516-.335-.217-1.988 1.544-.304.469-.422.449-.109.052.536.908.629.537.082.506-.098.196.118.237.35.171-.035.227-.145.098-.04.258.112.114-.092.175-.33-.031-.18.196.165.377-.397.593-.84-.082-.262.015-1.623-.237-.401-.026-.17-1.007-.86-.268-.876-.243-.7-1.362-.212.01-.974-.521-.2.49-.109.671.206.325-.128.233-.15.056-1.138-.655-.325-.243.134-.361-.303-.103-.248.098-.123-.212-.881-.155-.788.067.118.243.454.299-.145.47-.123.16-.227-.315-.216-.165-.634-.237-.5-.217-.236.335-.35 1.43.159.201.155.403-.016.263-.139.248-.366-.021-.355.078-.211.33-.278.052-.325.289.02.211-.17.331.01.325-.545 1.053-.479-.217Z" clip-rule="evenodd"/><path id="Могилів-Подільський" fill="#C8C6C6" fill-rule="evenodd" d="m82.293 184.271 1.287.526 2.19 3.339-.608.403 1.272 1.904-.458.3 1.04 1.6.572-.403 1.02-.656 1.406-.464 2.04-.692.432-.382.623.888-.278.222.114.361v.491l-.13.361-.272.289.067.537.01.444-.056.299-.33.495-.366.099.088.289.015.304.17.542.309.325-.288.227-.124.186-.118.459-.134.093 1.107.676.031.202 1.092.681-.108.212-.17.567-.211-.01-.284.403.14.196-.032.382-.092.015-.284.294.047.176.288.16.005.191.454.154.401.186.577.408.196-.201.582.588.53.599h.248l.37.898.01.196.176.877-.211.449-.031.573-.165.279.057.382.365.537.134 1.011.062.171-.031.64-.232.727-.793.929.108.346.716.072 1.314.197.772.242.551.305.294.392.505.382.17.273.659.795-.103.186 1.154 1.037-.788 1.425-.103.155.123.299 1.685.805.68.377-.124.227-.088.413.042.315-.176.562-.133.196-.716-.351-.299.599-.17-.077-.113.258-.376.433-.346.186.016.284.092.274.011.335.293.33.067.191.397-.263.494-.129-.587.547-.041.165-.273.181h-.201l-.309.243-.252.098-.083.144-.185-.005-.253.139-.226-.098-.423.274.052.258-.386.02-.16.367-.206.149-.103.274-.036.351-.278.119-.098.32-.134.113h-.268l-.402.119-.37.015-.222.088-.464-.134-.407.155.134.242.773.831.618.609-.283.078-.52.418-.655.469-.412.418.108.759-.293.201-.294.067.34.475.155.088-.211.496-.036.598.005 1.409.092.341.031.49-.144.454-.227.449-.149.516.026.269.196.335.52.367.088.217-.042.154-.267.171-.655-.088-.592-.465-.268-.134-1.38-.438-.484-.248-.515-.465-.232-.371-.284-.759-.257-.501-.314-.242-.33-.681.031-.579-.036-.387-.113-.232-.634-1.017-.407-.547-.03-.475.174-.722.381-.552.433-.3.52-.531.031-.253-.087-.387-.263-.527.041-.428v-1.326l-.262-.579-.443-.387-.33-.191-.855-.356-.345-.057-.83.119-.494-.041-.474.057-.443.185-.36.517-.108.216-.289.32-.18.31-.14.377-.154.908-.535 1.161-.289.568-.314.336-.356.247-.319.129-.345.057-.463.207-.464-.026-.968.046-.196-.119-.881-.65-.242-.387.02-.351.13-.356.025-.325-.088-.64.021-.542.196-.356.232-.269 1.282-.769.773-.402.69-.398.644-.547.391-.516.474-.841.196-.914.35-.81.047-.485.066-.16.078-1.337-.041-.315-.18-.794-.433-1.074-.17-.475-.206-.217.087-.103-.5-.366-.412-.145h-.21l-.567.3-.433.314-.335.45-.098.263-.391.438-.356.047-.314-.263-.525-.795-.577-.005-.381.289-.433.475-.469.443-.5.202-.756.346-.557.32-.71.526-.933.593-.752.429-1.035.63-.422.206-.577.191-.557.082-.571-.165-.572-.397-.35-.305-.304-.469-.078-.408-.04-.877-.248-1.363.031-.532.108-.469.242-.614.016-.372-.217-.289-.252-.227-.438-.217-.309-.103-1.2-.325-.577-.181-.453-.041-.16.082-.252.295-.01.805-.119.531-.206.403-.417.506-1.092.722-.217.098-.582.46-.582.201-.474-.155-.432-.227-.227-.041-.412-.222-.263-.3-.108-.263-.082-.454-.041-.805.03-.449.13-.501.2-.475-.03-.18.355-.733.134-1.022.144-.738.257-1.146-.087-.552.103-.17-.18-.408-.273-.805-.18-.294-.17-.248-.717-.847-.35-.356-.458-.268-.665-.258-.587-.042-.175-.185-.572-.093-.958.031-1.355.005-.973.062-.48.062-1.137-.005-.98.098-.37.005-.592-.15-.443-.248-.495-.371-.288-.31-.53-.439-.408-.273-.628-.521-1.267-.935-.196-.211-.67-.516-.726-.718-.38-.562-.176-.186-.49-.686-.175-.491-.133-.552-.042-.697.026-.237.15-.289.036-.315-.289-.759-.417-.877-.355-.274-.31-.144-.17-.15-.478-.212-.227-.144-.778-.33-.783-.042-.695-.175-.556-.248-.109-.098-.35-.919-.35-.516-.417-.449-.417-.232-1.041-1.079-.556-.433-.618-.196-.593-.32-.577-.408-1.138-.237-.427.025-.722.14-.515.237-.515.109-1.138.428-.762.356-.747.516-.515.284-.428.134-.587.073-.69-.021-.845-.129h-.685l-.376-.098-.896-.449-.433-.237-.891-.594-.201-.093-.49-.366-.154-.042-1.097-.526-.206-.165-.118-.392.005-.228.283-.428.072-.289.144-.206.093-.346.33-.692.288-.356.046-.335-.34-.424-.489-.196-.602-.051-.47.108-.37.16-.407.346-.695.351-1.02.815-.53.454-.696.418-.19.15-.238.062-.401.052-.922-.222-.984-.903-.654-.563-.495-.774-.51-1.172-.278-.475-.299-.402-.128-.248v-.361l.257-.95.15-.934.061-1.125-.077-.511-.175-.764-.082-.521-.196-.661-.175-.335-.109-.501-.298-.635-.124-.351-.036-.423-.124-.263-.19-.65-.376-1.002-.175-.273-.088-.516-.15-.057-.262-.331.227-.149-.206-.346-.407-.48-.757-.702-.526-.33-.515-.248-.664-.372-.495-.351-.443-.273-.35-.165-.51-.351-.979-.521-.525-.135-.577-.232.119-1.079.18-.108.046-.661.108-.676.15-.376.432-.326.067-.444.13-.16.112-.376-.061-.295.067-.33-.103-.149.061-.517.13-.289-.058-.428.062-.284.217-.175.17-.485.355-.336.469.201.309.067.015-.268-.283-.733.283-.155.33.104.16-.496.036-.516-.155-.17-.737-1.812-.309-1.11.006-.397.674-.686.093-.228.52-.196-.283-.691-.458-.423-.093.031-.35-.532-.294-.377-.283.088-.34-.408.092-.155-.03-.474-.13-.449.186-.15.309-.093.469-.021.5.103.21-.268.016-.15-.345-.304-.16-.222.33-.16.443-.346.51-1.202-.196-.331.324-.072.13-.289.216-.041.226-.217.031-.382-.298-.062-.371-.258-.02-.263-.253-.651-.407-.402-.052-.217.067-.593.222-.042.16.088.175-.464-.057-.29-.01-.433-.371-1.43.381-.155-.067-.418.036-.268-.154-.17.026-.341-.176-.026-.061-.315.206-.165.072-.671-.005-.593-.098-2.638.015-.082-.52-.599-.31-.294.861-.201.994-.651.19-.093 2.046-.449.087-.041.577-.671.2-.289-.117-.604.396-.196.737-.433-.072-.114.695-.434.381-.206.273.346.062.222.242.232 1.947 1.409.077.253.232.17.289-.351.34-.567.288.103.211.258.186.098.432.01.716.883.124.051-.047.289.19.171-.045.474.638.403.763.516.273.227.618-.093 1.04-.392.155.078.077.232-.088.433-.422.511.098.403.216.356.325.356.139.573.34.32.139.604.154.103.217.294.37.697.042.284-.278.361.123.026.515.392.87.491 1.907.8.468.098.799.898.917 1.12.664.433.453.134.675.486.175.036.217.253.092-.181-.092-.413.242-.18.118.061.577.052.397.33.355.114.505.005.113-.222.232-.186.227-.082.35.232.057.108.947.568.314-.444.17.073.248-.093.607-.671-.21-.31.262-.434.242.434.242.01.108-.263.299-.542.556-1.657.175-.382.052-.588.407.098.407.041.515-.062.227.145.051.15.278-.093.19.805-.025.191.278.392-.19.165.108.32-.14.155.047.64.206.057.345.371.258.207.489.175.33-.056.252.16.304.051.417-.284.963 1.296.253.16.164.258.119.341.273.49.304-.201.463.056 1.19.95.17.01.175-.454.35.351.073.836.02.232.222.326-.752.449-.289-.532-.443.289-.427 1.419.314.898-.119.723.124 1.868.186.145.16.32.17-.026.185 1.073.04.367 1.433-.552.67 1.073.164.64-.16.573.067.578-.082.186.124.433-.175.501.102.16-.324.588-.273-.072-.268.057.119.346 1.097.531 1.308-.16.88.171.372.005.644.284.242-.006.365.553.289.702.026.495.129.057.03.294.135.139-.01.738.061.388.232.99.139.326.762.067.443.139.484-.005.191-.067.237-.403.5.191.247.145.376.119.366-.109.546.036.623.093.273-.026 1.184-1.223.387.17.412-.464 1.035.077v.114l1.16.072-.037.274-.15.583.366.614.253.351.278.284.03.15.284.619.155.578.659-.392.577.934.52.211.258.021.38-.072.155-.206.13.062.653.082.345.222.33.119 1.05-.207 1.273-.351.031.604-.067.227.083.687.149.098 1.133-.547.644-.3 1.097.578.124.341.2.33.722-.118.165.335.087.315.165.072.17-.175.731-.212.557-.206.37.33 1.875 1.806 1.175.821 1.334.981-.294 2.095.299-.103.263.082.278.274.077.186.778.671-.072.113.01.377.453 1.099 2.256 1.451.232.557.016.712-2.617.945-.17 2.054.03.217.33.051.438-.191 1.736.501-.86 1.672" clip-rule="evenodd"/><path stroke="#000" stroke-linecap="round" stroke-linejoin="round" stroke-width=".2" d="m82.293 184.271 1.287.526 2.19 3.339-.608.403 1.272 1.904-.458.3 1.04 1.6.572-.403 1.02-.656 1.406-.464 2.04-.692.432-.382.623.888-.278.222.114.361v.491l-.13.361-.272.289.067.537.01.444-.056.299-.33.495-.366.099.088.289.015.304.17.542.309.325-.288.227-.124.186-.118.459-.134.093 1.107.676.031.202 1.092.681-.108.212-.17.567-.211-.01-.284.403.14.196-.032.382-.092.015-.284.294.047.176.288.16.005.191.454.154.401.186.577.408.196-.201.582.588.53.599h.248l.37.898.01.196.176.877-.211.449-.031.573-.165.279.057.382.365.537.134 1.011.062.171-.031.64-.232.727-.793.929.108.346.716.072 1.314.197.772.242.551.305.294.392.505.382.17.273.659.795-.103.186 1.154 1.037-.788 1.425-.103.155.123.299 1.685.805.68.377-.124.227-.088.413.042.315-.176.562-.133.196-.716-.351-.299.599-.17-.077-.113.258-.376.433-.346.186.016.284.092.274.011.335.293.33.067.191.397-.263.494-.129-.587.547-.041.165-.273.181h-.201l-.309.243-.252.098-.083.144-.185-.005-.253.139-.226-.098-.423.274.052.258-.386.02-.16.367-.206.149-.103.274-.036.351-.278.119-.098.32-.134.113h-.268l-.402.119-.37.015-.222.088-.464-.134-.407.155.134.242.773.831.618.609-.283.078-.52.418-.655.469-.412.418.108.759-.293.201-.294.067.34.475.155.088-.211.496-.036.598.005 1.409.092.341.031.49-.144.454-.227.449-.149.516.026.269.196.335.52.367.088.217-.042.154-.267.171-.655-.088-.592-.465-.268-.134-1.38-.438-.484-.248-.515-.465-.232-.371-.284-.759-.257-.501-.314-.242-.33-.681.031-.579-.036-.387-.113-.232-.634-1.017-.407-.547-.03-.475.174-.722.381-.552.433-.3.52-.531.031-.253-.087-.387-.263-.527.041-.428v-1.326l-.262-.579-.443-.387-.33-.191-.855-.356-.345-.057-.83.119-.494-.041-.474.057-.443.185-.36.517-.108.216-.289.32-.18.31-.14.377-.154.908-.535 1.161-.289.568-.314.336-.356.247-.319.129-.345.057-.463.207-.464-.026-.968.046-.196-.119-.881-.65-.242-.387.02-.351.13-.356.025-.325-.088-.64.021-.542.196-.356.232-.269 1.282-.769.773-.402.69-.398.644-.547.391-.516.474-.841.196-.914.35-.81.047-.485.066-.16.078-1.337-.041-.315-.18-.794-.433-1.074-.17-.475-.206-.217.087-.103-.5-.366-.412-.145h-.21l-.567.3-.433.314-.335.45-.098.263-.391.438-.356.047-.314-.263-.525-.795-.577-.005-.381.289-.433.475-.469.443-.5.202-.756.346-.557.32-.71.526-.933.593-.752.429-1.035.63-.422.206-.577.191-.557.082-.571-.165-.572-.397-.35-.305-.304-.469-.078-.408-.04-.877-.248-1.363.031-.532.108-.469.242-.614.016-.372-.217-.289-.252-.227-.438-.217-.309-.103-1.2-.325-.577-.181-.453-.041-.16.082-.252.295-.01.805-.119.531-.206.403-.417.506-1.092.722-.217.098-.582.46-.582.201-.474-.155-.432-.227-.227-.041-.412-.222-.263-.3-.108-.263-.082-.454-.041-.805.03-.449.13-.501.2-.475-.03-.18.355-.733.134-1.022.144-.738.257-1.146-.087-.552.103-.17-.18-.408-.273-.805-.18-.294-.17-.248-.717-.847-.35-.356-.458-.268-.665-.258-.587-.042-.175-.185-.572-.093-.958.031-1.355.005-.973.062-.48.062-1.137-.005-.98.098-.37.005-.592-.15-.443-.248-.495-.371-.288-.31-.53-.439-.408-.273-.628-.521-1.267-.935-.196-.211-.67-.516-.726-.718-.38-.562-.176-.186-.49-.686-.175-.491-.133-.552-.042-.697.026-.237.15-.289.036-.315-.289-.759-.417-.877-.355-.274-.31-.144-.17-.15-.478-.212-.227-.144-.778-.33-.783-.042-.695-.175-.556-.248-.109-.098-.35-.919-.35-.516-.417-.449-.417-.232-1.041-1.079-.556-.433-.618-.196-.593-.32-.577-.408-1.138-.237-.427.025-.722.14-.515.237-.515.109-1.138.428-.762.356-.747.516-.515.284-.428.134-.587.073-.69-.021-.845-.129h-.685l-.376-.098-.896-.449-.433-.237-.891-.594-.201-.093-.49-.366-.154-.042-1.097-.526-.206-.165-.118-.392.005-.228.283-.428.072-.289.144-.206.093-.346.33-.692.288-.356.046-.335-.34-.424-.489-.196-.602-.051-.47.108-.37.16-.407.346-.695.351-1.02.815-.53.454-.696.418-.19.15-.238.062-.401.052-.922-.222-.984-.903-.654-.563-.495-.774-.51-1.172-.278-.475-.299-.402-.128-.248v-.361l.257-.95.15-.934.061-1.125-.077-.511-.175-.764-.082-.521-.196-.661-.175-.335-.109-.501-.298-.635-.124-.351-.036-.423-.124-.263-.19-.65-.376-1.002-.175-.273-.088-.516-.15-.057-.262-.331.227-.149-.206-.346-.407-.48-.757-.702-.526-.33-.515-.248-.664-.372-.495-.351-.443-.273-.35-.165-.51-.351-.979-.521-.525-.135-.577-.232.119-1.079.18-.108.046-.661.108-.676.15-.376.432-.326.067-.444.13-.16.112-.376-.061-.295.067-.33-.103-.149.061-.517.13-.289-.058-.428.062-.284.217-.175.17-.485.355-.336.469.201.309.067.015-.268-.283-.733.283-.155.33.104.16-.496.036-.516-.155-.17-.737-1.812-.309-1.11.006-.397.674-.686.093-.228.52-.196-.283-.691-.458-.423-.093.031-.35-.532-.294-.377-.283.088-.34-.408.092-.155-.03-.474-.13-.449.186-.15.309-.093.469-.021.5.103.21-.268.016-.15-.345-.304-.16-.222.33-.16.443-.346.51-1.202-.196-.331.324-.072.13-.289.216-.041.226-.217.031-.382-.298-.062-.371-.258-.02-.263-.253-.651-.407-.402-.052-.217.067-.593.222-.042.16.088.175-.464-.057-.29-.01-.433-.371-1.43.381-.155-.067-.418.036-.268-.154-.17.026-.341-.176-.026-.061-.315.206-.165.072-.671-.005-.593-.098-2.638.015-.082-.52-.599-.31-.294.861-.201.994-.651.19-.093 2.046-.449.087-.041.577-.671.2-.289-.117-.604.396-.196.737-.433-.072-.114.695-.434.381-.206.273.346.062.222.242.232 1.947 1.409.077.253.232.17.289-.351.34-.567.288.103.211.258.186.098.432.01.716.883.124.051-.047.289.19.171-.045.474.638.403.763.516.273.227.618-.093 1.04-.392.155.078.077.232-.088.433-.422.511.098.403.216.356.325.356.139.573.34.32.139.604.154.103.217.294.37.697.042.284-.278.361.123.026.515.392.87.491 1.907.8.468.098.799.898.917 1.12.664.433.453.134.675.486.175.036.217.253.092-.181-.092-.413.242-.18.118.061.577.052.397.33.355.114.505.005.113-.222.232-.186.227-.082.35.232.057.108.947.568.314-.444.17.073.248-.093.607-.671-.21-.31.262-.434.242.434.242.01.108-.263.299-.542.556-1.657.175-.382.052-.588.407.098.407.041.515-.062.227.145.051.15.278-.093.19.805-.025.191.278.392-.19.165.108.32-.14.155.047.64.206.057.345.371.258.207.489.175.33-.056.252.16.304.051.417-.284.963 1.296.253.16.164.258.119.341.273.49.304-.201.463.056 1.19.95.17.01.175-.454.35.351.073.836.02.232.222.326-.752.449-.289-.532-.443.289-.427 1.419.314.898-.119.723.124 1.868.186.145.16.32.17-.026.185 1.073.04.367 1.433-.552.67 1.073.164.64-.16.573.067.578-.082.186.124.433-.175.501.102.16-.324.588-.273-.072-.268.057.119.346 1.097.531 1.308-.16.88.171.372.005.644.284.242-.006.365.553.289.702.026.495.129.057.03.294.135.139-.01.738.061.388.232.99.139.326.762.067.443.139.484-.005.191-.067.237-.403.5.191.247.145.376.119.366-.109.546.036.623.093.273-.026 1.184-1.223.387.17.412-.464 1.035.077v.114l1.16.072-.037.274-.15.583.366.614.253.351.278.284.03.15.284.619.155.578.659-.392.577.934.52.211.258.021.38-.072.155-.206.13.062.653.082.345.222.33.119 1.05-.207 1.273-.351.031.604-.067.227.083.687.149.098 1.133-.547.644-.3 1.097.578.124.341.2.33.722-.118.165.335.087.315.165.072.17-.175.731-.212.557-.206.37.33 1.875 1.806 1.175.821 1.334.981-.294 2.095.299-.103.263.082.278.274.077.186.778.671-.072.113.01.377.453 1.099 2.256 1.451.232.557.016.712-2.617.945-.17 2.054.03.217.33.051.438-.191 1.736.501-.86 1.672"/></svg>