<svg xmlns="http://www.w3.org/2000/svg" width="212" height="155" fill="none" viewBox="0 0 212 155"><path id="Берегівський" fill="#C8C6C6" fill-rule="evenodd" stroke="#000" stroke-linecap="round" stroke-linejoin="round" stroke-width=".2" d="m88.183 118.454.553.01.276.238.683.248.3.16.543.454.25-.047.826.501.1 1.192.377.32.205-.18.207.139.123.243.023.201.277.124.437-.098.249-.563.093.222.135.015.14.326.383-.021.079-.088.303.15.517-.176.412.227.097.331-.102.32.31.913-.01.325.202.346.118.356.03.387-.075.465.085.459-.569 1.099-.164.145-.145.387.12.108.238.573.182.289-.046.088-.286-.072-.176.051-.477-.072-.344.031-.027.16-.432.965-.385-.289-.39.129-.15.16-.431-.154-.51-.016-.453-.129-.207.031-.7-.217-.278.006-.312-.14-.357.067.014-.129-.689-.051.04-.253-.27-.243-.106-.227.233-.108-.112-.522.135-.056-.17-.351-.387-.047-.032-.676-.347-.299-.258-.042-.188.279-.452-.289-.09.609-.732.088-.082.196-.186-.057-.233.109-.389 1.646-.482.299-.138.341-.228-.196-.513.067-.263.434-.728.252-.404.496.721.506.098.067-.153.397.13.155-.222.191-.232-.093-.36.903-.187-.015-.356.325-.052.444.344.212-.133.541.276.403-.22.377-.981.913.241.413.694.331-.004.376-.3.62-.2.16-.162.402-.325.3-.401.191-.039.196-.207.149.032.367.629.088-.225.206-.229.526.045.233-.127.33-.124.088-.553.021-.43-.367-.308-.113-.755.103-.735.547-2.218.382-.196.387-.277.356-.074.335-.381.021-.213.145-.127-.145-.19.145-.215-.429-.418-.216-.796-.052.025-.212-.116-.438-.303-.243-.472-.108.032-.176-.847-.191.074-.392-1.29-.201-.113.511-.873-.687-.072.119-.53-.413.004-.175-1.353-.295-.502.568.029.485-.083.387-.087.129.188.274.039.237.554.382.447.031.26.485.208.898-.024.491.293 1.192-.058.31.124.366.31.299-.47.217-.026.207-.309.031-.34.289-.409.284h-.37l-.082-.145-.347.129-.04.248-.548-.093.011-.237-.233-.026-.009.371-.33-.299-.06.32-.163.057-.196-.155-.045.402-.419.073-.121-.073.153-.242-.372.021.042-.635.082-.248-.185-.49-.343.222-.231-.14-.16.227-.22.15-.131-.067.108-.346-.205-.046-.027-.15-.315.222.033-.237-.209-.444.172-.176-.043-.18-.182-.057-.148-.217-.208.108-.002.248-.212-.113-.31-.475-.276-.01-.314-.15-.112-.222-.165.036-.293-.119-.502.191.064-.304.229-.191-.198-.196-.308-.429-.063-.206.64-.893.174.098.192-.088-.182-.423.284-.088.094-.216.46-.594.735-.413-.073-.263-.017-.981.358-.087.328-.264-.024-.175.2-.258.28-.702.195-.336.083-2.327-.376.067-.363-.176-.05.341-.23.196-.29-.392-.14-.036-.293-.377.249-.098-.13-.537.024-.144-.197-.109-.035-.268.135-.129-.224-.16.247-.176-.209-.206.158-.191-.256-.181.008-.175-.162-.227-.349-.109-.178-.17-.178-.351-.357.041-.148.31-.167.181-.342-.171.008-.32.227-.123-.334-.367-.118-.258.035-.449.065-.088-.407-.046-.155-.274.087-.217-.1-.371.032-.181.221-.433.043-.475-.122-.428-.246-.475-.386-.258-.283-.031-.272.092-.33.331-.12.258v.573l-.298.268-.298-.021-.155-.376.023-.269.136-.33.2-.325.064-.362-.1-.17-.364-.165-.23.031-.379.552-.128.103-.367-.01-.675-.485-.55-.124-.245.109-.053.237.115.268.208.145.353.382-.19.32-.34.16-.453-.057-.193-.113-.229-.269-.148-.341-.016-.288-.1-.248-.23-.119-.299-.015-.588.33-.252-.005-.438-.222-.188-.015-.238.268-.12.289-.177.098-.47-.098-.2.01-.373.429-.238.144-.571.036-.256.222-.302.429-.548.449-.654.382-.294.278-.255.341-.291.217-.264.051-.65-.072-.683-.413-.48.078-.631-.109-.656.01-.214-.072-.429-.418-.193-.31-.241-.247-.181-.047-.124-.201-.35.124-.164.129-.273.031-.745-.109-.335-.34-.38-.093-.258.041.165-.728.28-.227.318-.144-.296-.423-.282-.537.047-1.079.175-.139.018-.253-.52-.434-.078-.382.413-.304.295.057.141-.191-.54-.898-.248.154-.256-.397-.256-.666-.422.181-.238-.139-.218-.909-.271-.65-.192-.201-.054-.387-.157-.109.099-.242-.364-.331.057-.392.56-.057.248-.666-.05-.557-.059-.175-1.212-.295.021-.082-1.015-1.115-.706-.31-.393.129-.114-.361-.26-.315-.27-.144-.02-.31-.15-.289-.393-.31-.347-.413-.026-.443.25-.46-.155-.196.14-.397-1.039-.155-.495-.041.453-.568.083-.17-.298-.16.171-.238-1.058-.552-.517.082-.077.181-.227.181-.177-.021-.387.186-.391.583-.353.005-.62.253-.12-.253-.339-.041-.096.082-.307-.191-.226-.34-.35-.356-.272.026-.375-.32-.196.201.19.501-1.127-.259.042-.227-1.613.207-.346.449-.194.542-.606.309-.146.222-.07.372-1.294-1.388.12-.16-.39-.749-.052-.294.027-.273-.511-1.11-.768-.841-.124.103-.901-.991.185-.475-.304-.975.013-.284.239-.403-.212-.681.044-.201-.154-.47.005-.212-.406-.108-.272-.16.007-.191-.286-.026-.368-.485-.186-.145.078-.253-.068-.113.06-.289-.325-.165-.2-.222-.037-.274.28-.335.343-1.1-.23-.712-.016-.155.22-.557-.181-.377.003-.175.024-.522.149-.17.02-.263-.233-.408.136-.495.308-.124.37-.041.005-.202.35-.294.636-.046.295-.088.291-.305.164-.335-.307-.176.002-.211.354-.196-.22-.645-.171-1.446-.108-.66 1.609.439-.433 1.77.498.03-.201.837.335.19.144.202.19-.124 1.203.093-.02-.093.293-.727-.075-.274.843-.604.284.496.645 1.032 1.112-1.3 2.453 1.8.154.073.246-.279.703.444 1.244-.026.613.13-.01-.259-.096-.093-.438-.165-.145-.29-.013-.185.155-.563.103-.077.878.052.448-.021.17.315.25-.057.076.454-.273.862.003.124.446-.026.721.015.274.475.46.191.188.196.143.264.276.144.271.227.426.047-.016.392.063.51.092.104.444.243.286.273-1.596 1.93.13.062.45-.036.4.33-.734.728-1.392 1.425-.767.764.227.253-.078.227.031.361.374.155.212-.109.083.217.16.088.155-.088.544.227.234-.082.193.108.133-.279.21.181.318-.062.464-.325.127.232.39-.165.552-.093.264-.165.615-.284.31-.227-.066-.186.317-.341-.08-.397.033-.165.544-.186-.008-.139.318-.119-.787-.753-.369.289-.799.263-.142-.109-.308-.062-.282-.191-.243-.294 1.596-.588.56-1.038.134-.092.176.382h.512l.23.087.06.527.163.118.159-.072.232.041.617-.211-.357.593.41.078.665.521.427-.423.251.227-.04.15-.475.335-.493.511.144.176.276.108.312-.098.02.232.555-.279.136.104.315-.098.199-.496.186.005.087-.216.199-.026.428-.243-.213-.578-.239-.222-.059-.408.218-.082.028-.165.274-.243.07-.212.365-.196.626 1.105 1.616 2.9.072.114.998.552.053-.01 2.29 1.259 1.505.222 2.138.289.033.124.318.036.156-.093.844-.727 1.72.252.332.032.14.118.1-.279-.084-.51-.153-.32-.215-.021.225-1.115.061-.124.44-.17.29.118.184-.165.082-.299.208-.052.346.093.433-.124.077-.645.432-.697.278-.134v-.289l.091-.19.687-.228.113.052.316-.558-.518-.33-.347-.155-.045-.392.234-.418.3.072.185-.155.218.222.247.109.336.253-.284.299-.127.253 1.639.19-.198-.737.097-.615-.099-.077-.11-.372.077-.35.224-.259.402.02.22.476.038.47.284.386-.01.305.19-.026.324.165.19.795-.435.356.214.439.057.248-2.068.026.2.572.021.248.172.501-.005.366-.072.078.085.438-.18.501.344.093.368-.067.085.211.811.295.134.026-.11.954-.19.109-.035.413.121.196.184.041.88.444.298.124-.077.17.55.036.247-.062-.211-.449-.052-.294-.22-.475.155-.108-.358-.821.131-.026.68-.454-.27-1.202-.401-.197.167-.511.322-.01-.008-.216.29-.202.524-.454-.965.439-.089-.496.036-.428.298.103.084-.098.506.263.144.016.322-.475.47.026.25-.34.264-.703-.07-.65.556-.511.519-.145.08-.082.624-.062-.057-.274.337-.03.099.428.15.294.174.144.233.026.1.207 1.42.278-.02.44.034.546.302.387.198-.232.155-.052.842-.118.25-.067-.284.516.133.253-.057.14-.27.175.085.196.211.16.046.309.114.145-.079.165.661.578.043.361.623.516.235.408.247.067.267.212.62.666.29-.413.089.423-.157.31.289.521.002.129-.355.191.54.552.109.279-2.986-.945-.118.238-.298-.088-.211.021-.03-.186-.486.113-.062-.17-.41.186-.095.103-.184.47-.511.258-.61.165-.29.196-.205.222.023.201-.178.377-.3.268-.054.501-.514.717-.275.181.021.377.597.273-.175.305.306-.041.399-.155 1.007-.331.546-.397.573-.191.233-.335.405-.124.433.165.106.119.507-.088.508-.263.638-.408.32-.351.188-.294.512.098.41-.212.202.155.184-.289.135-.062.176.274.221.02.102.387-.1.377-.24.408.096.144.333.16.126-.041.14.232.422-.113.32.495.114-.067.25.098.024.315-.23.052.258.464-.108.041.176.424-.002.283-.203.16.553.573.099.181.093.418-.296.346.05.702-.119.17 1.898.119.659.057.042-.527.065-.155.092-.562-.039-.14.234-.093.075-.175.084-.563.067-.18-.005-.382.236-.021.06.119.356.341-.024.087.53.635.719.48.087-.01.082.547.543.165.672.583.173.186.869.713.21.433.108.888.235.418-.205.062.023.526.06.155.4.165.664.408.239.48.3.175.03.31Z" clip-rule="evenodd"/><path id="Мукачівський" fill="#C8C6C6" fill-rule="evenodd" stroke="#000" stroke-linecap="round" stroke-linejoin="round" stroke-width=".2" d="m42.918 98.262-.365.181-.08.18-.284.248v.181l-.243.062.08.423.244.248.202.547-.445.243-.203.062-.08.18h-.163l-.202.485-.324.124-.122-.124-.567.305-.04-.243-.284.062-.283-.062-.163-.18.487-.547.485-.305.041-.186-.243-.18-.446.423-.648-.547-.404-.057.364-.61-.608.243-.243-.061-.162.061-.162-.123-.08-.486-.203-.123h-.527l-.162-.362-.162.057-.526 1.037-1.62.61.242.304.284.181.324.062.122.118.81-.304.364-.243.77.733-.284.119v.124l-.567.18v.186l.081.423-.324.305.04.181-.283.247-.607.305-.284.118-.567.124-.364.181-.122-.243-.486.305-.324.062-.202-.186-.122.305-.203-.119-.243.057-.526-.181-.162.062-.162-.062-.08-.243-.203.124-.365-.186-.04-.366.08-.181-.242-.304.77-.728 1.376-1.399.77-.732-.405-.367-.446.062-.162-.062 1.62-1.946-.284-.242-.445-.305-.122-.062-.04-.547v-.366l-.405-.062-.284-.243-.283-.124-.121-.242-.203-.18-.445-.249-.284-.423-.729-.062-.446.062v-.124l.284-.851-.081-.485-.243.056-.162-.304.04-.305.81-1.95-.607-.243-.162.124-.608-.243-.324-.062-.202-.124-.405.062-.284-.304-.162-.124-.284.062-.283-.18-.04-.305.323-.248v-.423l-.12-.248-.325.062-.121-.305h-.203l-.203-.485-.202-.186v-.118l-.365-.305-.161-.062-.567.243-.648.062-.163-.429.082-.18.364-.124.243-.18v-.124l-.203-.305-.486.062-.161-.186-.203.062-.284-.124v-.118l-.243-.248-.202-.057-.364-.248-.649-.366.082-.305h-.365l-.243-.118-.405-.429-.122-.242-.04-.248-.365-.18-.04-.243-.527-.248-.284-.305-.283-.061-.08-.181-.325-.186-.162-.305h-.283l-.243-.118.202-.367.162-.062.243-.304.324.119.162-.305h.284l.08.186.244-.248.08-.366.244.124h.324l.931-.243.122-.428h.445l.446.428 1.458.428.364.12.122.185.04.485.77.062.122-.124h.243l.202-.242.446-.12.121-.123.243.124.162-.062.162.119.527-.057.324-.248.04-.18.243-.062.203-.124-.122-.367.405-.304.081-.18.284-.063.04-.124.365.062.283-.124.162.124.203-.124.121.124.284-.242.364-.124.122.304.121.186.972.243.122-.124.526.062.324.304.527.062.445-.062.082.553.81.304v-1.161h-.081l.08-.429h.203l.284-.18.445-.062.203-.367.324-.062.202.062.082-.186.364.124.04-1.527-.486.062-.04-.61-.243-.123-.203-.305.04-.186-.161-.118v-.186l-.365-.119-.243-.248-.122-.18-.283-.062-.121-.305-.162-.185.202-.124-.08-.367-.122-.547-.081-.614.08-.243-.08-.242.08-.428-.242-.553-.243-.49.283-.18.162.123v.428l.324.057.122.186.202-.186.122-.242.567-.61.243-.123.324-.186.283-.062.041-.366.162-.057.527.119.324-.367.648-.428.243-.124.526.062.364-.062.284-.18.203-.243h.202l.202.18.082-.124.202.124.405-.794-.243-.124.324-.61.243.063v-.248l.122-.367.243-.062.121-.18.203-.062.486-.367-.04-.123.323-.124.04-.181-.08-.49-.081-.186.202-.61v-.247l.122-.242-.203-.186.162-.367.365-.062.202-.304.284-.552.121-.124.203-.547-.122-.367.365-.248.08-.366-.12-.614.283-.552.162-.12h.324l.486.12.405.185h.283l.203.124.446.18h.485l.041.553.081.248.243.057.283.247.527.124.284-.062.04.305.122.304.324.062.324-.118.526.056h.608l.688-.056.405-.372.486-.243.73.124h.242l.163.119.648.186.324.186.121.428.689.795.364.124v.304l.405-.062.284.243-.122.31.203.304.08.062.284.062.689.062.445-.186.244-.124.404-.062.324-.056.324.056.365-.242.162-.367.243-.248.162-.18.04-.367-.202-.123v-.429l.08-.366-.12-.367-.284-.062-.203-.247-.243-.124.324-.976-.08-.186.243-.366-.082-.248v-.242l-.04-.367-.162-.248.324-.242.162-.49.04-.248-.324-.367-.04-.304-.121-.124.243-.49-.122-.186v-.305l-.243-.123.04-.305.243-.31.122-.609.081-.49.243-.31.121-.49.406-.428.08-.243.04-.371.163-.615-.202-.118-.081-.434-.243-.057v-.614l.08-.552.244-.428.243-.248.283-.553.162-.247-.121-.367-.122-.304v-.49l.122-.186.161-.062.446.186.284-.124.607-.614.284-.186.202-.243-.04-.248.121-.49-.283-.428-.162-.372-.203-.242v-.553l-.365-.433-.161-.367-.04-.247-.163-.181-.04-.372.283-.18h.162l.243-.248-.121-.552-.284-.248-.162-.428.162-.124v-.305l-.324-.248-.081-.185-.04-.367-.243-.552-.082-.062.041-.248.243-.428.324-.49.162-.062-.081-.372-.446-.552-.161-.552v-.248l-.284-.243-.08-.31-.123-.185-.324-.305-.283-.123-.203-.248-.08-.367-.203-.062-.122-.495-.567-.795-.04-.433-.284-.31-.324.062-.608-.062v-.243l.122-.552-.08-.31.04-.247.324-.305.283-.186.243-.062.487-.371-.082-.305-.04-.247.283-.186.324-.305-.04-.124.446-.371-.243-.552.243-.31.202-.124.081-.49-.162-.31-.203-.614.972-.31.486-.124.568-.18.04-.186.203-.124.121.248.203.862.08.552.325.557.283.243.04.186.406.371.405.18.607.558.324.124.284.305.445.247.122.31.85.49.203-.123.486.247.04.186.203.18.446.31.648.124.445.243.203.186-.122.371.122.305-.041.862.162.31-.04.675.08.248-.04.243.162.49.04.248.244.186.283.428.203.124.243.371h.283l.243.181.284.248.364.248.324-.434h.203l.364-.304.04-.31.122-.305.405-.557.324-.305.324.181h.324l.932-.49.445-.124.568.124.324.371.202.062.446-.62.243-.242.324-.185.567.247.202-.185h.527l.08-.429v-.186l.284-.247.648-.186.284.062.324.495.486.119h.365l.243.31.324.062.283.428.324-.062.202-.18.163.123.08.367.244.428-.122.248-.243.371-.04.18.161.553v.186l1.013.062.324.186.203.062.121.124.122.242.364.372.324.552.162.366.284.248.121.248.04.614.203.243.446.31v.242l.121.433-.04.243.04.738.405.738.405.49.122.372.202.428v.429l.243.614.284.49v.31l.162.243.162.061.73-.123.445.062.728-.305.527.305.77.31.405-.187h.242l.284-.304.203-.062.486.243.729-.124.405-.553h.364l.203-.118.121-.986.122-.119h.324l.365.243.526.8.445.242.325.372.202.18h.202l.203.186.324.429.04.371-.121.367-.04.552.121.186-.081.428-.324.305-.04.185.161.857.041.434-.243.366-.162.367-.203.062h-.243l-.607.062-.243.304-.243.124-.04.31.202.428-.162.305v.428l-.162.371.202.367.122.614.04.305-.242.31.04.366-.446.552-.202.18-.527.063-.283.185-.284.305-.324.124-.243.304-.08.248-1.337 1.347v.367l.121.98-.202.124-.163-.124-.364.124-.04.18-.243.063-.568.185-.08.795-.122.124-.729-.304-.243.118.04.367h-.364l-.08.31-.163.061-.365-.185-.121.061-.081-.247-.324-.057-.243-.248h-.162l-.446-.242-.121.428.324.366-.04.367h-.325l-.324.124-.283-.062-.081-.243-.243-.062-.648.119-.243.31-.04.49.364-.124.121.062.608.18-.04.248-.163.12-.04.247-.162.186-.527.428.162.366-.283.243-.203-.062-.203-.18-.364-.124.081-.49-.405-.063.04-.18-.607-.062-.243-.124-.122-.243h-.202l.324.49-.162.305h-.283l-.081.18.93-.242.406.186.203.428.404.243.284.305.446.062.162-.181.404-.31.122-.18.405-.429.486-.124.203-.124.445.186.203.305v.248l.203.732-.203.671-.081.857.121.062-.08.49.08.367-.162.242v.372l-.162.18-.283.248-.365.181-.162.428-.324.367-.243.062-.445.185-.284.181-.324.124-.04.062.08.243-.405.732-.324.429-.12.304.04.615-.162.123v.12l.242.365h.163l-.243.49v.243l-.162.124.04.186.405.18-.203.305.082.49.08.062.041.548-.162.185.081.124v.305l.202.428-.04.423-.121.367-.122.552.081.243-.364.247.08.367.568.485.445.248.243.18-.324.305-.08.186v.428l.161.243-.243.18.122.429.486.428-.284.49-.121.485-.243.062-.365.243v.428l-.162.124-.689.852-.202.186-.202.304.08.243-.202.304.04.305-.242-.119-.081-.367-.446-.552-.243-.062h-.648l-.73-.056-.323-.124-.284.062-.729-.062-.445-.124h-.284l-.324-.305-.526-.851-.527-.49-.729-.548-.202-.186h-.163l-.445-.304-.527-.366-.81-.181-.85-.062-.527.124-.324-.186-.162.062-.566-.243-.122-.247-.284-.305-.405.062-.405-.366-.162-.305-.324-.248-.162-.304-.567-.062-.162.186-.689.304-.283.243-.445.186-.324.428-.324.243-.163.304.082.248-.122.547v.18l-.203.367-.445.31-.324.609-.284.118-.77.553-.242.242v.186l-.243.305-.324.242.364.428.041.367h-.162l-.122.18-.04.305-.284.49.04.61v.608l-.201.124-.203-.062-.121.12-.041.49-.324-.181h-.365l-.202-.062-.446.062-.202-.248-.243-.062-.081-.119-.446-.366-.121-.243.364-.185v-.12l-.243-.123-.202-.18.04-.491.243.062.365-.366.162.062.04-.305.284-.186-.243-.062-.243.248-.243-.124v-.366l-.244.062-.243.851-.648-.057-.202.12.567.061.081.243-.04.366-.122.186-.243.057-.121-.12.08-.185-.283-.18-.162.061-.162-.247-.324-.057-.162-.428-.81.67-.04.062.121.424h.243l.04.428.324-.062.082.367.08.061.284-.123.445.061.122.186-.162.243.121.304-.162.305v.124l.73.062.162.18-.122.486.122.552.283.18.284.124.688.18.243-.304.324.186.243.057.203-.119.162.062.202-.062.203.18-.04.187.202.304.202.119.243.248.122.609.162.242.364.547.284.61-.162.061-.243-.242h-.203l-.283.118-.284.305.324.248.081.609h.446l.162-.062.122.18.202-.061.04.247.406.057-.122.248.202.18-.121.733.08.424.446.061.082.429-.122.18.243.124v.243l-.365.062.081.304-.648.057-.08.062-.487.124-.567.547.081.609-.283.728-.243.304h-.486l-.324.491h-.122l-.526-.305-.081.119-.284-.119-.04.423.08.491.973-.429-.527.485-.283.186v.243h-.324l-.162.485.405.186.283 1.213-.689.49h-.121l.324.79-.121.118.202.491.04.304.244.423-.284.062h-.526l.08-.186-.323-.118-.851-.429-.203-.056-.121-.186.04-.423.203-.124.08-.971h-.12l-.81-.304-.081-.186-.365.062-.365-.119.203-.49-.081-.423.04-.124.04-.361-.202-.491v-.242l-.202-.547 2.066-.062-.04-.243-.244-.428.446-.362-.203-.794-.324-.181-.162.062v-.305l-.283-.428-.041-.423-.243-.49h-.364l-.243.242-.082.367.122.366.081.062-.081.609.203.728-1.66-.181.12-.243.284-.304-.324-.243-.243-.124-.203-.242-.202.18-.284-.061-.243.428.04.366.365.181.486.305-.283.547-.122-.062-.688.247-.081.181v.305l-.283.123-.446.728-.081.609-.405.119-.365-.057-.202.057-.081.304-.203.124-.284-.124-.445.186-.04.119-.243 1.099.202.057.162.305.081.485-.08.304-.163-.118h-.324l-1.701-.305-.85.728-.162.124-.324-.062-.041-.119-2.106-.248-1.54-.242-2.268-1.275h-.04l-1.013-.547-.08-.124-1.62-2.86-.608-1.094Z" clip-rule="evenodd"/><path id="Тячівський" fill="#C8C6C6" fill-rule="evenodd" d="m152.033 126.102-.122.181.04.18-.121.305v.124l-.243.242-.203.3-.202.185.04.238.486.547-.121.124.162.299.081.485-.04.305.648.485.121.119-.162.366.041.243-.163.118.163.181.567.366-.122.119-.121.367-.122.541-.122.243.163.181-.041.485.122.366-.041.057.081.547.203.299-.365.305-.122.361h-.688l-.364-.237-.446-.062h-.324l-.405-.124-.162.243h-.608l-.324.304-.324.181.122.604h.202l.446.366.162.485.526.119.081.243.041.603.162.181.081.304.122.181.121.485.203.057.08.124.324.181.081.18-.081.305.162.485-.081.237.446.547v.243l.121.423v.723l.163.366.566-.423.406.181.161-.181.324.057.324.18h.284l.365-.18.283.485-.041.423-.121.243.121.062-.04.361-.202.485-.406.181-.04.18-.405.3.567.124-.243.242-.324.119-.203.119-.08.242v.485l-.244.666-.364.423-.364.119-.487-.181-.364.181-.243.181-.527.062-.405-.243-.891.181-.972.423h-.243l-.324-.181-.486.3-.121.242-.649.785-.324.185-.485-.123-.365-.362-.243-.361-.324-.124-.324-.361-.405-.965-.202-.181-.122-.242v-.181l-.162-.062-.162-.243-.041-.665.163-.604-.284-.181-.162-.243-.729-.423-.162-.18-.041-.181.324-.243-.041-.299-.121-.181h-.486l-.283-.123-.81-.243-.243-.057-.487.057-.324-.181-.161-.18-.487-.424-.405-.361-.526-.18-.648.299-.365.124-.162-.062-.04-.243-.243-.242-.365.18-.445-.056-.324.18-.446.057h-.243l-.202.124-.284-.124-.324.062-.121.181-.122.366-.202.119h-.122l-.202-.604-.203-.124-.769.304-.284.181-.365.062-.324.243-.161.118-1.094.062-.324.3h-.365l-.607-.424-.365-.18-.526-.119-.325-.304-.121-.542-.121-.243-.284-.304-.526-.362h-.284l-.445.124-.243-.124-.365-.604h-.486l-.445.243-.406.062-.607-.243-.405.181-.162.299-.202.062-.527-.18-.243.062-.527.242h-.243l-.324-.186-.648-.423-.405-.181-.365.062-.485-.118-.446-.909-.243-.242-.283-.181-.041-.423-.486-.243-.527-.062-.08-.242-.487-.243-.526-.057-.162-.366-.405-.119h-.567l-.446-.062-.566-.242h-.365l-.406-.243-.364-.423-.243-.181h-.486l-.202-.361-.203-.124-.324-.299-.041-.124-.364-.485-.202-.423-.041-.243.122-.119.161-.124-.161-.603-.243-.486 1.012-1.207.162-.305.243-.18.203-.367.445-.485.041-.666-.041-.604.284-.851.04-.48.324-.485.203-.062.364-.424h.446l.202-.061.122.061.486.057.243-.542.202-.242.568.18.526.486.891-.124.405.242h.365l.04-.242-.04-.243.202-.181.122-.18.161-.062.649-.057.162-.124.283-.423-.04-.243.04-.423.365-.485.081-.186-.325-.242-.121-.243-.364.062-.648-.243-.324-.061h-.406v-.542l.082-.305-.082-.243-.324-.547-.161-.062-.244.124-.202-.062.081-.304-.283-.299.283-.367.041-.728-.689-.485.162-.366.364-.423.243-.486-.04-.423.121-.304.284-.423.081-.186-.041-.485.163-.728.08-.243h.203l1.417.243.082-.367.324-.056.121-.186v-.243l-.121-.118v-.243l.405-.428-.041-.362v-.242l.648-.062.365.062.121-.062.486.18.041-.18-.203-.367.243-.242.041-.362.364-.304.041-.366.364-.305-.081-.485.122-.423-.041-.429.162-.304.041-.3.405-.123h.162l.405.123.081-.123.405-.61.364-.18.406-.728.202-.186.081-.361-.122-.243.163-.123.364-.367.324-.242v-.305l.081-.242-.041-.548.122-.304.202-.97.041-.367.365-.304.242-.062.891-.485.527-.367.162-.366.648-.057.851.243.364.061.486-.671.041-.061-.365-.728-.202-.186-.081-.361-.284-.124-.162-.18v-.43l-.364-.304-.122-.18.122-.367.202-.062h.486l.405-.062.365-.304.688-.361.203-.248.081-.547-.121-.243v-.428l.242-.485.041-.305.162-.18v-.248l.203-.243.08-.423.203-.186.365-.062.445.062.283.124.122.18.486-.118h.243l.162.243-.04.18.081.305v.242h.202l.162-.242-.04-.424.081-.247-.041-.119.284-.186.283.124.365-.062-.041-.118.243-.124.122.124.162-.248-.041-.305.081-.118-.122-.548.406-.49h.162l.769.428.405-.49.162.124.486-.547.405-.61.405-.185.243-.243.163-.428.202-.366-.162-.18.081-.181.324-.31.04-.18.163-.243.364-.186.04-.485.244-.429.202-.18-.122-.186.689-.547.122-.124-.689-.79.121-.67.244-.249-.244-.18-.161.062-.284-.186.162-.243.04-.49.203-.67.284-.181.567-.61.283-.185.081-.61.405-1.708.324-.304.324-.248.081-.366-.121-1.038.04-.733h.162l.081-.18 1.094-1.223.04-.305.284-.428v-.49l-.243-.424-.041-.371.649-.486.161-.614-.243-.18.122-.186-.324-.367.04-.856.162-.12.324-.061.162-.186.203-.057.648.243.324.18.445-.18.284.062.284-.124.283-.305.527-.304.324-.367.04.181.284.305.202.49.324.124.77.118.243.124-.162.671-.405.248-.243.243-.122.552v.304l-.202.181-.081.367.445.371-.162.305.324.547-.162.247.081.305.284.304.04.49-.526.367-.163.485.163.186-.081.61.081.49.081.242-.527.61.162.185-.527.242-.04.553.122.423.04.248.162.366.324.367.324.18.203.243.283.186.567.123.486.12.203.123.405-.062.486.367.445.123h.163l.405.12.243-.063.526-.423.446-.186.283-.304-.04-.429-.324-.304-.203-.429-.04-.242.121-.18.486-.249.121-.18.081-.367.487-.733.121-.304v-.428l.283-.367.082-.428.405-.305.202-.186h.162l.284.31h.121l.648-.186h.648l.041.186.445.305.203.062.283-.124.162-.243.203-.062.04-.248.203-.423.202-.124.163-.242h.161l.324-.124.203-.124.203.062.405-.18.08-.186.365-.124.365.185.445.429.081-.062.122-.428.526-.243.243-.186.04-.913.284.062.446.242.405-.124.121-.242.243-.186.04-.243.284-.366.365-.124.162.124.648-.062.364.428.284.124v.305l.081.428-.486 1.1-.324.304-.081.733-.082.18-.202.186v.367l-.324.242v.305l.202.31.244.18.445.186.243.423.608.49.364.49-.162.305-.202.18-.446.615-.081.243-.202.062-.122.304.081.795-.04.18.243.181-.122.248.203.18-.284.367.324.305.122.49-.203.118.081.186v.243l.122.304.243.305h.283l.243.062.405.242v.248l-.081.367-.081.485.081.185-.081.362.162.31-.202.18-.162 1.038v.118l.567.49.365.429.04.18-.243.486-.041.248.122.242.081.428.405.424.202.124.284.061.243.12.283.67v.18l.243.125.284.062.608.062-.163.79-.121.242-.527.913-.364.429-.162.366.202.485v.367l-.161.366v.243l-.163.304-.364.119-.284.242.162.429.162.18-.283.124-.284.429-.769.851-.041.305v.666l.608.185.283.057.122.124.202.062.203-.062.243.124v.361l.121.243-.485.304.04.124-.243.367-.041.18-.162.181-.04.243.081.185-.122.728-.283.733-.284.666-.283.242-.446.186-.283.243-.324-.062-.081.124h-.243l-.203-.062-.041.423-.161.366.121.423-.162.124-.283-.304.202-.124-.081-.299-.324-.062-.243.062v.361l.081.304-.202.124.04.485-.324.181-.405-.242-.04-.119-.365-.248v-.119l.243-.366-.202-.305-.324.243v.186l-.243.062-.041-.248.162-.423-.121-.243.081-.18-.041-.186-.486-.181-.405.243-.243-.124-.162-.181-.162.305.121.124-.162.242.162.423-.081.181.081.186-.526.242.284.666-.122.062-.284-.304-.081.062-.161.547-.082.18-.324-.485.162-.181-.283-.366.121-.243-.202-.366-.365.248-.202-.062-.122-.186-.364-.361-.041.304-.243.057-.041.428-.324-.124-.242-.056-.243-.124v.242l-.203.367.122.119-.081.304.081.428.242.243.082.181-.162.547.121.423.041.671-.324.304-.243.119-.082.243-.283.485-.041.248-.364.361v.485l-.162.367.122.18.121.671-.041.181-.324.18-.08.124-.041.362-.405.428-.243.119-.122-.062-.688.485-.405.124-.284-.243-.243.119-.364-.243-.162-.361-.324-.124-.081-.181.081-.18-.162-.367-.122.181-.324.062v-.243l-.243-.062-.081.243-.202.305.121.185.284.057.283.062.324.243.365.485.405.242.405.124.284.243.121.485-.324.604-.243.124-.122.18-.486.181-.121.186-.081.485-.243.423-.122.181h-.486l-.243.124-.324.361-.081.671-.203.361v.243l-.242.485-.446.366-.405.485-.243.362-.364.18-.122.186-.202.423-.203.181-.04.547-.163.485-.121.181" clip-rule="evenodd"/><path stroke="#000" stroke-linecap="round" stroke-linejoin="round" stroke-width=".2" d="m152.033 126.102-.122.181.04.18-.121.305v.124l-.243.242-.203.3-.202.185.04.238.486.547-.121.124.162.299.081.485-.04.305.648.485.121.119-.162.366.041.243-.163.118.163.181.567.366-.122.119-.121.367-.122.541-.122.243.163.181-.041.485.122.366-.041.057.081.547.203.299-.365.305-.122.361h-.688l-.364-.237-.446-.062h-.324l-.405-.124-.162.243h-.608l-.324.304-.324.181.122.604h.202l.446.366.162.485.526.119.081.243.041.603.162.181.081.304.122.181.121.485.203.057.08.124.324.181.081.18-.081.305.162.485-.081.237.446.547v.243l.121.423v.723l.163.366.566-.423.406.181.161-.181.324.057.324.18h.284l.365-.18.283.485-.041.423-.121.243.121.062-.04.361-.202.485-.406.181-.04.18-.405.3.567.124-.243.242-.324.119-.203.119-.08.242v.485l-.244.666-.364.423-.364.119-.487-.181-.364.181-.243.181-.527.062-.405-.243-.891.181-.972.423h-.243l-.324-.181-.486.3-.121.242-.649.785-.324.185-.485-.123-.365-.362-.243-.361-.324-.124-.324-.361-.405-.965-.202-.181-.122-.242v-.181l-.162-.062-.162-.243-.041-.665.163-.604-.284-.181-.162-.243-.729-.423-.162-.18-.041-.181.324-.243-.041-.299-.121-.181h-.486l-.283-.123-.81-.243-.243-.057-.487.057-.324-.181-.161-.18-.487-.424-.405-.361-.526-.18-.648.299-.365.124-.162-.062-.04-.243-.243-.242-.365.18-.445-.056-.324.18-.446.057h-.243l-.202.124-.284-.124-.324.062-.121.181-.122.366-.202.119h-.122l-.202-.604-.203-.124-.769.304-.284.181-.365.062-.324.243-.161.118-1.094.062-.324.3h-.365l-.607-.424-.365-.18-.526-.119-.325-.304-.121-.542-.121-.243-.284-.304-.526-.362h-.284l-.445.124-.243-.124-.365-.604h-.486l-.445.243-.406.062-.607-.243-.405.181-.162.299-.202.062-.527-.18-.243.062-.527.242h-.243l-.324-.186-.648-.423-.405-.181-.365.062-.485-.118-.446-.909-.243-.242-.283-.181-.041-.423-.486-.243-.527-.062-.08-.242-.487-.243-.526-.057-.162-.366-.405-.119h-.567l-.446-.062-.566-.242h-.365l-.406-.243-.364-.423-.243-.181h-.486l-.202-.361-.203-.124-.324-.299-.041-.124-.364-.485-.202-.423-.041-.243.122-.119.161-.124-.161-.603-.243-.486 1.012-1.207.162-.305.243-.18.203-.367.445-.485.041-.666-.041-.604.284-.851.04-.48.324-.485.203-.062.364-.424h.446l.202-.061.122.061.486.057.243-.542.202-.242.568.18.526.486.891-.124.405.242h.365l.04-.242-.04-.243.202-.181.122-.18.161-.062.649-.057.162-.124.283-.423-.04-.243.04-.423.365-.485.081-.186-.325-.242-.121-.243-.364.062-.648-.243-.324-.061h-.406v-.542l.082-.305-.082-.243-.324-.547-.161-.062-.244.124-.202-.062.081-.304-.283-.299.283-.367.041-.728-.689-.485.162-.366.364-.423.243-.486-.04-.423.121-.304.284-.423.081-.186-.041-.485.163-.728.08-.243h.203l1.417.243.082-.367.324-.056.121-.186v-.243l-.121-.118v-.243l.405-.428-.041-.362v-.242l.648-.062.365.062.121-.062.486.18.041-.18-.203-.367.243-.242.041-.362.364-.304.041-.366.364-.305-.081-.485.122-.423-.041-.429.162-.304.041-.3.405-.123h.162l.405.123.081-.123.405-.61.364-.18.406-.728.202-.186.081-.361-.122-.243.163-.123.364-.367.324-.242v-.305l.081-.242-.041-.548.122-.304.202-.97.041-.367.365-.304.242-.062.891-.485.527-.367.162-.366.648-.057.851.243.364.061.486-.671.041-.061-.365-.728-.202-.186-.081-.361-.284-.124-.162-.18v-.43l-.364-.304-.122-.18.122-.367.202-.062h.486l.405-.062.365-.304.688-.361.203-.248.081-.547-.121-.243v-.428l.242-.485.041-.305.162-.18v-.248l.203-.243.08-.423.203-.186.365-.062.445.062.283.124.122.18.486-.118h.243l.162.243-.04.18.081.305v.242h.202l.162-.242-.04-.424.081-.247-.041-.119.284-.186.283.124.365-.062-.041-.118.243-.124.122.124.162-.248-.041-.305.081-.118-.122-.548.406-.49h.162l.769.428.405-.49.162.124.486-.547.405-.61.405-.185.243-.243.163-.428.202-.366-.162-.18.081-.181.324-.31.04-.18.163-.243.364-.186.04-.485.244-.429.202-.18-.122-.186.689-.547.122-.124-.689-.79.121-.67.244-.249-.244-.18-.161.062-.284-.186.162-.243.04-.49.203-.67.284-.181.567-.61.283-.185.081-.61.405-1.708.324-.304.324-.248.081-.366-.121-1.038.04-.733h.162l.081-.18 1.094-1.223.04-.305.284-.428v-.49l-.243-.424-.041-.371.649-.486.161-.614-.243-.18.122-.186-.324-.367.04-.856.162-.12.324-.061.162-.186.203-.057.648.243.324.18.445-.18.284.062.284-.124.283-.305.527-.304.324-.367.04.181.284.305.202.49.324.124.77.118.243.124-.162.671-.405.248-.243.243-.122.552v.304l-.202.181-.081.367.445.371-.162.305.324.547-.162.247.081.305.284.304.04.49-.526.367-.163.485.163.186-.081.61.081.49.081.242-.527.61.162.185-.527.242-.04.553.122.423.04.248.162.366.324.367.324.18.203.243.283.186.567.123.486.12.203.123.405-.062.486.367.445.123h.163l.405.12.243-.063.526-.423.446-.186.283-.304-.04-.429-.324-.304-.203-.429-.04-.242.121-.18.486-.249.121-.18.081-.367.487-.733.121-.304v-.428l.283-.367.082-.428.405-.305.202-.186h.162l.284.31h.121l.648-.186h.648l.041.186.445.305.203.062.283-.124.162-.243.203-.062.04-.248.203-.423.202-.124.163-.242h.161l.324-.124.203-.124.203.062.405-.18.08-.186.365-.124.365.185.445.429.081-.062.122-.428.526-.243.243-.186.04-.913.284.062.446.242.405-.124.121-.242.243-.186.04-.243.284-.366.365-.124.162.124.648-.062.364.428.284.124v.305l.081.428-.486 1.1-.324.304-.081.733-.082.18-.202.186v.367l-.324.242v.305l.202.31.244.18.445.186.243.423.608.49.364.49-.162.305-.202.18-.446.615-.081.243-.202.062-.122.304.081.795-.04.18.243.181-.122.248.203.18-.284.367.324.305.122.49-.203.118.081.186v.243l.122.304.243.305h.283l.243.062.405.242v.248l-.081.367-.081.485.081.185-.081.362.162.31-.202.18-.162 1.038v.118l.567.49.365.429.04.18-.243.486-.041.248.122.242.081.428.405.424.202.124.284.061.243.12.283.67v.18l.243.125.284.062.608.062-.163.79-.121.242-.527.913-.364.429-.162.366.202.485v.367l-.161.366v.243l-.163.304-.364.119-.284.242.162.429.162.18-.283.124-.284.429-.769.851-.041.305v.666l.608.185.283.057.122.124.202.062.203-.062.243.124v.361l.121.243-.485.304.04.124-.243.367-.041.18-.162.181-.04.243.081.185-.122.728-.283.733-.284.666-.283.242-.446.186-.283.243-.324-.062-.081.124h-.243l-.203-.062-.041.423-.161.366.121.423-.162.124-.283-.304.202-.124-.081-.299-.324-.062-.243.062v.361l.081.304-.202.124.04.485-.324.181-.405-.242-.04-.119-.365-.248v-.119l.243-.366-.202-.305-.324.243v.186l-.243.062-.041-.248.162-.423-.121-.243.081-.18-.041-.186-.486-.181-.405.243-.243-.124-.162-.181-.162.305.121.124-.162.242.162.423-.081.181.081.186-.526.242.284.666-.122.062-.284-.304-.081.062-.161.547-.082.18-.324-.485.162-.181-.283-.366.121-.243-.202-.366-.365.248-.202-.062-.122-.186-.364-.361-.041.304-.243.057-.041.428-.324-.124-.242-.056-.243-.124v.242l-.203.367.122.119-.081.304.081.428.242.243.082.181-.162.547.121.423.041.671-.324.304-.243.119-.082.243-.283.485-.041.248-.364.361v.485l-.162.367.122.18.121.671-.041.181-.324.18-.08.124-.041.362-.405.428-.243.119-.122-.062-.688.485-.405.124-.284-.243-.243.119-.364-.243-.162-.361-.324-.124-.081-.181.081-.18-.162-.367-.122.181-.324.062v-.243l-.243-.062-.081.243-.202.305.121.185.284.057.283.062.324.243.365.485.405.242.405.124.284.243.121.485-.324.604-.243.124-.122.18-.486.181-.121.186-.081.485-.243.423-.122.181h-.486l-.243.124-.324.361-.081.671-.203.361v.243l-.242.485-.446.366-.405.485-.243.362-.364.18-.122.186-.202.423-.203.181-.04.547-.163.485-.121.181"/><path id="Рахівський" fill="#C8C6C6" fill-rule="evenodd" d="m180.644 153.078-.157-.052-.842.093-.324.263-.458.3-.096.108-.211-.02-.19.268-.753.145-.271.216-.235-.005-.171-.139-.191.088-.227-.083-.019-.444-.075-.206-.335-.449-.135-.042-.259-.294-.622-.294-.093-.284-.347-.335-.281-.021-.161.113-.828.067-.284-.237-.682-.17-.391-.289-.052.263-.197.361-.126.093-.422-.284-.451.016-.244.16-.177.304-.369.17-.314-.092-.415-.331-.178-.088-.172.073-.481-.042-.689.135-.371-.145-.288-.552-.175-.408-.352-.521-.165-.46.022-.201-.037-.459-.333-.083-.838-.676-.656-.382-.388-.15-.282-.216-.382-.552-.208-.083-.353-.015-.181.093-.479-.057-.623.155-.623.33-.262.026-.145-.16-.146-.423-.395-.568-.715-.697-.545-.454-.232-.067-.249.144-.323.429-.277.191-.573.056-.167.114-.475.15-.26-.14.11-.335-.037-.269-.239-.289-.23-.056-.39.253-.248.381-.255.068-.267-.14-.164-.222-.264.062.242-.237-.579-.124.406-.289.053-.145.39-.237.224-.444.046-.377-.153-.067.154-.253.019-.397-.261-.516-.383.191-.281-.01-.308-.135-.358-.077-.125.186-.407-.196-.57.433-.181-.366.014-.702-.125-.46-.021-.258-.426-.5.06-.233-.157-.536.077-.248-.067-.212-.318-.175-.098-.134-.208-.062-.121-.47-.101-.165-.063-.32-.179-.17-.025-.62-.081-.216-.533-.166-.162-.459-.438-.335-.236-.042-.1-.573.333-.175.305-.346.62-.01.144-.217.404.129.323-.005.46.072.353.207.396.041.306-.026.13-.372.35-.314-.205-.264-.087-.526.041-.119-.129-.32.044-.516-.144-.175.126-.212.102-.552.139-.346.123-.124-.571-.371-.179-.181.158-.139-.041-.243.162-.341-.087-.149-.673-.491.036-.304-.078-.475-.162-.33.113-.073-.473-.572-.044-.222.226-.207.171-.273.255-.238-.011-.149.137-.31-.062-.191.129-.165.129-.202.16-.428.032-.578.216-.155.19-.428.151-.181.351-.196.243-.403.419-.449.435-.361.219-.501.011-.242.227-.367.053-.655.317-.341.256-.144.488-.026.133-.134.219-.48.082-.423.119-.238.521-.155.115-.185.212-.124.357-.578-.134-.486-.298-.268-.408-.108-.382-.243-.355-.511-.322-.232-.282-.083-.293-.01-.128-.237.204-.248.066-.253.235.046.02.222.311-.046.151-.155.149.325-.09.171.085.185.336.166.141.33.386.237.248-.077.281.227.373-.15.698-.485.147.052.229-.098.384-.393.059-.387.095-.129.3-.175.049-.181-.131-.671-.111-.175.149-.367.026-.505.341-.367.038-.258.309-.439.064-.284.244-.108.308-.299-.012-.635-.122-.434.138-.573-.079-.19-.212-.233-.116-.402.082-.331-.101-.139.199-.32.014-.284.218.16.264.026.298.129.064-.392.222-.078.036-.335.393.377.12.211.199.016.346-.222.199.361-.092.227.268.367-.153.232.298.439.092-.14.152-.542.094-.082.268.309.154-.072-.277-.686.505-.217-.081-.17.089-.212-.17-.444.168-.222-.125-.108.161-.31.151.191.248.114.402-.264.506.217.042.16-.097.191.113.232-.136.413.022.253.239-.041.028-.207.311-.196.216.279-.254.361.007.093.332.279.038.144.437.186.3-.165-.038-.454.197-.114-.055-.345.007-.351.217-.078.32.047.104.32-.207.144.277.294.157-.093-.13-.438.189-.372.036-.428.199.077.221-.026.091-.144.347.072.255-.258.466-.16.277-.253.262-.635.292-.748.14-.712-.096-.176.049-.294.169-.155.014-.206.259-.341-.025-.15.457-.294-.121-.248.033-.371-.264-.119-.184.088-.214-.052-.123-.16-.289-.046-.586-.181-.009-.666.045-.309.773-.852.253-.408.307-.123-.178-.212-.161-.382.287-.284.383-.077.138-.346-.011-.207.163-.366.01-.382-.211-.47.197-.371.356-.45.501-.902.151.294.374.046.392-.284.289-.02.559.34.415.026.442-.2.708.706.385.284.306.16.761-.201.214-.13.287.016.51.191.029.212.495.444.124.211.285.078.244-.186.708-.34-.156-.243.112-.346-.108-.238.173-.315.381-.299.08-.155-.143-.227.15-.449.484-.232.142-.15-.005-.299.111-.201.338-.114.13-.155-.238-.542-.323-.474-.103-.393.311-.505.359-.341.46.062.269-.016.501.14.74.433.339.088.265.428.376.088.545-.062.289.16.125.212.378.057.347.273.076.305.388-.036.425.418.226.34.114.305-.37.392-.024.191-.177.449.069.17-.111.284.013.32.271.382.061.335.203.238.207.062.22.212h.478l.319-.068.702.61.334-.047.137.428.325.052.064.242.121.088.029.439.099.134.398.15.246-.207h.181l.123.264.217.103.395.093.146-.093.28.03.105.145-.205.387.038.233.303.299.311.108.038.186.185.222.177.098.047.501.261.248.601-.248.169.088.018.252-.133.46.032.206.156.036.293.408.005.093.511.444.483.108.222.129.059.284-.113.248.065.103.36.098.135.16.227-.005.04.196.185.289.324.212.083.263.289.005.227-.113.37.423.174.072.061.459.091.145.032.341-.279.304.074.31.061.666-.186.665.116.093-.065.454-.169.13-.128.567.019.232.118.284.495.016.288.093.348.036.467.191.193.129.437.118.718.248.527.408.358.377.126.196.377.258.132.129.333.697.315.562-.151.124-.42.16-.302.021-.315.124-.232.278-.326.986-.347.248.396.64-.21.196-.153.289-.373.449-.564.238-.032.294.089.129-.063.304.079.176.435.217.067.252.141.14-.096.227-.451.077-.361.336-.184.242-.156.444-.181.201-.154.295.129.258.177.691.827.429.577.521.282.119-.019.175.153.48.133.217.409.263.031.532.117.356-.259.511.031.103.468.114.302.191.392.154.46.042.225.201.175-.005.351.655.025.248-.142.31.159.397.853.119.629.309.062.238.327.325.369.547.237.186.435.119.191-.006.212.259-.018.258.234.201.032.294.269.258.017.475.16.175.279.124.082.485.265.217.149.3.329.237.182.408-.023.304.379.785.001.211.137.486-.367.216-.127.176-.516.392-.234.506-.23.134-.347-.093h-.445l-.425.336-.218.304-.089.299-.284.573-.342.212-.391.361-.127.279-.362.557-.081.295.042.242-.269.702.065.32.187.315-.477.279.062.185-.133.279.061.16-.138.454-.02.46.045.407-.18.527.028.738-.146.361-.505.527-.069.407-.321.331-.183-.006-.051-.165-1.073-.247-.496.165-.339-.119-.764.64-.389.356-.107.232-.854-.046-.247-.201-.402-.212-.598-.062-.143-.175-.401-.3-.472-.196-.298-.227-.606.16-.849-.155-.32.016-.296-.129-.922-.79-.356.124-.286.191-.326.335-.79.671-.514-.046-.516.325-.203.211-.303-.02-.311.211-.145.191-.005.553-.112.242-.235.264-.193.438-.228.129-.041.263-.192.506.108.795-.009.129-.784.32-.313.088-.64.454-.355.15-.281.237-.284.145-.466.103-.507-.454-.33.056-.587-.629-.246-.408-.403.33-.356.037-.373.33-.195.279-.463.154-.159.326-.345.407-.307.01-.578.207-.455.268-.201.202-.4-.073-.467.011-.18-.078" clip-rule="evenodd"/><path stroke="#000" stroke-linecap="round" stroke-linejoin="round" stroke-width=".2" d="m180.644 153.078-.157-.052-.842.093-.324.263-.458.3-.096.108-.211-.02-.19.268-.753.145-.271.216-.235-.005-.171-.139-.191.088-.227-.083-.019-.444-.075-.206-.335-.449-.135-.042-.259-.294-.622-.294-.093-.284-.347-.335-.281-.021-.161.113-.828.067-.284-.237-.682-.17-.391-.289-.052.263-.197.361-.126.093-.422-.284-.451.016-.244.16-.177.304-.369.17-.314-.092-.415-.331-.178-.088-.172.073-.481-.042-.689.135-.371-.145-.288-.552-.175-.408-.352-.521-.165-.46.022-.201-.037-.459-.333-.083-.838-.676-.656-.382-.388-.15-.282-.216-.382-.552-.208-.083-.353-.015-.181.093-.479-.057-.623.155-.623.33-.262.026-.145-.16-.146-.423-.395-.568-.715-.697-.545-.454-.232-.067-.249.144-.323.429-.277.191-.573.056-.167.114-.475.15-.26-.14.11-.335-.037-.269-.239-.289-.23-.056-.39.253-.248.381-.255.068-.267-.14-.164-.222-.264.062.242-.237-.579-.124.406-.289.053-.145.39-.237.224-.444.046-.377-.153-.067.154-.253.019-.397-.261-.516-.383.191-.281-.01-.308-.135-.358-.077-.125.186-.407-.196-.57.433-.181-.366.014-.702-.125-.46-.021-.258-.426-.5.06-.233-.157-.536.077-.248-.067-.212-.318-.175-.098-.134-.208-.062-.121-.47-.101-.165-.063-.32-.179-.17-.025-.62-.081-.216-.533-.166-.162-.459-.438-.335-.236-.042-.1-.573.333-.175.305-.346.62-.01.144-.217.404.129.323-.005.46.072.353.207.396.041.306-.026.13-.372.35-.314-.205-.264-.087-.526.041-.119-.129-.32.044-.516-.144-.175.126-.212.102-.552.139-.346.123-.124-.571-.371-.179-.181.158-.139-.041-.243.162-.341-.087-.149-.673-.491.036-.304-.078-.475-.162-.33.113-.073-.473-.572-.044-.222.226-.207.171-.273.255-.238-.011-.149.137-.31-.062-.191.129-.165.129-.202.16-.428.032-.578.216-.155.19-.428.151-.181.351-.196.243-.403.419-.449.435-.361.219-.501.011-.242.227-.367.053-.655.317-.341.256-.144.488-.026.133-.134.219-.48.082-.423.119-.238.521-.155.115-.185.212-.124.357-.578-.134-.486-.298-.268-.408-.108-.382-.243-.355-.511-.322-.232-.282-.083-.293-.01-.128-.237.204-.248.066-.253.235.046.02.222.311-.046.151-.155.149.325-.09.171.085.185.336.166.141.33.386.237.248-.077.281.227.373-.15.698-.485.147.052.229-.098.384-.393.059-.387.095-.129.3-.175.049-.181-.131-.671-.111-.175.149-.367.026-.505.341-.367.038-.258.309-.439.064-.284.244-.108.308-.299-.012-.635-.122-.434.138-.573-.079-.19-.212-.233-.116-.402.082-.331-.101-.139.199-.32.014-.284.218.16.264.026.298.129.064-.392.222-.078.036-.335.393.377.12.211.199.016.346-.222.199.361-.092.227.268.367-.153.232.298.439.092-.14.152-.542.094-.082.268.309.154-.072-.277-.686.505-.217-.081-.17.089-.212-.17-.444.168-.222-.125-.108.161-.31.151.191.248.114.402-.264.506.217.042.16-.097.191.113.232-.136.413.022.253.239-.041.028-.207.311-.196.216.279-.254.361.007.093.332.279.038.144.437.186.3-.165-.038-.454.197-.114-.055-.345.007-.351.217-.078.32.047.104.32-.207.144.277.294.157-.093-.13-.438.189-.372.036-.428.199.077.221-.026.091-.144.347.072.255-.258.466-.16.277-.253.262-.635.292-.748.14-.712-.096-.176.049-.294.169-.155.014-.206.259-.341-.025-.15.457-.294-.121-.248.033-.371-.264-.119-.184.088-.214-.052-.123-.16-.289-.046-.586-.181-.009-.666.045-.309.773-.852.253-.408.307-.123-.178-.212-.161-.382.287-.284.383-.077.138-.346-.011-.207.163-.366.01-.382-.211-.47.197-.371.356-.45.501-.902.151.294.374.046.392-.284.289-.02.559.34.415.026.442-.2.708.706.385.284.306.16.761-.201.214-.13.287.016.51.191.029.212.495.444.124.211.285.078.244-.186.708-.34-.156-.243.112-.346-.108-.238.173-.315.381-.299.08-.155-.143-.227.15-.449.484-.232.142-.15-.005-.299.111-.201.338-.114.13-.155-.238-.542-.323-.474-.103-.393.311-.505.359-.341.46.062.269-.016.501.14.74.433.339.088.265.428.376.088.545-.062.289.16.125.212.378.057.347.273.076.305.388-.036.425.418.226.34.114.305-.37.392-.024.191-.177.449.069.17-.111.284.013.32.271.382.061.335.203.238.207.062.22.212h.478l.319-.068.702.61.334-.047.137.428.325.052.064.242.121.088.029.439.099.134.398.15.246-.207h.181l.123.264.217.103.395.093.146-.093.28.03.105.145-.205.387.038.233.303.299.311.108.038.186.185.222.177.098.047.501.261.248.601-.248.169.088.018.252-.133.46.032.206.156.036.293.408.005.093.511.444.483.108.222.129.059.284-.113.248.065.103.36.098.135.16.227-.005.04.196.185.289.324.212.083.263.289.005.227-.113.37.423.174.072.061.459.091.145.032.341-.279.304.074.31.061.666-.186.665.116.093-.065.454-.169.13-.128.567.019.232.118.284.495.016.288.093.348.036.467.191.193.129.437.118.718.248.527.408.358.377.126.196.377.258.132.129.333.697.315.562-.151.124-.42.16-.302.021-.315.124-.232.278-.326.986-.347.248.396.64-.21.196-.153.289-.373.449-.564.238-.032.294.089.129-.063.304.079.176.435.217.067.252.141.14-.096.227-.451.077-.361.336-.184.242-.156.444-.181.201-.154.295.129.258.177.691.827.429.577.521.282.119-.019.175.153.48.133.217.409.263.031.532.117.356-.259.511.031.103.468.114.302.191.392.154.46.042.225.201.175-.005.351.655.025.248-.142.31.159.397.853.119.629.309.062.238.327.325.369.547.237.186.435.119.191-.006.212.259-.018.258.234.201.032.294.269.258.017.475.16.175.279.124.082.485.265.217.149.3.329.237.182.408-.023.304.379.785.001.211.137.486-.367.216-.127.176-.516.392-.234.506-.23.134-.347-.093h-.445l-.425.336-.218.304-.089.299-.284.573-.342.212-.391.361-.127.279-.362.557-.081.295.042.242-.269.702.065.32.187.315-.477.279.062.185-.133.279.061.16-.138.454-.02.46.045.407-.18.527.028.738-.146.361-.505.527-.069.407-.321.331-.183-.006-.051-.165-1.073-.247-.496.165-.339-.119-.764.64-.389.356-.107.232-.854-.046-.247-.201-.402-.212-.598-.062-.143-.175-.401-.3-.472-.196-.298-.227-.606.16-.849-.155-.32.016-.296-.129-.922-.79-.356.124-.286.191-.326.335-.79.671-.514-.046-.516.325-.203.211-.303-.02-.311.211-.145.191-.005.553-.112.242-.235.264-.193.438-.228.129-.041.263-.192.506.108.795-.009.129-.784.32-.313.088-.64.454-.355.15-.281.237-.284.145-.466.103-.507-.454-.33.056-.587-.629-.246-.408-.403.33-.356.037-.373.33-.195.279-.463.154-.159.326-.345.407-.307.01-.578.207-.455.268-.201.202-.4-.073-.467.011-.18-.078"/><path id="Ужгородський" fill="#C8C6C6" fill-rule="evenodd" stroke="#000" stroke-linecap="round" stroke-linejoin="round" stroke-width=".2" d="m17.625 89.782.107.661.172 1.445.22.645-.355.196-.001.212.306.175-.163.336-.292.305-.294.087-.636.047-.35.294-.005.201-.37.041-.308.124-.137.496.233.407-.02.264-.149.17-.023.521-1.526.072-.452-.34-2.284-.604-.456-.707-.318-.568-.385-.934-.292-.371-.312-.253-.328-.17-.279-.347.183-.221.838-.233.262-.144.263-.367.358-.691.31-.97-.042-.274-.469-.145-.949.078-.487.113-.22-.005-.538-.165-.49-.31-.145-.154-.54-.713-.339-.542-.32-.144-.424.005-.502.232-.596.429-.45.464-.486.284-.487.114-.46.01-.708.16-.499.273-.172.222-.016.64-.24-.077-.665.051-.237-.273.078-.712-.129-.062-.245-.362-.092-.5.049-.284.013-.558.202-.433-.224-.537.325-2.544.16-1.032.97-6.204-.146-.439.205-.279.23-1.538.227-5.15.879-2.587.27-.485.78-1.403.245-.047.14-.237.056-.274-.062-.212.15-.196.395.109.309-.02.418-.259.443-.795.113-.092.496-.403 1.211.093.082-.217.81-.697.768-1.507.006-.738.054-.278.434-.12.837-.618-.024-.233.329.005 1.134-.846.593-.61-.017-.216.144-.17.415-.17.481-.326.095-.134.003-.273.385-.057.226-.258.562-.13.177-.221.57-.18.28.066.302-.03.31-.13.326-.02.516-1.884-.01-.934.688-1.533-.255-.32.531-.681.269-.068.141-.52-.027-.378-.085-.278-.003-.413.15-.191-.177-.232-.526-.176-.24-.475-.086-.294-.413-.026-.185-.227.086-.392.136-.372.05-.857-.044-.299.138-.186.251-.516.143-.093.36-.015.145-.072.369-.671.342-.29.596-.252.026-.109.079-.283.22-.377-.087-.227.161-.222.083-.346.151-.237.523-.315-.017-.32-.16-.785.065-.423-.169-1.76-.167-.155-.491-1.068.02-.31.32-.31-.066-.289.087-.552.157-1.357-.072-.196.007-.33.133-.264.058-.377.27-.593.353-.15.299-.32.02-.485 2.09-.826.153-.14.037-.66.085-1.517-.156-.253.227-.14.017-.459.124-.2-.044-.259.12-.325.31-.361.16-.284-.03-.341-.414-.32-.086-.232-.03-.408.284-.304 3.213-5.316.28-.176.383-.108.132-.145.006-.402.146-.61-.009-.908.202-.217.58-.046.322-.114.225-.263.17-.289.465-.15.42-.051.712.428.589-.015.516-.547.356-.248.853-.284.298-.144.023-.243-.504-1.29-.088-.418.469-.207.353-.294.286-.64.015-3.34.036-1.578.132-1.446.133.031.66-.232.253-.34.01-.558.225-.119.073-.2.322-.181.383-.31.158-.243.26-.154.169.005.604.294.315.051.38.145.216.454.062.315.163.392.693.047.172.227.258.155.625.113.257.398.207.19.114.367-.068.129.192.403.003.247.12.078.22.624.144.222.385.227.145.026.096.377.35.377.028.144.263.13.441.35.258-.119.53.052.182.49-.007.13.294.196.441.113.02.134.268.067.269-.108.197-.31.472-.428.408-.552 1.303-.227.279-.166.539.197.271.387.668-.103.294.113.438.356.397.015.28.32.25-.02.434-.563.142-.619.316-.186.332.176.308.046.417.305.698.387.1.19.306.238.326.47.446.371.794.259.017.459.141.222.154.542.542.062.257.216.143.031.348-.283.45-.145.175.465.225.154.184.418.167.64.156.212.035.294-.068.119-.007.423.29.315.416-.088.622.145.349-.093.342-.01.145-.16.42.026.39-.14.312-.165.21.078.348-.099.425.258.31-.087.187.46.636.887.533.681.1.594.301.392-.08.361-.173.212.28.882-.276.398-.305.211-.567-.077-.279-.413-.17-.036-.188.14-.214.34-.202.14-.262.056-.249.15-.256.278-.312.078-.608.5-.06.269.117.335-.01.687-.123.144.074.568.261.428.04.367.1.315.492.686.21.17-.001.145-.187.082-.072.186-.558.186-.48.124-.949.325.172.588.168.315-.058.49-.207.14-.243.294.224.588-.442.341.044.13-.313.32-.285.16.01.283.1.31-.492.346-.255.062-.247.16-.34.356-.053.253.105.263-.12.598.005.197.583.103.337-.093.277.31.057.47.54.779.128.464.21.103.087.367.196.216.27.114.345.31.106.19.066.341.303.253-.001.238.156.552.432.557.097.361-.15.037-.335.474-.243.444-.057.248.114.088.24.521.027.408.091.16.31.222.022.315-.167.165.146.407.277.264.13.521-.248.268h-.162l-.273.16.026.393.166.196.031.227.16.361.365.413.006.588.229.238.143.361.28.46-.122.48.048.206-.217.284-.258.18-.612.573-.285.124-.447-.165-.15.046-.15.207.013.495.13.279.097.408-.147.206-.285.594-.23.253-.247.377-.09.603-.009.578.26.062.066.418.225.145-.182.593-.027.403-.093.201-.393.48-.132.46-.228.34-.105.465-.092.62-.265.309-.03.289.24.113v.294l.128.233-.268.495.142.098.045.294.32.382-.028.238-.187.5-.323.248.162.227.055.377-.021.248.076.237-.236.372.075.196-.311.98.269.114.196.248.287.051.103.388-.076.335.008.47.18.118-.045.346-.134.201-.273.217-.15.392-.377.228-.287-.068-.343.099-.404.036-.238.134-.46.15-.686-.026-.271-.068-.104-.061-.195-.336.12-.289-.273-.253-.398.057-.027-.279-.331-.165-.687-.743-.153-.475-.295-.17-.666-.18-.165-.12-.226.01-.745-.113-.49.222-.379.382-.717.057-.61.01-.527-.067-.309.108-.338-.046-.12-.31-.044-.294-.276.026-.512-.13-.27-.221-.249-.067-.073-.238-.04-.526-.487-.052-.46-.144-.2-.119-.284.005-.397-.18-.506-.12-.328-.004-.143.087-.276.558.1.64-.067.315-.374.263.126.361-.209.563-.129.129-.27.578-.214.253-.372.077-.135.361.195.207-.14.248.008.263-.186.593.081.181.064.46-.043.18-.296.134.022.134-.476.367-.194.036-.142.191-.248.057-.107.371-.01.284-.259-.057-.295.573.22.145-.383.774-.203-.129-.076.14-.212-.156-.228-.04-.195.252-.282.212-.334.041-.532-.046-.268.082-.626.46-.341.376-.508-.144-.17.082-.05.326-.288.067-.297.222-.261.098-.566.619-.103.227-.23.175-.125-.154-.331-.088-.002-.398-.135-.123-.302.16.258.49.226.557-.073.424.084.242-.092.284.08.594.15.541.055.367-.192.108.171.17.132.352.283.056.105.186.256.227.365.145.002.155.158.154-.06.13.195.325.277.16.012.567.482-.067-.011 1.543-.396-.129-.063.202-.196-.078-.333.104-.201.345-.44.047-.297.16-.205.015-.08.45.108.004-.034 1.136-.798-.284-.075-.583-.436.108-.52-.093-.35-.289-.526-.083-.11.114-.984-.227-.127-.165-.116-.33-.34.118-.3.248-.126-.124-.216.114-.163-.124-.267.118-.351-.067-.042.15-.29.062-.082.165-.394.315.103.35-.209.171-.22.067-.054.17-.309.233-.547.046-.156-.134-.145.067-.245-.088-.143.124-.444.114-.178.263-.28-.01-.098.088-.756-.016-.069-.542-.107-.185-.362-.104-1.467-.407-.44-.444-.45-.02-.11.459-.948.216-.33.037-.218-.14-.094.392-.24.233-.096-.222-.281.02-.15.29-.322-.094-.24.284-.167.098-.213.362.267.118.263.016.184.252.313.212.072.16.27.093.278.294.55.248.03.237.378.176.035.258.128.232.392.428.261.104.367.02-.108.294.654.377.38.258.183.026.246.258.014.114.285.124.179-.016.184.155.468-.041.199.263.007.165-.224.191-.37.067-.1.212.176.397.66-.046.566-.243.142.047.37.35-.01.125.201.165.209.495h.22l.12.305.322-.062.1.237.008.413-.304.227.02.33.288.166.291-.052.16.098.262.335.425-.077.184.119.357.082.585.233.153-.124.626.258-.812 1.961-.057.29-.448.02-.878-.052-.103.077-.156.563.014.186.145.289.438.165.096.093.01.258-.613-.13-1.244.027-.704-.444-.245.279-.154-.073-2.453-1.8-1.113 1.3-.644-1.032-.284-.496-.843.604.075.273-.293.728.02.093-1.203-.093-.19.124-.144-.201-.336-.191.202-.836-.498-.031.432-1.77-1.608-.44Z" clip-rule="evenodd"/><path id="Хустський" fill="#C8C6C6" fill-rule="evenodd" d="m110.717 133.718-.105.134.03.212.2.459.352.449.07.16.3.294.211.093.215.346.462.01.25.191.376.439.376.248.385.005.548.237.457.047.554.005.41.119.18.356.508.082.482.212.116.279.51.01.47.299.057.418-.088.418-.189.496.06.113-.066.336-.015.562-.202.166-.13.35-.042.677-.129.206-.212.119-.292.547-.116.341-.325.402-.27.227-.124.392-.084.486.172.211-.334.413-.399.031-.211.088-.393-.176-.076-.191-.647-.325h-.291l-.188-.103-.247.052-.326-.068-.549.052-.345-.196-.663-.108-.296-.64-.386-.067-.432-.155.062-.165-.305-.78-.242.176-.268.051-.39-.031-.092.145-.395.139-.481-.392-.157.01-.24-.222-.164-.046-.281-.403.155-.495-.35-.279-.382.062-.545-.444-.339-.01-.498.149-.225-.056.077-.423-.29-.377-.366-.124h-.227l-.259-.227-.074-.207h-.426l-.32-.397-.059-.222-.351-.196-.475.289-.39.041-.368-.418-.194.119-.285-.712.146-.135-.051-.154.108-.248-.007-.284.126-.108.547-.248-.411-.336-.179-.031-.447.326-.18-.124-.175-.455-.244-.165-.262-.294-.31-.134-.225.181-.46.077-.159.114-.203-.259-.546-.041-.544-.366.018-.336-.305-.062-.075-.191-.31-.449-.03-.149-.206-.124v-.341l.427-.284.099-.155-.013-.299.251-.557h.321l.21-.222-.064-.243-.344-.155-.174-.304-.416-.547-.768-.258-.144-.119-.065-.237.03-.47-.079-.619-.025-.578-.072-.021.046-.088-.182-.289-.237-.573-.121-.108.145-.387.164-.145.57-1.099-.085-.46.073-.464-.028-.387-.119-.356-.201-.346.01-.325-.311-.914.102-.32-.097-.33-.412-.227-.517.175-.303-.149-.079.087-.384.021-.139-.325-.135-.015-.093-.222-.25.562-.436.098-.277-.124-.023-.201-.123-.242-.207-.14-.205.181-.376-.32-.101-1.192-.827-.501-.249.046-.542-.454-.3-.16-.684-.247-.276-.238-.553-.01-.031-.31-.3-.175-.239-.48-.664-.408-.4-.165-.06-.155-.023-.526.205-.062-.235-.418-.109-.888-.209-.434-.87-.712-.172-.186-.672-.583-.543-.165-.082-.547-.087.01-.718-.48-.531-.635.024-.087-.357-.341-.058-.119-.237.021.005.382-.067.18-.084.563-.075.175-.234.093.04.14-.093.562-.065.155-.043.526-.658-.056-1.898-.119.12-.17-.05-.702.295-.346-.093-.418-.1-.181-.551-.573.203-.16.001-.284-.176-.423.108-.041-.257-.465.23-.051-.025-.315-.25-.098-.114.067-.32-.496-.422.114-.14-.232-.126.041-.333-.16-.095-.144.239-.408.1-.377-.102-.387-.22-.021-.177-.273-.135.062-.184.289-.201-.155-.41.211-.513-.098-.187.294-.32.351-.639.408-.508.263-.507.088-.106-.119-.433-.165-.405.124-.233.336-.573.191-.546.397-1.007.33-.399.155-.306.041.175-.304-.597-.274-.02-.376.274-.181.514-.717.055-.501.3-.268.177-.377-.023-.202.206-.221.29-.197.609-.165.51-.258.186-.47.095-.103.409-.185.062.17.487-.114.029.186.21-.02.3.087.117-.237 2.986.944-.11-.278-.539-.553.355-.19-.002-.13-.289-.521.157-.31-.088-.423-.291.413-.62-.666-.266-.211-.248-.067-.235-.408-.623-.516-.043-.361-.66-.578.078-.166-.114-.144-.046-.31-.21-.16-.085-.196.27-.175.056-.14-.133-.253.285-.516-.25.067-.843.119-.155.052-.198.232-.302-.387-.035-.547.021-.439-1.42-.279-.1-.206-.232-.026-.175-.145-.15-.294-.1-.428-.003-.274-.226-.103.14-.206-.106-.429-.442-.036-.068-.454.125-.707-.226-.222.113-.207-.388-.067-.025-.247-.217.03-.103-.17-.19.067-.445-.015-.088-.563-.305-.278.286-.294.26-.13.22.021.26.238.157-.062-.276-.64-.395-.49-.167-.28-.112-.588-.254-.268-.184-.088-.216-.361.057-.124-.21-.206-.18.067-.192-.067-.184.139-.258-.057-.305-.18-.274.294-.673-.222-.264-.103-.293-.202-.108-.516.092-.5-.162-.181-.71-.041-.023-.16.18-.32-.117-.284.138-.238-.125-.16-.407-.098-.301.15-.092-.062-.076-.403-.322.062-.043-.407-.231-.016-.111-.382.019-.108.813-.66.17.438.322.052.167.227.165-.01.26.16-.054.2.125.12.233-.063.096-.196.04-.356-.048-.258-.568-.057.18-.123.663.04.243-.84.23-.057.003.366.257.15.235-.279.24.057-.269.201-.038.315-.192-.052-.358.326-.233-.062-.048.516.207.165.258.103-.033.134-.368.176.146.242.448.377.055.124.269.062.186.227.445-.031.197.088.375-.01.31.185.054-.495.124-.114.205.042.223-.13-.003-.609-.041-.634.279-.429.01-.33.154-.212h.13l-.016-.345-.387-.408.356-.258.223-.29-.005-.18.264-.279.773-.51.259-.13.323-.65.438-.263.222-.361.005-.217.125-.552-.108-.222.167-.3.328-.268.33-.444.467-.17.269-.248.67-.289.184-.165.547.041.163.294.353.28.134.267.417.357.391-.031.313.325.09.242.575.212.177-.047.316.15.54-.082.83.03.805.228.539.33.431.335h.184l.184.191.725.496.554.526.508.816.334.34.287-.02.42.118.73.078.315-.088.297.134.756.093.643-.036.234.088.441.557.102.336.217.113-.016-.289.176-.289-.092-.258.233-.31.196-.17.681-.841.15-.13.017-.433.356-.242.237-.078.154-.485.267-.48-.474-.444-.155-.428.245-.18-.153-.238-.002-.429.103-.17.31-.284-.25-.237-.426-.217-.578-.485-.091-.387.38-.253-.067-.217.094-.542.13-.356.022-.449-.184-.418.01-.304-.098-.099.16-.211-.051-.547-.07-.052-.073-.5.197-.295-.382-.19-.056-.186.143-.135.004-.222.26-.485-.147-.03-.265-.341-.014-.13.196-.139-.068-.573.147-.36.293-.43.404-.69-.068-.285.054-.046.334-.093.264-.202.436-.211.25-.047.315-.366.168-.413.388-.16.28-.258.14-.217.019-.35.142-.27-.088-.35.08-.47-.115-.082.088-.867.198-.64-.201-.77.015-.252-.224-.3-.434-.16-.213.109-.485.108-.413.47-.097.165-.414.3-.152.17-.463-.057-.276-.274-.417-.268-.197-.392-.414-.233-.903.248.08-.18.29-.01.145-.248-.334-.496.21-.02.14.252.247.119.603.072-.04.186.403.067-.103.454.36.134.215.207.21.015.258-.196-.161-.418.542-.423.17-.191.046-.248.171-.093.038-.273-.64-.15-.11-.082-.357.118.04-.464.256-.315.614-.114.275.083.086.248.279.061.326-.134.3.01.064-.392-.323-.402.117-.408.44.274.17-.026.227.227.333.062.067.253.14-.026.35.134.171-.031.083-.32.35.005-.054-.346.25-.108.723.278.13-.118.094-.81.546-.197.277-.02.011-.207.359-.129.186.13.208-.099-.133-1.012.002-.382 1.346-1.331.072-.217.233-.32.316-.155.294-.278.297-.181.533-.072.207-.16.41-.589-.027-.366.238-.263-.02-.326-.15-.645-.177-.366.134-.315.026-.454.137-.305-.2-.464.061-.29.233-.138.26-.284.59-.062.233.015.235-.088.142-.325.248-.392-.05-.408-.161-.851.06-.191.317-.351.071-.398-.121-.175.055-.553.126-.36.714.01.635-.197.591-.227.201-.315.466-.304.466-.248.162-.444.298-.382.25-.098.613.656.197.449.23.377.148.96-.041.314.077.418.135.28.245.231h.363l.526.325.312.728.147.109h.276l.351-.093.468-.274.499.444.245.088.273.201.138.015.181.037.425.423.38.077.695.016.463-.042.333.062.151-.056.346.2.697.063.115.175.028.325.291.207.214-.227.413-.186.357.02.531-.133.206.04.034-.185.327-.387.251-.093.292-.408.474-.387.279-.165.285.145.095.232.245.211.26.093.22.248.694.258.33.077.31.186.55-.253.441.176.595-.145.553.104.311-.057.54.211.812.62.277-.047.308.119.094.155.027.588.247.284-.024.408.176.175.244.016.463-.124.308.217.265.067.351-.341.252.113.443-.118.353.273.373.382.306.429-.202.51.298.367.022.279-.197.593.321.18.221.063.134.237.495.238.271.279.23.381.354.109.089.201.098.46.267.175.248-.093.178.072.294.263.103.501.36.403.14.252.043.305.123.351.367.465.526.278.297.114.593.588.254.114.159-.057.46.108.32-.113.427.041.101.114.28-.109.324.026.207-.134.148-.253.377-.34.067-.295.336-.077.119.087.332.026.346.233.874-.248.237.273.064.202.241.15.514-.326.114.016.269.253.454.072.45.49.157.382.181.175-.006.222-.268.202.134.438-.084.176.017.273.127.243-.202.191-.039.521-.305.067-.189.124-.124.362.079.366-.064.222.252.243.073.227.514.216-.046.243-.378.475-.02.248.108.227.372.449.195.03.268.28.124.381.018.233.362-.057.432.222.291.258.24-.016.344-.273.417.268.373.18.172.44-.235.634.291.238.356.19.521.651.323.145.244.18.792.33-.172.135-.033.815.309.382-.119.176.238.165-.178.614-.645.521.037.351.261.429-.01.459-.272.449-.058.33-1.078 1.229-.091.18-.153.01-.032.708.116 1.022-.075.36-.347.264-.327.33-.369 1.662-.118.64-.282.196-.541.589-.301.196-.18.66-.048.465-.178.253.281.186.157-.042.263.181-.253.248-.104.64.665.841-.103.114-.698.505.107.197-.171.17-.248.449-.047.464-.361.191-.169.258-.018.176-.325.3-.106.195.179.176-.204.382-.164.418-.244.222-.402.232-.401.604-.509.531-.155-.098-.4.475-.79-.423-.143-.005-.422.46.126.577-.084.124.04.294-.141.258-.115-.15-.252.114.052.14-.38.072-.274-.124-.293.16.05.124-.084.268.041.413-.165.253-.197.005-.004-.248-.105-.289.06-.2-.182-.254-.215-.015-.476.16-.124-.186-.286-.114-.45-.098-.359.078-.212.196-.106.413-.176.248v.237l-.176.15-.016.356-.263.449.02.423.102.268-.072.537-.22.248-.665.366-.385.284-.391.088-.482.01-.195.041-.123.367.101.18.35.305.034.428.139.176.274.108.096.413.212.129.356.749-.033.087-.508.62-.341-.026-.865-.232-.638.025-.184.382-.493.356-.888.481-.253.067-.354.294-.059.377-.217.996-.12.299.048.521-.084.233-.007.33-.32.242-.348.377-.149.083.091.299-.068.356-.189.191-.433.712-.356.155-.404.609-.06.15-.412-.134-.18.02-.401.129-.054.258-.16.32.048.398-.13.433.09.522-.373.278-.03.356-.352.31-.033.356-.247.284.182.351-.02.176-.48-.155-.154.036-.362-.083-.627.052-.022.258.073.397-.438.377-.002.279.139.124.012.263-.12.181-.327.031-.105.392-1.413-.248-.187-.015-.103.268-.13.681.009.485-.069.186-.298.429-.09.304.011.449-.243.475-.347.408-.164.366.691.47-.062.759-.285.361.3.31-.09.299.219.072.226-.119.179.068.302.5.107.274-.07.284-.035.562.419-.036.34.088.614.227.374-.041.148.242.313.243-.077.175-.389.465-.041.454.048.242-.277.398-.177.144-.616.067-.195.073-.106.186-.208.154.052.248-.054.217-.352.031-.418-.253-.877.119-.53-.511-.566-.176-.221.253-.223.547-.472-.062-.118-.072-.208.093-.464.015-.378.387-.178.047-.323.521-.051.475-.269.857.011.624-.027.625-.458.495-.193.351-.241.227-.162.263-.999 1.198.22.485.165.63-.153.124" clip-rule="evenodd"/><path stroke="#000" stroke-linecap="round" stroke-linejoin="round" stroke-width=".2" d="m110.717 133.718-.105.134.03.212.2.459.352.449.07.16.3.294.211.093.215.346.462.01.25.191.376.439.376.248.385.005.548.237.457.047.554.005.41.119.18.356.508.082.482.212.116.279.51.01.47.299.057.418-.088.418-.189.496.06.113-.066.336-.015.562-.202.166-.13.35-.042.677-.129.206-.212.119-.292.547-.116.341-.325.402-.27.227-.124.392-.084.486.172.211-.334.413-.399.031-.211.088-.393-.176-.076-.191-.647-.325h-.291l-.188-.103-.247.052-.326-.068-.549.052-.345-.196-.663-.108-.296-.64-.386-.067-.432-.155.062-.165-.305-.78-.242.176-.268.051-.39-.031-.092.145-.395.139-.481-.392-.157.01-.24-.222-.164-.046-.281-.403.155-.495-.35-.279-.382.062-.545-.444-.339-.01-.498.149-.225-.056.077-.423-.29-.377-.366-.124h-.227l-.259-.227-.074-.207h-.426l-.32-.397-.059-.222-.351-.196-.475.289-.39.041-.368-.418-.194.119-.285-.712.146-.135-.051-.154.108-.248-.007-.284.126-.108.547-.248-.411-.336-.179-.031-.447.326-.18-.124-.175-.455-.244-.165-.262-.294-.31-.134-.225.181-.46.077-.159.114-.203-.259-.546-.041-.544-.366.018-.336-.305-.062-.075-.191-.31-.449-.03-.149-.206-.124v-.341l.427-.284.099-.155-.013-.299.251-.557h.321l.21-.222-.064-.243-.344-.155-.174-.304-.416-.547-.768-.258-.144-.119-.065-.237.03-.47-.079-.619-.025-.578-.072-.021.046-.088-.182-.289-.237-.573-.121-.108.145-.387.164-.145.57-1.099-.085-.46.073-.464-.028-.387-.119-.356-.201-.346.01-.325-.311-.914.102-.32-.097-.33-.412-.227-.517.175-.303-.149-.079.087-.384.021-.139-.325-.135-.015-.093-.222-.25.562-.436.098-.277-.124-.023-.201-.123-.242-.207-.14-.205.181-.376-.32-.101-1.192-.827-.501-.249.046-.542-.454-.3-.16-.684-.247-.276-.238-.553-.01-.031-.31-.3-.175-.239-.48-.664-.408-.4-.165-.06-.155-.023-.526.205-.062-.235-.418-.109-.888-.209-.434-.87-.712-.172-.186-.672-.583-.543-.165-.082-.547-.087.01-.718-.48-.531-.635.024-.087-.357-.341-.058-.119-.237.021.005.382-.067.18-.084.563-.075.175-.234.093.04.14-.093.562-.065.155-.043.526-.658-.056-1.898-.119.12-.17-.05-.702.295-.346-.093-.418-.1-.181-.551-.573.203-.16.001-.284-.176-.423.108-.041-.257-.465.23-.051-.025-.315-.25-.098-.114.067-.32-.496-.422.114-.14-.232-.126.041-.333-.16-.095-.144.239-.408.1-.377-.102-.387-.22-.021-.177-.273-.135.062-.184.289-.201-.155-.41.211-.513-.098-.187.294-.32.351-.639.408-.508.263-.507.088-.106-.119-.433-.165-.405.124-.233.336-.573.191-.546.397-1.007.33-.399.155-.306.041.175-.304-.597-.274-.02-.376.274-.181.514-.717.055-.501.3-.268.177-.377-.023-.202.206-.221.29-.197.609-.165.51-.258.186-.47.095-.103.409-.185.062.17.487-.114.029.186.21-.02.3.087.117-.237 2.986.944-.11-.278-.539-.553.355-.19-.002-.13-.289-.521.157-.31-.088-.423-.291.413-.62-.666-.266-.211-.248-.067-.235-.408-.623-.516-.043-.361-.66-.578.078-.166-.114-.144-.046-.31-.21-.16-.085-.196.27-.175.056-.14-.133-.253.285-.516-.25.067-.843.119-.155.052-.198.232-.302-.387-.035-.547.021-.439-1.42-.279-.1-.206-.232-.026-.175-.145-.15-.294-.1-.428-.003-.274-.226-.103.14-.206-.106-.429-.442-.036-.068-.454.125-.707-.226-.222.113-.207-.388-.067-.025-.247-.217.03-.103-.17-.19.067-.445-.015-.088-.563-.305-.278.286-.294.26-.13.22.021.26.238.157-.062-.276-.64-.395-.49-.167-.28-.112-.588-.254-.268-.184-.088-.216-.361.057-.124-.21-.206-.18.067-.192-.067-.184.139-.258-.057-.305-.18-.274.294-.673-.222-.264-.103-.293-.202-.108-.516.092-.5-.162-.181-.71-.041-.023-.16.18-.32-.117-.284.138-.238-.125-.16-.407-.098-.301.15-.092-.062-.076-.403-.322.062-.043-.407-.231-.016-.111-.382.019-.108.813-.66.17.438.322.052.167.227.165-.01.26.16-.054.2.125.12.233-.063.096-.196.04-.356-.048-.258-.568-.057.18-.123.663.04.243-.84.23-.057.003.366.257.15.235-.279.24.057-.269.201-.038.315-.192-.052-.358.326-.233-.062-.048.516.207.165.258.103-.033.134-.368.176.146.242.448.377.055.124.269.062.186.227.445-.031.197.088.375-.01.31.185.054-.495.124-.114.205.042.223-.13-.003-.609-.041-.634.279-.429.01-.33.154-.212h.13l-.016-.345-.387-.408.356-.258.223-.29-.005-.18.264-.279.773-.51.259-.13.323-.65.438-.263.222-.361.005-.217.125-.552-.108-.222.167-.3.328-.268.33-.444.467-.17.269-.248.67-.289.184-.165.547.041.163.294.353.28.134.267.417.357.391-.031.313.325.09.242.575.212.177-.047.316.15.54-.082.83.03.805.228.539.33.431.335h.184l.184.191.725.496.554.526.508.816.334.34.287-.02.42.118.73.078.315-.088.297.134.756.093.643-.036.234.088.441.557.102.336.217.113-.016-.289.176-.289-.092-.258.233-.31.196-.17.681-.841.15-.13.017-.433.356-.242.237-.078.154-.485.267-.48-.474-.444-.155-.428.245-.18-.153-.238-.002-.429.103-.17.31-.284-.25-.237-.426-.217-.578-.485-.091-.387.38-.253-.067-.217.094-.542.13-.356.022-.449-.184-.418.01-.304-.098-.099.16-.211-.051-.547-.07-.052-.073-.5.197-.295-.382-.19-.056-.186.143-.135.004-.222.26-.485-.147-.03-.265-.341-.014-.13.196-.139-.068-.573.147-.36.293-.43.404-.69-.068-.285.054-.046.334-.093.264-.202.436-.211.25-.047.315-.366.168-.413.388-.16.28-.258.14-.217.019-.35.142-.27-.088-.35.08-.47-.115-.082.088-.867.198-.64-.201-.77.015-.252-.224-.3-.434-.16-.213.109-.485.108-.413.47-.097.165-.414.3-.152.17-.463-.057-.276-.274-.417-.268-.197-.392-.414-.233-.903.248.08-.18.29-.01.145-.248-.334-.496.21-.02.14.252.247.119.603.072-.04.186.403.067-.103.454.36.134.215.207.21.015.258-.196-.161-.418.542-.423.17-.191.046-.248.171-.093.038-.273-.64-.15-.11-.082-.357.118.04-.464.256-.315.614-.114.275.083.086.248.279.061.326-.134.3.01.064-.392-.323-.402.117-.408.44.274.17-.026.227.227.333.062.067.253.14-.026.35.134.171-.031.083-.32.35.005-.054-.346.25-.108.723.278.13-.118.094-.81.546-.197.277-.02.011-.207.359-.129.186.13.208-.099-.133-1.012.002-.382 1.346-1.331.072-.217.233-.32.316-.155.294-.278.297-.181.533-.072.207-.16.41-.589-.027-.366.238-.263-.02-.326-.15-.645-.177-.366.134-.315.026-.454.137-.305-.2-.464.061-.29.233-.138.26-.284.59-.062.233.015.235-.088.142-.325.248-.392-.05-.408-.161-.851.06-.191.317-.351.071-.398-.121-.175.055-.553.126-.36.714.01.635-.197.591-.227.201-.315.466-.304.466-.248.162-.444.298-.382.25-.098.613.656.197.449.23.377.148.96-.041.314.077.418.135.28.245.231h.363l.526.325.312.728.147.109h.276l.351-.093.468-.274.499.444.245.088.273.201.138.015.181.037.425.423.38.077.695.016.463-.042.333.062.151-.056.346.2.697.063.115.175.028.325.291.207.214-.227.413-.186.357.02.531-.133.206.04.034-.185.327-.387.251-.093.292-.408.474-.387.279-.165.285.145.095.232.245.211.26.093.22.248.694.258.33.077.31.186.55-.253.441.176.595-.145.553.104.311-.057.54.211.812.62.277-.047.308.119.094.155.027.588.247.284-.024.408.176.175.244.016.463-.124.308.217.265.067.351-.341.252.113.443-.118.353.273.373.382.306.429-.202.51.298.367.022.279-.197.593.321.18.221.063.134.237.495.238.271.279.23.381.354.109.089.201.098.46.267.175.248-.093.178.072.294.263.103.501.36.403.14.252.043.305.123.351.367.465.526.278.297.114.593.588.254.114.159-.057.46.108.32-.113.427.041.101.114.28-.109.324.026.207-.134.148-.253.377-.34.067-.295.336-.077.119.087.332.026.346.233.874-.248.237.273.064.202.241.15.514-.326.114.016.269.253.454.072.45.49.157.382.181.175-.006.222-.268.202.134.438-.084.176.017.273.127.243-.202.191-.039.521-.305.067-.189.124-.124.362.079.366-.064.222.252.243.073.227.514.216-.046.243-.378.475-.02.248.108.227.372.449.195.03.268.28.124.381.018.233.362-.057.432.222.291.258.24-.016.344-.273.417.268.373.18.172.44-.235.634.291.238.356.19.521.651.323.145.244.18.792.33-.172.135-.033.815.309.382-.119.176.238.165-.178.614-.645.521.037.351.261.429-.01.459-.272.449-.058.33-1.078 1.229-.091.18-.153.01-.032.708.116 1.022-.075.36-.347.264-.327.33-.369 1.662-.118.64-.282.196-.541.589-.301.196-.18.66-.048.465-.178.253.281.186.157-.042.263.181-.253.248-.104.64.665.841-.103.114-.698.505.107.197-.171.17-.248.449-.047.464-.361.191-.169.258-.018.176-.325.3-.106.195.179.176-.204.382-.164.418-.244.222-.402.232-.401.604-.509.531-.155-.098-.4.475-.79-.423-.143-.005-.422.46.126.577-.084.124.04.294-.141.258-.115-.15-.252.114.052.14-.38.072-.274-.124-.293.16.05.124-.084.268.041.413-.165.253-.197.005-.004-.248-.105-.289.06-.2-.182-.254-.215-.015-.476.16-.124-.186-.286-.114-.45-.098-.359.078-.212.196-.106.413-.176.248v.237l-.176.15-.016.356-.263.449.02.423.102.268-.072.537-.22.248-.665.366-.385.284-.391.088-.482.01-.195.041-.123.367.101.18.35.305.034.428.139.176.274.108.096.413.212.129.356.749-.033.087-.508.62-.341-.026-.865-.232-.638.025-.184.382-.493.356-.888.481-.253.067-.354.294-.059.377-.217.996-.12.299.048.521-.084.233-.007.33-.32.242-.348.377-.149.083.091.299-.068.356-.189.191-.433.712-.356.155-.404.609-.06.15-.412-.134-.18.02-.401.129-.054.258-.16.32.048.398-.13.433.09.522-.373.278-.03.356-.352.31-.033.356-.247.284.182.351-.02.176-.48-.155-.154.036-.362-.083-.627.052-.022.258.073.397-.438.377-.002.279.139.124.012.263-.12.181-.327.031-.105.392-1.413-.248-.187-.015-.103.268-.13.681.009.485-.069.186-.298.429-.09.304.011.449-.243.475-.347.408-.164.366.691.47-.062.759-.285.361.3.31-.09.299.219.072.226-.119.179.068.302.5.107.274-.07.284-.035.562.419-.036.34.088.614.227.374-.041.148.242.313.243-.077.175-.389.465-.041.454.048.242-.277.398-.177.144-.616.067-.195.073-.106.186-.208.154.052.248-.054.217-.352.031-.418-.253-.877.119-.53-.511-.566-.176-.221.253-.223.547-.472-.062-.118-.072-.208.093-.464.015-.378.387-.178.047-.323.521-.051.475-.269.857.011.624-.027.625-.458.495-.193.351-.241.227-.162.263-.999 1.198.22.485.165.63-.153.124"/></svg>