<svg xmlns="http://www.w3.org/2000/svg" width="224" height="122" fill="none" viewBox="0 0 224 122"><path id="Дністровський" fill="#C8C6C6" fill-rule="evenodd" d="m137.729 59.198-.196-1.45-.134-.743-.17-1.09.041-.164-.201-.078.16-.206-.072-.186.046-.888-.18-.506-.463-.795-.892-1.45-1.148-1.93-.114-.77v-.293l.299.098.134.19.232.156.196.237.17-.098-.613-1.492-.443.088.103-.888-.144-.036-.263-.903-.376-1.135-.165-.568-.412-.955-.479-1.063-.999.33-1.494-.83-.592-.362-.819-.423-.042.206-.51.919-.216.119-.247.619-.34.62.294.304-.057.247-.206.32-.407.12-.149-.078-.387.026.005-.17-.401-.579.087-.82v-.594l-.082-.17.036-.284.36-.583.067-.883-.839.521-.026.088-.51-.082-.227.036-.376-.088-.365.212-.047.252-.51.739-.711-.419-.082.026-.603-.774-.046-.14-.288.264-.258-.304-.458-.274-.237-.248-.572-.211-.345.47-.258.2-.649.76-.484.53-.427-.67-1.242-.568-1.383-.66.017.299-.387.748-.671.759-.042.114-.417 1.775-.664-.093-.67-.046.067.242-.166.031-1.479-.005-.307-.924-.138-.547.387-.124 1.42-1.104-.181-.176-.37-.562-.613-.77-.418-.484.345-.429.642-.939.501-.304-.864-.966-.502-.66-.404-.45-.736-1.109-.253-.46-.575-.866-.296-.403-.071-.325-.262-.382-.906-1.001-.342-.542-.126-.104-.37.326-.166-.047-.112-.18-.341-.166-.34-.263-.441-.449-.514-.433-1.058-.986-1.566-1.425-.21.052-1.078.402-.858.284-.957-2.167-.248-.475-.785-1.755.524.176.207.16.175.381.146-.098-.082-.253.206-.288.658 1.527.628 1.538.848-.345.76-.362.881-.366-.374-.759-.017-.279-.258-.237-.269-.047-.191-.392-.09-.304.074-.408-.15-.274-.082-.598.222.041.427-.124.048-.16-.427-.206-.071-.13-.354-.35.114-.253-.239-.454.292-.145.484.01.243-.34.28-.13-.027-.299.107-.206.223-.155.091-.284.313-.377.196-.092.121-.32-.458-.594.514-.444.355-.815.044-.558-.096-.583-.271-.795-.139-.227-.733-.64-.271-.175-.308-.362-.15-.51.004-.568-.053-.362-.13-.237-.436-.454-.094-.305.04-.836.115-.588.212-.413.403-.444.418-.212.394-.118.307-.01.314.144.209.18.922 1.327.495.65.29.486.067.758-.104.893-.141 1.806.143 1.198.032.702.108.526.003.284.124.625.24.614.272.464.484.506.341.274.469.289.543.093h.28l.68.227.463.036.654-.036.463-.176.717-.077 1.49-.475 1.04-.449.762-.34.827-.243.48-.047.562.124.283.16.273.377.613 1.42.5 1.222.195.32.263.217.402.16.288-.041.593-.46.484-.443.19-.098.258.015.314.129.556.418.552.336.793.278.252.01.433-.175.309-.186.355-.315.835-1.249.535-1.006.253-.284.427-.289.881-.274.659-.025 1.242.247.535.031.541-.154.484-.295.289-.123 1.947-.806.505-.108.551.036.474.238.371.402.247.5.366.904.19.851.155.352.716 1.316 1.555 2.363.314.553.412.84.304.724.495.95.752 1.155.433.45.391.232.809.175 1.169.145.572.04.401-.04.613-.14.299-.108.422-.258.263-.238.294-.454.134-.361.02-.387-.108-.429-.273-.64-.232-.68-.262-.61-.428-.83-.252-.677-.057-.686.077-.228.217-.221.499-.295.433-.108h.252l.33.093.335.17.417.382.613.774.752.867.726.496.629.186.36.03 1.535-.03.474-.037.592-.237.526-.402.19-.351.067-.465-.144-.624-.211-.429-.361-.495-.535-.485-1.041-.806-.453-.536-.186-.542-.077-.749-.232-.609-.293-.242-.582-.145-.433.031-.721.124-.464.227-.783.305-.674-.016-.428-.144-.221-.248-.227-.428-.036-.429.124-.64.288-.474.17-.166.536-.407.252-.145.474-.14.659-.05 1.195.252.428.279.736.62.866 1.067.762.672.675.531.412.217.458.18.495.135.226-.042.763-.345.329-.238.505-.526.072-.222.155-1.383.02-.594-.195-.733-.243-.49-.231-.294-.809-.496-.325-.382-.118-.346-.072-.438.051-.284.129-.253.33-.13.479.037.391.114.68.418.32.325.097.206.34 1.445.119.625.015.392.18.568.443.753.356.243.458.072.727-.14.417-.231.216-.351.397-.8.149-.351.062-.444-.046-.728-.273-.573-.541-.758-.284-.553-.2-.598-.021-.351.139-.568.278-.392.824-.8.644-.351.732-.16.54.046.382.17.309.372.149.61-.041.35-.299.78-.098.34-.067.496.088.63 1.313 2.306.407.62.371.412.618.573.66.424.473.268.845.263.278.031.701-.118.669-.367.634-.49.345-.583.273-.718.572-1.352.376-.5.309-.29.453-.129 1.226.32.567.037.942-.063.335-.108.376-.361.196-.45.149-.65.16-.35.345-.042.458.047.237.402-.015.615.18.696.175.238.309.268 1.051.351.943.232.937.253.891.196.526.093.819.248.803.325.804.134.999.217 1.21.026.371-.078.654-.278.33-.191.222-.201.731-.517.309-.412.227-.45.376-.35.54-.269 1.01-.371.927-.207.345-.026.402.067.644.248 1.349.79.603.315 1.35.567.494.119.489-.078.66-.03.52-.114.247-.16.247-.351.212-.96.026-.35-.114-.548-.505-1.13-.664-1.033-.062-.474.016-.532.185-.366.927-.966.258-.19.664-.037 1.056.16.211.13.397.355.608.77.278.614.407.433.314.114.283.206.582.134.495.016.716-.253.237-.119.443-.578.134-.325.128-.47.593-1.409.324-.377.665-.227.479-.046.504.093.577.232.526.134.978.522.51.35.351.166.442.273.495.351.664.372.515.248.526.33.757.702.407.48.206.346-.227.15.263.33.149.056.088.516.175.274.376 1.001.191.65.123.264.036.423.124.351.299.635.108.5.175.336.196.66.082.522.175.764.078.51-.062 1.126-.15.934-.257.95v.36l.129.249.298.402.279.475.51 1.172.494.774.654.562.984.904.922.221.402-.051-.098.273-.541.3-.917.666-.803.552-.134.056-1.061-.418-.773.413-.69.32-.634.511-.113.191-.119.774.006.362-.124.624-.222.61-.473 1.16-.428.924-.124.388-.334.005-.613-.197-.041-.113-.443-.067-.449.087-.247-.19-.283-.088-.356.015-.015.114-.541.211-.324.016-.417-.202-.279-.036-.618.238-.226-.02-.134-.12-.16.109-.288-.325-.098-.238-.077-.903.051-.206-.082-.996.216-.238-.34.026-.093-.702-.077-.33-.5.041-.386-.175-.438-.46-.391-.346-.304.305.062.274.17.113-.042.387-.221-.258-.314-.18-.582-.49-.299.51.283.212-.098.155-1.509-.33-.355 1.315-.335.64.216.702-1.39 1.631-.418 2.25-.499 2.628-.201-.052-1.741-1.053-.211.14-.979.48-.793.092-.397.212-1.014-1.187-.897-1.09-.463.171-.624.078-.365-.305-.325-.428-.407.278-1.282 1.198-.356.31-.571.247-.098-.211-.289.268-.51.227-.448.052-.535.222-1.262-.594-.109-.129-1.323-2.064-.407-.578-1.257-1.518-.041-.082-.119-1.853-.067-.867-1.323.299.01.207-.325.18-.134.945-.262.077-.551-.356-.207-.243-.319.196-.371-.026-.278.124-.402.01-.2-.103-.34-.345-1.288.273-.165.253.113.33.284.068.262.211.237.083.299-.057.391.263.768.656-.268.47.685.701.093 1.332.324.433-.19.945-.108.815-.989-.635-.459-.428-.489-.067-.16.15-.577-.047-.819.222-.242.119-.092.212-.011.81.108.888-.164-.078-.412.692-1.973-.516-1.865-.604-.716-.176-.669-.19-.242-.114-.078.15.083.386.226.49-.103.156-1.128-.93-1.092-.861-.989-.81.067-.47.258-1.002.257-.289-.247-.299-.556-.79-.165-.485-.731-.81-.886-.61-.248.357-.901.403-.515.185-2.076-.371-.695-.103-.788-.088-1.803-.222-1.097.113-.572 1.435-.309-.129-.247.408-.253.315-.427.444-.618-.336-.804-.521-1.014-.759-.732.325-.597.486.304.459.103.067 2.178 2.746.541.851.33.444.293.506.433.382.186.227.067.418.283.47.381.036.561.222.402.237 1.087.8.196.047.19-.32.814-.744.036.01 1.36.899.165.918.041 1.234.041.361-.34.031.021.62.247.35.258.217.175.02.01.223-.5.062-.262.165.278.94-.381.417-.32.666-.334.191-1.618.351-.232-.15-.777-.655-1.334-.635-.459-1.275.015-.63-.133-.47-.191-.33-.639.527-.484.506-.463.356h-.17l-.15-.387-.005-.274-.17-.387-.139-.113-.644-1.027-1.215-1.89-.073-.128-.489-.517-.505-.851-.206-.403-.767.392-.247.16.602 1.373.526 2.235-.495.067-1.21.212.005 1.006-.263.16-2.071 1.399.16.5-.041.357-.685 1.042-1.478 1.42-.66.598.587.831.33.573.186.48-.052.34.144.486-.087.356.005.253-.217.098-.273-.243-.082-.237-.17-.222-.175-.077-.268.082-.118.212.324.795.371.206-.015.227-.768.083-.288-.124-.314.155-.315.263-.494-.15-.247-.273-.067-.227-.268-.398-.289-.046-.134.206-.273.196-.236-.056-.541.505-.119.305.016.397-.186.258-.01.341.263.5.072.44-.016.268-.134.103-.329-.175-.572-.078-.201-.227-.391-.29-.345.042-.17.315.267.46.011.19-.15.212-.324.124-.35-.072-.459.325-.16.273-.34.088-.236-.403-.222-.077" clip-rule="evenodd"/><path stroke="#000" stroke-linecap="round" stroke-linejoin="round" stroke-width=".2" d="m137.729 59.198-.196-1.45-.134-.743-.17-1.09.041-.164-.201-.078.16-.206-.072-.186.046-.888-.18-.506-.463-.795-.892-1.45-1.148-1.93-.114-.77v-.293l.299.098.134.19.232.156.196.237.17-.098-.613-1.492-.443.088.103-.888-.144-.036-.263-.903-.376-1.135-.165-.568-.412-.955-.479-1.063-.999.33-1.494-.83-.592-.362-.819-.423-.042.206-.51.919-.216.119-.247.619-.34.62.294.304-.057.247-.206.32-.407.12-.149-.078-.387.026.005-.17-.401-.579.087-.82v-.594l-.082-.17.036-.284.36-.583.067-.883-.839.521-.026.088-.51-.082-.227.036-.376-.088-.365.212-.047.252-.51.739-.711-.419-.082.026-.603-.774-.046-.14-.288.264-.258-.304-.458-.274-.237-.248-.572-.211-.345.47-.258.2-.649.76-.484.53-.427-.67-1.242-.568-1.383-.66.017.299-.387.748-.671.759-.042.114-.417 1.775-.664-.093-.67-.046.067.242-.166.031-1.479-.005-.307-.924-.138-.547.387-.124 1.42-1.104-.181-.176-.37-.562-.613-.77-.418-.484.345-.429.642-.939.501-.304-.864-.966-.502-.66-.404-.45-.736-1.109-.253-.46-.575-.866-.296-.403-.071-.325-.262-.382-.906-1.001-.342-.542-.126-.104-.37.326-.166-.047-.112-.18-.341-.166-.34-.263-.441-.449-.514-.433-1.058-.986-1.566-1.425-.21.052-1.078.402-.858.284-.957-2.167-.248-.475-.785-1.755.524.176.207.16.175.381.146-.098-.082-.253.206-.288.658 1.527.628 1.538.848-.345.76-.362.881-.366-.374-.759-.017-.279-.258-.237-.269-.047-.191-.392-.09-.304.074-.408-.15-.274-.082-.598.222.041.427-.124.048-.16-.427-.206-.071-.13-.354-.35.114-.253-.239-.454.292-.145.484.01.243-.34.28-.13-.027-.299.107-.206.223-.155.091-.284.313-.377.196-.092.121-.32-.458-.594.514-.444.355-.815.044-.558-.096-.583-.271-.795-.139-.227-.733-.64-.271-.175-.308-.362-.15-.51.004-.568-.053-.362-.13-.237-.436-.454-.094-.305.04-.836.115-.588.212-.413.403-.444.418-.212.394-.118.307-.01.314.144.209.18.922 1.327.495.65.29.486.067.758-.104.893-.141 1.806.143 1.198.032.702.108.526.003.284.124.625.24.614.272.464.484.506.341.274.469.289.543.093h.28l.68.227.463.036.654-.036.463-.176.717-.077 1.49-.475 1.04-.449.762-.34.827-.243.48-.047.562.124.283.16.273.377.613 1.42.5 1.222.195.32.263.217.402.16.288-.041.593-.46.484-.443.19-.098.258.015.314.129.556.418.552.336.793.278.252.01.433-.175.309-.186.355-.315.835-1.249.535-1.006.253-.284.427-.289.881-.274.659-.025 1.242.247.535.031.541-.154.484-.295.289-.123 1.947-.806.505-.108.551.036.474.238.371.402.247.5.366.904.19.851.155.352.716 1.316 1.555 2.363.314.553.412.84.304.724.495.95.752 1.155.433.45.391.232.809.175 1.169.145.572.04.401-.04.613-.14.299-.108.422-.258.263-.238.294-.454.134-.361.02-.387-.108-.429-.273-.64-.232-.68-.262-.61-.428-.83-.252-.677-.057-.686.077-.228.217-.221.499-.295.433-.108h.252l.33.093.335.17.417.382.613.774.752.867.726.496.629.186.36.03 1.535-.03.474-.037.592-.237.526-.402.19-.351.067-.465-.144-.624-.211-.429-.361-.495-.535-.485-1.041-.806-.453-.536-.186-.542-.077-.749-.232-.609-.293-.242-.582-.145-.433.031-.721.124-.464.227-.783.305-.674-.016-.428-.144-.221-.248-.227-.428-.036-.429.124-.64.288-.474.17-.166.536-.407.252-.145.474-.14.659-.05 1.195.252.428.279.736.62.866 1.067.762.672.675.531.412.217.458.18.495.135.226-.042.763-.345.329-.238.505-.526.072-.222.155-1.383.02-.594-.195-.733-.243-.49-.231-.294-.809-.496-.325-.382-.118-.346-.072-.438.051-.284.129-.253.33-.13.479.037.391.114.68.418.32.325.097.206.34 1.445.119.625.015.392.18.568.443.753.356.243.458.072.727-.14.417-.231.216-.351.397-.8.149-.351.062-.444-.046-.728-.273-.573-.541-.758-.284-.553-.2-.598-.021-.351.139-.568.278-.392.824-.8.644-.351.732-.16.54.046.382.17.309.372.149.61-.041.35-.299.78-.098.34-.067.496.088.63 1.313 2.306.407.62.371.412.618.573.66.424.473.268.845.263.278.031.701-.118.669-.367.634-.49.345-.583.273-.718.572-1.352.376-.5.309-.29.453-.129 1.226.32.567.037.942-.063.335-.108.376-.361.196-.45.149-.65.16-.35.345-.042.458.047.237.402-.015.615.18.696.175.238.309.268 1.051.351.943.232.937.253.891.196.526.093.819.248.803.325.804.134.999.217 1.21.026.371-.078.654-.278.33-.191.222-.201.731-.517.309-.412.227-.45.376-.35.54-.269 1.01-.371.927-.207.345-.026.402.067.644.248 1.349.79.603.315 1.35.567.494.119.489-.078.66-.03.52-.114.247-.16.247-.351.212-.96.026-.35-.114-.548-.505-1.13-.664-1.033-.062-.474.016-.532.185-.366.927-.966.258-.19.664-.037 1.056.16.211.13.397.355.608.77.278.614.407.433.314.114.283.206.582.134.495.016.716-.253.237-.119.443-.578.134-.325.128-.47.593-1.409.324-.377.665-.227.479-.046.504.093.577.232.526.134.978.522.51.35.351.166.442.273.495.351.664.372.515.248.526.33.757.702.407.48.206.346-.227.15.263.33.149.056.088.516.175.274.376 1.001.191.65.123.264.036.423.124.351.299.635.108.5.175.336.196.66.082.522.175.764.078.51-.062 1.126-.15.934-.257.95v.36l.129.249.298.402.279.475.51 1.172.494.774.654.562.984.904.922.221.402-.051-.098.273-.541.3-.917.666-.803.552-.134.056-1.061-.418-.773.413-.69.32-.634.511-.113.191-.119.774.006.362-.124.624-.222.61-.473 1.16-.428.924-.124.388-.334.005-.613-.197-.041-.113-.443-.067-.449.087-.247-.19-.283-.088-.356.015-.015.114-.541.211-.324.016-.417-.202-.279-.036-.618.238-.226-.02-.134-.12-.16.109-.288-.325-.098-.238-.077-.903.051-.206-.082-.996.216-.238-.34.026-.093-.702-.077-.33-.5.041-.386-.175-.438-.46-.391-.346-.304.305.062.274.17.113-.042.387-.221-.258-.314-.18-.582-.49-.299.51.283.212-.098.155-1.509-.33-.355 1.315-.335.64.216.702-1.39 1.631-.418 2.25-.499 2.628-.201-.052-1.741-1.053-.211.14-.979.48-.793.092-.397.212-1.014-1.187-.897-1.09-.463.171-.624.078-.365-.305-.325-.428-.407.278-1.282 1.198-.356.31-.571.247-.098-.211-.289.268-.51.227-.448.052-.535.222-1.262-.594-.109-.129-1.323-2.064-.407-.578-1.257-1.518-.041-.082-.119-1.853-.067-.867-1.323.299.01.207-.325.18-.134.945-.262.077-.551-.356-.207-.243-.319.196-.371-.026-.278.124-.402.01-.2-.103-.34-.345-1.288.273-.165.253.113.33.284.068.262.211.237.083.299-.057.391.263.768.656-.268.47.685.701.093 1.332.324.433-.19.945-.108.815-.989-.635-.459-.428-.489-.067-.16.15-.577-.047-.819.222-.242.119-.092.212-.011.81.108.888-.164-.078-.412.692-1.973-.516-1.865-.604-.716-.176-.669-.19-.242-.114-.078.15.083.386.226.49-.103.156-1.128-.93-1.092-.861-.989-.81.067-.47.258-1.002.257-.289-.247-.299-.556-.79-.165-.485-.731-.81-.886-.61-.248.357-.901.403-.515.185-2.076-.371-.695-.103-.788-.088-1.803-.222-1.097.113-.572 1.435-.309-.129-.247.408-.253.315-.427.444-.618-.336-.804-.521-1.014-.759-.732.325-.597.486.304.459.103.067 2.178 2.746.541.851.33.444.293.506.433.382.186.227.067.418.283.47.381.036.561.222.402.237 1.087.8.196.047.19-.32.814-.744.036.01 1.36.899.165.918.041 1.234.041.361-.34.031.021.62.247.35.258.217.175.02.01.223-.5.062-.262.165.278.94-.381.417-.32.666-.334.191-1.618.351-.232-.15-.777-.655-1.334-.635-.459-1.275.015-.63-.133-.47-.191-.33-.639.527-.484.506-.463.356h-.17l-.15-.387-.005-.274-.17-.387-.139-.113-.644-1.027-1.215-1.89-.073-.128-.489-.517-.505-.851-.206-.403-.767.392-.247.16.602 1.373.526 2.235-.495.067-1.21.212.005 1.006-.263.16-2.071 1.399.16.5-.041.357-.685 1.042-1.478 1.42-.66.598.587.831.33.573.186.48-.052.34.144.486-.087.356.005.253-.217.098-.273-.243-.082-.237-.17-.222-.175-.077-.268.082-.118.212.324.795.371.206-.015.227-.768.083-.288-.124-.314.155-.315.263-.494-.15-.247-.273-.067-.227-.268-.398-.289-.046-.134.206-.273.196-.236-.056-.541.505-.119.305.016.397-.186.258-.01.341.263.5.072.44-.016.268-.134.103-.329-.175-.572-.078-.201-.227-.391-.29-.345.042-.17.315.267.46.011.19-.15.212-.324.124-.35-.072-.459.325-.16.273-.34.088-.236-.403-.222-.077"/><path id="Чернівецький" fill="#C8C6C6" fill-rule="evenodd" d="m62.177 92.798-.542.036-1.771.82-.64.331-.388.145-.73.062-.759.093-.45.026-2.616.232-.243-.114-.192.13-1.681.139-1.04.113-2.462.423-.535.073-1.955.345-.25-.433-.55-.31-.441-.32-.143-.196-.549-.506-.283-.449-.16.098-.672.16-.298-.093-.289-.366-.519-.382-.093-.196-.31-.243h-.166l-.108-.248-.511-.216-.19-.346-.32-.196-.232-.279-.503-.175-.273-.33-.083-.238-.232-.346-.297-.18-.287-.336-.333-.516.764-1.58-.028-.381.157-.692.396-.408.125-.47.168-.242-.266-.31.018-.5-.075-.485-.833-.269-.138-.485-.468.031-.216-.062-.11-.19-.363-.259-.211-.088-.261-.237-.198-.433.022-.104-.267-.433.056-.542.159-.413.369-.356.041-.511.263-.377.327.103.316.336.115.041.362-.361.342-.212.218-.289.086-.253.22-.056.35-.186.067-.615.476-.258.118-.154.054-.253.32-.434-.062-.15.207-.402-.312-.434.065-.407.174-.243.088-.242-.08-.346-.183-.202-.17-.062-.413-.402-.144-.072.22-.496.12-.015.386-.542.532-.232.296-.589.175-.155.296-.067.336-.15.586.006.388-.207.273-.325.143-.087.358.046.5-.114.121.14.412.015.188.222.322.103.086-.103.259.057.173-.093.444.02.653.16.161-.118.13.144.887.191.181.078.079-.176.099-.51-.325-.532-.009-.367.059-.284-.028-.423.117-.397.151-.103-.034-.568-.194-.351-.022-.408-.22-.196.034-.144.138-1.337-.267-.336-.63-.428-.242-.774-.02-.573.203-.48.318-.3.31-.2.213-.32-.15-.584-.171.026-.045-.516-.076-.18.197-.336.15-.382.127-.124.283.041.117-1.073.162-.346-.094-.294-.11-.114.37-1.687.026-.429.064-.206.307-1.487.706-.051-.004-.563-.076-.16.575.005.418.253.24.3.328-.021.254.057.212.17.357-.01.295-1.197.1-.718.344.078.246.283.175-.062.472.135.33-.057.115-.103.522.444.277.02.355.186.347.315.058.32.174.14.373-.011.272-.098.468.17.223-.294.123-.036.128-.33.062-.444.496-.005.052-.124.324-.016.35.073.167.387.1.392.182-.547.09-.408.298-.975.197-.274.08-.516-.007-.382.2-.32-.098-.237.12-.207.11-.505.126-.341.015-.48.254-.382.745-.279.027-.402.225-.037.542-.619.506-.124.397-.304.323.046.333-.227.25-.428-.018-.165.178-.413.276-.207.018-.294-.543-.495.003-.083-.409-.573.265-.64.535-.593.449-.325.16-.295.082-.346-.363-.103.117-.733-.29-.056-.324-.336-.637-.5-.848-.862-.561-.356-.863-.465-.148-.165-.02-.16-.18-.119-.179-.532v-.294l.216-.392v-.212l-.17-.227-.016-.258.271-.433-.02-.336.09-.258-.008-.913-.086-.16-.24-.021-.313.196-.624.155-.173-.062.207-.33.463-.413.078-.243-.292-.48.151-.371-.38-.563.136-.108.026-.382-.08-.558-.15-.655-.123-.145-.047-.289.345-.562.006-.47-.124-.366.127-.326-.093-.402.03-.217-.232-.175-.17-.253-.283-.547.141-.47.132-.217.033-.423-.07-.263.18-.8-.26-.93-.029-.417.148-.552.311-.93.151-.614.019-.34.185-.878-.046-.48-.235-.35.09-.248-.116-.403-.337-.114-.147-.433.093-.506.206-.361.048-.222-.471-.826.19-.392-.21-.645.277-.48.03-.155-.486-.743-.237-.934-.503-.79.214-.898.061-1.383-.2-1.642.116-.345-.365-.708.037-.144-.047-.599.084-.144.45-.418.487-.764.353-.485.523-.625.238-.222.42-.273.396-.336.553-.392.6-.5.197.025.419-.087.033-.295.293.062.611.243.792.093.953.14.68.133.597.016 1.312-.016.43.078.38.232.407.434.33.526.169.578.078.908.177.615.4.49.36.165.506-.052.34-.33.138-.542-.04-.893.483-1.254.419-.79.314-.402.485-.48.422-.361.502-.29.286-.066.31.082.622.346.614.222.237.14.42.402.607.908.486.79.591 1.187.723.94.446.825.334.279.645.676.242.382.116.542-.124.49-.483.697-.153.47.03.51.205.248.145.031.525-.062.604-.134.711-.268.409.139.41.33 1.328.914.481.211.367.073.456.01.705-.088.493-.175.441-.274.404-.377.288-.325.292-.47.295-.366.343-.557.294-.279 1.043-1.125.248-.196.53-.145.635.104.444.18.64.367.878.655.26.119.475.041.406-.165.292-.47.27-.521.105-.521-.095-1.45.042-.558.219-.594.204-.412.274-.248.306-.114.38-.005.51.17.378.253.296.501.207.624.03.532-.122.5-.16.408-.058.465.193.712.339.63.095.423-.059.408-.131.268-.202.248-.348.31-.096.474-.341.377-.543.305-.097.227-.003.335.133.284.506.78.415.732.13.16.387.274.523.423.534.537.371.433.253.403.294.64.276 1.063.202.217.303.077.564-.036.272-.067.448-.294.526-.418.458.593-.122.32-.195.093-.313.377-.091.284-.223.155-.108.206.027.3-.279.129-.243.34-.485-.01-.291.145.238.454-.113.253.353.35.071.13.428.206-.048.16-.427.124-.222-.041.081.598.15.274-.074.408.091.304.191.392.268.047.259.237.017.279.374.759-.881.366-.761.361-.847.346-.629-1.538-.657-1.527-.206.288.082.253-.146.098-.175-.381-.207-.16-.524-.176.784 1.755.249.475.957 2.167.858-.284 1.078-.402.209-.052 1.566 1.425 1.059.986.513.433.442.45.34.262.341.165.112.181.165.047.371-.326.125.104.343.542.906 1 .261.383.072.325.295.403.576.867.253.459.736 1.11.404.449.502.66.864.965-.501.305-.642.94-.346.428.419.485.612.769.371.562.181.176-1.42 1.104-.388.124.138.547.307.924 1.48.005.166-.03-.068-.243.671.046.664.093.416-1.776.043-.113.671-.759.387-.748-.018-.3 1.384.661 1.241.568.428.67.484-.53.649-.76.257-.2.346-.47.571.211.237.248.459.273.257.305.289-.263.046.14.603.773.082-.026.711.419.51-.739.046-.252.366-.212.376.088.227-.036.509.082.026-.088.84-.52-.067.882-.361.583-.036.284.083.17v.594l-.088.82.402.578-.005.17.386-.025.15.077.406-.119.207-.32.056-.247-.293-.305.34-.62.247-.618.216-.12.51-.918.041-.206.819.423.593.361 1.493.831 1-.33.479 1.063.412.955.164.567.377 1.136.262.903.144.036-.103.888.443-.088.613 1.492-.17.098-.195-.237-.232-.155-.134-.191-.299-.098v.294l.113.769 1.149 1.93.891 1.45.464.795.18.506-.046.888.072.186-.16.206.201.077-.041.166.17 1.089.134.743.195 1.45-.185.026-.149.15-.031.268-.232-.005-.232-.227-.871-.552-.669-.191-.438-.031-.201.371-.7.217-.227-.413-.211-.165-.747.294-.185-.036-.34.083-.037.165.258.572-.319.31-.49.238-.144.123-.525.047-.557-.103-.293.402.005.17.268.197.139.361-.247.372-.34.04-.098-.365-.428-.295-.69-.03-.443.422-.819.713-.391-.176-.356.067-.226.233-.212.123-.381.057-.412-.108-.134-.356.16-.088.355-.041.181-.253-.093-.212-.201-.067-.412-.35-.33-.016-.304.289.006.32.097.196-.087.129-.371.155-.35.475-.191.139-.324-.005-.103-.387-.15-.31-.257-.124-.227.155.191.583-.052.258-.35.155-.814-.108-.242-.18-.077.231-.289.346-.092.578.489 1.198.108.593-.051.31-.516.805-.973.532-.598.609-.283.449-.355.49-.366.397-.922 2.013-.175.578-.036.764-.16.79-.396.681-.201 1.012-.16.154.046.253-.103.263-.355.377-.16.32-.486.264-.351.32-.165.056-.331.253-.553.33-.081-.025-1.045.774-.605.49-.859.63-.187.248-.154 1.12-.005.304-.118.656-.051.567-.274.645-.265.898.067.114-.289 1.001-.292.552-.885 1.12-1.257.558-.717.242-.676.14-.979.232-.367.17-.567-.371-.338-.078-.835.775-1.258.402-.135.015-.788-.299-1.565-.645-.785-.222-.42.01-2.893.66-.634.135-.217.005-.689.124-.237.078-1.012.216-1.367.294-.536.17-1.387.403-.63-.232-.41-.387-1.338-.201-.83.01-.431 1.032-.115.392-.162.16-1.246.444-.914-.211-.57-.387-1.09-.522-.913.165-1.074.217-1.014.454-.107.093-.492 1.126-.258.082-.823.521-.922.527-1.084.392-.628.34-1.441-.128-1.43-.15-.255-.015-.393-.486-.769.197-.313-.047-.298.062-.3-.33-.354-.17-.166.015-.478.237-.28-.088-.448-.04-.48.056-.228.165-.267-.083-.884-.139-.343-.134-.51-.165-.392-.047-.146.067h-.55l-.398-.18-.245.144-.17-.015-.589.093m35.696-26.844h-.003l-.187-.36.19.36" clip-rule="evenodd"/><path stroke="#000" stroke-linecap="round" stroke-linejoin="round" stroke-width=".2" d="m62.177 92.798-.542.036-1.771.82-.64.331-.388.145-.73.062-.759.093-.45.026-2.616.232-.243-.114-.192.13-1.681.139-1.04.113-2.462.423-.535.073-1.955.345-.25-.433-.55-.31-.441-.32-.143-.196-.549-.506-.283-.449-.16.098-.672.16-.298-.093-.289-.366-.519-.382-.093-.196-.31-.243h-.166l-.108-.248-.511-.216-.19-.346-.32-.196-.232-.279-.503-.175-.273-.33-.083-.238-.232-.346-.297-.18-.287-.336-.333-.516.764-1.58-.028-.381.157-.692.396-.408.125-.47.168-.242-.266-.31.018-.5-.075-.485-.833-.269-.138-.485-.468.031-.216-.062-.11-.19-.363-.259-.211-.088-.261-.237-.198-.433.022-.104-.267-.433.056-.542.159-.413.369-.356.041-.511.263-.377.327.103.316.336.115.041.362-.361.342-.212.218-.289.086-.253.22-.056.35-.186.067-.615.476-.258.118-.154.054-.253.32-.434-.062-.15.207-.402-.312-.434.065-.407.174-.243.088-.242-.08-.346-.183-.202-.17-.062-.413-.402-.144-.072.22-.496.12-.015.386-.542.532-.232.296-.589.175-.155.296-.067.336-.15.586.006.388-.207.273-.325.143-.087.358.046.5-.114.121.14.412.015.188.222.322.103.086-.103.259.057.173-.093.444.02.653.16.161-.118.13.144.887.191.181.078.079-.176.099-.51-.325-.532-.009-.367.059-.284-.028-.423.117-.397.151-.103-.034-.568-.194-.351-.022-.408-.22-.196.034-.144.138-1.337-.267-.336-.63-.428-.242-.774-.02-.573.203-.48.318-.3.31-.2.213-.32-.15-.584-.171.026-.045-.516-.076-.18.197-.336.15-.382.127-.124.283.041.117-1.073.162-.346-.094-.294-.11-.114.37-1.687.026-.429.064-.206.307-1.487.706-.051-.004-.563-.076-.16.575.005.418.253.24.3.328-.021.254.057.212.17.357-.01.295-1.197.1-.718.344.078.246.283.175-.062.472.135.33-.057.115-.103.522.444.277.02.355.186.347.315.058.32.174.14.373-.011.272-.098.468.17.223-.294.123-.036.128-.33.062-.444.496-.005.052-.124.324-.016.35.073.167.387.1.392.182-.547.09-.408.298-.975.197-.274.08-.516-.007-.382.2-.32-.098-.237.12-.207.11-.505.126-.341.015-.48.254-.382.745-.279.027-.402.225-.037.542-.619.506-.124.397-.304.323.046.333-.227.25-.428-.018-.165.178-.413.276-.207.018-.294-.543-.495.003-.083-.409-.573.265-.64.535-.593.449-.325.16-.295.082-.346-.363-.103.117-.733-.29-.056-.324-.336-.637-.5-.848-.862-.561-.356-.863-.465-.148-.165-.02-.16-.18-.119-.179-.532v-.294l.216-.392v-.212l-.17-.227-.016-.258.271-.433-.02-.336.09-.258-.008-.913-.086-.16-.24-.021-.313.196-.624.155-.173-.062.207-.33.463-.413.078-.243-.292-.48.151-.371-.38-.563.136-.108.026-.382-.08-.558-.15-.655-.123-.145-.047-.289.345-.562.006-.47-.124-.366.127-.326-.093-.402.03-.217-.232-.175-.17-.253-.283-.547.141-.47.132-.217.033-.423-.07-.263.18-.8-.26-.93-.029-.417.148-.552.311-.93.151-.614.019-.34.185-.878-.046-.48-.235-.35.09-.248-.116-.403-.337-.114-.147-.433.093-.506.206-.361.048-.222-.471-.826.19-.392-.21-.645.277-.48.03-.155-.486-.743-.237-.934-.503-.79.214-.898.061-1.383-.2-1.642.116-.345-.365-.708.037-.144-.047-.599.084-.144.45-.418.487-.764.353-.485.523-.625.238-.222.42-.273.396-.336.553-.392.6-.5.197.025.419-.087.033-.295.293.062.611.243.792.093.953.14.68.133.597.016 1.312-.016.43.078.38.232.407.434.33.526.169.578.078.908.177.615.4.49.36.165.506-.052.34-.33.138-.542-.04-.893.483-1.254.419-.79.314-.402.485-.48.422-.361.502-.29.286-.066.31.082.622.346.614.222.237.14.42.402.607.908.486.79.591 1.187.723.94.446.825.334.279.645.676.242.382.116.542-.124.49-.483.697-.153.47.03.51.205.248.145.031.525-.062.604-.134.711-.268.409.139.41.33 1.328.914.481.211.367.073.456.01.705-.088.493-.175.441-.274.404-.377.288-.325.292-.47.295-.366.343-.557.294-.279 1.043-1.125.248-.196.53-.145.635.104.444.18.64.367.878.655.26.119.475.041.406-.165.292-.47.27-.521.105-.521-.095-1.45.042-.558.219-.594.204-.412.274-.248.306-.114.38-.005.51.17.378.253.296.501.207.624.03.532-.122.5-.16.408-.058.465.193.712.339.63.095.423-.059.408-.131.268-.202.248-.348.31-.096.474-.341.377-.543.305-.097.227-.003.335.133.284.506.78.415.732.13.16.387.274.523.423.534.537.371.433.253.403.294.64.276 1.063.202.217.303.077.564-.036.272-.067.448-.294.526-.418.458.593-.122.32-.195.093-.313.377-.091.284-.223.155-.108.206.027.3-.279.129-.243.34-.485-.01-.291.145.238.454-.113.253.353.35.071.13.428.206-.048.16-.427.124-.222-.041.081.598.15.274-.074.408.091.304.191.392.268.047.259.237.017.279.374.759-.881.366-.761.361-.847.346-.629-1.538-.657-1.527-.206.288.082.253-.146.098-.175-.381-.207-.16-.524-.176.784 1.755.249.475.957 2.167.858-.284 1.078-.402.209-.052 1.566 1.425 1.059.986.513.433.442.45.34.262.341.165.112.181.165.047.371-.326.125.104.343.542.906 1 .261.383.072.325.295.403.576.867.253.459.736 1.11.404.449.502.66.864.965-.501.305-.642.94-.346.428.419.485.612.769.371.562.181.176-1.42 1.104-.388.124.138.547.307.924 1.48.005.166-.03-.068-.243.671.046.664.093.416-1.776.043-.113.671-.759.387-.748-.018-.3 1.384.661 1.241.568.428.67.484-.53.649-.76.257-.2.346-.47.571.211.237.248.459.273.257.305.289-.263.046.14.603.773.082-.026.711.419.51-.739.046-.252.366-.212.376.088.227-.036.509.082.026-.088.84-.52-.067.882-.361.583-.036.284.083.17v.594l-.088.82.402.578-.005.17.386-.025.15.077.406-.119.207-.32.056-.247-.293-.305.34-.62.247-.618.216-.12.51-.918.041-.206.819.423.593.361 1.493.831 1-.33.479 1.063.412.955.164.567.377 1.136.262.903.144.036-.103.888.443-.088.613 1.492-.17.098-.195-.237-.232-.155-.134-.191-.299-.098v.294l.113.769 1.149 1.93.891 1.45.464.795.18.506-.046.888.072.186-.16.206.201.077-.041.166.17 1.089.134.743.195 1.45-.185.026-.149.15-.031.268-.232-.005-.232-.227-.871-.552-.669-.191-.438-.031-.201.371-.7.217-.227-.413-.211-.165-.747.294-.185-.036-.34.083-.037.165.258.572-.319.31-.49.238-.144.123-.525.047-.557-.103-.293.402.005.17.268.197.139.361-.247.372-.34.04-.098-.365-.428-.295-.69-.03-.443.422-.819.713-.391-.176-.356.067-.226.233-.212.123-.381.057-.412-.108-.134-.356.16-.088.355-.041.181-.253-.093-.212-.201-.067-.412-.35-.33-.016-.304.289.006.32.097.196-.087.129-.371.155-.35.475-.191.139-.324-.005-.103-.387-.15-.31-.257-.124-.227.155.191.583-.052.258-.35.155-.814-.108-.242-.18-.077.231-.289.346-.092.578.489 1.198.108.593-.051.31-.516.805-.973.532-.598.609-.283.449-.355.49-.366.397-.922 2.013-.175.578-.036.764-.16.79-.396.681-.201 1.012-.16.154.046.253-.103.263-.355.377-.16.32-.486.264-.351.32-.165.056-.331.253-.553.33-.081-.025-1.045.774-.605.49-.859.63-.187.248-.154 1.12-.005.304-.118.656-.051.567-.274.645-.265.898.067.114-.289 1.001-.292.552-.885 1.12-1.257.558-.717.242-.676.14-.979.232-.367.17-.567-.371-.338-.078-.835.775-1.258.402-.135.015-.788-.299-1.565-.645-.785-.222-.42.01-2.893.66-.634.135-.217.005-.689.124-.237.078-1.012.216-1.367.294-.536.17-1.387.403-.63-.232-.41-.387-1.338-.201-.83.01-.431 1.032-.115.392-.162.16-1.246.444-.914-.211-.57-.387-1.09-.522-.913.165-1.074.217-1.014.454-.107.093-.492 1.126-.258.082-.823.521-.922.527-1.084.392-.628.34-1.441-.128-1.43-.15-.255-.015-.393-.486-.769.197-.313-.047-.298.062-.3-.33-.354-.17-.166.015-.478.237-.28-.088-.448-.04-.48.056-.228.165-.267-.083-.884-.139-.343-.134-.51-.165-.392-.047-.146.067h-.55l-.398-.18-.245.144-.17-.015-.589.093m35.696-26.844h-.003l-.187-.36.19.36"/><path id="Вижницький" fill="#C8C6C6" fill-rule="evenodd" d="m2.114 120.766-.116-.527.109-.341.103-.092.005-.289-.064-.491.08-.206.227-.217.124-.248.062-.784.258-.377.19-.186.226-.382-.033-.144.3-.429-.1-.33.11-.253-.02-.33-.103-.15.155-.263.166-.526-.076-.155.154-.491.021-.325.146-.253-.018-.232.214-.253-.056-.186.176-.376.148-.197.508-.227.093-.345-.074-.145.148-.186h.225l-.095-.284.425-.356-.059-.33.271-.346.354-.211.285-.295-.14-.232.228-.47.4.052.083-.041.216-.392.038-.202-.098-.242.248-.114-.035-.542.191-.211.11-.589.396-.691-.022-.253.227-.233.03-.438-.137-.109-.25.114-.192-.01-.403-.351-.179.067-.171-.072.263-.506.192-.165-.166-.351-.38-.052-.467-.32-.01-.242-.205-.099-.026-.33-.434-.134-.078.155-.332-.073-.255-.123-.236-.258-.027-.305.06-.501-.282-.371-.354-.078-.085-.18.102-.45-.344-.216-.042-.356.242-.186.107-.335.14-.042.235.15.594-.083.032-.247-.212-.042-.091-.273.24-.062.014-.403-.225-.113-.012-.413-.08-.16.066-.398-.248-.051-.124-.238-.127-.036-.214.18-.2-.149-.005-.284-.173-.392.065-.155-.176-.253-.382-.077-.119-.186-.036-.248-.26-.098-.09-.186-.478-.051-.09-.062-.343-.588.034-.181-.136-.093-.163-.48.014-.217.194-.392.167-.026.403.093.101-.134-.525-.253-.204.057-.15-.067-.018-.31-.166-.367-.008-.36.35.144.188-.042v-.314l-.324.01-.378-.361.161-.233-.05-.335.058-.33-.226-.357-.08-.356-.08-.753-.144-.362.052-.428-.188-.232.071-.356.351-.207-.06-.361.303-.496.267-.227.063-.154-.086-.28-.201-.164-.288.051-.071-.108.04-.315-.168-.263.048-.893.044-.325.176-.026.107-.165.482-.196.104-.14-.216-.155.141-.16.21-.036.307-.237.318-.346.42-.232.102-.284.342-.212.04-.154-.272-.243.384-.33.283-.15.662-.728.349-.33.306-.692.147-.237.196-.155.311-.366.46.139.157-.217-.206-.248.38-.232.552-.227.223-.537.297-.284.23-.366.06-.377-.01-.284-.556-.268-.04-.372-.19-.283.028-.413-.393-.341-.217-.599.07-.175.978-.96.185-.026.477-.083.362.083.27.145.264.464.459.196.134.114.565.247.494.083.468-.155.223-.16.149-.201-.016-.542-.253-.465.006-.294.096-.289.211-.242.302-.14.428-.098.541.031.27.181.483-.217.282-.294.075-.279-.02-.521.337-.66.02-.305-.068-.155-.258-.248-.218-.438-.083-.44.143-.139.343-.18.688-.186.38.036.556.052.229-.201.112-.274-.148-.258-.594-.408-.228-.407.037-.424.161-.366.486-.521.425-.264.201-.206.61.129.513-.031.407.17.602.666.567.16.446-.222.243-.284.05-.206.033-.63-.026-.748-.083-.284-.356-.253-.298-.5-.482-.403-.534-.135-.155-.139-.143-.346.084-.366.32-.196.075-.3-.2-.412-.274-.191-.56-.13-.112-.304.237-.036.331-.186.765-.557.288-.01.082-.12-.036-.278.083-.14.35-.263.293-.154.236-.212.442-.557.336-.269.22-.093.532.026.52-.026.469.083.406.217.176-.005.315-.181.35-.336.308-.356.471-.294.248-.428.232-.145.228-.47.22-.149.195-.279-.021-.294.078-.506.19-.175.216-.005.07-.315.706-.759.254-.217.072-.211.144-.047.407-.459.274-.18.183-.682-.025-.346.162-.48.204-.666.292-.392.144-.48.37-.14.39.223.245.03.263-.35.144-.29.479-.262.1-.424-.09-.211.246-.078.339.01.266-.237.223-.454.078-.32-.007-.418.235-.516.258-.294.164-.109.357-.062.095.052.427-.46-.074-.175.512-.676.193-.052.1-.237.101-.14.252-.283.054-.248.152-.093.138-.402.413-.227.477-.197.21-.32.16-.077.588-.155.474-.34.232-.351.212-.005.526-.33.257-.099.17.026.394-.13.217.084.315-.295.382-.273.419-.413.495-.196.378-.026.41.232.157.01.535-.134.263-.325.157-.098.267.026.219.103.237.217.238.113.342-.062.154-.35.34-.217.131.03.208.29.332.015.138-.371-.128-.517.636-.252.36.082.046.284.231.093h.546l.429.088.49-.135.305-.03.34-.145.332.15.1.123.574-.067.241-.325.371.145.664.041.74.145.253.185.323.016.123.247.337.12.3-.073.108.051.013.563.281.242.266.434.477.284.467-.062.404.191h.109l.496.19.495-.04.31.376.38.13.383-.197.161.021.085.237.233.093.609.135.668-.073.302-.253.493-.098.235-.144.817-.031.148.165.862.464.562.357.847.861.637.501.324.336.29.056-.117.733.364.103-.083.346-.16.294-.448.326-.535.593-.265.64.409.573-.003.083.542.495-.018.294-.276.207-.178.413.018.165-.25.428-.332.227-.323-.046-.398.304-.506.124-.541.62-.226.036-.027.402-.745.279-.254.382-.014.48-.127.34-.11.506-.12.207.098.237-.2.32.008.382-.08.516-.198.274-.298.975-.09.408-.181.547-.1-.392-.168-.387-.35-.073-.323.016-.052.124-.497.005-.061.444-.128.33-.123.036-.223.294-.469-.17-.272.098-.373.01-.174-.14-.058-.32-.346-.314-.356-.186-.277-.02-.522-.444-.114.103-.33.057-.472-.134-.176.062-.245-.284-.345-.078-.1.718-.295 1.197-.356.01-.212-.17-.255-.057-.327.021-.24-.3-.419-.252-.575-.005.076.16.004.562-.705.052-.307 1.486-.065.207-.026.428-.37 1.688.11.113.094.295-.161.345-.118 1.074-.282-.041-.129.123-.149.382-.197.336.077.18.044.517.172-.026.15.583-.214.32-.31.201-.318.3-.202.48.02.572.24.775.632.428.267.335-.138 1.337-.035.145.22.196.022.408.194.35.035.568-.151.103-.118.398.028.423-.058.284.008.366.325.532-.099.51-.078.176-.181-.077-.888-.19-.13-.146-.16.12-.654-.16-.444-.021-.173.093-.259-.057-.086.103-.322-.103-.187-.222-.412-.015-.121-.14-.501.114-.358-.047-.142.088-.273.325-.389.207-.585-.005-.337.15-.295.066-.175.155-.297.588-.531.233-.386.542-.12.015-.22.496.143.072.414.402.17.062.182.202.08.345-.087.243-.175.243-.064.407.312.434-.207.402.061.15-.32.434-.053.252-.118.155-.476.258-.068.615-.349.185-.22.057-.087.253-.218.29-.341.21-.363.362-.114-.041-.317-.336-.326-.103-.263.377-.042.51-.369.357-.16.413-.055.542.267.433-.021.103.197.434.261.237.212.088.362.258.111.191.215.062.468-.031.138.485.833.269.075.485-.018.5.266.31-.168.243-.125.47-.396.407-.157.692.028.382-.763 1.579.332.516.288.335.296.181.233.346.083.237.273.33.503.176.232.279.32.196.19.346.51.217.109.247h.166l.31.243.093.196.519.382.288.366.298.093.673-.16.16-.098.282.45.55.505.142.196.44.32.551.31.25.433-1.727.29-1.235.185-1.047.191-2.46.392-1.666.258-.506.207-.819.015-.388.057-1.056-.072.06-.33-.44.278-.433.485-.68.558-.975.748-1.128.924-.121-.036-.212.206-.185-.211-.23-.052-.37.284-.272-.109-.17-.278-.141-.052-.3.036-.236.176-.174-.248-.299-.134-.256.036-.47.273-.203.419-.216.701-.13.315-.19-.046-.05.299.142.661.122.304-.054.248-.13.186-.05 1.383-.916.434-.607.247-.49.676.063.336.166.294-.09.299-.209.243-.16.475-.342.129-.194.48-.15.108-.32.031-.156.274-.233.258.075.382-.055.408-.247.268.082.196-.088.16-.559.367-.228.201.275.485.076 1.037-.441.754-.324.129-.333.062-.423-.005-.328-.325-.171.082-.16.346-.28.346-.494.304-.248.32-.306.222-.059.191-.46.568-.421.392-.22.077-.145 1.007.107.263-.205.392-.34.006-.036.098-.302.253-.148.02-.444.465-.467-.006-.3.057-.308.351-.213.109-.49-.037-.178.083-.808.511-.192.026-.642-.635-.216-.026.007.238-.156.144-.144.367-.346.51-.106.269-.246.253-.108.222-.03.48-.107.005-.665-.274-.387-.433-.2-.026-.125.206-.475-.062-.358-.216-.483-.062-.26.216-.3.568-.293.191-.308-.041-.32-.351-.361-.109-3.054.021-.476.036-.846.124-.92.088" clip-rule="evenodd"/><path stroke="#000" stroke-linecap="round" stroke-linejoin="round" stroke-width=".2" d="m2.114 120.766-.116-.527.109-.341.103-.092.005-.289-.064-.491.08-.206.227-.217.124-.248.062-.784.258-.377.19-.186.226-.382-.033-.144.3-.429-.1-.33.11-.253-.02-.33-.103-.15.155-.263.166-.526-.076-.155.154-.491.021-.325.146-.253-.018-.232.214-.253-.056-.186.176-.376.148-.197.508-.227.093-.345-.074-.145.148-.186h.225l-.095-.284.425-.356-.059-.33.271-.346.354-.211.285-.295-.14-.232.228-.47.4.052.083-.041.216-.392.038-.202-.098-.242.248-.114-.035-.542.191-.211.11-.589.396-.691-.022-.253.227-.233.03-.438-.137-.109-.25.114-.192-.01-.403-.351-.179.067-.171-.072.263-.506.192-.165-.166-.351-.38-.052-.467-.32-.01-.242-.205-.099-.026-.33-.434-.134-.078.155-.332-.073-.255-.123-.236-.258-.027-.305.06-.501-.282-.371-.354-.078-.085-.18.102-.45-.344-.216-.042-.356.242-.186.107-.335.14-.042.235.15.594-.083.032-.247-.212-.042-.091-.273.24-.062.014-.403-.225-.113-.012-.413-.08-.16.066-.398-.248-.051-.124-.238-.127-.036-.214.18-.2-.149-.005-.284-.173-.392.065-.155-.176-.253-.382-.077-.119-.186-.036-.248-.26-.098-.09-.186-.478-.051-.09-.062-.343-.588.034-.181-.136-.093-.163-.48.014-.217.194-.392.167-.026.403.093.101-.134-.525-.253-.204.057-.15-.067-.018-.31-.166-.367-.008-.36.35.144.188-.042v-.314l-.324.01-.378-.361.161-.233-.05-.335.058-.33-.226-.357-.08-.356-.08-.753-.144-.362.052-.428-.188-.232.071-.356.351-.207-.06-.361.303-.496.267-.227.063-.154-.086-.28-.201-.164-.288.051-.071-.108.04-.315-.168-.263.048-.893.044-.325.176-.026.107-.165.482-.196.104-.14-.216-.155.141-.16.21-.036.307-.237.318-.346.42-.232.102-.284.342-.212.04-.154-.272-.243.384-.33.283-.15.662-.728.349-.33.306-.692.147-.237.196-.155.311-.366.46.139.157-.217-.206-.248.38-.232.552-.227.223-.537.297-.284.23-.366.06-.377-.01-.284-.556-.268-.04-.372-.19-.283.028-.413-.393-.341-.217-.599.07-.175.978-.96.185-.026.477-.083.362.083.27.145.264.464.459.196.134.114.565.247.494.083.468-.155.223-.16.149-.201-.016-.542-.253-.465.006-.294.096-.289.211-.242.302-.14.428-.098.541.031.27.181.483-.217.282-.294.075-.279-.02-.521.337-.66.02-.305-.068-.155-.258-.248-.218-.438-.083-.44.143-.139.343-.18.688-.186.38.036.556.052.229-.201.112-.274-.148-.258-.594-.408-.228-.407.037-.424.161-.366.486-.521.425-.264.201-.206.61.129.513-.031.407.17.602.666.567.16.446-.222.243-.284.05-.206.033-.63-.026-.748-.083-.284-.356-.253-.298-.5-.482-.403-.534-.135-.155-.139-.143-.346.084-.366.32-.196.075-.3-.2-.412-.274-.191-.56-.13-.112-.304.237-.036.331-.186.765-.557.288-.01.082-.12-.036-.278.083-.14.35-.263.293-.154.236-.212.442-.557.336-.269.22-.093.532.026.52-.026.469.083.406.217.176-.005.315-.181.35-.336.308-.356.471-.294.248-.428.232-.145.228-.47.22-.149.195-.279-.021-.294.078-.506.19-.175.216-.005.07-.315.706-.759.254-.217.072-.211.144-.047.407-.459.274-.18.183-.682-.025-.346.162-.48.204-.666.292-.392.144-.48.37-.14.39.223.245.03.263-.35.144-.29.479-.262.1-.424-.09-.211.246-.078.339.01.266-.237.223-.454.078-.32-.007-.418.235-.516.258-.294.164-.109.357-.062.095.052.427-.46-.074-.175.512-.676.193-.052.1-.237.101-.14.252-.283.054-.248.152-.093.138-.402.413-.227.477-.197.21-.32.16-.077.588-.155.474-.34.232-.351.212-.005.526-.33.257-.099.17.026.394-.13.217.084.315-.295.382-.273.419-.413.495-.196.378-.026.41.232.157.01.535-.134.263-.325.157-.098.267.026.219.103.237.217.238.113.342-.062.154-.35.34-.217.131.03.208.29.332.015.138-.371-.128-.517.636-.252.36.082.046.284.231.093h.546l.429.088.49-.135.305-.03.34-.145.332.15.1.123.574-.067.241-.325.371.145.664.041.74.145.253.185.323.016.123.247.337.12.3-.073.108.051.013.563.281.242.266.434.477.284.467-.062.404.191h.109l.496.19.495-.04.31.376.38.13.383-.197.161.021.085.237.233.093.609.135.668-.073.302-.253.493-.098.235-.144.817-.031.148.165.862.464.562.357.847.861.637.501.324.336.29.056-.117.733.364.103-.083.346-.16.294-.448.326-.535.593-.265.64.409.573-.003.083.542.495-.018.294-.276.207-.178.413.018.165-.25.428-.332.227-.323-.046-.398.304-.506.124-.541.62-.226.036-.027.402-.745.279-.254.382-.014.48-.127.34-.11.506-.12.207.098.237-.2.32.008.382-.08.516-.198.274-.298.975-.09.408-.181.547-.1-.392-.168-.387-.35-.073-.323.016-.052.124-.497.005-.061.444-.128.33-.123.036-.223.294-.469-.17-.272.098-.373.01-.174-.14-.058-.32-.346-.314-.356-.186-.277-.02-.522-.444-.114.103-.33.057-.472-.134-.176.062-.245-.284-.345-.078-.1.718-.295 1.197-.356.01-.212-.17-.255-.057-.327.021-.24-.3-.419-.252-.575-.005.076.16.004.562-.705.052-.307 1.486-.065.207-.026.428-.37 1.688.11.113.094.295-.161.345-.118 1.074-.282-.041-.129.123-.149.382-.197.336.077.18.044.517.172-.026.15.583-.214.32-.31.201-.318.3-.202.48.02.572.24.775.632.428.267.335-.138 1.337-.035.145.22.196.022.408.194.35.035.568-.151.103-.118.398.028.423-.058.284.008.366.325.532-.099.51-.078.176-.181-.077-.888-.19-.13-.146-.16.12-.654-.16-.444-.021-.173.093-.259-.057-.086.103-.322-.103-.187-.222-.412-.015-.121-.14-.501.114-.358-.047-.142.088-.273.325-.389.207-.585-.005-.337.15-.295.066-.175.155-.297.588-.531.233-.386.542-.12.015-.22.496.143.072.414.402.17.062.182.202.08.345-.087.243-.175.243-.064.407.312.434-.207.402.061.15-.32.434-.053.252-.118.155-.476.258-.068.615-.349.185-.22.057-.087.253-.218.29-.341.21-.363.362-.114-.041-.317-.336-.326-.103-.263.377-.042.51-.369.357-.16.413-.055.542.267.433-.021.103.197.434.261.237.212.088.362.258.111.191.215.062.468-.031.138.485.833.269.075.485-.018.5.266.31-.168.243-.125.47-.396.407-.157.692.028.382-.763 1.579.332.516.288.335.296.181.233.346.083.237.273.33.503.176.232.279.32.196.19.346.51.217.109.247h.166l.31.243.093.196.519.382.288.366.298.093.673-.16.16-.098.282.45.55.505.142.196.44.32.551.31.25.433-1.727.29-1.235.185-1.047.191-2.46.392-1.666.258-.506.207-.819.015-.388.057-1.056-.072.06-.33-.44.278-.433.485-.68.558-.975.748-1.128.924-.121-.036-.212.206-.185-.211-.23-.052-.37.284-.272-.109-.17-.278-.141-.052-.3.036-.236.176-.174-.248-.299-.134-.256.036-.47.273-.203.419-.216.701-.13.315-.19-.046-.05.299.142.661.122.304-.054.248-.13.186-.05 1.383-.916.434-.607.247-.49.676.063.336.166.294-.09.299-.209.243-.16.475-.342.129-.194.48-.15.108-.32.031-.156.274-.233.258.075.382-.055.408-.247.268.082.196-.088.16-.559.367-.228.201.275.485.076 1.037-.441.754-.324.129-.333.062-.423-.005-.328-.325-.171.082-.16.346-.28.346-.494.304-.248.32-.306.222-.059.191-.46.568-.421.392-.22.077-.145 1.007.107.263-.205.392-.34.006-.036.098-.302.253-.148.02-.444.465-.467-.006-.3.057-.308.351-.213.109-.49-.037-.178.083-.808.511-.192.026-.642-.635-.216-.026.007.238-.156.144-.144.367-.346.51-.106.269-.246.253-.108.222-.03.48-.107.005-.665-.274-.387-.433-.2-.026-.125.206-.475-.062-.358-.216-.483-.062-.26.216-.3.568-.293.191-.308-.041-.32-.351-.361-.109-3.054.021-.476.036-.846.124-.92.088"/></svg>