<svg xmlns="http://www.w3.org/2000/svg" width="280" height="232" fill="none" viewBox="0 0 280 232"><path id="Золотоніський" fill="#C8C6C6" fill-rule="evenodd" d="m242.923 118.191-.062.047-2.066 1.058-2.457-1.951-1.828-.015-.695-.62-1.072-2.957-1.257-1.874-1.236-1.052-4.069-1.474-2.895.131-.927.097-4.162.308-.788-1.059-.669-.536-2.241-1.867-.222-2.986-1.983-2.882-.041-.024-1.329-.214-.659-1.076-1.128-.347-1.339.692-2.313-.07-.108-.017-.829-.68.659-.749-4.852-5.592-.33.86-1.689-.317-.655-1.146-.613-.6-.746-1.855-2.766-.722-1.391.64-1.54-.146-1.942-1.3-2.251-1.52-3.327-4.039-.17-.187.499-1.092-.747-1.678-1.153-.762-.294-.24-1.226.493-.67-.226-4.316-.105-.917-.555-.613-.17.067-.65-.149-.09v-.24l-.216-.135-.217-.295.01-.162.325-.017-.252-.284-.263-.124-.778-.17-.556.083.443-.7.293-.597-.139-.143.17-.252 1.396-.749.253-.477.437-1.34-.015-.31.376-.226-.124-.205.423-.245.087-.105.124-.5-.268-.096-.443.164-.33-.81.103-.097-.051-.408.556-.317.562-2.225.731-2.975 1.514-.856.042-.449.072-1.367.01-.609-2.225-.003.057-.313-.021-.746-.087-.82.911-.198.108-2.359.124-2.163.026-.115.118-2.208 1.736-.384-.196-.175-.288-.142-.412-.442-.17-.122.391-.422 1.118-2.025 1.046-1.86.525-.968 1.865-.01-.031-.605-.242-1.88-.078-.843.062-.185.866-.74.267-.1.778-.734.165-.197 1.525-3.258.051-.213-.041-.774 1.391.095 2.627.2 2.441.168.031.295-.01.945.123.266.443.056.392.907.278-.413.783-1.274.34-.549.036-.128-.222-2.982-.18-.578.423-.31-.093-.417-.423.099-.2-2.025-.129-.511-.376-.335-.35-.503.576-.131-.113-.434.67-.449.087-.144 1.128-.326 3.441-1.82.227.276.736.46.577-1.797-.376-.058-2.998-.616-.237-.032-1.586-.331-.247.1-.165.173-.294-.044-.046.523-.623.107-.134-.172-.273-.133.298-.672.304-5.051.031-.178 1.226-.72 1.772-1.079 1.288-.747 1.092-.664-.881-1.25-.572-.852-.968.599-1.061-2.877 1.679.557.974.338.479-1.18.051-.058.768-1.753.674-1.262.964-1.383-.763-.33.206-.597 1.051-.358.979-.281.566.66.181.355.515.598.783.51.17.19.499.02.577.1 1.056-1.888 1.499-2.578 1.828.19.145-1.133.721.018.628.474-1.179 1.62 2.065 1.805.968.82.639.574.438.074.237.056.051.945.711 1.096.423.925 1.89.548 1.195.334.067-.072.355.105.072.114.984.26.052.069.458.129-.01.077.422.153.031-.098.814.236-.01.09.639.188-.005.196.597.17.108-.172.912.26.046-.063 1.221.329.026.105.474.123.407 2.86-1.566-.101-2.694.728-.237.003-.113.25.165.31.468.473.109.266.515.19.149.25.567.337.345.329-.15.068-.381.558-.453.555-.314.75.422.77.057.022.855 1.55.711.8 1.751 1.936.288.299.34.377.618-.09.093-.252.119-.626.237-.853.581-.719.428.394.422.306.402.666.144.03-.262.463-.175.758v.28l.865.181.819.13.288 3.337.052.805.747.2.144 2.572 1.138.737 1.108.662 1.936 1.316-.206.604.031.227-.139.319-.571 2.256.149-.026.484.162.376.271-.134.535-.747-.125-.051 1.322-.392 1.926.284.514.649.758.788.755-1.7 1.113-.963.59-.67-.988-.206-.266-.566.477-1.025.877.412.434 1.241 1.399v.08l1.004 1.082.402.492.144.479.289.595.628.632-.087.184 1.323 1.54.619 1.927.406 1.386 1.577-.35 1.468-.363.798-.162.762-.186.021.283.875 3.669 1.839.072.66.038 1.014.005.567 1.056.268.542.592 1.095-.093.333-.273.572.485 5.648.01.043 1.777.684 1.257.453 4.589 1.747-.309.469.242.09.587-.031.371.13.155.312-.361.198.448.368.278.087-.036.2.33.56.381.262.252.317.402-.022.052-.176.268.074.01.36.304.127.309-.07.154.18-.082.174-.263.253.309.09-.144.275-.417-.058-.108.085.175.503.262.431.011.22-.186.495.242.042.382.527.257 2.447-1.02 1.23 1.535.732 1.061.56 1.298 1.138.397.633-.026.143-.479.276.103.244.216.168-.201.489.294-.04.129.237.051.316-.262.316.133.268-.231.09.046.34.139.062-.067.34.304-.009.093.41-.268.064.268.301-.366.119-.108-.238-.294.106-.026.324.423.183.046.09-.216.258.386.04.149.251-.17.165-.473.039.113 1.903-.252.005-.093.203-.505.476-.149.21-.263.072-1.339 1.02-.144.505-.16.305-.381.212-1.087.013-1.041-.012-.473.063-.243.16-.576 1.201-.088.691.036.9.057.155-.278.595-.011.338-.087.275.02.608-.062.269.237.515.15.153.077.51.124.24.01.211-.294.37-.556.225-.057-.047-.654.371-.201.256-.056.413.041.183.196.041.381.309.031.471.134-.04.448.205.649.09.381-.078.185.409.026.538.067.412-.067.9-.164.438.01.19-.119.439.268.557.407.601.082.272.232.416.258.301.484.228.665-.14.257-.167.33-.003.345.321.381.483.366.252.18.212.324.222.376.031.124.154-.165.418.041.424-.072.16.026.278.15.253-.052.238.144.464-.046.269-.783.041-.469-.134-.479-.026-.386-.072-1.458.129-.654.103-1.107-.026-.253-.093-.432-.33-.325-.047-.463.021-.433-.067-.525-.243-.392-.258-.623-.521-.392-.124-.309-.222-.901-.403-.515-.402-.598-.351-.36-.093-.387-.186-.911-.027-.438-.138-.314-.01-.567-.326-.396-.093v-.257l-.299-.014-.108.128.113.254-.366.167-.525-.049-.495-.173-.546-.394-.273-.386-.381-.265-.175-.414-.067-.371-.093-.129.073-.34-.31-.48-.324-.221-.309-.09-.263-.238-.262.327-.047.464-.283.21-.443.112-.16.148-.144.289-.041 1.295-.469 1.134-.067.325-.809 1.079-.087.284-.005.722-.083.382-1.205.873-.165.289-.041.247.124.46.53.191.448-.047.376-.129.139.207-.386.407-.283.227-.387.873" clip-rule="evenodd"/><path stroke="#000" stroke-linecap="round" stroke-linejoin="round" stroke-width=".2" d="m242.923 118.191-.062.047-2.066 1.058-2.457-1.951-1.828-.015-.695-.62-1.072-2.957-1.257-1.874-1.236-1.052-4.069-1.474-2.895.131-.927.097-4.162.308-.788-1.059-.669-.536-2.241-1.867-.222-2.986-1.983-2.882-.041-.024-1.329-.214-.659-1.076-1.128-.347-1.339.692-2.313-.07-.108-.017-.829-.68.659-.749-4.852-5.592-.33.86-1.689-.317-.655-1.146-.613-.6-.746-1.855-2.766-.722-1.391.64-1.54-.146-1.942-1.3-2.251-1.52-3.327-4.039-.17-.187.499-1.092-.747-1.678-1.153-.762-.294-.24-1.226.493-.67-.226-4.316-.105-.917-.555-.613-.17.067-.65-.149-.09v-.24l-.216-.135-.217-.295.01-.162.325-.017-.252-.284-.263-.124-.778-.17-.556.083.443-.7.293-.597-.139-.143.17-.252 1.396-.749.253-.477.437-1.34-.015-.31.376-.226-.124-.205.423-.245.087-.105.124-.5-.268-.096-.443.164-.33-.81.103-.097-.051-.408.556-.317.562-2.225.731-2.975 1.514-.856.042-.449.072-1.367.01-.609-2.225-.003.057-.313-.021-.746-.087-.82.911-.198.108-2.359.124-2.163.026-.115.118-2.208 1.736-.384-.196-.175-.288-.142-.412-.442-.17-.122.391-.422 1.118-2.025 1.046-1.86.525-.968 1.865-.01-.031-.605-.242-1.88-.078-.843.062-.185.866-.74.267-.1.778-.734.165-.197 1.525-3.258.051-.213-.041-.774 1.391.095 2.627.2 2.441.168.031.295-.01.945.123.266.443.056.392.907.278-.413.783-1.274.34-.549.036-.128-.222-2.982-.18-.578.423-.31-.093-.417-.423.099-.2-2.025-.129-.511-.376-.335-.35-.503.576-.131-.113-.434.67-.449.087-.144 1.128-.326 3.441-1.82.227.276.736.46.577-1.797-.376-.058-2.998-.616-.237-.032-1.586-.331-.247.1-.165.173-.294-.044-.046.523-.623.107-.134-.172-.273-.133.298-.672.304-5.051.031-.178 1.226-.72 1.772-1.079 1.288-.747 1.092-.664-.881-1.25-.572-.852-.968.599-1.061-2.877 1.679.557.974.338.479-1.18.051-.058.768-1.753.674-1.262.964-1.383-.763-.33.206-.597 1.051-.358.979-.281.566.66.181.355.515.598.783.51.17.19.499.02.577.1 1.056-1.888 1.499-2.578 1.828.19.145-1.133.721.018.628.474-1.179 1.62 2.065 1.805.968.82.639.574.438.074.237.056.051.945.711 1.096.423.925 1.89.548 1.195.334.067-.072.355.105.072.114.984.26.052.069.458.129-.01.077.422.153.031-.098.814.236-.01.09.639.188-.005.196.597.17.108-.172.912.26.046-.063 1.221.329.026.105.474.123.407 2.86-1.566-.101-2.694.728-.237.003-.113.25.165.31.468.473.109.266.515.19.149.25.567.337.345.329-.15.068-.381.558-.453.555-.314.75.422.77.057.022.855 1.55.711.8 1.751 1.936.288.299.34.377.618-.09.093-.252.119-.626.237-.853.581-.719.428.394.422.306.402.666.144.03-.262.463-.175.758v.28l.865.181.819.13.288 3.337.052.805.747.2.144 2.572 1.138.737 1.108.662 1.936 1.316-.206.604.031.227-.139.319-.571 2.256.149-.026.484.162.376.271-.134.535-.747-.125-.051 1.322-.392 1.926.284.514.649.758.788.755-1.7 1.113-.963.59-.67-.988-.206-.266-.566.477-1.025.877.412.434 1.241 1.399v.08l1.004 1.082.402.492.144.479.289.595.628.632-.087.184 1.323 1.54.619 1.927.406 1.386 1.577-.35 1.468-.363.798-.162.762-.186.021.283.875 3.669 1.839.072.66.038 1.014.005.567 1.056.268.542.592 1.095-.093.333-.273.572.485 5.648.01.043 1.777.684 1.257.453 4.589 1.747-.309.469.242.09.587-.031.371.13.155.312-.361.198.448.368.278.087-.036.2.33.56.381.262.252.317.402-.022.052-.176.268.074.01.36.304.127.309-.07.154.18-.082.174-.263.253.309.09-.144.275-.417-.058-.108.085.175.503.262.431.011.22-.186.495.242.042.382.527.257 2.447-1.02 1.23 1.535.732 1.061.56 1.298 1.138.397.633-.026.143-.479.276.103.244.216.168-.201.489.294-.04.129.237.051.316-.262.316.133.268-.231.09.046.34.139.062-.067.34.304-.009.093.41-.268.064.268.301-.366.119-.108-.238-.294.106-.026.324.423.183.046.09-.216.258.386.04.149.251-.17.165-.473.039.113 1.903-.252.005-.093.203-.505.476-.149.21-.263.072-1.339 1.02-.144.505-.16.305-.381.212-1.087.013-1.041-.012-.473.063-.243.16-.576 1.201-.088.691.036.9.057.155-.278.595-.011.338-.087.275.02.608-.062.269.237.515.15.153.077.51.124.24.01.211-.294.37-.556.225-.057-.047-.654.371-.201.256-.056.413.041.183.196.041.381.309.031.471.134-.04.448.205.649.09.381-.078.185.409.026.538.067.412-.067.9-.164.438.01.19-.119.439.268.557.407.601.082.272.232.416.258.301.484.228.665-.14.257-.167.33-.003.345.321.381.483.366.252.18.212.324.222.376.031.124.154-.165.418.041.424-.072.16.026.278.15.253-.052.238.144.464-.046.269-.783.041-.469-.134-.479-.026-.386-.072-1.458.129-.654.103-1.107-.026-.253-.093-.432-.33-.325-.047-.463.021-.433-.067-.525-.243-.392-.258-.623-.521-.392-.124-.309-.222-.901-.403-.515-.402-.598-.351-.36-.093-.387-.186-.911-.027-.438-.138-.314-.01-.567-.326-.396-.093v-.257l-.299-.014-.108.128.113.254-.366.167-.525-.049-.495-.173-.546-.394-.273-.386-.381-.265-.175-.414-.067-.371-.093-.129.073-.34-.31-.48-.324-.221-.309-.09-.263-.238-.262.327-.047.464-.283.21-.443.112-.16.148-.144.289-.041 1.295-.469 1.134-.067.325-.809 1.079-.087.284-.005.722-.083.382-1.205.873-.165.289-.041.247.124.46.53.191.448-.047.376-.129.139.207-.386.407-.283.227-.387.873"/><path id="Звенигородський" fill="#C8C6C6" fill-rule="evenodd" d="m167.79 176.335.118.051.139.372-.195.32-.309-.072-1.468 1.259.69.79-.814 1.951-.247.666.675.263-.263.702-.155.144-1.452.847-1.097.681.082 1.528-2.009.691-1.164.434-1.916.882-2.89 2.4-.958.805 1.128 1.249-1.019 1.404-.212-.046.201-.532-.056-.232-.346-.305-.025-.382-.505-.222-.175.129.345.579-.021.392-.324.542-.577.593-.51.238-.124.196-.252.088-.191-.284.206-.279.325-.712.005-.367-.144-.093-.181.093.006.253-.16.263-.211-.005-.211.258.077.186-.211.31-.093.356.103.552-.067.31-.412.082-.33-.154-.381-.098-.19-.253.072-.439-.577-.346.015-.237-.479-.269-.33.067-.149.129.01.367.093.289-.01.263.159.201-.113.506-.252.031-.253-.129-.453.005-.721.274-.34.057-.412-.295.041-.289-.288.042-.227-.078.072-.304-.319-.315.18-.397-.031-.439-.268-.299-.283-.444-.052-.398.176-.325-.274-.66-.448-.006-.175-.098-.463.109-.325.165-.453-.026-.211-.124-.263.356-.335.227-.438.021-.468.222-.32.356-.319.041-.294-.314-.118-.264v-.206l-.237-.356-.062-.279.134-.562-.314-.315-.448-.052-.155.062-.489.046-.335.14-.237-.026-.546-.248-.628-.17-.021.206-.128.104.072.407-.011.583-.139.15-.242-.051-.448.237-.391-.336-.371-.206-.531-.031-.443.139-.278-.072-.216-.181-.35-.098-.176.109-.437.645-.356.464-.391.847-.155.433-.453.356-.175-.061-.041-.212-.237-.274-.016-.175-.273-.186-.19.238-.222-.062-.17.149-.067.372-.335.532-.185.067-.227-.548-.133-.077-.212.067-.082.222-.227.279.026.609-.108.439-.324.17-.212-.15-.324-.062-.217-.16.047-.165-.242-.449-.021-.382-.134-.191-.201.072-.535-.201-.278.243-.17.299.17.325.026.243-.289.051-.33-.34-.386-.119-.263-.15-.2.037-.366-.212-.077-.361.113-.238.206-.175-.201-.382-.391.005-.222-.305-.051-.32-.134-.35-.165-.145-.371.057-.324.433-.459-.258-.175-.624-.119-.165-.283-.129-.376.092-.283-.041-.304-.139-.417-.026-.273.103-.057.186-.211.057-.531.02-.041.207-.432.036-.474-.593-.072-.197-.577-.154-.794.263-.623.18-.263-.16-.154.145-.299-.16-.226-.201-.109-.258-.159-.109-.057-.392-.165.041-.299-.124-.061-.139-.634-.083-.108.119.087.49.356.341-.067.712-.417-.103-.072-.16-.206.057-.438-.15-.428.134-.767.083-.773-.165-.572-.041-.309.206-.113.155-.196.568.196.794-.144.377-.69-.01-.371.206-.361-.139-.206-.454-.154-.119-.696-.108-.577-.011-.989-.154-.118.34-.113.109-.819-.227-.309.02-.17-.175-.036-.444-.098-.258-.443-.682-.005-.103-.289-.495-.721-.387-.644 1.615-1.391-.552-2.204-.862-.7-.284-.166 1.192-.365.026-.922-.005-1.293-.052-1.906-.81-1.082.413-2.426.939-1.673.64-.098 1.409-.042.238-.535-.016-.598-.077-1.087 2.648-.685-.238-.52.036-.257.062-.304-.325-.387.119-.273.005-.386.139-.299-.356-1.076-1.099-1.345.965-1.54-2.044.51-.335-.438-.491-2.735-2.895-.196.175-2.07-2.24.139-.134.278.011.129-.233 1.18-2.596-.634-.624-.459-.264.34-.676.397-.113.35-.325 1.865-1.693 1.138-1.017.211-.212.984-.887-.886-.547-.84-.542-1.514-.96-1.123-.511-1.004-.676.041.253.314.443-.035.176-.361.144-.464-.273-.195-.176-.438.243-.093-.428-.15-.021.114-.495.036-.408-.278-.237-.082-.3.092-.206-.03-.238-.81-.604.31-.825.288.005.268-.3.015-.299.14-.439.133-.206-.046-.305.093-.108.278-.067.345.258.51.305.68-.486-.217-.18-.144.02-.417-.232.072-.645.124-.16.365-.155.237-.258-.154-.186.195-.304-.2-.429-.634.093.067.16-.237.181-.16-.434.196-.149.35.087.3-.34.159.247.55-1.187-.38-.062-.448-.356.484-.671.494-.727-.185-.191.247-.202-.175-.232 1.56-1.393.217.304.278-.119.551-.108.19-.155-.112-.31-.376-.268-.34-.31.288-.686.458.093.366.134.484-1.171.026-.109.299-.108.19.371.165.062.232-.289.263.073.376-.801-.19-.098.978-2.1.33.16-.33-1.822-.093-.392-1.828-.604.108-.263-.119-.202.016-.18.247-.393.098-.898.242-.402v-.413l.211-.088.304-.469.015-.171-.154-.423-.32-1.058.32-.263.355-.073.206-.154.041-.238-1.4-.635.154-.366-.118-.077.056-.475.186-.542.139-.676.299-1.079.942-.129.371-1.471.479-1.75.17-.536-.536-.702-.056-.687-.093-.304-1.154.5-1.05.434-.959.325-1.056.237-.18-.366-1.061.248-1.437.356-.129-.661-.299-1.806.062-.991.14-1.734-1.623-.114-.15-.041-1.555-.062-.68-.289-.402.387-.36-.372-1.175-.872-.226-.211-.557-.062.134-.615-.02-.521-.103-.335.087-.294-.365-.351-.175-.078 2.065-.021-.036-.32.458.114 1.036.356-.093.32 1.288.449 1.766.243 1.85.232.422.139.278-1.192.206-.965.366-1.518.263-1.145.427-1.518.17-.552-.263.005-.2-.232-.33-.083-1.921-1.182-1.123-.634-.927-.62.556-1.961-1.133-.867-.618-.315-.47-.371-1.519-.104-.618-3.659 1.71-.294.423-.129.237-.351-.35-1.982.01-.082.175.036.396-.124.222-.465.175-.155.257.031.222-.129.35-.02.14-.078 1.07-.743 2.066 2.988 1.525 1.853 1.045-.284.747.248.86.181.109-.356-.191-.279.052-.119-.093-.485.365-.196v-.15l.438-.031.134-.18.031-.346.186-.325.206-.14.103-.309.206-.14.108-.232.247-.196.438-.021.206.083.196.351.35.072 1.89-2.529.103-.144 1.257.877 1.453.97 1.797-.573.052.609.268.233.422-.284.19.16.279.067.252-.077 1.499 1.378.901.882.186-.149.443.092.293-.067 1.005.873 1.756-1.704 2.473.171 1.566-1.213.236-.119 1.262.047.273-.212.521.15.891.505.35-.366.165.041.649-.031.819-.077.489.309.18.042.181-.134.185-.341.361-.196.371-.284.273-.093-.006-.263.294-.289.845.026 1.133.557.041-.108.412-1.28.381-1.1.253-.491.309.323.432-.185-.252-1.299.113-.136.665-.392-.17-.262-.077-.47.278-.852-.598-.325-.726-.793.695-.383.603-.228 1.334-.421.345-.071 2.035.075.597.15.495-.035 1.092-1.124-.026-.336-.083-2.233.644-.843.706-.981.685-.907.19.25.073.461.139.217.051.405-.18.287.221.233.17-.078.16.229.355-.103.114-.103-.062-.368.098-.12-.448-.996-.026-.482.067-.1.633-.34.011-.21 1.019.009.124-.362.129-.117.499-.237.165.117.495-.077.371-.21.247.01.407-.193.422.31-.103.389 1.447.666-.056.126.314.12-.046.22-.242.567.901.634.02.26.176.119-.011.469-.226.175.062.417-.145.165.227.273.273.131.216-.183.448.458.243-.005.185-.109.216.046.263.181-.026.528-.129.185-.504.42.056.222-.062.226-.211-.104-.036.284-.196.26.17.187.186.343.309.066.093-.281.288-.2.561.102.206.222.279.019.298.205.222.052.412.653.196.203.432.269.691.261.654.042.35-.124.242.09.417-.03.33-.123.463-.096.181-.322.273-.112.314.269.309.168.118.238-.072.226-.072.928.144.251-.252.068v.186l-.242.08-.072.532-.16.031-.098.231-.139.005-.062-.451-.36.057.015.205-.118.217-.18.117-.124-.544.134-.413-1.036.513.109.141.798.311.18.006.278-.102.861-.066 1.184-.12h.237l.232-.191.319.026.031.463.253.159-.026.247.324.342.325-.262.175-.263.397.092.479.01.154-.452-.273-.558.309-.378.35.249-.015.246.206-.048 1.041.373.221-.581-.35-.219-.623-.093-.176-.931.196-.247.443.032.263-.046-.036-.369.922.235.18-.089.242-.385.17-.023.211.19.011.294.18.488.319.204.459-.367.288-.445.536-.502.355.028.217-.414-.119-.3-.397-.544-.082-.297-.206-.292.211-.541.49.099.298-.236.371.01-.18.21.015.155.253.125.309-.05.34-.144.432-.071.253-.13.072.154.35-.108.309-.941.412-.17.196-.195.247-.014-.01.269.536.06.175.375-.737.241-.108.14-.484.275-.124-.097-.226.06-.104.143-.978.095-.453.106-.217.124-.149.32-.459.212-.298.032-.036.141.34.017.283.142.901.368h.335l.85.197.263.135.309-.115.206.293.422.175.417.354.248.06.293-.041.592.223.253-.027.237.133.35.766.242.206-.026.358.237.319.392.017.077 1.362-.242.026.371 1.519.381 1.502-.067 1.007.01.196-.226.248.031.252-.212.264-.067.278-.453.279-.386.723-.139.015-.072.465-.897.366-.247.041-.767.439-.737-.681-1.035-.749-.433-.211-.268-.078-.036-.402-.278-.573-.572-.625-.505-.449h-.133l-.057-.407-1.901.103-.031.02-.288 1.543-.335 1.884-.376.036-.433-.098-.139.171-.195.433-.258.078-.299-.238-.262.372.329.346.222.015.134.165.139.408-.073.134.098.532-.34.65v.356l-.123.145-.186.418-.036.444-.113.237.227.201.056.465.124.273.149.114.129.32-.221.253-.067.407-.315.527v.196l.181.511v.351l-.139.614.01.361.216.021 1.35-.093.154.981.011 1.378.262.351.289.211.525.491.757-.109 1.643 1.27-.01.609.206.088.345.036.407.542.222.185.86-.258.201.212.231.754.201.108.222-.083.881-.139.303.155-.036.294v.63l.088.201h.453l4.42.975.499-.026.212-.314.031-.248.247.243-.242.247.005.201.618.099-.02.237.288.103.175.392-.19.238-.062.242-.278.217.7.929.031.336.68 1.269.979.996.103.031.468-.469.634 1.61.211.496 1.241-.475.825.346.139.16-.598 2.007 2.823.387 2.23 1.569 1.721 1.255.443-.083.448-.031-.253 2.131.078.279-.104.97-.01 1.12.217 1.224.618 3.421.278 1.477.257 1.434-.623.109-.108 2.89-.01.898-.052.759.649.304 1.236.542 1.082.501.175.149.016.228.18.247.288.176.412.433.304.578.175.14.299-.315.67-.552.35-.496.196-.753.139-.171-.067-.165.02-.356-.535-.351.262-.65 1.87-.325-.108-.811.026-.082.927-.104.02.166-.309.294.284.124-.428 1.151-.221.469.123.842.464.593.062-.031.386.496 1.303-1.007 1.442 1.683-.376.438.5.563.345.346.175.423-.123.17-.742.31-.732.712-2.163-.986-.953.14-1.313.222-.227.469.253.439.061.289-.314 1.59-.031.33-.515 1.352-.479-.186-.278-.531-.093.113-.86.016-.35-.052-.258.057-.742-.232-.716.273-.293-.067-.057-.17-.077-.759-.577.186-.561.088-.536.025-.124.393-.88.433-.505-.382-.433.599.355.294-.17.377-.164.093-.701.191-.206-.047-.5.377-.113-.619 1.319-1.739-1.133-.852-1.242 1.641.448-.02.212.304.133-.015.134.325-.793.485.304.454.567.377.026.119-.139.289-.274.139.407.356" clip-rule="evenodd"/><path stroke="#000" stroke-linecap="round" stroke-linejoin="round" stroke-width=".2" d="m167.79 176.335.118.051.139.372-.195.32-.309-.072-1.468 1.259.69.79-.814 1.951-.247.666.675.263-.263.702-.155.144-1.452.847-1.097.681.082 1.528-2.009.691-1.164.434-1.916.882-2.89 2.4-.958.805 1.128 1.249-1.019 1.404-.212-.046.201-.532-.056-.232-.346-.305-.025-.382-.505-.222-.175.129.345.579-.021.392-.324.542-.577.593-.51.238-.124.196-.252.088-.191-.284.206-.279.325-.712.005-.367-.144-.093-.181.093.006.253-.16.263-.211-.005-.211.258.077.186-.211.31-.093.356.103.552-.067.31-.412.082-.33-.154-.381-.098-.19-.253.072-.439-.577-.346.015-.237-.479-.269-.33.067-.149.129.01.367.093.289-.01.263.159.201-.113.506-.252.031-.253-.129-.453.005-.721.274-.34.057-.412-.295.041-.289-.288.042-.227-.078.072-.304-.319-.315.18-.397-.031-.439-.268-.299-.283-.444-.052-.398.176-.325-.274-.66-.448-.006-.175-.098-.463.109-.325.165-.453-.026-.211-.124-.263.356-.335.227-.438.021-.468.222-.32.356-.319.041-.294-.314-.118-.264v-.206l-.237-.356-.062-.279.134-.562-.314-.315-.448-.052-.155.062-.489.046-.335.14-.237-.026-.546-.248-.628-.17-.021.206-.128.104.072.407-.011.583-.139.15-.242-.051-.448.237-.391-.336-.371-.206-.531-.031-.443.139-.278-.072-.216-.181-.35-.098-.176.109-.437.645-.356.464-.391.847-.155.433-.453.356-.175-.061-.041-.212-.237-.274-.016-.175-.273-.186-.19.238-.222-.062-.17.149-.067.372-.335.532-.185.067-.227-.548-.133-.077-.212.067-.082.222-.227.279.026.609-.108.439-.324.17-.212-.15-.324-.062-.217-.16.047-.165-.242-.449-.021-.382-.134-.191-.201.072-.535-.201-.278.243-.17.299.17.325.026.243-.289.051-.33-.34-.386-.119-.263-.15-.2.037-.366-.212-.077-.361.113-.238.206-.175-.201-.382-.391.005-.222-.305-.051-.32-.134-.35-.165-.145-.371.057-.324.433-.459-.258-.175-.624-.119-.165-.283-.129-.376.092-.283-.041-.304-.139-.417-.026-.273.103-.057.186-.211.057-.531.02-.041.207-.432.036-.474-.593-.072-.197-.577-.154-.794.263-.623.18-.263-.16-.154.145-.299-.16-.226-.201-.109-.258-.159-.109-.057-.392-.165.041-.299-.124-.061-.139-.634-.083-.108.119.087.49.356.341-.067.712-.417-.103-.072-.16-.206.057-.438-.15-.428.134-.767.083-.773-.165-.572-.041-.309.206-.113.155-.196.568.196.794-.144.377-.69-.01-.371.206-.361-.139-.206-.454-.154-.119-.696-.108-.577-.011-.989-.154-.118.34-.113.109-.819-.227-.309.02-.17-.175-.036-.444-.098-.258-.443-.682-.005-.103-.289-.495-.721-.387-.644 1.615-1.391-.552-2.204-.862-.7-.284-.166 1.192-.365.026-.922-.005-1.293-.052-1.906-.81-1.082.413-2.426.939-1.673.64-.098 1.409-.042.238-.535-.016-.598-.077-1.087 2.648-.685-.238-.52.036-.257.062-.304-.325-.387.119-.273.005-.386.139-.299-.356-1.076-1.099-1.345.965-1.54-2.044.51-.335-.438-.491-2.735-2.895-.196.175-2.07-2.24.139-.134.278.011.129-.233 1.18-2.596-.634-.624-.459-.264.34-.676.397-.113.35-.325 1.865-1.693 1.138-1.017.211-.212.984-.887-.886-.547-.84-.542-1.514-.96-1.123-.511-1.004-.676.041.253.314.443-.035.176-.361.144-.464-.273-.195-.176-.438.243-.093-.428-.15-.021.114-.495.036-.408-.278-.237-.082-.3.092-.206-.03-.238-.81-.604.31-.825.288.005.268-.3.015-.299.14-.439.133-.206-.046-.305.093-.108.278-.067.345.258.51.305.68-.486-.217-.18-.144.02-.417-.232.072-.645.124-.16.365-.155.237-.258-.154-.186.195-.304-.2-.429-.634.093.067.16-.237.181-.16-.434.196-.149.35.087.3-.34.159.247.55-1.187-.38-.062-.448-.356.484-.671.494-.727-.185-.191.247-.202-.175-.232 1.56-1.393.217.304.278-.119.551-.108.19-.155-.112-.31-.376-.268-.34-.31.288-.686.458.093.366.134.484-1.171.026-.109.299-.108.19.371.165.062.232-.289.263.073.376-.801-.19-.098.978-2.1.33.16-.33-1.822-.093-.392-1.828-.604.108-.263-.119-.202.016-.18.247-.393.098-.898.242-.402v-.413l.211-.088.304-.469.015-.171-.154-.423-.32-1.058.32-.263.355-.073.206-.154.041-.238-1.4-.635.154-.366-.118-.077.056-.475.186-.542.139-.676.299-1.079.942-.129.371-1.471.479-1.75.17-.536-.536-.702-.056-.687-.093-.304-1.154.5-1.05.434-.959.325-1.056.237-.18-.366-1.061.248-1.437.356-.129-.661-.299-1.806.062-.991.14-1.734-1.623-.114-.15-.041-1.555-.062-.68-.289-.402.387-.36-.372-1.175-.872-.226-.211-.557-.062.134-.615-.02-.521-.103-.335.087-.294-.365-.351-.175-.078 2.065-.021-.036-.32.458.114 1.036.356-.093.32 1.288.449 1.766.243 1.85.232.422.139.278-1.192.206-.965.366-1.518.263-1.145.427-1.518.17-.552-.263.005-.2-.232-.33-.083-1.921-1.182-1.123-.634-.927-.62.556-1.961-1.133-.867-.618-.315-.47-.371-1.519-.104-.618-3.659 1.71-.294.423-.129.237-.351-.35-1.982.01-.082.175.036.396-.124.222-.465.175-.155.257.031.222-.129.35-.02.14-.078 1.07-.743 2.066 2.988 1.525 1.853 1.045-.284.747.248.86.181.109-.356-.191-.279.052-.119-.093-.485.365-.196v-.15l.438-.031.134-.18.031-.346.186-.325.206-.14.103-.309.206-.14.108-.232.247-.196.438-.021.206.083.196.351.35.072 1.89-2.529.103-.144 1.257.877 1.453.97 1.797-.573.052.609.268.233.422-.284.19.16.279.067.252-.077 1.499 1.378.901.882.186-.149.443.092.293-.067 1.005.873 1.756-1.704 2.473.171 1.566-1.213.236-.119 1.262.047.273-.212.521.15.891.505.35-.366.165.041.649-.031.819-.077.489.309.18.042.181-.134.185-.341.361-.196.371-.284.273-.093-.006-.263.294-.289.845.026 1.133.557.041-.108.412-1.28.381-1.1.253-.491.309.323.432-.185-.252-1.299.113-.136.665-.392-.17-.262-.077-.47.278-.852-.598-.325-.726-.793.695-.383.603-.228 1.334-.421.345-.071 2.035.075.597.15.495-.035 1.092-1.124-.026-.336-.083-2.233.644-.843.706-.981.685-.907.19.25.073.461.139.217.051.405-.18.287.221.233.17-.078.16.229.355-.103.114-.103-.062-.368.098-.12-.448-.996-.026-.482.067-.1.633-.34.011-.21 1.019.009.124-.362.129-.117.499-.237.165.117.495-.077.371-.21.247.01.407-.193.422.31-.103.389 1.447.666-.056.126.314.12-.046.22-.242.567.901.634.02.26.176.119-.011.469-.226.175.062.417-.145.165.227.273.273.131.216-.183.448.458.243-.005.185-.109.216.046.263.181-.026.528-.129.185-.504.42.056.222-.062.226-.211-.104-.036.284-.196.26.17.187.186.343.309.066.093-.281.288-.2.561.102.206.222.279.019.298.205.222.052.412.653.196.203.432.269.691.261.654.042.35-.124.242.09.417-.03.33-.123.463-.096.181-.322.273-.112.314.269.309.168.118.238-.072.226-.072.928.144.251-.252.068v.186l-.242.08-.072.532-.16.031-.098.231-.139.005-.062-.451-.36.057.015.205-.118.217-.18.117-.124-.544.134-.413-1.036.513.109.141.798.311.18.006.278-.102.861-.066 1.184-.12h.237l.232-.191.319.026.031.463.253.159-.026.247.324.342.325-.262.175-.263.397.092.479.01.154-.452-.273-.558.309-.378.35.249-.015.246.206-.048 1.041.373.221-.581-.35-.219-.623-.093-.176-.931.196-.247.443.032.263-.046-.036-.369.922.235.18-.089.242-.385.17-.023.211.19.011.294.18.488.319.204.459-.367.288-.445.536-.502.355.028.217-.414-.119-.3-.397-.544-.082-.297-.206-.292.211-.541.49.099.298-.236.371.01-.18.21.015.155.253.125.309-.05.34-.144.432-.071.253-.13.072.154.35-.108.309-.941.412-.17.196-.195.247-.014-.01.269.536.06.175.375-.737.241-.108.14-.484.275-.124-.097-.226.06-.104.143-.978.095-.453.106-.217.124-.149.32-.459.212-.298.032-.036.141.34.017.283.142.901.368h.335l.85.197.263.135.309-.115.206.293.422.175.417.354.248.06.293-.041.592.223.253-.027.237.133.35.766.242.206-.026.358.237.319.392.017.077 1.362-.242.026.371 1.519.381 1.502-.067 1.007.01.196-.226.248.031.252-.212.264-.067.278-.453.279-.386.723-.139.015-.072.465-.897.366-.247.041-.767.439-.737-.681-1.035-.749-.433-.211-.268-.078-.036-.402-.278-.573-.572-.625-.505-.449h-.133l-.057-.407-1.901.103-.031.02-.288 1.543-.335 1.884-.376.036-.433-.098-.139.171-.195.433-.258.078-.299-.238-.262.372.329.346.222.015.134.165.139.408-.073.134.098.532-.34.65v.356l-.123.145-.186.418-.036.444-.113.237.227.201.056.465.124.273.149.114.129.32-.221.253-.067.407-.315.527v.196l.181.511v.351l-.139.614.01.361.216.021 1.35-.093.154.981.011 1.378.262.351.289.211.525.491.757-.109 1.643 1.27-.01.609.206.088.345.036.407.542.222.185.86-.258.201.212.231.754.201.108.222-.083.881-.139.303.155-.036.294v.63l.088.201h.453l4.42.975.499-.026.212-.314.031-.248.247.243-.242.247.005.201.618.099-.02.237.288.103.175.392-.19.238-.062.242-.278.217.7.929.031.336.68 1.269.979.996.103.031.468-.469.634 1.61.211.496 1.241-.475.825.346.139.16-.598 2.007 2.823.387 2.23 1.569 1.721 1.255.443-.083.448-.031-.253 2.131.078.279-.104.97-.01 1.12.217 1.224.618 3.421.278 1.477.257 1.434-.623.109-.108 2.89-.01.898-.052.759.649.304 1.236.542 1.082.501.175.149.016.228.18.247.288.176.412.433.304.578.175.14.299-.315.67-.552.35-.496.196-.753.139-.171-.067-.165.02-.356-.535-.351.262-.65 1.87-.325-.108-.811.026-.082.927-.104.02.166-.309.294.284.124-.428 1.151-.221.469.123.842.464.593.062-.031.386.496 1.303-1.007 1.442 1.683-.376.438.5.563.345.346.175.423-.123.17-.742.31-.732.712-2.163-.986-.953.14-1.313.222-.227.469.253.439.061.289-.314 1.59-.031.33-.515 1.352-.479-.186-.278-.531-.093.113-.86.016-.35-.052-.258.057-.742-.232-.716.273-.293-.067-.057-.17-.077-.759-.577.186-.561.088-.536.025-.124.393-.88.433-.505-.382-.433.599.355.294-.17.377-.164.093-.701.191-.206-.047-.5.377-.113-.619 1.319-1.739-1.133-.852-1.242 1.641.448-.02.212.304.133-.015.134.325-.793.485.304.454.567.377.026.119-.139.289-.274.139.407.356"/><path id="Черкаський" fill="#C8C6C6" fill-rule="evenodd" d="m255.246 166.639-.129-.176-.294-.149.294-.387-.134-.248-.067-.449-.386.325-.206-.036-.222.206-.51.057-.01.263.196.16-.031.232-.248-.031-.206.196-.195.351-.284.052-.53-.129.123-.934-.839.232-.562-.366-.592-.325-.041-.155.087-.238-.561-.046-.041-.052-.768-.072-.031.16.134.526.546.248.052.145-.34.17-.253.542.021.108.314.181-.072.16.221.464.278.068.207.469-.093.165-.454.011-.195.077-1.808.114-.211-.171.257-.315.062-.242-.175-.382.072-.243-.211-.175-.217-.439-.144-.015-.216-.269-.134-.402-.108-.067.165-.403.216-.66-.314-.382.448-.377-.17-.186.103-.227-.216-.764-.618-.315-.253-.263.18-.614-.319-.547-.082-.305-.263-.191.257-.397-.2-.759.118-.351-.402-.418-.221.186.098.258-.654.232-.727.614-.262-.304-.062-.294.175-.403-.726-2.369.674-.191-.237-.139-.087-.191-.232.088-.252-.284-.206-.047.056-.237-.175-.181-.211.088-.134.201-.355-.051-.067-.454.072-.135-.33-.087-.154-.135-.191-.433-.088-.516-.69 1.718-.659-.258-.237.403-.19.686-.16.341-.237.31-.34.144-1.365.083.124-.232-.304-.129-.258-.243-.711-.114-.231-.283-.165-.429-.201.145-.253-.031-.293-.465.113-.351-.118-.222.072-.201.396-.552-.824-2.792-.381.067-.649.227-.227-.707-.252.046.077-.604-2.863-.242-.165.841-.464.088-.077-.067-.732.17-.031-.315-.267.026-.371-.588-.294-.217-.355-.485.077.825-.288-.025-.109-.145-.298.041-.464-.191-.443.031-.051.228-.33.17-.072.17-.165.79.026.495.309-.036.237-.098.082.114.01.309-.237.351.067.269-.242.18-.19-.165-.366.217-.252-.15-.309-.02-.371-.315-.371-.041-.381.351.17.98.036.021-.201 1.099-.072.258-.294 1.652-.407 2.348-.18.908-.361 2.101-.18.015-.072-.376-.299-.011-.396-.18-.15-.145-.68-.062-.092-.16-.356-.17-.324-.047-.623.32-.145.424.278.351.021.185-.222.8-.025.594-.155.273-.567.124-.654-.077-.139.067-.201.284-.319.082-1.051.14-.716.237.124.196-.232.325.134 1.022-.247.191-.088.202 1.066.015.078.16.206-.01.556.666.015.263-.139.366.021 1.915-.093.299.041.775-.479.552-2.117.026h-.716l-.613.155-.005 1.089-.556-.067-.216-.372-.237-.155-.119.217-.438-.026.165-.336.227-.056.17-.418.139-.104-.036-.201-.211-.237.092-.362-.834.197-.309-.501-2.169.537-.448.093-.432-.811-.217.062-1.236-1.12-.927.934-.314.707-.51.527-.181.093-.463-.413-.819.501-1.097.381-.871.279-.36.181-.175-.305-.206.104-.201-.346-.124.149-.02.31-.619.067-.108.506-.474.738-.35.145-.098.201-.17.062-.108.655-.082.083-.649.97-.742-.836.443-1.156.077-.258-.02-1.115-1.52-.666-1.9-.851-1.015-.728-1.38-.96-.886-.573-.392-.103-.185.273-.191-.18-.201.062-.489-.191-.35-.382-.335-.057-.01-.165-.284-.294-.216-.124.227-.413-.433-.227-.592 1.089-.263.268-2.086.501-.088-.026-.175-.423-.345-.346-.5-.563.376-.438-1.442-1.683-1.303 1.007-.386-.496-.062.031-.464-.593-.123-.842.221-.469.428-1.151-.284-.124.309-.294-.02-.166-.927.104-.026.082.108.811-1.87.325-.262.65.535.351-.02.356.067.165-.139.171-.196.753-.35.496-.67.552-.299.315-.175-.14-.304-.578-.412-.433-.288-.176-.18-.248-.016-.227-.175-.149-1.082-.501-1.236-.542-.649-.304.052-.759.01-.898.108-2.89.623-.109-.257-1.435-.278-1.476-.618-3.421-.217-1.224.011-1.12.103-.97-.078-.279.253-2.131-.448.031-.443.082-1.721-1.254-2.23-1.569-2.823-.387.598-2.007-.139-.16-.824-.346-1.242.475-.211-.496-.633-1.61-.469.469-.103-.031-.979-.996-.68-1.269-.031-.336-.7-.929.278-.217.062-.242.19-.238-.175-.392-.288-.103.02-.237-.618-.099-.005-.201.242-.248-.247-.242-.031.248-.212.314-.499.026-4.42-.975h-.453l-.088-.201v-.63l.037-.294-.304-.155-.881.139-.222.083-.2-.109-.232-.753-.201-.212-.86.258-.222-.185-.407-.542-.345-.036-.206-.088.01-.609-1.643-1.27-.757.108-.525-.49-.289-.211-.263-.351-.01-1.378-.154-.981-1.35.093-.216-.021-.01-.361.139-.614v-.351l-.181-.511v-.196l.315-.527.067-.407.221-.253-.129-.32-.149-.114-.124-.273-.056-.465-.227-.201.113-.237.036-.444.186-.418.123-.145v-.356l.34-.65-.097-.532.072-.134-.139-.408-.134-.165-.222-.015-.329-.346.262-.372.299.238.257-.078.196-.433.139-.171.433.098.376-.036.335-1.884.288-1.543.031-.021 1.901-.103.057.408h.134l.504.449.572.624.278.573.036.403.268.077.433.212 1.035.748.737.682.767-.439.247-.041.897-.367.072-.464.139-.016.386-.722.453-.279.067-.279.212-.263-.032-.253.227-.248-.01-.196.067-1.006-.381-1.502-.371-1.519.242-.026-.077-1.362-.392-.018-.237-.318.026-.358-.242-.206-.35-.767-.237-.132-.252.026-.593-.222-.293.04-.248-.059-.417-.355-.422-.175-.206-.292-.309.114-.263-.134-.85-.197h-.335l-.901-.368-.283-.143-.34-.016.036-.142.298-.032.459-.211.149-.32.217-.124.453-.106.978-.095.104-.143.226-.061.124.098.484-.275.108-.141.737-.241-.175-.374-.536-.061.01-.269-.247.015-.196.194-.412.171-.309.941-.35.108-.072-.154-.253.13-.432.071-.34.144-.309.05-.253-.125-.015-.155.18-.21-.371-.01-.298.236-.49-.1-.211.542.206.291.082.298.397.543.119.301-.217.414-.355-.029-.536.502-.288.446-.459.366-.319-.203-.18-.488-.011-.294-.211-.19-.17.023-.242.384-.18.09-.922-.235.036.368-.263.047-.443-.033-.196.247.176.932.623.092.35.219-.221.581-1.041-.373-.206.049.016-.246-.351-.25-.309.379.273.558-.154.452-.479-.01-.397-.093-.175.264-.325.262-.324-.342.026-.247-.253-.16-.031-.462-.319-.026-.232.191h-.237l-1.184.119-.861.066-.278.102-.18-.005-.798-.311-.109-.141 1.036-.513-.134.413.123.543.181-.117.118-.216-.015-.205.36-.058.062.451.139-.004.098-.231.16-.031.072-.532.242-.08v-.186l.252-.068-.144-.252.072-.927.072-.226-.118-.239-.309-.167-.314-.27-.273.112-.181.322-.463.097-.33.123-.417.03-.242-.091-.35.125-.654-.042-.691-.261-.432-.269-.196-.204-.412-.653-.222-.052-.298-.204-.279-.02-.206-.221-.561-.102-.288.2-.093.281-.309-.067-.186-.342-.17-.187.196-.26.036-.285.211.104.062-.225-.057-.222.505-.42.129-.185.026-.528-.263-.181-.216-.047-.185.11-.243.004-.448-.457-.216.182-.273-.131-.227-.273.145-.164-.062-.417.226-.175.011-.47-.175-.118-.021-.26-.901-.634.242-.567.046-.22-.314-.12.057-.126-1.448-.667.103-.388-.422-.31-.407.192-.247-.01-.371.21-.495.078-.165-.117-.499.237.51-.37.448-.177.263-.259.535-.256.366-.246-.139-.307.175-.279.288.095.222-.107.082-.207-.19-.178-.026-.361.36-.052.217-.309-.144-.155-.253.22-.093-.136.037-.224-.237-.394.345-.49-.217-.295.191-.56.139-.175.319-.13.067-.153-.113-.182.031-.585.33-.136-.16-.575-.211-.311-.01-.392-.103-.257.031-.476.139-.306.35.086.304-.132-.021-.52.206-.367.464-.174.175.08.103-.195-.036-.326.242-.032.999.885.547.193.267-.688.737.325.16-.044-.145-.34-.087-.417.015-.528-.108-.45-.211-.206-.304-.153-.345-.064 1.097-1.119-2.014-.42.335-1.598.262-.602-.02-.391.664-1.388.964-1.88 2.652-4.053 1.345-2.038-.505-1.085.335-.434.103-.541.19-.104.263.232-.036.333.443.155.144-.326-.118-.081.458-.685-.381-.215-.186-.287-1.159-.393.443-1.242.449-1.318.381-1.137.427-.159.443-.274-.154-.06-.505-.414.252-.239-.468-1.4-.34-.588-.201-.199-.031-.264.17-.214.808-2.343-2.256-1.748 1.175-2.482.262-.519 1.201-2.53-.649-1.408-.186-.251-.278-.519.041-.473 2.57-1.557.716-.454.232.129.335.392.438.78.129-.013 1.375-1.686 1.282-1.61 1.705-.648-.185-.498 1.54-.268.695-.1.799-.158.927.017.778-.026.298-.378.397.06.489-1.106-.566-.88-.237-.256-.263-.445-.597-.857-.361-.3-.154-.222-.495-.314-.268-.332-.69-.123-.232-.093-.062-.23.073-.49-.062-.16.427-.444.124.014.479-.372-.489-.355-.15-.242-.453-.316-.495-.251-.195-.154-1.036-.624-1.03.404-.257.31-.366.3-.366.417-.072-.263.026-.21.196-.388.226-.312.639-.677.402-.78-.886-.348-.18.557-.129.089-.222-.143.011-.536.273-.419.53-.225.448-.05 1.072.017.515-.3.489-.457.335-.098.664.018 1.025-.073.891-.33 1.695-.341.932.2.366.211 1.025.293.443-.044.232-.258.381.092.108.194.582-.106.5.462.675 1.019.139.545-.521.829-.582 1.63-.206 1.072.237.48-.401.556-.346.743.037 2.072.571 1.25.314.737.083 1.006 1.051 2.251.916-.043.248.465.484-.029.489 1.638.345.22.675.269.113-.029.438-.59.335.108-.16.951.108.321.196.282.387.864.128.178.268-.016.562-.268.257-.225.005-.113-.438-.9.037-.405.175-.288.432-.405.129-.212.01-.277-.113-.443.304-.3.422.284.423-.344.02-.236.165-.202.263.145.273-.268.19-.085.119.389.247-.021.185.082.083-.233.257-.126.526-.986.087-.467.474.019.175-.694-.051-.422.072-.095.767.018.042-.203.025-1.25.989.044 1.283.02.438-.043.056.08-.036.72.124 1.104-.376.3.659.912.042.378-.026.642-.227 2.51 2.411-.229.077.108.283.033 1.566-.104.16-.04 1.504.4 1.02.224 1.22.307.515-.235.412.442.289.142.196.175-1.736.384-.119 2.208-.026.115-.123 2.163-.108 2.359-.912.198.088.82.02.746-.057.313 2.225.003-.01.61-.072 1.366-.041.45-1.514.855-.732 2.975-.561 2.225-.557.317.052.408-.103.096.33.811.443-.164.267.096-.123.5-.088.105-.422.245.123.205-.376.225.016.311-.438 1.34-.252.477-1.396.749-.17.252.139.143-.294.597-.443.7.557-.082.777.169.263.124.252.284-.324.017-.01.162.216.295.216.135v.24l.15.09-.067.65.613.17.917.555 4.316.105.67.226 1.226-.494.293.241 1.154.762.747 1.678-.5 1.092.17.187 3.327 4.04 2.251 1.52 1.942 1.299 1.54.146 1.391-.64 2.766.722.747 1.856.613.599.654 1.146 1.689.318.33-.861 4.852 5.592-.659.75.829.68.108.016 2.313.07 1.339-.692 1.128.347.66 1.076 1.329.214.041.024 1.983 2.882.221 2.986 2.241 1.867.67.536.788 1.059 4.162-.308.927-.097 2.895-.131 4.069 1.474 1.236 1.052 1.257 1.874 1.071 2.957.695.62 1.829.015 2.457 1.951 2.065-1.058.062-.047 2.72 2.302.891.553.417.18.974.207.468.232 1.659 1.223.942.805.402.372.242.144.454.083.69.268.087-.005 1.041.444.165.201.123.408.376 1.636.191.465.129.149.365.052.783-.728.417-.165.629.016.324.18.397.423.175.32.417.439.505.279h.304l.366-.078.432-.206.33-.212.314-.433.247-.103.258-.006.443.083 2.132-.335.145.025.68.48.937.021.376.202.927 1.073.479.005.268.227-.067.527.119.304.175.243.273.103.262-.098.644-.459.397-.088.865-.026.51-.098.412-.17.371-.274.443-.557.242-.253.587-.093.366.077.283.145.438.051.381-.031.479-.273.495.036.484.222.474.32-1.561 2.291-1.251.816-.361.196-.309.366-.726.635-.217-.077-.36.526-.732 1.022-.844 1.125-.649.532-.114.15-.293 1.022-.181.366-.087.568-.186-.073-.437.166-.299.201.02.728.134.356.047.506.216.34-.036.372.165.237.268.217.226.289.634.413.396.15.593-.222.541.562 1.916.31.504.098.351.186 1.396.376 1.014.197 1.128.103.474-.031 1.267.273.448 2.091.047 2.007-1.123-.118-.18.015-1.999.759-1.138.237-.103.047-.943.727-.299.3-.525.289-.556.222.015.18.35.01.309.114.531-.186.062.63-.021.588.078.511.025.47.067.129.212 1.853.123.81-.02.036.123 1.012.119-.005.376.191-.077.34-.376.181.118.181-.129.144.124.155-.067.356-.232-.01-.072.222-.304-.14.005-.144-.365.103.036.47.149.387H274l.077.129.216.005.479-.237.186.005.134.407.242.532.422.361.356.196.577-.051.612-.165.14.975-1.324.088-1.242.196.155 1.228-1.401.202-.139.062-1.473.211-.258.098-.268-.051-.726.093.088.423.108.144-.593.129-1.658.269-.428.041-2.745.423-.227-1.626-1.566.212-1.184.201-.196-1.13-.932.145-.088-.155-.438-.191-.206-.16-.123-.212-.186.222-.19.583.041.362.17.232.02.402.222.527.278.201-.082.093-.376.015.535 1.244-.257.114-1.303.144-.577.238-.531-.016-.072-.098-.479.073-.17-.305-.113.103-.273-.062-.206.274-.309.046-.346-.268-.226-.047-.155.16-.195-.01-.552.134" clip-rule="evenodd"/><path stroke="#000" stroke-linecap="round" stroke-linejoin="round" stroke-width=".2" d="m255.246 166.639-.129-.176-.294-.149.294-.387-.134-.248-.067-.449-.386.325-.206-.036-.222.206-.51.057-.01.263.196.16-.031.232-.248-.031-.206.196-.195.351-.284.052-.53-.129.123-.934-.839.232-.562-.366-.592-.325-.041-.155.087-.238-.561-.046-.041-.052-.768-.072-.031.16.134.526.546.248.052.145-.34.17-.253.542.021.108.314.181-.072.16.221.464.278.068.207.469-.093.165-.454.011-.195.077-1.808.114-.211-.171.257-.315.062-.242-.175-.382.072-.243-.211-.175-.217-.439-.144-.015-.216-.269-.134-.402-.108-.067.165-.403.216-.66-.314-.382.448-.377-.17-.186.103-.227-.216-.764-.618-.315-.253-.263.18-.614-.319-.547-.082-.305-.263-.191.257-.397-.2-.759.118-.351-.402-.418-.221.186.098.258-.654.232-.727.614-.262-.304-.062-.294.175-.403-.726-2.369.674-.191-.237-.139-.087-.191-.232.088-.252-.284-.206-.047.056-.237-.175-.181-.211.088-.134.201-.355-.051-.067-.454.072-.135-.33-.087-.154-.135-.191-.433-.088-.516-.69 1.718-.659-.258-.237.403-.19.686-.16.341-.237.31-.34.144-1.365.083.124-.232-.304-.129-.258-.243-.711-.114-.231-.283-.165-.429-.201.145-.253-.031-.293-.465.113-.351-.118-.222.072-.201.396-.552-.824-2.792-.381.067-.649.227-.227-.707-.252.046.077-.604-2.863-.242-.165.841-.464.088-.077-.067-.732.17-.031-.315-.267.026-.371-.588-.294-.217-.355-.485.077.825-.288-.025-.109-.145-.298.041-.464-.191-.443.031-.051.228-.33.17-.072.17-.165.79.026.495.309-.036.237-.098.082.114.01.309-.237.351.067.269-.242.18-.19-.165-.366.217-.252-.15-.309-.02-.371-.315-.371-.041-.381.351.17.98.036.021-.201 1.099-.072.258-.294 1.652-.407 2.348-.18.908-.361 2.101-.18.015-.072-.376-.299-.011-.396-.18-.15-.145-.68-.062-.092-.16-.356-.17-.324-.047-.623.32-.145.424.278.351.021.185-.222.8-.025.594-.155.273-.567.124-.654-.077-.139.067-.201.284-.319.082-1.051.14-.716.237.124.196-.232.325.134 1.022-.247.191-.088.202 1.066.015.078.16.206-.01.556.666.015.263-.139.366.021 1.915-.093.299.041.775-.479.552-2.117.026h-.716l-.613.155-.005 1.089-.556-.067-.216-.372-.237-.155-.119.217-.438-.026.165-.336.227-.056.17-.418.139-.104-.036-.201-.211-.237.092-.362-.834.197-.309-.501-2.169.537-.448.093-.432-.811-.217.062-1.236-1.12-.927.934-.314.707-.51.527-.181.093-.463-.413-.819.501-1.097.381-.871.279-.36.181-.175-.305-.206.104-.201-.346-.124.149-.02.31-.619.067-.108.506-.474.738-.35.145-.098.201-.17.062-.108.655-.082.083-.649.97-.742-.836.443-1.156.077-.258-.02-1.115-1.52-.666-1.9-.851-1.015-.728-1.38-.96-.886-.573-.392-.103-.185.273-.191-.18-.201.062-.489-.191-.35-.382-.335-.057-.01-.165-.284-.294-.216-.124.227-.413-.433-.227-.592 1.089-.263.268-2.086.501-.088-.026-.175-.423-.345-.346-.5-.563.376-.438-1.442-1.683-1.303 1.007-.386-.496-.062.031-.464-.593-.123-.842.221-.469.428-1.151-.284-.124.309-.294-.02-.166-.927.104-.026.082.108.811-1.87.325-.262.65.535.351-.02.356.067.165-.139.171-.196.753-.35.496-.67.552-.299.315-.175-.14-.304-.578-.412-.433-.288-.176-.18-.248-.016-.227-.175-.149-1.082-.501-1.236-.542-.649-.304.052-.759.01-.898.108-2.89.623-.109-.257-1.435-.278-1.476-.618-3.421-.217-1.224.011-1.12.103-.97-.078-.279.253-2.131-.448.031-.443.082-1.721-1.254-2.23-1.569-2.823-.387.598-2.007-.139-.16-.824-.346-1.242.475-.211-.496-.633-1.61-.469.469-.103-.031-.979-.996-.68-1.269-.031-.336-.7-.929.278-.217.062-.242.19-.238-.175-.392-.288-.103.02-.237-.618-.099-.005-.201.242-.248-.247-.242-.031.248-.212.314-.499.026-4.42-.975h-.453l-.088-.201v-.63l.037-.294-.304-.155-.881.139-.222.083-.2-.109-.232-.753-.201-.212-.86.258-.222-.185-.407-.542-.345-.036-.206-.088.01-.609-1.643-1.27-.757.108-.525-.49-.289-.211-.263-.351-.01-1.378-.154-.981-1.35.093-.216-.021-.01-.361.139-.614v-.351l-.181-.511v-.196l.315-.527.067-.407.221-.253-.129-.32-.149-.114-.124-.273-.056-.465-.227-.201.113-.237.036-.444.186-.418.123-.145v-.356l.34-.65-.097-.532.072-.134-.139-.408-.134-.165-.222-.015-.329-.346.262-.372.299.238.257-.078.196-.433.139-.171.433.098.376-.036.335-1.884.288-1.543.031-.021 1.901-.103.057.408h.134l.504.449.572.624.278.573.036.403.268.077.433.212 1.035.748.737.682.767-.439.247-.041.897-.367.072-.464.139-.016.386-.722.453-.279.067-.279.212-.263-.032-.253.227-.248-.01-.196.067-1.006-.381-1.502-.371-1.519.242-.026-.077-1.362-.392-.018-.237-.318.026-.358-.242-.206-.35-.767-.237-.132-.252.026-.593-.222-.293.04-.248-.059-.417-.355-.422-.175-.206-.292-.309.114-.263-.134-.85-.197h-.335l-.901-.368-.283-.143-.34-.016.036-.142.298-.032.459-.211.149-.32.217-.124.453-.106.978-.095.104-.143.226-.061.124.098.484-.275.108-.141.737-.241-.175-.374-.536-.061.01-.269-.247.015-.196.194-.412.171-.309.941-.35.108-.072-.154-.253.13-.432.071-.34.144-.309.05-.253-.125-.015-.155.18-.21-.371-.01-.298.236-.49-.1-.211.542.206.291.082.298.397.543.119.301-.217.414-.355-.029-.536.502-.288.446-.459.366-.319-.203-.18-.488-.011-.294-.211-.19-.17.023-.242.384-.18.09-.922-.235.036.368-.263.047-.443-.033-.196.247.176.932.623.092.35.219-.221.581-1.041-.373-.206.049.016-.246-.351-.25-.309.379.273.558-.154.452-.479-.01-.397-.093-.175.264-.325.262-.324-.342.026-.247-.253-.16-.031-.462-.319-.026-.232.191h-.237l-1.184.119-.861.066-.278.102-.18-.005-.798-.311-.109-.141 1.036-.513-.134.413.123.543.181-.117.118-.216-.015-.205.36-.058.062.451.139-.004.098-.231.16-.031.072-.532.242-.08v-.186l.252-.068-.144-.252.072-.927.072-.226-.118-.239-.309-.167-.314-.27-.273.112-.181.322-.463.097-.33.123-.417.03-.242-.091-.35.125-.654-.042-.691-.261-.432-.269-.196-.204-.412-.653-.222-.052-.298-.204-.279-.02-.206-.221-.561-.102-.288.2-.093.281-.309-.067-.186-.342-.17-.187.196-.26.036-.285.211.104.062-.225-.057-.222.505-.42.129-.185.026-.528-.263-.181-.216-.047-.185.11-.243.004-.448-.457-.216.182-.273-.131-.227-.273.145-.164-.062-.417.226-.175.011-.47-.175-.118-.021-.26-.901-.634.242-.567.046-.22-.314-.12.057-.126-1.448-.667.103-.388-.422-.31-.407.192-.247-.01-.371.21-.495.078-.165-.117-.499.237.51-.37.448-.177.263-.259.535-.256.366-.246-.139-.307.175-.279.288.095.222-.107.082-.207-.19-.178-.026-.361.36-.052.217-.309-.144-.155-.253.22-.093-.136.037-.224-.237-.394.345-.49-.217-.295.191-.56.139-.175.319-.13.067-.153-.113-.182.031-.585.33-.136-.16-.575-.211-.311-.01-.392-.103-.257.031-.476.139-.306.35.086.304-.132-.021-.52.206-.367.464-.174.175.08.103-.195-.036-.326.242-.032.999.885.547.193.267-.688.737.325.16-.044-.145-.34-.087-.417.015-.528-.108-.45-.211-.206-.304-.153-.345-.064 1.097-1.119-2.014-.42.335-1.598.262-.602-.02-.391.664-1.388.964-1.88 2.652-4.053 1.345-2.038-.505-1.085.335-.434.103-.541.19-.104.263.232-.036.333.443.155.144-.326-.118-.081.458-.685-.381-.215-.186-.287-1.159-.393.443-1.242.449-1.318.381-1.137.427-.159.443-.274-.154-.06-.505-.414.252-.239-.468-1.4-.34-.588-.201-.199-.031-.264.17-.214.808-2.343-2.256-1.748 1.175-2.482.262-.519 1.201-2.53-.649-1.408-.186-.251-.278-.519.041-.473 2.57-1.557.716-.454.232.129.335.392.438.78.129-.013 1.375-1.686 1.282-1.61 1.705-.648-.185-.498 1.54-.268.695-.1.799-.158.927.017.778-.026.298-.378.397.06.489-1.106-.566-.88-.237-.256-.263-.445-.597-.857-.361-.3-.154-.222-.495-.314-.268-.332-.69-.123-.232-.093-.062-.23.073-.49-.062-.16.427-.444.124.014.479-.372-.489-.355-.15-.242-.453-.316-.495-.251-.195-.154-1.036-.624-1.03.404-.257.31-.366.3-.366.417-.072-.263.026-.21.196-.388.226-.312.639-.677.402-.78-.886-.348-.18.557-.129.089-.222-.143.011-.536.273-.419.53-.225.448-.05 1.072.017.515-.3.489-.457.335-.098.664.018 1.025-.073.891-.33 1.695-.341.932.2.366.211 1.025.293.443-.044.232-.258.381.092.108.194.582-.106.5.462.675 1.019.139.545-.521.829-.582 1.63-.206 1.072.237.48-.401.556-.346.743.037 2.072.571 1.25.314.737.083 1.006 1.051 2.251.916-.043.248.465.484-.029.489 1.638.345.22.675.269.113-.029.438-.59.335.108-.16.951.108.321.196.282.387.864.128.178.268-.016.562-.268.257-.225.005-.113-.438-.9.037-.405.175-.288.432-.405.129-.212.01-.277-.113-.443.304-.3.422.284.423-.344.02-.236.165-.202.263.145.273-.268.19-.085.119.389.247-.021.185.082.083-.233.257-.126.526-.986.087-.467.474.019.175-.694-.051-.422.072-.095.767.018.042-.203.025-1.25.989.044 1.283.02.438-.043.056.08-.036.72.124 1.104-.376.3.659.912.042.378-.026.642-.227 2.51 2.411-.229.077.108.283.033 1.566-.104.16-.04 1.504.4 1.02.224 1.22.307.515-.235.412.442.289.142.196.175-1.736.384-.119 2.208-.026.115-.123 2.163-.108 2.359-.912.198.088.82.02.746-.057.313 2.225.003-.01.61-.072 1.366-.041.45-1.514.855-.732 2.975-.561 2.225-.557.317.052.408-.103.096.33.811.443-.164.267.096-.123.5-.088.105-.422.245.123.205-.376.225.016.311-.438 1.34-.252.477-1.396.749-.17.252.139.143-.294.597-.443.7.557-.082.777.169.263.124.252.284-.324.017-.01.162.216.295.216.135v.24l.15.09-.067.65.613.17.917.555 4.316.105.67.226 1.226-.494.293.241 1.154.762.747 1.678-.5 1.092.17.187 3.327 4.04 2.251 1.52 1.942 1.299 1.54.146 1.391-.64 2.766.722.747 1.856.613.599.654 1.146 1.689.318.33-.861 4.852 5.592-.659.75.829.68.108.016 2.313.07 1.339-.692 1.128.347.66 1.076 1.329.214.041.024 1.983 2.882.221 2.986 2.241 1.867.67.536.788 1.059 4.162-.308.927-.097 2.895-.131 4.069 1.474 1.236 1.052 1.257 1.874 1.071 2.957.695.62 1.829.015 2.457 1.951 2.065-1.058.062-.047 2.72 2.302.891.553.417.18.974.207.468.232 1.659 1.223.942.805.402.372.242.144.454.083.69.268.087-.005 1.041.444.165.201.123.408.376 1.636.191.465.129.149.365.052.783-.728.417-.165.629.016.324.18.397.423.175.32.417.439.505.279h.304l.366-.078.432-.206.33-.212.314-.433.247-.103.258-.006.443.083 2.132-.335.145.025.68.48.937.021.376.202.927 1.073.479.005.268.227-.067.527.119.304.175.243.273.103.262-.098.644-.459.397-.088.865-.026.51-.098.412-.17.371-.274.443-.557.242-.253.587-.093.366.077.283.145.438.051.381-.031.479-.273.495.036.484.222.474.32-1.561 2.291-1.251.816-.361.196-.309.366-.726.635-.217-.077-.36.526-.732 1.022-.844 1.125-.649.532-.114.15-.293 1.022-.181.366-.087.568-.186-.073-.437.166-.299.201.02.728.134.356.047.506.216.34-.036.372.165.237.268.217.226.289.634.413.396.15.593-.222.541.562 1.916.31.504.098.351.186 1.396.376 1.014.197 1.128.103.474-.031 1.267.273.448 2.091.047 2.007-1.123-.118-.18.015-1.999.759-1.138.237-.103.047-.943.727-.299.3-.525.289-.556.222.015.18.35.01.309.114.531-.186.062.63-.021.588.078.511.025.47.067.129.212 1.853.123.81-.02.036.123 1.012.119-.005.376.191-.077.34-.376.181.118.181-.129.144.124.155-.067.356-.232-.01-.072.222-.304-.14.005-.144-.365.103.036.47.149.387H274l.077.129.216.005.479-.237.186.005.134.407.242.532.422.361.356.196.577-.051.612-.165.14.975-1.324.088-1.242.196.155 1.228-1.401.202-.139.062-1.473.211-.258.098-.268-.051-.726.093.088.423.108.144-.593.129-1.658.269-.428.041-2.745.423-.227-1.626-1.566.212-1.184.201-.196-1.13-.932.145-.088-.155-.438-.191-.206-.16-.123-.212-.186.222-.19.583.041.362.17.232.02.402.222.527.278.201-.082.093-.376.015.535 1.244-.257.114-1.303.144-.577.238-.531-.016-.072-.098-.479.073-.17-.305-.113.103-.273-.062-.206.274-.309.046-.346-.268-.226-.047-.155.16-.195-.01-.552.134"/><path id="Уманський" fill="#C8C6C6" fill-rule="evenodd" d="m75.723 190.479.196-.176 2.735 2.896.438.49-.51.336 1.54 2.043 1.344-.965 1.077 1.1.299.356.603.676.87 1.027.355.521.304.552.845.166-.232 1.496-.293.083-.16.733-.165.506-.062.356-.108.284.046.428-.067.175-.01.382-.16.026-3.595 1.115-.226.01-.18.372-1.036 1.817-.664 1.182 1.123 1.016.149-.191 2.24 1.998-1.117 1.3.247.181.484.227.13.124-.387 1.59.34.082.165.109-.232 1.31-2.153-.454-.088.465-.448.015-.206.155-1.978-.31-.124.542-.427-.051v-.444l-1.293-.176-.026.635-.86-.232-.247-.119-1.772-2.085-3.302.96-.932.248-.263.764-1.061 3.231-.067 1.992-1.494.051-.587.026-.747.093-1.014.243-1.33.248-.818.681-.417.279-.304.278-.346.036-2.178.429-.66.149-1.267.243.114 2.095-2.74 1.079-.305.098-.597-.439-1.216-.763-.062-.011-2.987-1.816-.845.707-.154.511.046.413.376.614-.273.263.036.263-.221.042-.14.49-.159.124-.175.351-.015.16-.577.242-.443.062-.175-.026-.01.578-.063.398-.236.056-.346-.108-.257.465.082.774-.654.196-.335-.021-1.328-.371-.52-.346-.14-.243-.154-.769H41.1l-.33-.123-.453-.326-.248.006-.247-.279-.474-.738-.674-.356-.376-.356-.758.082-3.481.527.226.717-2.93.072-.006.036-.535-.154.303-1.456.176-.913.726.191.355-.295.057-.258 1.726.279.38-2.369-.015-.072.093-.284-.247-.243-.448.212-.706-.072-.051-.356.293-.393.376-.175.314.067.443.325.083-.16.314-.098.18.02.417.295.206-.181-.01-.186-.185-.072.268-1.91-.201.021.118-.428-.268-.083-.247-.196-.242-.021-.232-.124.057-.258-.129-.046-.015-.501-.345-.32.2-.614-.082-.351-.108-.129.041-1.073.217-.326-.047-.273-.299-.016-.819-.743-1.04-.34-.845-.258-.886.129-.288-.124-.7-1.192-.068-.357.35-.624-.149-.63.155-.18-.047-.202 1.066-.222 1.608-.253.051.197.237-.078.18-.248.119-.036.129-.278-.33-.351-.057-.238.19-.108v-.759l.29-.33v-.336l-.202-.511-1.02.176-.118-.423-.077-.537-.495.082-.128-.113-.155-.986-.572.067-.283-1.12-.979.109-.149-.558v-.361l.324-.609-2.503-.227-1.669-1.75-2.117-2.245-.989.403.412-1.089-.37-.135.134-.382-.588-.221.984-2.669 1.164.418.273-.696-.283-.46-.392-.433.057-.264-.561-.139-.917-1.507.484-.108.093-.48-2.122-.537-3.498-.872.402-.532-.314-.15-.603-.154-.047.051-.638-.506-.866.057-.108.196-.741-.516-.366-7.819-.474-.088-1.138-.676-.912-.191-.386-4.175-.48-.547-.133.088-.392-.372-.056-.124-.443-.413.33-.526.288.351 1.04-.666.304-.212.263-.304-.675-.16-1.298-.258-1.05-.707-.433.268-.66.341-.587-1.198-.314-.222-.814-.377.165-.299-.093-.356-.247-.062-.556-.423-.551-.238.144-.237.623-1.249-.15-.227-.587-1.249 3.704-5.228-1.036-.754.603-.769-.113-.315-.325.119-.16-.124-.05-.304-.109-.171.103-.753.211-.036-.046-.336-.732.635-.34-.248-.175.006-.232.418-.324.191-.448.392-.289.129-.185.175-.175-.32-.963.584-.891-1.399-.165.026-.016-.645-.139-.331-.144-.557-.252-.645-.464-.423-.031-.274-.108-.088-.129-.629-.165-.377-.309-.429-.01-.123.83.201.37.531.237.13.16.237.396.299.109-.062-.155-.542.237-.149.536-.067.144-.315-.51-.491.67-2.178.412-1.507.36-1.218.186-.314.463.289.155.351.34.139.257-.088.804.232.479.212.293.015-.056-.325-.17-.408-.211-.738-.212-1.274.227-.031.345-.46.639-.124 1.35-.222-.109-.278.376.036.232.134.19-.113.536-.068.175-.144.721-.119-.195-1.182-.99.047-.643-1.389-.175-1.651.66-.14-.114-.655.19-1.192-.185-.047.103-1.125.294-.511.479.382-.062-2.906-1.314-.557-.319-1.306-.232-1.058.19.047.387.216.196.021.469.289.695-.077.221-.238.062-.283.392-.155.149-.191.397.366.5.145.628-.289-.01.139-.207.176-.226.046-.397.377.046.242-.149.263-.257.026.113.718-1.231.413.845.924 1.931 2.74 4.46-.836.691.97 3.122-1.249 2.142.315.196-.32-.185-.681-.212-.253-.324-.588.86-.264.551-.216.376-.104-.345-.48 1.21-.965.062-.247-.386-.48 1.427-1.126.706-1.372.226-.372.015-.625.335.047 1.051-.191.433-.108.144-.222.067-.32.098-1.012-.02-2.57-.01-.434-.145-.537-.422-.743-.552-.867.3-.722.046-.222-.073-.356.526.031.566.707.155-.031.412-.248 1.396-.888.33.016 1.344-.037.36.078.263-1.678.247-.149.227.082.35-.031.541-.727.567.227.154.185 1.643.604.618.078.567.041.299.072.098.16.432.15.16.604.355.433.15.269-.072.418-.15.279.165.541-.02.15-.217.227.01.253.284.372.123.263-.036.346.119.542.17.325.479.413.273.5.37.434.418.16.309.294.185-.268.263-.522-.072-.103.139-.309.294-.197.113-.253.01-.769-.37-.48.174-.35-.206-.16-.38-.413-.578-.465.484-.759.593.068.103-.372.293.134.17-.026.3-.506.174.068.381-2.271.227-.026.778-.429.03 1.048 2.365-.103 1.999-.078-.284 2.328-.128.841-.078 1.089-.443 2.648.716.155 1.216.155 1.483.108.495.258.263-.165.808.243.33-.011.438.114.072-.403.32.083 2.76.661 1.844.48 1.344.304 1.386.263 1.53.315.036.078-.057.593-.108.186.077.506.742.17-.252.883.34.015.664-2.462.17-.253.113-1.063.098-.63.809-4.289 1.983.155 1.52.103.468.372.618.315 1.133.867-.556 1.961.927.62 1.123.634 1.921 1.182.33.083.2.232.264-.005-.17.552-.428 1.518-.263 1.145-.365 1.518-.206.965-.278 1.192-.423-.139-1.849-.232-1.767-.243-1.287-.449.092-.32-1.035-.356-.459-.114.037.32-2.066.021.175.078.366.35-.088.295.103.335.02.521-.133.615.556.061.227.212 1.174.872.36.372.403-.387.68.289 1.555.062.15.041 1.622.114-.14 1.734-.061.991.299 1.806.129.661 1.437-.356 1.06-.248.181.366 1.056-.237.958-.325 1.05-.434 1.154-.5.093.304.057.687.536.702-.17.536-.48 1.75-.37 1.471-.943.129-.299 1.079-.139.676-.185.542-.057.474.119.078-.155.366 1.401.635-.041.238-.206.154-.355.073-.32.263.32 1.058.154.423-.015.17-.304.47-.211.088v.413l-.242.402-.098.898-.248.393-.015.18.118.202-.108.263 1.829.604.093.392.33 1.822-.33-.16-.98 2.1.192.098-.376.8-.263-.072-.232.289-.165-.062-.19-.371-.3.108-.025.108-.484 1.172-.366-.134-.458-.093-.289.686.34.31.376.268.113.31-.19.155-.551.108-.278.119-.217-.305-1.56 1.394.175.232-.248.202.186.19-.495.728-.484.671.448.356.382.062-.552 1.187-.16-.247-.298.34-.35-.088-.196.15.16.434.237-.181-.067-.16.633-.093.201.429-.196.304.155.186-.237.258-.366.155-.123.16-.073.645.418.232.144-.02.216.18-.68.485-.51-.304-.345-.258-.278.067-.093.108.047.305-.134.206-.14.439-.015.299-.267.3-.289-.005-.309.825.809.604.03.238-.092.206.082.299.279.238-.036.408-.114.495.15.021.092.428.438-.243.196.176.463.273.361-.144.036-.176-.314-.443-.041-.253 1.004.676 1.123.511 1.514.96.84.542.886.547-.984.887-.211.212-1.138 1.017-1.865 1.693-.35.325-.397.113-.34.676.459.264.633.624-1.18 2.596-.128.232-.278-.01-.14.134 2.071 2.24" clip-rule="evenodd"/><path stroke="#000" stroke-linecap="round" stroke-linejoin="round" stroke-width=".2" d="m75.723 190.479.196-.176 2.735 2.896.438.49-.51.336 1.54 2.043 1.344-.965 1.077 1.1.299.356.603.676.87 1.027.355.521.304.552.845.166-.232 1.496-.293.083-.16.733-.165.506-.062.356-.108.284.046.428-.067.175-.01.382-.16.026-3.595 1.115-.226.01-.18.372-1.036 1.817-.664 1.182 1.123 1.016.149-.191 2.24 1.998-1.117 1.3.247.181.484.227.13.124-.387 1.59.34.082.165.109-.232 1.31-2.153-.454-.088.465-.448.015-.206.155-1.978-.31-.124.542-.427-.051v-.444l-1.293-.176-.026.635-.86-.232-.247-.119-1.772-2.085-3.302.96-.932.248-.263.764-1.061 3.231-.067 1.992-1.494.051-.587.026-.747.093-1.014.243-1.33.248-.818.681-.417.279-.304.278-.346.036-2.178.429-.66.149-1.267.243.114 2.095-2.74 1.079-.305.098-.597-.439-1.216-.763-.062-.011-2.987-1.816-.845.707-.154.511.046.413.376.614-.273.263.036.263-.221.042-.14.49-.159.124-.175.351-.015.16-.577.242-.443.062-.175-.026-.01.578-.063.398-.236.056-.346-.108-.257.465.082.774-.654.196-.335-.021-1.328-.371-.52-.346-.14-.243-.154-.769H41.1l-.33-.123-.453-.326-.248.006-.247-.279-.474-.738-.674-.356-.376-.356-.758.082-3.481.527.226.717-2.93.072-.006.036-.535-.154.303-1.456.176-.913.726.191.355-.295.057-.258 1.726.279.38-2.369-.015-.072.093-.284-.247-.243-.448.212-.706-.072-.051-.356.293-.393.376-.175.314.067.443.325.083-.16.314-.098.18.02.417.295.206-.181-.01-.186-.185-.072.268-1.91-.201.021.118-.428-.268-.083-.247-.196-.242-.021-.232-.124.057-.258-.129-.046-.015-.501-.345-.32.2-.614-.082-.351-.108-.129.041-1.073.217-.326-.047-.273-.299-.016-.819-.743-1.04-.34-.845-.258-.886.129-.288-.124-.7-1.192-.068-.357.35-.624-.149-.63.155-.18-.047-.202 1.066-.222 1.608-.253.051.197.237-.078.18-.248.119-.036.129-.278-.33-.351-.057-.238.19-.108v-.759l.29-.33v-.336l-.202-.511-1.02.176-.118-.423-.077-.537-.495.082-.128-.113-.155-.986-.572.067-.283-1.12-.979.109-.149-.558v-.361l.324-.609-2.503-.227-1.669-1.75-2.117-2.245-.989.403.412-1.089-.37-.135.134-.382-.588-.221.984-2.669 1.164.418.273-.696-.283-.46-.392-.433.057-.264-.561-.139-.917-1.507.484-.108.093-.48-2.122-.537-3.498-.872.402-.532-.314-.15-.603-.154-.047.051-.638-.506-.866.057-.108.196-.741-.516-.366-7.819-.474-.088-1.138-.676-.912-.191-.386-4.175-.48-.547-.133.088-.392-.372-.056-.124-.443-.413.33-.526.288.351 1.04-.666.304-.212.263-.304-.675-.16-1.298-.258-1.05-.707-.433.268-.66.341-.587-1.198-.314-.222-.814-.377.165-.299-.093-.356-.247-.062-.556-.423-.551-.238.144-.237.623-1.249-.15-.227-.587-1.249 3.704-5.228-1.036-.754.603-.769-.113-.315-.325.119-.16-.124-.05-.304-.109-.171.103-.753.211-.036-.046-.336-.732.635-.34-.248-.175.006-.232.418-.324.191-.448.392-.289.129-.185.175-.175-.32-.963.584-.891-1.399-.165.026-.016-.645-.139-.331-.144-.557-.252-.645-.464-.423-.031-.274-.108-.088-.129-.629-.165-.377-.309-.429-.01-.123.83.201.37.531.237.13.16.237.396.299.109-.062-.155-.542.237-.149.536-.067.144-.315-.51-.491.67-2.178.412-1.507.36-1.218.186-.314.463.289.155.351.34.139.257-.088.804.232.479.212.293.015-.056-.325-.17-.408-.211-.738-.212-1.274.227-.031.345-.46.639-.124 1.35-.222-.109-.278.376.036.232.134.19-.113.536-.068.175-.144.721-.119-.195-1.182-.99.047-.643-1.389-.175-1.651.66-.14-.114-.655.19-1.192-.185-.047.103-1.125.294-.511.479.382-.062-2.906-1.314-.557-.319-1.306-.232-1.058.19.047.387.216.196.021.469.289.695-.077.221-.238.062-.283.392-.155.149-.191.397.366.5.145.628-.289-.01.139-.207.176-.226.046-.397.377.046.242-.149.263-.257.026.113.718-1.231.413.845.924 1.931 2.74 4.46-.836.691.97 3.122-1.249 2.142.315.196-.32-.185-.681-.212-.253-.324-.588.86-.264.551-.216.376-.104-.345-.48 1.21-.965.062-.247-.386-.48 1.427-1.126.706-1.372.226-.372.015-.625.335.047 1.051-.191.433-.108.144-.222.067-.32.098-1.012-.02-2.57-.01-.434-.145-.537-.422-.743-.552-.867.3-.722.046-.222-.073-.356.526.031.566.707.155-.031.412-.248 1.396-.888.33.016 1.344-.037.36.078.263-1.678.247-.149.227.082.35-.031.541-.727.567.227.154.185 1.643.604.618.078.567.041.299.072.098.16.432.15.16.604.355.433.15.269-.072.418-.15.279.165.541-.02.15-.217.227.01.253.284.372.123.263-.036.346.119.542.17.325.479.413.273.5.37.434.418.16.309.294.185-.268.263-.522-.072-.103.139-.309.294-.197.113-.253.01-.769-.37-.48.174-.35-.206-.16-.38-.413-.578-.465.484-.759.593.068.103-.372.293.134.17-.026.3-.506.174.068.381-2.271.227-.026.778-.429.03 1.048 2.365-.103 1.999-.078-.284 2.328-.128.841-.078 1.089-.443 2.648.716.155 1.216.155 1.483.108.495.258.263-.165.808.243.33-.011.438.114.072-.403.32.083 2.76.661 1.844.48 1.344.304 1.386.263 1.53.315.036.078-.057.593-.108.186.077.506.742.17-.252.883.34.015.664-2.462.17-.253.113-1.063.098-.63.809-4.289 1.983.155 1.52.103.468.372.618.315 1.133.867-.556 1.961.927.62 1.123.634 1.921 1.182.33.083.2.232.264-.005-.17.552-.428 1.518-.263 1.145-.365 1.518-.206.965-.278 1.192-.423-.139-1.849-.232-1.767-.243-1.287-.449.092-.32-1.035-.356-.459-.114.037.32-2.066.021.175.078.366.35-.088.295.103.335.02.521-.133.615.556.061.227.212 1.174.872.36.372.403-.387.68.289 1.555.062.15.041 1.622.114-.14 1.734-.061.991.299 1.806.129.661 1.437-.356 1.06-.248.181.366 1.056-.237.958-.325 1.05-.434 1.154-.5.093.304.057.687.536.702-.17.536-.48 1.75-.37 1.471-.943.129-.299 1.079-.139.676-.185.542-.057.474.119.078-.155.366 1.401.635-.041.238-.206.154-.355.073-.32.263.32 1.058.154.423-.015.17-.304.47-.211.088v.413l-.242.402-.098.898-.248.393-.015.18.118.202-.108.263 1.829.604.093.392.33 1.822-.33-.16-.98 2.1.192.098-.376.8-.263-.072-.232.289-.165-.062-.19-.371-.3.108-.025.108-.484 1.172-.366-.134-.458-.093-.289.686.34.31.376.268.113.31-.19.155-.551.108-.278.119-.217-.305-1.56 1.394.175.232-.248.202.186.19-.495.728-.484.671.448.356.382.062-.552 1.187-.16-.247-.298.34-.35-.088-.196.15.16.434.237-.181-.067-.16.633-.093.201.429-.196.304.155.186-.237.258-.366.155-.123.16-.073.645.418.232.144-.02.216.18-.68.485-.51-.304-.345-.258-.278.067-.093.108.047.305-.134.206-.14.439-.015.299-.267.3-.289-.005-.309.825.809.604.03.238-.092.206.082.299.279.238-.036.408-.114.495.15.021.092.428.438-.243.196.176.463.273.361-.144.036-.176-.314-.443-.041-.253 1.004.676 1.123.511 1.514.96.84.542.886.547-.984.887-.211.212-1.138 1.017-1.865 1.693-.35.325-.397.113-.34.676.459.264.633.624-1.18 2.596-.128.232-.278-.01-.14.134 2.071 2.24"/></svg>