<svg xmlns="http://www.w3.org/2000/svg" width="338" height="222" fill="none" viewBox="0 0 338 222"><path id="Дніпровський" fill="#C8C6C6" fill-rule="evenodd" d="m130.7 162.422-2.168.325-1.417.232-.211-.428-.304.01-.252-1.708-.067-.645-.175-1.043-1.937.289.154.975-2.153.331h-.371l-1.401.263.145 1.13.098.073 1.637-.233-.036-.227 1.159-.165.088.748-1.751.258-1.061.186.041.32-2.9.46-.35-1.724-1.747.335-.134-.593-.808-2.049-.186-1.094.011-.155-.17-1.074-.083-.366.144-.124-.025-.676-2.045.062-1.901.077-.649.057-1.04.181.242 1.6-.948.139-.108-.299-1.942.242-.556.098-.763.047-.252-1.146 1.293-.284-.376-1.719.494-.129-.304-1.842 1.123-.181-.273-1.466 1.334-.32-.226-1.151.154-.046 1.221-.217-.526-2.498-.679.145-.325-1.409-.355-.031-.371.18-.186-.062-.757.062-.036-.149-.324-1.229 1.921-.495.927-.227.201.753 3.564-.955 1.298-.366-.412-2.457-.412-1.584.114-.114.643-.155.124.026.252-.149.062-.135-.092-.376 4.13-1.064 2.267-.573.675-.144.211 1.306.154.108.134-.356.484-.413.273-.072 1.077-.108.618-.032 1.561-.175-.155-1.455-.855.087-.17-.738-.139-.784.206-.021.263-.304.185-.124 1.942-.212.804-1.259-.078-.568-1.329-.072.139.877-.88.155h-.186l-2.766.413-.082-.666-.083-.299-.288-2.039-.458-2.802 1.349-.145.258 1.812.88-.109 1.932-.268-.247-2.193-.088-.455-.335-1.068-.185-1.192 2.493-.336-.103-.985.69.474.577-1.641.427-1.275.722.341.746.279.953.573.397.268.881-1.636.675.382.195.144.289-.129-.036-.253-.232-.872 1.993-.294.093.428.283-.057.649.708.186 1.744 1.39-.144.933-.135-.114-1.151-.164-1.104.026-.072-.114-.873-.087-.108.031-.341-.124-.258.165-.253.695-.48.036.31-.056.248.329-.041.17-.31.175.082.237-.113-.304-.666.119-.212-.278-.005-.16-.511-.237.042-.16-.325-.092-.635-.567-.583-1.334-.821.072-.434-.16-.098-.056-.351.407-.082.561-.181 1.365-.361.01-.134-.231-.95-.176-.625-.772-2.952-.232.042-.366-1.368-.623-2.436-.324-1.239.221-.062-.304-1.13-.154-.687-.242-.026-.227-.237-.572-.423-.015-.145-.783-.077.005.077.391.093.098.145-1.061-.103.124-1.77-2.225-.218.144-1.997 1.427.103 1.973.13.103-.76.175-.072.561-.474-.01-.227.268.092.865.016.51.03-.041.765.036.216.304.501.407.274-.052.237.716-.165 1.36-.356 1.272-.315.175.919.139-1.033.557-.093.51.413-.237-1.45.747-.124-.057-.361.886-.243.288.253.093.552-.5.073.129.444 1.211-.228 2.075 1.786.459-.5-.083-.16.073-.852-.165-1.105.067-.278 1.756.944.335.284.216.269.443.784.675 1.43.082.129.381.253.984.051-.072-.449-.082-.882 1.133-2.875-.649-.155-.417-.243-.284-.237-.314-.335-.257-.387-.351-.501-.092-.232-.253-.233.196-.325-.062-.237-.649.16-.587-.403-.577-.51-.36-.563-.691-.506-.494-.222-.247.015-.011-.17-.164-.243-.5-.345-.294.005.052-.186-.247-.026-.201-.144-.304-.104-.088.062-.443-.33-.298-.041-.279.077-.242-.201-.252-.062-.129-.17.314-.264.186.222.036.227.257-.093.387.078.319.175.155.16.345.15.237-.18-.103-.47-.196-.279-.443-.387-.196-.114-.602-.299-.227-.041-.206.185-.216-.082-.047-.134-.422-.005-.531.196-.494-.052-.103.067-.35-.005-.201-.144-.433-.114-.551.103-.139-.036-.144.16-.567.026-.371.294-.33.114-.515-.124-.757-.026.062-.32-.35-.212-.443-.154.082.278.242.078.294.248.01.345-.232-.036-.571-.63.103-.33-.253-.16-.288-.087-.423-.233-.53-.16-.397.067-.031.083-.644.14-.092-.43-.495-.175-.19-.134.123-.325.005-.248.356-.124-.103-.139.061-.284.16-.273.067-.387.155-.181-.119-.134.294-.744.046-.211.773.15-.062-.418.02-.393.17-.088.294-.366.077-.253-.061-.614.149-.036.958-.067-.067-.165.953-.083.752-.624.371-.031.062.63 2.338-.187-.124-1.44-.994.109.005.093-.303.691-1.391.109-.711.609-1.602.16-.361-.124.521-.356.252-.222.824-.614-.159-.176 1.226-1.037.061.134.304.098.417-.253.062-.186-.113-.211.36-.295.057-.294-.077-.547-.263-.46-.139-.324-.324-.14-.382.341-.231.103-.206-.041-.356.356.036.454.299.351.35.294.253.372-.129.175-1.252 1.064-.113.067-1.823-2.142-.073-.119-.86.697.134.16-.232.495-.231.217-.696-.423-.561.805.577.305v.113l.252.237.227.372.211.217.263.02.17.124.288.392.129.357-.016.444-.571 1.816-1.947-.986-1.118-.769-.664-.418-.629-.66-.7-.217-.768.041-.299-.067-.798-.402-.494-.377-.768-.78-.381-.485-.098-.738-.324-.418-.186-.361-.206-.769.041-.785.278-.65-.061-1.063-.268-.335-.356-.083-.535-.015-1.216-.12-.752-.139-.541-.227-.68-.438-1.112-1.048-.49-.361-.582-.336-.592-.02-.505-.202-.232-.573-.02-.382.216-1.027.217-.903-.021-.583-.206-.568-.695-.588-1.757-.052-1.123.13-.556-.264-.469-.305-.386-.345-.314-.537v-1.09l.479-.846-.33 1.25.34.092.145-.47.561-.16.124-.216-.119-.31-.376-.3-.046-.298.149-.114.371-.057.005-.196-.294-.258.619-.542.015-.175.469-.15-.103-.444.309-.784-.376-.021-.108-.15.216-.279-.196-.727.119-.078.494-.098.268-.134.247-.676.242-.217.469-.268.319-.398.361-.19.139-.191-1.617-1.183-.768.966-1.344.046-.047-2.193-.077-2.42 1.937-.078.592.082.041-.165.356-.031-.072.165.654.093.134-.372-.026-.196.402-.113-.073-.294-.113-.068-.309.16-.345-.15-.247.114-.299-.268-.397.041.186-1.95.541-.016.52.098.041.346.536-.212.386-.433.103-.284.01-1.079-.164.005-1.067.036.078-1.64.036-.347-2.643-1.698.448-.599-.968-.8.222-1.228.154-.99.628-3.577 1.417-2.266.062.01.881-1.424-.042-.037 1.159-1.842-.793-.614.211-.537-.515-.284-1.226-.495.428-.909.103-.371 1.009-.97.794-.026-.083-.656.979-.893-.299-.645 2.977-1.254-.438-.94 2.164-.567-.381-1.296-.114-.614-.458-.686.257-.45-.113-.34-.031-.449-.247-.872-.067-.346.783.382 1.051.815 1.535 1.151 1.39 1.069.433.315.16.061.69-.944.134-.227.252.175 1.823 1.404.299-.242.304-.475.397-.29.046-.118.294-.217 1.066.981 1.396 1.306.196-.031.793-.248.123.134.469-.475.119.124.793-.67-.366-.455.144-.145-.577-.655.109-.449.278-.201-.211-.3v-.278l.149-.135.247-.04.098-.233-.247-.14.031-.299.19-.14.17-.273-.139-.36.201-.28.17-.046.181.268.463.104.253-.026.128.118.412.13.119-.357-.217-.087-.118-.181-.062-.558-.103-.19.067-.222.16-.021-.088-.46-.005-.325.335-.026.134-.196.242.098-.098.29.191.118.159-.243.222.006.304-.155-.129-.377 1.319-.754.185-.216 1.113 1.873.721 1.244 2.055.103.01.583-.062.093.206.305 1.288 2.224.052.062-1.134.65.412.754-1.947 1.166 1.02 1.673 1.989-1.095 1.246 2.137 1.978 3.355.778 1.352-.866.563.634.913 1.463 2.173-.804.563 1.128 1.92-.417.17-.103-.16-.314.232.098.15-.964.408.212.47.195-.032-.005.222.278.253.428.506.762-.47 2.231 2.674.195.02.083.486-.866.738.515.624-1.334 1.08-1.808 1.542-1.107.934.191 2.333 2.426 1.012.067.852.159 1.739.907.712-.464 1.523-.036.185-.098 1.765.289.228.798 1.46.592.134-.37 1.807-.15.588-.108.63.273.103.093-.242.247-.424.381-.093.263.124.541.14-.011.072.32.294.278-.32.381-.263.706-.841 1.133-1.415-1.138-.893.314-.123.005-.13-.252-.278.092-.413.278-.232.186-.284.278-.093.17-.568.232-.273.391-.336.299-.046-.072-.382-.144-.258-.072-.454-.212-.294-.02-.243-.113-.284.072-.325.345-.196.118-.14.464-.247.252-.233.222.068.474.04.077.11.345.21.283.094.175.315.145-.217.54-.573.67-.645 1.35 1.398.01.124-.232.29.361.526-1 .83 2.148 2.612.417.573.227.186 1.334-1.234.103-.17.216-.093.243.124.334-.041.047.201-.139.49-.191.14-.082.315-.175.165-.042.516.5.495-.01.258-.145.093.006.243.252.196-.026.496-.232-.042-.51.413-1.555 1.332.51.19.376.197.128.222.212.113.365.408.294.201-.16.165.417 1.033.361.315.392.206.257.268-.52.465.056.609-.257-.578-.35.335.015-.325-.216-.15-.294.197-.17-.217-.376.098-.196.263-.211-.258-.443.361.011.186.242.243-.294.062-.134.232.325.433-.356.325.881.981 1.834-1.786.664-.624.088-.207.185.057.227.34.407.3.448.212.062.237-.505.516.602.558.134-.145.191.036.263.274.278.506.314.315.319.428.361.046.185-.154.005-.145.747-.511.206-.212.922-1.672.639-1.125.989-1.873.216-.44 1.247-1.852.371.253.541.397.226-.31.922.697.536.362.144.206.319-.222.263.114 1.453.449.865.294 2.21.717-.448 3.071-.037.13-1.395.887-.083.083.217.314.623 1.028 1.179 1.888-.376.264-.201.067.309.542.263.119.108.154.005.238.119.397.252.413 1.283-.552 1.087-.5.515-.207.52.769.165-.067.33.903-.212.268-1.179-.418-.18-.103-.268-.005-.392.547-.113-.047-.165.263-.165.558-.108.212-.515 1.445-.33 1.017-.587 1.553.283.17-.206.325.206.253-.087.109.669.841-.664.47-1.504.985-.608.31.871.914.546-.661.643.743.176.124.504.542.186.01.247.475.057.103 4.239 2.767.067-.052.499.94.351 2.054.087.263-.077.294 1.046.062.69-.196.417.79.319.68v.15l-.448.45.222.603.314.604.402.64.257.496 1.86-1.022 1.04-.553.216.61.15.092.139.486-.608.278-.232-.268-.417.19v.28l.798 1.59-.211.05-.293-.144-.201.212-.752.454-.927.532-.072.082.283.532-.041.057.309.645.947 1.822-.999.15-3.914.701-.037.016-.19-.104-.479.64-.031.217.211.057.288-.036.294.108.428.274.206.242-.129.13.329.392-.18.474.253-.026.082-.154.762.449.16-.052.211.676.16.237-.026.135-.891-.212-.685-.103.108.351.144.031.531.743.185.145.077.247.279.393.803-.305.103 1.006.273.341 1.617 1.265.526.18.067.196-.629.088.103.563-.087.015.051.625-.376.129-.216-.222-.221.087.18.315.226.083-.829.475-.381-.651-.247.454-.16.104-.494.165-.119.17-.453.429-.345.18.185.377.433.692 1.118 1.672-.145.149-.623.15-.082.17-.366.228-.144.345.082.3-.185.366-.165.078-.252-.439-.222.196-.196-.01-.139.407.041.14-.278.542-.02.191-.222.299-.19-.046-.103.247.494.047-.206.32.083.65.005.377-.253.155.078.284-.268.289.159.304.067.325-.02.134-.247.3-.139.278.015.186-.392.444-.236.031-.181.258-.211.047-.273.428-.082.408.082.299-.088.088-.303-.005-.17.227-.196-.341-.366-.335-.778-.073-.169-.056-.191-.32-.098.021-.113-.367-.186-.015-1.205.547.963 1.321.417 2.163.196 1.476-.01.81-.216.403-.098.495-.237.836-.16.718-.453 2.456-.144 1.399.087.583.253.516.309.749.164.624.011.749-.124.139-.51.397-.618.439-.84.356-.391.258-.536.15-.556-.031-.551-.15-.32-.015-.504-.114-.824-.129-.763-.067-.391-.072-1.2.093-.392.108-.829.547-.52.258-.382.042-.932.01-.35.268-.525.625-.423.552-.17.139-.309.687-.129.418-.061.356-.557.124-.989.16-.355.17-.453.031-1.247.413-.556.15-.067-.356-.175-.46-.577.083-3.127.521-1.097.201-.02-.273-1.273.196-.334-1.677.036-.011.036-1.223.705-.113-.339-2.024-2.936.45-.243-.852-1.952.098.418 2.591.88 5.316.443 2.044-1.509.248-.907.123-.695.129.299 1.735.33 2.916-.078.031-2.328.387.268 1.724-2.148.34-2.101.305-.078-.449-2.245 1.275-.258-1.389-.737-3.793-.046-.042-3.868.692-1.514.263-.067-.263-.294.026-1.004.206-1.628.264-2.565.454.092.593.33 1.874.263 1.558-2.024.372.113.645.237 1.59-3.132.402.144.548-.092.025-1.942.326.247 1.512-1.025.139-.685.114-.34.026-.536.113-.87.134.129.831" clip-rule="evenodd"/><path stroke="#000" stroke-linecap="round" stroke-linejoin="round" stroke-width=".2" d="m130.7 162.422-2.168.325-1.417.232-.211-.428-.304.01-.252-1.708-.067-.645-.175-1.043-1.937.289.154.975-2.153.331h-.371l-1.401.263.145 1.13.098.073 1.637-.233-.036-.227 1.159-.165.088.748-1.751.258-1.061.186.041.32-2.9.46-.35-1.724-1.747.335-.134-.593-.808-2.049-.186-1.094.011-.155-.17-1.074-.083-.366.144-.124-.025-.676-2.045.062-1.901.077-.649.057-1.04.181.242 1.6-.948.139-.108-.299-1.942.242-.556.098-.763.047-.252-1.146 1.293-.284-.376-1.719.494-.129-.304-1.842 1.123-.181-.273-1.466 1.334-.32-.226-1.151.154-.046 1.221-.217-.526-2.498-.679.145-.325-1.409-.355-.031-.371.18-.186-.062-.757.062-.036-.149-.324-1.229 1.921-.495.927-.227.201.753 3.564-.955 1.298-.366-.412-2.457-.412-1.584.114-.114.643-.155.124.026.252-.149.062-.135-.092-.376 4.13-1.064 2.267-.573.675-.144.211 1.306.154.108.134-.356.484-.413.273-.072 1.077-.108.618-.032 1.561-.175-.155-1.455-.855.087-.17-.738-.139-.784.206-.021.263-.304.185-.124 1.942-.212.804-1.259-.078-.568-1.329-.072.139.877-.88.155h-.186l-2.766.413-.082-.666-.083-.299-.288-2.039-.458-2.802 1.349-.145.258 1.812.88-.109 1.932-.268-.247-2.193-.088-.455-.335-1.068-.185-1.192 2.493-.336-.103-.985.69.474.577-1.641.427-1.275.722.341.746.279.953.573.397.268.881-1.636.675.382.195.144.289-.129-.036-.253-.232-.872 1.993-.294.093.428.283-.057.649.708.186 1.744 1.39-.144.933-.135-.114-1.151-.164-1.104.026-.072-.114-.873-.087-.108.031-.341-.124-.258.165-.253.695-.48.036.31-.056.248.329-.041.17-.31.175.082.237-.113-.304-.666.119-.212-.278-.005-.16-.511-.237.042-.16-.325-.092-.635-.567-.583-1.334-.821.072-.434-.16-.098-.056-.351.407-.082.561-.181 1.365-.361.01-.134-.231-.95-.176-.625-.772-2.952-.232.042-.366-1.368-.623-2.436-.324-1.239.221-.062-.304-1.13-.154-.687-.242-.026-.227-.237-.572-.423-.015-.145-.783-.077.005.077.391.093.098.145-1.061-.103.124-1.77-2.225-.218.144-1.997 1.427.103 1.973.13.103-.76.175-.072.561-.474-.01-.227.268.092.865.016.51.03-.041.765.036.216.304.501.407.274-.052.237.716-.165 1.36-.356 1.272-.315.175.919.139-1.033.557-.093.51.413-.237-1.45.747-.124-.057-.361.886-.243.288.253.093.552-.5.073.129.444 1.211-.228 2.075 1.786.459-.5-.083-.16.073-.852-.165-1.105.067-.278 1.756.944.335.284.216.269.443.784.675 1.43.082.129.381.253.984.051-.072-.449-.082-.882 1.133-2.875-.649-.155-.417-.243-.284-.237-.314-.335-.257-.387-.351-.501-.092-.232-.253-.233.196-.325-.062-.237-.649.16-.587-.403-.577-.51-.36-.563-.691-.506-.494-.222-.247.015-.011-.17-.164-.243-.5-.345-.294.005.052-.186-.247-.026-.201-.144-.304-.104-.088.062-.443-.33-.298-.041-.279.077-.242-.201-.252-.062-.129-.17.314-.264.186.222.036.227.257-.093.387.078.319.175.155.16.345.15.237-.18-.103-.47-.196-.279-.443-.387-.196-.114-.602-.299-.227-.041-.206.185-.216-.082-.047-.134-.422-.005-.531.196-.494-.052-.103.067-.35-.005-.201-.144-.433-.114-.551.103-.139-.036-.144.16-.567.026-.371.294-.33.114-.515-.124-.757-.026.062-.32-.35-.212-.443-.154.082.278.242.078.294.248.01.345-.232-.036-.571-.63.103-.33-.253-.16-.288-.087-.423-.233-.53-.16-.397.067-.031.083-.644.14-.092-.43-.495-.175-.19-.134.123-.325.005-.248.356-.124-.103-.139.061-.284.16-.273.067-.387.155-.181-.119-.134.294-.744.046-.211.773.15-.062-.418.02-.393.17-.088.294-.366.077-.253-.061-.614.149-.036.958-.067-.067-.165.953-.083.752-.624.371-.031.062.63 2.338-.187-.124-1.44-.994.109.005.093-.303.691-1.391.109-.711.609-1.602.16-.361-.124.521-.356.252-.222.824-.614-.159-.176 1.226-1.037.061.134.304.098.417-.253.062-.186-.113-.211.36-.295.057-.294-.077-.547-.263-.46-.139-.324-.324-.14-.382.341-.231.103-.206-.041-.356.356.036.454.299.351.35.294.253.372-.129.175-1.252 1.064-.113.067-1.823-2.142-.073-.119-.86.697.134.16-.232.495-.231.217-.696-.423-.561.805.577.305v.113l.252.237.227.372.211.217.263.02.17.124.288.392.129.357-.016.444-.571 1.816-1.947-.986-1.118-.769-.664-.418-.629-.66-.7-.217-.768.041-.299-.067-.798-.402-.494-.377-.768-.78-.381-.485-.098-.738-.324-.418-.186-.361-.206-.769.041-.785.278-.65-.061-1.063-.268-.335-.356-.083-.535-.015-1.216-.12-.752-.139-.541-.227-.68-.438-1.112-1.048-.49-.361-.582-.336-.592-.02-.505-.202-.232-.573-.02-.382.216-1.027.217-.903-.021-.583-.206-.568-.695-.588-1.757-.052-1.123.13-.556-.264-.469-.305-.386-.345-.314-.537v-1.09l.479-.846-.33 1.25.34.092.145-.47.561-.16.124-.216-.119-.31-.376-.3-.046-.298.149-.114.371-.057.005-.196-.294-.258.619-.542.015-.175.469-.15-.103-.444.309-.784-.376-.021-.108-.15.216-.279-.196-.727.119-.078.494-.098.268-.134.247-.676.242-.217.469-.268.319-.398.361-.19.139-.191-1.617-1.183-.768.966-1.344.046-.047-2.193-.077-2.42 1.937-.078.592.082.041-.165.356-.031-.072.165.654.093.134-.372-.026-.196.402-.113-.073-.294-.113-.068-.309.16-.345-.15-.247.114-.299-.268-.397.041.186-1.95.541-.016.52.098.041.346.536-.212.386-.433.103-.284.01-1.079-.164.005-1.067.036.078-1.64.036-.347-2.643-1.698.448-.599-.968-.8.222-1.228.154-.99.628-3.577 1.417-2.266.062.01.881-1.424-.042-.037 1.159-1.842-.793-.614.211-.537-.515-.284-1.226-.495.428-.909.103-.371 1.009-.97.794-.026-.083-.656.979-.893-.299-.645 2.977-1.254-.438-.94 2.164-.567-.381-1.296-.114-.614-.458-.686.257-.45-.113-.34-.031-.449-.247-.872-.067-.346.783.382 1.051.815 1.535 1.151 1.39 1.069.433.315.16.061.69-.944.134-.227.252.175 1.823 1.404.299-.242.304-.475.397-.29.046-.118.294-.217 1.066.981 1.396 1.306.196-.031.793-.248.123.134.469-.475.119.124.793-.67-.366-.455.144-.145-.577-.655.109-.449.278-.201-.211-.3v-.278l.149-.135.247-.04.098-.233-.247-.14.031-.299.19-.14.17-.273-.139-.36.201-.28.17-.046.181.268.463.104.253-.026.128.118.412.13.119-.357-.217-.087-.118-.181-.062-.558-.103-.19.067-.222.16-.021-.088-.46-.005-.325.335-.026.134-.196.242.098-.098.29.191.118.159-.243.222.006.304-.155-.129-.377 1.319-.754.185-.216 1.113 1.873.721 1.244 2.055.103.01.583-.062.093.206.305 1.288 2.224.052.062-1.134.65.412.754-1.947 1.166 1.02 1.673 1.989-1.095 1.246 2.137 1.978 3.355.778 1.352-.866.563.634.913 1.463 2.173-.804.563 1.128 1.92-.417.17-.103-.16-.314.232.098.15-.964.408.212.47.195-.032-.005.222.278.253.428.506.762-.47 2.231 2.674.195.02.083.486-.866.738.515.624-1.334 1.08-1.808 1.542-1.107.934.191 2.333 2.426 1.012.067.852.159 1.739.907.712-.464 1.523-.036.185-.098 1.765.289.228.798 1.46.592.134-.37 1.807-.15.588-.108.63.273.103.093-.242.247-.424.381-.093.263.124.541.14-.011.072.32.294.278-.32.381-.263.706-.841 1.133-1.415-1.138-.893.314-.123.005-.13-.252-.278.092-.413.278-.232.186-.284.278-.093.17-.568.232-.273.391-.336.299-.046-.072-.382-.144-.258-.072-.454-.212-.294-.02-.243-.113-.284.072-.325.345-.196.118-.14.464-.247.252-.233.222.068.474.04.077.11.345.21.283.094.175.315.145-.217.54-.573.67-.645 1.35 1.398.01.124-.232.29.361.526-1 .83 2.148 2.612.417.573.227.186 1.334-1.234.103-.17.216-.093.243.124.334-.041.047.201-.139.49-.191.14-.082.315-.175.165-.042.516.5.495-.01.258-.145.093.006.243.252.196-.026.496-.232-.042-.51.413-1.555 1.332.51.19.376.197.128.222.212.113.365.408.294.201-.16.165.417 1.033.361.315.392.206.257.268-.52.465.056.609-.257-.578-.35.335.015-.325-.216-.15-.294.197-.17-.217-.376.098-.196.263-.211-.258-.443.361.011.186.242.243-.294.062-.134.232.325.433-.356.325.881.981 1.834-1.786.664-.624.088-.207.185.057.227.34.407.3.448.212.062.237-.505.516.602.558.134-.145.191.036.263.274.278.506.314.315.319.428.361.046.185-.154.005-.145.747-.511.206-.212.922-1.672.639-1.125.989-1.873.216-.44 1.247-1.852.371.253.541.397.226-.31.922.697.536.362.144.206.319-.222.263.114 1.453.449.865.294 2.21.717-.448 3.071-.037.13-1.395.887-.083.083.217.314.623 1.028 1.179 1.888-.376.264-.201.067.309.542.263.119.108.154.005.238.119.397.252.413 1.283-.552 1.087-.5.515-.207.52.769.165-.067.33.903-.212.268-1.179-.418-.18-.103-.268-.005-.392.547-.113-.047-.165.263-.165.558-.108.212-.515 1.445-.33 1.017-.587 1.553.283.17-.206.325.206.253-.087.109.669.841-.664.47-1.504.985-.608.31.871.914.546-.661.643.743.176.124.504.542.186.01.247.475.057.103 4.239 2.767.067-.052.499.94.351 2.054.087.263-.077.294 1.046.062.69-.196.417.79.319.68v.15l-.448.45.222.603.314.604.402.64.257.496 1.86-1.022 1.04-.553.216.61.15.092.139.486-.608.278-.232-.268-.417.19v.28l.798 1.59-.211.05-.293-.144-.201.212-.752.454-.927.532-.072.082.283.532-.041.057.309.645.947 1.822-.999.15-3.914.701-.037.016-.19-.104-.479.64-.031.217.211.057.288-.036.294.108.428.274.206.242-.129.13.329.392-.18.474.253-.026.082-.154.762.449.16-.052.211.676.16.237-.026.135-.891-.212-.685-.103.108.351.144.031.531.743.185.145.077.247.279.393.803-.305.103 1.006.273.341 1.617 1.265.526.18.067.196-.629.088.103.563-.087.015.051.625-.376.129-.216-.222-.221.087.18.315.226.083-.829.475-.381-.651-.247.454-.16.104-.494.165-.119.17-.453.429-.345.18.185.377.433.692 1.118 1.672-.145.149-.623.15-.082.17-.366.228-.144.345.082.3-.185.366-.165.078-.252-.439-.222.196-.196-.01-.139.407.041.14-.278.542-.02.191-.222.299-.19-.046-.103.247.494.047-.206.32.083.65.005.377-.253.155.078.284-.268.289.159.304.067.325-.02.134-.247.3-.139.278.015.186-.392.444-.236.031-.181.258-.211.047-.273.428-.082.408.082.299-.088.088-.303-.005-.17.227-.196-.341-.366-.335-.778-.073-.169-.056-.191-.32-.098.021-.113-.367-.186-.015-1.205.547.963 1.321.417 2.163.196 1.476-.01.81-.216.403-.098.495-.237.836-.16.718-.453 2.456-.144 1.399.087.583.253.516.309.749.164.624.011.749-.124.139-.51.397-.618.439-.84.356-.391.258-.536.15-.556-.031-.551-.15-.32-.015-.504-.114-.824-.129-.763-.067-.391-.072-1.2.093-.392.108-.829.547-.52.258-.382.042-.932.01-.35.268-.525.625-.423.552-.17.139-.309.687-.129.418-.061.356-.557.124-.989.16-.355.17-.453.031-1.247.413-.556.15-.067-.356-.175-.46-.577.083-3.127.521-1.097.201-.02-.273-1.273.196-.334-1.677.036-.011.036-1.223.705-.113-.339-2.024-2.936.45-.243-.852-1.952.098.418 2.591.88 5.316.443 2.044-1.509.248-.907.123-.695.129.299 1.735.33 2.916-.078.031-2.328.387.268 1.724-2.148.34-2.101.305-.078-.449-2.245 1.275-.258-1.389-.737-3.793-.046-.042-3.868.692-1.514.263-.067-.263-.294.026-1.004.206-1.628.264-2.565.454.092.593.33 1.874.263 1.558-2.024.372.113.645.237 1.59-3.132.402.144.548-.092.025-1.942.326.247 1.512-1.025.139-.685.114-.34.026-.536.113-.87.134.129.831"/><path id="Синельниківський" fill="#C8C6C6" fill-rule="evenodd" d="m307.691 172.598-5.44 1.378.16.96-3.508.521-.68.083-2.06-.005-.428-.14-.504-.237-.794-.047-.556-.175-.247.093-.577.062-.649-.274-.556-.139-.938.077-.86.129-.201-1.104-.968-.021-2.993-.16-.299.005-.072.403.356.33.082.171.206.134-.113.377.201.191.031.154-.181.248.088.238.149.108-2.024.439-.881.175-.041-.232-1.916.273-.052-.211-.123-.826-.366-.63-.273-.588-5.779.088.015-.114-.293-.206-.062-.331-.165-.026-.18.135-.088-.191-.031-.367.34-.444.381-1.068.047-.655-.33-.088-1.355.284.134.831-.808.103-3.292.537-2.447.392-.133-.877-.541-.109-.088.062-.731.057-.86.124-.438-2.416-.958-.098-.284-1.497 2.236-.428.118.48.459 2.312.69-.082 1.277-.227.716-.114-.02-.397.417-1.389.283-.531.124-.088.252-.588.222-.284.309-.243-.17-.17-.531.325-.597-1.12.484-.248-1.097-2.111-.361-.733.788-.418-.752-1.455-.175-.268-1.179.805-.871.64-.489-2.395-.443-2.034-.587.289-1.309.578-.324-.934 1.942-.779-.402-1.254-.345-2.498-1.355-.222-.396-.052.005-.113-.582-1.76 2.642-.821-.819-2.658.175-.057-.479-1.543-.093.047-6.448 1.945.195-.707.031-.268.474-.795.407.026v-.253l-.628-.578-.191.057-.304.485-.149.005-.139-.227.19-.547.026-.212-.386-.686.031-.253.392-.207.18-.227.597-.01.093-.268.005-.78-.134-.092-.546.077-.154-.145.072-.387-.052-.232-.664-.299-.314.118-3.132 1.244-.546.227-1.509.346-6.161 1.435-1.122.258-.304-1.383-.397-2.075-.154-.924-.443.243-1.025.392-.608.119-.706-.315-1.452-.124v.196l-1.128.129-.959-1.595-2.019-3.447-.381-.645-.587.5-1.03.599-2.962 1.615-3.276 1.807-2.395 1.306-2.426 1.331-2.503 1.161-.417-2.374.015-.108-.536-.232-.17-.119-.309-.072-.268.16-.386-.052-.247.103-.366-.041-.206.098-.371.072-.159-.031-.248-.284-.252-.093-.206.068-.762-.393-.212.062-.34-.222-.298.021-.387-.196-.221.036-.402-.134.052.252-2.009.253-.103-1.052-.289-.186-.34-.145-.159.047-.526-.129-.144-.176.005-.16-.329-.051-.098.108-.289-.015-.484-.382-.525-.372-.175.186-.217.062-.221-.088-.557-.057-.051-.17-.216-.062-.412-.005-.253-.109-.34.124-.051-.165-.479-.031-.211-.211-.196.036-.273.056-.356-.191-.267-.443-.778-.387-.5-.351-.814-.615-.644-.402-.587-.217h-.695l-.881.217-.448.139-.968.552-.742.129-.35.031-.732-.041-.788-.428-.252-.103-.284-.238-.772.3-1.211-.109-.262.067-.01-.748-.165-.625-.309-.748-.253-.516-.087-.583.144-1.399.453-2.457.16-.717.237-.836.098-.496.216-.402.01-.811-.195-1.476-.418-2.162-.963-1.322 1.205-.547.186.016.113.366.098-.02.191.32.17.057.777.072.366.335.196.341.17-.227.304.005.087-.088-.082-.299.082-.408.273-.428.211-.047.181-.258.237-.031.391-.444-.015-.186.139-.278.247-.3.021-.134-.068-.325-.159-.304.268-.289-.078-.284.253-.155-.005-.377-.083-.65.206-.32-.494-.047.103-.247.19.046.222-.299.02-.191.279-.542-.042-.14.139-.407.196.01.222-.196.252.439.165-.078.185-.366-.082-.3.144-.345.366-.228.082-.17.624-.15.144-.149-1.118-1.672-.433-.692-.185-.377.345-.18.453-.429.119-.17.494-.165.16-.104.247-.454.381.651.83-.475-.227-.083-.18-.315.221-.087.216.222.376-.129-.051-.625.087-.015-.102-.563.628-.088-.067-.196-.525-.18-1.618-1.265-.273-.341-.103-1.006-.803.305-.279-.393-.077-.247-.185-.145-.531-.743-.144-.031-.108-.351.685.103.891.212.026-.135-.16-.237-.211-.676-.16.052-.762-.449-.082.154-.253.026.181-.474-.33-.393.129-.129-.206-.242-.428-.274-.293-.108-.289.036-.211-.057.031-.217.479-.64.191.104.036-.016 3.914-.702.999-.15.232.403.649 1.254.139.217.479-.17.387-.284 2.075-1.125.304-.207-.468-1.011 1.05-.429 1.036-.588-.572-1.177-.469-.857-.808-1.538-.366-.743-1.334-2.606 2.194-1.156.767 1.486.098.248 1.643-.867.335.66.258-.118-1.175-2.705 1.535-.794.495.985 1.746-.918 1.03-.579.129.207 2.009.366 2.369.455 1.89.376.438.073.515.098.273 1.11.613 2.363 2.782-.697-.469-1.904.062-.088.34-.077.711-.243 2.07-.557.938-.238.087-.118-.443-1.765 1.185-.326.448.857.479 1.058.057.047.675 1.027-2.014 1.502.407 1.037 2.338 3.133.242-.201 1.715-1.513 1.989 2.473.154.428.865 1.14 1.566-1.45.732.795 1.184-.94.67.548.191-.098.715.728.376.443.783 1.27 1.298 1.936-1.627.846.17.413.18.944.278 1.58-1.401.289-.479.026-2.323.201 1.247 1.863-1.17.955-1.468 1.233-.267.011-.232-.16-.103-.269.144-.273-.098-.294-.366-.429-.2-.108-.098-.392-.067.072-.799.454.737 1.332-1.86 1.068.248.449 1.504 2.627.113.227h.412l.124.088.134-.289.278-.207.159-.242.191-.052.113.382.613-.191.217-.021.041-.155.242.109.124-.139.334.247.371.093.124.191.293-.165.119.129.536-.289.247.289-.165.129.062.47-.217.062-.061.227-.16.175.273.072-.026.372.278.526-.077.15-.35.248-.196-.134v.697l.433.015-.006.346.186.32.139.067.371-.289.206.237.026.263-.078.253-.267-.031-.031.238-.459-.021-.149.32.479.248.051.433.366.516.268-.124.881.357 1.061.345-.139-1.011-.191-1.213-.098-.795 1.654-.263.896-.124-.165-1.089-.407-3.004-.201-1.321 1.818-.258.057-.263-.216-1.575-.15-.712 1.52-.34-.113-.733 2.39-.475.479-.083.85-.196.005-.418-.263-.16-.283-.273-.139.02-.098.237-.134.011-.273-.501-.196-.268.103-.398.865.016.371-.171.356-.278.334-.068.753.331.685.263 4.857 2.064.299.145 1.179.495.036.006 1.818.758 2.354 1.002 1.793.748 1.051.418.319.17.968.372.258.165.556.191 1.051.449.026-.052-.345-.944-.062-.103-.505-1.507-.211-.537-1.252-3.499-.762-2.168-.597-1.62.041-.109-.423-.227.139-.155.078-.263-.134-.263-.304-.264.103-.123-.587-1.642-.042-.237.268-.248.242.067-.015.418.103.253.216.15-.056.242.257.01.227.176.211-.052.088.176.304-.082.267.092.155-.036.52.429.268-.14.165.134.304-.051.154.382.124.108.263-.15.247-.289.175.073.633.49.016.175-.5.955-.144.738.175.47.201.083.294-.12.231-.252.175.026-.139.547.165.201.155-.129.185-.3.258-.17.299-.051.154-.207.062-.263-.186-.196.078-.119.535-.2.284-.171.577-.284.448-.088.376-.175.247-.584.242-.129.268.068-.113.227.133.124.376-.114.145.077-.016.243.242.077.114-.103-.021-.248.165-.046.258.227.345.057.597-.119-.031.372.129.072.242-.134.428-.558.082-.185.654-.806.258-.16.571.197-.036-.233.093-.129.304-.077.829-1.1 1.52-2.08.283-.345-.597-.454 1.2-1.657 1.406-1.838.386-.593.536-.728.407-.47.345-.459.103-.046.216-.398 1.844-2.477.49-.64 1.262.95 1.39 1.104-.458.604.463.356.773-1.032.417-.511.541-.754.412-.516.953-1.27.021-.056-.923-.718.68-.98.886-1.321.675-.96.222-.367.839-1.239.577-.779.258.15.417.144.329.01.268-.061-.067-.222-.541-.16-.473-.036.242-.372.834-1.156-.139-.217-.546-.175-.649-.15-.469-.237.052-.181.84.067.293.067 1.102.14 1.097-1.415.789-1.089 1.076-1.42.082.021.856.671.515.434 1.684 1.368.453.407 2.086 1.662 1.015.847.149.397-.02.165.206.072 1.118.068.149 1.094.819-.103.103.701.927-.165 1.901-.299 2.611-.423-.134-.857 1.211-.207.453-.061.026-.037-.124-.769.165-.036 2.421-.346.103.697 1.313-.227 1.633-.253.186 1.399.355 2.384 1.02-.206 1.834-.325.087.547.675 3.742 1.339-.16.654-.12 1.066-.118.052.434.979-.088 1.916-.227.036.01.103.547.505.702.072.558.386.614.932-.119.165 1.172 1.406-.176.222 1.636.211 1.223-1.246.176-.232-.005-.036-.196-1.427.175-1.824.237.073.656.067.294.144 1.022.031.067.263 1.879-1.577.232-.736.093.093.867.066.372.176 1.64.154 1.57.134.852.701-.078.092.883.16 1.099.252.521-.149.444.155.372-.078.206-.736-.604-.212.109-.236-.036-.016.263-.144.16-.309-.067-.546.346.041.247.206.098.191-.072.077.227.345.057-.144.237.041.155.196.015-.098.238-.448-.015-.747.036.062.567.314 2.06.088.789.144 1.131-.191.036v.186l-.319.263-.51-.124-.082-.165-.243-.088.098.558.284 1.997-.639.077.319 2.245.124.568.242 1.678 1.087-.15 2.276-.232.742-.119.484-.041.212 1.434.937-.149 2.323-.3.113.558.701 4.949.201 1.275.242 1.869.005.227.175 1.016.216 1.518.433 3.174-.479-.212-.335.14-.288.026-.289.113-.489-.082-.319.129-.165.18-.345-.175-.098.196.237.325-.155.17-.18-.051-.041-.274-.206.021-.098.372-.16-.005-.129-.259.052-.216-.196-.005-.015.366-.124.32.242.134-.216.32.17.171-.015.16-.557.299-.216-.119-.129-.18.139-.321-.499.021-.304-.211-.211-.026.051.49.5 3.185.036.34.226 1.383.279 1.853-.011.016.32 2.038.206 1.574.391 2.576-1.267 1.811.031.212-1.071-.119-.186 1.404-.752-.077-.185 1.651-.093.62-.592-.202-.196-.273-.227-.083-.159-.041-.222.103-.113.186-.366.134-.221-.113-.232.056-.546-.48-.278-.118h-.407l-.17-.16-.165-.289-.082-.325-.273-.099-.021-.196.124-.345-.196-.176-.345.098-.144.258-.361.217-.293-.145-.315-.227-.226.217-.036.258-.253-.139-.226-.031-.155.175-.201.01-.046-.299-.196-.062-.082-.17-.278-.186-.124-.268-.33.072-.051.341-.289.041-.103.222-.298.098-.701-.191.036-.155-.237-.186.165-.361-.067-.222.18-.181.186.006.196-.258-.212-.145-.252-.284-.402-.072-.072-.346-.536-.031-.19-.088-.273-.232-.072-.268.041-.217-.139-.181.082-.423-.237-.088-.103-.258-.221-.247-.258-.037-.041.269-.16.366-.417-.026-.165-.222-.355-.036-.242-.118-.247-.305-.5-.15-.268.011-.314.123-.556-.572-.15-.057-.561-.042-.309.372-.186.036-.103-.356-.113-.144-.453-.377.257-.403-.134-.17-.262-.145-.206.098-.072.532-.48-.186-.159.191-.356-.057-.19.207.283.279.577-.248.273.103.18.521-.211.104-.232-.222-.185.299-.201-.191-.242-.098-.216.248-.567-.186-.098.072.005.294.278-.056.067.221-.262.181-.124-.294-.237.082-.134.336-.19-.176-.181-.046-.123-.217-.598-.155-.036-.258-.716-.196-.108.315.386.238-.056.129-.376.134-.49.284-.68-.026.15.289-.031.16-.211.103-.279-.253-.133.052.005.196.237.196.211-.083.134.14-.186.423.119.48.036.583-.314.15-.335.026-.005.304.293.031.119.315.427.635-.443.351-.819 1.213.016.087.396.315.469.645.227.408.159.718.165.258-.031.206-.345.268-.325.166-.437.062-.186.139-.422.165-.16.232.186.145.134-.145.417.16.376.393.319.588.077.227-.103.15-.211-.134-.319.077-.237.315.062.051.072.609.365 2.524.062.336.227 1.646 3.435-.619.289-.042.237 1.389.221 1.213.119.758.324 1.817-1.875.356-1.931-.485-.407.015-.021.191.207 1.182-1.077.134-.541.093-2.647.382.175 1.089.453 2.524 1.293-.211.942-.171.078.042.118.65.582 3.453" clip-rule="evenodd"/><path stroke="#000" stroke-linecap="round" stroke-linejoin="round" stroke-width=".2" d="m307.691 172.598-5.44 1.378.16.96-3.508.521-.68.083-2.06-.005-.428-.14-.504-.237-.794-.047-.556-.175-.247.093-.577.062-.649-.274-.556-.139-.938.077-.86.129-.201-1.104-.968-.021-2.993-.16-.299.005-.072.403.356.33.082.171.206.134-.113.377.201.191.031.154-.181.248.088.238.149.108-2.024.439-.881.175-.041-.232-1.916.273-.052-.211-.123-.826-.366-.63-.273-.588-5.779.088.015-.114-.293-.206-.062-.331-.165-.026-.18.135-.088-.191-.031-.367.34-.444.381-1.068.047-.655-.33-.088-1.355.284.134.831-.808.103-3.292.537-2.447.392-.133-.877-.541-.109-.088.062-.731.057-.86.124-.438-2.416-.958-.098-.284-1.497 2.236-.428.118.48.459 2.312.69-.082 1.277-.227.716-.114-.02-.397.417-1.389.283-.531.124-.088.252-.588.222-.284.309-.243-.17-.17-.531.325-.597-1.12.484-.248-1.097-2.111-.361-.733.788-.418-.752-1.455-.175-.268-1.179.805-.871.64-.489-2.395-.443-2.034-.587.289-1.309.578-.324-.934 1.942-.779-.402-1.254-.345-2.498-1.355-.222-.396-.052.005-.113-.582-1.76 2.642-.821-.819-2.658.175-.057-.479-1.543-.093.047-6.448 1.945.195-.707.031-.268.474-.795.407.026v-.253l-.628-.578-.191.057-.304.485-.149.005-.139-.227.19-.547.026-.212-.386-.686.031-.253.392-.207.18-.227.597-.01.093-.268.005-.78-.134-.092-.546.077-.154-.145.072-.387-.052-.232-.664-.299-.314.118-3.132 1.244-.546.227-1.509.346-6.161 1.435-1.122.258-.304-1.383-.397-2.075-.154-.924-.443.243-1.025.392-.608.119-.706-.315-1.452-.124v.196l-1.128.129-.959-1.595-2.019-3.447-.381-.645-.587.5-1.03.599-2.962 1.615-3.276 1.807-2.395 1.306-2.426 1.331-2.503 1.161-.417-2.374.015-.108-.536-.232-.17-.119-.309-.072-.268.16-.386-.052-.247.103-.366-.041-.206.098-.371.072-.159-.031-.248-.284-.252-.093-.206.068-.762-.393-.212.062-.34-.222-.298.021-.387-.196-.221.036-.402-.134.052.252-2.009.253-.103-1.052-.289-.186-.34-.145-.159.047-.526-.129-.144-.176.005-.16-.329-.051-.098.108-.289-.015-.484-.382-.525-.372-.175.186-.217.062-.221-.088-.557-.057-.051-.17-.216-.062-.412-.005-.253-.109-.34.124-.051-.165-.479-.031-.211-.211-.196.036-.273.056-.356-.191-.267-.443-.778-.387-.5-.351-.814-.615-.644-.402-.587-.217h-.695l-.881.217-.448.139-.968.552-.742.129-.35.031-.732-.041-.788-.428-.252-.103-.284-.238-.772.3-1.211-.109-.262.067-.01-.748-.165-.625-.309-.748-.253-.516-.087-.583.144-1.399.453-2.457.16-.717.237-.836.098-.496.216-.402.01-.811-.195-1.476-.418-2.162-.963-1.322 1.205-.547.186.016.113.366.098-.02.191.32.17.057.777.072.366.335.196.341.17-.227.304.005.087-.088-.082-.299.082-.408.273-.428.211-.047.181-.258.237-.031.391-.444-.015-.186.139-.278.247-.3.021-.134-.068-.325-.159-.304.268-.289-.078-.284.253-.155-.005-.377-.083-.65.206-.32-.494-.047.103-.247.19.046.222-.299.02-.191.279-.542-.042-.14.139-.407.196.01.222-.196.252.439.165-.078.185-.366-.082-.3.144-.345.366-.228.082-.17.624-.15.144-.149-1.118-1.672-.433-.692-.185-.377.345-.18.453-.429.119-.17.494-.165.16-.104.247-.454.381.651.83-.475-.227-.083-.18-.315.221-.087.216.222.376-.129-.051-.625.087-.015-.102-.563.628-.088-.067-.196-.525-.18-1.618-1.265-.273-.341-.103-1.006-.803.305-.279-.393-.077-.247-.185-.145-.531-.743-.144-.031-.108-.351.685.103.891.212.026-.135-.16-.237-.211-.676-.16.052-.762-.449-.082.154-.253.026.181-.474-.33-.393.129-.129-.206-.242-.428-.274-.293-.108-.289.036-.211-.057.031-.217.479-.64.191.104.036-.016 3.914-.702.999-.15.232.403.649 1.254.139.217.479-.17.387-.284 2.075-1.125.304-.207-.468-1.011 1.05-.429 1.036-.588-.572-1.177-.469-.857-.808-1.538-.366-.743-1.334-2.606 2.194-1.156.767 1.486.098.248 1.643-.867.335.66.258-.118-1.175-2.705 1.535-.794.495.985 1.746-.918 1.03-.579.129.207 2.009.366 2.369.455 1.89.376.438.073.515.098.273 1.11.613 2.363 2.782-.697-.469-1.904.062-.088.34-.077.711-.243 2.07-.557.938-.238.087-.118-.443-1.765 1.185-.326.448.857.479 1.058.057.047.675 1.027-2.014 1.502.407 1.037 2.338 3.133.242-.201 1.715-1.513 1.989 2.473.154.428.865 1.14 1.566-1.45.732.795 1.184-.94.67.548.191-.098.715.728.376.443.783 1.27 1.298 1.936-1.627.846.17.413.18.944.278 1.58-1.401.289-.479.026-2.323.201 1.247 1.863-1.17.955-1.468 1.233-.267.011-.232-.16-.103-.269.144-.273-.098-.294-.366-.429-.2-.108-.098-.392-.067.072-.799.454.737 1.332-1.86 1.068.248.449 1.504 2.627.113.227h.412l.124.088.134-.289.278-.207.159-.242.191-.052.113.382.613-.191.217-.021.041-.155.242.109.124-.139.334.247.371.093.124.191.293-.165.119.129.536-.289.247.289-.165.129.062.47-.217.062-.061.227-.16.175.273.072-.026.372.278.526-.077.15-.35.248-.196-.134v.697l.433.015-.006.346.186.32.139.067.371-.289.206.237.026.263-.078.253-.267-.031-.031.238-.459-.021-.149.32.479.248.051.433.366.516.268-.124.881.357 1.061.345-.139-1.011-.191-1.213-.098-.795 1.654-.263.896-.124-.165-1.089-.407-3.004-.201-1.321 1.818-.258.057-.263-.216-1.575-.15-.712 1.52-.34-.113-.733 2.39-.475.479-.083.85-.196.005-.418-.263-.16-.283-.273-.139.02-.098.237-.134.011-.273-.501-.196-.268.103-.398.865.016.371-.171.356-.278.334-.068.753.331.685.263 4.857 2.064.299.145 1.179.495.036.006 1.818.758 2.354 1.002 1.793.748 1.051.418.319.17.968.372.258.165.556.191 1.051.449.026-.052-.345-.944-.062-.103-.505-1.507-.211-.537-1.252-3.499-.762-2.168-.597-1.62.041-.109-.423-.227.139-.155.078-.263-.134-.263-.304-.264.103-.123-.587-1.642-.042-.237.268-.248.242.067-.015.418.103.253.216.15-.056.242.257.01.227.176.211-.052.088.176.304-.082.267.092.155-.036.52.429.268-.14.165.134.304-.051.154.382.124.108.263-.15.247-.289.175.073.633.49.016.175-.5.955-.144.738.175.47.201.083.294-.12.231-.252.175.026-.139.547.165.201.155-.129.185-.3.258-.17.299-.051.154-.207.062-.263-.186-.196.078-.119.535-.2.284-.171.577-.284.448-.088.376-.175.247-.584.242-.129.268.068-.113.227.133.124.376-.114.145.077-.016.243.242.077.114-.103-.021-.248.165-.046.258.227.345.057.597-.119-.031.372.129.072.242-.134.428-.558.082-.185.654-.806.258-.16.571.197-.036-.233.093-.129.304-.077.829-1.1 1.52-2.08.283-.345-.597-.454 1.2-1.657 1.406-1.838.386-.593.536-.728.407-.47.345-.459.103-.046.216-.398 1.844-2.477.49-.64 1.262.95 1.39 1.104-.458.604.463.356.773-1.032.417-.511.541-.754.412-.516.953-1.27.021-.056-.923-.718.68-.98.886-1.321.675-.96.222-.367.839-1.239.577-.779.258.15.417.144.329.01.268-.061-.067-.222-.541-.16-.473-.036.242-.372.834-1.156-.139-.217-.546-.175-.649-.15-.469-.237.052-.181.84.067.293.067 1.102.14 1.097-1.415.789-1.089 1.076-1.42.082.021.856.671.515.434 1.684 1.368.453.407 2.086 1.662 1.015.847.149.397-.02.165.206.072 1.118.068.149 1.094.819-.103.103.701.927-.165 1.901-.299 2.611-.423-.134-.857 1.211-.207.453-.061.026-.037-.124-.769.165-.036 2.421-.346.103.697 1.313-.227 1.633-.253.186 1.399.355 2.384 1.02-.206 1.834-.325.087.547.675 3.742 1.339-.16.654-.12 1.066-.118.052.434.979-.088 1.916-.227.036.01.103.547.505.702.072.558.386.614.932-.119.165 1.172 1.406-.176.222 1.636.211 1.223-1.246.176-.232-.005-.036-.196-1.427.175-1.824.237.073.656.067.294.144 1.022.031.067.263 1.879-1.577.232-.736.093.093.867.066.372.176 1.64.154 1.57.134.852.701-.078.092.883.16 1.099.252.521-.149.444.155.372-.078.206-.736-.604-.212.109-.236-.036-.016.263-.144.16-.309-.067-.546.346.041.247.206.098.191-.072.077.227.345.057-.144.237.041.155.196.015-.098.238-.448-.015-.747.036.062.567.314 2.06.088.789.144 1.131-.191.036v.186l-.319.263-.51-.124-.082-.165-.243-.088.098.558.284 1.997-.639.077.319 2.245.124.568.242 1.678 1.087-.15 2.276-.232.742-.119.484-.041.212 1.434.937-.149 2.323-.3.113.558.701 4.949.201 1.275.242 1.869.005.227.175 1.016.216 1.518.433 3.174-.479-.212-.335.14-.288.026-.289.113-.489-.082-.319.129-.165.18-.345-.175-.098.196.237.325-.155.17-.18-.051-.041-.274-.206.021-.098.372-.16-.005-.129-.259.052-.216-.196-.005-.015.366-.124.32.242.134-.216.32.17.171-.015.16-.557.299-.216-.119-.129-.18.139-.321-.499.021-.304-.211-.211-.026.051.49.5 3.185.036.34.226 1.383.279 1.853-.011.016.32 2.038.206 1.574.391 2.576-1.267 1.811.031.212-1.071-.119-.186 1.404-.752-.077-.185 1.651-.093.62-.592-.202-.196-.273-.227-.083-.159-.041-.222.103-.113.186-.366.134-.221-.113-.232.056-.546-.48-.278-.118h-.407l-.17-.16-.165-.289-.082-.325-.273-.099-.021-.196.124-.345-.196-.176-.345.098-.144.258-.361.217-.293-.145-.315-.227-.226.217-.036.258-.253-.139-.226-.031-.155.175-.201.01-.046-.299-.196-.062-.082-.17-.278-.186-.124-.268-.33.072-.051.341-.289.041-.103.222-.298.098-.701-.191.036-.155-.237-.186.165-.361-.067-.222.18-.181.186.006.196-.258-.212-.145-.252-.284-.402-.072-.072-.346-.536-.031-.19-.088-.273-.232-.072-.268.041-.217-.139-.181.082-.423-.237-.088-.103-.258-.221-.247-.258-.037-.041.269-.16.366-.417-.026-.165-.222-.355-.036-.242-.118-.247-.305-.5-.15-.268.011-.314.123-.556-.572-.15-.057-.561-.042-.309.372-.186.036-.103-.356-.113-.144-.453-.377.257-.403-.134-.17-.262-.145-.206.098-.072.532-.48-.186-.159.191-.356-.057-.19.207.283.279.577-.248.273.103.18.521-.211.104-.232-.222-.185.299-.201-.191-.242-.098-.216.248-.567-.186-.098.072.005.294.278-.056.067.221-.262.181-.124-.294-.237.082-.134.336-.19-.176-.181-.046-.123-.217-.598-.155-.036-.258-.716-.196-.108.315.386.238-.056.129-.376.134-.49.284-.68-.026.15.289-.031.16-.211.103-.279-.253-.133.052.005.196.237.196.211-.083.134.14-.186.423.119.48.036.583-.314.15-.335.026-.005.304.293.031.119.315.427.635-.443.351-.819 1.213.016.087.396.315.469.645.227.408.159.718.165.258-.031.206-.345.268-.325.166-.437.062-.186.139-.422.165-.16.232.186.145.134-.145.417.16.376.393.319.588.077.227-.103.15-.211-.134-.319.077-.237.315.062.051.072.609.365 2.524.062.336.227 1.646 3.435-.619.289-.042.237 1.389.221 1.213.119.758.324 1.817-1.875.356-1.931-.485-.407.015-.021.191.207 1.182-1.077.134-.541.093-2.647.382.175 1.089.453 2.524 1.293-.211.942-.171.078.042.118.65.582 3.453"/><path id="Нікопольський" fill="#C8C6C6" fill-rule="evenodd" d="m120.811 213.141-2.436.46-.495.015-3.307.325-.551.067-2.616 1.348-.299.227-.247.258-.897.583-.87.32-1.035.47-.845.309-2.364.697-.727.227-.844.196-.588.093-.437.031-.685.098-.995.191 2.993 1.29-3.822.548-1.597.216-.03-2.637-.027-1.301-.036-3.215-.056-4.248-2.823-.082-.48-.325-.468-.238-.37-.475-1.185-.934-.062-.247.04-.228.305-.283.525-.16.876-.011.572.026.15-.036.318-.366.366-.713-.36-.005.072-.903.319-.232.417-.207.072-.247-.077-.196-.324-.491-.232-.119-.124.062.015.362-.061.118-.35.104-.253-.346-.536-.49-.118-.455-.206-.283-.325-.171-.412-.046-.19-.186-.047-.206.062-.419.53-.562.361-.32.603-.795.005-.341-.36-.082-.557.119-.355.149-.793-.088-.196-.201-.237-.511-.103-.108-.381-.072-.242-.181-.346-.366-.231-.429.098-.495.33-.181.241.005.34-.263.278-.124.258-.026.185-.211.031-.176-.036-.464-.077-.31-.257-.062-.268.243-.186.046-.422-.015-.927.051-.129.062-1.17.005-.061-.454-.32-.015-.082.067-.422.036-.392.217-.72.067-.217-.207-.37-.082-.248-.248-.206-.093-.294-.279-.427-.237-.273-.392-.325-.217-.077-.31-.35-.48-.866-.918-.082.222-.515-.026-.19-.284.082-.325-.057-.212.381-1.311.314-.629.165-.248-.165-.15-.293-.077-.464-.253 2.504-.439.242-2.565 1.045-.083 1.324-.222 1.004-.118.474.051-.005.274.294-.041.01-.315.082-.243.175-.155-.046-.258.392.165.51-.263.03-.506.186-.247.129-.3.376-.536.16-.537-.021-.186.278-.253.747-.475.14-.273.277-.232.345-.145.098-.237.01-.387-.267-.207.195-.196.572-.397.211-.191.13-.243.081-.341-.149-.247.005-.166.15-.81-.325.026-1.55.243-.294-1.812-.206-1.166-.072-.233-.665-3.767-.025-.279-.098-.181-.134-1.047-1.855.356-.051-.134.175-.243.057-.335-.072-.129.015-.615.041-.247-.036-.325.052-.166.242-.366-.016-.217-.123-.222-.526-.542-.16-.309 1.505-.3-.031-.547-.325-2.044-.093-.387.722-.087.752-.15 1.499-.232.85-.145.216 1.156.396-.072.407-.521.109-.243.494-.702.057.067.602-.924.32-.294.504-.294.438-.062.289.098.118.145.48.211.591.222.541.423.201.073.505-.026.124-.083.571-.062.521-.118.149-.222.118-.372-.463-.31-.041-.175.134-.201.108-.351.185-.083.335.077.144-.624.366-.031.263-.578.406-.387.207-.083 1.545-.356.252 1.146.762-.047.557-.098 1.942-.242.108.299.948-.139-.243-1.6 1.041-.181.649-.057 1.901-.077 2.044-.062.026.676-.144.124.083.366.17 1.074-.011.155.186 1.094.808 2.049.134.593 1.746-.335.351 1.724 2.9-.46-.042-.32 1.062-.185 1.751-.258-.088-.749-1.159.165.036.228-1.638.232-.097-.073-.145-1.13 1.401-.263h.371l2.153-.33-.154-.976 1.936-.289.176 1.043.066.645.253 1.708.304-.01.211.428 1.416-.232 2.169-.325-.129-.831.871-.134.535-.114.34-.026.685-.113 1.025-.14-.247-1.512 1.942-.325.093-.026-.145-.547 3.132-.403-.237-1.589-.113-.645 2.024-.372-.263-1.559-.329-1.873-.093-.594 2.565-.454 1.628-.263 1.004-.206.294-.026.067.263 1.514-.263 3.869-.692.046.041.737 3.794.257 1.388 2.246-1.275.077.449 2.102-.304 2.148-.341-.268-1.724 2.328-.387.077-.031.598-.103.386-.01.448 1.466.108.464.397 2.199 2.915-.449.072-.047.17.898.469 2.669-.263.041.376 2.157.407.867-3.178.589-.324-1.425-.036-.242-.459.087-1.859.424.165 1.6-.103.583-4.054.635.304 1.677.489 2.524-.026.005.294 1.471.18.759.716-.367.227-.155.829-.17.489-.294.526-.625.561-.283.088-.124.381.056.17.16v.16l.613 3.515 2.22-.371.18.991.206 1.243.134.676-1.18.77-.473.361-.407.371.329 1.781.778 4.728.134.743 2.915-.64 2.478-.552.639 3.711-.881.149.242 1.43-.469.088.35 1.827-2.204.093.68 4.278-2.751.46.278 1.708.51 2.73.103.604 1.437-.253.742 4.222-.396.532.113.438-.335.48-.201-.134-.026-.196-.515-.119.242.501.505.263.124.702-.706.119v.139l.984-.015.561.795-.752.521-.077.16.803-.361.304-.083.268.088.345.294.155.335.087.403-.561.418-.901.145-.644.061-.701.098-.283.135 1.21-.036.546-.099.994-.051.5-.346.361 1.264-.15.785-.34.63-.644.671-.654.505-1.318.609-2.838.842-1.479.33-1.251.015-1.669-.671-.84-.48-1.251-.763-1.7-.857-.984.02-1.18-.108-1.133-.026-1.823-.052-1.324-.392-.273-.098-1.767-.717-1.447-.522-.675-.283-.989-.32-.814-.191-.257-.114-.479-.062-.86-.021-.603-.077-1.262-.021-.788-.087-.541.051-.417-.046-1.113-.036-.566.093-1.345.32-1.545.33-.778.397-2.173 1.172-1.752 1.094-.777.387-.217.16-.7-.015-.443.062-1.283.082-1.504.021-1.179.155-1.288.242-1.319.227" clip-rule="evenodd"/><path stroke="#000" stroke-linecap="round" stroke-linejoin="round" stroke-width=".2" d="m120.811 213.141-2.436.46-.495.015-3.307.325-.551.067-2.616 1.348-.299.227-.247.258-.897.583-.87.32-1.035.47-.845.309-2.364.697-.727.227-.844.196-.588.093-.437.031-.685.098-.995.191 2.993 1.29-3.822.548-1.597.216-.03-2.637-.027-1.301-.036-3.215-.056-4.248-2.823-.082-.48-.325-.468-.238-.37-.475-1.185-.934-.062-.247.04-.228.305-.283.525-.16.876-.011.572.026.15-.036.318-.366.366-.713-.36-.005.072-.903.319-.232.417-.207.072-.247-.077-.196-.324-.491-.232-.119-.124.062.015.362-.061.118-.35.104-.253-.346-.536-.49-.118-.455-.206-.283-.325-.171-.412-.046-.19-.186-.047-.206.062-.419.53-.562.361-.32.603-.795.005-.341-.36-.082-.557.119-.355.149-.793-.088-.196-.201-.237-.511-.103-.108-.381-.072-.242-.181-.346-.366-.231-.429.098-.495.33-.181.241.005.34-.263.278-.124.258-.026.185-.211.031-.176-.036-.464-.077-.31-.257-.062-.268.243-.186.046-.422-.015-.927.051-.129.062-1.17.005-.061-.454-.32-.015-.082.067-.422.036-.392.217-.72.067-.217-.207-.37-.082-.248-.248-.206-.093-.294-.279-.427-.237-.273-.392-.325-.217-.077-.31-.35-.48-.866-.918-.082.222-.515-.026-.19-.284.082-.325-.057-.212.381-1.311.314-.629.165-.248-.165-.15-.293-.077-.464-.253 2.504-.439.242-2.565 1.045-.083 1.324-.222 1.004-.118.474.051-.005.274.294-.041.01-.315.082-.243.175-.155-.046-.258.392.165.51-.263.03-.506.186-.247.129-.3.376-.536.16-.537-.021-.186.278-.253.747-.475.14-.273.277-.232.345-.145.098-.237.01-.387-.267-.207.195-.196.572-.397.211-.191.13-.243.081-.341-.149-.247.005-.166.15-.81-.325.026-1.55.243-.294-1.812-.206-1.166-.072-.233-.665-3.767-.025-.279-.098-.181-.134-1.047-1.855.356-.051-.134.175-.243.057-.335-.072-.129.015-.615.041-.247-.036-.325.052-.166.242-.366-.016-.217-.123-.222-.526-.542-.16-.309 1.505-.3-.031-.547-.325-2.044-.093-.387.722-.087.752-.15 1.499-.232.85-.145.216 1.156.396-.072.407-.521.109-.243.494-.702.057.067.602-.924.32-.294.504-.294.438-.062.289.098.118.145.48.211.591.222.541.423.201.073.505-.026.124-.083.571-.062.521-.118.149-.222.118-.372-.463-.31-.041-.175.134-.201.108-.351.185-.083.335.077.144-.624.366-.031.263-.578.406-.387.207-.083 1.545-.356.252 1.146.762-.047.557-.098 1.942-.242.108.299.948-.139-.243-1.6 1.041-.181.649-.057 1.901-.077 2.044-.062.026.676-.144.124.083.366.17 1.074-.011.155.186 1.094.808 2.049.134.593 1.746-.335.351 1.724 2.9-.46-.042-.32 1.062-.185 1.751-.258-.088-.749-1.159.165.036.228-1.638.232-.097-.073-.145-1.13 1.401-.263h.371l2.153-.33-.154-.976 1.936-.289.176 1.043.066.645.253 1.708.304-.01.211.428 1.416-.232 2.169-.325-.129-.831.871-.134.535-.114.34-.026.685-.113 1.025-.14-.247-1.512 1.942-.325.093-.026-.145-.547 3.132-.403-.237-1.589-.113-.645 2.024-.372-.263-1.559-.329-1.873-.093-.594 2.565-.454 1.628-.263 1.004-.206.294-.026.067.263 1.514-.263 3.869-.692.046.041.737 3.794.257 1.388 2.246-1.275.077.449 2.102-.304 2.148-.341-.268-1.724 2.328-.387.077-.031.598-.103.386-.01.448 1.466.108.464.397 2.199 2.915-.449.072-.047.17.898.469 2.669-.263.041.376 2.157.407.867-3.178.589-.324-1.425-.036-.242-.459.087-1.859.424.165 1.6-.103.583-4.054.635.304 1.677.489 2.524-.026.005.294 1.471.18.759.716-.367.227-.155.829-.17.489-.294.526-.625.561-.283.088-.124.381.056.17.16v.16l.613 3.515 2.22-.371.18.991.206 1.243.134.676-1.18.77-.473.361-.407.371.329 1.781.778 4.728.134.743 2.915-.64 2.478-.552.639 3.711-.881.149.242 1.43-.469.088.35 1.827-2.204.093.68 4.278-2.751.46.278 1.708.51 2.73.103.604 1.437-.253.742 4.222-.396.532.113.438-.335.48-.201-.134-.026-.196-.515-.119.242.501.505.263.124.702-.706.119v.139l.984-.015.561.795-.752.521-.077.16.803-.361.304-.083.268.088.345.294.155.335.087.403-.561.418-.901.145-.644.061-.701.098-.283.135 1.21-.036.546-.099.994-.051.5-.346.361 1.264-.15.785-.34.63-.644.671-.654.505-1.318.609-2.838.842-1.479.33-1.251.015-1.669-.671-.84-.48-1.251-.763-1.7-.857-.984.02-1.18-.108-1.133-.026-1.823-.052-1.324-.392-.273-.098-1.767-.717-1.447-.522-.675-.283-.989-.32-.814-.191-.257-.114-.479-.062-.86-.021-.603-.077-1.262-.021-.788-.087-.541.051-.417-.046-1.113-.036-.566.093-1.345.32-1.545.33-.778.397-2.173 1.172-1.752 1.094-.777.387-.217.16-.7-.015-.443.062-1.283.082-1.504.021-1.179.155-1.288.242-1.319.227"/><path id="Павлоградський" fill="#C8C6C6" fill-rule="evenodd" stroke="#000" stroke-linecap="round" stroke-linejoin="round" stroke-width=".2" d="m232.938 104.598.098.392.201.109.366.428.098.294-.145.274.103.268.232.16.268-.01 1.468-1.234 1.169-.954-1.246-1.864 2.323-.201.479-.026 1.401-.289-.278-1.579-.181-.945-.169-.413 1.627-.846-1.298-1.935-.783-1.27-.376-.444-.716-.728-.19.099-.67-.548-1.185.94-.731-.795-1.566 1.45-.865-1.14-.155-.429-1.988-2.472-1.715 1.512-.242.201-2.339-3.132-.407-1.038 2.014-1.502-.674-1.027-.057-.046-.479-1.058-.448-.857-1.185.325.443 1.765-.088.119-.937.237-2.071.558-.71.242-.34.078-.062.088.469 1.904-2.782.697-.613-2.364-.273-1.11-.515-.098-.288-1.213.489.088.113.439 2.849-.764-.902-3.2-.288.015-.592-2.193-.505-1.812-.165-.537.474.068 1.385.33.562.119.206-.016-.036-.258-.33-1.068.252-.217-.37-1.424-.51.098.082-.29.299-1.568.819.113.505.02.412-1.078.005-.083-.654-.175-.325-.15-.211-.02.294-.362.566-.521 2.035-1.476.438-.351-.335-.367-.526-.407.356-.387 1.308-1.544-.402-.376.634-.805.103-.057.644-.795.268-.29.546.32.144-.056.747-.908.484.315.608-.723.721-.81 1.56-1.802-.031-.32.124-.66-.026-.201-.283-.49.113-.904-.005-.692-.129-.304.201-.134-.278-.29-.994-.861.309-1.239.237-.258 1.571-1.837-.819-.713-.361-.278.515-.645.335-.372-.839-.718-.716-.64-1.417-1.218.876-1.042 1.009-1.136.098-.015.783.697.592-.578-1.797-1.698-1.175-1.136-.128-.093-.495-.113-.572.062-.046-.392.036-1.094.639.025.026-.748.051-.01 2.694.087.17.61.649-.166.737.021.757.17-.093-.407 2.133-.34.056.309 1.185-.098.067.015 1.195-.052-.196 1.316 4.038-.025.397.005.515-1.554.139-.573-.324-.072.371-1.244-.273-1.016-.083-.413.186-1.255.376-.072-.196-.573-.113-.067-.376-1.084-.129-.211.17-.336.36.01.186.259.18.036.201-.398.469-.562.139-.346.283.098.036.165.175.124.273.005.263-.103.206.108.912.212.298-.206-.195-1.456 1.988-.62-.005-.087.278-1.053.17-.454 1.097.402.314-.02.381-.129.49.19.108.331.185.114.273-.103.124-.336.345-.284.644-.098.16.263.252.202.252-.005.042-.17-.15-.202.098-.14.366-.092.092-.264-.236-.02-.155-.263-.644.175-.108-.18.257-.109.026-.268.294-.64.005-.367-.283-.433.257-.258.036-.362.15-.036.742.656.422.412 1.051.97 1.942 1.75.128.14-1.05 1.197.844.645.52.423.856.65-.67.858 1.025.79 1.746 1.398 1.267.924-.257.361-.248.263-2.204 2.885.005.036 2.416 1.828-.593.805-.149.247-1.035 1.389.731.516.623.506.495.361.731.036.304-.077.211.206.407.18.397.28.536.536.309.145.092.232-.067.243-.18.02-.237.253-.036.382-.144.129.103.222.015.444-.113.093.005.258-.268.361-.077.5.695.181.922-.18.278.046.227.114.18-.15.15.165.231-.072.17.129.237-.01.186.19.288-.402 1.293.093.139.253.211.051.186-.108.206.026.134.3 1.385 1.589.361.382.51.614-.474.398.52 1.646-1.159.129-.494.196 1.267 1.626.572.532-.139.32-1.474 2.859 1.798 1.342.422.294.134.15.392.263 1.174.856.881.682.819.686.041-.077.824.63 1.613 1.197.54.423 1.932 1.342-.062-.32.232-.088.979.718.128.31-.968.954-.304.16.052.217-.181.108.016.403.149.258.026.258-.237.01-.046.145.299.15-.176.257-.036.212-.252.196-.062.176.119.144-.047.217-.283.392-.191.18-.267-.195-.289.088.108.185-.062.346.85.61.268.33.438.299.917.691.675.465 2.57 1.863-.036.088-.665.903-.396.506-.119.216-1.447 1.957-.015.087-1.36 1.817 2.096 1.585-.216.397-.103.047-.345.459-.407.47-.536.727-.386.594-1.407 1.837-1.2 1.657.598.454-.283.346-1.52 2.08-.829 1.1-.304.077-.093.129.036.232-.572-.196-.257.16-.654.805-.083.186-.427.557-.242.134-.129-.072.031-.372-.597.12-.346-.058-.257-.227-.165.047.021.247-.114.104-.242-.078.015-.242-.144-.078-.376.114-.134-.124.114-.227-.268-.067-.242.129-.247.583-.377.175-.448.088-.577.284-.283.17-.536.202-.077.118.186.197-.062.263-.155.206-.298.052-.258.17-.185.299-.155.129-.165-.201.139-.547-.175-.026-.232.253-.293.119-.201-.083-.175-.47.144-.737.5-.955-.016-.176-.633-.49-.175-.072-.248.289-.262.15-.124-.11-.154-.381-.304.052-.165-.135-.268.14-.52-.428-.155.036-.268-.093-.304.082-.087-.175-.211.051-.227-.175-.257-.01.056-.243-.216-.15-.103-.252.015-.419-.242-.067-.268.248.041.238.588 1.64-.103.125.304.263.134.263-.078.263-.139.155.423.227-.042.109.598 1.62.762 2.168 1.252 3.499.211.537.505 1.507.062.103.345.945-.026.051-1.051-.449-.556-.191-.258-.165-.968-.371-.32-.171-1.05-.418-1.793-.748-2.354-1.001-1.818-.759-.036-.005-1.18-.496-.298-.144-4.858-2.065-.685-.263-.752-.33-.334.067-.356.279-.371.17-.865-.016-.103.398.196.268.273.501.134-.01.097-.238.14-.021.283.274.263.16-.006.418-.85.196-.479.083-2.39.475.114.733-1.52.34.15.712.216 1.575-.057.263-1.818.258.201 1.321.407 3.004.165 1.089-.897.124-1.653.263.098.795.191 1.213.139 1.011-1.061-.345-.881-.357-.268.124-.366-.516-.051-.433-.479-.248.149-.32.458.02.032-.237.267.031.078-.253-.026-.263-.206-.238-.371.289-.139-.067-.186-.32.005-.345-.432-.016v-.697l.195.135.351-.248.077-.15-.278-.526.026-.372-.273-.072.159-.176.062-.227.217-.062-.062-.469.165-.129-.248-.289-.535.289-.119-.129-.293.165-.124-.191-.371-.093-.335-.248-.123.14-.242-.109-.042.155-.216.021-.613.191-.113-.382-.191.051-.159.243-.279.206-.133.289-.124-.087h-.412l-.113-.228-1.504-2.627-.248-.449 1.86-1.068-.737-1.332.799-.454.066-.072Zm40.717-36.387.124-.186-.129.16.005.026Z" clip-rule="evenodd"/><path id="Криворізький" fill="#C8C6C6" fill-rule="evenodd" d="m86.73 221.365-.525.078-.468.036-.495.077h-.324l-.196-.268-.082-1.455-.227-3.262-.072-.341-.428-1.042-.092-.661-.15-.263-.376-.062-.422.082-.376.15-.87.196-1.453.232-1.453.191-.556.093-1.01.124-1.256.176-.541.093-1.818.258-4.276.676-2.39.382-.602.077-3.626.614-.237.016-1.906.309-1.89.325-.17-1.089-.397-2.018-.067-.614-1.076.207-1.659.284.088.763-1.412.243.01-.077-.674-3.696.18-.356.031-.165.464-.681.113.067.247-.429-.299-1.672 1.613-.299.087-.124-.314-1.708-1.108.191-.34-1.884-.386.062-.293-1.507-1.257.242-3.93.712-3.843.661.53 2.679.418 2.317.093.444-2.75.495-1.742.341-.706.114-2.75.541-.49.114-1.127.196-2.622.527-1.504.289.494 1.61.768.991.808 1.063-1.344.702-.587.206-.969.48-.613-.428.485-.253.103-.103.067-.284-.083-.439-.232-.444-.118-.454-.52-.144-.412.005-.335-.207-.2-.237-.475-.382-.417-.552-.046-.176-.17-.103-.057-.268.046-.305.598-.562.113-.382.088-.883-.103-.96-.35-.268-.346-.119-.304-.031-.216.062-.37.268-.233.098-.463.351-.371.522-.639.33-.345.268-.355.124-.129-.031-.53.155-.268-.232-.361.103-.649-.181-.165-.134-.026-.196.526-.552.051-.15-.067-.676-.257-.289.082-.206.402-.228.433-.361.267-.397.356-.847.087-.438-.005-.599-.293-.63-.268-.067-.273.439-.113.082-.778.248-.459.207-.427.108-.453-.021-.392-.082-.53-.284-.294.015-.232-.061-.288.154-.392.475-.468.047-.119-.104-.598-.134-2.678-.547-3.199-.681.037-.558.164-1.703-2.59.171-4.136.335-.943.103-.922.052-1.18.103-.407.015-1.117.099-.093-.16-.067-.289.031-.362.098-.18.299-.171.515-.397.072-.325.185.242h.237l.067-.304.278-.072-.056.237.288.067.211-.062.412-.32-.164-.294v-.15L3.03 202l.14-.299.478-.015.258.067-.072-.403.005-.377-.253-.376.109-.145-.995-5.945-.921-6.194 3.08-.464-.067-.728 3.06-.418.082-.077 2.26-.362-.288-1.801-.015-.433-.118-.63-.639.108-.35.124-.124-.624-.273-1.631-.067-.516 1.396-.207.15-.16-.052-.186-.242-1.693-.186-.97-.128-1.022-.145-.805-.185-1.233.53-.083 1.51-.299-.289-1.812-.185-1.053-.026-.392-.155-1.099-.283-1.667 1.035-.258.356-.068-.593-3.896-.092-.552-1.474.32-.762.211-2.009.439-1.287.315-.47-.171-.112-.098-.53-1.156-.768-1.605.072-.103.438-.047.9-.175-.241-1.76-.247-2.013-.16-.124-.376.026-.036-.882.005-.558-.036-.609.062-.258h.2l.443-.227.134-.196.279.026.376.273.72.186.047-.253-.077-.392.17-.284.01-.258.18-.305-.067-.335.031-.237.196-.207-.031-.248-.206-.299-.144-.738.484-.103.309-.315.366-.088-.273-1.682.376-.104-.052-.299.814-.119 2.75-.464.557-.114.314-.026.938-.211.654-.109.216-.098.082-.196-.17-.175-.21-.403.04-.361-.092-.449.02-.15.289-.216.056-.279 1.123-.165 1.695-.284.407 2.823.484-.062-.36-2.555-.073-.666-.38.062-.186-1.192 1.056-.165-.108-.712 1.488-.238.124-.18 4.466-.682-.186-1.125-.087-.614 1.262-.186-.13-.764-.854.135-.072-.393-.36.124.128.847-3.09.464-.165-1.14-.119-.671 3.08-.47-.03-.268 1.148-.176.093-.098-.145-1.058-.283-1.843-.855.129-.232-1.682-.15-1.074 2.566-.345.36 2.689 2.035-.3.041.041.325 1.895-.294.056.412 4.429 1.391.185.046-.32.31-.531-.006-.356.33.062.031-.331-.005-.681.268-.046.412.103.52.041.052-.826-.073-.325-.118-.248-.623.15-.227-.614-.809-1.75-.334-.428 1.658-.248.526-.062-.088-.702 1.334-.072 2.133-.062.288-.563 1.293.135.232-.093.206-.289 1.282-.14.628-.108 2.35-.346.118-.082-.062-.227-.252-1.518.154-.557 2.92-.532 1.19-.201-.108-.656 1.592-.294.108-1.166-.52.397-.556-.795.21.021.933-.341.206-1.915 1.035.176-.19 1.471.582-.403.376-.196.098.33 1.087-.82-.006-.222.86-.681-.03-.15 1.617-1.244-.005-.082.623-.491.098.016.381-.315-.154-1.962-.433-4.624.309-.346-.232-.593-.17-.32.041-.134.253.056.618-.304.608-.16.056.237.984-.026 1.216-.082.69 3.313.16.031-.263.764-.314.692-.206.542-.82 2.008-.061.211.03 1.425.346.516.247-.103.5-.073.644-.129-.314-.666 1.478-.763.34-.104 2.225-.438.211 1.244.175.061.618.031.268.078.196-.057-.242-.268.118-.444-.062-.454.624-.155 1.22-.17 1.417-.222 1.355-.176.165.852.55-.48-.51-2.56 2.17-.429.401-.067.309 1.631.283 1.332.062.691 1.185-.412.118-.067.675-.181.443-.155.211 1.063.464-.113.2.113.47.449.453.031.257.124.108-.408.278-.299-.061-.335.808-.14.423.057.092.113.402.176.376.098.536-.083.742-.025.87 4.846 1.468-.232 1.684-.289.258 1.754.17.976.232.103.89-.108.31 1.584-1.046.63.016.15.077.459 1.926-.33.68-.078.041-.046-.103-.604.927-.176.33.006.124.743.602-.073.01-.087.46-.052.195.026.72-.098.67 3.731.3 1.76.283-.134 3.363-1.094.36 1.053.464 1.507 1.005 3.03.268.903 1.385-.17.86-.052 1.736 1.739-.093.207.083.139.417.392.093-.036.494.666.428.212.633.144.453.232 1.999-.433-.046.34-.546.692.587-.119.154.878.145.65.252-.062.788-.031.036.15.757-.062.186.062.371-.181.355.031.325 1.409.679-.144.526 2.498-1.221.216-.154.047.226 1.151-1.334.32.273 1.466-1.123.18.304 1.843-.494.129.376 1.718-1.293.284-1.545.356-.207.083-.406.387-.263.578-.366.031-.144.625-.335-.078-.185.083-.108.351-.134.201.041.176.463.309-.118.372-.149.222-.521.119-.571.061-.124.083-.505.026-.2-.072-.541-.424-.593-.221-.479-.212-.118-.145-.289-.098-.438.062-.504.294-.32.295-.602.924-.057-.068-.495.702-.108.243-.407.521-.396.072-.217-1.156-.85.145-1.498.232-.752.15-.722.087.093.388.325 2.043.03.548-1.503.299.16.31.525.541.123.222.016.217-.242.367-.052.165.036.325-.041.248-.015.614.072.129-.057.335-.175.243.052.134 1.854-.356.134 1.048.098.18.025.279.665 3.768.072.232.206 1.166.294 1.812 1.55-.243.325-.026-.15.811-.005.165.15.248-.083.34-.129.243-.21.191-.573.397-.195.196.268.207-.01.387-.099.237-.345.145-.278.232-.139.274-.747.474-.278.253.02.186-.16.537-.375.537-.129.299-.185.248-.031.506-.51.263-.392-.165.047.258-.176.155-.082.242-.01.315-.294.041.005-.273-.474-.052-1.004.119-1.324.222-1.045.082-.242 2.565-2.504.439.464.253.293.077.165.15-.165.248-.314.629-.38 1.311.056.212-.083.325.19.284.516.026.082-.222.866.919.35.48.077.309.325.217.273.392.427.238.294.278.206.093.247.248.37.083.217.206.721-.067.392-.217.422-.036.083-.067.319.015.062.455 1.169-.006.129-.061.927-.052.422.015.186-.046.268-.243.257.062.077.31.036.464-.03.176-.186.211-.258.026-.278.124-.34.263-.242-.005-.33.181-.097.496.231.428.346.366.242.181.38.072.104.109.237.511.196.201.793.088.355-.15.557-.119.36.083-.005.34-.603.795-.36.32-.53.563-.063.418.047.206.19.186.412.047.325.17.206.284.118.454.536.49.252.346.35-.103.063-.119-.016-.361.124-.062.232.119.324.49.077.196-.072.248-.417.206-.32.232-.072.904.361.005-.366.712-.319.366-.15.037-.571-.026-.876.01-.525.16-.304.284-.041.227.062.248 1.184.934.371.475.469.237.479.325 2.822.083.057 4.247.036 3.216.026 1.3.03 2.638-4.547.124-1.932.061-2.529.062-.968.011-.526.139-.592-.17-.314.015" clip-rule="evenodd"/><path stroke="#000" stroke-linecap="round" stroke-linejoin="round" stroke-width=".2" d="m86.73 221.365-.525.078-.468.036-.495.077h-.324l-.196-.268-.082-1.455-.227-3.262-.072-.341-.428-1.042-.092-.661-.15-.263-.376-.062-.422.082-.376.15-.87.196-1.453.232-1.453.191-.556.093-1.01.124-1.256.176-.541.093-1.818.258-4.276.676-2.39.382-.602.077-3.626.614-.237.016-1.906.309-1.89.325-.17-1.089-.397-2.018-.067-.614-1.076.207-1.659.284.088.763-1.412.243.01-.077-.674-3.696.18-.356.031-.165.464-.681.113.067.247-.429-.299-1.672 1.613-.299.087-.124-.314-1.708-1.108.191-.34-1.884-.386.062-.293-1.507-1.257.242-3.93.712-3.843.661.53 2.679.418 2.317.093.444-2.75.495-1.742.341-.706.114-2.75.541-.49.114-1.127.196-2.622.527-1.504.289.494 1.61.768.991.808 1.063-1.344.702-.587.206-.969.48-.613-.428.485-.253.103-.103.067-.284-.083-.439-.232-.444-.118-.454-.52-.144-.412.005-.335-.207-.2-.237-.475-.382-.417-.552-.046-.176-.17-.103-.057-.268.046-.305.598-.562.113-.382.088-.883-.103-.96-.35-.268-.346-.119-.304-.031-.216.062-.37.268-.233.098-.463.351-.371.522-.639.33-.345.268-.355.124-.129-.031-.53.155-.268-.232-.361.103-.649-.181-.165-.134-.026-.196.526-.552.051-.15-.067-.676-.257-.289.082-.206.402-.228.433-.361.267-.397.356-.847.087-.438-.005-.599-.293-.63-.268-.067-.273.439-.113.082-.778.248-.459.207-.427.108-.453-.021-.392-.082-.53-.284-.294.015-.232-.061-.288.154-.392.475-.468.047-.119-.104-.598-.134-2.678-.547-3.199-.681.037-.558.164-1.703-2.59.171-4.136.335-.943.103-.922.052-1.18.103-.407.015-1.117.099-.093-.16-.067-.289.031-.362.098-.18.299-.171.515-.397.072-.325.185.242h.237l.067-.304.278-.072-.056.237.288.067.211-.062.412-.32-.164-.294v-.15L3.03 202l.14-.299.478-.015.258.067-.072-.403.005-.377-.253-.376.109-.145-.995-5.945-.921-6.194 3.08-.464-.067-.728 3.06-.418.082-.077 2.26-.362-.288-1.801-.015-.433-.118-.63-.639.108-.35.124-.124-.624-.273-1.631-.067-.516 1.396-.207.15-.16-.052-.186-.242-1.693-.186-.97-.128-1.022-.145-.805-.185-1.233.53-.083 1.51-.299-.289-1.812-.185-1.053-.026-.392-.155-1.099-.283-1.667 1.035-.258.356-.068-.593-3.896-.092-.552-1.474.32-.762.211-2.009.439-1.287.315-.47-.171-.112-.098-.53-1.156-.768-1.605.072-.103.438-.047.9-.175-.241-1.76-.247-2.013-.16-.124-.376.026-.036-.882.005-.558-.036-.609.062-.258h.2l.443-.227.134-.196.279.026.376.273.72.186.047-.253-.077-.392.17-.284.01-.258.18-.305-.067-.335.031-.237.196-.207-.031-.248-.206-.299-.144-.738.484-.103.309-.315.366-.088-.273-1.682.376-.104-.052-.299.814-.119 2.75-.464.557-.114.314-.026.938-.211.654-.109.216-.098.082-.196-.17-.175-.21-.403.04-.361-.092-.449.02-.15.289-.216.056-.279 1.123-.165 1.695-.284.407 2.823.484-.062-.36-2.555-.073-.666-.38.062-.186-1.192 1.056-.165-.108-.712 1.488-.238.124-.18 4.466-.682-.186-1.125-.087-.614 1.262-.186-.13-.764-.854.135-.072-.393-.36.124.128.847-3.09.464-.165-1.14-.119-.671 3.08-.47-.03-.268 1.148-.176.093-.098-.145-1.058-.283-1.843-.855.129-.232-1.682-.15-1.074 2.566-.345.36 2.689 2.035-.3.041.041.325 1.895-.294.056.412 4.429 1.391.185.046-.32.31-.531-.006-.356.33.062.031-.331-.005-.681.268-.046.412.103.52.041.052-.826-.073-.325-.118-.248-.623.15-.227-.614-.809-1.75-.334-.428 1.658-.248.526-.062-.088-.702 1.334-.072 2.133-.062.288-.563 1.293.135.232-.093.206-.289 1.282-.14.628-.108 2.35-.346.118-.082-.062-.227-.252-1.518.154-.557 2.92-.532 1.19-.201-.108-.656 1.592-.294.108-1.166-.52.397-.556-.795.21.021.933-.341.206-1.915 1.035.176-.19 1.471.582-.403.376-.196.098.33 1.087-.82-.006-.222.86-.681-.03-.15 1.617-1.244-.005-.082.623-.491.098.016.381-.315-.154-1.962-.433-4.624.309-.346-.232-.593-.17-.32.041-.134.253.056.618-.304.608-.16.056.237.984-.026 1.216-.082.69 3.313.16.031-.263.764-.314.692-.206.542-.82 2.008-.061.211.03 1.425.346.516.247-.103.5-.073.644-.129-.314-.666 1.478-.763.34-.104 2.225-.438.211 1.244.175.061.618.031.268.078.196-.057-.242-.268.118-.444-.062-.454.624-.155 1.22-.17 1.417-.222 1.355-.176.165.852.55-.48-.51-2.56 2.17-.429.401-.067.309 1.631.283 1.332.062.691 1.185-.412.118-.067.675-.181.443-.155.211 1.063.464-.113.2.113.47.449.453.031.257.124.108-.408.278-.299-.061-.335.808-.14.423.057.092.113.402.176.376.098.536-.083.742-.025.87 4.846 1.468-.232 1.684-.289.258 1.754.17.976.232.103.89-.108.31 1.584-1.046.63.016.15.077.459 1.926-.33.68-.078.041-.046-.103-.604.927-.176.33.006.124.743.602-.073.01-.087.46-.052.195.026.72-.098.67 3.731.3 1.76.283-.134 3.363-1.094.36 1.053.464 1.507 1.005 3.03.268.903 1.385-.17.86-.052 1.736 1.739-.093.207.083.139.417.392.093-.036.494.666.428.212.633.144.453.232 1.999-.433-.046.34-.546.692.587-.119.154.878.145.65.252-.062.788-.031.036.15.757-.062.186.062.371-.181.355.031.325 1.409.679-.144.526 2.498-1.221.216-.154.047.226 1.151-1.334.32.273 1.466-1.123.18.304 1.843-.494.129.376 1.718-1.293.284-1.545.356-.207.083-.406.387-.263.578-.366.031-.144.625-.335-.078-.185.083-.108.351-.134.201.041.176.463.309-.118.372-.149.222-.521.119-.571.061-.124.083-.505.026-.2-.072-.541-.424-.593-.221-.479-.212-.118-.145-.289-.098-.438.062-.504.294-.32.295-.602.924-.057-.068-.495.702-.108.243-.407.521-.396.072-.217-1.156-.85.145-1.498.232-.752.15-.722.087.093.388.325 2.043.03.548-1.503.299.16.31.525.541.123.222.016.217-.242.367-.052.165.036.325-.041.248-.015.614.072.129-.057.335-.175.243.052.134 1.854-.356.134 1.048.098.18.025.279.665 3.768.072.232.206 1.166.294 1.812 1.55-.243.325-.026-.15.811-.005.165.15.248-.083.34-.129.243-.21.191-.573.397-.195.196.268.207-.01.387-.099.237-.345.145-.278.232-.139.274-.747.474-.278.253.02.186-.16.537-.375.537-.129.299-.185.248-.031.506-.51.263-.392-.165.047.258-.176.155-.082.242-.01.315-.294.041.005-.273-.474-.052-1.004.119-1.324.222-1.045.082-.242 2.565-2.504.439.464.253.293.077.165.15-.165.248-.314.629-.38 1.311.056.212-.083.325.19.284.516.026.082-.222.866.919.35.48.077.309.325.217.273.392.427.238.294.278.206.093.247.248.37.083.217.206.721-.067.392-.217.422-.036.083-.067.319.015.062.455 1.169-.006.129-.061.927-.052.422.015.186-.046.268-.243.257.062.077.31.036.464-.03.176-.186.211-.258.026-.278.124-.34.263-.242-.005-.33.181-.097.496.231.428.346.366.242.181.38.072.104.109.237.511.196.201.793.088.355-.15.557-.119.36.083-.005.34-.603.795-.36.32-.53.563-.063.418.047.206.19.186.412.047.325.17.206.284.118.454.536.49.252.346.35-.103.063-.119-.016-.361.124-.062.232.119.324.49.077.196-.072.248-.417.206-.32.232-.072.904.361.005-.366.712-.319.366-.15.037-.571-.026-.876.01-.525.16-.304.284-.041.227.062.248 1.184.934.371.475.469.237.479.325 2.822.083.057 4.247.036 3.216.026 1.3.03 2.638-4.547.124-1.932.061-2.529.062-.968.011-.526.139-.592-.17-.314.015"/><path id="Кам'янський" fill="#C8C6C6" fill-rule="evenodd" d="m105.708 146.006-.788.031-.252.062-.145-.65-.154-.878-.587.119.546-.692.046-.34-1.999.433-.453-.232-.633-.144-.428-.212-.494-.666-.093.036-.417-.392-.083-.139.093-.207-1.736-1.739-.86.052-1.386.17-.267-.903-1.005-3.03-.463-1.507-.361-1.053-3.364 1.094-.283.134-.298-1.76-.67-3.731-.721.098-.196-.026-.458.052-.01.088-.603.072-.124-.743-.33-.006-.927.176.103.604-.041.046-.68.078-1.926.33-.078-.459-.015-.15 1.046-.63-.31-1.584-.89.108-.232-.103-.17-.976-.258-1.754-1.684.289-1.468.232-.87-4.846-.742.026-.536.082-.376-.098-.402-.175-.092-.114-.423-.057-.808.14.061.335-.278.299-.108.408-.257-.124-.454-.031-.469-.449-.2-.113-.464.113-.211-1.063-.443.155-.675.181-.118.067-1.185.412-.062-.691-.283-1.332-.31-1.631-.4.067-2.17.429.51 2.56-.55.48-.165-.852-1.355.176-1.417.222-1.22.17-.624.155.062.454-.118.444.242.268-.196.057-.268-.077-.618-.031-.175-.062-.211-1.244-2.225.438-.34.104-1.479.764.315.665-.644.129-.5.073-.247.103-.345-.516-.031-1.425.062-.211.819-2.008.206-.542.314-.692.263-.763-.16-.032-.69-3.313-1.216.083-.984.025-.056-.237-.608.16-.618.305-.253-.057-.04.134.169.32.232.593-.31.346.434 4.625.154 1.961-.381.315-.098-.016-.623.491.005.082-1.617 1.244-.098-.47-.407-1.698-.387.067-.453-2.978-1.355-.191-.082-.103.2-.227-.087-.237.289-.191.026-.176-.19-.464-.181-.279.072-.165-.412-.005.407-2.808.18-1.166.093-.759-.943-.47-.324.171-.51.129-1.602.216-.33-.041-.046-.16.407-2.426-1.386-.015-.154-1.037.443-.553.69-.722-.036-.372-.412.021.046-1.234.005-1.042 1.355.015.041-.64.634-.026-.02-.242.138-.016.273.212.005-.248-.185-1.187-.721.057.16-2.55.061-2.018-.056-.052-.34-2.58-.345-2.493-.912-6.787.891-.279-.634-1.176.984-.34-.2-1.302 1.807-.325.062.33.644-.123-.17-1.198 2.385-.402 1.622-.243 2.36-.392.484 2.142 2.766-.862-1.175-4.212 1.406-.366.083.563 1.962-.269.124 1.017.386-.036.113.78.279.03 3.348-2.585 1.2-.692.67-.13-.042-.185.835-.186.165.145.123-.315.314.01.145.18.21.027.155-.217-.185-.15.154-.196.289-.093h.433l.252-.49.433-.015.252-.269-.35-2.162.299-.047-.057-.428-.314-.093-.016-.274-.206-.98 1.751-.34 2.117-.388.284-3.122-3.024.531-1.627.3-.067-.078-.289-1.528-1.318.15-1.03-1.001-.495-.387-.381-.465-2.23-2.157-2.638.3-.108-.563-.778.123-.52.037-.525-.243-.248-.02-.525-.16-.953-3.046-1.236.408-.237-.681-.304-.016-.118-.16.103-.315-.268-.851-.134-.351-.294-1.776.433-.093.026.135.34.01-.01-.191-.356-1.987 1.633-.212.15.867 1.004-.165.139.697 3.384-.635.129-.505.232-.367.309-.64.123-.336.325-.392.227-.366.01-.18.453-.145.536.175.32.759.669-.305.175-.227 1.416-.196-.185.263.015.207.541.062.186 1.13.133.986.124.5.7-.098.284.088.515-.072.5-.66.983-.197-.036-.165.83-.18.175.965 1.792-.31-.098-.774.175-.062 1.458-.258.325 1.357.015.366.294 1.704.814.252.133.682.31-.057 1.426-.18.175-.775.052-.248-.247-1.409.061-.01-.283-1.651.263-.052.896-4.14.02-.278.315-.186.5-.103.2-.098.196-.841.376-1.73.088-.257.587-2.627.139-.635.082-.036.5-1.853.479.212.561.753.613.929.217.258.607.578.474.119.335.103.747.01.376.17.675.444 1.586 1.002.19.077.51.078 1.144.087 1.757.34.242.089.659.614.165.46.376 1.33.098.12.53.232.448.098.382.263.33.361.411.682.48.567.525.222.314.02.551-.118.65-.413.195-.077.515-.042.448.124.386.238.613.609.371.19.216.326.083.268-.052.382-.633 1.46.067.894.077.346.283.48.567.805.36.459.34.253.253.072 1.035-.01.819-.072 1.257-.33.839.505.258.284.871 1.182.468.361.417.072.809-.17.567.227.365.253.284.45.345.345.433.32.396.217.505.098.572-.016.824-.077 1.277.356.912.769-.098.625-.479.846v1.089l.314.537.386.346.469.304.556.263 1.123-.129 1.757.052.695.588.206.568.021.583-.217.903-.216 1.027.021.382.231.573.505.202.592.02.582.336.49.361 1.112 1.048.68.438.541.228.752.139 1.216.119.535.015.356.083.268.335.061 1.063-.278.65-.041.785.206.77.186.36.324.418.098.739.381.485.768.779.494.377.798.402.299.067.768-.04.7.216.629.66.664.418 1.118.77 1.947.985.572-1.816.015-.444-.129-.356-.288-.393-.17-.124-.263-.02-.211-.217-.227-.371-.252-.238v-.113l-.577-.305.561-.805.696.423.231-.217.232-.495-.134-.16.861-.697.072.119 1.823 2.142.113-.067 1.252-1.064.129-.175-.253-.371-.35-.295-.299-.35-.036-.455.356-.356.206.041.232-.103.381-.34.324.139.139.325.263.46.077.546-.056.295-.361.294.113.211-.062.186-.417.253-.304-.098-.061-.134-1.226 1.037.159.176-.824.614-.252.222-.52.356.36.124 1.602-.16.711-.61 1.391-.108.303-.691-.005-.093.994-.108.124 1.44-2.338.185-.062-.63-.371.032-.752.624-.953.083.067.165-.958.067-.149.036.061.614-.077.253-.294.367-.17.087-.02.393.062.418-.773-.15-.046.212-.294.743.119.134-.155.18-.067.388-.159.273-.062.284.103.14-.356.123-.005.248-.123.325.19.135.495.175.092.428.644-.139.031-.083.397-.067.53.16.423.233.288.087.253.16-.103.33.571.63.232.036-.01-.345-.294-.248-.242-.078-.082-.278.443.155.35.211-.062.32.757.026.516.124.329-.114.371-.294.567-.026.144-.16.139.036.551-.103.433.114.201.144.35.005.103-.067.494.052.531-.196.422.005.047.134.216.083.206-.186.227.041.602.3.196.113.443.387.196.279.103.47-.237.18-.345-.15-.155-.16-.319-.175-.387-.077-.257.093-.036-.228-.186-.222-.314.264.129.17.252.062.243.201.278-.077.298.041.443.33.088-.061.304.103.201.144.247.026-.052.186.294-.005.5.346.164.242.011.17.247-.015.494.222.691.506.36.563.577.51.587.403.649-.16.062.237-.196.326.253.232.093.232.35.5.257.388.314.335.284.238.417.242.649.155-1.133 2.875.082.882.072.45-.983-.052-.382-.253-.082-.13-.675-1.429-.443-.784-.216-.269-.335-.284-1.756-.944-.067.279.165 1.104-.073.852.083.16-.459.5-2.075-1.785-1.211.227-.129-.444.5-.072-.093-.553-.288-.253-.886.243.057.361-.747.124.237 1.45-.51-.412-.557.093-.139 1.032-.175-.919-1.272.315-1.36.356-.716.165.052-.237-.407-.274-.304-.5-.036-.217.041-.764-.51-.031-.865-.015-.268-.093.01.227-.561.475-.175.072-.103.759-1.973-.13-1.427-.103-.144 1.998 2.225.216-.124 1.77 1.061.104-.097-.145-.392-.092-.005-.078.783.078.015.144.572.423.227.238.242.026.154.686.304 1.13-.221.062.324 1.239.623 2.436.366 1.368.232-.042.772 2.953.176.624.231.95-.01.134-1.365.361-.561.181-.407.082.057.351.159.099-.072.433 1.334.821.567.583.093.635.159.325.237-.041.16.511.278.005-.119.211.304.666-.237.114-.175-.083-.17.31-.329.041.056-.248-.036-.309-.695.48-.165.252.124.258-.031.341.087.109.114.872-.026.072.165 1.105.113 1.15-.932.135-1.391.144-.185-1.744-.649-.707-.284.056-.092-.428-1.994.294.232.872.036.253-.288.129-.196-.144-.675-.382-.881 1.636-.396-.268-.953-.573-.747-.279-.721-.341-.428 1.275-.577 1.641-.69-.474.103.985-2.493.336.186 1.192.334 1.068.088.455.247 2.193-1.931.269-.881.108-.258-1.812-1.349.145.458 2.802.289 2.039.082.299.083.666 2.766-.413h.185l.881-.155-.139-.877 1.329.072.077.568-.804 1.259-1.942.212-.185.124-.263.304-.206.021.139.784.17.738.855-.087.155 1.455-1.561.176-.618.031-1.076.108-.273.072-.484.413-.134.356-.155-.108-.211-1.306-.675.145-2.266.573-4.131 1.063.093.377-.062.134-.253.149-.123-.026-.644.155-.113.114.412 1.584.412 2.457-1.298.366-3.565.955-.201-.753-.927.227-1.921.495.325 1.229" clip-rule="evenodd"/><path stroke="#000" stroke-linecap="round" stroke-linejoin="round" stroke-width=".2" d="m105.708 146.006-.788.031-.252.062-.145-.65-.154-.878-.587.119.546-.692.046-.34-1.999.433-.453-.232-.633-.144-.428-.212-.494-.666-.093.036-.417-.392-.083-.139.093-.207-1.736-1.739-.86.052-1.386.17-.267-.903-1.005-3.03-.463-1.507-.361-1.053-3.364 1.094-.283.134-.298-1.76-.67-3.731-.721.098-.196-.026-.458.052-.01.088-.603.072-.124-.743-.33-.006-.927.176.103.604-.041.046-.68.078-1.926.33-.078-.459-.015-.15 1.046-.63-.31-1.584-.89.108-.232-.103-.17-.976-.258-1.754-1.684.289-1.468.232-.87-4.846-.742.026-.536.082-.376-.098-.402-.175-.092-.114-.423-.057-.808.14.061.335-.278.299-.108.408-.257-.124-.454-.031-.469-.449-.2-.113-.464.113-.211-1.063-.443.155-.675.181-.118.067-1.185.412-.062-.691-.283-1.332-.31-1.631-.4.067-2.17.429.51 2.56-.55.48-.165-.852-1.355.176-1.417.222-1.22.17-.624.155.062.454-.118.444.242.268-.196.057-.268-.077-.618-.031-.175-.062-.211-1.244-2.225.438-.34.104-1.479.764.315.665-.644.129-.5.073-.247.103-.345-.516-.031-1.425.062-.211.819-2.008.206-.542.314-.692.263-.763-.16-.032-.69-3.313-1.216.083-.984.025-.056-.237-.608.16-.618.305-.253-.057-.04.134.169.32.232.593-.31.346.434 4.625.154 1.961-.381.315-.098-.016-.623.491.005.082-1.617 1.244-.098-.47-.407-1.698-.387.067-.453-2.978-1.355-.191-.082-.103.2-.227-.087-.237.289-.191.026-.176-.19-.464-.181-.279.072-.165-.412-.005.407-2.808.18-1.166.093-.759-.943-.47-.324.171-.51.129-1.602.216-.33-.041-.046-.16.407-2.426-1.386-.015-.154-1.037.443-.553.69-.722-.036-.372-.412.021.046-1.234.005-1.042 1.355.015.041-.64.634-.026-.02-.242.138-.016.273.212.005-.248-.185-1.187-.721.057.16-2.55.061-2.018-.056-.052-.34-2.58-.345-2.493-.912-6.787.891-.279-.634-1.176.984-.34-.2-1.302 1.807-.325.062.33.644-.123-.17-1.198 2.385-.402 1.622-.243 2.36-.392.484 2.142 2.766-.862-1.175-4.212 1.406-.366.083.563 1.962-.269.124 1.017.386-.036.113.78.279.03 3.348-2.585 1.2-.692.67-.13-.042-.185.835-.186.165.145.123-.315.314.01.145.18.21.027.155-.217-.185-.15.154-.196.289-.093h.433l.252-.49.433-.015.252-.269-.35-2.162.299-.047-.057-.428-.314-.093-.016-.274-.206-.98 1.751-.34 2.117-.388.284-3.122-3.024.531-1.627.3-.067-.078-.289-1.528-1.318.15-1.03-1.001-.495-.387-.381-.465-2.23-2.157-2.638.3-.108-.563-.778.123-.52.037-.525-.243-.248-.02-.525-.16-.953-3.046-1.236.408-.237-.681-.304-.016-.118-.16.103-.315-.268-.851-.134-.351-.294-1.776.433-.093.026.135.34.01-.01-.191-.356-1.987 1.633-.212.15.867 1.004-.165.139.697 3.384-.635.129-.505.232-.367.309-.64.123-.336.325-.392.227-.366.01-.18.453-.145.536.175.32.759.669-.305.175-.227 1.416-.196-.185.263.015.207.541.062.186 1.13.133.986.124.5.7-.098.284.088.515-.072.5-.66.983-.197-.036-.165.83-.18.175.965 1.792-.31-.098-.774.175-.062 1.458-.258.325 1.357.015.366.294 1.704.814.252.133.682.31-.057 1.426-.18.175-.775.052-.248-.247-1.409.061-.01-.283-1.651.263-.052.896-4.14.02-.278.315-.186.5-.103.2-.098.196-.841.376-1.73.088-.257.587-2.627.139-.635.082-.036.5-1.853.479.212.561.753.613.929.217.258.607.578.474.119.335.103.747.01.376.17.675.444 1.586 1.002.19.077.51.078 1.144.087 1.757.34.242.089.659.614.165.46.376 1.33.098.12.53.232.448.098.382.263.33.361.411.682.48.567.525.222.314.02.551-.118.65-.413.195-.077.515-.042.448.124.386.238.613.609.371.19.216.326.083.268-.052.382-.633 1.46.067.894.077.346.283.48.567.805.36.459.34.253.253.072 1.035-.01.819-.072 1.257-.33.839.505.258.284.871 1.182.468.361.417.072.809-.17.567.227.365.253.284.45.345.345.433.32.396.217.505.098.572-.016.824-.077 1.277.356.912.769-.098.625-.479.846v1.089l.314.537.386.346.469.304.556.263 1.123-.129 1.757.052.695.588.206.568.021.583-.217.903-.216 1.027.021.382.231.573.505.202.592.02.582.336.49.361 1.112 1.048.68.438.541.228.752.139 1.216.119.535.015.356.083.268.335.061 1.063-.278.65-.041.785.206.77.186.36.324.418.098.739.381.485.768.779.494.377.798.402.299.067.768-.04.7.216.629.66.664.418 1.118.77 1.947.985.572-1.816.015-.444-.129-.356-.288-.393-.17-.124-.263-.02-.211-.217-.227-.371-.252-.238v-.113l-.577-.305.561-.805.696.423.231-.217.232-.495-.134-.16.861-.697.072.119 1.823 2.142.113-.067 1.252-1.064.129-.175-.253-.371-.35-.295-.299-.35-.036-.455.356-.356.206.041.232-.103.381-.34.324.139.139.325.263.46.077.546-.056.295-.361.294.113.211-.062.186-.417.253-.304-.098-.061-.134-1.226 1.037.159.176-.824.614-.252.222-.52.356.36.124 1.602-.16.711-.61 1.391-.108.303-.691-.005-.093.994-.108.124 1.44-2.338.185-.062-.63-.371.032-.752.624-.953.083.067.165-.958.067-.149.036.061.614-.077.253-.294.367-.17.087-.02.393.062.418-.773-.15-.046.212-.294.743.119.134-.155.18-.067.388-.159.273-.062.284.103.14-.356.123-.005.248-.123.325.19.135.495.175.092.428.644-.139.031-.083.397-.067.53.16.423.233.288.087.253.16-.103.33.571.63.232.036-.01-.345-.294-.248-.242-.078-.082-.278.443.155.35.211-.062.32.757.026.516.124.329-.114.371-.294.567-.026.144-.16.139.036.551-.103.433.114.201.144.35.005.103-.067.494.052.531-.196.422.005.047.134.216.083.206-.186.227.041.602.3.196.113.443.387.196.279.103.47-.237.18-.345-.15-.155-.16-.319-.175-.387-.077-.257.093-.036-.228-.186-.222-.314.264.129.17.252.062.243.201.278-.077.298.041.443.33.088-.061.304.103.201.144.247.026-.052.186.294-.005.5.346.164.242.011.17.247-.015.494.222.691.506.36.563.577.51.587.403.649-.16.062.237-.196.326.253.232.093.232.35.5.257.388.314.335.284.238.417.242.649.155-1.133 2.875.082.882.072.45-.983-.052-.382-.253-.082-.13-.675-1.429-.443-.784-.216-.269-.335-.284-1.756-.944-.067.279.165 1.104-.073.852.083.16-.459.5-2.075-1.785-1.211.227-.129-.444.5-.072-.093-.553-.288-.253-.886.243.057.361-.747.124.237 1.45-.51-.412-.557.093-.139 1.032-.175-.919-1.272.315-1.36.356-.716.165.052-.237-.407-.274-.304-.5-.036-.217.041-.764-.51-.031-.865-.015-.268-.093.01.227-.561.475-.175.072-.103.759-1.973-.13-1.427-.103-.144 1.998 2.225.216-.124 1.77 1.061.104-.097-.145-.392-.092-.005-.078.783.078.015.144.572.423.227.238.242.026.154.686.304 1.13-.221.062.324 1.239.623 2.436.366 1.368.232-.042.772 2.953.176.624.231.95-.01.134-1.365.361-.561.181-.407.082.057.351.159.099-.072.433 1.334.821.567.583.093.635.159.325.237-.041.16.511.278.005-.119.211.304.666-.237.114-.175-.083-.17.31-.329.041.056-.248-.036-.309-.695.48-.165.252.124.258-.031.341.087.109.114.872-.026.072.165 1.105.113 1.15-.932.135-1.391.144-.185-1.744-.649-.707-.284.056-.092-.428-1.994.294.232.872.036.253-.288.129-.196-.144-.675-.382-.881 1.636-.396-.268-.953-.573-.747-.279-.721-.341-.428 1.275-.577 1.641-.69-.474.103.985-2.493.336.186 1.192.334 1.068.088.455.247 2.193-1.931.269-.881.108-.258-1.812-1.349.145.458 2.802.289 2.039.082.299.083.666 2.766-.413h.185l.881-.155-.139-.877 1.329.072.077.568-.804 1.259-1.942.212-.185.124-.263.304-.206.021.139.784.17.738.855-.087.155 1.455-1.561.176-.618.031-1.076.108-.273.072-.484.413-.134.356-.155-.108-.211-1.306-.675.145-2.266.573-4.131 1.063.093.377-.062.134-.253.149-.123-.026-.644.155-.113.114.412 1.584.412 2.457-1.298.366-3.565.955-.201-.753-.927.227-1.921.495.325 1.229"/><path id="Самарівський" fill="#C8C6C6" fill-rule="evenodd" stroke="#000" stroke-linecap="round" stroke-linejoin="round" stroke-width=".2" d="m224.233 65.815.402.376-1.309 1.544-.355.387.525.407.335.367-.438.35-2.034 1.477-.567.521-.294.362.212.02.324.15.654.175-.005.083-.412 1.079-.505-.021-.819-.114-.298 1.57-.083.288.51-.098.371 1.425-.252.217.329 1.068.036.258-.206.015-.561-.118-1.386-.33-.474-.068.165.537.505 1.812.592 2.193.289-.015.901 3.2-2.848.763-.113-.438-.49-.088.289 1.213-.438-.072-1.891-.377-2.369-.454-2.009-.367-.129-.206-1.03.578-1.746.919-.494-.986-1.535.795 1.174 2.704-.257.119-.335-.66-1.643.866-.098-.248-.768-1.486-2.194 1.156 1.334 2.607.366.743.809 1.538.468.857.572 1.176-1.035.589-1.051.428.469 1.012-.304.206-2.076 1.125-.386.284-.479.17-.139-.216-.649-1.255-.232-.402-.948-1.822-.309-.645.041-.057-.283-.532.072-.082.927-.532.752-.454.201-.212.294.145.211-.052-.798-1.59v-.278l.417-.19.232.267.607-.278-.139-.485-.149-.093-.216-.61-1.041.553-1.859 1.022-.258-.496-.402-.64-.314-.603-.221-.604.448-.45v-.149l-.32-.681-.417-.79-.69.196-1.046-.062.078-.294-.088-.263-.35-2.054-.5-.94-.067.052-4.239-2.766-.056-.104-.248-.474-.185-.01-.505-.543-.175-.123-.644-.744-.546.661-.87-.913.607-.31 1.504-.986.665-.47-.67-.84.088-.11-.206-.252.206-.325-.283-.17.587-1.554.329-1.017.515-1.445.109-.212.165-.557.164-.263.114.046.391-.547.268.005.18.103 1.18.419.211-.269-.33-.903-.165.067-.52-.769-.515.206-1.087.501-1.282.552-.253-.413-.118-.397-.005-.237-.108-.155-.263-.119-.309-.542.201-.067.376-.263-1.18-1.89-.623-1.026-.216-.315.082-.083 1.396-.887.036-.13.448-3.07-2.21-.718-.865-.294-1.452-.449-.263-.114-.319.223-.145-.207-.535-.361-.922-.697-.227.31-.541-.398-.371-.253-1.246 1.853-.217.439-.989 1.873-.638 1.126-.922 1.672-.206.211-.747.511-.005.145-.186.155-.36-.047-.32-.428-.314-.315-.278-.506-.263-.273-.19-.036-.134.144-.603-.557.505-.516-.062-.238-.448-.211-.407-.3-.226-.34-.186-.057-.087.206-.665.625-1.834 1.786-.88-.981.355-.325-.324-.434.133-.232.294-.062-.242-.242-.01-.186.443-.362.211.258.196-.263.376-.098.17.217.293-.196.217.15-.016.325.35-.336.258.578-.057-.609.52-.464-.257-.269-.392-.206-.36-.315-.417-1.032.159-.165-.293-.202-.366-.407-.211-.114-.129-.222-.376-.196-.51-.191 1.556-1.332.51-.412.231.04.026-.495-.252-.196-.005-.242.144-.093.01-.258-.499-.496.041-.516.175-.165.082-.315.191-.14.139-.49-.046-.2-.335.04-.242-.123-.216.093-.103.17-1.335 1.233-.226-.185-.417-.573-2.148-2.612.999-.83-.361-.527.232-.29-.01-.123-1.35-1.399-.669.645-.541.573-.144.217-.175-.315-.284-.093-.345-.211-.077-.109-.474-.041-.221-.067-.253.232-.463.248-.119.14-.345.195-.072.325.113.284.021.243.211.294.072.454.144.258.072.382-.298.047-.392.335-.232.274-.17.567-.278.093-.185.284-.278.232-.093.413.252.279-.005.129-.314.124 1.138.893-1.133 1.414-.705.841-.382.263-.278.32-.319-.294.01-.072-.541-.14-.262-.123-.382.093-.247.423-.093.242-.273-.103.109-.63.149-.588.371-1.806-.592-.134-.799-1.461-.288-.227.098-1.765.036-.186.463-1.523-.906-.712-.16-1.74-.067-.85-2.426-1.012-.191-2.333 1.108-.934 1.808-1.544 1.334-1.078-.515-.625.865-.738-.082-.485-.196-.02-2.23-2.674-.763.47-.427-.506-.278-.253.005-.222-.196.03-.211-.469.963-.408-.098-.15.314-.231.103.16.418-.17-1.128-1.92.803-.563-1.463-2.173-.633-.914.865-.562-.778-1.352-1.978-3.355-1.246-2.137-1.988 1.094-1.02-1.672 1.947-1.167-.412-.753 1.133-.65-.052-.062-1.287-2.225-.206-.304.062-.093-.011-.584-2.055-.103-.721-1.244-1.113-1.873.227-.34.345-.057.402.2.103-.046.201-.402.268-.15.056-.165.412-.165.222.418-.077.15.133.211.021.279.34-.15.324.227.016.186.268.258 1.21-.19.263-.11-.057-1.145.134-.15.237-.082.046.242.366-.02-.149-.227.314-.124.237-.222.108.036.309.62.701.005.613-.398.582-.51.566.118.165-.088.664-.686.139-.3.268-.046.443.485.206-.031.047-.418 1.499.248-.335-.97.082-.228-.005-.624-.226-.263-.387-1.017.113-.072.031-.238.227.145.206-.222.047-.207.406.078.376-.315.073-.31.844-.258.016.274.252-.16.283.056.057-.098.896-.325.18.269-.185.124-.046.232.298.258-.077.475.242.294.345-.041.165-.12.134-.309-.062-.119.109-.216.195-.15.299.005.5-.294-.181-.176-.247.166.01-.295.284-.087.031-.33-.181.082-.267-.052-.026-.253-.155-.392.381-.3.093.12.52-.197.5-.04.417-.145.247.062.33-.14.474.114.124-.021.066.537.176.294.613.315.443.026.752.129.092.2.18.068.356-.083.304.088.211.207.407-.295.314.217-.057.284-.381.759-.427.222-.757-.062.02-.196-.309-.279-.242.036-.144.18-.33.083-.257.325-.047.233.247.304-.144.217 1.262.47.505.815.242.207.443-.042.118.109.284-.196.335-.346.133-.423.407.283.201-.139.392-.077.087-.537v-.356l.124-1.672.221-.65.279-.507.118-.092.232.2.273.43L169.119.53l.016.377.365.005-.02.33.479-.397.108.108-.098.382-.175.098.098.201.263-.02.067-.444.206.206-.098.366.056.228.196.17.397-.052.309.072.206.13.031.216.16.269.34.315.247.092.334.857.423-.134.391.335.335.434.428.537-.124.134.108.232-.144.103.098.3.17.067.093-.238.252.062-.17.47.134.083.412-.248.34-.088.417-.175.428-.042.803-.345.165.03.268-.815.273-.464-.072-.78-.108-.273.365-.263.34-.099.072.207.211-.176.186.104-.052.155.964.495.283.036-.186.279-.288.268-.005.207.17.634.51-.283.17-.057.087.222-.087.506-.325.072-.123.258.123.232-.041.423.299.176-.031.175.139.186.139.351.381.072.175-.201-.201-.403.036-.407.361-.227.16-.005.139-.558.53-.14.386-.273.088.227.314-.051.263-.263.68-.326.499.403.438-.15.33.078.02.216-.401.197-.062.165.283.263.819.315.386-.072.516-.32-.021-.33.227-.419.19-.222.433-.082.664-.031.201.056.134.181.356-.015.262-.258.263-.12.16.223.443.103.381.506.747.335.232.341-.32.155-.268-.021-.535.046-.34.248-.191-.026-.155.387.057.114-.072.3.222.035-.006.217.124.124.299-.005.288.268.443.202 1.015.588.603.315.401.253-.37.289-.15-.114-.474-.036-.489.15-.124.578-.123.273-.33-.14-.603.047-.298.465-.263.036-.062.454.366.346.206.005.402-.103.592.072.829.176.33.206.087.294-.005.248.222-.098.226.217.196-.165.247-.573.006-.176.262-.217.108-.397-.041-.253.536.036.221.269.304.015.325-.088.314-.16.124.279-.036.366.087.3.299.144.35.083.144.248.047.268-.067.289.17.48.396.325.103.196.253-.093.108-.67.232.175-.103.217.093.175.412-.304.257.062.185-.109.057.253.361.196.185.294.129-.01.196-.34.288.02.072.33.175.222.119.604.077.191-.02.428-.073.207-.216-.047-.211.078.093.242-.093.17-.17-.035-.216.294-.036.18.406.073.639.253.119-.17.185.097.067.207.407.464.216-.16.18.036.119.222.216-.036.253.098.046.315.268.253.355.077.114.408-.181.253-.273.015-.061.233.175.154.154.28.18.01.377.273.283.294.319.026.386-.103.217.02.247.134.01.408.407.227.34.393.227-.155.546.51.077.29.273.134.412-.18.639-.346.165.314.293.042-.02.247-.222.207-.031.14.263.459-.17.093-.216-.145-.109.17.253.32.175.083.144.206.412.264.041-.15h.289l.113-.18.247.2.217.026.103-.139.273.397.139-.015.087-.335.217-.052.273.227.309.124-.217.408-.092.325.118.165.556.408.356.005.201.423.201-.108.453.025.221.202.016.155-.35.423.01.397.201.155.288.026.433-.082.154.036.191.325.232.211.026.393.324.263.108-.01.484-.29.315.16-.036.181-.237.01.031.346-.16.269.196.17.293-.315.33-.155.216-.263.309.088.201-.067.479-.465.103-.325.16.036.082.33.51.176 1.051.279.021-.604.726.093.129.413.237.154.484.166.371.026.401-.176.165.403.227.015.335-.48.231-.108.227.103-.026.516.186.015.262-.119.392-.836.221-.118.057-.165-.129-.326.222-.16.267.29h.139l.227-.259.247.037.114.485.37.2.222-.01.283-.113.387.052.443-.13.623-.066.185.051.057.29-.227.366-.103.769.253.552.144.454.211.248.216-.036.201-.284.376.072.304-.35.052-.181-.15-.155.181-.196.118-.28.16-.113.469.078.18.087-.01.455.206-.052.072-.18-.108-.31.262-.036.114.536.128.13.376-.408.387-.088.458.18.283-.144.242.057.124.242.175.021.459.217.206.372-.083.449-.206.35v.17l.222.29.015.258-.134.18-.324.17.082.305.021.393.365.278.16-.062-.124-.52.119-.176.201.124-.083.19.289.109.201-.057.592-.34.18-.021.021-.243.108-.19.031-.259-.124-.098-.216-.397.412-.268-.057-.202.078-.201.257-.263.273-.134.201.015.139.201.278.026.165-.315h.16l.314.315.082.428-.216.217.01.217.191.165.087.346-.103.103-.031.263.263.238.592.113.212.16.231.052.315-.124.17-.294-.186-.32.129-.372.329-.041.438.268.356.419.247.227.335-.047.443-.526-.031-.238.34-.015.231.093.15.247-.278.604.18.274.438.18.257-.005.17.212-.386.45-.17-.021-.252.165.061.407.222.207.263.506.211.118.577.12.18-.016.443-.279.113.067.196.573-.376.072-.185 1.255.082.412.273 1.017-.371 1.244.325.072-.139.573-.516 1.554-.396-.005-4.038.026.195-1.317-1.195.052-.067-.015-1.184.098-.057-.31-2.132.34.092.408-.757-.17-.736-.02-.65.164-.169-.609-2.694-.087-.052.01-.026.748-.638-.026-.037 1.095.047.392.572-.062.494.113.129.093 1.174 1.136 1.798 1.698-.593.578-.782-.697-.098.015-1.01 1.136-.875 1.042 1.416 1.218.716.64.84.718-.335.371-.515.646.36.278.819.712-1.571 1.838-.237.258-.309 1.239.994.862.278.289-.2.134.128.304.005.692-.113.903.283.49.026.202-.123.66.031.32-1.561 1.802-.721.81-.608.722-.484-.314-.747.908-.144.057-.546-.32-.268.289-.644.795-.103.056-.633.806Z" clip-rule="evenodd"/></svg>