<svg xmlns="http://www.w3.org/2000/svg" width="151" height="281" fill="none" viewBox="0 0 151 281"><path id="Хмельницький" fill="#C8C6C6" fill-rule="evenodd" d="m83.2 215.575.006-.109-.273-.459.283-.588.103-.062.222-.558-.289-.511-.04-.191.056-.629-.155-.232.01-.176-.175-.124-.355-.387-.242-.475.026-.258-.191.119-.69.015-.696.078-.535.118-1.437-.366-.928.867-.175.005-.18-.155-.37-.118.257-1.053-.386.036-.464-.041-.99.056.016-.309-.067-.212-.16-.041-.025-.232.113-.563-.129-.134-.278-.083.067-.309-.051-.248-.433-.134-.304-.568-.572.217-.113.686-.48-.072-.437-.238-.402-.33-.644-.32-.406-.32-.325-.144-.165-.264-.587-.351-.118-.325-.253.078-.082-.516-.294-.073-.051-.211-.232-.073-.083-.227-.231.083-.13-.129-.308-.062-.114 1.543-.087.826-.793-.088-.65-.32-1.843-1.14.463-.924-.128-.052.376-1.213-1.335-.521-1.261-.764-1.51-1.032-.02-.444-.134-.48-.242-.428-.268.041-.453.129-1.02-.201h-.222l-.18.273-.046.207-.294.397-.056.449-.428.542-.505-.403-.206.031-.134.548-.37-.166-.32-.361-.335-.232-.396.02-.15-.082-.144-.645-1.035.015-.248-.165-.855-.423-1.643-.098-.02.65-.237.32-.71-.398-.222-.18-.634-.14-.427.037-.062.082-.392.139-.345-.01-.34.078-.49-.16-.586-.284-.232.139-.32-.082-.036.314-.21.3-.31-.109-.268.176.145.232.319.067.134.181.402.273-1.103.986-1.066.914.65.562-.243.171 1.545 1.94-.731.862-1.86 2.178-.612.743-.64.733-.241-.149-.34-.728-.654-.583-.15-.026-.16-.3.052-.211-.139-.15-.5-.139.098-.264-.108-.196-.335-.067-.103.114-.273-.016-.232.32-.185-.211-.216.031-.299.279-.015.134.139.402.16.129.01.166-.516.056-.02.083.34.165.283-.02.866.283.03.109.361.196.114.16.376.15.19.196.278.139.145.475.257.113.155.418.463.181-.639.294-.34.346-1.375-.588-1.57-.656-.057-.201-.722-.289-.556-.155-.139-.186.052-.232-.201-.114-.247.099-.583.082-.958-.015.006-.103.036-.207-.17-.098.092-.294.217-.191-.083-.346.078-.408.149-.289-.057-.118.737.103.273-1.27.144-.346-.628-.046.072-.552-.005-.387.18-.186-.335-.274-.397-.144-.123-.31-.289-.532-.582.15-.139-.124-.036-.284-.412.083-1.06.067-.51-.057-.5-.32-1.685-.753-2.287-1.285-1.22-.661-.16-1.492-.582-.867-.263-.665.041-.217-.046-.362-.155-.273-.376-.289-.092-.206.072-.217-.386-1.074.911-.774.546-.557.443-.718-.103-.072.155-.852-.84-.717-.778-.511-.958-.671-.932.573-.453.062-.273-.01-.423.134-.396-.057-.407.176-.284-.362-1.112-.712-.917-.47-.278-.211.288-.475-2.024-2.044-.129-.088-.443.671-.206.651-.396-.31-.284-.16-.437-.067-.34-.269-.114-.221-.232-.202-.458 1.048-.901 2.111.602.346-.113.485-.252.072-.392-.248-.139-.185-1.092-.904-.261.372-.142.325.46.181-.047.258.16.124.015.598.078.078h.5l-.16.309-.593-.144-.426.934-.02.098.503.232-.165.424.417.335.18.346-.427.609-.37-.103-.155.015.01-.506-.329-.32-.18-.273-.108-.377.258-.877-.03-.336-.186-.521-.794-.893-.187-.145-.074-.299-.16-.196-.099-.356-.268-.258-.308-.124-.169-.397-.01-.176-.18-.041-.044-.418-.096-.274-.366.057.057.325-.448.005.215-.351.223-.242-.317-.465-.344.067-.24.165-.087.532-.94-.377-.528-.062-.257-.304.396-.465.203-.438-.041-.444-.916-1.203-.009-.237-.113-.171.112-.18.014-.372.1-.036.191-.506.177-.263.243-.542.252-.273-.045-.253-.186-.207-.22-.547.336-.067.479.124.202-.191-.03-.232-.299-.542.15-.274.364-.155.211-.247-.41-.408-.132-.263-.02-.511.183-.372.413-.186.673.093.31-.026.15-.087.419.077.844.036.461.31.152.01.253-.531.023-.289-.413-.584.027-.144.29-.196.167-.011.736-.645.195-.351-.156-.253-.455-.412-.263-.104-.37-.294-.193-.315.045-.428.526-.134.255.247.258.114.285-.119-.057-.242-.585-.666-.1-.268.262-.197.222.062.326-.123.097-.176-.213-.387-.523-.382-.327-.459-.073-.217.433-.47.068-.562-.194-.444-.405-.573-.561-.382-.697-.521-.262-.3-.126-.691.014-.785.066-.872.073-.403.142-.433.168-.052.309.062.04.212.423.351.205-.036.1-.217.022-.558-.031-.232-.253-.186-.443.011-.167-.062-.124-.3.27-.216.332-.485.074-.243.272-.361.138-.098-.367-.264-.184-.026-1.217-.557-.166-.062-.175-.212.071-.247.232-.018.235-.122.293-.349-.037-.848.175-.111.049-.205-.11-.335.415-.607-.068-.228-.849-.271-.018-.267.411-.322-.417-.386-.231-.39-.177-.105-.056-.317-.22-.277-.04-.231-.192-.103-.12.506-.15.053-.178-.199v-.28l-.215-.176-.186.037-.21-.099-.372-.373-.284-.58.137-.582.429-.508-.04-.178-.296-.288.037-.243-.472-1.192-.047-.269.055-.588-.048-.771-.047-.121-.003-.753.067-.227-.156-.255.16-.158.02-.185-.317-.389-.106-.027-.495-.692-.44-.24-.175-.156-.495-.13-.15-.36-.165-.246-.401-.344-.264-.478-.225-.163-.14-.464-.713-.222-.029-.127.18-.434.403-.333.027-.143.22-.1.343-.263.13-.284-.136-.102.13-.336.013-.518.068-.392.166-.216.432-.391.454-.657.035-.214.358-.781.469-.094.4-.182.14-.15.09-.333.147-.197.455.159.252-.035.283.199-.143.44.084.368.146.217.614-.107.351-.31.195-.033.193-.184.026-.375-.259-.268.008-.293-.222-.352-.03-.353.166-.443-.169-.354.044-.166-.174-.349-.382-.4.081-.465.12-.298.318-.103.094-.655-.012-.196-.191-.29-.364-.283-.388-.833-.1-.062-.073-.44-.176-.303.072-.339.21-.04.244.086.275-.085.114-.416.404-.413.101-.368.126-.144.679-.437.049-.335.24-.419.137-.383-.076-.303.162-.281.66-.16.88.525.286.094.272-.159.536-.418.246-.591-.19-.541-.321-.729.04-.253.358-.159.433-.003.268-.245-.294-.485.02-.535-.051-.542-.258-.417-.72-.52-.678-.794-.42-1.238-.45-.447-.897-.373-.443-.673-.735-.351-.468-.255-.601-.18-.339-.018-.282-.084-.16-.231-.136-.363.354-.266.873-1.312.405-.336.214-.288.12-.557.13-.077.912-.263.372-.21 1.084-.76-.106-.332-.027-1.205-.071-.309-.176-.351-.16-.675-.075-.543.262-.146.116-.407-.844-.204-.148-.075-.3-.308.347-.933-.17-.032.012-.412-.089-.406-.37-.456-.246-.091.04-.834-.059-.269-.143-.233-.05-.305-.197.005-.357-.112-.134-.389-.215-.342-.04-.463-.093-.102-.593-.092-.036-.267-.38-.515-.28.006-.156-.218.135-.351-.213-.27-.153-.323.046-.324-.082-.461.093-.331-.078-.137-.544-.147.11-.275.163-.123 1.652-2.1 1.05.115-.059-.79 1.548-.186-.032-.543 1.96.2.946.006.448-.122.603-.433.314-.163.742.076.237-.173.84-.01.385-.096.48-.052.51.056-.258-.962.072-.226-.17-.64-.314-.498.247-.13.046-.14.85.039.103-.19.51-2.04.392.107.092-.254 1.303.62.304-1.94 1.36.09.603.162.16-.162.463.24-.273.348.098.492.252.226.078.19-.108.148.102.268.423.135.098.095.386.122.046.16.253.152.515.142.139.133.335.02.144.117.536.213.216.46-.129.49.16.36.093.561.19.154.912.492.649.17.551-1.47.7-.216.227.726 1.654-.088.401.088.685.258.572.317.536.349.443-2.007.077-.255.294.193.118-.38-.257-.306-.52-.485.015-.324-.886-.124-.495-.037-.468-.117-.459-.042.057-.147 1.071-2.193-.134-.097.33-.806 2.256-.63.52.613.412.044.186-.747 2.946.458 2.24.333.047-.05.974-2.3 2.106.861 1.777.666.443.988-1.617.811.206.417.376.004.561-.103.057.145-1.473 3.468-.495 1.183 1.082-.037 1.623-.086 1.947-.118.02-.216.484-.452.19.196.974-.378-.02-.184.036-.962 1.7.04.309.045-.088.348.005.594.412-.009.716-.209.16.136.536-.853.767-.794.459-.433.478.11.253.168.18.017.33.333.432.024.253-.118 1.092-.379-.15.342-.71.915.484.199 2.684.883 1.225.289.32.049-.155.46.031.164-.103.504.459-.194.983.725.685.029 1.72.011-.025.485.345.193.381.065.495.383.51.504.128-2.66.387-.138.35.068.391-.273.222-.738-.077-.297.046-.196.242-.14.077-.19.902.45.299-.212 1.38-.355 1.458-.308-.572-.875-.675-.256.247-.618-.221-.128.505-.321.072-.141.422-.172.201.143 2.704.146.015-.334.516-.442.644.724.736.263.402-.055-.093-.409.469-.07.427-.225.515-.792.881-.275-.118-.384v-.305l.283.158.402.062.422.148.304-.078.304.003.582-.273-.041-.192.237-.221-.031-.398.268.093.082.354.16.246.314.196.324.115.062-.744.623.392.237-.288.33.164.613-.02.263-.131-.098.42.118.37-.52.169-.118-.32-.418.12-.005.275.15.341.144.62-.247.2-.629.61-.726.753.623.05 1.535.192.273.004.634-.514.252.272.927-.27.237.06.294-.321-.036-.102-1.056-.041.154-.415-.041-.147.082-.483.02-.691.047-.155 2.066.482.04-.244 2.128.404.763.12.144.341-.356.132-.164-.018-.18.242.05.142-.056.36.201.244.052.331-.062.148-.371.448-.757.261-.083.401-.216.15-.026.207.412.837.201.177.623.172.484.323.325.098.407.014.072.068.726.176 1.097.36.227-.367.391-.199.3.279-.15.23v.93l.391.166h.53l.233-.071.303-.321.361-.078.932-.443.01-.823.217-.011.134.144.566.183.073-.162.535-.884.14-.31 1.246-.193.216-.279.072-.465.181-.13.185-.39-.139-.522h.345l.917.241.015.361-.134.319.031.249.155.127 1.293-.07.726.929-.206.808.438.483.103.532-.119 1.515.196.21.098.234.407.41-.057.152.371.02.438.232.422-.087.551-.362.371-.444.417-.062.299-.3.469-.098.087-.307-.067-.577.217-.164.077-.377.165-.252.731-.58.644-.265-.026-.206.773-.866.072-.367.196-.248.18.11.113.468.345.576.031.443.175.393.268.386.196.1 1.283 1.267.17.613.865-.377.227-.036.329.115.17-.09 1.561-.44-.01-.333.268.031-.037-1.644-.031-.555.114-.51.195-.57.521.17.319.177.824-.084.134-.085.479.036-.226.638.262.383 1.113-.14-.088-.713.108-.334.407-.04.531.234.041.25.165.26.654.388.294.46.206.135.396.13.062.731.402-.092.541-.004.072.054.963-.442.525.19-1.292 2.183.206.099.267.236-.061 1.189.443.24.195.233-.118.165.02.2-.139.19-.159-.024.319.553.319.199.191.045-.113.275.031.242-.34.184.02.163.232.194-.196.101-.092.197.056.244.253.185.036.15.273.056-.073.283.351.384.273.407-.289.254.16.151.237-.119.196.107-.021.213-.18.205.314.272.237.336-.02.172-.248.155.088.212.211.129.093.376.118.206.325.051.026.268.334.033-.036.325.222-.014.299.288-.201.361.216.195.227-.04.401-1.511.315.008.731.204.577.235.402.214.448-.916.386.137.701.072.546.164.896.868-.371.958.088.233-.304.497-.273.218-.103.208-.402.149-.35.439-.268 1.301.958.328 1.272.405.294.214.844.512.418.094.381.354.031.204.283.187.067.153-.062.396.315.382.298.175.144.299.258.126.067.218.335.509.17.009.283.357.149.355.546.057.114.124.407-.011.34-.122.494-.019.283.155.155-.109.798-.806.237.194.335.128 1.082.265-1.602 1.662-.953 1.01.402.973-1.649.259-.412-.024-1.02.163-1.076.229.35 2.895-.051 1.123 2.359 1.702.608.49.891.673-.078.142.119.276.026 1.863-.016 1.106-.154-.004-.335-.212-.52-.179-.778 1.895.247.202-.149.239-.654.892-.263-.061-.371.007-.309.088-.108.948-.489.504-.103-.044-.366.355.005.257-.175.403-.041.666.453.151.824.562.253.29.994.744.443.837-.057.288-.582.57-.031.337.139.265.36.292.248.71.01.441-.134.158-.263-.01-.412.488-.262.16-.067.287-.237.227-.315.063-.128-.193-.392-.198-.031-.252-.123-.143-.248-.474-.262-.071-.284-.171-.236-.016-.279.118-.118.197-.417-.074-.201-.117-.139.363.031.229-.005.623-.175.451-.207.17.006.494-.103.4.118.137-.02.426.123.24-.072.254.098.378-.067.231-.227.135.047.16.293.239.263.066.376-.053.871.136.242-.183.334.202.284.245 1.746-.281.221.151.119.403-.577.071-.644 1.623-1.118-.447-.072.417-.108.226-.134.508-.123.728-.232.13-.284.519-.633 1.074.453 1.426 1.355-.46.139.429 1.313-.407v.419l.382.014.005.21.206.462.958-.384.448-.24.036.291.134.159.36.094.021.338.082.204.16.035.927 1.196 1.581-1.232.454.537-.129.775-.757 1.057-.521.564.284.126-.376.712-.139-.006.118 1.411-.829.049.01.259-1.009.073-.057.758.005.452.417-.014.057.631.973-.041.042.887-1.484.088.165 1.213.211.305.593.242.499.361.726.042.526.511.18.516.397.691.092.227.552.868.02.139-.391.728.309.201-.139.578-.325.516.062.392.103.057.592 1.12.175.96-.334 1.383.226.083.072.222-.123.237-.315-.16-.386.578-.288 1.394.69.253-.139.216.046.661 1.015.779.283-.041.047.568-.103.371-.17.011-.315.144-.412.119-.365.568.201-.021.066.16.397 1.445-.031.186.144.165.093.341.01.64.515-.124.165.083h.371l.345-.202.335.217.196.155.103.211.252.088.072.145.309 2.4.047.516-.366.139-.283.041-.232.269-.227.067-.221.537-.145.103-.762.227-.335.021-.304.289-.747.325-.283-.005-.345-.94-.639-.216-.551-.088-.458.041-.016.325-.36-.278-.129.062-.252-.429.025-.397-.046-.217-.18-.196-.376-.057-.15.32-.468.036-.212.104-.061.485-.124.129.124.165-.242.093.128.258-.216.217-.185-.197-.443.114.37-.635-.159-.18-.093-.295-.268-.026-.237-.118-.355-.367.02-.325-.561.119-.046.284.072.361.18.243.16.423-.026.093.17.511.02.289-.108.191-.407.154-.134.13-.01.381-.119.238-.515-.129.006.273-.243.429-.437-.362-.248.176-.36.108.196.191-.212.186.196.088.309.32-.53.65-.114.258-.51.48-.273.171.109.237-.052.242-.355-.247-.706-.248-.319-.046-.227-.135-.216-.253-.196.207-.268.01-.113.191-.242-.088-.263.32-.185.109-.634.191-.283-.759-.438.289-.211.067-.433-.557-.695-.666-.361-.212-.613-.449-.273-.129-.479-.464-.242-.408.015-.113-.499-.176-.335-.206-.572.387-.17.413-.541-.186-.329-.021-.191.289-.618-.077-.263.067-.417-.145-.304.29-.299.521-.195.124-.01.345.118.367-.026.49-.118.232-.119.527.18.139.176.279.051.263-1.664 1.672-.37.088-1.52-.888-.623-.412-.752-.816h-.314l.097.397-.026.289-.283.868-.556-.264-.098-.144-.227.232-.798-.49-.453-.119-.134.088.093.289-.047.16-.602.31-.572.5.989 1.306.087.093-.546 1.068-.525.94-.237.211-.907.552.103.372.212.273.494.429.253.16.705.64.258.511-.618.186-.315.01-.468-.062-.454-.114h-.283l-.505-.144-.206-.01-.386.098-.804-.026-.272.093-.284-.196-.427.051-.32.124-.401.077.288.558-.809.072-.123.129-.088.666.041.733-.628-.212-.263-.015-.602 1.946-.32 1.316-.984 1.486-.417.568-.68 1.017.891.609.521.392-.263.325.02.485.078.258.185.165.335.898.376.527.232.47.731.258-.185.578-.371.82.515.842-.237.139-.201-.356-.093.093-.02.361-.556-.088-.242.067.149.336v.217l-.289.593-.303.176-.299.433-.041.155.329.397-.309.408.165.351-.098.186-.283.026-.319-.155-.382.134-.185.279-.227-.212-.206-.093-.175.279-.273-.036-.525.031-.108-.212-.176-.139-.077-.382-.402.036-.262-.248-.289.114-.767-.526-.304-.104-.474-.015-.206.17-.67.016.026.645-.278.088-.216.206-.057.181-.288-.021-.593-.227-.206.149-.226.357-.443.48-.304-.15-.165.273.469 1.296-.088.155-.52-.3-.948-.253-.814-.65-.21-.211-.274-.16-.66.031-.483-.269-.093-.108-1.035-.341-.047.15-.463.351-1.04.335h-.093l-.711-.247-1.334-1.11-.047-.078.073-.619-.413-1.342.165-.196-.226-.212-2.251-.289-1.355-.154.093.242-.588.377-.38-.428-.047-.233-.2-.108-.434.268-.273.057.433.382.376.248-.15.206-.277-.413-.716-.242-.232-.418-.289-.104" clip-rule="evenodd"/><path stroke="#000" stroke-linecap="round" stroke-linejoin="round" stroke-width=".2" d="m83.2 215.575.006-.109-.273-.459.283-.588.103-.062.222-.558-.289-.511-.04-.191.056-.629-.155-.232.01-.176-.175-.124-.355-.387-.242-.475.026-.258-.191.119-.69.015-.696.078-.535.118-1.437-.366-.928.867-.175.005-.18-.155-.37-.118.257-1.053-.386.036-.464-.041-.99.056.016-.309-.067-.212-.16-.041-.025-.232.113-.563-.129-.134-.278-.083.067-.309-.051-.248-.433-.134-.304-.568-.572.217-.113.686-.48-.072-.437-.238-.402-.33-.644-.32-.406-.32-.325-.144-.165-.264-.587-.351-.118-.325-.253.078-.082-.516-.294-.073-.051-.211-.232-.073-.083-.227-.231.083-.13-.129-.308-.062-.114 1.543-.087.826-.793-.088-.65-.32-1.843-1.14.463-.924-.128-.052.376-1.213-1.335-.521-1.261-.764-1.51-1.032-.02-.444-.134-.48-.242-.428-.268.041-.453.129-1.02-.201h-.222l-.18.273-.046.207-.294.397-.056.449-.428.542-.505-.403-.206.031-.134.548-.37-.166-.32-.361-.335-.232-.396.02-.15-.082-.144-.645-1.035.015-.248-.165-.855-.423-1.643-.098-.02.65-.237.32-.71-.398-.222-.18-.634-.14-.427.037-.062.082-.392.139-.345-.01-.34.078-.49-.16-.586-.284-.232.139-.32-.082-.036.314-.21.3-.31-.109-.268.176.145.232.319.067.134.181.402.273-1.103.986-1.066.914.65.562-.243.171 1.545 1.94-.731.862-1.86 2.178-.612.743-.64.733-.241-.149-.34-.728-.654-.583-.15-.026-.16-.3.052-.211-.139-.15-.5-.139.098-.264-.108-.196-.335-.067-.103.114-.273-.016-.232.32-.185-.211-.216.031-.299.279-.015.134.139.402.16.129.01.166-.516.056-.02.083.34.165.283-.02.866.283.03.109.361.196.114.16.376.15.19.196.278.139.145.475.257.113.155.418.463.181-.639.294-.34.346-1.375-.588-1.57-.656-.057-.201-.722-.289-.556-.155-.139-.186.052-.232-.201-.114-.247.099-.583.082-.958-.015.006-.103.036-.207-.17-.098.092-.294.217-.191-.083-.346.078-.408.149-.289-.057-.118.737.103.273-1.27.144-.346-.628-.046.072-.552-.005-.387.18-.186-.335-.274-.397-.144-.123-.31-.289-.532-.582.15-.139-.124-.036-.284-.412.083-1.06.067-.51-.057-.5-.32-1.685-.753-2.287-1.285-1.22-.661-.16-1.492-.582-.867-.263-.665.041-.217-.046-.362-.155-.273-.376-.289-.092-.206.072-.217-.386-1.074.911-.774.546-.557.443-.718-.103-.072.155-.852-.84-.717-.778-.511-.958-.671-.932.573-.453.062-.273-.01-.423.134-.396-.057-.407.176-.284-.362-1.112-.712-.917-.47-.278-.211.288-.475-2.024-2.044-.129-.088-.443.671-.206.651-.396-.31-.284-.16-.437-.067-.34-.269-.114-.221-.232-.202-.458 1.048-.901 2.111.602.346-.113.485-.252.072-.392-.248-.139-.185-1.092-.904-.261.372-.142.325.46.181-.047.258.16.124.015.598.078.078h.5l-.16.309-.593-.144-.426.934-.02.098.503.232-.165.424.417.335.18.346-.427.609-.37-.103-.155.015.01-.506-.329-.32-.18-.273-.108-.377.258-.877-.03-.336-.186-.521-.794-.893-.187-.145-.074-.299-.16-.196-.099-.356-.268-.258-.308-.124-.169-.397-.01-.176-.18-.041-.044-.418-.096-.274-.366.057.057.325-.448.005.215-.351.223-.242-.317-.465-.344.067-.24.165-.087.532-.94-.377-.528-.062-.257-.304.396-.465.203-.438-.041-.444-.916-1.203-.009-.237-.113-.171.112-.18.014-.372.1-.036.191-.506.177-.263.243-.542.252-.273-.045-.253-.186-.207-.22-.547.336-.067.479.124.202-.191-.03-.232-.299-.542.15-.274.364-.155.211-.247-.41-.408-.132-.263-.02-.511.183-.372.413-.186.673.093.31-.026.15-.087.419.077.844.036.461.31.152.01.253-.531.023-.289-.413-.584.027-.144.29-.196.167-.011.736-.645.195-.351-.156-.253-.455-.412-.263-.104-.37-.294-.193-.315.045-.428.526-.134.255.247.258.114.285-.119-.057-.242-.585-.666-.1-.268.262-.197.222.062.326-.123.097-.176-.213-.387-.523-.382-.327-.459-.073-.217.433-.47.068-.562-.194-.444-.405-.573-.561-.382-.697-.521-.262-.3-.126-.691.014-.785.066-.872.073-.403.142-.433.168-.052.309.062.04.212.423.351.205-.036.1-.217.022-.558-.031-.232-.253-.186-.443.011-.167-.062-.124-.3.27-.216.332-.485.074-.243.272-.361.138-.098-.367-.264-.184-.026-1.217-.557-.166-.062-.175-.212.071-.247.232-.018.235-.122.293-.349-.037-.848.175-.111.049-.205-.11-.335.415-.607-.068-.228-.849-.271-.018-.267.411-.322-.417-.386-.231-.39-.177-.105-.056-.317-.22-.277-.04-.231-.192-.103-.12.506-.15.053-.178-.199v-.28l-.215-.176-.186.037-.21-.099-.372-.373-.284-.58.137-.582.429-.508-.04-.178-.296-.288.037-.243-.472-1.192-.047-.269.055-.588-.048-.771-.047-.121-.003-.753.067-.227-.156-.255.16-.158.02-.185-.317-.389-.106-.027-.495-.692-.44-.24-.175-.156-.495-.13-.15-.36-.165-.246-.401-.344-.264-.478-.225-.163-.14-.464-.713-.222-.029-.127.18-.434.403-.333.027-.143.22-.1.343-.263.13-.284-.136-.102.13-.336.013-.518.068-.392.166-.216.432-.391.454-.657.035-.214.358-.781.469-.094.4-.182.14-.15.09-.333.147-.197.455.159.252-.035.283.199-.143.44.084.368.146.217.614-.107.351-.31.195-.033.193-.184.026-.375-.259-.268.008-.293-.222-.352-.03-.353.166-.443-.169-.354.044-.166-.174-.349-.382-.4.081-.465.12-.298.318-.103.094-.655-.012-.196-.191-.29-.364-.283-.388-.833-.1-.062-.073-.44-.176-.303.072-.339.21-.04.244.086.275-.085.114-.416.404-.413.101-.368.126-.144.679-.437.049-.335.24-.419.137-.383-.076-.303.162-.281.66-.16.88.525.286.094.272-.159.536-.418.246-.591-.19-.541-.321-.729.04-.253.358-.159.433-.003.268-.245-.294-.485.02-.535-.051-.542-.258-.417-.72-.52-.678-.794-.42-1.238-.45-.447-.897-.373-.443-.673-.735-.351-.468-.255-.601-.18-.339-.018-.282-.084-.16-.231-.136-.363.354-.266.873-1.312.405-.336.214-.288.12-.557.13-.077.912-.263.372-.21 1.084-.76-.106-.332-.027-1.205-.071-.309-.176-.351-.16-.675-.075-.543.262-.146.116-.407-.844-.204-.148-.075-.3-.308.347-.933-.17-.032.012-.412-.089-.406-.37-.456-.246-.091.04-.834-.059-.269-.143-.233-.05-.305-.197.005-.357-.112-.134-.389-.215-.342-.04-.463-.093-.102-.593-.092-.036-.267-.38-.515-.28.006-.156-.218.135-.351-.213-.27-.153-.323.046-.324-.082-.461.093-.331-.078-.137-.544-.147.11-.275.163-.123 1.652-2.1 1.05.115-.059-.79 1.548-.186-.032-.543 1.96.2.946.006.448-.122.603-.433.314-.163.742.076.237-.173.84-.01.385-.096.48-.052.51.056-.258-.962.072-.226-.17-.64-.314-.498.247-.13.046-.14.85.039.103-.19.51-2.04.392.107.092-.254 1.303.62.304-1.94 1.36.09.603.162.16-.162.463.24-.273.348.098.492.252.226.078.19-.108.148.102.268.423.135.098.095.386.122.046.16.253.152.515.142.139.133.335.02.144.117.536.213.216.46-.129.49.16.36.093.561.19.154.912.492.649.17.551-1.47.7-.216.227.726 1.654-.088.401.088.685.258.572.317.536.349.443-2.007.077-.255.294.193.118-.38-.257-.306-.52-.485.015-.324-.886-.124-.495-.037-.468-.117-.459-.042.057-.147 1.071-2.193-.134-.097.33-.806 2.256-.63.52.613.412.044.186-.747 2.946.458 2.24.333.047-.05.974-2.3 2.106.861 1.777.666.443.988-1.617.811.206.417.376.004.561-.103.057.145-1.473 3.468-.495 1.183 1.082-.037 1.623-.086 1.947-.118.02-.216.484-.452.19.196.974-.378-.02-.184.036-.962 1.7.04.309.045-.088.348.005.594.412-.009.716-.209.16.136.536-.853.767-.794.459-.433.478.11.253.168.18.017.33.333.432.024.253-.118 1.092-.379-.15.342-.71.915.484.199 2.684.883 1.225.289.32.049-.155.46.031.164-.103.504.459-.194.983.725.685.029 1.72.011-.025.485.345.193.381.065.495.383.51.504.128-2.66.387-.138.35.068.391-.273.222-.738-.077-.297.046-.196.242-.14.077-.19.902.45.299-.212 1.38-.355 1.458-.308-.572-.875-.675-.256.247-.618-.221-.128.505-.321.072-.141.422-.172.201.143 2.704.146.015-.334.516-.442.644.724.736.263.402-.055-.093-.409.469-.07.427-.225.515-.792.881-.275-.118-.384v-.305l.283.158.402.062.422.148.304-.078.304.003.582-.273-.041-.192.237-.221-.031-.398.268.093.082.354.16.246.314.196.324.115.062-.744.623.392.237-.288.33.164.613-.02.263-.131-.098.42.118.37-.52.169-.118-.32-.418.12-.005.275.15.341.144.62-.247.2-.629.61-.726.753.623.05 1.535.192.273.004.634-.514.252.272.927-.27.237.06.294-.321-.036-.102-1.056-.041.154-.415-.041-.147.082-.483.02-.691.047-.155 2.066.482.04-.244 2.128.404.763.12.144.341-.356.132-.164-.018-.18.242.05.142-.056.36.201.244.052.331-.062.148-.371.448-.757.261-.083.401-.216.15-.026.207.412.837.201.177.623.172.484.323.325.098.407.014.072.068.726.176 1.097.36.227-.367.391-.199.3.279-.15.23v.93l.391.166h.53l.233-.071.303-.321.361-.078.932-.443.01-.823.217-.011.134.144.566.183.073-.162.535-.884.14-.31 1.246-.193.216-.279.072-.465.181-.13.185-.39-.139-.522h.345l.917.241.015.361-.134.319.031.249.155.127 1.293-.07.726.929-.206.808.438.483.103.532-.119 1.515.196.21.098.234.407.41-.057.152.371.02.438.232.422-.087.551-.362.371-.444.417-.062.299-.3.469-.098.087-.307-.067-.577.217-.164.077-.377.165-.252.731-.58.644-.265-.026-.206.773-.866.072-.367.196-.248.18.11.113.468.345.576.031.443.175.393.268.386.196.1 1.283 1.267.17.613.865-.377.227-.036.329.115.17-.09 1.561-.44-.01-.333.268.031-.037-1.644-.031-.555.114-.51.195-.57.521.17.319.177.824-.084.134-.085.479.036-.226.638.262.383 1.113-.14-.088-.713.108-.334.407-.04.531.234.041.25.165.26.654.388.294.46.206.135.396.13.062.731.402-.092.541-.004.072.054.963-.442.525.19-1.292 2.183.206.099.267.236-.061 1.189.443.24.195.233-.118.165.02.2-.139.19-.159-.024.319.553.319.199.191.045-.113.275.031.242-.34.184.02.163.232.194-.196.101-.092.197.056.244.253.185.036.15.273.056-.073.283.351.384.273.407-.289.254.16.151.237-.119.196.107-.021.213-.18.205.314.272.237.336-.02.172-.248.155.088.212.211.129.093.376.118.206.325.051.026.268.334.033-.036.325.222-.014.299.288-.201.361.216.195.227-.04.401-1.511.315.008.731.204.577.235.402.214.448-.916.386.137.701.072.546.164.896.868-.371.958.088.233-.304.497-.273.218-.103.208-.402.149-.35.439-.268 1.301.958.328 1.272.405.294.214.844.512.418.094.381.354.031.204.283.187.067.153-.062.396.315.382.298.175.144.299.258.126.067.218.335.509.17.009.283.357.149.355.546.057.114.124.407-.011.34-.122.494-.019.283.155.155-.109.798-.806.237.194.335.128 1.082.265-1.602 1.662-.953 1.01.402.973-1.649.259-.412-.024-1.02.163-1.076.229.35 2.895-.051 1.123 2.359 1.702.608.49.891.673-.078.142.119.276.026 1.863-.016 1.106-.154-.004-.335-.212-.52-.179-.778 1.895.247.202-.149.239-.654.892-.263-.061-.371.007-.309.088-.108.948-.489.504-.103-.044-.366.355.005.257-.175.403-.041.666.453.151.824.562.253.29.994.744.443.837-.057.288-.582.57-.031.337.139.265.36.292.248.71.01.441-.134.158-.263-.01-.412.488-.262.16-.067.287-.237.227-.315.063-.128-.193-.392-.198-.031-.252-.123-.143-.248-.474-.262-.071-.284-.171-.236-.016-.279.118-.118.197-.417-.074-.201-.117-.139.363.031.229-.005.623-.175.451-.207.17.006.494-.103.4.118.137-.02.426.123.24-.072.254.098.378-.067.231-.227.135.047.16.293.239.263.066.376-.053.871.136.242-.183.334.202.284.245 1.746-.281.221.151.119.403-.577.071-.644 1.623-1.118-.447-.072.417-.108.226-.134.508-.123.728-.232.13-.284.519-.633 1.074.453 1.426 1.355-.46.139.429 1.313-.407v.419l.382.014.005.21.206.462.958-.384.448-.24.036.291.134.159.36.094.021.338.082.204.16.035.927 1.196 1.581-1.232.454.537-.129.775-.757 1.057-.521.564.284.126-.376.712-.139-.006.118 1.411-.829.049.01.259-1.009.073-.057.758.005.452.417-.014.057.631.973-.041.042.887-1.484.088.165 1.213.211.305.593.242.499.361.726.042.526.511.18.516.397.691.092.227.552.868.02.139-.391.728.309.201-.139.578-.325.516.062.392.103.057.592 1.12.175.96-.334 1.383.226.083.072.222-.123.237-.315-.16-.386.578-.288 1.394.69.253-.139.216.046.661 1.015.779.283-.041.047.568-.103.371-.17.011-.315.144-.412.119-.365.568.201-.021.066.16.397 1.445-.031.186.144.165.093.341.01.64.515-.124.165.083h.371l.345-.202.335.217.196.155.103.211.252.088.072.145.309 2.4.047.516-.366.139-.283.041-.232.269-.227.067-.221.537-.145.103-.762.227-.335.021-.304.289-.747.325-.283-.005-.345-.94-.639-.216-.551-.088-.458.041-.016.325-.36-.278-.129.062-.252-.429.025-.397-.046-.217-.18-.196-.376-.057-.15.32-.468.036-.212.104-.061.485-.124.129.124.165-.242.093.128.258-.216.217-.185-.197-.443.114.37-.635-.159-.18-.093-.295-.268-.026-.237-.118-.355-.367.02-.325-.561.119-.046.284.072.361.18.243.16.423-.026.093.17.511.02.289-.108.191-.407.154-.134.13-.01.381-.119.238-.515-.129.006.273-.243.429-.437-.362-.248.176-.36.108.196.191-.212.186.196.088.309.32-.53.65-.114.258-.51.48-.273.171.109.237-.052.242-.355-.247-.706-.248-.319-.046-.227-.135-.216-.253-.196.207-.268.01-.113.191-.242-.088-.263.32-.185.109-.634.191-.283-.759-.438.289-.211.067-.433-.557-.695-.666-.361-.212-.613-.449-.273-.129-.479-.464-.242-.408.015-.113-.499-.176-.335-.206-.572.387-.17.413-.541-.186-.329-.021-.191.289-.618-.077-.263.067-.417-.145-.304.29-.299.521-.195.124-.01.345.118.367-.026.49-.118.232-.119.527.18.139.176.279.051.263-1.664 1.672-.37.088-1.52-.888-.623-.412-.752-.816h-.314l.097.397-.026.289-.283.868-.556-.264-.098-.144-.227.232-.798-.49-.453-.119-.134.088.093.289-.047.16-.602.31-.572.5.989 1.306.087.093-.546 1.068-.525.94-.237.211-.907.552.103.372.212.273.494.429.253.16.705.64.258.511-.618.186-.315.01-.468-.062-.454-.114h-.283l-.505-.144-.206-.01-.386.098-.804-.026-.272.093-.284-.196-.427.051-.32.124-.401.077.288.558-.809.072-.123.129-.088.666.041.733-.628-.212-.263-.015-.602 1.946-.32 1.316-.984 1.486-.417.568-.68 1.017.891.609.521.392-.263.325.02.485.078.258.185.165.335.898.376.527.232.47.731.258-.185.578-.371.82.515.842-.237.139-.201-.356-.093.093-.02.361-.556-.088-.242.067.149.336v.217l-.289.593-.303.176-.299.433-.041.155.329.397-.309.408.165.351-.098.186-.283.026-.319-.155-.382.134-.185.279-.227-.212-.206-.093-.175.279-.273-.036-.525.031-.108-.212-.176-.139-.077-.382-.402.036-.262-.248-.289.114-.767-.526-.304-.104-.474-.015-.206.17-.67.016.026.645-.278.088-.216.206-.057.181-.288-.021-.593-.227-.206.149-.226.357-.443.48-.304-.15-.165.273.469 1.296-.088.155-.52-.3-.948-.253-.814-.65-.21-.211-.274-.16-.66.031-.483-.269-.093-.108-1.035-.341-.047.15-.463.351-1.04.335h-.093l-.711-.247-1.334-1.11-.047-.078.073-.619-.413-1.342.165-.196-.226-.212-2.251-.289-1.355-.154.093.242-.588.377-.38-.428-.047-.233-.2-.108-.434.268-.273.057.433.382.376.248-.15.206-.277-.413-.716-.242-.232-.418-.289-.104"/><path id="Шепетівський" fill="#C8C6C6" fill-rule="evenodd" d="m101.47 90.072.139.521-.185.391-.181.13-.072.465-.216.279-1.247.192-.139.311-.535.884-.073.162-.566-.184-.134-.143-.216.01-.01.824-.933.443-.36.078-.304.32-.232.072h-.53l-.392-.166v-.93l.15-.23-.3-.28-.391.2-.227.367-1.097-.36-.726-.176-.072-.068-.407-.014-.325-.098-.484-.323-.623-.172-.2-.177-.413-.838.026-.206.216-.15.083-.4.757-.262.37-.448.063-.148-.052-.331-.2-.244.056-.36-.052-.143.18-.241.165.017.356-.131-.144-.34-.763-.121-2.127-.404-.041.243-2.066-.481-.046.155-.02.691-.083.483.041.147-.154.414 1.056.042.036.102-.294.322-.237-.06-.927.269-.252-.272-.634.514-.273-.004-1.535-.193-.623-.05.726-.753.629-.61.247-.2-.144-.62-.15-.34.005-.275.418-.12.118.32.52-.169-.118-.37.098-.42-.263.13-.613.02-.33-.163-.237.288-.623-.392-.062.744-.324-.115-.314-.196-.16-.246-.082-.354-.268-.093.03.398-.236.221.041.192-.582.273-.304-.003-.304.078-.422-.148-.402-.063-.283-.157v.305l.118.384-.88.275-.516.792-.427.224-.469.071.093.408-.402.056-.737-.264-.643-.723-.515.442-.016.334-2.704-.146-.2-.143-.423.172-.072.14-.505.322.221.128-.247.618.675.256.572.874-1.458.309-1.38.355-.3.213-.9-.45-.078.189-.242.14-.046.196.077.296-.222.739-.391.273-.35-.069-.386.14-.13 2.66-.51-.505-.494-.383-.38-.066-.346-.192.026-.485-1.72-.011-.686-.03-.983-.724-.459.194.103-.505-.03-.163.154-.46-.32-.05-1.226-.288-2.683-.883-.484-.2.71-.914.15-.342-1.092.38-.252.117-.433-.024-.33-.333-.18-.018-.252-.167-.48-.11-.458.433-.767.793-.536.854-.16-.136-.716.209-.412.009-.005-.594.088-.348-.31-.045-1.7-.04-.035.962.02.184-.973.378-.19-.196-.485.452-.02.215-1.948.12-1.622.085-1.082.037.495-1.183 1.473-3.468-.057-.145-.561.103-.376-.004-.206-.417 1.617-.811-.443-.989-1.777-.665-2.106-.862-.974 2.302-.046.049-2.241-.333-2.946-.459-.186.748-.412-.044-.52-.614-2.256.631-.33.806.134.097-1.071 2.193-.057.147.459.042.468.117.495.037.886.124-.016.324.52.485.258.306-.118.38-.294-.193-.077.255-.443 2.007-.536-.35-.572-.316-.685-.258-.401-.088-1.654.088-.226-.726-.701.215-.551 1.47-.65-.17-.91-.491-.191-.154-.093-.56-.16-.361.129-.49-.216-.46-.536-.213-.144-.118-.335-.019-.14-.133-.514-.142-.253-.153-.046-.16-.386-.121-.098-.095-.422-.135-.103-.268.108-.149-.078-.189-.252-.226-.098-.492.273-.347-.463-.24-.16.16-.603-.16-1.36-.09-.303 1.939-1.304-.62-.092.254-.392-.107-.51 2.04-.103.19-.85-.04-.046.14-.247.131.314.499.17.639-.072.226.257.962-.51-.056-.479.052-.386.097-.84.009-.236.173-.742-.076-.314.163-.603.433-.448.122-.945-.007-1.96-.199.03.543-1.547.186.06.79-1.05-.114-.205-.128-.274-.416-.198-.174-.524-.31-.961-.187-.711-.493-.362-.315-.042-.308.057-.214-.072-.374-.342-.32-.294-.048-.382-.311-.496-.25-.49.047-.479-.421.079-1.035.252-.376.21-.462.203-.167.551-.304.17-.048.277-.27.432-.139.37-.324.275-.008-.2-.333-.496-.988-.422-1.532-.195-.564-.488-1.667.274-.404v-.588l-.483-.285-.034-.195.295-.644.212-.013.342.149.193-.274.137-.574.324-.244.613-.174.217-.216-.177-.306.434-.575.827.212.748.07.959-.046-.03-.053.107-.676.165-1.033.455-1.366-.52-.082.038-.216-.592-.274-.673-.034-.3-.211-.576-.184-.209.014-.106-.232.276-.275.266-.092.565-.368.207-.09.371-.395.528-.255.425-.098.795.11.089-1.313.707.054.066-.364-.176-.305.003-.475-.266-.064.016-.641-.158-.075-.707-.608-.487.013-.407-.313.141-.366.373-.728-.549-.47.079-.445.281-.977-.245-.726-.264-.304.189-.097.968-.059 3.522-.375 1.66-.147.052-.539-.041-.86-.732-.417-.795-.688-.794-.656-.966-.57.716-1.625-.477-.175-.24-.007-.044.174-.614.123-.353-.023.043-.416-.38-.262-.64-.536-.245-.343.122-.428.194-.043.417.077-.102-.723.407-.24-.768-1.223.032-.206.658-.4.055-.136.351.377.375.619.175-.12.255.09.266-.028.509-.19.224-.033.038-.302.153.058.281-.344.72-.207.172.163.291.116.665-.058.046-.22.562-.38.365-.065.227-.108.263-.376.293-.088.057-.363.216-.303.304-.128.103-.327.206-.173.093-.196-.041-.402-.278-.35.061-.114.057-.246.154-.119-.04-.175.164-.388.216-.284.248.017.273-.2-.006-.207.3-.34.205-.158.062-.314.17-.245.026-.25-.072-.268.304-.18.18-.006.32-.446.36-.019.185-.141.17.01.026-.251.335-.159.304.06.19-.25.104-.438.226-.271.48-.272-.094-.25.176-.262.335-.13.376.025.216.088.479-.15.252-.018.15-.295-.031-.718.53-.092.052-.203.36-.046.083-.123.489.018.123-.054.346.254.231-.065.34.158.212-.116.097.218.196.034.31-.102.097.102.211-.257.134.04.175.287.289-.091.458.085.371-.356.345-.16.124.092.35-.147.443-.087-.108-.134.051-.292.124-.058.283.585-.21-.01-.531.321-.098.297.51-.164.092.392.799.032-.052-.19.495-.315.15-.302.35-.175.772-.04.412.353.551.003.17.071.15-.289-.371-.042-.062-.167-.299-.134.34-.754-.196-.099-.103-.274.212-.513.252-.225.113-.516.299.016.598.462.087-.334-.664-.344.056-.111.577-.361.124-.26-.144-.237.102-.321.825.114.283-.57-.428-.21.103-.108-.324-.31.18-.298.253-.267.123-.284.464.616.535-.267.134-.057.52-.044.027-.148-.31-1.07.361.143 1.113.038.221-.566-.33-.333-.561-.857.453-.149 1.149-.434.397-.214.7-.57.175.126.108-.442-.005-.37.495-1.174.68-1.803 1.643-.384 2.282.833.252-.91.561-2.122.134-.596.747.183.587.016.624.2.582-2.912.231-1.201 1.742.418.236-1.31-.01-1.572.031-.295.144-.644.505.19.51-.009.072-.078.423.016.133.005.047-.617.118-.379-.242-.245-.633-.42.206-.261v-.205l.345-.085-.072-.317.051-.563.134-.48-.077-.555-.077-.19.468-.073-.015-.156.458-.08.15.955-.067.348-.253.72-.036.38.881-.182.433-.044.108.102.556.152v-.445l.057-.335.247-.045.067.435.211.009.134-.416.438.093.582-.147.02-.611.243-.078-.041-.313-1.283.204.036.27-1.092.163-.129-.83.721-.104-.139-.945.103-.176v-.256l-.262-.165.226-.313h.242l.438.194.258-.467.231-.275-.005-.31-.33-.208.068-.357.443.083.38-.24.176-.014 1.066.186.572-.074.664.006.186-.803-.031-.742.304-.654.268-.167.113-.367.633.054.33.888 1.282.828.232.064.314-.794.928-.814.092.036.572-1.407.01-.316.928-.835.808-.804.551.432.212.299.664.467.7.168.505.284.443.328.5.189.242-.066.433.099 1.442.089.474.267.17.047.705.54.47-1.415 1.627-.831.062-.307.422-1.144.36-1.13.598.22.803.217.418.175 1.004.33.572.096.572.043.716-.015.319-.458-.577-.512-.422-.508.257-.367.217-.591.092-.72.212-.142.303-.044-.118-.209.278-.803.695.51.16-.604.046-.408 1.15.481.308-.47.088-.415.268-.177.015-.265.242.073.283-.2.083.42.092.158.443.18.145-.04.319.189-.093.3.057.115-.15.483.103.03-.216.746-.422-.096.664 1.506.057.523.474.047.675-.285.788-.062.819.106.051.048.706.098 1.51-.024.535-.09.015 1.304.206.33.407.798.31 1.596 1.565.63-.113.184.231.271.758.36 1.18.703.74.342.356.51-.087.848-.078.463.088.497.314.22.16.3.536.14.365-.017.515-.333.572-.066.345.003.15-.09.355.184-.046.548-.062.218-.273.423-.474.962-.129.74.067.402.083 1.14-.01.218-.16.465-.644.976-1.932 3.037-.417 2.03v.244l-.18.448.237.067-.3.36-.241 1.057 1.535.799.067.015 1.597.855 1.122.582.067-.086.969.543-.021.094.829.514-.046.413.196.505-.026.791.041.118-.283.58-.036.366-.417.561-.139.372.232 1.072.365-.035.412-.158.371-.03.623.147.268-.028.34-.148.639.255.268.057.778-.125.453.404.968.68 2.761 2.02.309.18-.01.922.309.111-.175.476-.175.123-.273-.115-.062.213-.51-.06-.17.14.551.261-.33.286-.185.042-.52-.143-.242.377.597.457.196.244.366.206.468.674.613.45.139.004.052-.554 1.746.126-.18 1.89 1.56.194.006.257 1.699.097-.041.69.438.959.051.198.248.496.468.304.67.494.16.077 1.385.96.51.024.237-.514 1.138-2.221 1.618.01.02-.24.345-.043.011-.663.53-.103.319-.642.655-.021 1.086.034.145 1.248.247.844-.289 1.662-.329-.086-.155 2.005.804-.039.448.188-.046.385.113.157.185 1.578.067.44.217.027.082-.23.5-.22.154-.148-.062 1.11.042.318-.047 1.73-.036.225-.02.59 1.756-.389-.196-.935-.278-1.167 1.746-.613.433-.147.129.133-.139.19.082.606.026.477-.062.874.088.427-.15.315.335.38.474.39.201.27.376.36-.144.145.093.223-.268-.004-.325.266.072.109-.355.227-.484.056-.804-.047-.041.049-.098.744-.294-.05-.479.06-.437.225-.294-.134-.134.287.17.472-.191.43.155.176-.129.283-.304.015-.087 1.1-.057.399.072.125.531.108-.031.4.561.121-.015.222-.587-.054-.052.443-.603-.047-.072 1.105.294.02.211.217-.613 1.065-.582 1.06 3.832.979.675.16-.041.431.319.147-.144.318.361.112.334.835-.056.128.082.26-.288.333-.062.317.201.076.165.264.278.779-.304.39-.067.415.206.192-.02.522.113.145-.464.275-.103.371-.18.25-.144-.02-.052.35-1.035-.065.062-.845-.211-.184-.49-.088-.103-.177-.422-.18-.247.096-1.345 2.088-.747 1.134-.412.792-1.071-.659-.551-.408-.371-.16-.35-.227-.315-.135-.54-.097-.248-.15-.288.18-.392-.034-.108.483-.391.384-.278.099-.629-.046-.015.557.067.695.067.159.082.606.248.549.216.583.582.48.124 1.021.082 1.155.201 1.123.268.379.195.046.351.95-.289.161-.355.097-.175-.108-.201.164-.572.114.036 1.27-.803.097.144 3.486-.479-.037-.134.086-.824.084-.32-.177-.52-.17-.196.57-.113.51.031.554.036 1.645-.268-.032.011.334-1.561.44-.17.09-.33-.115-.226.035-.866.378-.17-.614-1.282-1.266-.196-.1-.268-.386-.175-.393-.031-.444-.345-.575-.113-.469-.181-.11-.195.248-.073.367-.772.866.026.207-.644.265-.731.58-.165.251-.078.377-.216.165.067.577-.088.306-.468.099-.299.3-.417.062-.371.443-.551.363-.423.086-.437-.231-.371-.02.056-.153-.407-.41-.097-.234-.196-.21.118-1.514-.103-.532-.437-.484.206-.808-.727-.93-1.293.072-.154-.128-.031-.249.134-.318-.016-.361-.916-.241h-.345" clip-rule="evenodd"/><path stroke="#000" stroke-linecap="round" stroke-linejoin="round" stroke-width=".2" d="m101.47 90.072.139.521-.185.391-.181.13-.072.465-.216.279-1.247.192-.139.311-.535.884-.073.162-.566-.184-.134-.143-.216.01-.01.824-.933.443-.36.078-.304.32-.232.072h-.53l-.392-.166v-.93l.15-.23-.3-.28-.391.2-.227.367-1.097-.36-.726-.176-.072-.068-.407-.014-.325-.098-.484-.323-.623-.172-.2-.177-.413-.838.026-.206.216-.15.083-.4.757-.262.37-.448.063-.148-.052-.331-.2-.244.056-.36-.052-.143.18-.241.165.017.356-.131-.144-.34-.763-.121-2.127-.404-.041.243-2.066-.481-.046.155-.02.691-.083.483.041.147-.154.414 1.056.042.036.102-.294.322-.237-.06-.927.269-.252-.272-.634.514-.273-.004-1.535-.193-.623-.05.726-.753.629-.61.247-.2-.144-.62-.15-.34.005-.275.418-.12.118.32.52-.169-.118-.37.098-.42-.263.13-.613.02-.33-.163-.237.288-.623-.392-.062.744-.324-.115-.314-.196-.16-.246-.082-.354-.268-.093.03.398-.236.221.041.192-.582.273-.304-.003-.304.078-.422-.148-.402-.063-.283-.157v.305l.118.384-.88.275-.516.792-.427.224-.469.071.093.408-.402.056-.737-.264-.643-.723-.515.442-.016.334-2.704-.146-.2-.143-.423.172-.072.14-.505.322.221.128-.247.618.675.256.572.874-1.458.309-1.38.355-.3.213-.9-.45-.078.189-.242.14-.046.196.077.296-.222.739-.391.273-.35-.069-.386.14-.13 2.66-.51-.505-.494-.383-.38-.066-.346-.192.026-.485-1.72-.011-.686-.03-.983-.724-.459.194.103-.505-.03-.163.154-.46-.32-.05-1.226-.288-2.683-.883-.484-.2.71-.914.15-.342-1.092.38-.252.117-.433-.024-.33-.333-.18-.018-.252-.167-.48-.11-.458.433-.767.793-.536.854-.16-.136-.716.209-.412.009-.005-.594.088-.348-.31-.045-1.7-.04-.035.962.02.184-.973.378-.19-.196-.485.452-.02.215-1.948.12-1.622.085-1.082.037.495-1.183 1.473-3.468-.057-.145-.561.103-.376-.004-.206-.417 1.617-.811-.443-.989-1.777-.665-2.106-.862-.974 2.302-.046.049-2.241-.333-2.946-.459-.186.748-.412-.044-.52-.614-2.256.631-.33.806.134.097-1.071 2.193-.057.147.459.042.468.117.495.037.886.124-.016.324.52.485.258.306-.118.38-.294-.193-.077.255-.443 2.007-.536-.35-.572-.316-.685-.258-.401-.088-1.654.088-.226-.726-.701.215-.551 1.47-.65-.17-.91-.491-.191-.154-.093-.56-.16-.361.129-.49-.216-.46-.536-.213-.144-.118-.335-.019-.14-.133-.514-.142-.253-.153-.046-.16-.386-.121-.098-.095-.422-.135-.103-.268.108-.149-.078-.189-.252-.226-.098-.492.273-.347-.463-.24-.16.16-.603-.16-1.36-.09-.303 1.939-1.304-.62-.092.254-.392-.107-.51 2.04-.103.19-.85-.04-.046.14-.247.131.314.499.17.639-.072.226.257.962-.51-.056-.479.052-.386.097-.84.009-.236.173-.742-.076-.314.163-.603.433-.448.122-.945-.007-1.96-.199.03.543-1.547.186.06.79-1.05-.114-.205-.128-.274-.416-.198-.174-.524-.31-.961-.187-.711-.493-.362-.315-.042-.308.057-.214-.072-.374-.342-.32-.294-.048-.382-.311-.496-.25-.49.047-.479-.421.079-1.035.252-.376.21-.462.203-.167.551-.304.17-.048.277-.27.432-.139.37-.324.275-.008-.2-.333-.496-.988-.422-1.532-.195-.564-.488-1.667.274-.404v-.588l-.483-.285-.034-.195.295-.644.212-.013.342.149.193-.274.137-.574.324-.244.613-.174.217-.216-.177-.306.434-.575.827.212.748.07.959-.046-.03-.053.107-.676.165-1.033.455-1.366-.52-.082.038-.216-.592-.274-.673-.034-.3-.211-.576-.184-.209.014-.106-.232.276-.275.266-.092.565-.368.207-.09.371-.395.528-.255.425-.098.795.11.089-1.313.707.054.066-.364-.176-.305.003-.475-.266-.064.016-.641-.158-.075-.707-.608-.487.013-.407-.313.141-.366.373-.728-.549-.47.079-.445.281-.977-.245-.726-.264-.304.189-.097.968-.059 3.522-.375 1.66-.147.052-.539-.041-.86-.732-.417-.795-.688-.794-.656-.966-.57.716-1.625-.477-.175-.24-.007-.044.174-.614.123-.353-.023.043-.416-.38-.262-.64-.536-.245-.343.122-.428.194-.043.417.077-.102-.723.407-.24-.768-1.223.032-.206.658-.4.055-.136.351.377.375.619.175-.12.255.09.266-.028.509-.19.224-.033.038-.302.153.058.281-.344.72-.207.172.163.291.116.665-.058.046-.22.562-.38.365-.065.227-.108.263-.376.293-.088.057-.363.216-.303.304-.128.103-.327.206-.173.093-.196-.041-.402-.278-.35.061-.114.057-.246.154-.119-.04-.175.164-.388.216-.284.248.017.273-.2-.006-.207.3-.34.205-.158.062-.314.17-.245.026-.25-.072-.268.304-.18.18-.006.32-.446.36-.019.185-.141.17.01.026-.251.335-.159.304.06.19-.25.104-.438.226-.271.48-.272-.094-.25.176-.262.335-.13.376.025.216.088.479-.15.252-.018.15-.295-.031-.718.53-.092.052-.203.36-.046.083-.123.489.018.123-.054.346.254.231-.065.34.158.212-.116.097.218.196.034.31-.102.097.102.211-.257.134.04.175.287.289-.091.458.085.371-.356.345-.16.124.092.35-.147.443-.087-.108-.134.051-.292.124-.058.283.585-.21-.01-.531.321-.098.297.51-.164.092.392.799.032-.052-.19.495-.315.15-.302.35-.175.772-.04.412.353.551.003.17.071.15-.289-.371-.042-.062-.167-.299-.134.34-.754-.196-.099-.103-.274.212-.513.252-.225.113-.516.299.016.598.462.087-.334-.664-.344.056-.111.577-.361.124-.26-.144-.237.102-.321.825.114.283-.57-.428-.21.103-.108-.324-.31.18-.298.253-.267.123-.284.464.616.535-.267.134-.057.52-.044.027-.148-.31-1.07.361.143 1.113.038.221-.566-.33-.333-.561-.857.453-.149 1.149-.434.397-.214.7-.57.175.126.108-.442-.005-.37.495-1.174.68-1.803 1.643-.384 2.282.833.252-.91.561-2.122.134-.596.747.183.587.016.624.2.582-2.912.231-1.201 1.742.418.236-1.31-.01-1.572.031-.295.144-.644.505.19.51-.009.072-.078.423.016.133.005.047-.617.118-.379-.242-.245-.633-.42.206-.261v-.205l.345-.085-.072-.317.051-.563.134-.48-.077-.555-.077-.19.468-.073-.015-.156.458-.08.15.955-.067.348-.253.72-.036.38.881-.182.433-.044.108.102.556.152v-.445l.057-.335.247-.045.067.435.211.009.134-.416.438.093.582-.147.02-.611.243-.078-.041-.313-1.283.204.036.27-1.092.163-.129-.83.721-.104-.139-.945.103-.176v-.256l-.262-.165.226-.313h.242l.438.194.258-.467.231-.275-.005-.31-.33-.208.068-.357.443.083.38-.24.176-.014 1.066.186.572-.074.664.006.186-.803-.031-.742.304-.654.268-.167.113-.367.633.054.33.888 1.282.828.232.064.314-.794.928-.814.092.036.572-1.407.01-.316.928-.835.808-.804.551.432.212.299.664.467.7.168.505.284.443.328.5.189.242-.066.433.099 1.442.089.474.267.17.047.705.54.47-1.415 1.627-.831.062-.307.422-1.144.36-1.13.598.22.803.217.418.175 1.004.33.572.096.572.043.716-.015.319-.458-.577-.512-.422-.508.257-.367.217-.591.092-.72.212-.142.303-.044-.118-.209.278-.803.695.51.16-.604.046-.408 1.15.481.308-.47.088-.415.268-.177.015-.265.242.073.283-.2.083.42.092.158.443.18.145-.04.319.189-.093.3.057.115-.15.483.103.03-.216.746-.422-.096.664 1.506.057.523.474.047.675-.285.788-.062.819.106.051.048.706.098 1.51-.024.535-.09.015 1.304.206.33.407.798.31 1.596 1.565.63-.113.184.231.271.758.36 1.18.703.74.342.356.51-.087.848-.078.463.088.497.314.22.16.3.536.14.365-.017.515-.333.572-.066.345.003.15-.09.355.184-.046.548-.062.218-.273.423-.474.962-.129.74.067.402.083 1.14-.01.218-.16.465-.644.976-1.932 3.037-.417 2.03v.244l-.18.448.237.067-.3.36-.241 1.057 1.535.799.067.015 1.597.855 1.122.582.067-.086.969.543-.021.094.829.514-.046.413.196.505-.026.791.041.118-.283.58-.036.366-.417.561-.139.372.232 1.072.365-.035.412-.158.371-.03.623.147.268-.028.34-.148.639.255.268.057.778-.125.453.404.968.68 2.761 2.02.309.18-.01.922.309.111-.175.476-.175.123-.273-.115-.062.213-.51-.06-.17.14.551.261-.33.286-.185.042-.52-.143-.242.377.597.457.196.244.366.206.468.674.613.45.139.004.052-.554 1.746.126-.18 1.89 1.56.194.006.257 1.699.097-.041.69.438.959.051.198.248.496.468.304.67.494.16.077 1.385.96.51.024.237-.514 1.138-2.221 1.618.01.02-.24.345-.043.011-.663.53-.103.319-.642.655-.021 1.086.034.145 1.248.247.844-.289 1.662-.329-.086-.155 2.005.804-.039.448.188-.046.385.113.157.185 1.578.067.44.217.027.082-.23.5-.22.154-.148-.062 1.11.042.318-.047 1.73-.036.225-.02.59 1.756-.389-.196-.935-.278-1.167 1.746-.613.433-.147.129.133-.139.19.082.606.026.477-.062.874.088.427-.15.315.335.38.474.39.201.27.376.36-.144.145.093.223-.268-.004-.325.266.072.109-.355.227-.484.056-.804-.047-.041.049-.098.744-.294-.05-.479.06-.437.225-.294-.134-.134.287.17.472-.191.43.155.176-.129.283-.304.015-.087 1.1-.057.399.072.125.531.108-.031.4.561.121-.015.222-.587-.054-.052.443-.603-.047-.072 1.105.294.02.211.217-.613 1.065-.582 1.06 3.832.979.675.16-.041.431.319.147-.144.318.361.112.334.835-.056.128.082.26-.288.333-.062.317.201.076.165.264.278.779-.304.39-.067.415.206.192-.02.522.113.145-.464.275-.103.371-.18.25-.144-.02-.052.35-1.035-.065.062-.845-.211-.184-.49-.088-.103-.177-.422-.18-.247.096-1.345 2.088-.747 1.134-.412.792-1.071-.659-.551-.408-.371-.16-.35-.227-.315-.135-.54-.097-.248-.15-.288.18-.392-.034-.108.483-.391.384-.278.099-.629-.046-.015.557.067.695.067.159.082.606.248.549.216.583.582.48.124 1.021.082 1.155.201 1.123.268.379.195.046.351.95-.289.161-.355.097-.175-.108-.201.164-.572.114.036 1.27-.803.097.144 3.486-.479-.037-.134.086-.824.084-.32-.177-.52-.17-.196.57-.113.51.031.554.036 1.645-.268-.032.011.334-1.561.44-.17.09-.33-.115-.226.035-.866.378-.17-.614-1.282-1.266-.196-.1-.268-.386-.175-.393-.031-.444-.345-.575-.113-.469-.181-.11-.195.248-.073.367-.772.866.026.207-.644.265-.731.58-.165.251-.078.377-.216.165.067.577-.088.306-.468.099-.299.3-.417.062-.371.443-.551.363-.423.086-.437-.231-.371-.02.056-.153-.407-.41-.097-.234-.196-.21.118-1.514-.103-.532-.437-.484.206-.808-.727-.93-1.293.072-.154-.128-.031-.249.134-.318-.016-.361-.916-.241h-.345"/><path id="Кам'янець-Подільський" fill="#C8C6C6" fill-rule="evenodd" d="m41.663 279.511-.422.258-.299.108-.613.139-.402.042-.571-.042-1.17-.144-.808-.176-.392-.232-.432-.449-.753-1.156-.494-.95-.304-.722-.412-.842-.314-.552-1.556-2.364-.716-1.316-.154-.351-.19-.851-.367-.903-.247-.501-.37-.403-.474-.237-.552-.036-.504.108-1.947.805-.289.124-.175-.733-.237-.196-.51-.211-.407.092-.453.558-.222.144-.535.067-.422-.18-.315-.336-.391-.686-.19-.207-.016-.247-.18-.331-.212-.185-.438-.558-.427-.284-.35-.02-.253.19-.04.29.236.304.083.274v.438l-.062.413-.217.49-.283.315-.453.207-.18-.042-.31.068-.236-.228.046-.381.335-.289.304-.331.026-.392-.093-.33-.165-.346-.18-.196-.758.088-.73-.284-.269-.176-.232-.273-.144-.444.119-.325.268-.289.376-.202.819-.299.103-.155.267-.201.13-.294-.006-.403-.227-.31-.36.16-.124-.103-.134.274-.257.16-.253-.005-.33-.222.207-.542.041-.31-.258-.537-.262.202-.428-.062-.396-.269-.273-.082-.052-.32.155-.238-.031-.16.108-.366.005-.341-.35-.196-.263-.33-.335-.145-.262.021-.52-.093-.027-.114-.283-.273-.196-.109-.252-.005-.397-.34v-.439l.397-.248.603.361.772.135.376-.067.34-.315.134-.491-.299-.686-.35-.17-.84.283-.484.052-.546-.046-.134-.227-.401-.357.04-.123.32-.238.242.031.381-.237.495-.372.314-.309.062-.475-.19-.511-.346-.088-.232.021-.154.273-.155.005-.077.346-.32.356-.535.248-.175-.098-.17.268-.165.031-.082-.222-.464.212-.283-.263-.273-.155.067-.155.32-.186.293-.505.077-.274.134-.072-.01-.341.082-.49.15-.052.046-.418-.222-.186-.082-.289-.505-.149-.036.284-.407.201-.591.392-.492-.046-.067.077-.283-.083-.232-.103-.09-.222-.177-.098-.004-.32-.085-.165-.012-.562.335-.264-.035-.273-.634.248-.296.056-.167-.082-.475-.057-.224-.114-.219-.258-.156-.351-.029-.222.086-.211.221-.191.95.072.14-.155.166-.511-.052-.32-.183-.087-.164.113-.164-.325.14-.237-.163-.114-.073-.289-.101-.067.06-.31.202-.139.003-.258.518-.506.134-.237-.06-.372-.261-.454-.027-.49.182-.279.198-.041.213-.295.084-.278-.055-.331-.177-.201-.63-.279-.013-.149-.204-.217-.332-.15-.218-.217-.101-.351.118-.361.157-.124.216.109.225.402.385.227.32.016.223-.098.275-.609-.016-.171-.993-.392-.334-.335-.012-.253.441-.434.13-.222.15-.02.003-.671-.06-.212-.335-.444-.258-.072-.563.005-.25.103-.548-.154-.266-.357-.04-.701-.145-.186-.018-.238-.152-.691.215-.181.096-.32.26-.108.236.051.135.233-.102.438.092.398.551.144.128.098.557.186.18-.134.105-.506-.242-.335-.122-.367-.353-.392.12-.253-.184-.258-.202-.114-.01-.428.085-.206.209-.16.347.108.25-.093.374.258.023.305.196.082.618.14.296-.031.25-.341.202-.63-.12-.108.029-.361-.107-.166-.268-.165-.3-.051-.382.258-.315.299-.304.093-.285-.139-.101-.176.003-.877-.312-.356-.437-.176-.299-.212-.161-.464.087-.32.172-.341.064-.309-.042-.46-.461-.619-.52-.01-.362-.165-.256-.196-.108-.367-.157-.134.04-.325.269-.16.51-.067.19-.212.063-.268-.07-.295-.194-.16-.195-.299-.094-.32.178-.134.16-.299.283-.212.064-.217-.257-.201-.025-.232-.503-.754-.072-.547.133-.356.117-.108.871-.197.321-.32.234.021.095-.175v-.418l-.085-.331-.206-.253-.414-.17-.3-.02-.27.155-.334.645-.394.387-.224.108-.268-.02-.461-.506-.369-.361-.091-.527-.055-.222.088-.206.344-.01.454.082.305-.062.123-.377-.417-.655-.06-.196.094-.165-.069-.32.012-.372.203-.175.02-.217.39-.444.115-.351.302-.496-.065-.19.136-.186.078-.707-.093-.269-.206-.196-.462-.253-.464-.098-.497-.165-.566-.325-.326-.49.013-.553.187-.351.182-.216.235-.093.242.165.362.129.462.299.21-.031.403-.217.25-.222.089-.283.172-.093.13-.248-.046-.305-.22-.335-.386-.108-.71.082-.65-.015-.27-.067-.206-.14-.416-.5-.127-.248.256-.47.393-.34.197-.088.26.026.115-.124.357-.088-.036.305.238.118.57.057.202-.041.387.083.365-.434.041-.232-.009-.723-.061-.227-.206-.191-.354-.15-.221-.18-.57-.8-.087-.279.046-.227.138-.098-.025-.284.591-.082.168-.145-.06-.599-1.008-1.006-.208-.124-.217.015-.206-.258-.39-.774-.038-.635.24-.242.28-.398.697-.407.502-.062.903-.62.088-.165-.069-.217-.218-.067-.378.042-.586.139-.481-.077-.16-.186-.102-.341.248-.237-.043-.16.198-.078.11-.387-.044-.304-.1-.145.044-.242.236-.222-.073-.191.185-.346.241-.222.073-.511-.077-.335.041-.217-.078-1.074-.241-.108-.025-.511-.103-.661-.259-.485-.036-.258.24.052.05-.202.377-.118.1-.155-.054-.32-.436-.057-.346-.139.118-.506.157-.361.052-.336-.31-.562-.274-.274.047-.139-.14-.341-.05-.31.214-.433.265-.129.557.604.187-.134.475-.191.087-.181-.214-.361.059-.315.086-.532.24-.165.344-.067.318.464-.224.243-.215.351.449-.005-.058-.325.366-.057.096.273.044.418.18.042.01.175.17.398.308.124.268.258.1.356.158.196.075.299.187.145.794.893.185.521.03.335-.257.878.107.377.18.273.33.32-.01.506.155-.015.37.103.427-.609-.18-.346-.417-.336.165-.423-.503-.232.02-.098.426-.934.592.144.16-.309h-.5l-.077-.078-.015-.599-.16-.123.046-.258-.46-.181.143-.325.26-.372 1.093.903.139.186.391.248.253-.072.113-.486-.603-.345.902-2.111.458-1.048.232.201.113.222.34.269.438.067.283.16.397.309.206-.65.443-.671.129.088 2.024 2.044-.288.475.278.211.916.47 1.113.712.283.361.407-.175.397.057.422-.135.273.011.453-.062.933-.573.958.671.778.511.84.717-.155.852.103.072-.443.717-.546.558-.912.774.386 1.074-.072.216.093.207.376.289.154.273.047.362-.041.216.262.666.582.867.16 1.492 1.22.66 2.288 1.286 1.684.753.5.32.51.057 1.06-.067.413-.083.036.284.139.124.582-.15.288.532.124.31.397.144.334.274-.18.185.005.388-.072.552.629.046-.145.346-.273 1.27-.736-.104.056.119-.149.289-.077.408.082.346-.216.191-.093.294.17.098-.036.206-.005.104.958.015.582-.083.247-.098.201.114-.051.232.139.186.556.155.721.289.057.201 1.57.656 1.376.588.34-.346.639-.294-.464-.181-.154-.418-.258-.113-.144-.475-.278-.14-.19-.196-.377-.149-.113-.16-.36-.196-.032-.109-.865-.284-.283.021-.34-.165.02-.083.515-.057-.01-.165-.16-.129-.139-.402.015-.135.3-.278.216-.031.185.211.232-.32.273.016.103-.114.335.067.108.196-.098.264.5.139.139.15-.052.211.16.299.15.026.653.584.34.727.242.15.64-.733.612-.743 1.86-2.178.73-.862-1.544-1.941.242-.17-.65-.562 1.067-.914 1.102-.986-.401-.273-.134-.181-.32-.067-.144-.232.268-.176.309.109.211-.3.036-.315.32.083.231-.139.587.283.49.16.34-.077.345.01.391-.139.062-.083.428-.036.633.14.222.18.71.398.237-.32.02-.651 1.644.098.855.424.247.165 1.036-.016.144.646.15.082.396-.021.335.233.319.361.37.165.135-.547.206-.031.505.402.427-.541.057-.449.293-.398.047-.206.18-.274h.221l1.02.201.454-.129.267-.041.242.428.135.48.02.444 1.51 1.033 1.261.763 1.334.522-.376 1.213.129.051-.464.924 1.844 1.141.65.32.793.087.087-.825.114-1.544.309.062.128.129.232-.082.083.227.231.072.052.212.293.072.083.516.252-.077.119.325.587.351.165.263.324.145.407.319.644.321.402.33.438.237.478.073.114-.687.572-.217.303.568.433.134.052.248-.067.31.278.082.129.134-.114.563.026.232.16.041.067.212-.016.31.99-.057.463.041.386-.036-.257 1.053.37.119.18.155.176-.006.927-.867 1.437.367.536-.119.695-.077.69-.016.191-.118-.026.258.242.475.356.387.175.123-.01.176.154.232-.057.63.042.191.288.511-.221.557-.103.062-.284.588.273.46-.005.108.289.103.231.419.716.242.279.413.149-.206-.376-.248-.433-.382.273-.057.433-.268.2.108.047.232.381.429.588-.377-.093-.243 1.355.155 2.25.289.227.212-.165.196.412 1.342-.072.619.046.078 1.335 1.109.71.248h.093l1.04-.335.464-.351.047-.15 1.035.341.093.108.484.268.659-.031.273.16.211.212.814.65.948.253.52.299.088-.154-.47-1.296.166-.273.303.149.444-.48.226-.356.206-.149.593.227.288.02.057-.181.216-.206.278-.088-.026-.645.67-.015.206-.171.474.016.304.103.767.526.289-.113.262.248.402-.036.077.381.175.14.109.211.525-.031.273.037.175-.279.206.093.227.211.185-.278.381-.135.32.155.283-.026.098-.185-.01.304.231.124-.278 3.21.639 1.13.355.388.309.294.521.598-.016.083.098 2.637.005.594-.072.671-.206.165.062.315.175.026-.026.34.155.171-.036.268.067.418-.381.155.371 1.43.01.433.056.289-.175.465-.159-.088-.222.041-.067.594.052.217.407.402.252.65.021.264.37.258.299.062-.031.382-.227.216-.216.042-.129.289-.324.072.196.33-.51 1.203-.443.346-.33.16.16.222.345.304-.016.15-.211.268-.499-.103-.469.021-.309.093-.186.149.129.449.031.475-.093.155.34.408.284-.088.293.377.351.531.092-.031.459.423.283.692-.52.196-.093.227-.675.687-.005.397.309 1.11.737 1.811.154.171-.036.516-.159.495-.33-.103-.283.155.283.733-.015.268-.309-.067-.469-.201-.356.335-.17.485-.216.176-.062.284.057.428-.129.289-.062.516.103.15-.067.33.062.294-.113.377-.129.16-.067.444-.433.325-.149.377-.108.676-.046.661-.181.108-.118 1.079-.505-.093-.479.046-.664.227-.325.377-.592 1.409-.129.47-.134.325-.443.578-.237.119-.716.253-.494-.016-.582-.134-.284-.206-.314-.114-.407-.433-.278-.615-.608-.769-.396-.356-.212-.129-1.055-.16-.665.036-.257.191-.928.965-.185.367-.015.532.061.474.665 1.033.505 1.13.113.547-.026.351-.211.96-.247.351-.248.16-.52.113-.66.031-.488.078-.495-.119-1.35-.568-.602-.314-1.35-.79-.643-.248-.402-.067-.345.026-.927.207-1.01.371-.54.268-.377.351-.227.449-.309.413-.731.516-.221.202-.33.191-.654.278-.371.078-1.21-.026-1-.217-.803-.134-.804-.325-.819-.248-.525-.093-.891-.196-.938-.253-.942-.232-1.051-.351-.31-.268-.174-.238-.18-.697.015-.614-.237-.402-.459-.047-.345.041-.16.351-.149.651-.196.449-.375.361-.335.108-.943.062-.567-.036-1.225-.32-.454.129-.309.289-.376.501-.572 1.352-.273.718-.345.583-.633.49-.67.367-.7.118-.278-.031-.845-.263-.474-.268-.66-.424-.617-.572-.371-.413-.407-.62-1.314-2.307-.087-.629.067-.496.098-.341.298-.779.042-.351-.15-.609-.309-.371-.381-.171-.54-.046-.732.16-.644.351-.824.8-.278.392-.14.568.021.351.2.598.284.553.541.758.273.573.046.728-.061.444-.15.351-.396.8-.217.351-.417.232-.726.139-.459-.072-.355-.243-.443-.753-.18-.568-.016-.392-.118-.625-.34-1.445-.098-.206-.32-.325-.68-.418-.39-.114-.48-.036-.33.129-.128.253-.052.284.072.438.119.346.325.382.808.496.232.294.242.49.196.733-.02.594-.155 1.383-.072.222-.505.526-.33.238-.762.345-.227.042-.494-.135-.459-.18-.412-.217-.675-.532-.762-.671-.865-1.068-.737-.619-.427-.279-1.195-.253-.66.052-.473.139-.253.145-.535.407-.17.166-.289.474-.123.64.036.429.226.428.222.248.427.144.675.016.783-.305.463-.227.721-.124.433-.031.582.145.294.242.232.609.077.749.185.542.454.536 1.04.806.536.485.36.495.212.429.144.624-.067.465-.19.351-.526.402-.593.238-.473.036-1.535.031-.36-.031-.63-.186-.726-.496-.752-.867-.613-.774-.417-.382-.335-.17-.33-.093h-.252l-.432.108-.5.295-.216.221-.078.228.057.686.252.676.428.831.263.609.232.681.273.64.108.429-.02.387-.135.361-.293.454-.263.238" clip-rule="evenodd"/><path stroke="#000" stroke-linecap="round" stroke-linejoin="round" stroke-width=".2" d="m41.663 279.511-.422.258-.299.108-.613.139-.402.042-.571-.042-1.17-.144-.808-.176-.392-.232-.432-.449-.753-1.156-.494-.95-.304-.722-.412-.842-.314-.552-1.556-2.364-.716-1.316-.154-.351-.19-.851-.367-.903-.247-.501-.37-.403-.474-.237-.552-.036-.504.108-1.947.805-.289.124-.175-.733-.237-.196-.51-.211-.407.092-.453.558-.222.144-.535.067-.422-.18-.315-.336-.391-.686-.19-.207-.016-.247-.18-.331-.212-.185-.438-.558-.427-.284-.35-.02-.253.19-.04.29.236.304.083.274v.438l-.062.413-.217.49-.283.315-.453.207-.18-.042-.31.068-.236-.228.046-.381.335-.289.304-.331.026-.392-.093-.33-.165-.346-.18-.196-.758.088-.73-.284-.269-.176-.232-.273-.144-.444.119-.325.268-.289.376-.202.819-.299.103-.155.267-.201.13-.294-.006-.403-.227-.31-.36.16-.124-.103-.134.274-.257.16-.253-.005-.33-.222.207-.542.041-.31-.258-.537-.262.202-.428-.062-.396-.269-.273-.082-.052-.32.155-.238-.031-.16.108-.366.005-.341-.35-.196-.263-.33-.335-.145-.262.021-.52-.093-.027-.114-.283-.273-.196-.109-.252-.005-.397-.34v-.439l.397-.248.603.361.772.135.376-.067.34-.315.134-.491-.299-.686-.35-.17-.84.283-.484.052-.546-.046-.134-.227-.401-.357.04-.123.32-.238.242.031.381-.237.495-.372.314-.309.062-.475-.19-.511-.346-.088-.232.021-.154.273-.155.005-.077.346-.32.356-.535.248-.175-.098-.17.268-.165.031-.082-.222-.464.212-.283-.263-.273-.155.067-.155.32-.186.293-.505.077-.274.134-.072-.01-.341.082-.49.15-.052.046-.418-.222-.186-.082-.289-.505-.149-.036.284-.407.201-.591.392-.492-.046-.067.077-.283-.083-.232-.103-.09-.222-.177-.098-.004-.32-.085-.165-.012-.562.335-.264-.035-.273-.634.248-.296.056-.167-.082-.475-.057-.224-.114-.219-.258-.156-.351-.029-.222.086-.211.221-.191.95.072.14-.155.166-.511-.052-.32-.183-.087-.164.113-.164-.325.14-.237-.163-.114-.073-.289-.101-.067.06-.31.202-.139.003-.258.518-.506.134-.237-.06-.372-.261-.454-.027-.49.182-.279.198-.041.213-.295.084-.278-.055-.331-.177-.201-.63-.279-.013-.149-.204-.217-.332-.15-.218-.217-.101-.351.118-.361.157-.124.216.109.225.402.385.227.32.016.223-.098.275-.609-.016-.171-.993-.392-.334-.335-.012-.253.441-.434.13-.222.15-.02.003-.671-.06-.212-.335-.444-.258-.072-.563.005-.25.103-.548-.154-.266-.357-.04-.701-.145-.186-.018-.238-.152-.691.215-.181.096-.32.26-.108.236.051.135.233-.102.438.092.398.551.144.128.098.557.186.18-.134.105-.506-.242-.335-.122-.367-.353-.392.12-.253-.184-.258-.202-.114-.01-.428.085-.206.209-.16.347.108.25-.093.374.258.023.305.196.082.618.14.296-.031.25-.341.202-.63-.12-.108.029-.361-.107-.166-.268-.165-.3-.051-.382.258-.315.299-.304.093-.285-.139-.101-.176.003-.877-.312-.356-.437-.176-.299-.212-.161-.464.087-.32.172-.341.064-.309-.042-.46-.461-.619-.52-.01-.362-.165-.256-.196-.108-.367-.157-.134.04-.325.269-.16.51-.067.19-.212.063-.268-.07-.295-.194-.16-.195-.299-.094-.32.178-.134.16-.299.283-.212.064-.217-.257-.201-.025-.232-.503-.754-.072-.547.133-.356.117-.108.871-.197.321-.32.234.021.095-.175v-.418l-.085-.331-.206-.253-.414-.17-.3-.02-.27.155-.334.645-.394.387-.224.108-.268-.02-.461-.506-.369-.361-.091-.527-.055-.222.088-.206.344-.01.454.082.305-.062.123-.377-.417-.655-.06-.196.094-.165-.069-.32.012-.372.203-.175.02-.217.39-.444.115-.351.302-.496-.065-.19.136-.186.078-.707-.093-.269-.206-.196-.462-.253-.464-.098-.497-.165-.566-.325-.326-.49.013-.553.187-.351.182-.216.235-.093.242.165.362.129.462.299.21-.031.403-.217.25-.222.089-.283.172-.093.13-.248-.046-.305-.22-.335-.386-.108-.71.082-.65-.015-.27-.067-.206-.14-.416-.5-.127-.248.256-.47.393-.34.197-.088.26.026.115-.124.357-.088-.036.305.238.118.57.057.202-.041.387.083.365-.434.041-.232-.009-.723-.061-.227-.206-.191-.354-.15-.221-.18-.57-.8-.087-.279.046-.227.138-.098-.025-.284.591-.082.168-.145-.06-.599-1.008-1.006-.208-.124-.217.015-.206-.258-.39-.774-.038-.635.24-.242.28-.398.697-.407.502-.062.903-.62.088-.165-.069-.217-.218-.067-.378.042-.586.139-.481-.077-.16-.186-.102-.341.248-.237-.043-.16.198-.078.11-.387-.044-.304-.1-.145.044-.242.236-.222-.073-.191.185-.346.241-.222.073-.511-.077-.335.041-.217-.078-1.074-.241-.108-.025-.511-.103-.661-.259-.485-.036-.258.24.052.05-.202.377-.118.1-.155-.054-.32-.436-.057-.346-.139.118-.506.157-.361.052-.336-.31-.562-.274-.274.047-.139-.14-.341-.05-.31.214-.433.265-.129.557.604.187-.134.475-.191.087-.181-.214-.361.059-.315.086-.532.24-.165.344-.067.318.464-.224.243-.215.351.449-.005-.058-.325.366-.057.096.273.044.418.18.042.01.175.17.398.308.124.268.258.1.356.158.196.075.299.187.145.794.893.185.521.03.335-.257.878.107.377.18.273.33.32-.01.506.155-.015.37.103.427-.609-.18-.346-.417-.336.165-.423-.503-.232.02-.098.426-.934.592.144.16-.309h-.5l-.077-.078-.015-.599-.16-.123.046-.258-.46-.181.143-.325.26-.372 1.093.903.139.186.391.248.253-.072.113-.486-.603-.345.902-2.111.458-1.048.232.201.113.222.34.269.438.067.283.16.397.309.206-.65.443-.671.129.088 2.024 2.044-.288.475.278.211.916.47 1.113.712.283.361.407-.175.397.057.422-.135.273.011.453-.062.933-.573.958.671.778.511.84.717-.155.852.103.072-.443.717-.546.558-.912.774.386 1.074-.072.216.093.207.376.289.154.273.047.362-.041.216.262.666.582.867.16 1.492 1.22.66 2.288 1.286 1.684.753.5.32.51.057 1.06-.067.413-.083.036.284.139.124.582-.15.288.532.124.31.397.144.334.274-.18.185.005.388-.072.552.629.046-.145.346-.273 1.27-.736-.104.056.119-.149.289-.077.408.082.346-.216.191-.093.294.17.098-.036.206-.005.104.958.015.582-.083.247-.098.201.114-.051.232.139.186.556.155.721.289.057.201 1.57.656 1.376.588.34-.346.639-.294-.464-.181-.154-.418-.258-.113-.144-.475-.278-.14-.19-.196-.377-.149-.113-.16-.36-.196-.032-.109-.865-.284-.283.021-.34-.165.02-.083.515-.057-.01-.165-.16-.129-.139-.402.015-.135.3-.278.216-.031.185.211.232-.32.273.016.103-.114.335.067.108.196-.098.264.5.139.139.15-.052.211.16.299.15.026.653.584.34.727.242.15.64-.733.612-.743 1.86-2.178.73-.862-1.544-1.941.242-.17-.65-.562 1.067-.914 1.102-.986-.401-.273-.134-.181-.32-.067-.144-.232.268-.176.309.109.211-.3.036-.315.32.083.231-.139.587.283.49.16.34-.077.345.01.391-.139.062-.083.428-.036.633.14.222.18.71.398.237-.32.02-.651 1.644.098.855.424.247.165 1.036-.016.144.646.15.082.396-.021.335.233.319.361.37.165.135-.547.206-.031.505.402.427-.541.057-.449.293-.398.047-.206.18-.274h.221l1.02.201.454-.129.267-.041.242.428.135.48.02.444 1.51 1.033 1.261.763 1.334.522-.376 1.213.129.051-.464.924 1.844 1.141.65.32.793.087.087-.825.114-1.544.309.062.128.129.232-.082.083.227.231.072.052.212.293.072.083.516.252-.077.119.325.587.351.165.263.324.145.407.319.644.321.402.33.438.237.478.073.114-.687.572-.217.303.568.433.134.052.248-.067.31.278.082.129.134-.114.563.026.232.16.041.067.212-.016.31.99-.057.463.041.386-.036-.257 1.053.37.119.18.155.176-.006.927-.867 1.437.367.536-.119.695-.077.69-.016.191-.118-.026.258.242.475.356.387.175.123-.01.176.154.232-.057.63.042.191.288.511-.221.557-.103.062-.284.588.273.46-.005.108.289.103.231.419.716.242.279.413.149-.206-.376-.248-.433-.382.273-.057.433-.268.2.108.047.232.381.429.588-.377-.093-.243 1.355.155 2.25.289.227.212-.165.196.412 1.342-.072.619.046.078 1.335 1.109.71.248h.093l1.04-.335.464-.351.047-.15 1.035.341.093.108.484.268.659-.031.273.16.211.212.814.65.948.253.52.299.088-.154-.47-1.296.166-.273.303.149.444-.48.226-.356.206-.149.593.227.288.02.057-.181.216-.206.278-.088-.026-.645.67-.015.206-.171.474.016.304.103.767.526.289-.113.262.248.402-.036.077.381.175.14.109.211.525-.031.273.037.175-.279.206.093.227.211.185-.278.381-.135.32.155.283-.026.098-.185-.01.304.231.124-.278 3.21.639 1.13.355.388.309.294.521.598-.016.083.098 2.637.005.594-.072.671-.206.165.062.315.175.026-.026.34.155.171-.036.268.067.418-.381.155.371 1.43.01.433.056.289-.175.465-.159-.088-.222.041-.067.594.052.217.407.402.252.65.021.264.37.258.299.062-.031.382-.227.216-.216.042-.129.289-.324.072.196.33-.51 1.203-.443.346-.33.16.16.222.345.304-.016.15-.211.268-.499-.103-.469.021-.309.093-.186.149.129.449.031.475-.093.155.34.408.284-.088.293.377.351.531.092-.031.459.423.283.692-.52.196-.093.227-.675.687-.005.397.309 1.11.737 1.811.154.171-.036.516-.159.495-.33-.103-.283.155.283.733-.015.268-.309-.067-.469-.201-.356.335-.17.485-.216.176-.062.284.057.428-.129.289-.062.516.103.15-.067.33.062.294-.113.377-.129.16-.067.444-.433.325-.149.377-.108.676-.046.661-.181.108-.118 1.079-.505-.093-.479.046-.664.227-.325.377-.592 1.409-.129.47-.134.325-.443.578-.237.119-.716.253-.494-.016-.582-.134-.284-.206-.314-.114-.407-.433-.278-.615-.608-.769-.396-.356-.212-.129-1.055-.16-.665.036-.257.191-.928.965-.185.367-.015.532.061.474.665 1.033.505 1.13.113.547-.026.351-.211.96-.247.351-.248.16-.52.113-.66.031-.488.078-.495-.119-1.35-.568-.602-.314-1.35-.79-.643-.248-.402-.067-.345.026-.927.207-1.01.371-.54.268-.377.351-.227.449-.309.413-.731.516-.221.202-.33.191-.654.278-.371.078-1.21-.026-1-.217-.803-.134-.804-.325-.819-.248-.525-.093-.891-.196-.938-.253-.942-.232-1.051-.351-.31-.268-.174-.238-.18-.697.015-.614-.237-.402-.459-.047-.345.041-.16.351-.149.651-.196.449-.375.361-.335.108-.943.062-.567-.036-1.225-.32-.454.129-.309.289-.376.501-.572 1.352-.273.718-.345.583-.633.49-.67.367-.7.118-.278-.031-.845-.263-.474-.268-.66-.424-.617-.572-.371-.413-.407-.62-1.314-2.307-.087-.629.067-.496.098-.341.298-.779.042-.351-.15-.609-.309-.371-.381-.171-.54-.046-.732.16-.644.351-.824.8-.278.392-.14.568.021.351.2.598.284.553.541.758.273.573.046.728-.061.444-.15.351-.396.8-.217.351-.417.232-.726.139-.459-.072-.355-.243-.443-.753-.18-.568-.016-.392-.118-.625-.34-1.445-.098-.206-.32-.325-.68-.418-.39-.114-.48-.036-.33.129-.128.253-.052.284.072.438.119.346.325.382.808.496.232.294.242.49.196.733-.02.594-.155 1.383-.072.222-.505.526-.33.238-.762.345-.227.042-.494-.135-.459-.18-.412-.217-.675-.532-.762-.671-.865-1.068-.737-.619-.427-.279-1.195-.253-.66.052-.473.139-.253.145-.535.407-.17.166-.289.474-.123.64.036.429.226.428.222.248.427.144.675.016.783-.305.463-.227.721-.124.433-.031.582.145.294.242.232.609.077.749.185.542.454.536 1.04.806.536.485.36.495.212.429.144.624-.067.465-.19.351-.526.402-.593.238-.473.036-1.535.031-.36-.031-.63-.186-.726-.496-.752-.867-.613-.774-.417-.382-.335-.17-.33-.093h-.252l-.432.108-.5.295-.216.221-.078.228.057.686.252.676.428.831.263.609.232.681.273.64.108.429-.02.387-.135.361-.293.454-.263.238"/></svg>