<svg xmlns="http://www.w3.org/2000/svg" width="353" height="193" fill="none" viewBox="0 0 353 193"><path id="Олександрійський" fill="#C8C6C6" fill-rule="evenodd" d="m302.858 145.39-.52-.041-.412-.103-.268.046.005.681-.031.331-.33-.062.006.356-.31.531-.046.32-1.391-.185-.412-4.429.294-.057-.325-1.894-.041-.041-2.034.299-.361-2.689-2.565.346.149 1.074-2.364.34-.098.042.108.609.134 1.063-1.916.304-.165-.82-.067-.516-1.478.227-.185-1.234-.366-2.694 1.406-.201.062-.362-.036-.325-.119-.299-.669-4.934.654-.088-.371-2.637-.639.098-.442-3.391-1.412.346-.252-2.209-.577.077-.144-1.295.005-.098-.258-2.4-.299-.062-1.993.258-.072.02-2.102.289-.592-4.01-.185-1.352-.067-.32-.108-1.043 1.555.042.927.005-.165-1.249.752-.109-.061-.5-.315-2.307.763-.083-.093-.738.103-.021-.139-.918-.258-2.06.773-.098 1.54-.227-.18-1.491-.768.098-.278-2.22-1.694.15-1.7.124-.423-3.066-.175-1.337.634-.082-.345-.175-.062-1.167-1.061.134-1.823.258.386 2.9-5.398.79-.139-.263-3.39.485.114.976.417.217-.546.433-2.395 1.776-2.854.841-.499 1.105-.253-.114-2.189-1.161-.463-.269-1.829-.97-.304-.175-.041-.13.35-.082-.118-.305.267.088.232-.196-.314-2.003-.335-.01-.17-1.12-.381.057-.062-.532-.185-.975.015-.067.696-.847-.423-.278.078-.377-.794-.94.278-.242.129-.01.428.237.237-.03-.546-3.866h-1.473l-.289-1.766.809-.211-.129-2.271.881-.046.597-2.271-.644-.454.33-.878.268.134.505.49h.762l.211.114.258.01.257-.32.124-.294-.113-.418.087-.201-.237-.33.083-.17 1.849-.31.056.418 2.602-.424-.315-1.987.114-.118.185-.393.01-.242-.149-.119-.139.144.005.238-.257.346.041.475-.072.123-.644.104-.16.268-1.118.444-.865-.005-.123-.258-.165-.067-.366.051-.18-.17-.521.48-.34-.413-.149-.382.036-.217-.252-1.853-.711.057-.149.047-.134-.15-.309-.01-.155-.34-.216-.192-.412-.268-.376-.521-.083-.305-.262-.217-.407-.206.437-.32.68-.103-.329-2.953 1.689-.196.052.109 1.988-.269-.247-1.78-.005-.15-2.045-.13-.263-1.847 1.37-.211.366-.083.031-.114-.247-.154.262-.15h.155l-.495-3.417-.123-.727-.536-3.794-.252-1.708 1.509-.222.994-.108.479-.088 2.951-.413-.092-.697 2.791-.392-.118-.919-.134-1.156-.283-1.94-.206-1.662-.242-1.539-.088-.686-.02-.403-.186-.454-.984.155-.061.18-1.705-1.542-.145-.16-.571-.47-.279.237-.216.3-.788.944-.448-.908-.052-.047-1.009-.144-.67-.067-.087.66-.83-.067-.504-3.375.18-.201.005-.408-.19-.511-.263-.222-.464-.64-.252.18-.562-.428-.242.558-.494.067-.304-.207-.113-.624.355.062.149-.124.345-.02.186-.135-.335-.32h-.304l-.536-.45-.288-1.78-.046-.459-.134-.49 2.745-.424.428-.04 1.658-.27.593-.128-.109-.145-.087-.423.726-.093.268.052.258-.098 1.473-.212.139-.062 1.401-.201-.155-1.228 1.242-.197 1.323-.087-.139-.976-.613.165-.577.052-.355-.196-.422-.361-.242-.532-.134-.408-.186-.005-.479.237-.216-.005-.077-.129h-.366l-.15-.387-.036-.47.366-.103-.005.145.304.14.072-.223.232.01.067-.356-.124-.154.129-.145-.119-.18.376-.181.078-.34-.376-.192-.119.005-.123-1.011.02-.037-.124-.81-.211-1.853-.067-.129-.026-.47-.077-.51.021-.589-.062-.63-.531.186-.309-.113-.35-.01-.015-.18.556-.223.525-.289.299-.3.943-.727.103-.046 1.138-.238 1.998-.758.181-.016 1.123.119-.047-2.008-.448-2.09-1.267-.274-.474.031-1.128-.103-1.015-.196-1.395-.377-.351-.186-.505-.098-1.916-.31-.54-.562-.593.222-.396-.15-.634-.412-.227-.29-.267-.216-.165-.238.036-.371-.217-.34-.046-.507-.134-.356-.02-.728.298-.2.438-.166.186.072.087-.568.18-.366.294-1.022.113-.15.649-.531.845-1.125.731-1.022.361-.527.216.078.727-.635.309-.367.36-.196 1.252-.815 1.561-2.292.592.233.69.35.665.785.767.279.927-.02 2.277.324.623-.015.191-.253.448-.082.943-.49.412-.362.798-.253.479-.02.716.123.232.361.185.883-.02.625-.34.68-.15.6.124.753.458.568.505.402.139.031.407-.129.392-.026.473.073.392.294.402.402.17.274.19.635.268.325.366.289.221.026.732-.222.587.289.469-.057.365-.093.68-.247.412.077 1.499.465.881-.17 1.602 1.341-.16.325.005.66.258.517.644.464.242.32.881 1.626.386.589.721.924.175.428-.015.237-.582.584-.021.154.474.93.083.293-.011.76-.175.773.062.248.175.253.397.243.319.005 1.504-.325.242.129.86 1.016.026.186-.587.563.088.247.324.15.366.79.407.098.433-.186.211-.232.963-.186.077-.18v-.661l.196-.114.51.186.283.175.417.398.335-.01.067-.186.196-1.476-.005-2.756.005-.713-.015-3.55-.258-.909-.448-1.455-.149-.155.231-.114 1.798 1.77.412 1.09.036.743.077.124.011.48.37-.109 1.031 1.363.51.371 1.158.418-.783 1.58-.582 1.15-.118.093-.335-.154-.093.154-.298-.061-.227-.124-.304.227-.505.222-.231-.01-.103.33.69.072-.062.227.232.176.541.123.056.14-.134.366.794-.067.7 1.151.459.594.818.996.196.062.417-.062.191.144v.233l-.263.423-.01.294.206.227.088.232-.011.661-.262-.01-.026.407.35-.067.253.377.128.434.201.31.062.495-.046.733-.222.294-.299.237-.242.114-.577.382-.237.356-.175.165-.819.29.263.603-.211.222 1.154 2.55-.005.356 1.128 2.606-.969.397.546 1.285.953-.438.16.34 1.009-.505.299-.186.366.01-.021.738 1.504 1.027 2.148 1.44.469.346-.211-2.761-.026-.496.252-.258 2.272 1.42.113-.589.155-1.182 3.775.62-.231 1.558-.036.325.478.429-.391 2.606.335-.232.546.165.17-.093.015-.34.536-.578.433-.047-.104-.542 3.41-.635.309 1.6.433-.01.083.083.072.79.633-.063.402.02 1.298.213-.067-.511-.489.082-.124-.578 1.144-.212.108.558.649-.108 1.39-2.287.258-.449-.711-.439.871-1.465.293.273.294-.3-.098-.469h.386l1.005-.862.139-.35.067-.341.02-.594.139-.165.484-.165 1.86-.072 1.179 2.451.572.45.593.505.267.449.402.248.392.072.679.423.433.134.515-.046.443-.155.515.046 1.02-.268.768-.315.422-.026-.021.197.727.345.829.201 1.03.202.783-.119.762.108.469.15 1.041.47.69.408.582.603.505.62.304.3.937.835.654.454 1.025.33.603.259.505.258-.5 1.853-.082.036-.139.635-.588 2.627-.087.258-.376 1.729-.196.841-.201.098-.499.103-.315.186-.02.279-.896 4.139-.263.052.283 1.651-.062.01.248 1.41-.052.247-.175.774-1.427.181-.309.057-.134-.681-.814-.253-.293-1.704-.016-.366-.324-1.357-1.458.258-.175.062.098.774-1.792.31-.176-.966-.829.181.036.165-.984.196-.499.66-.515.073-.284-.088-.7.098-.124-.5-.134-.986-.185-1.13-.541-.062-.015-.207.185-.263-1.416.196-.176.227-.669.305-.319-.759-.536-.175-.453.144-.011.18-.226.367-.325.392-.123.336-.31.64-.231.366-.129.506-3.384.635-.139-.697-1.005.165-.149-.867-1.633.212.356 1.987.01.191-.34-.01-.026-.135-.433.093.294 1.776.134.35.268.852-.103.315.118.16.304.016.237.68 1.236-.407.953 3.045.525.16.248.02.525.243.52-.036.778-.124.108.563 2.638-.3 2.23 2.158.381.464.494.388 1.031 1 1.318-.149.289 1.528.067.077 1.627-.3 3.024-.53-.283 3.122-2.117.387-1.752.34.206.981.016.274.314.093.056.428-.298.046.35 2.163-.252.268-.433.016-.252.49h-.433l-.289.093-.154.196.185.15-.154.216-.211-.025-.145-.181-.314-.01-.123.314-.165-.144-.835.186.042.186-.67.129-1.2.691-3.348 2.586-.278-.031-.114-.78-.386.037-.124-1.017-1.962.268-.083-.562-1.406.366 1.175 4.212-2.766.862-.485-2.142-2.359.392-1.622.243-2.385.402.17 1.198-.644.123-.062-.33-1.808.325.201 1.3-.984.341.634 1.177-.891.279.912 6.787.345 2.493.34 2.58.056.052-.061 2.018-.16 2.549.721-.056.185 1.187-.005.247-.273-.211-.139.015.021.243-.634.026-.041.64-1.355-.016-.005 1.043-.046 1.233.412-.02.036.371-.69.723-.443.552.154 1.037 1.386.016-.407 2.426.046.16.33.041 1.602-.217.51-.129.324-.17.943.469-.093.759-.18 1.166-.407 2.808.412.005-.072.165.18.279.191.465-.026.175-.289.191.088.238-.201.227.082.103 1.355.191.453 2.978.387-.067.407 1.698.098.469.031.15-.861.681.005.222-1.086.821-.098-.33-.376.196-.582.402.19-1.471-1.035-.175-.206 1.915-.932.34-.212-.02.557.795.52-.398-.108 1.167-1.592.294.108.655-1.189.202-2.921.531-.154.558.252 1.517.062.227-.119.083-2.349.345-.628.109-1.282.139-.207.289-.231.093-1.293-.134-.289.563-2.132.061-1.334.073.087.702-.525.062-1.658.247.334.429.809 1.749.227.615.623-.15.118.248.072.325-.051.826" clip-rule="evenodd"/><path stroke="#000" stroke-linecap="round" stroke-linejoin="round" stroke-width=".2" d="m302.858 145.39-.52-.041-.412-.103-.268.046.005.681-.031.331-.33-.062.006.356-.31.531-.046.32-1.391-.185-.412-4.429.294-.057-.325-1.894-.041-.041-2.034.299-.361-2.689-2.565.346.149 1.074-2.364.34-.098.042.108.609.134 1.063-1.916.304-.165-.82-.067-.516-1.478.227-.185-1.234-.366-2.694 1.406-.201.062-.362-.036-.325-.119-.299-.669-4.934.654-.088-.371-2.637-.639.098-.442-3.391-1.412.346-.252-2.209-.577.077-.144-1.295.005-.098-.258-2.4-.299-.062-1.993.258-.072.02-2.102.289-.592-4.01-.185-1.352-.067-.32-.108-1.043 1.555.042.927.005-.165-1.249.752-.109-.061-.5-.315-2.307.763-.083-.093-.738.103-.021-.139-.918-.258-2.06.773-.098 1.54-.227-.18-1.491-.768.098-.278-2.22-1.694.15-1.7.124-.423-3.066-.175-1.337.634-.082-.345-.175-.062-1.167-1.061.134-1.823.258.386 2.9-5.398.79-.139-.263-3.39.485.114.976.417.217-.546.433-2.395 1.776-2.854.841-.499 1.105-.253-.114-2.189-1.161-.463-.269-1.829-.97-.304-.175-.041-.13.35-.082-.118-.305.267.088.232-.196-.314-2.003-.335-.01-.17-1.12-.381.057-.062-.532-.185-.975.015-.067.696-.847-.423-.278.078-.377-.794-.94.278-.242.129-.01.428.237.237-.03-.546-3.866h-1.473l-.289-1.766.809-.211-.129-2.271.881-.046.597-2.271-.644-.454.33-.878.268.134.505.49h.762l.211.114.258.01.257-.32.124-.294-.113-.418.087-.201-.237-.33.083-.17 1.849-.31.056.418 2.602-.424-.315-1.987.114-.118.185-.393.01-.242-.149-.119-.139.144.005.238-.257.346.041.475-.072.123-.644.104-.16.268-1.118.444-.865-.005-.123-.258-.165-.067-.366.051-.18-.17-.521.48-.34-.413-.149-.382.036-.217-.252-1.853-.711.057-.149.047-.134-.15-.309-.01-.155-.34-.216-.192-.412-.268-.376-.521-.083-.305-.262-.217-.407-.206.437-.32.68-.103-.329-2.953 1.689-.196.052.109 1.988-.269-.247-1.78-.005-.15-2.045-.13-.263-1.847 1.37-.211.366-.083.031-.114-.247-.154.262-.15h.155l-.495-3.417-.123-.727-.536-3.794-.252-1.708 1.509-.222.994-.108.479-.088 2.951-.413-.092-.697 2.791-.392-.118-.919-.134-1.156-.283-1.94-.206-1.662-.242-1.539-.088-.686-.02-.403-.186-.454-.984.155-.061.18-1.705-1.542-.145-.16-.571-.47-.279.237-.216.3-.788.944-.448-.908-.052-.047-1.009-.144-.67-.067-.087.66-.83-.067-.504-3.375.18-.201.005-.408-.19-.511-.263-.222-.464-.64-.252.18-.562-.428-.242.558-.494.067-.304-.207-.113-.624.355.062.149-.124.345-.02.186-.135-.335-.32h-.304l-.536-.45-.288-1.78-.046-.459-.134-.49 2.745-.424.428-.04 1.658-.27.593-.128-.109-.145-.087-.423.726-.093.268.052.258-.098 1.473-.212.139-.062 1.401-.201-.155-1.228 1.242-.197 1.323-.087-.139-.976-.613.165-.577.052-.355-.196-.422-.361-.242-.532-.134-.408-.186-.005-.479.237-.216-.005-.077-.129h-.366l-.15-.387-.036-.47.366-.103-.005.145.304.14.072-.223.232.01.067-.356-.124-.154.129-.145-.119-.18.376-.181.078-.34-.376-.192-.119.005-.123-1.011.02-.037-.124-.81-.211-1.853-.067-.129-.026-.47-.077-.51.021-.589-.062-.63-.531.186-.309-.113-.35-.01-.015-.18.556-.223.525-.289.299-.3.943-.727.103-.046 1.138-.238 1.998-.758.181-.016 1.123.119-.047-2.008-.448-2.09-1.267-.274-.474.031-1.128-.103-1.015-.196-1.395-.377-.351-.186-.505-.098-1.916-.31-.54-.562-.593.222-.396-.15-.634-.412-.227-.29-.267-.216-.165-.238.036-.371-.217-.34-.046-.507-.134-.356-.02-.728.298-.2.438-.166.186.072.087-.568.18-.366.294-1.022.113-.15.649-.531.845-1.125.731-1.022.361-.527.216.078.727-.635.309-.367.36-.196 1.252-.815 1.561-2.292.592.233.69.35.665.785.767.279.927-.02 2.277.324.623-.015.191-.253.448-.082.943-.49.412-.362.798-.253.479-.02.716.123.232.361.185.883-.02.625-.34.68-.15.6.124.753.458.568.505.402.139.031.407-.129.392-.026.473.073.392.294.402.402.17.274.19.635.268.325.366.289.221.026.732-.222.587.289.469-.057.365-.093.68-.247.412.077 1.499.465.881-.17 1.602 1.341-.16.325.005.66.258.517.644.464.242.32.881 1.626.386.589.721.924.175.428-.015.237-.582.584-.021.154.474.93.083.293-.011.76-.175.773.062.248.175.253.397.243.319.005 1.504-.325.242.129.86 1.016.026.186-.587.563.088.247.324.15.366.79.407.098.433-.186.211-.232.963-.186.077-.18v-.661l.196-.114.51.186.283.175.417.398.335-.01.067-.186.196-1.476-.005-2.756.005-.713-.015-3.55-.258-.909-.448-1.455-.149-.155.231-.114 1.798 1.77.412 1.09.036.743.077.124.011.48.37-.109 1.031 1.363.51.371 1.158.418-.783 1.58-.582 1.15-.118.093-.335-.154-.093.154-.298-.061-.227-.124-.304.227-.505.222-.231-.01-.103.33.69.072-.062.227.232.176.541.123.056.14-.134.366.794-.067.7 1.151.459.594.818.996.196.062.417-.062.191.144v.233l-.263.423-.01.294.206.227.088.232-.011.661-.262-.01-.026.407.35-.067.253.377.128.434.201.31.062.495-.046.733-.222.294-.299.237-.242.114-.577.382-.237.356-.175.165-.819.29.263.603-.211.222 1.154 2.55-.005.356 1.128 2.606-.969.397.546 1.285.953-.438.16.34 1.009-.505.299-.186.366.01-.021.738 1.504 1.027 2.148 1.44.469.346-.211-2.761-.026-.496.252-.258 2.272 1.42.113-.589.155-1.182 3.775.62-.231 1.558-.036.325.478.429-.391 2.606.335-.232.546.165.17-.093.015-.34.536-.578.433-.047-.104-.542 3.41-.635.309 1.6.433-.01.083.083.072.79.633-.063.402.02 1.298.213-.067-.511-.489.082-.124-.578 1.144-.212.108.558.649-.108 1.39-2.287.258-.449-.711-.439.871-1.465.293.273.294-.3-.098-.469h.386l1.005-.862.139-.35.067-.341.02-.594.139-.165.484-.165 1.86-.072 1.179 2.451.572.45.593.505.267.449.402.248.392.072.679.423.433.134.515-.046.443-.155.515.046 1.02-.268.768-.315.422-.026-.021.197.727.345.829.201 1.03.202.783-.119.762.108.469.15 1.041.47.69.408.582.603.505.62.304.3.937.835.654.454 1.025.33.603.259.505.258-.5 1.853-.082.036-.139.635-.588 2.627-.087.258-.376 1.729-.196.841-.201.098-.499.103-.315.186-.02.279-.896 4.139-.263.052.283 1.651-.062.01.248 1.41-.052.247-.175.774-1.427.181-.309.057-.134-.681-.814-.253-.293-1.704-.016-.366-.324-1.357-1.458.258-.175.062.098.774-1.792.31-.176-.966-.829.181.036.165-.984.196-.499.66-.515.073-.284-.088-.7.098-.124-.5-.134-.986-.185-1.13-.541-.062-.015-.207.185-.263-1.416.196-.176.227-.669.305-.319-.759-.536-.175-.453.144-.011.18-.226.367-.325.392-.123.336-.31.64-.231.366-.129.506-3.384.635-.139-.697-1.005.165-.149-.867-1.633.212.356 1.987.01.191-.34-.01-.026-.135-.433.093.294 1.776.134.35.268.852-.103.315.118.16.304.016.237.68 1.236-.407.953 3.045.525.16.248.02.525.243.52-.036.778-.124.108.563 2.638-.3 2.23 2.158.381.464.494.388 1.031 1 1.318-.149.289 1.528.067.077 1.627-.3 3.024-.53-.283 3.122-2.117.387-1.752.34.206.981.016.274.314.093.056.428-.298.046.35 2.163-.252.268-.433.016-.252.49h-.433l-.289.093-.154.196.185.15-.154.216-.211-.025-.145-.181-.314-.01-.123.314-.165-.144-.835.186.042.186-.67.129-1.2.691-3.348 2.586-.278-.031-.114-.78-.386.037-.124-1.017-1.962.268-.083-.562-1.406.366 1.175 4.212-2.766.862-.485-2.142-2.359.392-1.622.243-2.385.402.17 1.198-.644.123-.062-.33-1.808.325.201 1.3-.984.341.634 1.177-.891.279.912 6.787.345 2.493.34 2.58.056.052-.061 2.018-.16 2.549.721-.056.185 1.187-.005.247-.273-.211-.139.015.021.243-.634.026-.041.64-1.355-.016-.005 1.043-.046 1.233.412-.02.036.371-.69.723-.443.552.154 1.037 1.386.016-.407 2.426.046.16.33.041 1.602-.217.51-.129.324-.17.943.469-.093.759-.18 1.166-.407 2.808.412.005-.072.165.18.279.191.465-.026.175-.289.191.088.238-.201.227.082.103 1.355.191.453 2.978.387-.067.407 1.698.098.469.031.15-.861.681.005.222-1.086.821-.098-.33-.376.196-.582.402.19-1.471-1.035-.175-.206 1.915-.932.34-.212-.02.557.795.52-.398-.108 1.167-1.592.294.108.655-1.189.202-2.921.531-.154.558.252 1.517.062.227-.119.083-2.349.345-.628.109-1.282.139-.207.289-.231.093-1.293-.134-.289.563-2.132.061-1.334.073.087.702-.525.062-1.658.247.334.429.809 1.749.227.615.623-.15.118.248.072.325-.051.826"/><path id="Голованівський" fill="#C8C6C6" fill-rule="evenodd" d="m64.813 140.302-.299-.552-.087-.449.072-.263-.345-.243-.258-.052-.36.078-.423.242-.35.14-.51-.016-.278.16-.052.295-.252.046-.242-.237-.757-.346-.402-.279-.469.067-.32-.217-.4-.206-.279.052-.175.154-.119.382-.139.227-.206.14-.731.227-.33.036-.592-.175-.5-.042-.592-.093-.386-.196-.062-.149-.103-.594-.237-.248-.273-.015-.36.077-.804-.026-.345.109-.108.351-.207.186-.33.041-.71.227-.273.356-.561.398-.206.056-.217-.067-.396.103-.103.104-.078.676.057.516.14.165-.016.206-.371.413-.49.403-.17.046-.427-.149-.206-.15-.742.01-.494.155-.371.16-.268.026-.33-.103-.345-.294-.783-.434-.52-.144-.2.051-.619.521-.566.124-.263.207-.2-.026-.557-.31-.36-.139-.449-.005-.314-.057-.567-.336-1.236-.144-.34-.124-.273-.32-.324-.31-.201-.01-.587.521-.624.166-.252.201-.278.304-.51-.015-.706.268-.257-.134-.448-.346-.237.088-.34-.108-.773-.01-.227.061-.54.315-.382-.01-.2.072-.33.274-.01.18-.17.057-.232-.17-.443-.047-.402-.129-.242-.222-.561-.087-.325-.196-.407-.037-.417.259-.17-.037-.314-.407-.113-.418-.243-.068-.643.264-.268-.083-.186-.217-.299-.49-.087-.764-.14-.371-.344-.372-.299-.604.108-.475-.16-.325-.38-.268-.274-.377-.303-.237h-.413l-.154.077-.278.346-.366.067-.325-.232-.061-.135.036-.557-.134-.594.041-.196.551-.733.165-.743-.124-.423-.324-.392-.448-.418-.495-.31-.123-.217-.072-1.089-.119.016-.731.8-.485.872-3.8-2.085-.3.562-1.169 2.132-.772 1.393-1.056 1.941-.417-.041-1.015-.284.015-.367-.195-.397-.578-.413-.149-.186-.113-.366-.155-.305-.69-.567-.809-.439-.237-.041-.844.185-1 .434-.556.031-.463.17-1.005.537-.087.088-.655-.392-.164-.171.128-.217-.386-.134-.144-.516-.474-.604.036-.335-.19-.439-.078-.428.345-.052-.2-.191.206-.082.272-.32-.046-.284.407-1.043-.345-.831-.634-1.016.423-.274-.433-1.285.134-.387-.37-.15-.104-.279-.484-.185-.175-.233-.072-.485-.32-.098.067-.681-.474-.088.098-1.239.34.016.53.165.063.191.195-.124.047-.356.54-.305.16-.268-.402-.521.15-.109.288-.062.042-.258-.15-.149.562-.238.293.021.19-1.931 1.252.119.036-.402.382.02.072-.867-.16-.196.026-.15-.222-.908.444.17.051-.088.402-.082-.366-.351-.16-.263-.036-.248.083-.289-.02-.263-.33-.14-.15-.361-.51-.072-.252-.15-.356-.501 1.803-1.507.459-.418 2.812-2.332.634-.501 1.21-.996.412-.289-.309-.408-.32-.32-.077-.392 1.582-.547.2.33 1.814-1.182.02-.289 1.54-.516.155.103.087.248.588-.32-.02-.176 1.354-.748.103.108.412-.216-.206-.744-.093-.18-.041-.449.129-.098.808.232.304-1.399.005-.036 2.931-.072-.226-.718 3.481-.526.758-.082.376.356.674.356.474.738.247.279.248-.006.453.326.33.123h.067l.154.769.14.243.52.346 1.328.371.335.021.654-.196-.082-.774.257-.465.346.108.236-.056.062-.398.01-.578.176.026.443-.062.577-.242.015-.16.175-.351.16-.124.139-.49.221-.042-.036-.263.273-.263-.376-.614-.046-.413.154-.511.845-.707 2.988 1.816.061.01 1.216.764.597.44.304-.099 2.74-1.079-.113-2.095 1.267-.243.66-.15 2.178-.428.346-.036.303-.279.418-.278.819-.681 1.329-.248 1.014-.243.747-.093.587-.026 1.494-.051.067-1.992 1.061-3.231.263-.764.932-.248 3.302-.96 1.772 2.085.247.119.86.232.026-.635 1.293.176v.444l.427.051.124-.542 1.978.31.206-.155.448-.015.088-.465 2.153.454.231-1.31-.164-.109-.34-.082.386-1.59-.129-.124-.484-.227-.247-.18 1.118-1.301-2.241-1.998-.15.191-1.122-1.017.664-1.181 1.035-1.817.18-.372.227-.01 3.596-1.115.16-.026.01-.382.067-.175-.047-.428.108-.284.062-.356.165-.506.16-.733.293-.083.232-1.497-.845-.165-.304-.552-.355-.521-.87-1.027-.603-.676.386-.14.273-.005.386-.119.304.326.258-.062.52-.036.685.237 1.087-2.648.597.078.536.015.041-.237.098-1.41 1.674-.64 2.426-.939 1.082-.412 1.906.81 1.293.051.922.005.365-.025.165-1.193.7.284 2.205.862 1.39.552.645-1.615.72.387.29.495.004.104.443.681.098.258.036.444.17.175.31-.02.818.227.114-.108.118-.341.99.155.576.01.695.108.155.12.206.453.36.14.371-.207.69.01.145-.376-.196-.795.196-.568.113-.155.31-.206.57.041.773.165.768-.082.427-.134.438.15.206-.057.072.16.418.103.067-.713-.356-.34-.087-.49.108-.12.633.083.062.14.299.124.165-.042.056.393.16.108.108.258.227.201.299.16.154-.144.263.16.623-.18.793-.264.577.155.072.196.474.593.433-.036.041-.206.531-.021.211-.057.056-.186.273-.103.418.026.304.14.283.04.376-.092.283.129.119.165.175.625.458.258.325-.434.371-.057.164.145.134.35.052.32.221.305.392-.005.201.382-.206.176-.114.237.078.361.365.212.201-.036.263.15.386.118.33.34.288-.05-.026-.243-.17-.326.17-.299.278-.243.536.202.201-.072.134.19.02.382.243.45-.047.165.217.16.324.061.211.15.325-.17.108-.439-.026-.609.227-.279.082-.221.211-.067.134.077.227.547.185-.067.335-.532.067-.371.17-.15.221.062.191-.237.273.185.015.176.237.273.041.212.176.062.453-.356.154-.434.392-.846.355-.465.438-.645.175-.108.35.098.217.18.278.073.443-.14.53.031.371.207.392.335.448-.237.242.051.139-.15.01-.582-.072-.408.129-.103.021-.207.628.17.546.248.237.026.335-.14.489-.046.154-.062.449.052.314.315-.134.563.062.278.237.356v.207l.118.263.294.315.319-.041-.01.304-.284.377-.453.134-.17.18.469 1.358-.505.119.247.944.928 3.407-.093.015-1.695.304-.226-.882-.474.108.031-.444-.397-1.476-1.53.408.103.29-1.184.556-1.726.857.016.227.252.186.16-.088.226.114.021.351-.124.32-.227.304.021.083-3.384 1.693.252.47 1.793 3.582.391.83.696 1.322 1.066 2.162.427.847-1.833.33-1.463.274.165.433-2.122.201-.299-.686-1.046.305-1.267.33-.618-2.632-2.931.944-.057.031-.051.02-2.225.042-2.236.057-2.415.051.051 4.465.026.227-.01.986.026.578-2.627.046-2.39.073-.273.03.247 1.528.206.836.046-.01.346 1.636-3.194-.082h-.53l-.15.113-.206-.01-.056 1.43-.057 2.12-1.216 1.44-1.73 2.365-1.412.232-.278-.367-.325.259-.231.319-.16.057.02.356-.417.243-.175.052-.365.289.597.562.52.872.48.026.545.114.376.222.376.067.057.397-.02.403-.237.113-.536.511-.18.315-.31.253-.231.743.026.439.546.63.273.253.17.464.21.232.006.253.144.382.392.325.036.264-.175.454-.243.387-.005.119.263.335.154.077.438.542.845-.18.757-.124 2.813-.599-.191-.774.53-.119.613-.216 1.649-.506.381 1.677.355-.026 2.133-.521.19.098.273 1.306 2.159-.501.154.759.51 3.437 1.159-.18.443 3.009.067.619.283.217-.093.444-1.117.221.443 2.385 2.178-.403 1.376-.263.02.078.716.325.603-.088 1.416-.237.428-.042 2.101-.34.613 2.348-.886.144-.113.284-.237 1.136-.01.165-.742.134-1.53.232.242 1.358.469-.057.144.459.376.057-.026.145-.381.056.278 1.502-1.426.289.335 1.673-2.957.49-.18-1.074-.103-.459-1.613.32-3.24.692-1.205.273.428 2.173.247 1.332-.15-.026.17 1.311-.159-.011-.793.088-.402-.201-.654.015-.629.501-.268.093-.376-.253-.437-.191-.474-.021-.351.082-.339-.056-.134.423-.006.593.088.615-.072.211.02.372-.262.057-.114-.202-.376-.268-.278.227.01.238-.154.134-.88.129-.253-.047.051.238-.185.351-.232.031-.257-.645-.799-.042-.535.067-.217.088-.263.284-.319.072-.093-.165-1.23.145-.01-.186-.552-2.772-1.746.351-.16-.774-.19-.077-.376.031.036.655-.02.289-.202.083-.314.407-.067.465.108.434-.268.01-1.54.206-.226-1.6-.371-1.378-1.489.176-4.11.454-.222-1.156-2.26.805-.47.15-.453.062-1.23.113-1.474.186.093.681.062.145.664.856-1.669.589-1.277.108-.119.227.119.258-.108.062.015.604-.386.119-.608-.047-2.277-.036-.103.238-.309.036-1.839-.103-.263-.966-2.173-2.054-1.73 2.519-.155.191" clip-rule="evenodd"/><path stroke="#000" stroke-linecap="round" stroke-linejoin="round" stroke-width=".2" d="m64.813 140.302-.299-.552-.087-.449.072-.263-.345-.243-.258-.052-.36.078-.423.242-.35.14-.51-.016-.278.16-.052.295-.252.046-.242-.237-.757-.346-.402-.279-.469.067-.32-.217-.4-.206-.279.052-.175.154-.119.382-.139.227-.206.14-.731.227-.33.036-.592-.175-.5-.042-.592-.093-.386-.196-.062-.149-.103-.594-.237-.248-.273-.015-.36.077-.804-.026-.345.109-.108.351-.207.186-.33.041-.71.227-.273.356-.561.398-.206.056-.217-.067-.396.103-.103.104-.078.676.057.516.14.165-.016.206-.371.413-.49.403-.17.046-.427-.149-.206-.15-.742.01-.494.155-.371.16-.268.026-.33-.103-.345-.294-.783-.434-.52-.144-.2.051-.619.521-.566.124-.263.207-.2-.026-.557-.31-.36-.139-.449-.005-.314-.057-.567-.336-1.236-.144-.34-.124-.273-.32-.324-.31-.201-.01-.587.521-.624.166-.252.201-.278.304-.51-.015-.706.268-.257-.134-.448-.346-.237.088-.34-.108-.773-.01-.227.061-.54.315-.382-.01-.2.072-.33.274-.01.18-.17.057-.232-.17-.443-.047-.402-.129-.242-.222-.561-.087-.325-.196-.407-.037-.417.259-.17-.037-.314-.407-.113-.418-.243-.068-.643.264-.268-.083-.186-.217-.299-.49-.087-.764-.14-.371-.344-.372-.299-.604.108-.475-.16-.325-.38-.268-.274-.377-.303-.237h-.413l-.154.077-.278.346-.366.067-.325-.232-.061-.135.036-.557-.134-.594.041-.196.551-.733.165-.743-.124-.423-.324-.392-.448-.418-.495-.31-.123-.217-.072-1.089-.119.016-.731.8-.485.872-3.8-2.085-.3.562-1.169 2.132-.772 1.393-1.056 1.941-.417-.041-1.015-.284.015-.367-.195-.397-.578-.413-.149-.186-.113-.366-.155-.305-.69-.567-.809-.439-.237-.041-.844.185-1 .434-.556.031-.463.17-1.005.537-.087.088-.655-.392-.164-.171.128-.217-.386-.134-.144-.516-.474-.604.036-.335-.19-.439-.078-.428.345-.052-.2-.191.206-.082.272-.32-.046-.284.407-1.043-.345-.831-.634-1.016.423-.274-.433-1.285.134-.387-.37-.15-.104-.279-.484-.185-.175-.233-.072-.485-.32-.098.067-.681-.474-.088.098-1.239.34.016.53.165.063.191.195-.124.047-.356.54-.305.16-.268-.402-.521.15-.109.288-.062.042-.258-.15-.149.562-.238.293.021.19-1.931 1.252.119.036-.402.382.02.072-.867-.16-.196.026-.15-.222-.908.444.17.051-.088.402-.082-.366-.351-.16-.263-.036-.248.083-.289-.02-.263-.33-.14-.15-.361-.51-.072-.252-.15-.356-.501 1.803-1.507.459-.418 2.812-2.332.634-.501 1.21-.996.412-.289-.309-.408-.32-.32-.077-.392 1.582-.547.2.33 1.814-1.182.02-.289 1.54-.516.155.103.087.248.588-.32-.02-.176 1.354-.748.103.108.412-.216-.206-.744-.093-.18-.041-.449.129-.098.808.232.304-1.399.005-.036 2.931-.072-.226-.718 3.481-.526.758-.082.376.356.674.356.474.738.247.279.248-.006.453.326.33.123h.067l.154.769.14.243.52.346 1.328.371.335.021.654-.196-.082-.774.257-.465.346.108.236-.056.062-.398.01-.578.176.026.443-.062.577-.242.015-.16.175-.351.16-.124.139-.49.221-.042-.036-.263.273-.263-.376-.614-.046-.413.154-.511.845-.707 2.988 1.816.061.01 1.216.764.597.44.304-.099 2.74-1.079-.113-2.095 1.267-.243.66-.15 2.178-.428.346-.036.303-.279.418-.278.819-.681 1.329-.248 1.014-.243.747-.093.587-.026 1.494-.051.067-1.992 1.061-3.231.263-.764.932-.248 3.302-.96 1.772 2.085.247.119.86.232.026-.635 1.293.176v.444l.427.051.124-.542 1.978.31.206-.155.448-.015.088-.465 2.153.454.231-1.31-.164-.109-.34-.082.386-1.59-.129-.124-.484-.227-.247-.18 1.118-1.301-2.241-1.998-.15.191-1.122-1.017.664-1.181 1.035-1.817.18-.372.227-.01 3.596-1.115.16-.026.01-.382.067-.175-.047-.428.108-.284.062-.356.165-.506.16-.733.293-.083.232-1.497-.845-.165-.304-.552-.355-.521-.87-1.027-.603-.676.386-.14.273-.005.386-.119.304.326.258-.062.52-.036.685.237 1.087-2.648.597.078.536.015.041-.237.098-1.41 1.674-.64 2.426-.939 1.082-.412 1.906.81 1.293.051.922.005.365-.025.165-1.193.7.284 2.205.862 1.39.552.645-1.615.72.387.29.495.004.104.443.681.098.258.036.444.17.175.31-.02.818.227.114-.108.118-.341.99.155.576.01.695.108.155.12.206.453.36.14.371-.207.69.01.145-.376-.196-.795.196-.568.113-.155.31-.206.57.041.773.165.768-.082.427-.134.438.15.206-.057.072.16.418.103.067-.713-.356-.34-.087-.49.108-.12.633.083.062.14.299.124.165-.042.056.393.16.108.108.258.227.201.299.16.154-.144.263.16.623-.18.793-.264.577.155.072.196.474.593.433-.036.041-.206.531-.021.211-.057.056-.186.273-.103.418.026.304.14.283.04.376-.092.283.129.119.165.175.625.458.258.325-.434.371-.057.164.145.134.35.052.32.221.305.392-.005.201.382-.206.176-.114.237.078.361.365.212.201-.036.263.15.386.118.33.34.288-.05-.026-.243-.17-.326.17-.299.278-.243.536.202.201-.072.134.19.02.382.243.45-.047.165.217.16.324.061.211.15.325-.17.108-.439-.026-.609.227-.279.082-.221.211-.067.134.077.227.547.185-.067.335-.532.067-.371.17-.15.221.062.191-.237.273.185.015.176.237.273.041.212.176.062.453-.356.154-.434.392-.846.355-.465.438-.645.175-.108.35.098.217.18.278.073.443-.14.53.031.371.207.392.335.448-.237.242.051.139-.15.01-.582-.072-.408.129-.103.021-.207.628.17.546.248.237.026.335-.14.489-.046.154-.062.449.052.314.315-.134.563.062.278.237.356v.207l.118.263.294.315.319-.041-.01.304-.284.377-.453.134-.17.18.469 1.358-.505.119.247.944.928 3.407-.093.015-1.695.304-.226-.882-.474.108.031-.444-.397-1.476-1.53.408.103.29-1.184.556-1.726.857.016.227.252.186.16-.088.226.114.021.351-.124.32-.227.304.021.083-3.384 1.693.252.47 1.793 3.582.391.83.696 1.322 1.066 2.162.427.847-1.833.33-1.463.274.165.433-2.122.201-.299-.686-1.046.305-1.267.33-.618-2.632-2.931.944-.057.031-.051.02-2.225.042-2.236.057-2.415.051.051 4.465.026.227-.01.986.026.578-2.627.046-2.39.073-.273.03.247 1.528.206.836.046-.01.346 1.636-3.194-.082h-.53l-.15.113-.206-.01-.056 1.43-.057 2.12-1.216 1.44-1.73 2.365-1.412.232-.278-.367-.325.259-.231.319-.16.057.02.356-.417.243-.175.052-.365.289.597.562.52.872.48.026.545.114.376.222.376.067.057.397-.02.403-.237.113-.536.511-.18.315-.31.253-.231.743.026.439.546.63.273.253.17.464.21.232.006.253.144.382.392.325.036.264-.175.454-.243.387-.005.119.263.335.154.077.438.542.845-.18.757-.124 2.813-.599-.191-.774.53-.119.613-.216 1.649-.506.381 1.677.355-.026 2.133-.521.19.098.273 1.306 2.159-.501.154.759.51 3.437 1.159-.18.443 3.009.067.619.283.217-.093.444-1.117.221.443 2.385 2.178-.403 1.376-.263.02.078.716.325.603-.088 1.416-.237.428-.042 2.101-.34.613 2.348-.886.144-.113.284-.237 1.136-.01.165-.742.134-1.53.232.242 1.358.469-.057.144.459.376.057-.026.145-.381.056.278 1.502-1.426.289.335 1.673-2.957.49-.18-1.074-.103-.459-1.613.32-3.24.692-1.205.273.428 2.173.247 1.332-.15-.026.17 1.311-.159-.011-.793.088-.402-.201-.654.015-.629.501-.268.093-.376-.253-.437-.191-.474-.021-.351.082-.339-.056-.134.423-.006.593.088.615-.072.211.02.372-.262.057-.114-.202-.376-.268-.278.227.01.238-.154.134-.88.129-.253-.047.051.238-.185.351-.232.031-.257-.645-.799-.042-.535.067-.217.088-.263.284-.319.072-.093-.165-1.23.145-.01-.186-.552-2.772-1.746.351-.16-.774-.19-.077-.376.031.036.655-.02.289-.202.083-.314.407-.067.465.108.434-.268.01-1.54.206-.226-1.6-.371-1.378-1.489.176-4.11.454-.222-1.156-2.26.805-.47.15-.453.062-1.23.113-1.474.186.093.681.062.145.664.856-1.669.589-1.277.108-.119.227.119.258-.108.062.015.604-.386.119-.608-.047-2.277-.036-.103.238-.309.036-1.839-.103-.263-.966-2.173-2.054-1.73 2.519-.155.191"/><path id="Новоукраїнський" fill="#C8C6C6" fill-rule="evenodd" d="m171.724 147.406-2.24.387-.613.119-.459.036-.623.093-.696.139-.257.103-1.272.228-.253-1.172h-.036l-.34-1.724-.201.186-.149-.067-.005-.331.185-.18-.061-.124-.361.005-2.431.506-.814.134-.18-1.223-.227.046-.263-1.3-.458.082-.072-.077-1.056.206-.371.171-2.055.382-.345.005.221.991-.273.031-.046.351.088.067.159 1.496-.618.212-.608.103.134.764-.139.067-.901-1.739-.747.16-.819.15.129.64.757 4.154-1.072.191-2.292-.067-.154.011.149.769-.129.572-.175.346-.412.413-.865.253-.201-.939-.18-.971-1.159.207-.361.041.175-1.734.139-.454.222-.315 1.87-.532-.15-.846-.417-2.183-.422-2.318-1.401.258-4.435.842.201 1.166-1.396.284-.737.145-.288-1.44-.216-1.218-.186-.259-.345.006-.263-.15-.262.898-.438.387-.036.176-.273.201-.227-.026-.201.129-.35-.077-.355.061-.268-.041-.526.119-.299.186-.211.051-.082.176-.247.005-.145.103-.283-.01-.098-.563-.324-2.513-1.298.511-3.441 1.228-.237.067-2.534.898-.34-1.641-.149-.666-.361-1.863-.268-1.554-.216-1.104-1.648.315-.588-.465-.303-.325-.397-.232-.366-.325-.232-.331.181-.629.298-.134.258.01.124-.098.257-.728-.52-.335.026-.31-.113-.459-.299-.253-.392-.434-.123-.046-.196-.263-.052-.413-.324-.16.057-.424-.433-.283-.031-.253-.216-.067-.459.098-1.334.206-.175-1.079-3.987.671-.334-1.672 1.426-.289-.278-1.502.381-.057.026-.144-.376-.057-.144-.459-.469.057-.242-1.358 1.53-.232.742-.134.01-.165.237-1.136.113-.284.886-.144-.613-2.349-2.101.341-.428.041-1.416.238-.603.087-.716-.325-.02-.077-1.376.263-2.178.403-.443-2.385 1.117-.222.093-.444-.283-.216-.067-.62-.443-3.009-1.159.181-.51-3.437-.155-.759-2.158.501-.273-1.306-.19-.098-2.133.521-.355.026-.381-1.677-1.649.505-.613.217-.53.119.19.774-2.812.599-.757.123-.845.181-.438-.542-.154-.077-.263-.336.005-.118.242-.387.176-.455-.037-.263-.391-.325-.144-.382-.005-.253-.212-.232-.17-.465-.272-.252-.546-.63-.026-.439.231-.743.31-.253.18-.315.535-.511.237-.113.02-.403-.056-.397-.376-.067-.376-.222-.546-.114-.479-.026-.52-.872-.597-.563.365-.289.175-.051.418-.243-.021-.356.16-.057.231-.32.325-.258.278.367 1.411-.233 1.731-2.363 1.216-1.44.056-2.122.057-1.43.206.011.15-.114h.53l3.194.083-.346-1.636-.046.01-.206-.836-.247-1.528.273-.03 2.39-.073 2.627-.046-.026-.579.01-.985-.026-.227-.052-4.465 2.416-.052 2.236-.056 2.225-.042.051-.02.057-.031 2.931-.945.618 2.632 1.267-.33 1.046-.304.298.686 2.123-.201-.165-.434 1.463-.273 1.833-.33-.427-.847-1.066-2.163-.696-1.321-.391-.83-1.793-3.583-.252-.47 3.384-1.692-.021-.083.227-.304.124-.32-.021-.351-.226-.114-.16.088-.253-.186-.015-.227 1.726-.857 1.184-.557-.103-.29 1.53-.407.397 1.476-.031.444.474-.108.226.882 1.695-.304.093-.016-.928-3.406-.247-.944.505-.12-.469-1.357.17-.18.453-.135.284-.376.01-.305.319-.356.469-.222.438-.02.335-.227.262-.357.211.124.454.026.324-.165.464-.108.175.098.448.005.273.66-.175.326.052.397.283.444.268.3.031.438-.181.397.32.315-.072.305.226.077.289-.041-.041.289.412.294.34-.057.721-.273.453-.005.252.129.253-.031.113-.506-.16-.201.011-.264-.093-.289-.01-.366.149-.13.33-.066.479.268-.016.238.577.345-.072.439.191.253.381.098.33.155.412-.083.067-.31-.103-.552.092-.356.211-.31-.077-.185.211-.258.212.005.159-.263-.005-.253.18-.093.145.093-.005.366-.325.712-.206.28.191.283.252-.088.124-.196.51-.237.576-.594.325-.542.02-.392-.345-.578.175-.13.505.223.026.382.345.304.057.232-.201.532.211.047 1.02-1.404-1.128-1.25.958-.804 2.89-2.4 1.916-.883 1.164-.433 2.009-.692-.083-1.528 1.097-.681 1.453-.846.154-.145.263-.702-.675-.263.248-.666.813-1.95-.69-.79 1.468-1.26.309.072.196-.32-.139-.371-.119-.052-.406-.356.273-.14.139-.288-.026-.119-.567-.377-.304-.454.793-.485-.134-.325-.133.015-.212-.304-.448.02 1.242-1.641 1.133.851-1.319 1.74.113.62.5-.378.206.047.701-.191.165-.093.169-.377-.355-.294.433-.599.505.382.88-.433.124-.392.536-.026.561-.088.577-.186.077.759.057.17.293.067.717-.273.741.232.258-.057.35.052.86-.016.093-.113.278.531.479.186.515-1.352.031-.33.314-1.59-.061-.289-.253-.439.227-.47 1.313-.221.953-.14 2.164.986.731-.712.742-.31.123-.17.088.026 2.086-.5.263-.27.592-1.088.433.227-.227.413.216.124.284.294.01.165.335.057.35.382.489.19.201-.061.191.18.185-.273.392.103.886.573 1.38.96 1.015.728 1.9.851 1.52.666.02 1.115-.077.258-.443 1.156-.5 1.306.006.103 1.998 4.32-1.004 1.533.041.34-.17.016-.155.552-.474.258-.18.233-.185-.057-.464.722.16.088 2.441.506 2.128.48 3.353.697.984.144.819.031.659 1.863.015.073.654 1.873.062.052.66 1.94.242.34.139.863.587-.134.5.51-.799.486.562 1.693.324.015.309.31.18.47.34.097.119.32.299.264-.237.19-.335.12-1.643.495-1.102.356-1.206.444-.438.201.268.862-.432.062-2.54.444-.355.046-.387.32-.221-.026-.283-.17-.412.02-.582-.34.056-.119-.324-.284-.047-.475-.443-.154-.386.345 1.226 3.603-1.416 1.615 1.153 1.043.376 1.94.155.589.639 1.775.252.738.876-.283.386 1.15-.886.233.283.877-.762.274-.355-1.09-1.113.656-.258-.315-1.875 1.275-.983.64.092.201.191.135.613.727.103.181.376.206.242.475.438-.005.041.165.196.17.036 1.497.015.955.227.16.572.738.087.202-.056.175-.201-.077-.119-.228-.587-.541-.283-.088-.588-.036-.448-.114-.247-.01-.304.547-1.339-.65-.546.093-.263.17-2.008 1.388-.057 4.305-1.293-.031-.185 2.508.715.072.006-.17.51-.041.036.309.092.062.727.155.185.093-.026.175.211.134-.118.191.093.893.319 2.906 1.442-.16 1.37-.119.078 1.605.185 2.395.108 1.972.196 3.329.546.072.479 2.384.566 1.606-.844.247.072.79.015 1.11.237-.026.072.449-.752.191.247 4.516-1.807.604.958 4.015 1.179 2.813.634.057.628 2.136.438 1.564-1.097.331.17.815.458 2.348 1.53-.155.067.047.144 1.321 1.612-.32.201 1.032 1.164-.211.289 1.517.026.537.87-.263.726-.15.062.361-1.72.315-.273.341-.541.217-.309-.052-.299.17-.262-.031-.629.098.026.129-.397-.031-.345-1.76-.566-.036-4.492.145.088 1.011-2.38.444-.432.093.309 1.77-2.035.382-.644.067-2.756-.892-.345-.016-.329.062-.521.32-3.569.609.113.671" clip-rule="evenodd"/><path stroke="#000" stroke-linecap="round" stroke-linejoin="round" stroke-width=".2" d="m171.724 147.406-2.24.387-.613.119-.459.036-.623.093-.696.139-.257.103-1.272.228-.253-1.172h-.036l-.34-1.724-.201.186-.149-.067-.005-.331.185-.18-.061-.124-.361.005-2.431.506-.814.134-.18-1.223-.227.046-.263-1.3-.458.082-.072-.077-1.056.206-.371.171-2.055.382-.345.005.221.991-.273.031-.046.351.088.067.159 1.496-.618.212-.608.103.134.764-.139.067-.901-1.739-.747.16-.819.15.129.64.757 4.154-1.072.191-2.292-.067-.154.011.149.769-.129.572-.175.346-.412.413-.865.253-.201-.939-.18-.971-1.159.207-.361.041.175-1.734.139-.454.222-.315 1.87-.532-.15-.846-.417-2.183-.422-2.318-1.401.258-4.435.842.201 1.166-1.396.284-.737.145-.288-1.44-.216-1.218-.186-.259-.345.006-.263-.15-.262.898-.438.387-.036.176-.273.201-.227-.026-.201.129-.35-.077-.355.061-.268-.041-.526.119-.299.186-.211.051-.082.176-.247.005-.145.103-.283-.01-.098-.563-.324-2.513-1.298.511-3.441 1.228-.237.067-2.534.898-.34-1.641-.149-.666-.361-1.863-.268-1.554-.216-1.104-1.648.315-.588-.465-.303-.325-.397-.232-.366-.325-.232-.331.181-.629.298-.134.258.01.124-.098.257-.728-.52-.335.026-.31-.113-.459-.299-.253-.392-.434-.123-.046-.196-.263-.052-.413-.324-.16.057-.424-.433-.283-.031-.253-.216-.067-.459.098-1.334.206-.175-1.079-3.987.671-.334-1.672 1.426-.289-.278-1.502.381-.057.026-.144-.376-.057-.144-.459-.469.057-.242-1.358 1.53-.232.742-.134.01-.165.237-1.136.113-.284.886-.144-.613-2.349-2.101.341-.428.041-1.416.238-.603.087-.716-.325-.02-.077-1.376.263-2.178.403-.443-2.385 1.117-.222.093-.444-.283-.216-.067-.62-.443-3.009-1.159.181-.51-3.437-.155-.759-2.158.501-.273-1.306-.19-.098-2.133.521-.355.026-.381-1.677-1.649.505-.613.217-.53.119.19.774-2.812.599-.757.123-.845.181-.438-.542-.154-.077-.263-.336.005-.118.242-.387.176-.455-.037-.263-.391-.325-.144-.382-.005-.253-.212-.232-.17-.465-.272-.252-.546-.63-.026-.439.231-.743.31-.253.18-.315.535-.511.237-.113.02-.403-.056-.397-.376-.067-.376-.222-.546-.114-.479-.026-.52-.872-.597-.563.365-.289.175-.051.418-.243-.021-.356.16-.057.231-.32.325-.258.278.367 1.411-.233 1.731-2.363 1.216-1.44.056-2.122.057-1.43.206.011.15-.114h.53l3.194.083-.346-1.636-.046.01-.206-.836-.247-1.528.273-.03 2.39-.073 2.627-.046-.026-.579.01-.985-.026-.227-.052-4.465 2.416-.052 2.236-.056 2.225-.042.051-.02.057-.031 2.931-.945.618 2.632 1.267-.33 1.046-.304.298.686 2.123-.201-.165-.434 1.463-.273 1.833-.33-.427-.847-1.066-2.163-.696-1.321-.391-.83-1.793-3.583-.252-.47 3.384-1.692-.021-.083.227-.304.124-.32-.021-.351-.226-.114-.16.088-.253-.186-.015-.227 1.726-.857 1.184-.557-.103-.29 1.53-.407.397 1.476-.031.444.474-.108.226.882 1.695-.304.093-.016-.928-3.406-.247-.944.505-.12-.469-1.357.17-.18.453-.135.284-.376.01-.305.319-.356.469-.222.438-.02.335-.227.262-.357.211.124.454.026.324-.165.464-.108.175.098.448.005.273.66-.175.326.052.397.283.444.268.3.031.438-.181.397.32.315-.072.305.226.077.289-.041-.041.289.412.294.34-.057.721-.273.453-.005.252.129.253-.031.113-.506-.16-.201.011-.264-.093-.289-.01-.366.149-.13.33-.066.479.268-.016.238.577.345-.072.439.191.253.381.098.33.155.412-.083.067-.31-.103-.552.092-.356.211-.31-.077-.185.211-.258.212.005.159-.263-.005-.253.18-.093.145.093-.005.366-.325.712-.206.28.191.283.252-.088.124-.196.51-.237.576-.594.325-.542.02-.392-.345-.578.175-.13.505.223.026.382.345.304.057.232-.201.532.211.047 1.02-1.404-1.128-1.25.958-.804 2.89-2.4 1.916-.883 1.164-.433 2.009-.692-.083-1.528 1.097-.681 1.453-.846.154-.145.263-.702-.675-.263.248-.666.813-1.95-.69-.79 1.468-1.26.309.072.196-.32-.139-.371-.119-.052-.406-.356.273-.14.139-.288-.026-.119-.567-.377-.304-.454.793-.485-.134-.325-.133.015-.212-.304-.448.02 1.242-1.641 1.133.851-1.319 1.74.113.62.5-.378.206.047.701-.191.165-.093.169-.377-.355-.294.433-.599.505.382.88-.433.124-.392.536-.026.561-.088.577-.186.077.759.057.17.293.067.717-.273.741.232.258-.057.35.052.86-.016.093-.113.278.531.479.186.515-1.352.031-.33.314-1.59-.061-.289-.253-.439.227-.47 1.313-.221.953-.14 2.164.986.731-.712.742-.31.123-.17.088.026 2.086-.5.263-.27.592-1.088.433.227-.227.413.216.124.284.294.01.165.335.057.35.382.489.19.201-.061.191.18.185-.273.392.103.886.573 1.38.96 1.015.728 1.9.851 1.52.666.02 1.115-.077.258-.443 1.156-.5 1.306.006.103 1.998 4.32-1.004 1.533.041.34-.17.016-.155.552-.474.258-.18.233-.185-.057-.464.722.16.088 2.441.506 2.128.48 3.353.697.984.144.819.031.659 1.863.015.073.654 1.873.062.052.66 1.94.242.34.139.863.587-.134.5.51-.799.486.562 1.693.324.015.309.31.18.47.34.097.119.32.299.264-.237.19-.335.12-1.643.495-1.102.356-1.206.444-.438.201.268.862-.432.062-2.54.444-.355.046-.387.32-.221-.026-.283-.17-.412.02-.582-.34.056-.119-.324-.284-.047-.475-.443-.154-.386.345 1.226 3.603-1.416 1.615 1.153 1.043.376 1.94.155.589.639 1.775.252.738.876-.283.386 1.15-.886.233.283.877-.762.274-.355-1.09-1.113.656-.258-.315-1.875 1.275-.983.64.092.201.191.135.613.727.103.181.376.206.242.475.438-.005.041.165.196.17.036 1.497.015.955.227.16.572.738.087.202-.056.175-.201-.077-.119-.228-.587-.541-.283-.088-.588-.036-.448-.114-.247-.01-.304.547-1.339-.65-.546.093-.263.17-2.008 1.388-.057 4.305-1.293-.031-.185 2.508.715.072.006-.17.51-.041.036.309.092.062.727.155.185.093-.026.175.211.134-.118.191.093.893.319 2.906 1.442-.16 1.37-.119.078 1.605.185 2.395.108 1.972.196 3.329.546.072.479 2.384.566 1.606-.844.247.072.79.015 1.11.237-.026.072.449-.752.191.247 4.516-1.807.604.958 4.015 1.179 2.813.634.057.628 2.136.438 1.564-1.097.331.17.815.458 2.348 1.53-.155.067.047.144 1.321 1.612-.32.201 1.032 1.164-.211.289 1.517.026.537.87-.263.726-.15.062.361-1.72.315-.273.341-.541.217-.309-.052-.299.17-.262-.031-.629.098.026.129-.397-.031-.345-1.76-.566-.036-4.492.145.088 1.011-2.38.444-.432.093.309 1.77-2.035.382-.644.067-2.756-.892-.345-.016-.329.062-.521.32-3.569.609.113.671"/><path id="Кропивницький" fill="#C8C6C6" fill-rule="evenodd" d="m177.419 186.446-.582-2.958 3.44-.696.088-.171-.093-.645-.299-.34-.365-.578-.098-.351-.181.005-.303-1.234.52-.155-.232-1.156.046-.738 2.509-.098.252-.026-.134-.66-.082-.067-.052-.398-.159-.526-.021-1.905-.072-.48-.175-.475-.144-.211-.345-1.12.144-.367-.072-.583-.417.083-1.391.34-.047-.18-.298-1.936-.041-.671-.062-.026-.515-3.189-1.752.325-.134-.098-.53.057-.742.154-.484-.072.041.423-1.416.326-.16-.042-.134-.624-.412.222.175.18-.129.238-.278.113-.015.212-.17.041-.098.202.088.263-.32.227-.149.258-.252-.134-.49.051-.36.191-.103-.366-.495-2.947-.505-2.973-.396-2.426-.51-2.89 1.009-.201 3.565-.656-.196-1.006-.036-.367-.185-.96-.505-2.797-.412-2.441-.114-.671 3.57-.609.52-.32.33-.062.345.015 2.756.893.644-.067 2.034-.382-.309-1.77.433-.093 2.379-.444-.087-1.012 4.491-.144.567.036.345 1.76.397.031-.026-.129.628-.098.263.031.298-.17.31.051.54-.217.273-.34 1.721-.315-.062-.361-.726.149-.871.264-.026-.537-.288-1.518-1.164.212-.201-1.032-1.612.32-.145-1.321-.067-.047-1.529.155-.459-2.348-.17-.816 1.097-.33-.437-1.564-.629-2.137-.633-.056-1.18-2.813-.958-4.016 1.808-.604-.247-4.516.752-.191-.072-.449-.237.026-.016-1.109-.072-.79.845-.248-.567-1.605-.479-2.384-.546-.073-.195-3.329-.109-1.971-.185-2.395-.077-1.605-1.37.119-1.443.16-.319-2.906-.093-.893.119-.191-.211-.134.025-.176-.185-.092-.726-.155-.093-.062-.036-.31-.51.041-.005.17-.716-.072.185-2.508 1.293.031.057-4.304 2.009-1.388.262-.17.546-.094 1.339.65.304-.546.247.01.449.113.587.037.283.087.587.542.119.227.201.078.056-.176-.087-.201-.572-.738-.227-.16-.015-.955-.036-1.497-.196-.17-.041-.165-.438.005-.242-.475-.376-.206-.103-.181-.613-.728-.19-.134-.093-.201.984-.64 1.875-1.275.257.315 1.113-.656.355 1.09.762-.274-.283-.878.886-.232-.386-1.15-.876.283-.252-.738-.639-1.775-.154-.589-.377-1.94-1.153-1.043 1.416-1.615-1.226-3.603.387-.346.443.155.046.475.324.284-.056.118.582.341.412-.02.283.17.222.026.386-.32.355-.047 2.54-.444.432-.062-.267-.862.437-.2 1.206-.445 1.102-.356 1.643-.495.335-.12.237-.19-.299-.263-.118-.32-.34-.098-.181-.47-.309-.31-.324-.015-.562-1.693.799-.485-.5-.511-.587.134-.139-.862-.242-.34-.66-1.94-.061-.053-.654-1.873-.016-.072-.659-1.864-.819-.03-.984-.145-3.353-.697-2.127-.48-2.442-.506-.16-.087.464-.723.185.057.181-.232.473-.258.155-.553.17-.015-.041-.34 1.004-1.533-1.998-4.32-.005-.104.499-1.306.742.837.649-.97.082-.083.108-.656.17-.062.098-.201.351-.145.473-.738.109-.505.618-.067.02-.31.124-.15.201.346.206-.103.175.304.36-.18.871-.279 1.097-.382.819-.5.464.412.18-.093.51-.526.314-.707.927-.934 1.236 1.12.217-.062.432.81.448-.093 2.169-.537.309.501.834-.196-.092.361.211.238.036.2-.139.104-.17.418-.227.057-.165.335.438.026.119-.217.237.155.216.372.556.067.005-1.089.613-.155h.716l2.117-.026.479-.552-.041-.774.093-.3-.021-1.914.14-.367-.016-.263-.556-.666-.206.01-.077-.16-1.067-.015.088-.201.247-.191-.134-1.022.232-.325-.124-.196.716-.238 1.051-.139.319-.083.201-.283.139-.068.655.078.566-.124.155-.274.026-.593.221-.8-.02-.186-.279-.35.145-.424.623-.32.324.046.356.17.093.16.679.063.15.144.396.18.299.011.072.377.181-.016.36-2.1.18-.909.407-2.348.294-1.651.072-.259.201-1.099-.036-.02-.17-.98.381-.352.371.041.371.315.309.02.252.15.366-.216.191.165.242-.18-.067-.27.237-.35-.011-.31-.082-.113-.237.098-.309.036-.026-.496.165-.79.072-.17.33-.17.051-.227.443-.031.464.19.299-.04.108.144.288.026-.077-.826.355.485.294.217.371.588.268-.025.031.314.731-.17.077.067.464-.087.165-.842 2.864.243-.078.604.253-.047.226.707.649-.227.381-.067.825 2.792-.397.552-.072.202.118.222-.113.35.294.465.252.031.201-.144.165.428.232.284.71.114.258.242.304.13-.124.231 1.365-.082.34-.145.237-.31.16-.34.19-.686.237-.403.659.258.691-1.719.087.516.191.434.154.134.33.088-.072.134.067.454.355.052.134-.201.211-.088.175.18-.056.238.206.046.252.284.232-.087.088.19.237.14-.675.19.726 2.37-.175.402.062.294.262.305.727-.614.654-.232-.098-.259.222-.185.401.418-.118.35.201.76-.258.397.263.19.082.305.32.547-.181.614.253.264.618.315.216.764-.103.227.17.185-.448.377.314.382-.216.66-.165.403.108.067.134.403.216.268.145.016.216.438.211.176-.072.242.175.382-.062.243-.257.315.211.17 1.808-.114.196-.077.453-.01.093-.165-.206-.47-.279-.067-.221-.465.072-.16-.314-.18-.021-.109.253-.541.34-.17-.052-.145-.546-.248-.134-.526.031-.16.768.072.041.051.562.047-.088.237.041.155.593.325.561.367.84-.233-.124.935.53.129.284-.052.195-.351.207-.196.247.03.031-.231-.196-.16.01-.264.51-.056.222-.207.206.036.386-.325.067.45.134.247-.294.387.294.15.129.175.551-.134.196.01.154-.16.227.047.345.268.309-.046.206-.274.273.062.113-.103.17.304.479-.072.072.098.531.015.577-.237 1.303-.144.257-.114-.535-1.244.376-.015.082-.093-.278-.201-.221-.527-.021-.402-.17-.233-.041-.36.191-.584.185-.222.124.212.206.16.437.19.088.155.932-.144.196 1.13 1.185-.201 1.566-.212.226 1.626.134.49.047.46.288 1.78.536.45h.304l.334.32-.185.133-.345.021-.15.124-.355-.062.113.625.304.206.495-.067.242-.557.561.428.253-.18.463.64.263.221.191.511-.006.408-.18.201.505 3.376.829.067.088-.66.669.066 1.01.145.051.046.449.908.788-.944.216-.3.278-.237.572.47.144.16 1.705 1.543.062-.18.984-.155.185.454.021.402.087.687.242 1.538.206 1.662.284 1.94.133 1.156.119.92-2.792.391.093.697-2.952.413-.479.088-.994.108-1.509.222.252 1.708.536 3.794.124.728.494 3.416h-.154l-.263.15.247.155-.031.113-.365.083-1.371.212.263 1.847 2.045.13.005.149.247 1.78-1.988.269-.051-.108-1.69.196.33 2.952-.68.103-.438.32.407.207.263.216.082.305.376.521.412.269.217.19.154.341.309.01.134.15.149-.046.711-.057.253 1.853-.036.216.149.382.34.413.52-.48.18.17.366-.051.165.067.124.258.865.005 1.118-.444.159-.268.644-.103.072-.124-.041-.475.258-.346-.006-.237.14-.145.149.119-.01.243-.186.392-.113.119.314 1.987-2.601.423-.057-.418-1.849.31-.082.17.237.33-.088.201.113.418-.123.295-.258.32-.257-.01-.212-.114h-.762l-.505-.49-.267-.135-.33.878.644.454-.598 2.27-.881.047.129 2.271-.808.212.288 1.765h1.473l.546 3.865-.237.032-.427-.238-.129.01-.278.243.793.94-.077.376.422.279-.695.846-.016.067.186.976.062.531.381-.056.17 1.12.335.01.314 2.002-.232.196-.268-.087.119.304-.351.083.042.129.303.175 1.829.971.464.268 2.189 1.161.252.114.5-1.105 2.853-.841 2.395-1.775.546-.434-.417-.217-.113-.975 3.389-.485.139.263 5.398-.79-.386-2.9 1.823-.258 1.062-.135.061 1.167.345.175-.633.083.175 1.337.422 3.065 1.7-.123 1.695-.15.278 2.219.767-.098.181 1.492-1.54.227-.773.098.257 2.059.139.919-.102.02.092.738-.762.083.314 2.307.062.501-.752.108.165 1.249-.927-.005-1.556-.041.108 1.042.067.32.186 1.352.592 4.011 2.101-.289.073-.021 1.993-.258.299.062.257 2.4-.005.098.144 1.295.577-.077.253 2.209 1.411-.346.443 3.391.639-.098.37 2.637-.654.088.67 4.934.118.3.036.325-.061.361-1.407.201.366 2.695.186 1.233 1.478-.227.067.516.165.821 1.916-.305-.134-1.063-.108-.609.098-.041 2.364-.341.232 1.683.855-.129.283 1.842.144 1.058-.093.098-1.148.176.031.268-3.08.47.118.671.165 1.14 3.09-.464-.128-.847.36-.124.072.393.855-.135.129.764-1.262.186.088.614.185 1.125-4.466.682-.123.18-1.489.238.108.712-1.056.165.186 1.192.381-.062.072.666.361 2.555-.485.062-.407-2.823-1.694.284-1.123.165-.057.279-.288.216-.021.15.093.449-.041.361.211.403.17.175-.082.196-.217.099-.654.108-.937.212-.315.025-.556.114-2.75.464-.814.119.051.3-.376.103.273 1.682-.365.088-.309.315-.485.103.145.738.206.299.031.248-.196.207-.031.237.067.336-.18.304-.011.258-.17.284.078.392-.047.253-.721-.186-.376-.273-.278-.026.02-.155-.185-1.089-.247-1.528-.598-3.556-.18-1.161-.639.201-1.251.769-.624.382-.551.263-.195.021-.309-.609-.33-.294-.103.134-1.396.253-1.138.227.226.743-2.75.496-.134-.708-.938.161.16.965.221.087.397.269.386.093.155.547.51 2.787.196 1.13-2.344.392-.155-.335-.144.046-1.777.284-1.463.243-1.056.196-.257.48-.18-.083-.227.083-.309-.005-.031-.831-.355.124-.057-.165-.582.01.046-.398.309-.175-.067-.33-.309-.382-.293-.026-.562.103-1.226.222h-.108l-2.467.428-.119-.067-1.323.248-2.2.382-.149-.062.206 1.373.041.067.314 2.162.124.935 2.354-.439 1.03-.207.072.315-.005.346-.129.253.196.165.433.862.149.464-.211.073-2.596.48-1.617.273-1.778.315-.036-.015-1.705.294.181 1.027.165 1.079 1.674-.274.087-.031.757 4.315-1.792.258.407 2.266.499-.604.232.547.134.217-.17.129-.397 1.037-.741.361-.685 1.673.144.851-2.313.387-.499.073-.005.32-.789.139-1.354.268-3.956.702-.021.026-1.148.212-1.453.248-.386.16-.773.077-.68.139-.231-.015-.541.083-2.076.376-.628.093-1.201.227-1.251.269-.165-.016-.17-.604-.026-.263.165-.165-.036-.232-.335-.212-.314-.062-.124.346-.268.237-.983.279-.258.016-.314-.336.201-.15.314.083.19-.206-.19-.104-.495.005-.407.176-.252.212-.149-.186-.139.098-.675.201-.211.206-.366-.015-.242.289.025.351-.417.14-.201-.161-.329-.129-.438-.459-.407-.284-.077-.222-.608-.175-.778-.836-.103-.676-.134-.233-.381-.051-.155-.599-.2.237-.428-.196-.232.098-.267-.17-.279-.568-.515.145-2.786.552-2.39.454.283 2.643-1.473.284.185.887.593 3.035-2.184.423-1.813.351-2.04.408-.057-.083-.196-1.104-.231-.083.051.382-.494.434-.345.098.097.165-.154.32-.175-.072-.201.211-.155-.103.047-.165-.397-.573.134-.294-.299.026-1.195.222-.108.005-.649-3.592-1.664.278-.345-1.811-.52.088-.257-1.342-1.417.263-.118-.614-.289-1.002-1.231.207-2.045.371-.103-.392-.659.088-2.436.408-1.571.284.262 1.357-2.307.428-1.556.305-3.312.599.077.149-.417.098-3.049.527-.33-1.378" clip-rule="evenodd"/><path stroke="#000" stroke-linecap="round" stroke-linejoin="round" stroke-width=".2" d="m177.419 186.446-.582-2.958 3.44-.696.088-.171-.093-.645-.299-.34-.365-.578-.098-.351-.181.005-.303-1.234.52-.155-.232-1.156.046-.738 2.509-.098.252-.026-.134-.66-.082-.067-.052-.398-.159-.526-.021-1.905-.072-.48-.175-.475-.144-.211-.345-1.12.144-.367-.072-.583-.417.083-1.391.34-.047-.18-.298-1.936-.041-.671-.062-.026-.515-3.189-1.752.325-.134-.098-.53.057-.742.154-.484-.072.041.423-1.416.326-.16-.042-.134-.624-.412.222.175.18-.129.238-.278.113-.015.212-.17.041-.098.202.088.263-.32.227-.149.258-.252-.134-.49.051-.36.191-.103-.366-.495-2.947-.505-2.973-.396-2.426-.51-2.89 1.009-.201 3.565-.656-.196-1.006-.036-.367-.185-.96-.505-2.797-.412-2.441-.114-.671 3.57-.609.52-.32.33-.062.345.015 2.756.893.644-.067 2.034-.382-.309-1.77.433-.093 2.379-.444-.087-1.012 4.491-.144.567.036.345 1.76.397.031-.026-.129.628-.098.263.031.298-.17.31.051.54-.217.273-.34 1.721-.315-.062-.361-.726.149-.871.264-.026-.537-.288-1.518-1.164.212-.201-1.032-1.612.32-.145-1.321-.067-.047-1.529.155-.459-2.348-.17-.816 1.097-.33-.437-1.564-.629-2.137-.633-.056-1.18-2.813-.958-4.016 1.808-.604-.247-4.516.752-.191-.072-.449-.237.026-.016-1.109-.072-.79.845-.248-.567-1.605-.479-2.384-.546-.073-.195-3.329-.109-1.971-.185-2.395-.077-1.605-1.37.119-1.443.16-.319-2.906-.093-.893.119-.191-.211-.134.025-.176-.185-.092-.726-.155-.093-.062-.036-.31-.51.041-.005.17-.716-.072.185-2.508 1.293.031.057-4.304 2.009-1.388.262-.17.546-.094 1.339.65.304-.546.247.01.449.113.587.037.283.087.587.542.119.227.201.078.056-.176-.087-.201-.572-.738-.227-.16-.015-.955-.036-1.497-.196-.17-.041-.165-.438.005-.242-.475-.376-.206-.103-.181-.613-.728-.19-.134-.093-.201.984-.64 1.875-1.275.257.315 1.113-.656.355 1.09.762-.274-.283-.878.886-.232-.386-1.15-.876.283-.252-.738-.639-1.775-.154-.589-.377-1.94-1.153-1.043 1.416-1.615-1.226-3.603.387-.346.443.155.046.475.324.284-.056.118.582.341.412-.02.283.17.222.026.386-.32.355-.047 2.54-.444.432-.062-.267-.862.437-.2 1.206-.445 1.102-.356 1.643-.495.335-.12.237-.19-.299-.263-.118-.32-.34-.098-.181-.47-.309-.31-.324-.015-.562-1.693.799-.485-.5-.511-.587.134-.139-.862-.242-.34-.66-1.94-.061-.053-.654-1.873-.016-.072-.659-1.864-.819-.03-.984-.145-3.353-.697-2.127-.48-2.442-.506-.16-.087.464-.723.185.057.181-.232.473-.258.155-.553.17-.015-.041-.34 1.004-1.533-1.998-4.32-.005-.104.499-1.306.742.837.649-.97.082-.083.108-.656.17-.062.098-.201.351-.145.473-.738.109-.505.618-.067.02-.31.124-.15.201.346.206-.103.175.304.36-.18.871-.279 1.097-.382.819-.5.464.412.18-.093.51-.526.314-.707.927-.934 1.236 1.12.217-.062.432.81.448-.093 2.169-.537.309.501.834-.196-.092.361.211.238.036.2-.139.104-.17.418-.227.057-.165.335.438.026.119-.217.237.155.216.372.556.067.005-1.089.613-.155h.716l2.117-.026.479-.552-.041-.774.093-.3-.021-1.914.14-.367-.016-.263-.556-.666-.206.01-.077-.16-1.067-.015.088-.201.247-.191-.134-1.022.232-.325-.124-.196.716-.238 1.051-.139.319-.083.201-.283.139-.068.655.078.566-.124.155-.274.026-.593.221-.8-.02-.186-.279-.35.145-.424.623-.32.324.046.356.17.093.16.679.063.15.144.396.18.299.011.072.377.181-.016.36-2.1.18-.909.407-2.348.294-1.651.072-.259.201-1.099-.036-.02-.17-.98.381-.352.371.041.371.315.309.02.252.15.366-.216.191.165.242-.18-.067-.27.237-.35-.011-.31-.082-.113-.237.098-.309.036-.026-.496.165-.79.072-.17.33-.17.051-.227.443-.031.464.19.299-.04.108.144.288.026-.077-.826.355.485.294.217.371.588.268-.025.031.314.731-.17.077.067.464-.087.165-.842 2.864.243-.078.604.253-.047.226.707.649-.227.381-.067.825 2.792-.397.552-.072.202.118.222-.113.35.294.465.252.031.201-.144.165.428.232.284.71.114.258.242.304.13-.124.231 1.365-.082.34-.145.237-.31.16-.34.19-.686.237-.403.659.258.691-1.719.087.516.191.434.154.134.33.088-.072.134.067.454.355.052.134-.201.211-.088.175.18-.056.238.206.046.252.284.232-.087.088.19.237.14-.675.19.726 2.37-.175.402.062.294.262.305.727-.614.654-.232-.098-.259.222-.185.401.418-.118.35.201.76-.258.397.263.19.082.305.32.547-.181.614.253.264.618.315.216.764-.103.227.17.185-.448.377.314.382-.216.66-.165.403.108.067.134.403.216.268.145.016.216.438.211.176-.072.242.175.382-.062.243-.257.315.211.17 1.808-.114.196-.077.453-.01.093-.165-.206-.47-.279-.067-.221-.465.072-.16-.314-.18-.021-.109.253-.541.34-.17-.052-.145-.546-.248-.134-.526.031-.16.768.072.041.051.562.047-.088.237.041.155.593.325.561.367.84-.233-.124.935.53.129.284-.052.195-.351.207-.196.247.03.031-.231-.196-.16.01-.264.51-.056.222-.207.206.036.386-.325.067.45.134.247-.294.387.294.15.129.175.551-.134.196.01.154-.16.227.047.345.268.309-.046.206-.274.273.062.113-.103.17.304.479-.072.072.098.531.015.577-.237 1.303-.144.257-.114-.535-1.244.376-.015.082-.093-.278-.201-.221-.527-.021-.402-.17-.233-.041-.36.191-.584.185-.222.124.212.206.16.437.19.088.155.932-.144.196 1.13 1.185-.201 1.566-.212.226 1.626.134.49.047.46.288 1.78.536.45h.304l.334.32-.185.133-.345.021-.15.124-.355-.062.113.625.304.206.495-.067.242-.557.561.428.253-.18.463.64.263.221.191.511-.006.408-.18.201.505 3.376.829.067.088-.66.669.066 1.01.145.051.046.449.908.788-.944.216-.3.278-.237.572.47.144.16 1.705 1.543.062-.18.984-.155.185.454.021.402.087.687.242 1.538.206 1.662.284 1.94.133 1.156.119.92-2.792.391.093.697-2.952.413-.479.088-.994.108-1.509.222.252 1.708.536 3.794.124.728.494 3.416h-.154l-.263.15.247.155-.031.113-.365.083-1.371.212.263 1.847 2.045.13.005.149.247 1.78-1.988.269-.051-.108-1.69.196.33 2.952-.68.103-.438.32.407.207.263.216.082.305.376.521.412.269.217.19.154.341.309.01.134.15.149-.046.711-.057.253 1.853-.036.216.149.382.34.413.52-.48.18.17.366-.051.165.067.124.258.865.005 1.118-.444.159-.268.644-.103.072-.124-.041-.475.258-.346-.006-.237.14-.145.149.119-.01.243-.186.392-.113.119.314 1.987-2.601.423-.057-.418-1.849.31-.082.17.237.33-.088.201.113.418-.123.295-.258.32-.257-.01-.212-.114h-.762l-.505-.49-.267-.135-.33.878.644.454-.598 2.27-.881.047.129 2.271-.808.212.288 1.765h1.473l.546 3.865-.237.032-.427-.238-.129.01-.278.243.793.94-.077.376.422.279-.695.846-.016.067.186.976.062.531.381-.056.17 1.12.335.01.314 2.002-.232.196-.268-.087.119.304-.351.083.042.129.303.175 1.829.971.464.268 2.189 1.161.252.114.5-1.105 2.853-.841 2.395-1.775.546-.434-.417-.217-.113-.975 3.389-.485.139.263 5.398-.79-.386-2.9 1.823-.258 1.062-.135.061 1.167.345.175-.633.083.175 1.337.422 3.065 1.7-.123 1.695-.15.278 2.219.767-.098.181 1.492-1.54.227-.773.098.257 2.059.139.919-.102.02.092.738-.762.083.314 2.307.062.501-.752.108.165 1.249-.927-.005-1.556-.041.108 1.042.067.32.186 1.352.592 4.011 2.101-.289.073-.021 1.993-.258.299.062.257 2.4-.005.098.144 1.295.577-.077.253 2.209 1.411-.346.443 3.391.639-.098.37 2.637-.654.088.67 4.934.118.3.036.325-.061.361-1.407.201.366 2.695.186 1.233 1.478-.227.067.516.165.821 1.916-.305-.134-1.063-.108-.609.098-.041 2.364-.341.232 1.683.855-.129.283 1.842.144 1.058-.093.098-1.148.176.031.268-3.08.47.118.671.165 1.14 3.09-.464-.128-.847.36-.124.072.393.855-.135.129.764-1.262.186.088.614.185 1.125-4.466.682-.123.18-1.489.238.108.712-1.056.165.186 1.192.381-.062.072.666.361 2.555-.485.062-.407-2.823-1.694.284-1.123.165-.057.279-.288.216-.021.15.093.449-.041.361.211.403.17.175-.082.196-.217.099-.654.108-.937.212-.315.025-.556.114-2.75.464-.814.119.051.3-.376.103.273 1.682-.365.088-.309.315-.485.103.145.738.206.299.031.248-.196.207-.031.237.067.336-.18.304-.011.258-.17.284.078.392-.047.253-.721-.186-.376-.273-.278-.026.02-.155-.185-1.089-.247-1.528-.598-3.556-.18-1.161-.639.201-1.251.769-.624.382-.551.263-.195.021-.309-.609-.33-.294-.103.134-1.396.253-1.138.227.226.743-2.75.496-.134-.708-.938.161.16.965.221.087.397.269.386.093.155.547.51 2.787.196 1.13-2.344.392-.155-.335-.144.046-1.777.284-1.463.243-1.056.196-.257.48-.18-.083-.227.083-.309-.005-.031-.831-.355.124-.057-.165-.582.01.046-.398.309-.175-.067-.33-.309-.382-.293-.026-.562.103-1.226.222h-.108l-2.467.428-.119-.067-1.323.248-2.2.382-.149-.062.206 1.373.041.067.314 2.162.124.935 2.354-.439 1.03-.207.072.315-.005.346-.129.253.196.165.433.862.149.464-.211.073-2.596.48-1.617.273-1.778.315-.036-.015-1.705.294.181 1.027.165 1.079 1.674-.274.087-.031.757 4.315-1.792.258.407 2.266.499-.604.232.547.134.217-.17.129-.397 1.037-.741.361-.685 1.673.144.851-2.313.387-.499.073-.005.32-.789.139-1.354.268-3.956.702-.021.026-1.148.212-1.453.248-.386.16-.773.077-.68.139-.231-.015-.541.083-2.076.376-.628.093-1.201.227-1.251.269-.165-.016-.17-.604-.026-.263.165-.165-.036-.232-.335-.212-.314-.062-.124.346-.268.237-.983.279-.258.016-.314-.336.201-.15.314.083.19-.206-.19-.104-.495.005-.407.176-.252.212-.149-.186-.139.098-.675.201-.211.206-.366-.015-.242.289.025.351-.417.14-.201-.161-.329-.129-.438-.459-.407-.284-.077-.222-.608-.175-.778-.836-.103-.676-.134-.233-.381-.051-.155-.599-.2.237-.428-.196-.232.098-.267-.17-.279-.568-.515.145-2.786.552-2.39.454.283 2.643-1.473.284.185.887.593 3.035-2.184.423-1.813.351-2.04.408-.057-.083-.196-1.104-.231-.083.051.382-.494.434-.345.098.097.165-.154.32-.175-.072-.201.211-.155-.103.047-.165-.397-.573.134-.294-.299.026-1.195.222-.108.005-.649-3.592-1.664.278-.345-1.811-.52.088-.257-1.342-1.417.263-.118-.614-.289-1.002-1.231.207-2.045.371-.103-.392-.659.088-2.436.408-1.571.284.262 1.357-2.307.428-1.556.305-3.312.599.077.149-.417.098-3.049.527-.33-1.378"/></svg>