<svg xmlns="http://www.w3.org/2000/svg" width="204" height="293" fill="none" viewBox="0 0 204 293"><path id="Старобільський" fill="#C8C6C6" fill-rule="evenodd" d="m83.776 135.583-1.093-.036-1.467-.104-3.477-.175-.093.263.02.212.253.469-1.272-.046.062.253-.454.186-.432.242.03.134-.607.124-.402-.284-.422-.603-.212-.109-.128-.253-.289.047-.257.315-.088.227-.252.232-.186.041.042-1.109.092-1.394-.015-.113.443-.021 2.112-.17-.15-2.023-.103-1.053-1.282.082-.624.119-.108-.114-.056-.856-.392-.94-.051-.237.283-.031-.077-1.28-.078-1.714-.092-1.171-.026-1.853-.155-.434.088-.536-.263-.057-.139-.171-.438-.025-.092.103-.3-.171-.592-.072-.535-.407-.206-.248-.026-.387.144-.279-.407-.046-.309-.176-.417.268-.088-.16-.262-.036-.134.243-.505.124-.237-.325-.268.025-.752-.144-.2.201-.15-.108-.222.082.093-.211.505-.666.515-.733-.088-1.29-1.41.129-.284.072-.412-.253-.3-.005.078.217-.144.155-.32-.114-.087-.774-.979.088-1.797.186-.927.082-.078-.02-.391-.965-1.803.17.402.955-.695.077-.135-.083-.03-.356-.14-.144-.494-.253-.325.057.892-1.471-.134-1.074-.902-.862-1.251-1.171-.598-.687-.18-.062-.263-.351.258-.18.298-.072.114-.181.206-.692.046-.924-.092-.98-.804-.14.036-.191.057-1.326 1.164.015.896.037.994-.248.469.021 1.015-.109.427.021.201.836.788-.082.407-.078-.077-1.399.814-.304.53-1.017.551-1.099.47-1.141.313-1.827.016-.196.2-1.13.531.062.752.124.51.01.196-.217 1.066-1.414.35-.444-.288-1.708-.124-1.238-.077-1.27-1.21-.42-.397-.115-.912-.35.041-.19-.52-.381.046-.555.083-.41.144-.458.268-.604.628-.305.196-.033.469.198.231-.163.201-1.177 1.38.145.186-.402.654-.728.922.28 1.025.337.958.38.361 2.034.108.099.51 2.025-.036.058-.876.12.114.453.19 1.069-.226.326.21.475.202.588.736.656.484.5 1.566-.856 1.17.454 1.303.541 1.148.506 1.103.553.206-.13-.078-.139 1.613-.614 1.159-.62.082-.015.695-.433.356-.305.072.16.479-.449.33-.03.5-.228.849-.18 1.133-.33.85.097 2.292-.01.057-2.043.026-.485.901.078.113-.053-.38-1.16-.29-.884-.071-.146-.752-.607-.541-.471-.752-.569-.639-.086.52-2.664.057-.058.953-.444.154-.1.279-.443 1.092-1.618.149-.293.124-1.307-.268-1.32.705-.76.845-1.143v-.31l.103-.537.026-.635-.005-1.075-.196-1.16-.139-.366-.216-.246-.335-.604-.5-.955-.365-.784-.376-2.179.056-.666.098-.805.19-1 .238-1.097.463-1.929.16-.748.103-.32 1.514.287 1.16.126.02-.33.247.011.211-.1-.026-.707-.376-.037.016-.197-.376-.473-.248.045-.443-.704 1.38-.164-.056-1.567-.427.272-.278-.024-.289-.132-.041-.19.227-.22.257.011.525-.126.315-.227.123-.55.119-.292.098-.424-.078-.095.134-.25.232-.137-.046-1.074-.7-.42-.583-.193-.072-1.023-.211-.228-1.056-.945-.294.301-1.504-2.251-1.107-1.304-.294.819-.53.168-.34-.18-.098-.195-.165.46-.726-.25.02-.345-.293-.114-.34-.333-.34.326-.654-.222-.165.558-.35.902-1.53-.538-.258.67-.263.78-1.74-.513-.14.014-1.354-.4-.078-.003.562-2.014.515-1.92.165-.515-.036-.453-.48-.04.114-.563.69-.082-.144-.675.603-.173-.423-2.004 1.21-.315 1.968-.472.48-.139.108-.351.056-.924.84-.672.376-.25.66-.531 1.256-.962.32-.27.669-.474 1.05.053.01.213.892-.208.443.393.093.163-.222.175.268.41.129.598.154.12.438-.025.067.14-.134.316.263.495.314-.09-.005-.225.448-.17.407.162.479.451.71-.54.65-.576.345-.165 1.174-.257h.119l1.55-.888.15-.112 1.226-.706.205-.08.825-.154.314.072 1.318.559 1.376.28.283-.435.464-.365 1.014-.708.284-.225.561-.359.819-.585.263-.235.515-.742.335-.674.87-1.683 1.659-1.424.082-.038 1.489-1.317.891-.746.139.014.669.477.541 1.504.438.428.108.012.505 1.175.093.115.705 1.246.289.288-.031.18.551.992-.015.373.061.906.016 1.14.031.645.201.362-.011.516-.17.265.263.279.088.181.443.578.257.523.016.217.221.853.381.62.242.731.721.77.361.294.18.06.629.014.37.445.557 1.09.108.15.608.096.695.154.701.093 1.529.529 1.978.729 1.128.383.613.083.541.128.124-.017 1.664-1.157 1.045-.702.721-.334 1.257-.515.994-.138-.036.155.428.127h.324l.778.123.221-.003 1.036.11.937.362 1.746.794.428.17 1.339.62.876.24 1.555.339 1.406.175 1.123.091.376.062 1.334.145-.407.542-1.055 1.23-.083.161.34.7 1.499 2.858.376 1.207.376 1.273.597 1.967.072.314.505 1.751.222.937.721 1.086 1.092 1.539.912.161 1.375.219.716.827.18.085 1.442-.184.891.32.021.047 2.06.784 1.247 1.396.711.855 1.735 1.825 1.237 1.227.082-.211 2.519-.714.407.085 1.566.312.463.12 1.885.163.17-.004 3.534-1.876.211-.252 1.36-2.872 1.38-.199 1.195-.197 1.056-.126 1.679-.241.098-.06.556-.045 1.494-.215.871-.164.607-.045.603 1.036 1.447-.574.062-.005 1.298-.504.572-.267 1.179-.464 1.386-.571.371 2.789.67.944.52.768.808 1.106.536.68-2.992 1.535-2.236 1.355-1.458.845-.813.5-1.407.834-.34.158-.221.206-1.55.923-.134.446.164.72.016.425.19 1.17-.221 1.366-.211.95-.284 1.598.011.214-.32 1.442-.041.337 1.494 1.137.34.428.572.868.432.792.278.264.521 1.187.355.731.005.085 1.762 1.886.463.375.624.67.37.44 1.046.348.505.199.798.366.088.01 1.061.758-.134.15.206.154.134-.124.329.403-.175.356.541.774.361.403.412-.031.402.51.149.125.701.371.818.388-.386 1.274-.118.233-.067.505-.34 1.533-.088.96-.159.521-.356.511.191.104-.026.304.154 2.426.5.33 1.566 1.203.736.593.768.537-.526 1.352-.288.279-.124.387-.278-.01-.458.423-1.669.475-.938.15-.566-.078-1.932-.17-.922-.098-1.19 1.156-.247.537-.984 1.987-.237.227-1.014.841-.871 1.296-.366.603-.164.186-.871.201-3.044.723-.881 1.409-.86 1.068-.7 1.218-.397.393-1.622 2.322-.567.903-1.015 2.189-.917 1.626-.226.459-.459.743-.195.227.309 1.192.02.563-.36 1.662-1.417-.098-.937-.026-1.18-.377-1.236-.48-.134-.026-1.463.248-1.324.155-.618.144-1.071.171-.067-.036-.598.129-.298-.052-.361-.31-.185.093-.448.062-.479.351-.856.857-.891.753-.942.532-.737-.139-1.385-.093-.242-.088-1.298-.279-.835-.273-.139-.114-1.586-.315-.794.522-1.03.717.134.155.201.051.294.315.242-.18.226.294.011.242-.335.062.18.413-.52.46.031.371-.052.31-.2.253-.083.444.077.216.346.135-.629 1.269-.587.336 1.009 1.378-.298.273-.103-.005-.526.279-.422.346-.144-.155-.15.139-.19-.057-.366.119-1.983-2.73-.577.619-.67.831-.803.857-1.396 1.166-1.463-.671-.422-.16-2.328-1.047-.021-.016-.057-1.197-.061-1.884-.495-1.362-.541-1.358-.561-1.46-.68-1.827-.525-1.384-.448.036-.047-.629.371-.036-.031-.625.494-.021-.026-.784-.442.046-1.623.114-1.169.108-.119-.645-.098-1.512-.097-.232-.855-.067-.546.005-.145.32.175.273.15.64.273.238-.562.712-.139.294-.865 1.203 1.226.449-.108 1.233-.618.078-.021.361-.525-.005-.175.686-.227-.103-.088-.17-.18-.021-.366-.196-.324-.109-.309.135-.232-.088-.051-.124-.505-.222-.778-.392-.484-.233-.077-.118-1.36-.836-.974-.542-.556-.331-1.494-.851-.86-.542-1.653-.976-.047-.01-1.061.578-1.55.878-1.113-.3-.134.016-1.2-.346-.124-.057-.582-.547-.607-.64-.17-.238-.253-.547 1.819-1.46-.006-.145-.149-.02-.273-.661-.304.047-1.457.438-1.808.568-.928.222-.499-.145-.253-.154-.834-.269-1.844-.702-.443-.165-.072 1.874-.273 1.806-.057.243-1.447-.217-1.308-.176-1.077-.165-1.988-.273-.453-.052-2.071-.294-2.148-.32-.654-.067-.536-.088-2.045-.268-7.376-1.048-.896-.098-.438.304-1.72 1.126-.902.624-1.328.852-.953.655.16 4.47.03.593" clip-rule="evenodd"/><path stroke="#000" stroke-linecap="round" stroke-linejoin="round" stroke-width=".2" d="m83.776 135.583-1.093-.036-1.467-.104-3.477-.175-.093.263.02.212.253.469-1.272-.046.062.253-.454.186-.432.242.03.134-.607.124-.402-.284-.422-.603-.212-.109-.128-.253-.289.047-.257.315-.088.227-.252.232-.186.041.042-1.109.092-1.394-.015-.113.443-.021 2.112-.17-.15-2.023-.103-1.053-1.282.082-.624.119-.108-.114-.056-.856-.392-.94-.051-.237.283-.031-.077-1.28-.078-1.714-.092-1.171-.026-1.853-.155-.434.088-.536-.263-.057-.139-.171-.438-.025-.092.103-.3-.171-.592-.072-.535-.407-.206-.248-.026-.387.144-.279-.407-.046-.309-.176-.417.268-.088-.16-.262-.036-.134.243-.505.124-.237-.325-.268.025-.752-.144-.2.201-.15-.108-.222.082.093-.211.505-.666.515-.733-.088-1.29-1.41.129-.284.072-.412-.253-.3-.005.078.217-.144.155-.32-.114-.087-.774-.979.088-1.797.186-.927.082-.078-.02-.391-.965-1.803.17.402.955-.695.077-.135-.083-.03-.356-.14-.144-.494-.253-.325.057.892-1.471-.134-1.074-.902-.862-1.251-1.171-.598-.687-.18-.062-.263-.351.258-.18.298-.072.114-.181.206-.692.046-.924-.092-.98-.804-.14.036-.191.057-1.326 1.164.015.896.037.994-.248.469.021 1.015-.109.427.021.201.836.788-.082.407-.078-.077-1.399.814-.304.53-1.017.551-1.099.47-1.141.313-1.827.016-.196.2-1.13.531.062.752.124.51.01.196-.217 1.066-1.414.35-.444-.288-1.708-.124-1.238-.077-1.27-1.21-.42-.397-.115-.912-.35.041-.19-.52-.381.046-.555.083-.41.144-.458.268-.604.628-.305.196-.033.469.198.231-.163.201-1.177 1.38.145.186-.402.654-.728.922.28 1.025.337.958.38.361 2.034.108.099.51 2.025-.036.058-.876.12.114.453.19 1.069-.226.326.21.475.202.588.736.656.484.5 1.566-.856 1.17.454 1.303.541 1.148.506 1.103.553.206-.13-.078-.139 1.613-.614 1.159-.62.082-.015.695-.433.356-.305.072.16.479-.449.33-.03.5-.228.849-.18 1.133-.33.85.097 2.292-.01.057-2.043.026-.485.901.078.113-.053-.38-1.16-.29-.884-.071-.146-.752-.607-.541-.471-.752-.569-.639-.086.52-2.664.057-.058.953-.444.154-.1.279-.443 1.092-1.618.149-.293.124-1.307-.268-1.32.705-.76.845-1.143v-.31l.103-.537.026-.635-.005-1.075-.196-1.16-.139-.366-.216-.246-.335-.604-.5-.955-.365-.784-.376-2.179.056-.666.098-.805.19-1 .238-1.097.463-1.929.16-.748.103-.32 1.514.287 1.16.126.02-.33.247.011.211-.1-.026-.707-.376-.037.016-.197-.376-.473-.248.045-.443-.704 1.38-.164-.056-1.567-.427.272-.278-.024-.289-.132-.041-.19.227-.22.257.011.525-.126.315-.227.123-.55.119-.292.098-.424-.078-.095.134-.25.232-.137-.046-1.074-.7-.42-.583-.193-.072-1.023-.211-.228-1.056-.945-.294.301-1.504-2.251-1.107-1.304-.294.819-.53.168-.34-.18-.098-.195-.165.46-.726-.25.02-.345-.293-.114-.34-.333-.34.326-.654-.222-.165.558-.35.902-1.53-.538-.258.67-.263.78-1.74-.513-.14.014-1.354-.4-.078-.003.562-2.014.515-1.92.165-.515-.036-.453-.48-.04.114-.563.69-.082-.144-.675.603-.173-.423-2.004 1.21-.315 1.968-.472.48-.139.108-.351.056-.924.84-.672.376-.25.66-.531 1.256-.962.32-.27.669-.474 1.05.053.01.213.892-.208.443.393.093.163-.222.175.268.41.129.598.154.12.438-.025.067.14-.134.316.263.495.314-.09-.005-.225.448-.17.407.162.479.451.71-.54.65-.576.345-.165 1.174-.257h.119l1.55-.888.15-.112 1.226-.706.205-.08.825-.154.314.072 1.318.559 1.376.28.283-.435.464-.365 1.014-.708.284-.225.561-.359.819-.585.263-.235.515-.742.335-.674.87-1.683 1.659-1.424.082-.038 1.489-1.317.891-.746.139.014.669.477.541 1.504.438.428.108.012.505 1.175.093.115.705 1.246.289.288-.031.18.551.992-.015.373.061.906.016 1.14.031.645.201.362-.011.516-.17.265.263.279.088.181.443.578.257.523.016.217.221.853.381.62.242.731.721.77.361.294.18.06.629.014.37.445.557 1.09.108.15.608.096.695.154.701.093 1.529.529 1.978.729 1.128.383.613.083.541.128.124-.017 1.664-1.157 1.045-.702.721-.334 1.257-.515.994-.138-.036.155.428.127h.324l.778.123.221-.003 1.036.11.937.362 1.746.794.428.17 1.339.62.876.24 1.555.339 1.406.175 1.123.091.376.062 1.334.145-.407.542-1.055 1.23-.083.161.34.7 1.499 2.858.376 1.207.376 1.273.597 1.967.072.314.505 1.751.222.937.721 1.086 1.092 1.539.912.161 1.375.219.716.827.18.085 1.442-.184.891.32.021.047 2.06.784 1.247 1.396.711.855 1.735 1.825 1.237 1.227.082-.211 2.519-.714.407.085 1.566.312.463.12 1.885.163.17-.004 3.534-1.876.211-.252 1.36-2.872 1.38-.199 1.195-.197 1.056-.126 1.679-.241.098-.06.556-.045 1.494-.215.871-.164.607-.045.603 1.036 1.447-.574.062-.005 1.298-.504.572-.267 1.179-.464 1.386-.571.371 2.789.67.944.52.768.808 1.106.536.68-2.992 1.535-2.236 1.355-1.458.845-.813.5-1.407.834-.34.158-.221.206-1.55.923-.134.446.164.72.016.425.19 1.17-.221 1.366-.211.95-.284 1.598.011.214-.32 1.442-.041.337 1.494 1.137.34.428.572.868.432.792.278.264.521 1.187.355.731.005.085 1.762 1.886.463.375.624.67.37.44 1.046.348.505.199.798.366.088.01 1.061.758-.134.15.206.154.134-.124.329.403-.175.356.541.774.361.403.412-.031.402.51.149.125.701.371.818.388-.386 1.274-.118.233-.067.505-.34 1.533-.088.96-.159.521-.356.511.191.104-.026.304.154 2.426.5.33 1.566 1.203.736.593.768.537-.526 1.352-.288.279-.124.387-.278-.01-.458.423-1.669.475-.938.15-.566-.078-1.932-.17-.922-.098-1.19 1.156-.247.537-.984 1.987-.237.227-1.014.841-.871 1.296-.366.603-.164.186-.871.201-3.044.723-.881 1.409-.86 1.068-.7 1.218-.397.393-1.622 2.322-.567.903-1.015 2.189-.917 1.626-.226.459-.459.743-.195.227.309 1.192.02.563-.36 1.662-1.417-.098-.937-.026-1.18-.377-1.236-.48-.134-.026-1.463.248-1.324.155-.618.144-1.071.171-.067-.036-.598.129-.298-.052-.361-.31-.185.093-.448.062-.479.351-.856.857-.891.753-.942.532-.737-.139-1.385-.093-.242-.088-1.298-.279-.835-.273-.139-.114-1.586-.315-.794.522-1.03.717.134.155.201.051.294.315.242-.18.226.294.011.242-.335.062.18.413-.52.46.031.371-.052.31-.2.253-.083.444.077.216.346.135-.629 1.269-.587.336 1.009 1.378-.298.273-.103-.005-.526.279-.422.346-.144-.155-.15.139-.19-.057-.366.119-1.983-2.73-.577.619-.67.831-.803.857-1.396 1.166-1.463-.671-.422-.16-2.328-1.047-.021-.016-.057-1.197-.061-1.884-.495-1.362-.541-1.358-.561-1.46-.68-1.827-.525-1.384-.448.036-.047-.629.371-.036-.031-.625.494-.021-.026-.784-.442.046-1.623.114-1.169.108-.119-.645-.098-1.512-.097-.232-.855-.067-.546.005-.145.32.175.273.15.64.273.238-.562.712-.139.294-.865 1.203 1.226.449-.108 1.233-.618.078-.021.361-.525-.005-.175.686-.227-.103-.088-.17-.18-.021-.366-.196-.324-.109-.309.135-.232-.088-.051-.124-.505-.222-.778-.392-.484-.233-.077-.118-1.36-.836-.974-.542-.556-.331-1.494-.851-.86-.542-1.653-.976-.047-.01-1.061.578-1.55.878-1.113-.3-.134.016-1.2-.346-.124-.057-.582-.547-.607-.64-.17-.238-.253-.547 1.819-1.46-.006-.145-.149-.02-.273-.661-.304.047-1.457.438-1.808.568-.928.222-.499-.145-.253-.154-.834-.269-1.844-.702-.443-.165-.072 1.874-.273 1.806-.057.243-1.447-.217-1.308-.176-1.077-.165-1.988-.273-.453-.052-2.071-.294-2.148-.32-.654-.067-.536-.088-2.045-.268-7.376-1.048-.896-.098-.438.304-1.72 1.126-.902.624-1.328.852-.953.655.16 4.47.03.593"/><path id="Сватівський" fill="#C8C6C6" fill-rule="evenodd" d="m3.87 112.415-.21-.542-.484-1.063.84-.175.808-.3.407-.232.608-.103-.165-.418.185-.135.783-.283.376-.052-1.087-1.399 1.257-.97 1.159-.315.86-.026.263-.077.994-.212.505-.33-.335-.573-.556-1.177.051-.65-.299-.026-.71-.253-1.128-.346h-.515l-1.35-.314-1.494-.238.057-.588-.186-.036.083-.269-.067-.206-.443-.965.232-.341-.047-.072.31-.764.072-.403.236-.124.01-.371-.123-.656.144-1.073.222-1.14.072-.76.139-.837.32-2.5.05-.686-1.292-1.53-.14-.222-.215-.027.067-.21.118-1.602.067-.606-.443-.099.082-1.33-2.673.198.186-1.565.118-.496-.046-.264.21-1.856.114-1.355-.237-.224-.443-.24-.484-.13.124-.31.335-.332.236-.524-.103-.206-.175-.648.3-.902.102-.764 1.9.119 1.402.104.705-.744 1.983-1.237.711-.99.114-.805-3.452-.168.057-.35.355-.865.65-1.493.18-.56.17.055.273.314.36.082.598.354.551.173-.041-.45 1.03.03.752.053.639.123.051-.322-.154-.447-.392-.32-.71-.804-.279-.583-.072-.387.005-.455.65.014.046-.12.108-.97.062-1.135 1.493-.167 1.103.09-.042-.444v-.684l.495-.685.03-.09 1.18-.24.104-.099-.078-.242-.154-.129-.217-.457-.283-.894.747-.776 1.298-.385.386-.084 1.427-.422.994-.32.119-.08-.624-.458-.185-.184-.113.308-.212.093-.484-.478.284-.217.164-.261-.108-.175-.474-.254-.479-.677.078-.253-.747-.026.262-.196-.03-.549-.258-.191.263-.11-.083-.239-.005-1.068-.598.024-.643-.668 1.591-.767-.072-.88-.546-.165-.546.085-.561.012-.541-.292-1.345.934-.34-.315-.942-.973-.716-1.588.015-.15.773-2.022.66-1.6.71-1.108.196.199.072.188.232 1.26.139.019.345.334.896-.102.778-.441.098-.105.087-1.015.222-.15.906-.772-.046-.268 1.138-.544.124-.57 1.231-.086.196-1.056-.536-.205-.16.032-.587-.268-.443-.572-.36-.376-1.746-1.399.854-2.85-.072-.383 1.978-.2.562-.011.55.238 1.15.16.412-.005.376-.145.226-.166 1.03-.943.006-.088-.953-1.052-1.185-1.337-.68-.947-1.143-1.455-.412-.89-.206-.564-.577-.756.391-.652.283-.562.485-.823.221-.236.587-.726.268-.195 1.756-.771 1.34-.605 2.513-1.045.093.511.108.335.14.753-.181.9.01.158.536-.357.211-.214-.129-.184.541-.31.119.057 1.396-.95 1.024-.58-.087-.288-.561-.947.154-.184.51-.253.2-.009 2.082-1.026-.165-.569-.041-.374 1.602-1.043.644-.278-.078-.181-.33-.332.016-.376-.134-.286-.392-.153-.262-.3-.201-.564-.067-.367.026-.31-.242-.14-.134-.33-.155-.139-.128-.364-.412-.77-.464-.975.113-.248.041-.442-.026-.505-.066-.156.015-.673-.031-.51-.325-.691.114-1.26-.052-.419-.474-2.568.02-.193 1.113.14.845.16 1.303.179.69.13 2.262.327.278.015 1.736-.123.752-.413.546-.365.402-.527.376-.438.108-.056.978-.133 1.345.362.103 1.05.175 1.07.041.382-.015 1.112.15-.038.076.253.325.576.056.355.227.503.356.671.365.627.145 1.355.056.893-.19.963-.165.302.056.324 1.633.87.984.458 1.386.697.958.772.638.54.917-1.714.5-.904.314.06 1.319.37 1.416.347-.33 1.55 1.103.01.129.748.33.029.014.978.407.844.114-.022 1.586.042 1.149.485.427.153.145-.052 1.18-.588 1.534-.815.68-.34 1.118-.696.793.06.752.093.093.045.922.092.319.113.587.481.644.587.989.968.283.311.155.034.54-.7.243-.23.448-.635.438-.492.844-.12.268-.178-.01-.539-.129-.742-.098-.883-.066-.231.17-1.648.087-.261.32-.052.329.199.608.642.129-.036.267.178.16.31-.082.354.638.484.258.248.093.376.252.085.129.468-.495.248-.37.281.046.069-.412.433-.242.346-.624.694-.21.18-.284.417.51 2.812v.447l.154.28 2.534 1.043.114.268.088.358.417 1.294.2.836.13.24.525.538.32.403.092-.02 1.324.107.602.07.83 1.461.21.325.82.533.427-.667.68.187 1.695.399.659.406.618 1.094.268.143.314-.178.15.28.216.047.381-.257.175-.23.216.226.34.155.675-.05.052.153.293-.2.15-.335.33-.004.2.187.227-.106.16.068.175-.26.252.096.175-.13.345.037.18.095.16.486.325.38.134.369.221.111.19-.097.253.005.18.153-.206.37-.278-.057-.15.192.047.242-.247.32-.2.04-.13.238.062.296.196.191.293.04.165.593.041.544-.21.15.05.207.186.102.026.184-.217.338-.34-.04-.061.238.144.384.082.631.232.093-.89.208-.011-.214-1.05-.053-.67.474-.32.271-1.257.962-.659.53-.376.251-.84.672-.056.923-.108.352-.48.139-1.967.471-1.21.315.422 2.005-.603.172.144.675-.69.083-.113.562.479.04.036.453-.165.515-.515 1.92-.561 2.014.077.004 1.355.4.139-.014 1.74.513.263-.781.258-.67 1.53.538.35-.901.165-.558.654.222.34-.327.34.334.293.114-.02.346.726.25.165-.462.098.195.34.18.53-.168.294-.818 1.108 1.304 1.503 2.25.294-.3 1.056.944.211.23.072 1.021.582.194.701.42.046 1.073-.231.137-.134.25.077.095-.098.425-.118.292-.124.55-.314.227-.526.126-.257-.011-.227.22.041.19.289.132.278.023.427-.272.057 1.568-1.38.163.443.704.247-.045.376.474-.016.197.377.036.025.708-.21.1-.248-.011-.02.33-1.16-.126-1.514-.287-.103.32-.16.748-.463 1.929-.237 1.097-.19 1-.098.804-.057.667.376 2.179.366.784.5.954.334.604.216.246.14.366.195 1.16.005 1.075-.025.635-.103.538v.309l-.845 1.143-.706.76.268 1.32-.124 1.307-.15.294-1.091 1.618-.278.442-.155.1-.953.444-.056.058-.52 2.664.638.087.752.568.541.472.752.606.072.146.289.884.38 1.16-.113.053-.901-.078-.026.485-.056 2.044-2.293.01-.85-.098-1.133.33-.85.18-.5.228-.329.03-.479.45-.072-.16-.355.304-.696.434-.082.015-1.16.62-1.611.614.077.139-.206.129-1.102-.552-1.15-.506-1.302-.542-1.17-.454-1.565.857-.484-.501-.737-.656-.2-.588-.212-.474.227-.327-.191-1.068-.113-.453.875-.12.036-.059-.51-2.025-.108-.099-.36-2.034-.958-.38-1.025-.337-.922-.28-.654.728-.186.403-1.38-.146-.201 1.178-.232.162-.469-.198-.195.033-.629.305-.268.604-.144.459-.082.41-.047.554.52.38-.04.192.911.35.397.114 1.21.42.077 1.27.124 1.238.288 1.708-.35.444-1.066 1.414-.196.217-.51-.01-.752-.124-.53-.062-.201 1.13-.016.197-.314 1.827-.469 1.14-.55 1.1-.531 1.016-.814.305.077 1.399-.407.077-.788.083-.2-.837-.428-.02-1.015.108-.468-.02-.995.248-.896-.037-1.164-.015.057-2.002-.49-.264-.644.047-.267.165-.912.237-.685-.041.144-1.141-.365-.17-.371.325-.325.134-.546.32-.118.14.072.335.196.093.05.176-.19.144.13.217-.052.175.139.243-.186.361.02.186-.102.403-.217-.068-.427.006-.129.206.047.459-.165.222-1.128.883-.778.294-1.19.299-.752.129-.675.171.02.299.243.449.082.506-.7.093-.067.077-.005 2.906-.026 1.177.077.671-.01.939 2.333-.01.324-.103.763-.449.294-.135.242.129.35.016.056.093.098.686-.056.057-.618.139-.191.212-1.004.32.638-.041.13 1.341-1.83.186.021.511-1.715.165-1.324.093-2.313.232-.046-.748h-.263l-1.468.186-2.323.356-1.226.176-1.045.072-.356.81-.268.506-.463-.15-.201 1.244.02-.862.114-.717.35-1.048-.294-.119-.448.14-.267.005-.124.113-.52-.093-.397.393-.15.051-.422.398-.54-.289.01-.279-.17-.263.02-.202-1.396-.712-2.122-1.135-1.957.196-1.046.144-.206.088-.36.015-.763.16.49 1.203.165.614-.897-.134-.736.057-.716.005-.124-.031-.113-.274-.36.062-.542.264-.571.113-.072.206.051.46-.263.449.047.175-.098.202-.695.82-.397.429-.036.18-.49.553 1.03.118.011.15-.175 1.001-.114 1.946-2.297-.258-2.74-.279-.402-.469-1.452-.217.108-.16-.15-.233-.04-.33-.222-.113-.572.392-.314.051-1.51-.583-.669-.48-.304-.32-.958-.578-.386-.423-.562-.408.799-.738.015-.062-.762-1.042.989-.738.211-.429.247-.124.278-.232 1.777-.655-.612-1.1-.382-.727-.257.098-.062-.202.458-.123.443-.315-.026-.171.304-.216.387-.129.02.191.376-.207-.355-.335-.397-.511-.53.206-.109.119-.72.356-.583.108-1.473.326-.314.01.02-.934-.716-.264-.231-.041-.459-.227.108-1.388" clip-rule="evenodd"/><path stroke="#000" stroke-linecap="round" stroke-linejoin="round" stroke-width=".2" d="m3.87 112.415-.21-.542-.484-1.063.84-.175.808-.3.407-.232.608-.103-.165-.418.185-.135.783-.283.376-.052-1.087-1.399 1.257-.97 1.159-.315.86-.026.263-.077.994-.212.505-.33-.335-.573-.556-1.177.051-.65-.299-.026-.71-.253-1.128-.346h-.515l-1.35-.314-1.494-.238.057-.588-.186-.036.083-.269-.067-.206-.443-.965.232-.341-.047-.072.31-.764.072-.403.236-.124.01-.371-.123-.656.144-1.073.222-1.14.072-.76.139-.837.32-2.5.05-.686-1.292-1.53-.14-.222-.215-.027.067-.21.118-1.602.067-.606-.443-.099.082-1.33-2.673.198.186-1.565.118-.496-.046-.264.21-1.856.114-1.355-.237-.224-.443-.24-.484-.13.124-.31.335-.332.236-.524-.103-.206-.175-.648.3-.902.102-.764 1.9.119 1.402.104.705-.744 1.983-1.237.711-.99.114-.805-3.452-.168.057-.35.355-.865.65-1.493.18-.56.17.055.273.314.36.082.598.354.551.173-.041-.45 1.03.03.752.053.639.123.051-.322-.154-.447-.392-.32-.71-.804-.279-.583-.072-.387.005-.455.65.014.046-.12.108-.97.062-1.135 1.493-.167 1.103.09-.042-.444v-.684l.495-.685.03-.09 1.18-.24.104-.099-.078-.242-.154-.129-.217-.457-.283-.894.747-.776 1.298-.385.386-.084 1.427-.422.994-.32.119-.08-.624-.458-.185-.184-.113.308-.212.093-.484-.478.284-.217.164-.261-.108-.175-.474-.254-.479-.677.078-.253-.747-.026.262-.196-.03-.549-.258-.191.263-.11-.083-.239-.005-1.068-.598.024-.643-.668 1.591-.767-.072-.88-.546-.165-.546.085-.561.012-.541-.292-1.345.934-.34-.315-.942-.973-.716-1.588.015-.15.773-2.022.66-1.6.71-1.108.196.199.072.188.232 1.26.139.019.345.334.896-.102.778-.441.098-.105.087-1.015.222-.15.906-.772-.046-.268 1.138-.544.124-.57 1.231-.086.196-1.056-.536-.205-.16.032-.587-.268-.443-.572-.36-.376-1.746-1.399.854-2.85-.072-.383 1.978-.2.562-.011.55.238 1.15.16.412-.005.376-.145.226-.166 1.03-.943.006-.088-.953-1.052-1.185-1.337-.68-.947-1.143-1.455-.412-.89-.206-.564-.577-.756.391-.652.283-.562.485-.823.221-.236.587-.726.268-.195 1.756-.771 1.34-.605 2.513-1.045.093.511.108.335.14.753-.181.9.01.158.536-.357.211-.214-.129-.184.541-.31.119.057 1.396-.95 1.024-.58-.087-.288-.561-.947.154-.184.51-.253.2-.009 2.082-1.026-.165-.569-.041-.374 1.602-1.043.644-.278-.078-.181-.33-.332.016-.376-.134-.286-.392-.153-.262-.3-.201-.564-.067-.367.026-.31-.242-.14-.134-.33-.155-.139-.128-.364-.412-.77-.464-.975.113-.248.041-.442-.026-.505-.066-.156.015-.673-.031-.51-.325-.691.114-1.26-.052-.419-.474-2.568.02-.193 1.113.14.845.16 1.303.179.69.13 2.262.327.278.015 1.736-.123.752-.413.546-.365.402-.527.376-.438.108-.056.978-.133 1.345.362.103 1.05.175 1.07.041.382-.015 1.112.15-.038.076.253.325.576.056.355.227.503.356.671.365.627.145 1.355.056.893-.19.963-.165.302.056.324 1.633.87.984.458 1.386.697.958.772.638.54.917-1.714.5-.904.314.06 1.319.37 1.416.347-.33 1.55 1.103.01.129.748.33.029.014.978.407.844.114-.022 1.586.042 1.149.485.427.153.145-.052 1.18-.588 1.534-.815.68-.34 1.118-.696.793.06.752.093.093.045.922.092.319.113.587.481.644.587.989.968.283.311.155.034.54-.7.243-.23.448-.635.438-.492.844-.12.268-.178-.01-.539-.129-.742-.098-.883-.066-.231.17-1.648.087-.261.32-.052.329.199.608.642.129-.036.267.178.16.31-.082.354.638.484.258.248.093.376.252.085.129.468-.495.248-.37.281.046.069-.412.433-.242.346-.624.694-.21.18-.284.417.51 2.812v.447l.154.28 2.534 1.043.114.268.088.358.417 1.294.2.836.13.24.525.538.32.403.092-.02 1.324.107.602.07.83 1.461.21.325.82.533.427-.667.68.187 1.695.399.659.406.618 1.094.268.143.314-.178.15.28.216.047.381-.257.175-.23.216.226.34.155.675-.05.052.153.293-.2.15-.335.33-.004.2.187.227-.106.16.068.175-.26.252.096.175-.13.345.037.18.095.16.486.325.38.134.369.221.111.19-.097.253.005.18.153-.206.37-.278-.057-.15.192.047.242-.247.32-.2.04-.13.238.062.296.196.191.293.04.165.593.041.544-.21.15.05.207.186.102.026.184-.217.338-.34-.04-.061.238.144.384.082.631.232.093-.89.208-.011-.214-1.05-.053-.67.474-.32.271-1.257.962-.659.53-.376.251-.84.672-.056.923-.108.352-.48.139-1.967.471-1.21.315.422 2.005-.603.172.144.675-.69.083-.113.562.479.04.036.453-.165.515-.515 1.92-.561 2.014.077.004 1.355.4.139-.014 1.74.513.263-.781.258-.67 1.53.538.35-.901.165-.558.654.222.34-.327.34.334.293.114-.02.346.726.25.165-.462.098.195.34.18.53-.168.294-.818 1.108 1.304 1.503 2.25.294-.3 1.056.944.211.23.072 1.021.582.194.701.42.046 1.073-.231.137-.134.25.077.095-.098.425-.118.292-.124.55-.314.227-.526.126-.257-.011-.227.22.041.19.289.132.278.023.427-.272.057 1.568-1.38.163.443.704.247-.045.376.474-.016.197.377.036.025.708-.21.1-.248-.011-.02.33-1.16-.126-1.514-.287-.103.32-.16.748-.463 1.929-.237 1.097-.19 1-.098.804-.057.667.376 2.179.366.784.5.954.334.604.216.246.14.366.195 1.16.005 1.075-.025.635-.103.538v.309l-.845 1.143-.706.76.268 1.32-.124 1.307-.15.294-1.091 1.618-.278.442-.155.1-.953.444-.056.058-.52 2.664.638.087.752.568.541.472.752.606.072.146.289.884.38 1.16-.113.053-.901-.078-.026.485-.056 2.044-2.293.01-.85-.098-1.133.33-.85.18-.5.228-.329.03-.479.45-.072-.16-.355.304-.696.434-.082.015-1.16.62-1.611.614.077.139-.206.129-1.102-.552-1.15-.506-1.302-.542-1.17-.454-1.565.857-.484-.501-.737-.656-.2-.588-.212-.474.227-.327-.191-1.068-.113-.453.875-.12.036-.059-.51-2.025-.108-.099-.36-2.034-.958-.38-1.025-.337-.922-.28-.654.728-.186.403-1.38-.146-.201 1.178-.232.162-.469-.198-.195.033-.629.305-.268.604-.144.459-.082.41-.047.554.52.38-.04.192.911.35.397.114 1.21.42.077 1.27.124 1.238.288 1.708-.35.444-1.066 1.414-.196.217-.51-.01-.752-.124-.53-.062-.201 1.13-.016.197-.314 1.827-.469 1.14-.55 1.1-.531 1.016-.814.305.077 1.399-.407.077-.788.083-.2-.837-.428-.02-1.015.108-.468-.02-.995.248-.896-.037-1.164-.015.057-2.002-.49-.264-.644.047-.267.165-.912.237-.685-.041.144-1.141-.365-.17-.371.325-.325.134-.546.32-.118.14.072.335.196.093.05.176-.19.144.13.217-.052.175.139.243-.186.361.02.186-.102.403-.217-.068-.427.006-.129.206.047.459-.165.222-1.128.883-.778.294-1.19.299-.752.129-.675.171.02.299.243.449.082.506-.7.093-.067.077-.005 2.906-.026 1.177.077.671-.01.939 2.333-.01.324-.103.763-.449.294-.135.242.129.35.016.056.093.098.686-.056.057-.618.139-.191.212-1.004.32.638-.041.13 1.341-1.83.186.021.511-1.715.165-1.324.093-2.313.232-.046-.748h-.263l-1.468.186-2.323.356-1.226.176-1.045.072-.356.81-.268.506-.463-.15-.201 1.244.02-.862.114-.717.35-1.048-.294-.119-.448.14-.267.005-.124.113-.52-.093-.397.393-.15.051-.422.398-.54-.289.01-.279-.17-.263.02-.202-1.396-.712-2.122-1.135-1.957.196-1.046.144-.206.088-.36.015-.763.16.49 1.203.165.614-.897-.134-.736.057-.716.005-.124-.031-.113-.274-.36.062-.542.264-.571.113-.072.206.051.46-.263.449.047.175-.098.202-.695.82-.397.429-.036.18-.49.553 1.03.118.011.15-.175 1.001-.114 1.946-2.297-.258-2.74-.279-.402-.469-1.452-.217.108-.16-.15-.233-.04-.33-.222-.113-.572.392-.314.051-1.51-.583-.669-.48-.304-.32-.958-.578-.386-.423-.562-.408.799-.738.015-.062-.762-1.042.989-.738.211-.429.247-.124.278-.232 1.777-.655-.612-1.1-.382-.727-.257.098-.062-.202.458-.123.443-.315-.026-.171.304-.216.387-.129.02.191.376-.207-.355-.335-.397-.511-.53.206-.109.119-.72.356-.583.108-1.473.326-.314.01.02-.934-.716-.264-.231-.041-.459-.227.108-1.388"/><path id="Ровеньківський" fill="#C8C6C6" fill-rule="evenodd" d="m136.575 288.638-.103.119-.51.887.103.331-.278.026.077.201.34.351-.211.186-.417.031-.376.294-.18-.041-.201.49-.16.072-.257-.021-.232.166-.335-.635-.216-.475-.103-.33-.34-.8-.907-2.22-.252-.665-.536-.052-2.282-.145-.443.14-.015.578-.392.026-1.854-.016-1.272.011-1.535-.016-.247.036-3.776-.036-.417.341.067.237-.047.176-.237.113-.046.31.232.495-.402-.015-1.334.036h-1.118l-.293-.036-1.54.005-.799.924-.18-.062-.294-.351-.293-.217-.237-.025-.819-.006-.01 1.131-.51.026-.546-.037h-2.334l-.02-.098v-1.011l-.34-.021-.438.041-.294-.026-1.194-.01.015-2.276-.67.015-.092-.154-.176-.491-.427-2.09-.119-.485.675-1.843.134-.216.371-.971.144-.485.314-.717.474-1.435-.118-.041-.448.015-.031-.181-.222-.129-.17-.294-.005-.258-.139-.005-.314-.702-.124.026-.232.387-.278-.201-.056.335-.371-.015-.144.227-.176.083-.226-.481-.186.021-.242-.113.278-.279-.365-.041-.273-.387-.129.046-.216-.108-.248.057.227-1.311.093-.651.128-1.558.057-.315-.139-1.063-.072-.284-.119-.898-.056-.124-.314-.16-1.365-.103-.16-.047-1.896-.155-2.096-.082-1.761-.14-.392-.051-1.751-.078-1.236-.108h-.212l-1.52-.088-1.189-.103-.283.015-.912-.113-1.34-.093-.251.093-.114.211-.16.057-.314-.191-.335-.469-.077-.243-.01-.382.051-.237.191-.351-.654-.3.309-.268.458-.16-.077-.155-.33-.346-.231-.098-.165.217.072.294-.273.041-.165-.294.325-.227.005-.149-.325-.48-.123.02-.268-.268-.15-.284-.17-.114.155-.34.381-.062.175-.093.062-.713.603-.098-.144-.289.159-.294.01-.263-.21-.098.236-.315-.252-.175.185-.3-.15-.268.233-.563.278-.185-.253-.104-.046.134-.247.264.036.139-.418.717-.247.568-.118.14-.32-.238-.118.005-.459-.263-.36-.114.093-.16-.381-.438.412-.485.37.067.402-.398.32-.407-.732-.3-.165-.124.356-1.166.216-.594.289-1.094.226-.686-.515-.165-.144-.186-.299-.083-.067.103-.278-.051-.206.098-.18-.031-.397-.238.062-.134-.417-.165-.093-.186-.222-.118-.21.067-.284-.047-.108-.17.051-.15-.324-.175-.175.242-.294-.087-.026-.284-.293-.021-.098-.346-.665.129-.438-.077-.442-.196-.201-.155-.248-.016-.267.114-.474-.16-.212-.181-.391-.118-.402-.186-.046.077-.567-.232-.989-.305-.582-.221-.438-.243-.103-.253-.015-.294.185-.382.135-.459-.474-.078-.155.067-.572.047-.7-.062-.371-.072.036-.155.263-.284.082-.294-1.102.031-.376-.011-1.071.047-.15.206-.252.052-.897-.542-.818-.361-.067-.088-.454-.072-.35-.186-.37-.16.102-.33-.365-.403-.093-.294.221-.243.093-.371.288-.166.042-.294.437-.015.165-.418-.293-.206-.016-.264.263-.542.026-.253.154-.108-.087-.191-.366-.263.01-.212-.252-.16-.144-.304-.294-.186-.196-.361-.226-.238.046-.34-.195-.186-.047-.212-.309-.346.057-.123-.062-.377.108-.341-.144-.191-.026-.387.876-.459.55-.253.712-.387 1.354-.676 1.844-.965.242-.099 1.422-.763.515-.243 1.55-.826.953-.444.18-.113.82-.3 1.555-.428.5-.17.71-.202.948-.309-.02-.614 1.226-.222.51-.119 1.421-.268.953.304-.052-.294-.587-1.982-.144-.433.186-.243.33-.604.035-.428.098-.263.031-.372.216-.645-.04-.769.107-.578-.077-.449.026-.166 1.298-.304.345-.155.397-.02-.057-1.724 1.242-.227.293-.021 1.21-.181-.056-.944 1.468-.248.67-.072.005-.516-.036-.522.417-.02 1.282-.17.51-.222.088.087.66-.062.112-.067.083.728-.16.604-.525-.098-.402.036-.03.599.06.315-.04.748.026 1.399-.016.314.19-.082.665.036.556.434.531-.073.438-.01.206-.222.433-.124.231-.206.335-.176-.227-.671.073-.351.19-.036.114-.32.128.042 1.21.16.727.16.752.072.335.108.299-.01.2.175-.005.331.093.356-.222.067-.2 1.244.2-.031 1.973-.062.577.005.989-.062.093 1.125.221 2.147.083 1.358.051.268.01.557.217 2.039.031.563 1.566.02.273-.015.211.547.381.021 1.932-.088.865-.268-.113-.398.201-.01h2.647l.196.02 1.545 2.467.541.924 1.334 2.178.881 1.518.664 1.022.433-.166.427.15.062.093 1.772.759.52.191 1.87.841.361-.052.319-.139.314.093.113-.155.279-.124.7.088.386-.083.263.073v-.289l.572.144.417-.243.082-.149.392-.186.082-.336.145-.221.036-.207.345-.082.18-.253-.124-.305-.149-.15.17-.113.206-.005.247.263.742.01.798.047.109-.222.303-.191.31-.005.066.237.201-.129.325-.046.273.201.149.258.479.067.042.692-.33.407-.289.062-.175.186.047.351-.16.201-.062.284.088.217-.155.444-.005.475-.314.464-.015.16.551.671 1.112.057.005.155.17.273.083.341.541.655-.17.104.175.438.051.511-.159.3.025.247-.082.186.041.253-.015.454.087.274-.515 1.45-.407.495.722.677.53.536-.149.382h.479l.252.413-.005.227.252-.098.258-.211.103-.31.371-.072.335.046.108-.325.257-.108.309.067-.051.284.139.371-.175.372-.309.232.175.134.551.614-.098.666.031.713-.015.583.046 1.724.062.268.232.144-.005.955-.155.434.036.134-.108 1.027.021.103.571.465.237.242.098.289.124.088.298.46.227.639.278-.051.814-.01.299.067-.005.258.86.041-.113.418-.562-.062-.185.8-.145.243-.149.691-.057.093-.819-.371-.525.856-.211-.077-.52-.057-.278.15-.201.01-.5.258-.031.077-.422.047.036.17-.114.196-.273.227-.221.068-.129.16-.252.01-.382.268-.478.129-.129.119.072.201-.052 1.373v.573l-.345.49.732 2.529-.402.021 2.549 3.03.423.526.726.857 1.066.981 4.404 4-.087.025-1.334-.118-3.349-.222-.041.759-.072.583-.479-.011-.69.078-.289.212.042.516.077.067-.072.449.149.201-.036.196.108.351-.02.635.201.227-.155.088-.072.33.216.181-.159.263.144.108-.067.197.345.056.175.119.433.026" clip-rule="evenodd"/><path stroke="#000" stroke-linecap="round" stroke-linejoin="round" stroke-width=".2" d="m136.575 288.638-.103.119-.51.887.103.331-.278.026.077.201.34.351-.211.186-.417.031-.376.294-.18-.041-.201.49-.16.072-.257-.021-.232.166-.335-.635-.216-.475-.103-.33-.34-.8-.907-2.22-.252-.665-.536-.052-2.282-.145-.443.14-.015.578-.392.026-1.854-.016-1.272.011-1.535-.016-.247.036-3.776-.036-.417.341.067.237-.047.176-.237.113-.046.31.232.495-.402-.015-1.334.036h-1.118l-.293-.036-1.54.005-.799.924-.18-.062-.294-.351-.293-.217-.237-.025-.819-.006-.01 1.131-.51.026-.546-.037h-2.334l-.02-.098v-1.011l-.34-.021-.438.041-.294-.026-1.194-.01.015-2.276-.67.015-.092-.154-.176-.491-.427-2.09-.119-.485.675-1.843.134-.216.371-.971.144-.485.314-.717.474-1.435-.118-.041-.448.015-.031-.181-.222-.129-.17-.294-.005-.258-.139-.005-.314-.702-.124.026-.232.387-.278-.201-.056.335-.371-.015-.144.227-.176.083-.226-.481-.186.021-.242-.113.278-.279-.365-.041-.273-.387-.129.046-.216-.108-.248.057.227-1.311.093-.651.128-1.558.057-.315-.139-1.063-.072-.284-.119-.898-.056-.124-.314-.16-1.365-.103-.16-.047-1.896-.155-2.096-.082-1.761-.14-.392-.051-1.751-.078-1.236-.108h-.212l-1.52-.088-1.189-.103-.283.015-.912-.113-1.34-.093-.251.093-.114.211-.16.057-.314-.191-.335-.469-.077-.243-.01-.382.051-.237.191-.351-.654-.3.309-.268.458-.16-.077-.155-.33-.346-.231-.098-.165.217.072.294-.273.041-.165-.294.325-.227.005-.149-.325-.48-.123.02-.268-.268-.15-.284-.17-.114.155-.34.381-.062.175-.093.062-.713.603-.098-.144-.289.159-.294.01-.263-.21-.098.236-.315-.252-.175.185-.3-.15-.268.233-.563.278-.185-.253-.104-.046.134-.247.264.036.139-.418.717-.247.568-.118.14-.32-.238-.118.005-.459-.263-.36-.114.093-.16-.381-.438.412-.485.37.067.402-.398.32-.407-.732-.3-.165-.124.356-1.166.216-.594.289-1.094.226-.686-.515-.165-.144-.186-.299-.083-.067.103-.278-.051-.206.098-.18-.031-.397-.238.062-.134-.417-.165-.093-.186-.222-.118-.21.067-.284-.047-.108-.17.051-.15-.324-.175-.175.242-.294-.087-.026-.284-.293-.021-.098-.346-.665.129-.438-.077-.442-.196-.201-.155-.248-.016-.267.114-.474-.16-.212-.181-.391-.118-.402-.186-.046.077-.567-.232-.989-.305-.582-.221-.438-.243-.103-.253-.015-.294.185-.382.135-.459-.474-.078-.155.067-.572.047-.7-.062-.371-.072.036-.155.263-.284.082-.294-1.102.031-.376-.011-1.071.047-.15.206-.252.052-.897-.542-.818-.361-.067-.088-.454-.072-.35-.186-.37-.16.102-.33-.365-.403-.093-.294.221-.243.093-.371.288-.166.042-.294.437-.015.165-.418-.293-.206-.016-.264.263-.542.026-.253.154-.108-.087-.191-.366-.263.01-.212-.252-.16-.144-.304-.294-.186-.196-.361-.226-.238.046-.34-.195-.186-.047-.212-.309-.346.057-.123-.062-.377.108-.341-.144-.191-.026-.387.876-.459.55-.253.712-.387 1.354-.676 1.844-.965.242-.099 1.422-.763.515-.243 1.55-.826.953-.444.18-.113.82-.3 1.555-.428.5-.17.71-.202.948-.309-.02-.614 1.226-.222.51-.119 1.421-.268.953.304-.052-.294-.587-1.982-.144-.433.186-.243.33-.604.035-.428.098-.263.031-.372.216-.645-.04-.769.107-.578-.077-.449.026-.166 1.298-.304.345-.155.397-.02-.057-1.724 1.242-.227.293-.021 1.21-.181-.056-.944 1.468-.248.67-.072.005-.516-.036-.522.417-.02 1.282-.17.51-.222.088.087.66-.062.112-.067.083.728-.16.604-.525-.098-.402.036-.03.599.06.315-.04.748.026 1.399-.016.314.19-.082.665.036.556.434.531-.073.438-.01.206-.222.433-.124.231-.206.335-.176-.227-.671.073-.351.19-.036.114-.32.128.042 1.21.16.727.16.752.072.335.108.299-.01.2.175-.005.331.093.356-.222.067-.2 1.244.2-.031 1.973-.062.577.005.989-.062.093 1.125.221 2.147.083 1.358.051.268.01.557.217 2.039.031.563 1.566.02.273-.015.211.547.381.021 1.932-.088.865-.268-.113-.398.201-.01h2.647l.196.02 1.545 2.467.541.924 1.334 2.178.881 1.518.664 1.022.433-.166.427.15.062.093 1.772.759.52.191 1.87.841.361-.052.319-.139.314.093.113-.155.279-.124.7.088.386-.083.263.073v-.289l.572.144.417-.243.082-.149.392-.186.082-.336.145-.221.036-.207.345-.082.18-.253-.124-.305-.149-.15.17-.113.206-.005.247.263.742.01.798.047.109-.222.303-.191.31-.005.066.237.201-.129.325-.046.273.201.149.258.479.067.042.692-.33.407-.289.062-.175.186.047.351-.16.201-.062.284.088.217-.155.444-.005.475-.314.464-.015.16.551.671 1.112.057.005.155.17.273.083.341.541.655-.17.104.175.438.051.511-.159.3.025.247-.082.186.041.253-.015.454.087.274-.515 1.45-.407.495.722.677.53.536-.149.382h.479l.252.413-.005.227.252-.098.258-.211.103-.31.371-.072.335.046.108-.325.257-.108.309.067-.051.284.139.371-.175.372-.309.232.175.134.551.614-.098.666.031.713-.015.583.046 1.724.062.268.232.144-.005.955-.155.434.036.134-.108 1.027.021.103.571.465.237.242.098.289.124.088.298.46.227.639.278-.051.814-.01.299.067-.005.258.86.041-.113.418-.562-.062-.185.8-.145.243-.149.691-.057.093-.819-.371-.525.856-.211-.077-.52-.057-.278.15-.201.01-.5.258-.031.077-.422.047.036.17-.114.196-.273.227-.221.068-.129.16-.252.01-.382.268-.478.129-.129.119.072.201-.052 1.373v.573l-.345.49.732 2.529-.402.021 2.549 3.03.423.526.726.857 1.066.981 4.404 4-.087.025-1.334-.118-3.349-.222-.041.759-.072.583-.479-.011-.69.078-.289.212.042.516.077.067-.072.449.149.201-.036.196.108.351-.02.635.201.227-.155.088-.072.33.216.181-.159.263.144.108-.067.197.345.056.175.119.433.026"/><path id="Сіверськодонецький" fill="#C8C6C6" fill-rule="evenodd" stroke="#000" stroke-linecap="round" stroke-linejoin="round" stroke-width=".2" d="m52.639 187.711.365.371.16.305.206-.124.649-.062.283-.243.242-.552.201-.305.284-.185.04.304-.241.186-.284.49.083.124-.247.367.164.304-.283.248-.283-.49-.53.061-.243.062.083.243-.201.186h-.242l-.65-.248-.242.062-.04-.243-.207-.123-.36-.062-.247.062-.768.242-.2.062.442.186.083.18-.243.062.042.186-.284.181.402.309.041.062h.284l.123.181.402.248.366-.062.164.366.16.062.407-.124.118.186-.283.429-.525.732-.083.553-.324.366-.608.733-.685.366-.242.062-.366.429-1.133-.305-.082 1.285-.083.609-.118.31.283 1.099.119.367.242.919.607-.124 2.756-.733.041.062.402 1.465.289 1.162.16.186-.083.118.49 1.833.118.247.206.124.16-.186-.083-.124.206-.118.402-.062.448.242.324.429-.04.124.118.366-.16.181.082.552-.164.062-.083.366-.118.057-.284.49-.324.671-.124.367-.2.304.082.31.2.057-.04.186h-.243l-.16.18.037.367-.201.247v.243l-.124.124-.283.18-.077.553-.083.118-.041.491-.118.124-.124.671.124.242-.248.181-.2-.423-.608.304-.608.119-.366.186.165 1.037.16.243v.366l.164.124-.123.428-.85.362-.443.185-.407.181-1.056.305.206.67-.85.367-.89.304-.248-.118-.36-1.404-.284-.181-.814-.062-.283.243-.242.124-.242-.124-.526.181-.283.309h-.242l-.165-.309-.16-.057-1.947-1.709-.283-.247.366-.547.325-.609-2.025-1.162-.53-.304.283-.124.365.124.366-.124.284.304.082-.056-.124-.31-.118-.547.036-.733-.402-.49.608-.485.283-.305.284-.124.04-.242-.04-.186.04-.547.243-.248.325-.119-.85-1.042-1.5-1.833-.566-.609-.206.124-.484-.676.2-.057-.401-.49.443-.124-.119-1.037-.164-1.652-.16-1.042-.124-1.1v-.49l-.082-.304-.119-1.409-.324-2.627-.242-1.962-.69.062-2.19.305h-.035l-.289-2.328.041-.062.608-.062.448-.242v-.186l.567-.119.608-.062.082.367h.567v-.186h.484l-.041-.367v-.242l.164-.31h.567l.118-.119h.732l.242-.062-.124-.918-.16-1.105.124-.124h.526l.484-.123.608-.057.2.18.325-.242.448-.062-.124-.31h-.324l-.242-.119.484-.861.082-.243.042-1.043-.608-.49-.283-.31.082-.242 1.7-.186-.16-1.899-.283-.614-.289-.186-1.133-.119-.608-.124h-.685l-.407-.062-.04-.186-.526-.552-1.015-.918.124-.553.2-.614.243-.614.365-1.105.65-.062-.201-1.532-.242-2.029.077-.186.489-.061 2.71-.367.123-.371-.082-.243-.078-.986-.206-1.29-1.576.186-1.906.304-.123-1.042-.242-.429-.608-.676-.077-.186-3.24.429-.042-.186.201-.367.041-.371.083-.243v-.309l.118-.243.042-.619.164-.181v-3.51l-.04-.304v-2.71l.04-1.048-.04-1.357-.042-.614v-.49l-.366.304-.324.124-.726.372-1.098.304-.324.062-.443-.062-.325-.119h-.365l-.81-.185-.365-.124-.566.124-.65-.062-.525-.186-.324-.062-.201.248-.206.614-.402.309-.283-.247-.284-.062h-.525l-.324-.186-.041-.366-.325-.248-.407-.062-.968-.186-.124-.124-.082-.304-.119-.186-.448-.062-.567.062-.442.124-1.015.186-.567-.31-.2-.062-.325.186-.448.428-.119.186-.082.557-.448.553-.484-.248.04-.186.202-.243h.165l-.083-.495-.242.062-.283-.062-.206.186-.402-.062-.083-.31-.242-.304v-.186l-.164-.124.04-.186-.283-.186-.242.062-.242-.242-.123-.248.04-.186.325-.552 1.54-2.715.201-.062.325.248.283.124.932.552.407.186-.123-.8.443-.557-.485-.491-.123-.495.165-.305.366-.186 1.292-.433.732-.186h1.215l.284-.124-.042-.738-.242-.619-.407-.986-.484-1.048-.69-1.976-.283-.677-.16-.185-1.458-2.163-.123-.248.649-.304.16-.124.283-2.658.082-.557.124-1.048.685-2.286.69-2.788-.201-1.543-.041-.124-1.216.186-1.339-.433-.644-.062-1.014-.124.484-.558.041-.123.366-.434.726-.867.082-.186-.04-.186.246-.433-.041-.434.077-.247.567-.062.53-.31.361-.062.124.31h.85l.73-.062.892.124-.165-.62-.484-1.177.767-.185h.366l.201-.062 1.056-.186 1.942-.186 2.107 1.177 1.416.681-.036.186.2.31-.04.247.566.31.407-.433.16-.062.407-.372.484.124.123-.124h.284l.443-.186.283.124-.325 1.053-.118.743-.041.867.2-1.238.49.123.242-.495.366-.805 1.05-.062 1.216-.186 2.35-.372 1.457-.185h.242l.041.743 2.349-.186 1.298-.124 1.74-.186-.04-.495 1.823-.186-.124-1.362-.643.061 1.01-.309.2-.248.608-.124.082-.062-.118-.681-.041-.062-.366-.062-.242-.124-.284.186-.772.434-.325.062-2.349.061.042-.99-.083-.62v-4.087l.083-.062.69-.124-.082-.496-.243-.433v-.31l.69-.186.727-.129 1.216-.309.767-.31 1.138-.867.16-.186-.082-.496.164-.185h.402l.206.062.119-.434v-.186l.165-.309-.124-.253.041-.186-.123-.248.206-.124-.083-.185-.2-.062-.042-.372.118-.124.531-.31.325-.123.36-.372.366.186-.119 1.177h.685l.891-.248.284-.124.649-.062.484.248-.077 2.049-.041 1.3-.042.186.809.124.082.996-.04.929-.202.681-.123.186-.284.062-.283.186.283.372.165.061.608.682 1.252 1.176.89.868.124 1.052-.89 1.487.324-.062.525.248.124.124.036.371.123.062.69-.062-.406-.929 1.823-.186.407.929.077.062.933-.124 1.782-.185.973-.062.083.805.324.062.16-.124-.083-.248h.284l.407.31.283-.124 1.416-.124.083 1.301-.484.743-.53.681-.078.186.2-.062.16.124.206-.248.727.186.283-.062.242.372.49-.186.16-.186h.241l.083.186.448-.31.283.186.402.062-.119.248v.433l.201.248.567.372.566.123.325.124.082-.062h.443l.124.186.283.062-.082.496.123.433.041 1.853.078 1.177.082 1.734.083 1.295h-.284l.041.248.402.929.083.862.082.124.65-.124 1.25-.062.124 1.053.124 1.977-2.107.185-.448.062.041.062-.123 1.42-.036 1.109.2-.062.243-.247.082-.181.283-.31.284-.062.123.248.201.124.443.614.407.248.608-.124-.041-.124.448-.248.443-.185-.083-.243 1.298.062-.283-.495v-.186l.083-.31 3.481.186 1.458.124h1.092l.082 1.543.124 2.715.036.371-.608-.062v.862h-1.05v.805h1.7l.123 3.763v.49l-1.216 1.481-1.014 1.234-1.983 2.338-.366-.124v-.366l-.525-.124-.083.062-.16.614-.525-.062-.165.31.206.185.119-.185.407.124.242.185-.041.181.242.124-.284.186-.242.247-.124-.062-1.133 1.234-.36.366-.165.186-3.44 3.51.684.49.248.248 1.133.552-2.19.924-.118.062-.932.862h-.124l-.973-.248-.726.186-.206.305.365.371-.118.124.118.49.526.429 1.256.738.366.248.448.247.036.181-.242.433.325.243-.201.986-.49-.186-.684-.49-.608.309v.119l.324.495-.123.305.04.186.16.124-.077.242-.448.186-.402-.124-.283.31.443.366.325.124.365.062.325.305 1.251.614-.968 1.171-.932.553h-.49l-.242.552v.124l-.484.857v.428l.325.248.566.123.16.367.206.124.608.186.324.18.891.186h.443l.974-.124.566-.242.402.118h.65l.324-.18.2-.434.124-.057.526-.062.242.062.571.367h.32l.247-.124.16-.305-.042-.309.165-.062.484.124.325.185.324.062h.526l.324.119.283.248-.123.366v.372l.247.124.16-.124.525-.248.165.062-.124.248-.365.242v.31l.206.181.932-.062.443.062H84.8l.608.124.484.062.608.061.767.062.325-.247h.814l.443-.181.16.057.205.248h1.257l.32-.062-.201.49-.119.248.119.304.123.372.078.057-.644 2.699-.366 1.228-.2.738-.367 1.347-.731-.124-.768-.118-.365.609-.283.124-.16.366-.206.124-.325.366-.443 1.409-1.215-.49-.284-.119-1.658-.918-.65-.434-1.014-.671-2.349-1.471-.242-.124-2.956-1.104-.407-.062-.526.186-.525.18-.242-.056-.855-.491-.284-.124-.2-.123v-.305l.123-.186-.082-.366.16-.434-.037-.056-.283-.739-.082-.309.041-.367-.041-.124-.206-.794-.119-.924-.808.248.036.366-.85.186-.119-.8-.365-.057-.042-.186.242-.309.083-.243-.16-.124-.407.429-.2.185-.207-.247.124-.119-.242-.496.041-.18.283-.31v-.243l-.973-.185-.526.124-.324-.31-.041.186.123.309-.288-.062-.077.243-.206.31.04.118-.2.186h-.2l-.124-.186.164-.428-.04-.062-.408.372-.16-.124-.365.304.2.186-.118.367-.206-.243-.484-.062-.041.186-.201-.062h-.206v-.372l-.283-.062-.201-.304-.484-.062-.165-.186-.201-.057-.201.057.036-.304-.443-.124-.123-.305-.444-.309-.123-.367-.366-.31h-.283l-.608.248-.32-.062-.365.062-.407.186-.2.181-.202.062-.288.185-.402-.185-.082-.305.164-.31v-.18l-.164-.062-.201.062-.165-.558-.85.248-.649.124h-.32l-.571-.124-.283-.186-.443-.062.082.986.16.062.484.552.283.181.53.186h.16l.284.186.165-.372v-.305l.118-.304-.041-.248h.247l.16.124.242.367.448.061.041.124.16.919-.16.186v.242l-.324.124-.083.31.041.124-.406.49-.119.367.077.304.65-.119.164.981.119.304-.042.434.042.119v.309l-.443.181.036.186-.119.248.201.304-.242.124-.324.124-1.051-.124.077.366.247.367.119.062 1.257.309.607-.061.083.794.2 1.414.083.181-.123.248.123.49.119.733h.407l.324-.062.283.31.325-.124.2.186h.166l.036-.062.082-.062.484.062.448-.062.16.186.49.056.401.31.082.181.284.124-.85.918.041.372-.123.428-.608-.247-.16.428-.484-.124-.124.062-.448.428.041-.366-.041-.062.041-.428.165-.181-.242-.248.283-.242-.04-.062-.691-.062-.768-.186h-.448l-.242-.062-.041-.242-.484-.062-.325-.553-.407-.242-.324.428h-.077l-.165.367-.201.123v.062l-.407-.247-.402.062-.165.304-.932.552-.118-.118-.206-.434.973-.49.082-.119-.242-.31h-.283l.036.429-.036.124-.773.062-.118-.795.608-.186h.242v.366l.443-.062.525-.428.165-.242.16.061v-.428l-.325-.186-.644-.186-.123.124-.567-.124-.767-.49-.247.062h-.526l-.082.428-.201.124.165.305.283.186-.247.185-.036-.247-.407.062v-.186l-.69.062v.428l.206.49-.206.124-.284.124-.608.243-.04.062-.609.062-.484-.124-.283.309.082.305-.164.31h-.16l-.484.304-.206.062-.242.552-.526.547.16.124-.119.491.809.247.608-.428.407-.186.242.305-.325.247-.164.181.123 1.347h.083l1.251-.428h.366l.49.124v-.367l.282-.124h.16l.242-.123Z" clip-rule="evenodd"/><path id="Алчевський" fill="#C8C6C6" fill-rule="evenodd" stroke="#000" stroke-linecap="round" stroke-linejoin="round" stroke-width=".2" d="m64.32 240.158-.04-.49.123-.119.078-.485-.078-.186.078-.485-.119-.242-.041-.243-.201-.423-.206-.186-.201-.423-.2-.062-.366-.423-.243-.062-.365-.243-2.998-.304h-.767l-2.39-.243-1.865-.124-3.04-.304-.767-.057v-.186l-.082-.304.165-.362-.289-.247v-.181l.366-.243-.118-.18.04-.248.12-.181.282-.18.042-.124-.041-.305-.242-.118-.042-.186-.16-.119-.04-.366.082-.367.2-.118.16-.429.284-.242.448-.181-.083-.243-.082-.671-.242.062-.16-1.28-.041-.123-.041-.728.932-.124.041-.057.933-.124-.042-.547.443-.124.284-.18-.201-.186.123-.181.32.181.206.186.118-.243-.525-.366.566-.305-.16-.49 1.458-.243-.165-.304-.2-.119-.407-.248h-.36l-.083-.547-.242-.304-.042-.243-.123-.428h-.201l-1.216-.181-.283.485-.525-1.641-.201-.248-.206-.547.165-.423-.083-.366v-.491l.16-.789-.119-.186.042-.367.077-.118-.036-.305-.206-.428-.119-.733-.247-.79.206-.366-.165-.553.083-.242-.041-.485.123-.429-.165-.124v-.366l-.16-.243-.164-1.037.365-.186.608-.118.608-.305.2.423.248-.18-.123-.243.123-.671.119-.124.04-.49.083-.119.078-.552.283-.181.123-.123v-.243l.202-.248-.037-.366.16-.181h.242l.041-.186-.2-.056-.083-.31.2-.305.125-.366.324-.671.283-.49.119-.057.082-.367.165-.062-.083-.552.16-.18-.118-.367.041-.124-.325-.428-.448-.243-.401.062-.206.119.082.124-.16.186-.206-.124-.118-.248-.49-1.832.083-.119-.16-.186-.288-1.161-.402-1.466-.041-.062-2.756.733-.608.124-.242-.919-.118-.366-.284-1.099.119-.31.082-.609.083-1.285 1.133.304.366-.428.242-.062.685-.366.608-.733.324-.367.082-.552.526-.733.283-.428-.118-.186-.407.124-.16-.062-.165-.367-.365.062-.402-.247-.124-.181h-.283l-.041-.062-.402-.31.283-.18-.041-.186.242-.062-.082-.181-.443-.185.2-.062.768-.243.247-.062.361.062.206.124.041.242.242-.061.65.247h.241l.201-.186-.082-.242.242-.062.53-.062.284.49.283-.247-.165-.305.247-.366-.082-.124.283-.491.242-.185-.04-.305-.284.186-.201.304-.242.553-.283.242-.65.062-.205.124-.16-.304-.366-.372-.242.124h-.16l-.283.124v.366l-.49-.124h-.365l-1.252.429h-.082l-.124-1.347.165-.181.325-.248-.242-.304-.407.185-.608.429-.809-.248.119-.49-.16-.124.526-.547.242-.552.206-.062.484-.305h.16l.164-.31-.082-.304.283-.31.484.124.608-.062.041-.062.608-.242.283-.124.206-.124-.206-.49v-.429l.69-.062v.186l.408-.062.036.248.247-.186-.283-.186-.165-.304.2-.124.083-.428h.526l.247-.062.767.49.567.124.123-.124.644.186.325.186v.428l-.16-.062-.165.243-.525.428-.443.062v-.366h-.242l-.608.185.119.795.772-.062.036-.124-.036-.428h.283l.242.31-.082.118-.974.491.207.433.118.119.932-.552.165-.305.402-.062.407.248v-.062l.2-.124.166-.366h.077l.324-.429.407.243.325.552.484.062.041.243.242.062h.448l.768.185.69.062.041.062-.283.243.242.248-.165.18-.041.429.041.061-.041.367.448-.428.124-.062.484.123.16-.428.607.248.124-.429-.041-.371.85-.919-.284-.124-.082-.18-.402-.31-.49-.057-.159-.186-.448.062-.484-.062-.083.062-.035.062h-.165l-.201-.185-.325.123-.283-.309-.325.062h-.407l-.118-.733-.124-.491.124-.247-.082-.181-.201-1.414-.083-.795-.607.062-1.257-.31-.119-.062-.247-.366-.077-.366 1.05.123.325-.123.242-.124-.2-.305.118-.248-.036-.185.443-.181v-.31l-.042-.118.041-.434-.118-.304-.165-.981-.649.119-.077-.305.118-.366.407-.491-.04-.124.082-.309.324-.124v-.243l.16-.185-.16-.919-.041-.124-.448-.062-.242-.366-.16-.124h-.247l.04.247-.117.305v.305l-.165.371-.284-.186h-.16l-.53-.185-.283-.181-.484-.552-.16-.062-.083-.986.444.062.283.186.572.124h.319l.649-.124.85-.248.165.557.2-.062.165.062v.181l-.165.31.083.304.402.186.288-.186.201-.062.201-.18.407-.186.366-.062.319.062.608-.248h.283l.366.31.123.366.443.31.124.304.443.124-.036.305.2-.057.202.057.164.185.485.062.2.305.284.062v.371h.206l.2.062.042-.185.484.062.206.242.119-.366-.201-.186.366-.305.16.124.406-.371.041.062-.165.428.124.186h.201l.2-.186-.04-.119.206-.309.077-.243.288.062-.123-.31.04-.186.325.31.526-.124.973.186v.243l-.283.309-.041.181.242.495-.124.119.206.248.201-.186.407-.428.16.124-.083.242-.242.31.041.186.366.056.119.8.85-.185-.037-.367.81-.248.118.924.206.795.04.124-.04.366.082.31.283.738.037.057-.16.433.082.367-.124.186v.304l.202.124.283.124.855.49.242.057.525-.181.526-.186.407.062 2.956 1.105.242.124 2.349 1.471 1.015.671.649.433 1.658.919.284.119 1.215.49.443-1.409.325-.366.206-.124.16-.367.283-.124.365-.609.768.119.731.124.366-1.347.2-.738.366-1.229.644-2.699-.077-.057-.123-.371-.119-.305.119-.248.2-.49.448.062.243.124.324.243.124.309.242.243.2-.062.165-.181h.526l.242-.062.484-.247.206.123.078.124-.078.305-.283.186-.124.49.041.248.485.18.324.062.201-.062h.773l.324-.18.083-.31-.124-.428.083-.553.324-.062.16.062.406.305h.16l.242-.181.49.062.2.367v.247l.16.305.247.124.16.18.16.434.649.919.082.428v.31l-.242.428-.69.181-.283.185.04.248.408.057.443-.243.283.186-.041.552.082.305.041.49.201.305.206.124.644.124.283.185.042.795-.119.676.16.243.201.186.247-.124.968-.795.206-.31.85-1.899.567-1.719 1.051.981.566 2.023.165.31.16.733.041.309-.484 1.1-.042.062-.406.918-.243.31-.283.304-.082.248.489.181h.201l.366.186.324.062-.082.67.123.248-.123.491-.325.49-.041.304.082.615-.082.242.041.552-.041.671-.082.367.164.309v.119l-.484 1.043 1.818.795-.118.428-.525 1.104-.325.547.443.124.69-.304.366-.124.242.062.242.181 1.092-.367.366.062-.041.305-.201.185v.367l-.165-.062-.077-.243-.124.062.082.243-.041.242-.525.124-.165.614-.324 1.038-.119.49.484-.124.165-.124.242.124 1.01.186 1.014.671.732.552-.124.243h-.201l-.082.428-.165-.124-.319.367-.083-.062-1.257-.181-.242.367-.242.124-.448-.062-.324.062-.809.056-.124-.056h-.849l-.85.118-.16.124.16.186.489.119h.809l.324.304.077.367-.159.49-.242.124-.809.366-.206.124-.16.243-.082.428.123.062-.082.304-.283.548.041.185.443.914.407.552.443.305-.041.304.69.186.324.609-.123.181.206.794.159.248.124.423-.124.615h-1.457l-.042-.062h-1.091v.366h-.201l-.85-.124-.608-.124-.082-.242.082-.367.201-.304-.165-.181-.402-.186.567-.856-.567-.243-.365-.062-.124.305-.603.676v.118l-.206.305.041.552-.2.062v-.248l-.243-.242-.448-.243-.85.367h-.525l-.407.733.448.242.608.181v.186l-.69.118-.283.31-.567.243-.567-.062-.283-.305-.89.181-.815-.057.165 1.584h.242l.041 1.1.042.062.04 1.156-.69.124.042.609.041 1.522-.124.062-.242.367-.731-.243-.201.057-.041.248-.16.851-.283 1.037-.608.062-.082.119-.69.062-.078-.124-.49.248-1.292.181h-.448l.041.49v.547l-.65.062-1.498.243.082.975-1.215.181h-.283l-1.257.242.082 1.709h-.407l-.36.18-1.298.305v.18l.04.429-.081.609.04.733-.241.665v.367l-.124.242-.041.429-.325.609-.16.242.12.424.607 2.007.041.305-.968-.305-1.422.243-.484.124-1.257.242.041.609-.932.305-.726.181-.49.185-1.576.424-.813.304-.16.124-.974.423-1.54.852-.525.242-1.417.728-.242.124-1.823.97-1.375.671-.69.361-.567.243-.891.49Z" clip-rule="evenodd"/><path id="Луганський" fill="#C8C6C6" fill-rule="evenodd" stroke="#000" stroke-linecap="round" stroke-linejoin="round" stroke-width=".2" d="m132.031 247.134-.541-.655-.082-.341-.17-.274-.005-.154-1.113-.057-.551-.671.015-.16.314-.465.005-.474.155-.444-.088-.217.062-.284.16-.201-.047-.351.176-.186.288-.062.33-.408-.041-.691-.479-.067-.15-.258-.273-.202-.324.047-.201.129-.067-.238-.309.005-.304.191-.108.222-.799-.046-.741-.01-.248-.264-.206.006-.17.113.15.15.123.304-.18.253-.345.083-.036.206-.144.222-.083.336-.391.185-.083.15-.417.243-.572-.145v.289l-.262-.072-.387.082-.7-.087-.278.124-.113.154-.315-.092-.319.139-.361.052-1.869-.842-.521-.191-1.772-.758-.061-.093-.428-.15-.433.165-.664-1.022-.881-1.517-1.334-2.178-.541-.924-1.545-2.467-.196-.021h-2.647l-.201.01.113.398-.865.268-1.932.088-.381-.021-.211-.547-.273.016-1.566-.021-.031-.562-.216-2.039-.01-.557-.052-.269-.082-1.357-.222-2.147-.093-1.125-.988.062-.577-.006-1.973.062-.201.031.2-1.243.222-.068-.092-.356.005-.33-.201-.175-.299.01-.335-.109-.752-.072-.726-.16-1.21-.16-.13-.041-.112.32-.191.036-.072.351.226.671-.334.175-.232.207-.433.124-.206.222-.438.01-.53.072-.556-.433-.665-.036-.19.082.015-.315-.026-1.398.041-.749-.062-.315.031-.598.402-.036.526.098.16-.604-.083-.728.577-.072.293-1.053.18-.852.032-.263.206-.057.72.248.269-.372.103-.02-.052-1.579-.036-.584.69-.092-.041-1.188-.026-.067-.051-1.068-.253-.021-.15-1.6.825.047.88-.16.279.284.572.067.556-.243.299-.263.67-.129.025-.222-.633-.16-.433-.232.417-.728.515-.026.86-.341.443.248.222.212.015.232.196-.026-.031-.557.185-.295-.01-.129.629-.707.103-.253.37.042.577.216-.566.904.386.185.201.161-.222.309-.087.336.082.237.593.155.865.134.221.005v-.387l1.092.015.016.057h1.478l.113-.598-.134-.465-.144-.217-.196-.836.114-.139-.325-.62-.695-.196.026-.273-.433-.351-.386-.532-.458-.903-.037-.196.279-.537.067-.304-.098-.093.077-.429.139-.206.227-.155.798-.356.242-.139.185-.455-.082-.361-.345-.32-.221-.031-.582.036-.495-.155-.149-.16.154-.098.865-.134.825-.031.139.057.808-.01.299-.093.469.046.247-.077.232-.377 1.246.145.103.098.315-.367.175.129.072-.444.201-.015.139-.258-.742-.521-1.03-.656-1.01-.222-.231-.113-.181.113-.453.114.113-.444.325-1.032.165-.635.504-.124.052-.263-.077-.258.128-.062.088.304.139.011-.01-.315.216-.238.052-.253-.381-.103-1.097.387-.227-.186-.258-.056-.35.118-.685.3-.448-.145.299-.511.53-1.125.129-.403-1.818-.815.473-1.012.016-.139-.144-.304.072-.403.02-.661-.046-.552.103-.248-.103-.583.051-.32.309-.516.124-.47-.093-.247.067-.692-.309-.021-.365-.175-.201-.021-.49-.16.057-.248.319-.299.206-.336.407-.918.052-.036.494-1.125-.031-.331-.19-.717-.16-.294-.536-2.055-1.066-.99.32-1.012-.109-1.357.624.092.319.099.731.077 1.731 2.911 2.735.382.237 2.942.206.103 1.901-.568.479-.583.566.351.536.165.144.336.144-.114.191.041.201-.521.046-.237.371-.682.433-.547.237-.506.268.088.041.31.134.377.165.191.37.026.423-.32.474-.439.525-.238.093-.221.345-.279.407-.114.206.057.288.212.165-.011.531-.351.159-.273.139-.604.042-.532.36-.867.083-.397-.325-.661.041-.371.186-.181.175-.046.427.149.227.016.237-.129.103-.243-.015-.397-.067-.279.025-.299.165-.197.345-.01.15.134.216.418.376.073.175-.083.16-.284-.026-.253.134-.516.124-.299.602-.403.258-.253.226-.418.268-.449.325-.32.865-.222.33-.015.195.088.155.258v.222l-.149.356.18.191.484.165.453-.041.33-.171.407-.093.361.083.164.186-.098.371-.278.331-.407.196-.123.402.175.47.124.33-.021.171.098.526.16.3.613.562.134.227.046.356-.417.625-.037.175.109.248.52.392.443.191.484.129.134.171-.072.345-.155.15-.633-.088-.35.134-.371.228-.227.062h-.355l-.078.196.284.413.304.923.113.264.407.289.35.382.386.185.242.253.505.362.464.144.386.046.18.078.062.258-.098.186.016.222.633.552.562.067.216.134.489.454.15.274-.083.346-.365.547-.016.196.268.253.216.026.253-.165.386.02.881.176.52.175.361-.113.366-.031.298.113.222.289-.005.202-.181.196-.108.268.057.578.226.475.273.119.747.026.175.175-.247.743.077.351.33.14.402-.129.706.031.767-.315.278-.196.407-.067.804-.238.278.031.298.238.129.418-.031.33-.087.227-.294.33.026.181.36.377.567.459.247.269.16.505-.119.274-.257.294-.026.418.113.263.17.166.35.093.222.201.031.17-.108.227-.361.186-.093.145.031.299.145.263.206.103.571.098.495-.134.237-.222.062-.335-.083-.403.108-.351.279-.211.422-.217.381-.026.191.129.36.779-.077.439-.273.351.005.232.376.212.356.082.628-.495.113-.16.824-.718.176-.082.401-.026.428.217.17.242.072.429-.134.124-.268.062-.402.634-.072.233.119.304.206.078.396.036.263.118-.077.589.149.304.052.449-.006.377.14 1.29-.005.248.077.48-.067.119.113.335.082.723.212 1.884.288 2.229.124 1.358.675-.088 1.061-.067.072.919-.572.046.062.17.298.454.052.486-.134.356-.201.062-.02.557-.227.568-.489.093-.34.258-.35.02-.531-.118-.118.717.031.506-.794.077.181 1.1-.005.397-.088 1.115.026.237.314.47.083.258-.073.913.387 1.698.087.052.175.609.211 1.032.006.197.149.572.108.227.932 1.131 1.886.072h.329l.304-.279.175.036.541-.345.098-.191.541-.207.258-.294.18-.315.309.165.134-.103.448-.17.19.098-.036.449-.103.031-.232.433-.108.367-.185.377-.144.108-.145.284-.37.113.092.3-.484.836-.366.232-.149-.031-.427.248-.14.186-.339.149-.196.238.571.103.062.119-.015.346.057.686.221.552 1.674-.129.113.299-.175 1.022.16.243-.067.356.088.263-.073.542.505.331.129-.104.474.274-.278.33.165.248.005.155.211.103.355-.005.129.165-.232.181-.067.17.212.134-.165.454.118.429-.556.088-.525.196-.727-.196-.149.593-.376.237-.402.062-.494-.149-.207.175.238.114-.057.186-.211.067-.227-.145-.16-.211-.221.32.407.454.144.542-.046.139-.397.16-.381-.015.108.191.592.031.139.077.315-.02.133-.171.196.196-.051.248-.294.047-.015.134-.531.005-.098.356-.37-.072-.325.139-.206-.263-.484-.047-.077.155-.413.067-.319.16.113.181.376-.005.449.15.298-.176.232-.015.428-.135-.042.181-.159.16-.078.351-.154.145-.046.252-.191.021-.077.233-.299.139-.829-.145-.675-.397-.129.516-.659 1.265-.144.428-.17.253-.186.051-.438-.031-.159.166-.114.562.109.702-.042.196-.154.16-.412.217-.041.165.247.485.031.202-.186.392-.422.449-.227.335-.025.614-.135.326-.484.268-.144.186.077.439-.309.129-.643.046-.032-1.631-.839-.067-2.066-.274-.427-.025.294-.326-.006-.16.248-.201.139-.217-.217-.294.181-.113.061-.367-.175-.082-.597-.098-1.834-.351-.062.304-.134.656-.927-.3-.582-.222-.257.573.046.155-.17.547-.675-.181-.195.718-.098.119-.036.335-.433.274-.325-.733-1.158.423-.279-.501-.149-.134-.082-.294-.196-.397-.294.077-.165.186-.401.258-.191.273.036.212-.103.335-.226.104-.16.201-.541 3.241-.927-.32-.587-.253-.515-.134-.371-.315Z" clip-rule="evenodd"/><path id="Щастинський" fill="#C8C6C6" fill-rule="evenodd" stroke="#000" stroke-linecap="round" stroke-linejoin="round" stroke-width=".2" d="m103.743 178.911-.592 1.77-.83 1.869-.2.314-.959.795-.242.145-.237-.181-.133-.243.097-.691-.015-.805-.299-.181-.659-.113-.186-.114-.2-.346-.041-.48-.088-.33.046-.521-.288-.16-.454.206-.386-.052-.067-.252.31-.191.684-.191.242-.393-.01-.299-.087-.423-.64-.955-.148-.434-.17-.191-.248-.128-.149-.264.005-.242-.2-.372-.49-.057-.268.155-.144-.01-.392-.294-.2-.047-.315.078-.067.511.098.438-.062.31-.314.212-.767-.037-.232.057-.325-.046-.463-.16-.067-.294.129-.475.278-.176.082-.273-.046-.155-.227-.103-.468.242-.243.047-.525-.011-.185.207-.175.046-.243-.227-.144-.299-.314-.269-.252-.123-.448-.062-.33.051-.515-.015-.732.041-.18-.242-.19-.093-.449.17-.808.026-.33.217-.731-.036-.624-.083-.474-.02-.633-.15-.242.041-1.035-.021-.474-.046-.902.031-.216-.181-.01-.32.391-.222.098-.242-.16-.072-.515.237-.154.134-.263-.134.02-.33.098-.393-.283-.242-.309-.119-.54-.01-.315-.077-.32-.166-.478-.149-.17.082.046.3-.165.32-.268.139-.303-.026-.583-.351-.236-.067-.526.031-.129.067-.21.429-.315.175-.633.026-.423-.145-.567.284-.958.14-.442-.031-.886-.191-.34-.176-.582-.16-.201-.17-.18-.341-.552-.155-.34-.216.016-.46.468-.851-.015-.135.258-.547h.5l.931-.516.943-1.192-1.257-.614-.32-.315-.36-.026-.304-.15-.473-.381.319-.279.376.103.438-.191.097-.222-.17-.098-.035-.186.133-.361-.324-.465.01-.139.588-.31.695.532.479.17.216-.97-.33-.274.227-.402-.046-.201-.428-.222-.38-.269-1.237-.733-.54-.407-.11-.501.12-.134-.346-.387.201-.289.732-.191.947.268.145-.01.9-.852.145-.093L75.61 159l-1.112-.599-.237-.253-.706-.485 3.467-3.484.134-.201.37-.331 1.144-1.279.118.067.242-.233.284-.191-.258-.098.062-.185-.242-.191-.407-.135-.129.166-.195-.145.154-.346.546.062.144-.619.093-.036.495.113.026.346.375.181 1.958-2.349 1.014-1.254 1.237-1.486-.031-.496-.119-3.721-1.684-.026-.005-.81 1.056.031v-.872l.607.036-.046-.346-.103-2.72-.082-1.528-.031-.593-.16-4.47.953-.655 1.329-.852.901-.625 1.72-1.125.438-.304.897.098 7.376 1.048 2.044.268.536.088.654.067 2.148.32 2.071.294.453.052 1.988.273 1.077.165 1.308.176 1.447.217.057-.243.273-1.806.072-1.874.443.165 1.844.702.835.268.252.155.5.145.927-.222 1.808-.568 1.458-.439.303-.046.273.661.15.02.005.145-1.818 1.46.252.547.17.238.608.64.582.547.123.057 1.201.345.133-.015 1.113.299 1.55-.877 1.062-.578.046.01 1.653.976.86.542 1.494.851.557.33.973.542 1.36.837.077.118.484.232.778.393.505.222.051.123.232.088.309-.134.325.108.365.197.181.02.087.17.227.104.175-.687.525.005.021-.361.618-.077.108-1.234-1.226-.449.866-1.203.139-.294.561-.712-.273-.237-.149-.64-.175-.274.144-.32.546-.005.855.067.098.232.098 1.513.118.645 1.169-.109 1.623-.113.443-.047.026.785-.495.02.031.625-.37.036.046.63.448-.037.525 1.384.68 1.827.562 1.46.541 1.358.494 1.362.062 1.884.057 1.198.02.015 2.328 1.048.423.16 1.462.671 1.396-1.167.804-.857.669-.831.577-.619 1.983 2.73.366-.118.191.056.149-.139.144.155.423-.346.525-.279.103.006.299-.274.561-.243.33-.309.381-.258-.082-.078.185-.315.309.037.288-.238.428.222.18.367.139.108.057.397.165.011.257.361.067.196.232.186.046.325-.087.191.113.165.33.232.391-.02-.051.418.124.103.247-.15-.021-.165.181-.113.257-.408.726-.434.15-.185.216-.057.304.072.139.279-.288.217-.098.201.051.428.237.227.546.078-.01.315.185.18-.097.196-.212.083.016.243.134.103.221-.176.18.031.047.258-.237.191.216.455.217.036.041.144-.222.227.284.248.288.444.247-.083.232.067.057.202-.345.278-.093.749.103.351.108.01.185.268.181-.026.221.222-.01.145-.232.47-.015.211.082.387-.082.176-.356.18.165.449.397.418.18.341.459.067.314-.082.17.206-.072.201.226.196.15-.16.072-.32.396-.056.366.144.268.351.221.072.191.346.263-.026.01.31.299.134.18.398-.144.18-.278.14-.109.149-.005.238.247.118.093.196.258.176.041.201.154.083-.025.433.257-.046.201-.181.108-.392.134-.191.021-.377-.119-.237-.062-.434.196-.206.201-.088.19.083.145.201.262-.237.618 1.605.34.026.196-.067 1.051-.129.335-.062 4.208-.455.263.367.252.134.16.176.278.067-.005.149.453.485.201.547.268.413.19.181.325.15.175.196.788.181 2.426.495.052-.16.587-2.834.149-.567.129-.697.824-.077h.314l.139-.3.176-.124-.032-.263-.139-.222.248-.031.216-.191.35-.144-.134-.248.175-.119.263-.015.232-.129.062.258.412-.139.278.092.18.434.247.083.536-.068.5.227-.247.64.674 2.235.278.847.304.753.639.418-1.133 1.275-.077.052-1.788 2.028-.86 1.007-.458.485-.85.996-.938 1.017-2.271 2.523-.5.589-.201-.031-.304.082-.226-.067-.433-.304-.355-.078-.206.088-.577-.041-2.004-1.198-.402-.263-2.951-1.786-2.138-.743-.422-.129-1.174-.408-.691-.273-.159.015-.273.243-.675-.346-1.082-.599-.17-.578-.407.083-.324.315-.041.325-.314.155-.047.49.005.542.186.046.298.305-.087.248-.366.16-.216-.083-.052-.17-.237-.052-.113.299.175.429-.005.201-.196.17-.401.584.005.609.432.789.031.465-.123.48-.005.217-.237.423-.026.201-.211.253-.407.103-.181.114-.18.366-.252.176-.072.175.01.3-.15.139-.097.315.448.222.041.495-.103.17-.247.16-.32-.005-.551-.547-.432.134-.222-.02.371-.351.247-.072-.221-.305-.17-.031-.536.48.17.227-.216.181-.273-.047-.217.253-.02.537-.227.005-.216.103-.052.382.15.181-.382.139-.149.253.119.341.231-.098.17-.31.377.15.005.165.159.299.062.532-.242.036-.191-.206-.144.093-.057.299-.54.201.036.33-.201.558-.031.273.319.31-.263.418-.355-.377-.314.124-.345.289-.15.279.047.237-.098.176-.206.139.051.196.217.165.19.037.005.397-.067.129-.303-.046-.114.371-.165.279.232.444.289.16.134.191.221-.016.103-.201.201.041.01.243.113.439-.257.113-.067.165.191.279-.129.201.01.197.129.242.175.088.185.237.026.202-.154.149-.32.088-.288.196-.052.501-.087.16-.376.273-.356.181-.164.248.19.33.536-.165.082.124-.041.361-.108.284.015.242.479.434.057.212-.577.087-.252-.304-.294.402-.299.181-.484.397-.19.382.19.346.067.697-.087.217-.227.118-.294.362-.267.154-.634.491-.417.407-.227.279-.201.351-.232.826-.267.47.051.418.252.149.418-.02.175.144-.258.367.057.578.294.103.417-.346.288.253-.401.268.025.408.248.052.01-.176.196-.088.154.212.32.294.025.253.299.062-.402.031-.247-.036-.685-.341-.391.021-.248.134-.788.176-.247.149-1.035.269-.623.237-.397-.087-.381-.424-.361-.232-.206.176-.103.557-.299.532-.293.216-.067.233-.294-.011-.262-.118-.397-.037-.206-.077-.119-.304.073-.233.401-.635.268-.061.134-.124-.072-.429-.17-.242-.428-.217-.401.026-.175.082-.825.718-.113.16-.628.495-.356-.082-.376-.212-.005-.232.273-.351.077-.439-.36-.779-.191-.129-.381.026-.422.217-.278.211-.109.351.083.403-.062.335-.237.222-.494.134-.572-.098-.206-.103-.144-.263-.031-.3.092-.144.361-.186.108-.227-.031-.17-.222-.202-.35-.092-.17-.166-.113-.263.026-.418.257-.294.119-.274-.16-.505-.247-.269-.567-.459-.36-.377-.026-.181.293-.33.088-.227.031-.33-.129-.418-.298-.238-.279-.031-.803.238-.407.067-.278.196-.768.315-.705-.031-.402.129-.33-.14-.077-.351.247-.743-.175-.175-.747-.026-.273-.119-.226-.475-.057-.578.108-.268.18-.196.006-.202-.222-.289-.299-.113-.365.031-.361.113-.52-.175-.881-.176-.386-.02-.253.165-.216-.026-.268-.253.016-.196.365-.547.083-.346-.15-.273-.489-.454-.216-.135-.562-.067-.633-.552-.016-.222.098-.186-.062-.258-.18-.077-.386-.047-.464-.144-.505-.361-.242-.253-.386-.186-.35-.382-.407-.289-.114-.263-.303-.924-.284-.413.078-.196h.355l.227-.062.37-.227.351-.134.633.087.155-.149.072-.346-.134-.17-.484-.13-.443-.19-.52-.393-.109-.247.036-.176.418-.624-.047-.357-.134-.227-.612-.562-.16-.3-.098-.526.02-.17-.123-.331-.175-.469.123-.403.407-.196.278-.33.098-.372-.165-.186-.36-.082-.407.093-.33.17-.453.041-.484-.165-.181-.191.15-.356v-.222l-.155-.258-.195-.088-.33.016-.865.222-.325.32-.268.449-.226.418-.258.253-.603.402-.123.299-.134.517.026.252-.16.284-.175.083-.376-.072-.216-.418-.15-.135-.345.011-.165.196-.026.299.067.279.016.397-.103.243-.237.129-.227-.015-.427-.15-.175.046-.186.181-.041.372.324.66-.082.398-.361.867-.041.531-.139.604-.159.274-.531.351-.165.01-.288-.212-.206-.057-.407.114-.345.279-.093.222-.525.237-.474.439-.423.32-.371-.026-.164-.191-.134-.377-.041-.31-.268-.087-.237.505-.433.548-.371.681-.046.237-.201.522-.191-.042-.144.114-.144-.336-.536-.165-.566-.351-.479.583-1.901.568-.206-.103-.237-2.942-2.735-.382-1.731-2.911-.731-.077-.32-.098-.623-.093.108 1.357-.319 1.012Z" clip-rule="evenodd"/><path id="Довжанський" fill="#C8C6C6" fill-rule="evenodd" d="m136.574 288.638-.433-.026-.175-.119-.345-.057.067-.196-.144-.108.16-.263-.217-.181.072-.33.155-.088-.201-.227.021-.635-.109-.351.036-.196-.149-.201.072-.449-.077-.067-.041-.517.288-.211.69-.078.479.011.072-.584.042-.758 3.348.222 1.334.118.087-.025-4.403-4-1.067-.981-.726-.857-.422-.526-2.55-3.03.402-.02-.732-2.529.346-.491v-.573l.051-1.372-.072-.202.129-.118.479-.129.381-.269.252-.01.129-.16.222-.067.273-.227.113-.196-.036-.171.422-.046.031-.078.5-.258.201-.01.278-.15.52.057.211.078.526-.857.819.371.056-.092.15-.692.144-.243.185-.8.562.062.113-.418-.86-.041.005-.258-.299-.067-.814.01-.278.052-.226-.64-.299-.46-.124-.087-.098-.289-.236-.243-.572-.464-.021-.104.108-1.027-.036-.134.155-.433.005-.955-.232-.145-.061-.268-.047-1.724.015-.583-.031-.712.098-.666-.551-.614-.175-.135.309-.232.175-.372-.139-.371.052-.284-.309-.067-.258.108-.108.325-.335-.046-.371.072-.103.31-.257.212-.253.098.005-.228-.252-.412h-.479l.149-.382-.53-.537-.721-.676.407-.496.515-1.45-.088-.274.015-.454-.041-.253.083-.185-.026-.248.159-.299-.051-.511-.175-.439.17-.103.371.314.515.135.587.253.927.32.541-3.242.16-.201.226-.103.103-.336-.036-.211.191-.274.402-.258.164-.186.294-.077.196.397.082.294.149.135.279.5 1.159-.423.324.733.433-.274.036-.335.098-.119.195-.717.675.18.17-.547-.046-.154.257-.573.582.222.927.299.134-.656.062-.304 1.834.351.597.098.176.083-.062.366-.181.114.217.294-.139.216-.248.202.005.16-.293.325.427.026 2.066.273.84.067.031 1.631.643-.046.309-.129-.077-.439.144-.186.485-.268.134-.325.026-.614.226-.336.422-.449.186-.392-.031-.201-.247-.485.041-.166.412-.216.154-.16.042-.197-.109-.701.114-.563.159-.165.438.031.186-.052.17-.253.144-.428.659-1.265.129-.516.675.398.829.144.299-.139.077-.232.191-.021.046-.253.155-.144.077-.351.159-.16.042-.181-.428.134-.232.016-.298.175-.449-.149-.376.005-.113-.181.32-.16.412-.067.077-.155.484.047.206.263.325-.14.37.073.098-.356.531-.006.015-.134.294-.046.051-.248-.195-.196-.134.17-.315.021-.139-.078-.592-.031-.108-.191.381.016.397-.16.046-.14-.144-.542-.407-.454.221-.32.16.212.227.144.211-.067.056-.186-.236-.113.206-.176.494.15.402-.062.376-.237.149-.594.726.196.526-.196.556-.087-.118-.429.165-.454-.212-.134.067-.171.232-.18-.129-.165-.355.005-.211-.103-.005-.155-.165-.248.278-.33-.474-.274-.129.103-.504-.33.072-.542-.088-.263.067-.356-.16-.243.175-1.022-.113-.299-1.674.129-.221-.552-.057-.687.015-.346-.061-.118-.572-.104.196-.237.339-.15.14-.185.427-.248.149.031.366-.232.484-.836-.092-.3.371-.113.144-.284.144-.109.185-.376.109-.367.231-.433.103-.031.036-.449-.19-.098-.448.17-.134.103-.309-.165-.18.315-.258.294-.541.206-.098.191-.541.346-.175-.036-.304.279h-.329l-1.885-.073-.933-1.13-.108-.227-.149-.573-.005-.196-.212-1.032-.175-.609-.087-.052-.387-1.698.073-.913-.083-.258-.314-.47-.026-.238.088-1.114.005-.398-.181-1.099.794-.078-.031-.505.118-.718.531.119.35-.021.34-.258.489-.092.227-.568.02-.558.201-.062.134-.356-.051-.485-.299-.454-.062-.17.572-.047-.072-.918-1.061.067-.675.087-.124-1.357-.288-2.23-.211-1.883-.083-.723-.113-.336.067-.118-.077-.48.005-.248-.139-1.29.005-.377-.052-.449-.149-.305.077-.588.294.01.067-.232.293-.217.299-.531.103-.558.206-.175.361.232.381.423.396.088.624-.237 1.035-.269.247-.149.788-.176.247-.134.392-.021.685.341.247.036.402-.031.366-.041.633-.17.948.335.505.072.386-.201.603.072.365-.036.232-.113.423-.382.391-.052.175.201.041.305-.005.511.196.051.34-.211.355-.103.562-.279.16-.181.144-.387.216-.144.917-.114.556.02.35.145.438.377.191.32.221.211.443.124.423-.098.242-.149.376-.104.232.217-.011.258-.195.274-.222.144.041.145.83.407.685.207.587.335.397.455.314.686.041.454-.206.594.087.557.237.511.036.201-.164.615.067.572.329.759.201.687-.01.299.211.872.175.527.016.536-.098.212-.345.284-.397.067-.371-.263-.319.072-.144.181-.047.443.082.362.021.826-.123.578-.052.856.026.351.098.253.314.594.541.542 1.499.856 1.056.826.844.315.088.351-.196.16-.443.077-.154.171.34 1.171.113.305.412.511.901.593.145.217.061.31-.046.454-.134.335-.278.46-.077.418.149.284.453.124.258.139.149.17.062.279-.16.289-.345.15-.417.108-.129.32.294.232.299.103.262.351.021.444.216.496.428.278.278.006.345-.238.113-.227.103-.588.16-.356.201-.166.263.068.113.278-.113.511-.402.81-.119.13-.041.237.149.526-.278.578.16.042.056.175-.092.475.154.093.17-.227.438.196-.18.196.093.098.396-.051-.01.16-.196.521-.128.217-.361.118-.608-.273-.314.041-.804.186-.01.743-1.329.397-1.432.388-.7.211-1.02-.098h-.319l-1.252.155-.16.072-.031.454-.371.062.083.867.02.537-.077.97.639.083 1.627.057 1.628.026v.779l.407.17.175-.103.556.232.371.367.479.598.016.501.175.619.134.021.092.387-.17.495-.118.15.02.248-.092.33.329-.021.093.186.314-.201.428-.01.067-.258.196-.377.582-.439-.392-.325.16-.16.257-.036.15-.496-.031-.232.092-.315.32-.103.18.119.175-.078.247-.258-.01-.196.196-.149-.093-.176.211-.279-.041-.258.16-.129.221.057.062.165.536-.098.19-.206.026-.212.454-.113.066-.331-.056-.242.108-.15.52-.351.319-.005.397-.237.33.046.015.15.206.392-.067.557-.02.991.211.578.438 1.094.366.976.061-.005.294.898.144.33.335.026.149.428-.257.073.252.609.016.149.237.444.139.346-.861 1.12-.298.361.02.424.093.707.103 1.058-.696.134-.777-.093-1.082-.196-.541-.052-1.638-.217-.963-.026-.108.625-.108 2.436-.047.588-.072-.005-.067 1.771-.005.671-.963-.197-.489.016-.361.175-.093-.056-.412.175-.262 1.363.087 1.393-.067.81-.108.48-.268.625.015.191-.17.155-.036.242-.236.088-.042.444-.221.16-.253-.005-.242.273-.159.073-.243.33-.051.382-.149.077-.284.444-.195.237-.423.264.258.98-.345 2.772-.083.934-.056-.005-2.957 1.579.876.78.494.309.912.387.01.036.804.279 1.148.48.016.986-1.87.046-.381-.026-1.37.021-.479-.149-.253.17-1.087.005-.958.067-.458-.015-1.87.046-.211.052.144.506.258.758.108.14-.093.216.083.548.247.252-.026.212.19.382.114.103.082.356.129.026.288.387.186.067.144.217.139-.01.335.495.257.202.15-.067.422.16-.216.48.257.18.006.258.128.496-.195.031-.016.408.098.294.186-.078.386.166-.103.423-.129.273-.221.093-.026.248-.129.387.062.366.139.171-.124.119.134.175-.097.232.128.227-.041.124.402.227.123.294-.005.186-.144.098-.123.264.046.154-1.097-.01-.268.062.026.692.371.263-.016.526-.17.31-.185-.145-.16.006.016.351-.315.402.093.599-.252.304-.186.31-.154.124-.072.408.01 1.187.056 1.935.032 2.684-.145.284-.149.041-.561-.057-.33-.087-.124.108-.515-.062-.195-.088-.51-.093-.181.062.041.935.011 2.1-.521-.041-.17.206-1.447 2.194-.051.015-1.716-.15-.772-.082-2.128-.191-1.143-.119-1.231-.082-.222-.037-.623-.443-.443-.114-.252-.01-.237-.155-.345.015-.309-.072-.227.129-.134.201-.376.021-.417-.041-.701.046-1.045-.01-.675-.031-1.499.01-.376.392-1.056.568-.654.521-.613-.975-.221.191-.989.753-.86-1.063-1.845-2.209-.865-1.058-.082-.144-.448.191-.279-.093-.324.01-.211.108-.351.413-.34.026-.489.413-.247-.093.113-.139-.092-.243-.212-.005-.149.108" clip-rule="evenodd"/><path stroke="#000" stroke-linecap="round" stroke-linejoin="round" stroke-width=".2" d="m136.574 288.638-.433-.026-.175-.119-.345-.057.067-.196-.144-.108.16-.263-.217-.181.072-.33.155-.088-.201-.227.021-.635-.109-.351.036-.196-.149-.201.072-.449-.077-.067-.041-.517.288-.211.69-.078.479.011.072-.584.042-.758 3.348.222 1.334.118.087-.025-4.403-4-1.067-.981-.726-.857-.422-.526-2.55-3.03.402-.02-.732-2.529.346-.491v-.573l.051-1.372-.072-.202.129-.118.479-.129.381-.269.252-.01.129-.16.222-.067.273-.227.113-.196-.036-.171.422-.046.031-.078.5-.258.201-.01.278-.15.52.057.211.078.526-.857.819.371.056-.092.15-.692.144-.243.185-.8.562.062.113-.418-.86-.041.005-.258-.299-.067-.814.01-.278.052-.226-.64-.299-.46-.124-.087-.098-.289-.236-.243-.572-.464-.021-.104.108-1.027-.036-.134.155-.433.005-.955-.232-.145-.061-.268-.047-1.724.015-.583-.031-.712.098-.666-.551-.614-.175-.135.309-.232.175-.372-.139-.371.052-.284-.309-.067-.258.108-.108.325-.335-.046-.371.072-.103.31-.257.212-.253.098.005-.228-.252-.412h-.479l.149-.382-.53-.537-.721-.676.407-.496.515-1.45-.088-.274.015-.454-.041-.253.083-.185-.026-.248.159-.299-.051-.511-.175-.439.17-.103.371.314.515.135.587.253.927.32.541-3.242.16-.201.226-.103.103-.336-.036-.211.191-.274.402-.258.164-.186.294-.077.196.397.082.294.149.135.279.5 1.159-.423.324.733.433-.274.036-.335.098-.119.195-.717.675.18.17-.547-.046-.154.257-.573.582.222.927.299.134-.656.062-.304 1.834.351.597.098.176.083-.062.366-.181.114.217.294-.139.216-.248.202.005.16-.293.325.427.026 2.066.273.84.067.031 1.631.643-.046.309-.129-.077-.439.144-.186.485-.268.134-.325.026-.614.226-.336.422-.449.186-.392-.031-.201-.247-.485.041-.166.412-.216.154-.16.042-.197-.109-.701.114-.563.159-.165.438.031.186-.052.17-.253.144-.428.659-1.265.129-.516.675.398.829.144.299-.139.077-.232.191-.021.046-.253.155-.144.077-.351.159-.16.042-.181-.428.134-.232.016-.298.175-.449-.149-.376.005-.113-.181.32-.16.412-.067.077-.155.484.047.206.263.325-.14.37.073.098-.356.531-.006.015-.134.294-.046.051-.248-.195-.196-.134.17-.315.021-.139-.078-.592-.031-.108-.191.381.016.397-.16.046-.14-.144-.542-.407-.454.221-.32.16.212.227.144.211-.067.056-.186-.236-.113.206-.176.494.15.402-.062.376-.237.149-.594.726.196.526-.196.556-.087-.118-.429.165-.454-.212-.134.067-.171.232-.18-.129-.165-.355.005-.211-.103-.005-.155-.165-.248.278-.33-.474-.274-.129.103-.504-.33.072-.542-.088-.263.067-.356-.16-.243.175-1.022-.113-.299-1.674.129-.221-.552-.057-.687.015-.346-.061-.118-.572-.104.196-.237.339-.15.14-.185.427-.248.149.031.366-.232.484-.836-.092-.3.371-.113.144-.284.144-.109.185-.376.109-.367.231-.433.103-.031.036-.449-.19-.098-.448.17-.134.103-.309-.165-.18.315-.258.294-.541.206-.098.191-.541.346-.175-.036-.304.279h-.329l-1.885-.073-.933-1.13-.108-.227-.149-.573-.005-.196-.212-1.032-.175-.609-.087-.052-.387-1.698.073-.913-.083-.258-.314-.47-.026-.238.088-1.114.005-.398-.181-1.099.794-.078-.031-.505.118-.718.531.119.35-.021.34-.258.489-.092.227-.568.02-.558.201-.062.134-.356-.051-.485-.299-.454-.062-.17.572-.047-.072-.918-1.061.067-.675.087-.124-1.357-.288-2.23-.211-1.883-.083-.723-.113-.336.067-.118-.077-.48.005-.248-.139-1.29.005-.377-.052-.449-.149-.305.077-.588.294.01.067-.232.293-.217.299-.531.103-.558.206-.175.361.232.381.423.396.088.624-.237 1.035-.269.247-.149.788-.176.247-.134.392-.021.685.341.247.036.402-.031.366-.041.633-.17.948.335.505.072.386-.201.603.072.365-.036.232-.113.423-.382.391-.052.175.201.041.305-.005.511.196.051.34-.211.355-.103.562-.279.16-.181.144-.387.216-.144.917-.114.556.02.35.145.438.377.191.32.221.211.443.124.423-.098.242-.149.376-.104.232.217-.011.258-.195.274-.222.144.041.145.83.407.685.207.587.335.397.455.314.686.041.454-.206.594.087.557.237.511.036.201-.164.615.067.572.329.759.201.687-.01.299.211.872.175.527.016.536-.098.212-.345.284-.397.067-.371-.263-.319.072-.144.181-.047.443.082.362.021.826-.123.578-.052.856.026.351.098.253.314.594.541.542 1.499.856 1.056.826.844.315.088.351-.196.16-.443.077-.154.171.34 1.171.113.305.412.511.901.593.145.217.061.31-.046.454-.134.335-.278.46-.077.418.149.284.453.124.258.139.149.17.062.279-.16.289-.345.15-.417.108-.129.32.294.232.299.103.262.351.021.444.216.496.428.278.278.006.345-.238.113-.227.103-.588.16-.356.201-.166.263.068.113.278-.113.511-.402.81-.119.13-.041.237.149.526-.278.578.16.042.056.175-.092.475.154.093.17-.227.438.196-.18.196.093.098.396-.051-.01.16-.196.521-.128.217-.361.118-.608-.273-.314.041-.804.186-.01.743-1.329.397-1.432.388-.7.211-1.02-.098h-.319l-1.252.155-.16.072-.031.454-.371.062.083.867.02.537-.077.97.639.083 1.627.057 1.628.026v.779l.407.17.175-.103.556.232.371.367.479.598.016.501.175.619.134.021.092.387-.17.495-.118.15.02.248-.092.33.329-.021.093.186.314-.201.428-.01.067-.258.196-.377.582-.439-.392-.325.16-.16.257-.036.15-.496-.031-.232.092-.315.32-.103.18.119.175-.078.247-.258-.01-.196.196-.149-.093-.176.211-.279-.041-.258.16-.129.221.057.062.165.536-.098.19-.206.026-.212.454-.113.066-.331-.056-.242.108-.15.52-.351.319-.005.397-.237.33.046.015.15.206.392-.067.557-.02.991.211.578.438 1.094.366.976.061-.005.294.898.144.33.335.026.149.428-.257.073.252.609.016.149.237.444.139.346-.861 1.12-.298.361.02.424.093.707.103 1.058-.696.134-.777-.093-1.082-.196-.541-.052-1.638-.217-.963-.026-.108.625-.108 2.436-.047.588-.072-.005-.067 1.771-.005.671-.963-.197-.489.016-.361.175-.093-.056-.412.175-.262 1.363.087 1.393-.067.81-.108.48-.268.625.015.191-.17.155-.036.242-.236.088-.042.444-.221.16-.253-.005-.242.273-.159.073-.243.33-.051.382-.149.077-.284.444-.195.237-.423.264.258.98-.345 2.772-.083.934-.056-.005-2.957 1.579.876.78.494.309.912.387.01.036.804.279 1.148.48.016.986-1.87.046-.381-.026-1.37.021-.479-.149-.253.17-1.087.005-.958.067-.458-.015-1.87.046-.211.052.144.506.258.758.108.14-.093.216.083.548.247.252-.026.212.19.382.114.103.082.356.129.026.288.387.186.067.144.217.139-.01.335.495.257.202.15-.067.422.16-.216.48.257.18.006.258.128.496-.195.031-.016.408.098.294.186-.078.386.166-.103.423-.129.273-.221.093-.026.248-.129.387.062.366.139.171-.124.119.134.175-.097.232.128.227-.041.124.402.227.123.294-.005.186-.144.098-.123.264.046.154-1.097-.01-.268.062.026.692.371.263-.016.526-.17.31-.185-.145-.16.006.016.351-.315.402.093.599-.252.304-.186.31-.154.124-.072.408.01 1.187.056 1.935.032 2.684-.145.284-.149.041-.561-.057-.33-.087-.124.108-.515-.062-.195-.088-.51-.093-.181.062.041.935.011 2.1-.521-.041-.17.206-1.447 2.194-.051.015-1.716-.15-.772-.082-2.128-.191-1.143-.119-1.231-.082-.222-.037-.623-.443-.443-.114-.252-.01-.237-.155-.345.015-.309-.072-.227.129-.134.201-.376.021-.417-.041-.701.046-1.045-.01-.675-.031-1.499.01-.376.392-1.056.568-.654.521-.613-.975-.221.191-.989.753-.86-1.063-1.845-2.209-.865-1.058-.082-.144-.448.191-.279-.093-.324.01-.211.108-.351.413-.34.026-.489.413-.247-.093.113-.139-.092-.243-.212-.005-.149.108"/></svg>