<svg xmlns="http://www.w3.org/2000/svg" width="253" height="234" fill="none" viewBox="0 0 253 234"><path id="Вознесенський" fill="#C8C6C6" fill-rule="evenodd" d="m65.366 119.966-1.525.325-.948.18-2.992.645-.629-2.9-.602-2.601-1.7.356-.577-1.951 2.076-.47-.108-.485 1.694-.372-.561-.893-.206-1.14-1.19.222-.855-4.423-.165-.811 1.643-.32-.53-2.828-1.84.418-1.179.253-.056-.47-.227-2.482 1.514.031-.396-1.822-.66-2.947.515-.103-.54-2.488.762-.175 1.756-.367-.556-2.771.371-.067-.072-.413-.32-1.466-1.436.439-.583.139-1.545.428-.463-1.615-2.329.366-.38.005-.13-.567-.942.454-.927.19-.201-.933-1.174.211-.17-.975-.258.041-.412-1.863-.165-.625 1.73-.35 1.15-.28-.408-1.656.449-.098-.454-2.168-.231-.929.458-.14.391-.05-.283-1.234 1.216-.258-.345-1.631-.964.206-.21-.547-1.561-4.01-.459-1.09-.376.15-.258-.325-.087-.19-.02-.295-.109-.34 1.252-.326-.752-1.275 1.231-.706.721-.352-.283-1.316.5-.154 1.776-.362-.18-.95-.077-.2-.525-2.736-2.097.418-.247-1.239-.046-.118-.3-1.533-.02-.29.371-.072 2.03-.449-.175-1.063-.335-1.548-.17-.94.927-.154 2.035-.465.87-.206 2.23-.465.376-.134-.103-.542-.108-.248.268-.196 1.695-.738-.32-.727.634-.238.901-.372.155.754 1.761-.754 2.18-.903.298-.087.123.562 1.86-.34.093-.047 1.174-.248-.175-.944 2.045-.408.195.97.675-.144.747-.165 2.87-.584-.238-1.43 1.411-.283.433-.108 1.767-.28.144.347.314.934.14.475.231-.047.49.109.86-.341-.371-.475-.17-.413-.546-.475-.15-.552-.293-.325-.052-.325-.133-.3-.17-.221.298.015.53-.145 1.84-.381.767-.176 1.025-.196 2.004-.408 1.452-.263.428-.119-.072-.402.504-.104.212.202.561.304.072.196.392.635 1.128-.212 1.071-.237.18.82.32 1.539.257 1.171.32-.15.582 2.726.16.908.355 1.487 1.674-.351 1.025-.243.056-.273.454.02.01.46-.247.118-.026.46.062.315.149.19.752.579.041.123-.335.186-.5-.573-.329-.665.18 1.13.212.98-.917.197-1.54.36-.66.135-.098.46.005.258-.272 1.538-.057.196-.15.95.02.376.13.578.087-.005.119.49.17.45 1.071 1.558.119.119.36.536.067.16 1.035 1.549.567-.083.876-.18 2.523-.563 2.04-.444.53-.088.918-.2.128-.089-.716-3.112.794-.196.077-.057.633-.113 1.262-.274.17-.056.351 1.419.262 1.238.361-.015.216-.093.778-.129.52-.15.356-.056.757-.191-.067-.434-.572-2.498-.18-.903 1.221-.243-.474-2.384-.237-1.3-.186-.894.32-.103.371-.051 1.303-.243.716-.15.02-.201-.314-1.646-.046-.124-.32-1.73-.067-.19-.783-3.938-.067-.403-.607-3.055-.196-1.1-.253-1.32-.339-1.642-.129.02-.247-1.775.02-.077-.247-1.853-.041-.046-1.092.222-.33-2.044-.999.134-.098-.532-.144-.505.041-.13-.34-1.697 1.076-.207-.226-1.342-.665-3.793-.371-2.065.814-.165-.257-1.481-.047-.14 1.396-.284-.201-1.166 4.435-.841 1.401-.258.423 2.317.417 2.183.149.847-1.87.531-.221.315-.139.454-.175 1.735.36-.042 1.159-.206.18.97.201.94.866-.253.412-.413.175-.346.129-.573-.15-.77.155-.01 2.292.068 1.071-.191-.757-4.155-.129-.64.819-.15.747-.16.902 1.74.139-.068-.134-.763.608-.104.618-.211-.16-1.497-.088-.067.047-.351.273-.031-.222-.99.345-.006 2.056-.382.37-.17 1.056-.207.072.078.459-.083.263 1.3.226-.046.18 1.223.814-.134 2.432-.505.36-.006.062.124-.186.18.005.331.15.067.201-.185.34 1.723h.036l.252 1.172 1.272-.227.258-.103.695-.14.624-.093.458-.036.613-.119 2.241-.387.412 2.442.504 2.797.186.96.036.366.196 1.007-3.565.655-1.009.202.51 2.89.396 2.425.505 2.974.494 2.947.103.366.361-.191.489-.052.253.135.149-.259.319-.227-.087-.263.098-.201.17-.041.015-.212.278-.114.129-.237-.175-.18.412-.223.134.625.16.041 1.416-.325-.041-.423.484.072.742-.155.53-.056.134.098 1.751-.326.516 3.19.061.026.042.67.298 1.936.047.18 1.39-.34.418-.082.072.583-.145.366.346 1.12.144.212.175.475.072.48.021 1.904.159.527.052.397.082.067.134.66-.252.027-2.509.098-.046.738.232 1.156-.521.155.304 1.233.181-.005.098.351.365.578.299.34.093.646-.088.17-3.44.697.582 2.957.329 1.379 3.049-.527.418-.098-.078-.15 3.312-.598 1.556-.305 2.308-.428-.263-1.358 1.571-.284 2.436-.407.66-.088.103.392 2.044-.371 1.231-.207.289 1.001.118.615 1.417-.264.257 1.342.521-.088.345 1.812 1.663-.279.649 3.593.109-.005 1.195-.222.298-.026-.134.294.397.573-.046.165.154.103.201-.211.175.072.155-.32-.098-.165.345-.098.494-.434-.051-.382.232.083.195 1.104.057.083 2.04-.408 1.813-.35.17-.032.443 2.276.654 3.469-.829.144-1.355.201-1.55.212.371 2.663.051.222.201 1.363.036.392.201 1.512.16 1.3-.227.058.196 1.615.329 2.26.211.078 1.242-.16.664-.103.294 1.811.216 1.229-1.272.201-2.766.464-.33-2.503-.103-.65-1.782.248.098.655.34 2.06-.685.129-2.447.402-.031.274-.376.062.16.965.252-.052.206 1.28-1.215.233.19 1.026-.556.114-.222.408-1.05.258-.742.211-.577.057-.546.248-.865.217-4.039 1.145-.36.114-.304.072-.072-.516-.201-.908-.17-.005-1.71.247-1.72.217-.17-1.053-.078-.325-.149-.903-.16-.119-1.566.222-2.204.263-1.221.135-.062-.48-.242-1.162-.886.078-1.452.227-.763.083-2.554.31-1.237.139.175-.465.34-.124.155-.186-.16-.258v-.304l-.381-.635-.283-.083-.562-.33-.262.248-.521.093.037.83-.042.109.062.852-.556.154-.222.114.237.17.32.103.36.501v.377l.124.129.242-.155.278.176.186.258.128.31-.098.133.047.326.185.371.201.253-.02.134-.304.485-.186.191-.757.315-.33.315.021.274-.216.65-.139.217-.253.103-.597.465-.325.108-.376.057-.314.124-.278.211-.289.33-.257.46-.247.815-.016.47.052 1.063-.052.34-.288.28-.206.299-.284.02-.334-.051-.206.118-.093.346.36.542-.288.511-.057.372-.098.216-.221.176-.041.382.298.604-.025.15-.675.67-1.54.289-.165.016-1.02.232-1.375.258-.371.041-1.097.217-.16-1.001-.098-.382-1.493.304-1.741.331-.763.206-.345.516-.412.775-.175.381.319.207.407.459.108.743.15.052.371.635.067.526.252.191.366.465.118.382-.86.263-1.319.449.005 1.548.675.325.402.346.448.537 1.298 1.77.402.578-.031.083.391.284.536.191 1.174.511.917.815-1.468.79-1.236.635-.057-.114-.525.33-.732.398-1.977 1.151-.258.129-1.236.717.577 1.022.056.16-1.39.826-.618.33-.825.485-2.874-1.264-1.303-.563-.417-.134-2.993-.568-.716-.129-1.174.026-2.38.233-.819.062-.041.139.397 2.147.092.459.397 2.168-2.091.392-1.406.248-.124.036.026.258-.14.041.099.434-.217.176-.556.139-.175.273-2.735.532-.088.506.845.005.737.057.613.082.422.181.335.263.546 2.503.525 2.612.129.707.134.903.288 1.208.314 1.368.248 1.228-.294.124-1.55.351-1.927-.119-.793-.077-.85-.057-1.952-.17-.2-.037-.465-1.992-1.406.279-.288-1.445-.031-.047-1.705.341-.216-1.115-3.88.785-.18 2.054-2.966-.222-.134-.036-.618.134-2.04.397-.129-.531-1.684.33-.278-1.326.845-.129-.428-2.044-.14-.584.83-.185.242 1.053.093.49 2.869-.583-.938-4.568 2.725-.583-.355-1.817-.49-2.307.655-.124-.433-1.197-3.698.738-2.977.645-1.16.237.16.63-.612.129-.32.109-.84.154-2.04.46-1.37.278-.437-1.698-.294-1.202-.221-1.017-1.138.263-.675.103.618-1.486-.088-1.192-1.73.361" clip-rule="evenodd"/><path stroke="#000" stroke-linecap="round" stroke-linejoin="round" stroke-width=".2" d="m65.366 119.966-1.525.325-.948.18-2.992.645-.629-2.9-.602-2.601-1.7.356-.577-1.951 2.076-.47-.108-.485 1.694-.372-.561-.893-.206-1.14-1.19.222-.855-4.423-.165-.811 1.643-.32-.53-2.828-1.84.418-1.179.253-.056-.47-.227-2.482 1.514.031-.396-1.822-.66-2.947.515-.103-.54-2.488.762-.175 1.756-.367-.556-2.771.371-.067-.072-.413-.32-1.466-1.436.439-.583.139-1.545.428-.463-1.615-2.329.366-.38.005-.13-.567-.942.454-.927.19-.201-.933-1.174.211-.17-.975-.258.041-.412-1.863-.165-.625 1.73-.35 1.15-.28-.408-1.656.449-.098-.454-2.168-.231-.929.458-.14.391-.05-.283-1.234 1.216-.258-.345-1.631-.964.206-.21-.547-1.561-4.01-.459-1.09-.376.15-.258-.325-.087-.19-.02-.295-.109-.34 1.252-.326-.752-1.275 1.231-.706.721-.352-.283-1.316.5-.154 1.776-.362-.18-.95-.077-.2-.525-2.736-2.097.418-.247-1.239-.046-.118-.3-1.533-.02-.29.371-.072 2.03-.449-.175-1.063-.335-1.548-.17-.94.927-.154 2.035-.465.87-.206 2.23-.465.376-.134-.103-.542-.108-.248.268-.196 1.695-.738-.32-.727.634-.238.901-.372.155.754 1.761-.754 2.18-.903.298-.087.123.562 1.86-.34.093-.047 1.174-.248-.175-.944 2.045-.408.195.97.675-.144.747-.165 2.87-.584-.238-1.43 1.411-.283.433-.108 1.767-.28.144.347.314.934.14.475.231-.047.49.109.86-.341-.371-.475-.17-.413-.546-.475-.15-.552-.293-.325-.052-.325-.133-.3-.17-.221.298.015.53-.145 1.84-.381.767-.176 1.025-.196 2.004-.408 1.452-.263.428-.119-.072-.402.504-.104.212.202.561.304.072.196.392.635 1.128-.212 1.071-.237.18.82.32 1.539.257 1.171.32-.15.582 2.726.16.908.355 1.487 1.674-.351 1.025-.243.056-.273.454.02.01.46-.247.118-.026.46.062.315.149.19.752.579.041.123-.335.186-.5-.573-.329-.665.18 1.13.212.98-.917.197-1.54.36-.66.135-.098.46.005.258-.272 1.538-.057.196-.15.95.02.376.13.578.087-.005.119.49.17.45 1.071 1.558.119.119.36.536.067.16 1.035 1.549.567-.083.876-.18 2.523-.563 2.04-.444.53-.088.918-.2.128-.089-.716-3.112.794-.196.077-.057.633-.113 1.262-.274.17-.056.351 1.419.262 1.238.361-.015.216-.093.778-.129.52-.15.356-.056.757-.191-.067-.434-.572-2.498-.18-.903 1.221-.243-.474-2.384-.237-1.3-.186-.894.32-.103.371-.051 1.303-.243.716-.15.02-.201-.314-1.646-.046-.124-.32-1.73-.067-.19-.783-3.938-.067-.403-.607-3.055-.196-1.1-.253-1.32-.339-1.642-.129.02-.247-1.775.02-.077-.247-1.853-.041-.046-1.092.222-.33-2.044-.999.134-.098-.532-.144-.505.041-.13-.34-1.697 1.076-.207-.226-1.342-.665-3.793-.371-2.065.814-.165-.257-1.481-.047-.14 1.396-.284-.201-1.166 4.435-.841 1.401-.258.423 2.317.417 2.183.149.847-1.87.531-.221.315-.139.454-.175 1.735.36-.042 1.159-.206.18.97.201.94.866-.253.412-.413.175-.346.129-.573-.15-.77.155-.01 2.292.068 1.071-.191-.757-4.155-.129-.64.819-.15.747-.16.902 1.74.139-.068-.134-.763.608-.104.618-.211-.16-1.497-.088-.067.047-.351.273-.031-.222-.99.345-.006 2.056-.382.37-.17 1.056-.207.072.078.459-.083.263 1.3.226-.046.18 1.223.814-.134 2.432-.505.36-.006.062.124-.186.18.005.331.15.067.201-.185.34 1.723h.036l.252 1.172 1.272-.227.258-.103.695-.14.624-.093.458-.036.613-.119 2.241-.387.412 2.442.504 2.797.186.96.036.366.196 1.007-3.565.655-1.009.202.51 2.89.396 2.425.505 2.974.494 2.947.103.366.361-.191.489-.052.253.135.149-.259.319-.227-.087-.263.098-.201.17-.041.015-.212.278-.114.129-.237-.175-.18.412-.223.134.625.16.041 1.416-.325-.041-.423.484.072.742-.155.53-.056.134.098 1.751-.326.516 3.19.061.026.042.67.298 1.936.047.18 1.39-.34.418-.082.072.583-.145.366.346 1.12.144.212.175.475.072.48.021 1.904.159.527.052.397.082.067.134.66-.252.027-2.509.098-.046.738.232 1.156-.521.155.304 1.233.181-.005.098.351.365.578.299.34.093.646-.088.17-3.44.697.582 2.957.329 1.379 3.049-.527.418-.098-.078-.15 3.312-.598 1.556-.305 2.308-.428-.263-1.358 1.571-.284 2.436-.407.66-.088.103.392 2.044-.371 1.231-.207.289 1.001.118.615 1.417-.264.257 1.342.521-.088.345 1.812 1.663-.279.649 3.593.109-.005 1.195-.222.298-.026-.134.294.397.573-.046.165.154.103.201-.211.175.072.155-.32-.098-.165.345-.098.494-.434-.051-.382.232.083.195 1.104.057.083 2.04-.408 1.813-.35.17-.032.443 2.276.654 3.469-.829.144-1.355.201-1.55.212.371 2.663.051.222.201 1.363.036.392.201 1.512.16 1.3-.227.058.196 1.615.329 2.26.211.078 1.242-.16.664-.103.294 1.811.216 1.229-1.272.201-2.766.464-.33-2.503-.103-.65-1.782.248.098.655.34 2.06-.685.129-2.447.402-.031.274-.376.062.16.965.252-.052.206 1.28-1.215.233.19 1.026-.556.114-.222.408-1.05.258-.742.211-.577.057-.546.248-.865.217-4.039 1.145-.36.114-.304.072-.072-.516-.201-.908-.17-.005-1.71.247-1.72.217-.17-1.053-.078-.325-.149-.903-.16-.119-1.566.222-2.204.263-1.221.135-.062-.48-.242-1.162-.886.078-1.452.227-.763.083-2.554.31-1.237.139.175-.465.34-.124.155-.186-.16-.258v-.304l-.381-.635-.283-.083-.562-.33-.262.248-.521.093.037.83-.042.109.062.852-.556.154-.222.114.237.17.32.103.36.501v.377l.124.129.242-.155.278.176.186.258.128.31-.098.133.047.326.185.371.201.253-.02.134-.304.485-.186.191-.757.315-.33.315.021.274-.216.65-.139.217-.253.103-.597.465-.325.108-.376.057-.314.124-.278.211-.289.33-.257.46-.247.815-.016.47.052 1.063-.052.34-.288.28-.206.299-.284.02-.334-.051-.206.118-.093.346.36.542-.288.511-.057.372-.098.216-.221.176-.041.382.298.604-.025.15-.675.67-1.54.289-.165.016-1.02.232-1.375.258-.371.041-1.097.217-.16-1.001-.098-.382-1.493.304-1.741.331-.763.206-.345.516-.412.775-.175.381.319.207.407.459.108.743.15.052.371.635.067.526.252.191.366.465.118.382-.86.263-1.319.449.005 1.548.675.325.402.346.448.537 1.298 1.77.402.578-.031.083.391.284.536.191 1.174.511.917.815-1.468.79-1.236.635-.057-.114-.525.33-.732.398-1.977 1.151-.258.129-1.236.717.577 1.022.056.16-1.39.826-.618.33-.825.485-2.874-1.264-1.303-.563-.417-.134-2.993-.568-.716-.129-1.174.026-2.38.233-.819.062-.041.139.397 2.147.092.459.397 2.168-2.091.392-1.406.248-.124.036.026.258-.14.041.099.434-.217.176-.556.139-.175.273-2.735.532-.088.506.845.005.737.057.613.082.422.181.335.263.546 2.503.525 2.612.129.707.134.903.288 1.208.314 1.368.248 1.228-.294.124-1.55.351-1.927-.119-.793-.077-.85-.057-1.952-.17-.2-.037-.465-1.992-1.406.279-.288-1.445-.031-.047-1.705.341-.216-1.115-3.88.785-.18 2.054-2.966-.222-.134-.036-.618.134-2.04.397-.129-.531-1.684.33-.278-1.326.845-.129-.428-2.044-.14-.584.83-.185.242 1.053.093.49 2.869-.583-.938-4.568 2.725-.583-.355-1.817-.49-2.307.655-.124-.433-1.197-3.698.738-2.977.645-1.16.237.16.63-.612.129-.32.109-.84.154-2.04.46-1.37.278-.437-1.698-.294-1.202-.221-1.017-1.138.263-.675.103.618-1.486-.088-1.192-1.73.361"/><path id="Первомайський" fill="#C8C6C6" fill-rule="evenodd" d="m89.555 57.086-.129-.578-.02-.377.149-.95.057-.196.273-1.538-.006-.258.098-.46.66-.133 1.54-.362.916-.196-.21-.98-.18-1.13.329.665.5.573.334-.186-.041-.124-.752-.578-.15-.19-.061-.316.026-.46.247-.118-.01-.46-.454-.02-.056.274-1.025.242-1.674.351-.356-1.486-.16-.909-.581-2.725-.32.15-.257-1.172-.32-1.538-.18-.82-1.071.237-1.128.212-.392-.635-.072-.196-.561-.305-.211-.201-.505.103.072.403-.428.118-1.452.264-2.004.407-1.025.197-.767.175-1.84.382-.53.145-.299-.016.17.222.135.3.051.325.294.325.149.552.546.475.17.413.37.475-.86.34-.489-.108-.231.046-.14-.475-.314-.934-.144-.346-1.767.28-.432.107-1.412.284.237 1.43-2.869.583-.747.165-.674.145-.196-.97-2.045.407.175.945-1.174.248-.093.046-1.86.34-.123-.562-.299.088-2.179.903-1.761.754-.155-.754-.901.372-.634.237.32.728-1.695.738-.268.196.108.248.103.542-.376.134-2.23.464-.87.207-2.035.464-.927.155.17.94.335 1.548.175 1.063-2.03.449-.37.072.02.29.299 1.532.046.119.247 1.239 2.097-.418.525 2.735.077.201.18.95-1.776.361-.5.155.283 1.316-.72.351-1.232.707.752 1.275-1.252.325.109.34.02.295.088.19.257.326.376-.15.459 1.09 1.56 4.01.212.547-1.412.32-.958.201-.675.113-2.312.352-.371.077.458 1.884.17.635.299 1.31-.386.17-1.242.615-.386.047-3.08.206-.005-.222-.16-1.884.67-.067.01-.795-.108-1.3-.397.02-1.422.48-1.282.387-.85.336-.185-.547-.057-.326-.15-.531-.715.217-1.175.407-1.421.45-1.04.092-.006-.413-.17-.154-1.39.258-1.515.34-.891.18-3.116.672-.619.129-.257-1.12-.35-1.657-.855.191-2.813.594-.365-1.781-.407-2.023-.103-.46.427-.098-.551-2.528-.232-1.146-.226-1.022-.567-2.638-.103.02-.15-.877-.16-.758-.282-1.559.726-.19.113-.44 2.169-.438-.134-.599-.551-2.71.335-.067.684.026.984-.186-.288-1.465-.68.134-.48-2.715-.396.062-1.354.294-3.58.702-1.298.243-1.107.242-.433-1.543-.278-1.084-.67-3.411-.32-1.703-.123-.785-.185-1.445-.17-1.151-.13-.728-.334-1.682-.2-.81.174-.305.33-.351.32-.227-.794-.98-1.35-1.632-.72-.506-1.932-1.414-.438-.206-.046-.191.18-1.125-.036-.439.216-.067-.566-1.043-1.123-2.147-.31-.645 2.7-1.156-.201-.81.093-.047-.315-.748-1.586-3.35-.051.098-.531.496-.634-.542-.901-.831-.155-.176.258-.252.49-.305.118.175.237.016.103.222.432-.186.438.052.278-.14-.051-.186.227-.175.283-.088.314-.464.355-.759.124-.439-.067-.237 1.432.17 1.401.408.16-1.006.401-.403.397-.124.52.083.114-.052 1.576.258.417.088.15-.346-.387-.108-.639-.29-.01-.722h.155l.149.16.31.124.303.026.216.186.103.196-.185.387 2.57-.558.01-1.393-3.554-.506-.139-.784-.386-1.972-.052-.604.206.15.428.15.17-.047.49-.402.37-.413.015-.207-.139-.165-.056-.516.077-.676.103-.103.397-.104.216.067.206-.056.561-.398.273-.356.711-.227.33-.041.206-.186.108-.351.345-.108.804.025.36-.077.273.015.237.248.103.594.062.15.386.195.593.093.5.042.592.175.33-.036.73-.227.207-.14.139-.226.118-.382.175-.155.279-.052.401.207.32.216.468-.067.402.279.757.346.242.237.253-.046.051-.294.278-.16.51.015.35-.14.423-.242.36-.078.258.052.345.243-.072.263.088.449.299.552.154-.19 1.73-2.52 2.174 2.055.263.965 1.839.103.309-.036.103-.237 2.277.036.607.046.387-.119-.016-.603.108-.062-.118-.258.118-.227 1.278-.109 1.669-.588-.665-.857-.062-.145-.092-.68 1.473-.187 1.231-.113.453-.062.469-.15 2.261-.805.222 1.156 4.11-.454 1.489-.175.37 1.378.227 1.6 1.54-.207.268-.01-.108-.434.067-.464.314-.408.201-.083.02-.289-.036-.655.376-.031.191.077.16.775 1.746-.351.55 2.771.011.186 1.231-.145.093.166.32-.073.262-.284.216-.087.536-.067.798.041.258.645.232-.031.185-.351-.051-.237.252.046.88-.129.155-.134-.01-.238.278-.227.376.269.113.201.263-.057-.02-.371.072-.212-.088-.614.005-.594.134-.423.34.057.35-.083.474.02.438.192.376.253.268-.093.628-.5.655-.016.401.201.793-.088.16.01-.17-1.31.15.026-.248-1.332-.427-2.173 1.205-.273 3.24-.692 1.612-.32.103.46.18 1.073 2.957-.49 3.987-.671.175 1.078 1.334-.206.458-.098.217.067.03.253.433.284-.056.423.324.16.052.413.196.263.123.046.392.434.298.253.114.46-.026.309.52.335-.257.728-.124.098-.258-.01-.298.134-.18.63.231.33.366.325.396.233.304.325.588.464 1.648-.315.216 1.105.268 1.553.36 1.864.15.665.34 1.642 2.534-.899.237-.067 3.44-1.228 1.299-.51.324 2.513.098.562.283.01.145-.103.247-.005.082-.175.211-.052.3-.186.525-.119.267.042.356-.062.35.077.2-.129.227.026.273-.201.037-.176.437-.387.263-.898.263.15.345-.005.185.258.217 1.218.288 1.44.737-.145.046.14.258 1.481-.814.165.371 2.065.664 3.793.227 1.342-1.077.207.34 1.698-.041.129.144.505.098.532.999-.134.33 2.044 1.092-.222.041.046.247 1.853-.02.078.247 1.775.129-.02.34 1.64.252 1.322.196 1.099.608 3.055.067.403.783 3.938.067.19.319 1.73.046.124.314 1.646-.02.201-.716.15-1.303.243-.371.051-.319.104.185.892.237 1.301.474 2.384-1.221.243.18.903.572 2.498.067.434-.757.19-.355.058-.521.15-.777.128-.217.093-.36.016-.263-1.24-.35-1.419-.17.057-1.262.274-.634.113-.077.057-.793.196.716 3.112-.129.088-.917.201-.53.088-2.04.444-2.524.563-.876.18-.566.083-1.036-1.548-.067-.16-.36-.537-.118-.119-1.072-1.559-.17-.449-.118-.49-.088.005" clip-rule="evenodd"/><path stroke="#000" stroke-linecap="round" stroke-linejoin="round" stroke-width=".2" d="m89.555 57.086-.129-.578-.02-.377.149-.95.057-.196.273-1.538-.006-.258.098-.46.66-.133 1.54-.362.916-.196-.21-.98-.18-1.13.329.665.5.573.334-.186-.041-.124-.752-.578-.15-.19-.061-.316.026-.46.247-.118-.01-.46-.454-.02-.056.274-1.025.242-1.674.351-.356-1.486-.16-.909-.581-2.725-.32.15-.257-1.172-.32-1.538-.18-.82-1.071.237-1.128.212-.392-.635-.072-.196-.561-.305-.211-.201-.505.103.072.403-.428.118-1.452.264-2.004.407-1.025.197-.767.175-1.84.382-.53.145-.299-.016.17.222.135.3.051.325.294.325.149.552.546.475.17.413.37.475-.86.34-.489-.108-.231.046-.14-.475-.314-.934-.144-.346-1.767.28-.432.107-1.412.284.237 1.43-2.869.583-.747.165-.674.145-.196-.97-2.045.407.175.945-1.174.248-.093.046-1.86.34-.123-.562-.299.088-2.179.903-1.761.754-.155-.754-.901.372-.634.237.32.728-1.695.738-.268.196.108.248.103.542-.376.134-2.23.464-.87.207-2.035.464-.927.155.17.94.335 1.548.175 1.063-2.03.449-.37.072.02.29.299 1.532.046.119.247 1.239 2.097-.418.525 2.735.077.201.18.95-1.776.361-.5.155.283 1.316-.72.351-1.232.707.752 1.275-1.252.325.109.34.02.295.088.19.257.326.376-.15.459 1.09 1.56 4.01.212.547-1.412.32-.958.201-.675.113-2.312.352-.371.077.458 1.884.17.635.299 1.31-.386.17-1.242.615-.386.047-3.08.206-.005-.222-.16-1.884.67-.067.01-.795-.108-1.3-.397.02-1.422.48-1.282.387-.85.336-.185-.547-.057-.326-.15-.531-.715.217-1.175.407-1.421.45-1.04.092-.006-.413-.17-.154-1.39.258-1.515.34-.891.18-3.116.672-.619.129-.257-1.12-.35-1.657-.855.191-2.813.594-.365-1.781-.407-2.023-.103-.46.427-.098-.551-2.528-.232-1.146-.226-1.022-.567-2.638-.103.02-.15-.877-.16-.758-.282-1.559.726-.19.113-.44 2.169-.438-.134-.599-.551-2.71.335-.067.684.026.984-.186-.288-1.465-.68.134-.48-2.715-.396.062-1.354.294-3.58.702-1.298.243-1.107.242-.433-1.543-.278-1.084-.67-3.411-.32-1.703-.123-.785-.185-1.445-.17-1.151-.13-.728-.334-1.682-.2-.81.174-.305.33-.351.32-.227-.794-.98-1.35-1.632-.72-.506-1.932-1.414-.438-.206-.046-.191.18-1.125-.036-.439.216-.067-.566-1.043-1.123-2.147-.31-.645 2.7-1.156-.201-.81.093-.047-.315-.748-1.586-3.35-.051.098-.531.496-.634-.542-.901-.831-.155-.176.258-.252.49-.305.118.175.237.016.103.222.432-.186.438.052.278-.14-.051-.186.227-.175.283-.088.314-.464.355-.759.124-.439-.067-.237 1.432.17 1.401.408.16-1.006.401-.403.397-.124.52.083.114-.052 1.576.258.417.088.15-.346-.387-.108-.639-.29-.01-.722h.155l.149.16.31.124.303.026.216.186.103.196-.185.387 2.57-.558.01-1.393-3.554-.506-.139-.784-.386-1.972-.052-.604.206.15.428.15.17-.047.49-.402.37-.413.015-.207-.139-.165-.056-.516.077-.676.103-.103.397-.104.216.067.206-.056.561-.398.273-.356.711-.227.33-.041.206-.186.108-.351.345-.108.804.025.36-.077.273.015.237.248.103.594.062.15.386.195.593.093.5.042.592.175.33-.036.73-.227.207-.14.139-.226.118-.382.175-.155.279-.052.401.207.32.216.468-.067.402.279.757.346.242.237.253-.046.051-.294.278-.16.51.015.35-.14.423-.242.36-.078.258.052.345.243-.072.263.088.449.299.552.154-.19 1.73-2.52 2.174 2.055.263.965 1.839.103.309-.036.103-.237 2.277.036.607.046.387-.119-.016-.603.108-.062-.118-.258.118-.227 1.278-.109 1.669-.588-.665-.857-.062-.145-.092-.68 1.473-.187 1.231-.113.453-.062.469-.15 2.261-.805.222 1.156 4.11-.454 1.489-.175.37 1.378.227 1.6 1.54-.207.268-.01-.108-.434.067-.464.314-.408.201-.083.02-.289-.036-.655.376-.031.191.077.16.775 1.746-.351.55 2.771.011.186 1.231-.145.093.166.32-.073.262-.284.216-.087.536-.067.798.041.258.645.232-.031.185-.351-.051-.237.252.046.88-.129.155-.134-.01-.238.278-.227.376.269.113.201.263-.057-.02-.371.072-.212-.088-.614.005-.594.134-.423.34.057.35-.083.474.02.438.192.376.253.268-.093.628-.5.655-.016.401.201.793-.088.16.01-.17-1.31.15.026-.248-1.332-.427-2.173 1.205-.273 3.24-.692 1.612-.32.103.46.18 1.073 2.957-.49 3.987-.671.175 1.078 1.334-.206.458-.098.217.067.03.253.433.284-.056.423.324.16.052.413.196.263.123.046.392.434.298.253.114.46-.026.309.52.335-.257.728-.124.098-.258-.01-.298.134-.18.63.231.33.366.325.396.233.304.325.588.464 1.648-.315.216 1.105.268 1.553.36 1.864.15.665.34 1.642 2.534-.899.237-.067 3.44-1.228 1.299-.51.324 2.513.098.562.283.01.145-.103.247-.005.082-.175.211-.052.3-.186.525-.119.267.042.356-.062.35.077.2-.129.227.026.273-.201.037-.176.437-.387.263-.898.263.15.345-.005.185.258.217 1.218.288 1.44.737-.145.046.14.258 1.481-.814.165.371 2.065.664 3.793.227 1.342-1.077.207.34 1.698-.041.129.144.505.098.532.999-.134.33 2.044 1.092-.222.041.046.247 1.853-.02.078.247 1.775.129-.02.34 1.64.252 1.322.196 1.099.608 3.055.067.403.783 3.938.067.19.319 1.73.046.124.314 1.646-.02.201-.716.15-1.303.243-.371.051-.319.104.185.892.237 1.301.474 2.384-1.221.243.18.903.572 2.498.067.434-.757.19-.355.058-.521.15-.777.128-.217.093-.36.016-.263-1.24-.35-1.419-.17.057-1.262.274-.634.113-.077.057-.793.196.716 3.112-.129.088-.917.201-.53.088-2.04.444-2.524.563-.876.18-.566.083-1.036-1.548-.067-.16-.36-.537-.118-.119-1.072-1.559-.17-.449-.118-.49-.088.005"/><path id="Баштанський" fill="#C8C6C6" fill-rule="evenodd" d="m212.34 177.725-.536.021-.263-.217-.453-2.565-.242-1.523-.15-.8-.875.145-.088.036-.69.088-1.653.268-.655.134-1.967.315-.304.026-.16-.139-.072-.382-2.241.382-.066-.563-.608.067-.145-.459h-.334l.087-.64-.087-.547-2.081.335-.103-.841.082-.222-.01-.315.18-.284.186-.33h.092l1.36-.227.737-1.91-.165-1.657-.51-.82-.01-.847.144-.289-3.904.728-.222-1.228-.391-2.091 2.271-.433-.602-3.195-.402-2.224-.428-2.23 1.072-.212.391 2.204.33-.046 2.333-.413.35-.114 1.319-.242.062.015 1.133-.201-.17-.847-.093-.691-.067-.15-.092-.583 1.025-.191-.155-.945-.175-.923-.021-.274-.19-.996-.077-.501-.093-.34-.263-1.353-.402-2.141-.329.01-1.391.211-.458-2.183-.134-.779-.727.108-.154-.666-.366-2.043-.18-.919-.026-.346-.211-1.104-.098-.398-1.623.3-1.509.294-2.915.526-6.011 1.136-.979.201-1.648.294-.149-1.058-3.369.563-1.329.242-.082-.026.515-.96.051-.129.634-1.12.273-.526-.505.072-2.441.47-2.627.49-2.715.521-.468.955-.124-.015-1.025-.831-.227-.01-.175-.253.196-.351.546-.341.237-.315-.052-.118-.304-.181-.082-.175.118-.429.356-.201.149-.186.113-.335.16-.114.33.01.201-.18.098-.294.195-.253-.721-.517.021-.526-.376-.036-1.994.397-.628.15-.562-.026-.169-.052-2.251.424-1.031.222-3.198.665-.253.052-.453-2.013-.221-.903-.315-1.481-.237-.96.505-.104.041-.459-.52-2.668-.082-.361-.34-1.838-.417-2.178.407-.062.937-.211 1.818-.351-.535-2.932-.706-3.566-.299-1.544 2.241-.469-.598-4.207-.371-2.4-.067-.542v-.423l-.103-.253-.108-.753-.875.165-.268-.382-.021-.387-.638.103-.407-.134-.181-.144-.479-.584-.252-.18-.479.062-.041-.238-.17-.026-.283-1.904-.948.149-.546-3.808-.134-.893-.129-1.012.01-.206.567-.093 1.416-.165.423-.078.386.361 1.411-.154.047.294.401-.047.006-.31.345-.067.314-.144-.273-.428.005-.429.139-.206.371.407.361.238.139-.02.396-.274.314-.604.103-.377-.041-.284-.257-.526.721-.155 1.112-.134-.061-.3.175-.03.01-.33.165-.739.371-.733.298-.51.057-.703.129-.284-.191-1.367-.139-1.14-1.592.21-1.437.166-.159-.583-.206-1.28-.253.051-.159-.965.376-.062.031-.273 2.446-.403.685-.129-.34-2.06-.097-.655 1.782-.247.103.65.329 2.503 2.766-.464 1.273-.202-.217-1.228-.293-1.812-.665.104-1.241.16-.211-.078-.33-2.26-.196-1.616.227-.057-.16-1.3-.201-1.512-.036-.393-.201-1.362-.051-.222-.371-2.663 1.551-.212 1.354-.201.829-.145-.654-3.468-.443-2.276-.17.03 2.184-.422-.592-3.035-.185-.888 1.473-.284-.284-2.642 2.39-.455 2.787-.552.515-.144.278.568.268.17.232-.098.427.196.201-.238.155.6.381.05.134.233.103.676.778.836.607.176.078.222.407.284.438.459.329.129.201.16.417-.14-.025-.35.242-.29.365.016.212-.207.674-.2.139-.099.15.186.252-.212.407-.175.495-.005.19.103-.19.206-.315-.082-.201.15.315.335.257-.015.984-.28.268-.236.124-.346.314.062.335.211.036.232-.165.166.026.263.17.604.165.015 1.251-.268 1.2-.227.629-.093 2.075-.377.541-.083.232.016.68-.14.773-.077.386-.16 1.452-.248 1.149-.211.021-.026 3.955-.702 1.355-.269.788-.139.005-.32.5-.072 2.313-.387-.145-.852.686-1.672.741-.361.397-1.038.17-.129-.134-.217-.232-.547-.5.604-.406-2.266 1.792-.258-.757-4.315-.088.032-1.674.273-.164-1.079-.181-1.027 1.705-.294.036.016 1.777-.315 1.618-.274 2.596-.48.211-.072-.149-.465-.433-.862-.196-.165.129-.253.005-.345-.072-.315-1.03.206-2.354.439-.124-.934-.314-2.163-.041-.067-.206-1.373.149.062 2.199-.382 1.324-.248.119.068 2.467-.429h.108l1.226-.222.561-.103.294.026.309.382.067.33-.309.176-.046.397.582-.01.056.165.356-.124.031.831.309.005.226-.082.181.082.257-.48 1.056-.196 1.463-.242 1.777-.284.144-.047.155.336 2.343-.392-.195-1.13-.51-2.788-.155-.547-.386-.093-.397-.268-.221-.088-.16-.965.938-.16.133.707 2.751-.495-.227-.744 1.139-.227 1.396-.253.103-.134.329.294.309.61.196-.021.551-.264.623-.382 1.252-.769.639-.2.18 1.16.597 3.556.248 1.528.185 1.09-.02.154-.134.196-.443.227h-.201l-.062.258.036.61-.005.557.036.882.376-.026.16.124.247 2.013.242 1.76-.901.176-.438.046-.072.103.767 1.605.531 1.157.113.098.469.17 1.288-.315 2.008-.439.763-.211 1.473-.32.093.552.592 3.897-.355.067-1.036.258.283 1.667.155 1.1.026.392.185 1.052.289 1.812-1.509.3-.531.082.186 1.233.144.806.129 1.021.185.97.242 1.694.052.185-.15.16-1.396.207.067.516.273 1.63.124.625.35-.123.639-.109.118.63.016.433.288 1.802-2.261.36-.082.078-3.06.418.067.728-3.08.465.922 6.193.994 5.945-.108.145.252.377-.005.376.072.403-.257-.067-.479.015-.14.3.15.443v.15l.165.294-.412.32-.212.062-.288-.067.057-.237-.279.072-.066.305h-.237l-.186-.243-.072.325-.515.398-.299.17-.098.18-.031.362.067.289.093.16 1.118-.098.407-.016 1.179-.103.922-.051.943-.104 4.136-.335 2.591-.17-.165 1.703-.036.557-.217 2.286v.33l-.092.775.494 3.107 1.334-.686 2.586-1.311.5 3.581-2.045.775.201 1.14.231 1.445.165.888-.226.036.092.542-.365.078.365 2.1.237 1.533.041.145.212 1.316.314 1.852-1.005.155-2.194.403-1.2.196-1.231.217-.041-3.763-.005-1.414-.042-2.823-1.977.95.422 2.214.18.836-1.612.299-.119-.005.067.48.114.408.211 1.12-.165.082-.654.14.592 3.261-.118.016.407 2.25.597-.093 3.23-.578 1.885-.356 1.283-.232.86 5.244.051.32.17.356.098.702.248.557.067.779-.572-.062-.412.119-.052-.052-2.091.615.546 1.883.108.424.005.66-.814.011.114.856.298 1.327 1.154-.217.103.485 1.669.65-.324.573 2.008 1.843.253.206 1.777 1.642-.366.113-.257-.098-.134.129-.186.387-.345.01-.201-.077-.185.294-.263.047-.144-.124.134-.238.247-.118-.149-.14-.237.088-.222-.015-.391.16-.134.134-.113.273-.351.124-.268-.031-.582-.299-.19-.01-.459.283-.061.32.026.403.097.542.51.955.083.082.602.186.052.181-.294.232-.113.186-.324.036-.196.299-.32-.015-.345.088-.159-.202-.381.057-.201-.098-.582-.526-.299-.434-.005-.211.17-.202-.211-.351-.433-.604-.175-.082-.649.015-.222.098-.263.258-.272.073-.222-.093-.33-.263-.216.113.263.33.036.243-.242.031-.294-.289-.17-.072-.134.175.047.248-.103.341.144.237-.01.377.123.413-.139.232.077.284-.082.232-.206.207-.232.325-.35.304-.144.052-.211.222-.124-.016-.912.207-.216.108-.144.238-.016.526.211.279.037.242-.443.021-.541.201-.237-.087-.242-.217-.371-.103-.191-.166-.17-.273-.015-.196.155-.382-.16-.408-.412-.562-.16-.109-.319-.005-.119.088-.051.449.252.088-.154.227-.289-.165-.489.098-.253-.006-.226-.201-1.36.196-.757.14-.052.552-.077.315-.546 1.465.036.135-.227.676-.149.237-.443.516-.237.109-.335.454-.499.583-.247.176-.485.16-.247.247-.113.444.067.305.108-.011.062.439-.067.33-.108.227-.546.542-.16.532-.175.248-.69.356-.237.341.494.201.68.511.237.371.041.212-.201.32-.159.361-.088.475.067.279.479.748.556.201.021.217.381.083.345.237.458.263 3.199 1.988 2.627 1.625 1.813 1.141.469-.81.839-1.564.799-1.414 1.803.965.968-1.807 1.55-2.843-1.416-.775-.355-.211 1.385-2.55.577-1.042 1.54.861 2.776 1.523-.829 1.476-1.458 2.705-.757 1.378-1.349 2.472-.922 1.677-.351-.237-1.431 2.596-.387-.248-.829 1.347-2.179 3.499-.819 1.301-.314-.031-1.942-1.249-.129-.175-.767-.434-.031.031-.763-.48-.525-.392-.881-.547-.432-.212-.366-.289-.628 1.037-.711 1.151.607 1.606.279 1.259.365 2.1 2.292-.392.34 1.853-3.116.557-1.741.3-.041.046.366 2.065-3.627.645-2.333.408-1.339.263.17.227.02.397-.046.496-.309.562-.108.295.541.268.345.232.448.155.366.248.937-.171 2.292-.438 1.535-.212.247-.046.294 1.827.057.263.298-.031 1.88-.289.273 1.419-1.555.284-2.503.501-.15-.01-.535.128-1.211.228-2.102.418-2.044.356-1.005.134-.381.088.113.681-1.241.196-.613.078-1.097.196-.196-.057-.247.124.386.691-.35.212-.185.242-.469.197-.304-.996-1.653.283v-.237l-2.998.48-.15.253" clip-rule="evenodd"/><path stroke="#000" stroke-linecap="round" stroke-linejoin="round" stroke-width=".2" d="m212.34 177.725-.536.021-.263-.217-.453-2.565-.242-1.523-.15-.8-.875.145-.088.036-.69.088-1.653.268-.655.134-1.967.315-.304.026-.16-.139-.072-.382-2.241.382-.066-.563-.608.067-.145-.459h-.334l.087-.64-.087-.547-2.081.335-.103-.841.082-.222-.01-.315.18-.284.186-.33h.092l1.36-.227.737-1.91-.165-1.657-.51-.82-.01-.847.144-.289-3.904.728-.222-1.228-.391-2.091 2.271-.433-.602-3.195-.402-2.224-.428-2.23 1.072-.212.391 2.204.33-.046 2.333-.413.35-.114 1.319-.242.062.015 1.133-.201-.17-.847-.093-.691-.067-.15-.092-.583 1.025-.191-.155-.945-.175-.923-.021-.274-.19-.996-.077-.501-.093-.34-.263-1.353-.402-2.141-.329.01-1.391.211-.458-2.183-.134-.779-.727.108-.154-.666-.366-2.043-.18-.919-.026-.346-.211-1.104-.098-.398-1.623.3-1.509.294-2.915.526-6.011 1.136-.979.201-1.648.294-.149-1.058-3.369.563-1.329.242-.082-.026.515-.96.051-.129.634-1.12.273-.526-.505.072-2.441.47-2.627.49-2.715.521-.468.955-.124-.015-1.025-.831-.227-.01-.175-.253.196-.351.546-.341.237-.315-.052-.118-.304-.181-.082-.175.118-.429.356-.201.149-.186.113-.335.16-.114.33.01.201-.18.098-.294.195-.253-.721-.517.021-.526-.376-.036-1.994.397-.628.15-.562-.026-.169-.052-2.251.424-1.031.222-3.198.665-.253.052-.453-2.013-.221-.903-.315-1.481-.237-.96.505-.104.041-.459-.52-2.668-.082-.361-.34-1.838-.417-2.178.407-.062.937-.211 1.818-.351-.535-2.932-.706-3.566-.299-1.544 2.241-.469-.598-4.207-.371-2.4-.067-.542v-.423l-.103-.253-.108-.753-.875.165-.268-.382-.021-.387-.638.103-.407-.134-.181-.144-.479-.584-.252-.18-.479.062-.041-.238-.17-.026-.283-1.904-.948.149-.546-3.808-.134-.893-.129-1.012.01-.206.567-.093 1.416-.165.423-.078.386.361 1.411-.154.047.294.401-.047.006-.31.345-.067.314-.144-.273-.428.005-.429.139-.206.371.407.361.238.139-.02.396-.274.314-.604.103-.377-.041-.284-.257-.526.721-.155 1.112-.134-.061-.3.175-.03.01-.33.165-.739.371-.733.298-.51.057-.703.129-.284-.191-1.367-.139-1.14-1.592.21-1.437.166-.159-.583-.206-1.28-.253.051-.159-.965.376-.062.031-.273 2.446-.403.685-.129-.34-2.06-.097-.655 1.782-.247.103.65.329 2.503 2.766-.464 1.273-.202-.217-1.228-.293-1.812-.665.104-1.241.16-.211-.078-.33-2.26-.196-1.616.227-.057-.16-1.3-.201-1.512-.036-.393-.201-1.362-.051-.222-.371-2.663 1.551-.212 1.354-.201.829-.145-.654-3.468-.443-2.276-.17.03 2.184-.422-.592-3.035-.185-.888 1.473-.284-.284-2.642 2.39-.455 2.787-.552.515-.144.278.568.268.17.232-.098.427.196.201-.238.155.6.381.05.134.233.103.676.778.836.607.176.078.222.407.284.438.459.329.129.201.16.417-.14-.025-.35.242-.29.365.016.212-.207.674-.2.139-.099.15.186.252-.212.407-.175.495-.005.19.103-.19.206-.315-.082-.201.15.315.335.257-.015.984-.28.268-.236.124-.346.314.062.335.211.036.232-.165.166.026.263.17.604.165.015 1.251-.268 1.2-.227.629-.093 2.075-.377.541-.083.232.016.68-.14.773-.077.386-.16 1.452-.248 1.149-.211.021-.026 3.955-.702 1.355-.269.788-.139.005-.32.5-.072 2.313-.387-.145-.852.686-1.672.741-.361.397-1.038.17-.129-.134-.217-.232-.547-.5.604-.406-2.266 1.792-.258-.757-4.315-.088.032-1.674.273-.164-1.079-.181-1.027 1.705-.294.036.016 1.777-.315 1.618-.274 2.596-.48.211-.072-.149-.465-.433-.862-.196-.165.129-.253.005-.345-.072-.315-1.03.206-2.354.439-.124-.934-.314-2.163-.041-.067-.206-1.373.149.062 2.199-.382 1.324-.248.119.068 2.467-.429h.108l1.226-.222.561-.103.294.026.309.382.067.33-.309.176-.046.397.582-.01.056.165.356-.124.031.831.309.005.226-.082.181.082.257-.48 1.056-.196 1.463-.242 1.777-.284.144-.047.155.336 2.343-.392-.195-1.13-.51-2.788-.155-.547-.386-.093-.397-.268-.221-.088-.16-.965.938-.16.133.707 2.751-.495-.227-.744 1.139-.227 1.396-.253.103-.134.329.294.309.61.196-.021.551-.264.623-.382 1.252-.769.639-.2.18 1.16.597 3.556.248 1.528.185 1.09-.02.154-.134.196-.443.227h-.201l-.062.258.036.61-.005.557.036.882.376-.026.16.124.247 2.013.242 1.76-.901.176-.438.046-.072.103.767 1.605.531 1.157.113.098.469.17 1.288-.315 2.008-.439.763-.211 1.473-.32.093.552.592 3.897-.355.067-1.036.258.283 1.667.155 1.1.026.392.185 1.052.289 1.812-1.509.3-.531.082.186 1.233.144.806.129 1.021.185.97.242 1.694.052.185-.15.16-1.396.207.067.516.273 1.63.124.625.35-.123.639-.109.118.63.016.433.288 1.802-2.261.36-.082.078-3.06.418.067.728-3.08.465.922 6.193.994 5.945-.108.145.252.377-.005.376.072.403-.257-.067-.479.015-.14.3.15.443v.15l.165.294-.412.32-.212.062-.288-.067.057-.237-.279.072-.066.305h-.237l-.186-.243-.072.325-.515.398-.299.17-.098.18-.031.362.067.289.093.16 1.118-.098.407-.016 1.179-.103.922-.051.943-.104 4.136-.335 2.591-.17-.165 1.703-.036.557-.217 2.286v.33l-.092.775.494 3.107 1.334-.686 2.586-1.311.5 3.581-2.045.775.201 1.14.231 1.445.165.888-.226.036.092.542-.365.078.365 2.1.237 1.533.041.145.212 1.316.314 1.852-1.005.155-2.194.403-1.2.196-1.231.217-.041-3.763-.005-1.414-.042-2.823-1.977.95.422 2.214.18.836-1.612.299-.119-.005.067.48.114.408.211 1.12-.165.082-.654.14.592 3.261-.118.016.407 2.25.597-.093 3.23-.578 1.885-.356 1.283-.232.86 5.244.051.32.17.356.098.702.248.557.067.779-.572-.062-.412.119-.052-.052-2.091.615.546 1.883.108.424.005.66-.814.011.114.856.298 1.327 1.154-.217.103.485 1.669.65-.324.573 2.008 1.843.253.206 1.777 1.642-.366.113-.257-.098-.134.129-.186.387-.345.01-.201-.077-.185.294-.263.047-.144-.124.134-.238.247-.118-.149-.14-.237.088-.222-.015-.391.16-.134.134-.113.273-.351.124-.268-.031-.582-.299-.19-.01-.459.283-.061.32.026.403.097.542.51.955.083.082.602.186.052.181-.294.232-.113.186-.324.036-.196.299-.32-.015-.345.088-.159-.202-.381.057-.201-.098-.582-.526-.299-.434-.005-.211.17-.202-.211-.351-.433-.604-.175-.082-.649.015-.222.098-.263.258-.272.073-.222-.093-.33-.263-.216.113.263.33.036.243-.242.031-.294-.289-.17-.072-.134.175.047.248-.103.341.144.237-.01.377.123.413-.139.232.077.284-.082.232-.206.207-.232.325-.35.304-.144.052-.211.222-.124-.016-.912.207-.216.108-.144.238-.016.526.211.279.037.242-.443.021-.541.201-.237-.087-.242-.217-.371-.103-.191-.166-.17-.273-.015-.196.155-.382-.16-.408-.412-.562-.16-.109-.319-.005-.119.088-.051.449.252.088-.154.227-.289-.165-.489.098-.253-.006-.226-.201-1.36.196-.757.14-.052.552-.077.315-.546 1.465.036.135-.227.676-.149.237-.443.516-.237.109-.335.454-.499.583-.247.176-.485.16-.247.247-.113.444.067.305.108-.011.062.439-.067.33-.108.227-.546.542-.16.532-.175.248-.69.356-.237.341.494.201.68.511.237.371.041.212-.201.32-.159.361-.088.475.067.279.479.748.556.201.021.217.381.083.345.237.458.263 3.199 1.988 2.627 1.625 1.813 1.141.469-.81.839-1.564.799-1.414 1.803.965.968-1.807 1.55-2.843-1.416-.775-.355-.211 1.385-2.55.577-1.042 1.54.861 2.776 1.523-.829 1.476-1.458 2.705-.757 1.378-1.349 2.472-.922 1.677-.351-.237-1.431 2.596-.387-.248-.829 1.347-2.179 3.499-.819 1.301-.314-.031-1.942-1.249-.129-.175-.767-.434-.031.031-.763-.48-.525-.392-.881-.547-.432-.212-.366-.289-.628 1.037-.711 1.151.607 1.606.279 1.259.365 2.1 2.292-.392.34 1.853-3.116.557-1.741.3-.041.046.366 2.065-3.627.645-2.333.408-1.339.263.17.227.02.397-.046.496-.309.562-.108.295.541.268.345.232.448.155.366.248.937-.171 2.292-.438 1.535-.212.247-.046.294 1.827.057.263.298-.031 1.88-.289.273 1.419-1.555.284-2.503.501-.15-.01-.535.128-1.211.228-2.102.418-2.044.356-1.005.134-.381.088.113.681-1.241.196-.613.078-1.097.196-.196-.057-.247.124.386.691-.35.212-.185.242-.469.197-.304-.996-1.653.283v-.237l-2.998.48-.15.253"/><path id="Миколаївський" fill="#C8C6C6" fill-rule="evenodd" d="m144.083 211.037-3.322 3.339-.278.914-.454.934-.453.991-.422.423-1-.32-.989.459-.509.475-.747 1.548-2.926-.887-.561-.129-.964-.078-.644.026-.386.067-.917.253-.958.552-.489.181-.16.248-.324.263-.253.428-.2.253-.243.491-.149.779-.113 1.373.123.268.402.305.124.036.273.392.072.181.18.046.016.207-.165.247-.026.217.077.171.258.227.541.258.422-.227.35.371.186.083.257.268.139.33.047.429.165.382.272.34.516.475.515.599.54.573.438.836.335.449.227.526.026.274.175.191.201.371.17.496.221.433-.098.331-.309.16-.185.02-.258-.087-.34-.217-.319-.124-.438-.532-.551-.949-.118-.501-.207-.552-.396-.568-.098-.392-.304-.676-.211-.547-.366-.599-.35-.475-.299-.304-.175-.429-.469-.356-.247-.273-.36-.542-.273-.346-1.031-1.161-1.102-1.265-.896-1.12-.68-.826-.948-1.094-1.257-1.352-.437-.444-.964-.883-.437-.423-1.134-.986-.741-.588-1.123-.826-.953-.851-.737-.609-.571-.553-.428-.459-.33-.392-.283-.279-.618-.795-.309-.459-.196-.222-.293-.444-.34-.97-.387-.604.14-.532 3.049-2.338-.217-.16-.386-.536-.33-.166-.2-.304-.258.026-.098-.181-.242-.242-.809-.599-.443-.258-.149-.016-.613-.309-.819-.232-.767-.186-.479-.057-.773-.026-1.2-.088-1.056.088-.448.083-.608.036-.366.165-.427-.175.144-.357-.093-.366-.18.175-.052.217-.231.093-.304.666-.484.511-.711-.361-.546-.181-.711-.134-.53-.031-.928.103-.376.124-.474.299-.34.449-.092.196-.031.47-.072.335.056.279-.113.181.015.387-.242.067-.237-.191-.268-.114-.484-.134-.273-.149-.494-.093-.505-.026-1.195-.258-.448-.15-.835-.206-.69-.114-.989-.01-.896.191-.35.144-1.16-.103-.205.041-.5-.118-.525-.284-.835-.542-1.04-.49-.433-.166-1.056-.304-.875-.17-.31-.031.047-.609-.154-.831-.062-.186-.14-.862-.2-.857.49-.124.241.067.263-.165.355-.041.01-.31-.174-.583-.098-.686-.212-.728-.118-.299-.057-.398-.025-1.812.036-1.347-.01-.263-.093-.113-1.077-.496-.453-.253-.134-.206-.175-1.099-.057-.568-.113-.64-.129-.449-.015-.331.082-.423.186-.49.072-.408.041-.655.463-.95.217-.841.015-.227-.742-2.008-.267-.588-.057-.429.206-.975-.005-.764.051-.759.155-1.094-.067-.418-.283-.377-.768-.645-.299-.206-.206-.124-.406-.14-.83-.149-.638.067-.438.005-.382-.114-.216-.16-.273-.345-.077-.269.01-.48.134-.97.005-.712-.129-.532-.2-.341-.881-1.099-.407-.377-.433-.33-1.205-.702-.371-.062-.84.026-.293-.057-.34-.165-.119-.16-.051-.578.118-.593.093-.341.016-.294-.14-.821-.077-.263-.206-.413-.32-.413-.34-.377-.581-.727-.196-.393-.19-.614-.093-.537.04-.83.088-.568-.015-.346.577-.041.216.072 1.04-.475 1.15-.196 1.524-.222 1.566-.206-.237-1.064.015-.031 1.602-.304 2.586-.527.324 1.322.397-.052 1.411-.258 4.121-.707 2.637-.547.217-.057-.402-.583-.16-.521-.474-2.261-.118.015-.072-.382.566-.118-.026-.14 2.545-.516.165.821 1.967-.408-.18-.82.731-.13-.257-1.682.876-.222-.273-1.254-.716-2.978.746-.129-.772-1.239-.86-4.067-.582-2.947-.268-1.311 1.406-.278.463 1.992.201.036 1.953.17.85.057.793.077 1.926.119 1.551-.351.293-.124-.247-1.228-.314-1.368-.289-1.207-.134-.904-.129-.707-.525-2.611-.546-2.504-.335-.263-.422-.18-.613-.083-.737-.057-.844-.005.087-.506 2.735-.531.175-.274.557-.139.216-.176-.098-.433.14-.041-.026-.259.123-.036 1.406-.247 2.092-.393-.397-2.167-.093-.46-.396-2.147.041-.139.819-.062 2.38-.232 1.174-.026.716.129 2.993.568.417.134 1.303.562 2.874 1.265.824-.485.618-.331 1.391-.826-.056-.159-.577-1.022 1.236-.718.257-.129 1.978-1.151.732-.397.525-.331.057.114 1.236-.635 1.468-.789-.917-.816-1.174-.511-.536-.191-.392-.284.032-.082-.402-.578-1.298-1.771-.448-.536-.402-.346-.675-.325-.005-1.549 1.319-.449.86-.263-.119-.382-.365-.464-.253-.191-.067-.527-.371-.635-.149-.051-.108-.743-.407-.46-.319-.206.175-.382.412-.774.345-.516.762-.207 1.741-.33 1.494-.305.098.382.16 1.001 1.097-.216.37-.042 1.376-.258 1.02-.232.164-.015 1.541-.289.674-.671.026-.15-.299-.604.042-.382.221-.175.098-.217.057-.372.288-.51-.36-.542.092-.346.206-.119.335.052.283-.02.207-.3.288-.279.051-.34-.051-1.064.015-.47.248-.815.257-.46.289-.33.278-.211.314-.124.376-.057.324-.108.598-.465.252-.103.139-.217.217-.65-.021-.273.33-.315.757-.315.185-.191.304-.485.021-.135-.201-.252-.186-.372-.046-.325.098-.134-.129-.31-.185-.258-.278-.175-.242.154-.124-.129v-.377l-.361-.5-.319-.103-.237-.17.222-.114.556-.155-.062-.852.041-.108-.036-.831.52-.093.263-.248.561.33.284.083.381.635v.305l.16.258-.155.185-.34.124-.175.465 1.236-.14 2.555-.31.762-.082 1.453-.227.886-.077.242 1.161.062.48 1.221-.134 2.204-.263 1.566-.222.16.118.149.904.077.325.17 1.053 1.721-.217 1.71-.248.17.005.201.909.072.516.304-.073.36-.113 4.038-1.146.866-.217.546-.247.577-.057.741-.212 1.051-.258.222-.408.556-.113-.191-1.027 1.216-.233.16.584 1.437-.165 1.591-.212.139 1.14.191 1.368-.129.284-.056.702-.299.511-.371.733-.165.738-.01.33-.175.031.062.3-1.113.134-.721.155.257.526.042.284-.103.377-.315.604-.396.273-.139.02-.361-.237-.371-.407-.139.206-.005.428.273.429-.314.144-.345.067-.005.31-.402.046-.046-.294-1.412.155-.386-.361-.422.077-1.417.165-.566.093-.011.207.129 1.011.134.893.546 3.809.948-.15.283 1.905.17.026.041.237.479-.062.253.181.479.583.18.145.407.134.639-.103.02.387.268.382.875-.165.109.753.103.253v.423l.067.542.371 2.4.597 4.206-2.241.47.299 1.543.706 3.567.536 2.931-1.819.351-.937.212-.407.062.417 2.178.34 1.837.082.361.521 2.669-.041.459-.505.103.237.96.314 1.482.221.903.454 2.013.252-.052 3.199-.666 1.03-.222 2.251-.423.17.052.561.026.629-.15 1.993-.397.376.036-.021.526.722.516-.196.253-.098.294-.201.181-.33-.01-.159.113-.114.336-.149.186-.355.201-.119.428.083.176.304.18.051.119-.237.315-.546.341-.196.351.175.252.227.011 1.025.831.124.015.469-.955 2.714-.521 2.627-.49 2.441-.47.505-.072-.273.526-.633 1.12-.052.129-.515.96.082.026 1.329-.243 3.369-.562.149 1.058 1.649-.294.978-.202 6.011-1.135 2.916-.527 1.509-.294 1.622-.299.098.397.211 1.105.026.346.181.918.365 2.044.155.666.726-.108.134.779.458 2.183 1.391-.211.33-.011.402 2.142.262 1.352.093.341.077.501.191.996.02.273.175.924.155.945-1.025.191.093.583.067.15.092.691.17.847-1.133.201-.062-.015-1.318.242-.351.114-2.333.413-.33.046-.391-2.204-1.071.212.427 2.229.402 2.225.602 3.195-2.271.433.391 2.09.222 1.229 3.904-.728-.144.289.01.847.51.82.165 1.657-.737 1.91-1.359.227h-.093l-.186.33-.736.108-.489.104.144.485.093.862.175 1.089.195 1.434-1.37.233.438 2.714.072.393-.68.088-.268.072-1.807.294-2.504.423-.515-3.102-.922.15-2.513.428-.665.129-2.56.408-1.597.315.464 2.74.175.991-2.673.46-1.37-.687-.891-.598-.134-.217-.891-.609-.155-.129-.201-.005-1.911-1.244-3.183-2.013-.917-.593.345.851.932 1.301.516.681-1.762 1.409.062.299-1.592.289.211 1.125.248 1.446.303 1.698-.937.211-3.255.764.221 1.358-3.24.583-1.9.33-.155-.965-2.251.506-.144.046-2.029.465.144.924.201 1.078 1.215-.206.268 1.476.68 4.253-1.262.191-.046-.212-.67.124-4.872.846.164 1.141-1.761.31.103.583-.52.17-.495.573-1.643 1.915-1.35 1.564-.757 5.342-1.025 1.486-1.566 2.317" clip-rule="evenodd"/><path stroke="#000" stroke-linecap="round" stroke-linejoin="round" stroke-width=".2" d="m144.083 211.037-3.322 3.339-.278.914-.454.934-.453.991-.422.423-1-.32-.989.459-.509.475-.747 1.548-2.926-.887-.561-.129-.964-.078-.644.026-.386.067-.917.253-.958.552-.489.181-.16.248-.324.263-.253.428-.2.253-.243.491-.149.779-.113 1.373.123.268.402.305.124.036.273.392.072.181.18.046.016.207-.165.247-.026.217.077.171.258.227.541.258.422-.227.35.371.186.083.257.268.139.33.047.429.165.382.272.34.516.475.515.599.54.573.438.836.335.449.227.526.026.274.175.191.201.371.17.496.221.433-.098.331-.309.16-.185.02-.258-.087-.34-.217-.319-.124-.438-.532-.551-.949-.118-.501-.207-.552-.396-.568-.098-.392-.304-.676-.211-.547-.366-.599-.35-.475-.299-.304-.175-.429-.469-.356-.247-.273-.36-.542-.273-.346-1.031-1.161-1.102-1.265-.896-1.12-.68-.826-.948-1.094-1.257-1.352-.437-.444-.964-.883-.437-.423-1.134-.986-.741-.588-1.123-.826-.953-.851-.737-.609-.571-.553-.428-.459-.33-.392-.283-.279-.618-.795-.309-.459-.196-.222-.293-.444-.34-.97-.387-.604.14-.532 3.049-2.338-.217-.16-.386-.536-.33-.166-.2-.304-.258.026-.098-.181-.242-.242-.809-.599-.443-.258-.149-.016-.613-.309-.819-.232-.767-.186-.479-.057-.773-.026-1.2-.088-1.056.088-.448.083-.608.036-.366.165-.427-.175.144-.357-.093-.366-.18.175-.052.217-.231.093-.304.666-.484.511-.711-.361-.546-.181-.711-.134-.53-.031-.928.103-.376.124-.474.299-.34.449-.092.196-.031.47-.072.335.056.279-.113.181.015.387-.242.067-.237-.191-.268-.114-.484-.134-.273-.149-.494-.093-.505-.026-1.195-.258-.448-.15-.835-.206-.69-.114-.989-.01-.896.191-.35.144-1.16-.103-.205.041-.5-.118-.525-.284-.835-.542-1.04-.49-.433-.166-1.056-.304-.875-.17-.31-.031.047-.609-.154-.831-.062-.186-.14-.862-.2-.857.49-.124.241.067.263-.165.355-.041.01-.31-.174-.583-.098-.686-.212-.728-.118-.299-.057-.398-.025-1.812.036-1.347-.01-.263-.093-.113-1.077-.496-.453-.253-.134-.206-.175-1.099-.057-.568-.113-.64-.129-.449-.015-.331.082-.423.186-.49.072-.408.041-.655.463-.95.217-.841.015-.227-.742-2.008-.267-.588-.057-.429.206-.975-.005-.764.051-.759.155-1.094-.067-.418-.283-.377-.768-.645-.299-.206-.206-.124-.406-.14-.83-.149-.638.067-.438.005-.382-.114-.216-.16-.273-.345-.077-.269.01-.48.134-.97.005-.712-.129-.532-.2-.341-.881-1.099-.407-.377-.433-.33-1.205-.702-.371-.062-.84.026-.293-.057-.34-.165-.119-.16-.051-.578.118-.593.093-.341.016-.294-.14-.821-.077-.263-.206-.413-.32-.413-.34-.377-.581-.727-.196-.393-.19-.614-.093-.537.04-.83.088-.568-.015-.346.577-.041.216.072 1.04-.475 1.15-.196 1.524-.222 1.566-.206-.237-1.064.015-.031 1.602-.304 2.586-.527.324 1.322.397-.052 1.411-.258 4.121-.707 2.637-.547.217-.057-.402-.583-.16-.521-.474-2.261-.118.015-.072-.382.566-.118-.026-.14 2.545-.516.165.821 1.967-.408-.18-.82.731-.13-.257-1.682.876-.222-.273-1.254-.716-2.978.746-.129-.772-1.239-.86-4.067-.582-2.947-.268-1.311 1.406-.278.463 1.992.201.036 1.953.17.85.057.793.077 1.926.119 1.551-.351.293-.124-.247-1.228-.314-1.368-.289-1.207-.134-.904-.129-.707-.525-2.611-.546-2.504-.335-.263-.422-.18-.613-.083-.737-.057-.844-.005.087-.506 2.735-.531.175-.274.557-.139.216-.176-.098-.433.14-.041-.026-.259.123-.036 1.406-.247 2.092-.393-.397-2.167-.093-.46-.396-2.147.041-.139.819-.062 2.38-.232 1.174-.026.716.129 2.993.568.417.134 1.303.562 2.874 1.265.824-.485.618-.331 1.391-.826-.056-.159-.577-1.022 1.236-.718.257-.129 1.978-1.151.732-.397.525-.331.057.114 1.236-.635 1.468-.789-.917-.816-1.174-.511-.536-.191-.392-.284.032-.082-.402-.578-1.298-1.771-.448-.536-.402-.346-.675-.325-.005-1.549 1.319-.449.86-.263-.119-.382-.365-.464-.253-.191-.067-.527-.371-.635-.149-.051-.108-.743-.407-.46-.319-.206.175-.382.412-.774.345-.516.762-.207 1.741-.33 1.494-.305.098.382.16 1.001 1.097-.216.37-.042 1.376-.258 1.02-.232.164-.015 1.541-.289.674-.671.026-.15-.299-.604.042-.382.221-.175.098-.217.057-.372.288-.51-.36-.542.092-.346.206-.119.335.052.283-.02.207-.3.288-.279.051-.34-.051-1.064.015-.47.248-.815.257-.46.289-.33.278-.211.314-.124.376-.057.324-.108.598-.465.252-.103.139-.217.217-.65-.021-.273.33-.315.757-.315.185-.191.304-.485.021-.135-.201-.252-.186-.372-.046-.325.098-.134-.129-.31-.185-.258-.278-.175-.242.154-.124-.129v-.377l-.361-.5-.319-.103-.237-.17.222-.114.556-.155-.062-.852.041-.108-.036-.831.52-.093.263-.248.561.33.284.083.381.635v.305l.16.258-.155.185-.34.124-.175.465 1.236-.14 2.555-.31.762-.082 1.453-.227.886-.077.242 1.161.062.48 1.221-.134 2.204-.263 1.566-.222.16.118.149.904.077.325.17 1.053 1.721-.217 1.71-.248.17.005.201.909.072.516.304-.073.36-.113 4.038-1.146.866-.217.546-.247.577-.057.741-.212 1.051-.258.222-.408.556-.113-.191-1.027 1.216-.233.16.584 1.437-.165 1.591-.212.139 1.14.191 1.368-.129.284-.056.702-.299.511-.371.733-.165.738-.01.33-.175.031.062.3-1.113.134-.721.155.257.526.042.284-.103.377-.315.604-.396.273-.139.02-.361-.237-.371-.407-.139.206-.005.428.273.429-.314.144-.345.067-.005.31-.402.046-.046-.294-1.412.155-.386-.361-.422.077-1.417.165-.566.093-.011.207.129 1.011.134.893.546 3.809.948-.15.283 1.905.17.026.041.237.479-.062.253.181.479.583.18.145.407.134.639-.103.02.387.268.382.875-.165.109.753.103.253v.423l.067.542.371 2.4.597 4.206-2.241.47.299 1.543.706 3.567.536 2.931-1.819.351-.937.212-.407.062.417 2.178.34 1.837.082.361.521 2.669-.041.459-.505.103.237.96.314 1.482.221.903.454 2.013.252-.052 3.199-.666 1.03-.222 2.251-.423.17.052.561.026.629-.15 1.993-.397.376.036-.021.526.722.516-.196.253-.098.294-.201.181-.33-.01-.159.113-.114.336-.149.186-.355.201-.119.428.083.176.304.18.051.119-.237.315-.546.341-.196.351.175.252.227.011 1.025.831.124.015.469-.955 2.714-.521 2.627-.49 2.441-.47.505-.072-.273.526-.633 1.12-.052.129-.515.96.082.026 1.329-.243 3.369-.562.149 1.058 1.649-.294.978-.202 6.011-1.135 2.916-.527 1.509-.294 1.622-.299.098.397.211 1.105.026.346.181.918.365 2.044.155.666.726-.108.134.779.458 2.183 1.391-.211.33-.011.402 2.142.262 1.352.093.341.077.501.191.996.02.273.175.924.155.945-1.025.191.093.583.067.15.092.691.17.847-1.133.201-.062-.015-1.318.242-.351.114-2.333.413-.33.046-.391-2.204-1.071.212.427 2.229.402 2.225.602 3.195-2.271.433.391 2.09.222 1.229 3.904-.728-.144.289.01.847.51.82.165 1.657-.737 1.91-1.359.227h-.093l-.186.33-.736.108-.489.104.144.485.093.862.175 1.089.195 1.434-1.37.233.438 2.714.072.393-.68.088-.268.072-1.807.294-2.504.423-.515-3.102-.922.15-2.513.428-.665.129-2.56.408-1.597.315.464 2.74.175.991-2.673.46-1.37-.687-.891-.598-.134-.217-.891-.609-.155-.129-.201-.005-1.911-1.244-3.183-2.013-.917-.593.345.851.932 1.301.516.681-1.762 1.409.062.299-1.592.289.211 1.125.248 1.446.303 1.698-.937.211-3.255.764.221 1.358-3.24.583-1.9.33-.155-.965-2.251.506-.144.046-2.029.465.144.924.201 1.078 1.215-.206.268 1.476.68 4.253-1.262.191-.046-.212-.67.124-4.872.846.164 1.141-1.761.31.103.583-.52.17-.495.573-1.643 1.915-1.35 1.564-.757 5.342-1.025 1.486-1.566 2.317"/></svg>