<svg xmlns="http://www.w3.org/2000/svg" width="147" height="229" fill="none" viewBox="0 0 147 229"><path id="Чортківський" fill="#C8C6C6" fill-rule="evenodd" d="m52.245 186.551.029-.568-.128-.413-.248-.196-.183-.052-.37.042-.336.098-.553.232-.355.088-.568-.114-.235-.149-.151-.295-.018-.614-.113-.423-.141-.279-.06-.315-.138-.232-.817-.33-.628-.15-.49-.046-.46.036-.577-.01-.428-.052-.508.176-.124.123-.192.542-.285 1.254-.097.197-.263.278-.185.103-.486.109-.3-.026-.287-.103-.146-.212-.02-.268.153-.558.206-.526.492-.883.5-1.207.332-.965.141-.852-.017-.408.066-.862-.142-1.285.209-.599.459-.722.082-.568-.1-.722-.242-.398-.38-.046-.46.232-.38.366-.388.486-.23.191-.226.072-.213-.078-.733-.392-.236-.175-.292-.083-.228.258.223.64.452.506.034.248-.241.397-.266.284-1.14 1.017-.675.475-.075.35-.197.176-.068.377.174.325.302.211.075.29.031.454-.042.748-.096.351-.284.496-.242.242-.342.165-.206-.026-.663-.33-.286-.046-.46.072-.23-.114-.277-.309-.064-.346.181-.465-.05-.32-.071-.469-.072-.842-.267-.774-.554-1.316-.229-.821-.329-.66-.103-.738.073-.32.165-.227 1.098-.594.475-.382.49-.593.176-.413-.107-.263-.34-.346-.387-.243.047-.124-.151-.454-.193.114-.467-.362-.278-.165-.438-.124-.616-.418-.265-.258.23-.242-.14-.553-.186-.418-.168-.923.126-.615.198-.361.37-.196.39-.692-.662-.227-.278.129-.378.088-1.384.206-.043.057.021 1.136-.518.02-.398-.093.036-.268-.881-.413-.486-.057-.6-.201-.37-.305-.097-.309-.223-.098-.247.041-.167-.232-.214-.165-.27-.083-.038-.181-.201-.237-.258-.186-.457-.449-.524-.31-.625.46-.159.196-.704.408-.31.206-.825.367-1.55.748-.225.01-.06-.439.078-.185.505-.568.053-.176.001-.438-.076-.284-.158-.299-.492-.377-.116-.14-.17-.5-.308-.3-.592-.356-.231-.263-.839-.702-.388-.557-.406-.3-.337-.129-.255-.32-.403-.397-.26-.47-.118-.294-.551.155-.187-.397.108-.403.033-.919.135-.294.068-1.068.201-.754.154.14.305-.3.14-.32.408.227.041-.201.712.237.098.16.226-.185.197.077.374-.036.261.444.103-.274.565.145.445.402.472-.072.177.207.103.289.785.015.623.098.753.005.06-.619-.03-.098-.32-.083.22-.753.021-.367-.508-.279-.35-.134-.174-.232.085-.186-.199-.253-.372-.186.044-.356.313-.18-.025-.387.166-.501.178-.052-.01-.309.211-.3.038-.17-.092-.237.25-.166-1.172-.516-1.278-.918-.256.258-.167.036-.34-.103-1.254-.114-.389-.062-.785-.021-1.376-.144-.23-.047-.026-.222-.537-1.068-.483-.372-.312-.289-.505-.763-.374-.625-.581-.908-.425.284-.167-.186.061-.176-.304-.103.079-.263-.067-.408-.012-.413.058-.433-.077-.362 1.727-1.739.855-.898 1.709 1.373.276.186.317.309.117.202.685.335-.08.377 1.046.439.407-.181.167.15.211.036.684-.124.18.217.157-.016.18.16.448-.026.09.088.368.026.421.155.458-.392.25.051.082.382.215.026.125-.284-.18-.217.108-.5.053-.914.25.238 2.517.681 1.966.521-.027.181.15.17.316-.144.284.062.221.253 1.56.129.18-.289.55-.346.233-.093.703-.088.623-.181.612.114.406-.17.123.01.215.289.288.217.097-.181.23.139.292-.036.091-.33 1.58-.114 1.325-.118 1.624-.186.653-.134 1.355-.429 2.092-.572.969-.248.486-.078.456.367.168.077.092.263.014-.232.201-.242.85-.749 1.449-1.311.309-.258.233-.387.359-.81 1.735.454 1.252.382.843.243 1.053.325 1.28.309.5.589.606.428.67.382.556.403.356.211.283-.036.326-1.043.007-.469-.233-.253-.08-.568.733.315.63.026.575-1.554.555.357.335.025.538-.067 1.06-.031.547-.046.042-.072 1.553.717.364.248.182.134 1.323 1.172.58.443 1.096.909-1.183 2.575-.216.553.313.681.128.356.097.067.158.439.157.299.842.743.414.3.85.521.531.098 1.074.072 2.925.165h.96l.26.026 1.209-.005.257-1.192.052-.795 1.668.217.786-.129.36-.238.257-.046-.137-.418-.396-.325-.062-.351-.253-.005-.097-.398.043-.371-.422-.016-.588.103-.407-2.147.35.176.581.144.732.093.07.155.24-.057.447.129.12.093.04.258.157.109.215.65.336.279.298.103.286-.02.444-1.069-.218-.475.322-.185.257-.026.645-.444.49-.186.384-.217.141.088.742-.041.165.175.003.17.286.403.026.382-.224.279.525.123 1.165-.583.138.382.506 1.574.317-.087.314.552.174.196-.11.351.063.258.23.413-.054.237.198.522-.008.557.321.232.05-.361.199-.423.325.211.187-.01.386-.191.111-.578-.232-.119.195-.18.052-.294.266-.228.033-.175-.226-.176.018-.376-.24-.315.171-.139.47.474-.046.594.06.304.73-.485.54-.449.306-.366.288-.171.145-.247.024-.341 1.471-2.075.576-.733.107-.196.606-.764.81-1.073-.32-.279-.127.165-1.701-.934.311-.568.041-.252-.13-.145.289-.335-.009-.243.128-.573-.142-.351-.074-.402.298-.919-.345-.098-.23-.145.023-.165.094.005.878-1.197-.08-.119.336-.537.29-.382-.116-.351.427-.418-.174-.521.108-.258.222-.212.117-.376.754.217.138-.026 1.146-.444.365.191.529.149-.218-.769.218-.485 1.742.201h.244l.2-.18.395.046.322-.041.21-.32.18-.134.106-.413.17-.305.182-.087.215.072.156-.108.084-.269-.323-.144-.413-.104-.327-.216-.652-.243-.657-.552-.221-.521-.368-.212-.596-.573-.042-.021-.388-2.379.098-1.636.053-1.337.09-1.331.407-.568.333-.356h.929l.277.046.613.434.284.263.396.175.972.584.279-.083 1.923.872h.188l.43-.273 4.699-.171.704-.015 2.393-.093.177-.052.424.212 1.119-.743 1.697-.103 1.195-.098.202-.351-.037-1.402 2.527.767.477-.985.715.156 2.032.561 2.166.526.256-.062 1.217.557.184.026.367.263-.138.099-.272.361-.074.242-.331.486-.27.216.123.3.167.062.443-.011.253.186.031.232-.023.558-.099.217-.205.036-.423-.351-.04-.212-.309-.062-.168.052-.142.433-.072.403-.067.872-.014.785.126.691.262.3.697.521.561.382.405.573.194.444-.068.562-.432.47.072.217.327.459.524.382.212.387-.097.175-.326.124-.222-.062-.261.197.1.268.584.666.057.242-.285.119-.257-.114-.255-.247-.527.134-.045.428.192.315.371.294.264.103.454.413.156.253-.195.351-.736.645-.167.011-.29.196-.026.144.413.583-.024.289-.253.532-.152-.01-.461-.31-.844-.036-.419-.077-.15.087-.31.026-.673-.093-.413.186-.184.372.022.511.13.263.411.408-.211.247-.363.155-.151.274.298.542.031.232-.202.191-.479-.124-.335.067.219.547.186.207.045.253-.252.273-.243.542-.176.263-.193.506-.099.036-.013.372-.113.18.114.171.008.237.916 1.203.041.444-.203.438-.396.465.257.304.528.062.94.377-.058.315.214.361-.087.181-.476.191-.187.134-.556-.604-.265.129-.214.434.049.309.14.341-.046.139.273.274.311.562-.052.336-.158.361-.117.506.346.139.435.057.055.32-.1.155-.377.119-.051.201-.239-.052.036.258.259.485.103.661.024.511.241.108.079 1.074-.041.217.076.335-.072.511-.241.222-.185.346.073.191-.236.222-.045.242.101.145.044.304-.11.387-.198.078.043.16-.249.237.103.341.159.186.481.077.587-.139.378-.042.218.068.069.216-.088.165-.903.62-.503.062-.697.407-.28.398-.239.242.038.635.39.775.206.258.216-.016.209.124 1.007 1.006.061.599-.168.145-.592.082.026.284-.138.098-.046.227.087.279.569.8.221.181.354.149.206.191.062.227.009.723-.041.232-.366.434-.386-.083-.203.041-.569-.056-.239-.119.037-.305-.357.088-.115.124-.26-.026-.198.088-.393.34-.255.47.127.248.416.501.205.139.271.067.649.015.71-.082.386.108.221.336.046.304-.13.248-.173.093-.089.284-.25.222-.402.216-.21.031-.462-.299-.363-.129-.241-.165-.236.093-.182.217-.186.351-.013.552.326.49.566.325.497.165.463.098.462.253.207.196.093.269-.078.707-.137.186.066.191-.303.495-.114.351-.39.444-.02.217-.203.175-.012.372.068.32-.093.165.059.196.418.656-.123.376-.306.062-.453-.082-.344.01-.088.206.055.222.091.527.369.361.461.506.268.021.224-.109.394-.387.333-.645.271-.155.299.021.415.17.206.253.085.33v.418l-.095.176-.234-.021-.321.32-.871.196-.117.109-.133.356.072.547.503.753.025.233.256.201-.063.217-.283.211-.16.3-.178.134.094.32.194.299.194.16.071.294-.063.269-.191.211-.51.068-.269.16-.039.325.156.134.108.366.256.196.362.166.52.01.462.619.041.46-.063.309-.172.341-.088.32.162.464.299.212.437.175.311.357-.003.877.102.175.284.14.305-.093.315-.299.382-.259.3.052.268.165.107.165-.03.362.121.108-.203.63-.249.34-.297.031-.617-.139-.196-.083-.024-.304-.372-.258-.252.093-.346-.109-.209.16-.085.207.009.428.203.114.183.258-.119.253.352.392.123.366.241.336-.105.506-.179.134-.557-.186-.128-.098-.551-.144-.092-.398.101-.439-.134-.232-.237-.051-.26.108-.096.32-.214.181.152.691.018.238.145.185.04.702.266.356.547.155.25-.103.564-.005.258.072.334.444.061.212-.003.671-.151.02-.129.222-.441.434.012.253.333.335.993.392.017.171-.275.609-.224.098-.32-.016-.385-.227-.224-.402-.216-.109-.157.124-.119.362.102.351.218.216.332.15.203.217.013.149.631.279.177.201.054.331-.084.278-.212.295-.198.041-.182.279.026.49.262.454.06.372-.135.237-.517.506-.003.258-.203.139-.059.31.101.067.072.289.164.114-.14.237.163.325.165-.113.182.087.052.32-.164.511-.14.155-.951-.072-.221.191-.086.212.028.222.157.35.219.258.224.114.474.057.168.082.295-.056.635-.248.035.273-.335.264.012.562.085.165.003.32.177.098.091.222.232.104.283.082.067-.077.492.046.591-.392.407-.201.036-.284.505.149.082.289.222.186-.047.418-.149.052-.083.49.011.341-.134.072-.078.274-.293.505-.319.186-.067.155.273.155.283.263.463-.211.083.222.165-.032.17-.268.175.098.535-.248.32-.356.077-.345.155-.006.154-.273.232-.021.345.088.191.511-.062.475-.314.31-.495.371-.381.238-.242-.031-.319.237-.042.124.402.356.134.227.546.046.484-.051.84-.284.35.17.299.687-.134.49-.34.315-.376.067-.773-.134-.602-.361-.397.247v.439l.397.341.252.005.196.108.283.274.026.113.52.093.263-.021.335.145.262.33.351.196-.006.341-.108.366.031.16-.154.238.051.32.273.082.397.269.427.062.263-.202.258.537-.042.31-.206.542.33.222.252.005.258-.16.134-.274.124.103.36-.16.227.31.005.403-.129.294-.268.201-.103.155-.819.299-.376.202-.268.289-.118.325.144.444.232.273.268.176.731.284.757-.088.181.196.165.346.092.33-.026.392-.304.331-.334.289-.047.382.237.227.309-.067.181.041.453-.207.283-.314.216-.491.062-.413v-.438l-.082-.274-.237-.304.041-.289.252-.191.351.02.427.284.438.557.211.186.181.331.015.247.19.207.392.686.314.336.423.18.535-.067.222-.144.453-.558.407-.093.51.212.237.196.175.733-.484.294-.541.155-.536-.031-1.241-.248-.66.026-.88.274-.428.289-.252.284-.536 1.006-.834 1.249-.356.315-.309.186-.432.175-.253-.01-.793-.279-.551-.335-.557-.418-.314-.129-.257-.016-.191.098-.484.444-.592.46-.289.041-.402-.16-.262-.217-.196-.32-.5-1.223-.613-1.419-.273-.377-.283-.16-.561-.124-.48.046-.828.243-.761.341-1.041.449-1.489.474-.718.078-.463.175-.654.036-.462-.036-.681-.227h-.279l-.543-.093-.47-.289-.341-.273-.484-.506-.272-.465-.24-.614-.123-.624-.004-.284-.107-.527-.032-.701-.144-1.198.141-1.806.104-.893-.067-.759-.289-.485-.496-.65-.922-1.327-.208-.18-.315-.145-.307.01-.393.119-.418.212-.404.444-.211.413-.115.588-.041.836.095.304.436.455.129.237.053.361-.003.568.15.511.307.361.272.176.732.64.14.227.27.795.097.583-.045.557-.354.816-.514.444-.526.418-.448.294-.272.067-.564.036-.303-.077-.202-.217-.276-1.063-.294-.64-.253-.403-.371-.433-.534-.537-.523-.423-.387-.274-.13-.16-.415-.733-.506-.779-.134-.284.004-.335.097-.228.542-.304.341-.377.097-.475.348-.309.202-.248.131-.268.059-.408-.096-.423-.338-.63-.194-.712.059-.465.159-.408.122-.5-.029-.532-.207-.624-.296-.501-.379-.253-.509-.17-.38.005-.306.114-.274.247-.204.413-.219.594-.042.557.095 1.45-.105.522-.27.521-.293.47-.405.165-.474-.041-.261-.119-.878-.656-.641-.366-.443-.181-.636-.103-.529.145-.248.196-1.043 1.125-.294.279-.343.557-.295.366-.292.47-.288.325-.404.377-.441.273-.493.176-.705.088-.456-.011-.367-.072-.482-.211-1.327-.914-.41-.33-.41-.14-.71.269-.605.134-.524.062-.145-.031-.206-.248-.03-.511.153-.469.484-.697.123-.491-.115-.541-.242-.382-.645-.676-.334-.279-.446-.826-.723-.939-.591-1.187-.486-.79-.608-.908-.42-.403-.237-.139-.613-.222-.623-.346-.31-.083-.285.067-.502.289-.422.362-.485.48-.315.402-.419.79-.482 1.254.04.893-.138.542-.34.33-.506.052-.36-.165-.4-.491-.178-.614-.078-.908-.168-.578-.33-.527-.407-.433-.38-.232-.43-.078-1.312.016-.598-.016-.68-.134-.953-.139-.791-.093-.611-.243-.293-.062-.372-.057-.532-.211-.356-.191-.287-.289-.156-.253-.03-.243.097-.273.213-.274.358-.299.65-.361.571-.387.383-.408.237-.372.176-.454.04-.47-.285-.526-.21-.181-.43-.201-1.105-.315-.913-.16-.352-.165-.228-.279-.147-.536.121-.491.369-.366.915-.614.623-.289.286-.238.274-.47.072-.247-.01-.289-.035-.134-.392-.429-1.687-1.125-1.098-.557-.582-.486-.471-.598-.36-.367-.695-.877-.237-.222-.424-.516-.335-.459-.473-.455-.985-.691-.53-.269-.565-.015-.394.052-.713-.073-.595-.201-.492-.072-.689-.315-.434-.397-.462-.744-.328-.351-.365-.32-.272-.17-.44-.155-.43-.263-.522-.175-.707-.382-.167-.171-.268-.536-.044-.186.12-.325.658-.656.611-.795.269-.449-.081-.387-.32-.351-.454-.247-.634-.589-.196-.113-.458-.155-.551-.331-.4.062-.261.145-.217.341.068.541.161.336.46.738.193.392.1.325-.032.398-.285.294-.199.093-.493.067-.948-.243-1.095-.392-.76-.392-.476-.15-1.23-.526-.552-.31-.41-.01-.603-.108-.286.025-.603.228-.178.144-.103.263-.405-.046.01.304-.13.088.066.305-.006.516.214.314.187.522-.35-.047.046.217-.974-.026" clip-rule="evenodd"/><path stroke="#000" stroke-linecap="round" stroke-linejoin="round" stroke-width=".2" d="m52.245 186.551.029-.568-.128-.413-.248-.196-.183-.052-.37.042-.336.098-.553.232-.355.088-.568-.114-.235-.149-.151-.295-.018-.614-.113-.423-.141-.279-.06-.315-.138-.232-.817-.33-.628-.15-.49-.046-.46.036-.577-.01-.428-.052-.508.176-.124.123-.192.542-.285 1.254-.097.197-.263.278-.185.103-.486.109-.3-.026-.287-.103-.146-.212-.02-.268.153-.558.206-.526.492-.883.5-1.207.332-.965.141-.852-.017-.408.066-.862-.142-1.285.209-.599.459-.722.082-.568-.1-.722-.242-.398-.38-.046-.46.232-.38.366-.388.486-.23.191-.226.072-.213-.078-.733-.392-.236-.175-.292-.083-.228.258.223.64.452.506.034.248-.241.397-.266.284-1.14 1.017-.675.475-.075.35-.197.176-.068.377.174.325.302.211.075.29.031.454-.042.748-.096.351-.284.496-.242.242-.342.165-.206-.026-.663-.33-.286-.046-.46.072-.23-.114-.277-.309-.064-.346.181-.465-.05-.32-.071-.469-.072-.842-.267-.774-.554-1.316-.229-.821-.329-.66-.103-.738.073-.32.165-.227 1.098-.594.475-.382.49-.593.176-.413-.107-.263-.34-.346-.387-.243.047-.124-.151-.454-.193.114-.467-.362-.278-.165-.438-.124-.616-.418-.265-.258.23-.242-.14-.553-.186-.418-.168-.923.126-.615.198-.361.37-.196.39-.692-.662-.227-.278.129-.378.088-1.384.206-.043.057.021 1.136-.518.02-.398-.093.036-.268-.881-.413-.486-.057-.6-.201-.37-.305-.097-.309-.223-.098-.247.041-.167-.232-.214-.165-.27-.083-.038-.181-.201-.237-.258-.186-.457-.449-.524-.31-.625.46-.159.196-.704.408-.31.206-.825.367-1.55.748-.225.01-.06-.439.078-.185.505-.568.053-.176.001-.438-.076-.284-.158-.299-.492-.377-.116-.14-.17-.5-.308-.3-.592-.356-.231-.263-.839-.702-.388-.557-.406-.3-.337-.129-.255-.32-.403-.397-.26-.47-.118-.294-.551.155-.187-.397.108-.403.033-.919.135-.294.068-1.068.201-.754.154.14.305-.3.14-.32.408.227.041-.201.712.237.098.16.226-.185.197.077.374-.036.261.444.103-.274.565.145.445.402.472-.072.177.207.103.289.785.015.623.098.753.005.06-.619-.03-.098-.32-.083.22-.753.021-.367-.508-.279-.35-.134-.174-.232.085-.186-.199-.253-.372-.186.044-.356.313-.18-.025-.387.166-.501.178-.052-.01-.309.211-.3.038-.17-.092-.237.25-.166-1.172-.516-1.278-.918-.256.258-.167.036-.34-.103-1.254-.114-.389-.062-.785-.021-1.376-.144-.23-.047-.026-.222-.537-1.068-.483-.372-.312-.289-.505-.763-.374-.625-.581-.908-.425.284-.167-.186.061-.176-.304-.103.079-.263-.067-.408-.012-.413.058-.433-.077-.362 1.727-1.739.855-.898 1.709 1.373.276.186.317.309.117.202.685.335-.08.377 1.046.439.407-.181.167.15.211.036.684-.124.18.217.157-.016.18.16.448-.026.09.088.368.026.421.155.458-.392.25.051.082.382.215.026.125-.284-.18-.217.108-.5.053-.914.25.238 2.517.681 1.966.521-.027.181.15.17.316-.144.284.062.221.253 1.56.129.18-.289.55-.346.233-.093.703-.088.623-.181.612.114.406-.17.123.01.215.289.288.217.097-.181.23.139.292-.036.091-.33 1.58-.114 1.325-.118 1.624-.186.653-.134 1.355-.429 2.092-.572.969-.248.486-.078.456.367.168.077.092.263.014-.232.201-.242.85-.749 1.449-1.311.309-.258.233-.387.359-.81 1.735.454 1.252.382.843.243 1.053.325 1.28.309.5.589.606.428.67.382.556.403.356.211.283-.036.326-1.043.007-.469-.233-.253-.08-.568.733.315.63.026.575-1.554.555.357.335.025.538-.067 1.06-.031.547-.046.042-.072 1.553.717.364.248.182.134 1.323 1.172.58.443 1.096.909-1.183 2.575-.216.553.313.681.128.356.097.067.158.439.157.299.842.743.414.3.85.521.531.098 1.074.072 2.925.165h.96l.26.026 1.209-.005.257-1.192.052-.795 1.668.217.786-.129.36-.238.257-.046-.137-.418-.396-.325-.062-.351-.253-.005-.097-.398.043-.371-.422-.016-.588.103-.407-2.147.35.176.581.144.732.093.07.155.24-.057.447.129.12.093.04.258.157.109.215.65.336.279.298.103.286-.02.444-1.069-.218-.475.322-.185.257-.026.645-.444.49-.186.384-.217.141.088.742-.041.165.175.003.17.286.403.026.382-.224.279.525.123 1.165-.583.138.382.506 1.574.317-.087.314.552.174.196-.11.351.063.258.23.413-.054.237.198.522-.008.557.321.232.05-.361.199-.423.325.211.187-.01.386-.191.111-.578-.232-.119.195-.18.052-.294.266-.228.033-.175-.226-.176.018-.376-.24-.315.171-.139.47.474-.046.594.06.304.73-.485.54-.449.306-.366.288-.171.145-.247.024-.341 1.471-2.075.576-.733.107-.196.606-.764.81-1.073-.32-.279-.127.165-1.701-.934.311-.568.041-.252-.13-.145.289-.335-.009-.243.128-.573-.142-.351-.074-.402.298-.919-.345-.098-.23-.145.023-.165.094.005.878-1.197-.08-.119.336-.537.29-.382-.116-.351.427-.418-.174-.521.108-.258.222-.212.117-.376.754.217.138-.026 1.146-.444.365.191.529.149-.218-.769.218-.485 1.742.201h.244l.2-.18.395.046.322-.041.21-.32.18-.134.106-.413.17-.305.182-.087.215.072.156-.108.084-.269-.323-.144-.413-.104-.327-.216-.652-.243-.657-.552-.221-.521-.368-.212-.596-.573-.042-.021-.388-2.379.098-1.636.053-1.337.09-1.331.407-.568.333-.356h.929l.277.046.613.434.284.263.396.175.972.584.279-.083 1.923.872h.188l.43-.273 4.699-.171.704-.015 2.393-.093.177-.052.424.212 1.119-.743 1.697-.103 1.195-.098.202-.351-.037-1.402 2.527.767.477-.985.715.156 2.032.561 2.166.526.256-.062 1.217.557.184.026.367.263-.138.099-.272.361-.074.242-.331.486-.27.216.123.3.167.062.443-.011.253.186.031.232-.023.558-.099.217-.205.036-.423-.351-.04-.212-.309-.062-.168.052-.142.433-.072.403-.067.872-.014.785.126.691.262.3.697.521.561.382.405.573.194.444-.068.562-.432.47.072.217.327.459.524.382.212.387-.097.175-.326.124-.222-.062-.261.197.1.268.584.666.057.242-.285.119-.257-.114-.255-.247-.527.134-.045.428.192.315.371.294.264.103.454.413.156.253-.195.351-.736.645-.167.011-.29.196-.026.144.413.583-.024.289-.253.532-.152-.01-.461-.31-.844-.036-.419-.077-.15.087-.31.026-.673-.093-.413.186-.184.372.022.511.13.263.411.408-.211.247-.363.155-.151.274.298.542.031.232-.202.191-.479-.124-.335.067.219.547.186.207.045.253-.252.273-.243.542-.176.263-.193.506-.099.036-.013.372-.113.18.114.171.008.237.916 1.203.041.444-.203.438-.396.465.257.304.528.062.94.377-.058.315.214.361-.087.181-.476.191-.187.134-.556-.604-.265.129-.214.434.049.309.14.341-.046.139.273.274.311.562-.052.336-.158.361-.117.506.346.139.435.057.055.32-.1.155-.377.119-.051.201-.239-.052.036.258.259.485.103.661.024.511.241.108.079 1.074-.041.217.076.335-.072.511-.241.222-.185.346.073.191-.236.222-.045.242.101.145.044.304-.11.387-.198.078.043.16-.249.237.103.341.159.186.481.077.587-.139.378-.042.218.068.069.216-.088.165-.903.62-.503.062-.697.407-.28.398-.239.242.038.635.39.775.206.258.216-.016.209.124 1.007 1.006.061.599-.168.145-.592.082.026.284-.138.098-.046.227.087.279.569.8.221.181.354.149.206.191.062.227.009.723-.041.232-.366.434-.386-.083-.203.041-.569-.056-.239-.119.037-.305-.357.088-.115.124-.26-.026-.198.088-.393.34-.255.47.127.248.416.501.205.139.271.067.649.015.71-.082.386.108.221.336.046.304-.13.248-.173.093-.089.284-.25.222-.402.216-.21.031-.462-.299-.363-.129-.241-.165-.236.093-.182.217-.186.351-.013.552.326.49.566.325.497.165.463.098.462.253.207.196.093.269-.078.707-.137.186.066.191-.303.495-.114.351-.39.444-.02.217-.203.175-.012.372.068.32-.093.165.059.196.418.656-.123.376-.306.062-.453-.082-.344.01-.088.206.055.222.091.527.369.361.461.506.268.021.224-.109.394-.387.333-.645.271-.155.299.021.415.17.206.253.085.33v.418l-.095.176-.234-.021-.321.32-.871.196-.117.109-.133.356.072.547.503.753.025.233.256.201-.063.217-.283.211-.16.3-.178.134.094.32.194.299.194.16.071.294-.063.269-.191.211-.51.068-.269.16-.039.325.156.134.108.366.256.196.362.166.52.01.462.619.041.46-.063.309-.172.341-.088.32.162.464.299.212.437.175.311.357-.003.877.102.175.284.14.305-.093.315-.299.382-.259.3.052.268.165.107.165-.03.362.121.108-.203.63-.249.34-.297.031-.617-.139-.196-.083-.024-.304-.372-.258-.252.093-.346-.109-.209.16-.085.207.009.428.203.114.183.258-.119.253.352.392.123.366.241.336-.105.506-.179.134-.557-.186-.128-.098-.551-.144-.092-.398.101-.439-.134-.232-.237-.051-.26.108-.096.32-.214.181.152.691.018.238.145.185.04.702.266.356.547.155.25-.103.564-.005.258.072.334.444.061.212-.003.671-.151.02-.129.222-.441.434.012.253.333.335.993.392.017.171-.275.609-.224.098-.32-.016-.385-.227-.224-.402-.216-.109-.157.124-.119.362.102.351.218.216.332.15.203.217.013.149.631.279.177.201.054.331-.084.278-.212.295-.198.041-.182.279.026.49.262.454.06.372-.135.237-.517.506-.003.258-.203.139-.059.31.101.067.072.289.164.114-.14.237.163.325.165-.113.182.087.052.32-.164.511-.14.155-.951-.072-.221.191-.086.212.028.222.157.35.219.258.224.114.474.057.168.082.295-.056.635-.248.035.273-.335.264.012.562.085.165.003.32.177.098.091.222.232.104.283.082.067-.077.492.046.591-.392.407-.201.036-.284.505.149.082.289.222.186-.047.418-.149.052-.083.49.011.341-.134.072-.078.274-.293.505-.319.186-.067.155.273.155.283.263.463-.211.083.222.165-.032.17-.268.175.098.535-.248.32-.356.077-.345.155-.006.154-.273.232-.021.345.088.191.511-.062.475-.314.31-.495.371-.381.238-.242-.031-.319.237-.042.124.402.356.134.227.546.046.484-.051.84-.284.35.17.299.687-.134.49-.34.315-.376.067-.773-.134-.602-.361-.397.247v.439l.397.341.252.005.196.108.283.274.026.113.52.093.263-.021.335.145.262.33.351.196-.006.341-.108.366.031.16-.154.238.051.32.273.082.397.269.427.062.263-.202.258.537-.042.31-.206.542.33.222.252.005.258-.16.134-.274.124.103.36-.16.227.31.005.403-.129.294-.268.201-.103.155-.819.299-.376.202-.268.289-.118.325.144.444.232.273.268.176.731.284.757-.088.181.196.165.346.092.33-.026.392-.304.331-.334.289-.047.382.237.227.309-.067.181.041.453-.207.283-.314.216-.491.062-.413v-.438l-.082-.274-.237-.304.041-.289.252-.191.351.02.427.284.438.557.211.186.181.331.015.247.19.207.392.686.314.336.423.18.535-.067.222-.144.453-.558.407-.093.51.212.237.196.175.733-.484.294-.541.155-.536-.031-1.241-.248-.66.026-.88.274-.428.289-.252.284-.536 1.006-.834 1.249-.356.315-.309.186-.432.175-.253-.01-.793-.279-.551-.335-.557-.418-.314-.129-.257-.016-.191.098-.484.444-.592.46-.289.041-.402-.16-.262-.217-.196-.32-.5-1.223-.613-1.419-.273-.377-.283-.16-.561-.124-.48.046-.828.243-.761.341-1.041.449-1.489.474-.718.078-.463.175-.654.036-.462-.036-.681-.227h-.279l-.543-.093-.47-.289-.341-.273-.484-.506-.272-.465-.24-.614-.123-.624-.004-.284-.107-.527-.032-.701-.144-1.198.141-1.806.104-.893-.067-.759-.289-.485-.496-.65-.922-1.327-.208-.18-.315-.145-.307.01-.393.119-.418.212-.404.444-.211.413-.115.588-.041.836.095.304.436.455.129.237.053.361-.003.568.15.511.307.361.272.176.732.64.14.227.27.795.097.583-.045.557-.354.816-.514.444-.526.418-.448.294-.272.067-.564.036-.303-.077-.202-.217-.276-1.063-.294-.64-.253-.403-.371-.433-.534-.537-.523-.423-.387-.274-.13-.16-.415-.733-.506-.779-.134-.284.004-.335.097-.228.542-.304.341-.377.097-.475.348-.309.202-.248.131-.268.059-.408-.096-.423-.338-.63-.194-.712.059-.465.159-.408.122-.5-.029-.532-.207-.624-.296-.501-.379-.253-.509-.17-.38.005-.306.114-.274.247-.204.413-.219.594-.042.557.095 1.45-.105.522-.27.521-.293.47-.405.165-.474-.041-.261-.119-.878-.656-.641-.366-.443-.181-.636-.103-.529.145-.248.196-1.043 1.125-.294.279-.343.557-.295.366-.292.47-.288.325-.404.377-.441.273-.493.176-.705.088-.456-.011-.367-.072-.482-.211-1.327-.914-.41-.33-.41-.14-.71.269-.605.134-.524.062-.145-.031-.206-.248-.03-.511.153-.469.484-.697.123-.491-.115-.541-.242-.382-.645-.676-.334-.279-.446-.826-.723-.939-.591-1.187-.486-.79-.608-.908-.42-.403-.237-.139-.613-.222-.623-.346-.31-.083-.285.067-.502.289-.422.362-.485.48-.315.402-.419.79-.482 1.254.04.893-.138.542-.34.33-.506.052-.36-.165-.4-.491-.178-.614-.078-.908-.168-.578-.33-.527-.407-.433-.38-.232-.43-.078-1.312.016-.598-.016-.68-.134-.953-.139-.791-.093-.611-.243-.293-.062-.372-.057-.532-.211-.356-.191-.287-.289-.156-.253-.03-.243.097-.273.213-.274.358-.299.65-.361.571-.387.383-.408.237-.372.176-.454.04-.47-.285-.526-.21-.181-.43-.201-1.105-.315-.913-.16-.352-.165-.228-.279-.147-.536.121-.491.369-.366.915-.614.623-.289.286-.238.274-.47.072-.247-.01-.289-.035-.134-.392-.429-1.687-1.125-1.098-.557-.582-.486-.471-.598-.36-.367-.695-.877-.237-.222-.424-.516-.335-.459-.473-.455-.985-.691-.53-.269-.565-.015-.394.052-.713-.073-.595-.201-.492-.072-.689-.315-.434-.397-.462-.744-.328-.351-.365-.32-.272-.17-.44-.155-.43-.263-.522-.175-.707-.382-.167-.171-.268-.536-.044-.186.12-.325.658-.656.611-.795.269-.449-.081-.387-.32-.351-.454-.247-.634-.589-.196-.113-.458-.155-.551-.331-.4.062-.261.145-.217.341.068.541.161.336.46.738.193.392.1.325-.032.398-.285.294-.199.093-.493.067-.948-.243-1.095-.392-.76-.392-.476-.15-1.23-.526-.552-.31-.41-.01-.603-.108-.286.025-.603.228-.178.144-.103.263-.405-.046.01.304-.13.088.066.305-.006.516.214.314.187.522-.35-.047.046.217-.974-.026"/><path id="Тернопільський" fill="#C8C6C6" fill-rule="evenodd" d="m15.115 140.055.11-.186.888-1.94 1.253-1.007.381-.232.12-.005.264-.253.932-.454.029-.449-.067-.325-.58-.362-.648-.01-.65-.144-.438-.202-.485-.294-.524-.552-.708-.459-.22-.202-.467-.242-.647-.449-.47.175-.295-.057-.151-.129-.561-.273-.757-.299.056-.754-.03-.454-.178-.883-.076-.557-.738-.238-.325-.067.063-1.13.14-1.228.142-.227-.138-.212-.165-.599-.013-.743.03-.583.203-.485.01-.367.131-.872.265-.743.48-.021.26-.407.226.046.393-.268.401.129.214-.284-.272-.356-.313-.202-.161-.196-.605-.18-.066-.3-.251-.056-.32-.429-.216-.382.01-.175-.127-.315-.096-.594.074-.273-.137-.258-.133-.536.119-.363-.063-.345-.088-.078-.168.083-.503-.046-.254-.28-.332-.135-.16.025-.553.355-.103.212-.46.274-.651.077-.048.062-.634.149-.257.154-.045.149-.276-.005.22-.681-.19-.102.14-.327-.093-.119-.202-.535.019-.187-.14-.194.106-.481.055-.496-.035-.379-.105-.449.122-.312v-.356l-.086-.108-.272-.926-.272-.489.037-.153.228-.286.097-.391-.407-.507-.49-1.004-.402-.364-.453-.522.075-.216-.26-.435-.02-.214-.198-.313-.096-.331.111-.351-.201-.417-.293-.219-.164-.335-.374-.487-.077-.269-.28-.389-.469-.188.113-.205.321-.301-.006-.635-.046-.226-.235-.244-.352-.191-.062-.176.067-.42-.004-.581.125-.514-.183-.21-.062-.585.003-.435-.05-1.24.01-.584.21-.104.146-.276-.136-.581.114-.345.112-.029.102-.384.261-.275-.16-.585-.118-.255-.154-.78-.096-.21-.152-1.134.911-.118.404.005 2.001-.2.177-.232.268.22.95-.065 1.243-.003.286-.869.097-.491.223-.378.247-.2 1.103.147.123-.067.855-.716.232-.063.206.399.024.634.285-.07.355-.177-.184-.258.007-.384-.271-.633.046-.392.823-.004.135-.194 1.275.247.205.07.17-.193-.122-.292.181-.194.395-.102-.025-.364.069-.27.988.153.26.86.32.13.48.117.472.047.352.102.149.148.137-.226-.135-.222.042-.183-.368-.36-.185-.088.083-.385-.285-.2.413-.392.39-.007.124-.166.217.115.208-.056.297.098.464.037-.014.324.55.182 1.098.037-.294-.252.098-.227-.163-.26-.392-.194.27-.076.272.117.262-.137.031-.28.267.251.27.372.15.01.214-.2-.029-.302.163-.058.155-.28.143-.638.333-.098-.125-.431.095-.023-.517-.582.145-.151.01-.555.225-.4 1.802.82.141-.403.312-.467-.197-.388.263-1.636.813-.145-.337-.578-.013-.567.093-.746.282-1.98.065-.862-.19-.07.178-.45 1.933-4.599.427-.065.458.254.042.124.337.166.425.087.215.167 1.534 2.032.398.33.528-.388-.184-.244.55-.578.133-.182 1.197-1.161.165.295.15-.016.194-.447.186-.25.501-.525.337-.425.268-.547-.947-1.451-.662-.233-.478-.212-.004-.195-.436-.255-.437-.421-.643-.453.24-.301.037-.866.935.132.274-.572-.028-.759-.222-.53-.279-1.033-.026-1.082-.085-1.325.053-.783.069-.516.573.254.54.58.477.215.175-.003.193.169.368.093.474.03.574-.015.326.08.083.218.449.037.336.122.51-.365-.078-.183.101-.522.053-.664.35.045.237-.149.103-.29-.11-.262.743-.143.548.192.464.069.212-.639h.693l1.726.664.535.252.172.45 2.154.35.614-.168.06-.36.075-.923.797-.005.098-.285.18-.186.29.188-.027.21.083.267.28.357.292-.212.213.395.493.102.823.066.12-.098.085-.307.295-.198.05-.504-.105-.21.102-.242-.228-.088.168-.372.53-.24.074-.266-.285-.322.17-.49.47.234.4-.112.129.208.275-.253.222-.327.795-.113.472-.217.319.041-.23-.37-.03-.212.512-.195.439.107.53.03.63-.25.499-.118.424.132.261-.122.318-.34-.114-.396-.072-.645.358-.126.304-.016.058-.848.268-.812.169-.355.22-.64-.114-.448-.162-.28-.29-.3-.513-1.073.302-.712.304-.385.06-.244.27-.653-.056-.28.044-.286.263-.25.314.056.462-.281.081-.15.587.19.184.004.534.2.364-.417.267-.038.297.103.306.292-.178.282-.397.108-.062.086-.056.678.024.208-.054.567-.192.368-.004.269.305.25.2.329.217.109.417.462.434.286.93 1.095 1.069 1.33.289.926.351.794.1.333.046.415.211.758-.027.372.075.314.049 1.02.035 1.567-.124.187.128.29.038 1.113 2.41 1.046.308.123.215.506.249.408.192.802.373.93.477.51.106.233.161.582.275.653.1.107.734.55.257-.447.282-.13.14-.298.285-.323.395-.202.595-.687.298-.244-.193-.193.34-.383.16-.26.212.099.232-.519.873.423.623-.207.48-.268.185-.507.51-.32.5-.087.305-.249.32-.574.287-.371.35.136.13-.305.07-.4.216-.06.317.11.185-.29.637-.478-.1-.332.188-.276 1.16-1.442.256-.341.29.056.248-.277.292-.053.153.37.235 1.358.321 1.343.065.196.4.553 1.434 1.089.328.569.297.203.297.1.613.375.147-.29.335-.417.428-.06.029-.144.353-.02.048-.223.393.05.326.109.41.055.587-.211.394.263.303.332.345.01-.196-.712 1.091-.293.036.425.35.203 2.92.465.623.154.225-.67.72.124 2.255.423-.146.63.667-.005.281.053-.14.235.349.113.366-.04.176-.15.614-.027.09.126.093.42.648-.722.092-.185.777.694-.21.178.134.46.237.329-.878.731-.443.143-.556-.051-.159.122-.492.124-.267.457-.27.219-.01.135-.295.167-.068.306-.577 2.092-.097.291-.317.704-.705-.51.018.331.178.131.087.274.336.405.057.525.55-.07.168.244.209-.125.133.136-.152 1.208.704.393 2.417 1.223.263-.387.15-.347.751.757 1.787 2.002.279-.458.227-.248.301-.214-.482-.32-.214-.24-.063-.222.209-.21.775-.152.399-.049.597.362.488-.11.11-.09-.101-.279.29-.17.596.34.563.055.529.134.347-.16.287-.036.308-.228.221.169.091.184.421.314.47-.314.66-.205.792-.176.603-.251.777-.176.522-.014.332-.077.493.043.553-.13.33-.027 1.572.223 2.232.278 1.037.236 1.764.223.256-1.112.106-.55.639.538.189.003.369.292.104.16.718.55.125.32.135.363.162.232.281.083.339.019.601.18.468.254.736.351.442.674.898.372.448.447.421 1.239.678.793.721.52.257.418.052.542-.021.535.294.484-.268.245-.433.003-.358.16-.04.252.321.73.191.54-.247.592-.535.417-.273.16-.287-.095-.878-.525-.661.16-.161.281.075.304-.137.382-.24.42-.049.335-.679.436-.126.144-.101.368-.404.414-.114.416-.275.084-.244-.086-.21.04-.071.34.175.302.073.44.1.063.388.833.364.282.192.29.011.196-.093.655-.319.103-.12.298-.081.465.383.4.173.35-.044.166.169.353-.165.444.029.353.223.352-.009.292.26.269-.026.374-.194.184-.194.034-.352.309-.614.108-.146-.218-.083-.368.142-.44-.282-.199-.253.035-.455-.159-.147.198-.09.332-.141.15-.399.182-.469.095-.358.78-.035.215-.453.656-.433.392-.166.215-.068.393-.013.517-.13.336.136.102-.13.284-.343.264-.219.1-.028.142-.403.334-.18.433.03.127.712.222.14.464.225.164.264.477.402.344.164.247.15.359.495.13.174.156.441.24.495.692.106.028.318.388-.021.185-.16.158.156.255-.067.227.003.753.047.122.048.77-.055.589.047.268.472 1.192-.037.243.297.288.039.178-.429.508-.137.583.285.58.372.372.209.099.187-.037.214.177v.279l.178.199.151-.052.12-.507.191.103.04.232.22.276.056.317.177.105.231.391.418.385-.412.322.019.268.848.27.068.228-.416.607.111.336-.049.204-.175.111.038.848-.294.349-.234.122-.233.018-.071.248.175.211.166.062-.256.062-2.166-.525-2.032-.561-.715-.157-.477.985-2.527-.767.037 1.402-.202.351-1.195.098-1.697.103-1.119.744-.424-.212-.177.052-2.393.092-.704.016-4.699.17-.43.274h-.188l-1.923-.873-.279.083-.972-.583-.396-.176-.284-.263-.613-.433-.277-.047h-.929l-.333.356-.407.568-.09 1.331-.053 1.337-.098 1.636.388 2.38.042.02.596.573.368.212.222.521.656.552.652.243.327.217.413.103.323.144-.083.269-.157.108-.215-.072-.182.088-.17.304-.106.413-.18.134-.21.32-.322.041-.395-.046-.2.181h-.244l-1.742-.202-.218.485.218.77-.529-.15-.365-.191-1.146.444-.138.026-.754-.217-.117.377-.223.211-.107.258.175.522-.428.418.116.351-.29.382-.336.536.08.119-.878 1.197-.094-.005-.023.165.23.145.346.098-.299.919.074.402.142.351-.128.573.009.243-.289.335.13.145-.04.253-.312.567 1.701.934.127-.165.32.279-.81 1.074-.606.763-.107.197-.576.732-1.47 2.075-.025.341-.145.248-.288.17-.306.366-.54.449-.73.486-.06-.305.046-.594-.47-.474-.171.139.24.315-.018.377.226.175-.033.176-.266.227-.052.294-.195.18.233.119-.112.578-.386.191-.187.01-.325-.211-.199.423-.05.361-.321-.232.008-.557-.198-.522.054-.237-.23-.413-.063-.258.11-.351-.174-.196-.314-.552-.317.087-.506-1.574-.138-.382-1.165.584-.525-.124.224-.279-.026-.382-.286-.403-.004-.17-.164-.175-.742.041-.14-.088-.386.217-.49.186-.644.444-.257.026-.322.185.218.475-.444 1.069-.286.02-.298-.103-.336-.279-.215-.65-.157-.109-.04-.258-.12-.093-.447-.128-.24.056-.07-.155-.732-.092-.58-.145-.35-.175.406 2.147.588-.104.421.016-.042.371.097.398.253.005.062.351.396.325.137.418-.258.046-.36.238-.785.129-1.668-.217-.052.795-.257 1.192-1.209.005-.26-.026h-.96l-2.925-.165-1.074-.072-.53-.098-.851-.521-.415-.3-.841-.743-.157-.299-.158-.439-.097-.067-.128-.356-.313-.681.216-.553 1.183-2.575-1.097-.909-.579-.443-1.323-1.172-.182-.134-.364-.248-1.553-.717-.042.072-.546.046-1.06.031-.54.068-.334-.026-.555-.357-.574 1.554-.631-.026-.732-.315.08.568.232.253-.007.47-.326 1.042-.283.036-.357-.211-.555-.403-.67-.382-.606-.428-.5-.589-1.28-.309-1.053-.325-.843-.243-1.252-.382-1.735-.454-.36.81-.232.387-.31.258-1.448 1.311-.85.749-.201.242-.014.232-.092-.263-.168-.077-.456-.367-.486.078-.969.248-2.092.572-1.355.429-.654.134-1.623.186-1.326.118-1.579.114-.091.33-.292.036-.23-.139-.097.181-.288-.217-.215-.289-.123-.01-.406.17-.613-.114-.622.181-.703.088-.233.093-.55.346-.18.289-1.56-.129-.22-.253-.286-.062-.315.144-.15-.17.027-.181-1.966-.521-2.518-.681-.25-.238-.052.914-.107.501.18.216-.126.284-.215-.026-.082-.382-.25-.051-.458.392-.42-.155-.368-.026-.09-.088-.448.026-.181-.16-.158.016-.179-.217-.684.124-.211-.036-.167-.15-.408.181-1.045-.439.08-.377-.685-.335-.117-.202-.317-.309-.276-.186-1.71-1.373" clip-rule="evenodd"/><path stroke="#000" stroke-linecap="round" stroke-linejoin="round" stroke-width=".2" d="m15.115 140.055.11-.186.888-1.94 1.253-1.007.381-.232.12-.005.264-.253.932-.454.029-.449-.067-.325-.58-.362-.648-.01-.65-.144-.438-.202-.485-.294-.524-.552-.708-.459-.22-.202-.467-.242-.647-.449-.47.175-.295-.057-.151-.129-.561-.273-.757-.299.056-.754-.03-.454-.178-.883-.076-.557-.738-.238-.325-.067.063-1.13.14-1.228.142-.227-.138-.212-.165-.599-.013-.743.03-.583.203-.485.01-.367.131-.872.265-.743.48-.021.26-.407.226.046.393-.268.401.129.214-.284-.272-.356-.313-.202-.161-.196-.605-.18-.066-.3-.251-.056-.32-.429-.216-.382.01-.175-.127-.315-.096-.594.074-.273-.137-.258-.133-.536.119-.363-.063-.345-.088-.078-.168.083-.503-.046-.254-.28-.332-.135-.16.025-.553.355-.103.212-.46.274-.651.077-.048.062-.634.149-.257.154-.045.149-.276-.005.22-.681-.19-.102.14-.327-.093-.119-.202-.535.019-.187-.14-.194.106-.481.055-.496-.035-.379-.105-.449.122-.312v-.356l-.086-.108-.272-.926-.272-.489.037-.153.228-.286.097-.391-.407-.507-.49-1.004-.402-.364-.453-.522.075-.216-.26-.435-.02-.214-.198-.313-.096-.331.111-.351-.201-.417-.293-.219-.164-.335-.374-.487-.077-.269-.28-.389-.469-.188.113-.205.321-.301-.006-.635-.046-.226-.235-.244-.352-.191-.062-.176.067-.42-.004-.581.125-.514-.183-.21-.062-.585.003-.435-.05-1.24.01-.584.21-.104.146-.276-.136-.581.114-.345.112-.029.102-.384.261-.275-.16-.585-.118-.255-.154-.78-.096-.21-.152-1.134.911-.118.404.005 2.001-.2.177-.232.268.22.95-.065 1.243-.003.286-.869.097-.491.223-.378.247-.2 1.103.147.123-.067.855-.716.232-.063.206.399.024.634.285-.07.355-.177-.184-.258.007-.384-.271-.633.046-.392.823-.004.135-.194 1.275.247.205.07.17-.193-.122-.292.181-.194.395-.102-.025-.364.069-.27.988.153.26.86.32.13.48.117.472.047.352.102.149.148.137-.226-.135-.222.042-.183-.368-.36-.185-.088.083-.385-.285-.2.413-.392.39-.007.124-.166.217.115.208-.056.297.098.464.037-.014.324.55.182 1.098.037-.294-.252.098-.227-.163-.26-.392-.194.27-.076.272.117.262-.137.031-.28.267.251.27.372.15.01.214-.2-.029-.302.163-.058.155-.28.143-.638.333-.098-.125-.431.095-.023-.517-.582.145-.151.01-.555.225-.4 1.802.82.141-.403.312-.467-.197-.388.263-1.636.813-.145-.337-.578-.013-.567.093-.746.282-1.98.065-.862-.19-.07.178-.45 1.933-4.599.427-.065.458.254.042.124.337.166.425.087.215.167 1.534 2.032.398.33.528-.388-.184-.244.55-.578.133-.182 1.197-1.161.165.295.15-.016.194-.447.186-.25.501-.525.337-.425.268-.547-.947-1.451-.662-.233-.478-.212-.004-.195-.436-.255-.437-.421-.643-.453.24-.301.037-.866.935.132.274-.572-.028-.759-.222-.53-.279-1.033-.026-1.082-.085-1.325.053-.783.069-.516.573.254.54.58.477.215.175-.003.193.169.368.093.474.03.574-.015.326.08.083.218.449.037.336.122.51-.365-.078-.183.101-.522.053-.664.35.045.237-.149.103-.29-.11-.262.743-.143.548.192.464.069.212-.639h.693l1.726.664.535.252.172.45 2.154.35.614-.168.06-.36.075-.923.797-.005.098-.285.18-.186.29.188-.027.21.083.267.28.357.292-.212.213.395.493.102.823.066.12-.098.085-.307.295-.198.05-.504-.105-.21.102-.242-.228-.088.168-.372.53-.24.074-.266-.285-.322.17-.49.47.234.4-.112.129.208.275-.253.222-.327.795-.113.472-.217.319.041-.23-.37-.03-.212.512-.195.439.107.53.03.63-.25.499-.118.424.132.261-.122.318-.34-.114-.396-.072-.645.358-.126.304-.016.058-.848.268-.812.169-.355.22-.64-.114-.448-.162-.28-.29-.3-.513-1.073.302-.712.304-.385.06-.244.27-.653-.056-.28.044-.286.263-.25.314.056.462-.281.081-.15.587.19.184.004.534.2.364-.417.267-.038.297.103.306.292-.178.282-.397.108-.062.086-.056.678.024.208-.054.567-.192.368-.004.269.305.25.2.329.217.109.417.462.434.286.93 1.095 1.069 1.33.289.926.351.794.1.333.046.415.211.758-.027.372.075.314.049 1.02.035 1.567-.124.187.128.29.038 1.113 2.41 1.046.308.123.215.506.249.408.192.802.373.93.477.51.106.233.161.582.275.653.1.107.734.55.257-.447.282-.13.14-.298.285-.323.395-.202.595-.687.298-.244-.193-.193.34-.383.16-.26.212.099.232-.519.873.423.623-.207.48-.268.185-.507.51-.32.5-.087.305-.249.32-.574.287-.371.35.136.13-.305.07-.4.216-.06.317.11.185-.29.637-.478-.1-.332.188-.276 1.16-1.442.256-.341.29.056.248-.277.292-.053.153.37.235 1.358.321 1.343.065.196.4.553 1.434 1.089.328.569.297.203.297.1.613.375.147-.29.335-.417.428-.06.029-.144.353-.02.048-.223.393.05.326.109.41.055.587-.211.394.263.303.332.345.01-.196-.712 1.091-.293.036.425.35.203 2.92.465.623.154.225-.67.72.124 2.255.423-.146.63.667-.005.281.053-.14.235.349.113.366-.04.176-.15.614-.027.09.126.093.42.648-.722.092-.185.777.694-.21.178.134.46.237.329-.878.731-.443.143-.556-.051-.159.122-.492.124-.267.457-.27.219-.01.135-.295.167-.068.306-.577 2.092-.097.291-.317.704-.705-.51.018.331.178.131.087.274.336.405.057.525.55-.07.168.244.209-.125.133.136-.152 1.208.704.393 2.417 1.223.263-.387.15-.347.751.757 1.787 2.002.279-.458.227-.248.301-.214-.482-.32-.214-.24-.063-.222.209-.21.775-.152.399-.049.597.362.488-.11.11-.09-.101-.279.29-.17.596.34.563.055.529.134.347-.16.287-.036.308-.228.221.169.091.184.421.314.47-.314.66-.205.792-.176.603-.251.777-.176.522-.014.332-.077.493.043.553-.13.33-.027 1.572.223 2.232.278 1.037.236 1.764.223.256-1.112.106-.55.639.538.189.003.369.292.104.16.718.55.125.32.135.363.162.232.281.083.339.019.601.18.468.254.736.351.442.674.898.372.448.447.421 1.239.678.793.721.52.257.418.052.542-.021.535.294.484-.268.245-.433.003-.358.16-.04.252.321.73.191.54-.247.592-.535.417-.273.16-.287-.095-.878-.525-.661.16-.161.281.075.304-.137.382-.24.42-.049.335-.679.436-.126.144-.101.368-.404.414-.114.416-.275.084-.244-.086-.21.04-.071.34.175.302.073.44.1.063.388.833.364.282.192.29.011.196-.093.655-.319.103-.12.298-.081.465.383.4.173.35-.044.166.169.353-.165.444.029.353.223.352-.009.292.26.269-.026.374-.194.184-.194.034-.352.309-.614.108-.146-.218-.083-.368.142-.44-.282-.199-.253.035-.455-.159-.147.198-.09.332-.141.15-.399.182-.469.095-.358.78-.035.215-.453.656-.433.392-.166.215-.068.393-.013.517-.13.336.136.102-.13.284-.343.264-.219.1-.028.142-.403.334-.18.433.03.127.712.222.14.464.225.164.264.477.402.344.164.247.15.359.495.13.174.156.441.24.495.692.106.028.318.388-.021.185-.16.158.156.255-.067.227.003.753.047.122.048.77-.055.589.047.268.472 1.192-.037.243.297.288.039.178-.429.508-.137.583.285.58.372.372.209.099.187-.037.214.177v.279l.178.199.151-.052.12-.507.191.103.04.232.22.276.056.317.177.105.231.391.418.385-.412.322.019.268.848.27.068.228-.416.607.111.336-.049.204-.175.111.038.848-.294.349-.234.122-.233.018-.071.248.175.211.166.062-.256.062-2.166-.525-2.032-.561-.715-.157-.477.985-2.527-.767.037 1.402-.202.351-1.195.098-1.697.103-1.119.744-.424-.212-.177.052-2.393.092-.704.016-4.699.17-.43.274h-.188l-1.923-.873-.279.083-.972-.583-.396-.176-.284-.263-.613-.433-.277-.047h-.929l-.333.356-.407.568-.09 1.331-.053 1.337-.098 1.636.388 2.38.042.02.596.573.368.212.222.521.656.552.652.243.327.217.413.103.323.144-.083.269-.157.108-.215-.072-.182.088-.17.304-.106.413-.18.134-.21.32-.322.041-.395-.046-.2.181h-.244l-1.742-.202-.218.485.218.77-.529-.15-.365-.191-1.146.444-.138.026-.754-.217-.117.377-.223.211-.107.258.175.522-.428.418.116.351-.29.382-.336.536.08.119-.878 1.197-.094-.005-.023.165.23.145.346.098-.299.919.074.402.142.351-.128.573.009.243-.289.335.13.145-.04.253-.312.567 1.701.934.127-.165.32.279-.81 1.074-.606.763-.107.197-.576.732-1.47 2.075-.025.341-.145.248-.288.17-.306.366-.54.449-.73.486-.06-.305.046-.594-.47-.474-.171.139.24.315-.018.377.226.175-.033.176-.266.227-.052.294-.195.18.233.119-.112.578-.386.191-.187.01-.325-.211-.199.423-.05.361-.321-.232.008-.557-.198-.522.054-.237-.23-.413-.063-.258.11-.351-.174-.196-.314-.552-.317.087-.506-1.574-.138-.382-1.165.584-.525-.124.224-.279-.026-.382-.286-.403-.004-.17-.164-.175-.742.041-.14-.088-.386.217-.49.186-.644.444-.257.026-.322.185.218.475-.444 1.069-.286.02-.298-.103-.336-.279-.215-.65-.157-.109-.04-.258-.12-.093-.447-.128-.24.056-.07-.155-.732-.092-.58-.145-.35-.175.406 2.147.588-.104.421.016-.042.371.097.398.253.005.062.351.396.325.137.418-.258.046-.36.238-.785.129-1.668-.217-.052.795-.257 1.192-1.209.005-.26-.026h-.96l-2.925-.165-1.074-.072-.53-.098-.851-.521-.415-.3-.841-.743-.157-.299-.158-.439-.097-.067-.128-.356-.313-.681.216-.553 1.183-2.575-1.097-.909-.579-.443-1.323-1.172-.182-.134-.364-.248-1.553-.717-.042.072-.546.046-1.06.031-.54.068-.334-.026-.555-.357-.574 1.554-.631-.026-.732-.315.08.568.232.253-.007.47-.326 1.042-.283.036-.357-.211-.555-.403-.67-.382-.606-.428-.5-.589-1.28-.309-1.053-.325-.843-.243-1.252-.382-1.735-.454-.36.81-.232.387-.31.258-1.448 1.311-.85.749-.201.242-.014.232-.092-.263-.168-.077-.456-.367-.486.078-.969.248-2.092.572-1.355.429-.654.134-1.623.186-1.326.118-1.579.114-.091.33-.292.036-.23-.139-.097.181-.288-.217-.215-.289-.123-.01-.406.17-.613-.114-.622.181-.703.088-.233.093-.55.346-.18.289-1.56-.129-.22-.253-.286-.062-.315.144-.15-.17.027-.181-1.966-.521-2.518-.681-.25-.238-.052.914-.107.501.18.216-.126.284-.215-.026-.082-.382-.25-.051-.458.392-.42-.155-.368-.026-.09-.088-.448.026-.181-.16-.158.016-.179-.217-.684.124-.211-.036-.167-.15-.408.181-1.045-.439.08-.377-.685-.335-.117-.202-.317-.309-.276-.186-1.71-1.373"/><path id="Кременецький" fill="#C8C6C6" fill-rule="evenodd" d="m106.752 72.92-.597-.362-.398.049-.776.153-.209.209.063.223.214.24.482.319-.301.214-.227.248-.279.458-1.786-2.002-.752-.757-.15.347-.263.387-2.417-1.224-.703-.392.151-1.208-.133-.136-.209.125-.169-.245-.55.071-.056-.525-.335-.406-.088-.273-.178-.131-.017-.332.704.51.318-.703.096-.291.577-2.092.068-.307.296-.167.01-.135.268-.218.268-.457.492-.124.159-.123.556.052.443-.143.878-.731-.237-.329-.133-.46.209-.179-.777-.693-.092.185-.648.72-.092-.418-.091-.126-.614.027-.176.149-.366.04-.349-.112.14-.236-.28-.052-.668.005.146-.63-2.255-.424-.72-.123-.225.67-.623-.154-2.919-.465-.351-.204-.036-.425-1.091.293.197.712-.346-.009-.303-.332-.394-.263-.588.211-.409-.056-.326-.108-.393-.05-.048.222-.353.021-.029.145-.428.059-.335.417-.147.29-.613-.376-.297-.1-.297-.203-.328-.568-1.433-1.09-.4-.552-.066-.196-.32-1.343-.236-1.358-.153-.37-.292.053-.249.277-.289-.056-.256.34-1.16 1.443-.188.276.1.332-.637.478-.185.29-.317-.11-.216.059-.07.4-.13.306-.35-.136-.286.371-.321.574-.305.25-.5.086-.51.32-.184.507-.48.268-.624.207-.872-.423-.233.518-.212-.097-.16.258-.34.384.194.194-.299.243-.595.687-.395.202-.285.323-.14.298-.282.13-.257.446-.733-.549-.101-.107-.275-.653-.16-.582-.107-.234-.477-.509-.373-.93-.192-.802-.249-.408-.215-.506-.307-.123-2.41-1.046-.038-1.114-.129-.289.124-.187-.035-1.568-.05-1.02-.074-.313.028-.371-.212-.759-.046-.415-.1-.333-.351-.794-.29-.926-1.067-1.33-.93-1.095-.434-.286-.418-.462-.217-.11-.2-.328-.305-.25.004-.269.193-.368.053-.567-.024-.208.056-.678.062-.086.397-.108.178-.282-.306-.292.01-.797-.181.032-.26-.17-.565-.055-.322-.21-.563-.139-.078-.118-.191-.818.034-.147.537-1.211.333-.645-.269-.687-.548-1.43-.325-.14-1.516-.433-.665-.241-1-.54-1.219-1.058.136-.815.084-.997.822.137.076-.823.306-3.015 1.229-.23.554-.16 1.214-.007.783-.032.693-.085.492-.113.8-.312.52-2.192.096-.336 1.023-.345.029-.82.504-.13-.267-1.614 1.01-.034-.106-.493 2.054-.468-.433-1.617-2.354-.354-.49-.676-.16-.334.036-.703.012-1.791.02-.958 1.243-1.113 1.027-.945 1.015.119 1.09.1-.14 1.054 3.078.469 1.423.258.16.081.821-1.544.982-1.881.4.157.215.173.886.53 1.367.907.836.956.454.4.113.028 4.96-3.248.762-.08.806.865.276-.09.939-.118.369-.106-.013-.176.174-.074.03-.26.4-1.25.234.256.41-.05.763.288.475.238.399.248.603.141.117-.285.316-.066.523.1.724-.165.135.01.296-.223.658-.253.538.126.715.065.395.214.189-.045.376.223.181-.29.248-.109.152.045.272-.185.177-.018.463-.241.181-.215.268-.142.736-.246.357-.034.46-.708.466-.776.23-.272-.12-.667.184-.4.379-.228.122-.293.005-.349.552-.317.658-.968.571-.72 1.601-1.448.451-.381.004-.161-.156-.334.019-.226.179-.083.346-.148.666-.13.874.067.137.09.701-.261.604.133.517.932.108.477.789.465.405-.14.601.013.714.35.455.393.153.243.122.898.97-.098.908-.88.101-.052 1.691-1.736.563-.614.536-.405.229.103.888.842.372.066 1.373.519 1.165.463.598.238 1.765.65.925.289.538.204.568.096.064-.187.042-.483.217-.186.145-.29-.154-.227.187-.384 1.78-2.419 2.111-.101-.026-.334.421-.104.09 1.106-.052.156-.375.184.039 1.02-.641-.03.165 2.419-.679-.057-.571.282-.195.16-.167-.042-.366-.302-.254.1.058 1.125-.071.497.487-.193-.124.409-.442 1.145-.449 1.23 1.182.46-.109.306.379.454.208.171.654.073.324.11.519.359.123.036.224.352-.055.135-.657.4-.033.206.769 1.224-.408.239.102.723-.417-.076-.194.043-.121.427.245.344.639.535.38.262-.043.416.353.023.614-.123.045-.173.24.006.477.176-.716 1.624.965.57.794.656.795.689.732.417.041.86-.051.539-1.661.146-3.522.375-.968.06-.189.096.264.304.245.726-.281.977-.078.446.548.469-.373.729-.141.365.408.313.486-.013.708.608.157.075-.016.64.266.065-.003.476.176.304-.066.365-.707-.055-.089 1.313-.795-.11-.425.098-.527.256-.372.395-.207.09-.565.368-.266.091-.276.276.106.23.209-.012.576.183.3.211.673.034.593.274-.038.217.519.082-.455 1.365-.165 1.034-.107.676.03.053-.959.045-.748-.07-.827-.211-.434.575.177.305-.216.217-.613.173-.324.244-.137.574-.194.274-.342-.149-.212.013-.294.645.033.195.483.285v.587l-.274.404.489 1.668.194.563.423 1.532.496.988.199.333-.276.009-.369.323-.432.139-.277.27-.17.049-.551.304-.204.166-.209.462-.252.376-.079 1.035.48.421.489-.047.496.25.382.31.294.05.342.32.072.373-.057.214.042.308.362.315.711.493.961.187.524.31.199.174.273.417.205.127-1.652 2.1-.164.123-.11.275.545.146.077.137-.093.331.083.462-.047.323.154.323.212.27-.135.35.157.22.279-.007.38.515.036.267.593.092.094.103.04.462.215.342.133.39.357.11.197-.003.05.304.143.233.058.269-.039.834.246.092.37.455.089.406-.013.413.171.032-.347.932.301.309.147.075.844.204-.116.406-.262.146.075.544.16.674.176.351.072.31.026 1.204.106.332-1.084.76-.372.21-.911.263-.131.077-.12.558-.214.288-.405.336-.872 1.311-.355.266-.125-.32-.718-.55-.104-.16-.369-.292-.189-.003-.639-.538-.107.55-.255 1.112-1.764-.223-1.037-.236-2.232-.278-1.572-.223-.33.026-.553.13-.493-.043-.332.078-.522.014-.778.175-.602.252-.792.176-.66.205-.47.314-.421-.314-.091-.184-.221-.169-.308.228-.287.036-.347.16-.529-.134-.563-.054-.596-.342-.29.171.101.278-.11.09-.488.11" clip-rule="evenodd"/><path stroke="#000" stroke-linecap="round" stroke-linejoin="round" stroke-width=".2" d="m106.752 72.92-.597-.362-.398.049-.776.153-.209.209.063.223.214.24.482.319-.301.214-.227.248-.279.458-1.786-2.002-.752-.757-.15.347-.263.387-2.417-1.224-.703-.392.151-1.208-.133-.136-.209.125-.169-.245-.55.071-.056-.525-.335-.406-.088-.273-.178-.131-.017-.332.704.51.318-.703.096-.291.577-2.092.068-.307.296-.167.01-.135.268-.218.268-.457.492-.124.159-.123.556.052.443-.143.878-.731-.237-.329-.133-.46.209-.179-.777-.693-.092.185-.648.72-.092-.418-.091-.126-.614.027-.176.149-.366.04-.349-.112.14-.236-.28-.052-.668.005.146-.63-2.255-.424-.72-.123-.225.67-.623-.154-2.919-.465-.351-.204-.036-.425-1.091.293.197.712-.346-.009-.303-.332-.394-.263-.588.211-.409-.056-.326-.108-.393-.05-.048.222-.353.021-.029.145-.428.059-.335.417-.147.29-.613-.376-.297-.1-.297-.203-.328-.568-1.433-1.09-.4-.552-.066-.196-.32-1.343-.236-1.358-.153-.37-.292.053-.249.277-.289-.056-.256.34-1.16 1.443-.188.276.1.332-.637.478-.185.29-.317-.11-.216.059-.07.4-.13.306-.35-.136-.286.371-.321.574-.305.25-.5.086-.51.32-.184.507-.48.268-.624.207-.872-.423-.233.518-.212-.097-.16.258-.34.384.194.194-.299.243-.595.687-.395.202-.285.323-.14.298-.282.13-.257.446-.733-.549-.101-.107-.275-.653-.16-.582-.107-.234-.477-.509-.373-.93-.192-.802-.249-.408-.215-.506-.307-.123-2.41-1.046-.038-1.114-.129-.289.124-.187-.035-1.568-.05-1.02-.074-.313.028-.371-.212-.759-.046-.415-.1-.333-.351-.794-.29-.926-1.067-1.33-.93-1.095-.434-.286-.418-.462-.217-.11-.2-.328-.305-.25.004-.269.193-.368.053-.567-.024-.208.056-.678.062-.086.397-.108.178-.282-.306-.292.01-.797-.181.032-.26-.17-.565-.055-.322-.21-.563-.139-.078-.118-.191-.818.034-.147.537-1.211.333-.645-.269-.687-.548-1.43-.325-.14-1.516-.433-.665-.241-1-.54-1.219-1.058.136-.815.084-.997.822.137.076-.823.306-3.015 1.229-.23.554-.16 1.214-.007.783-.032.693-.085.492-.113.8-.312.52-2.192.096-.336 1.023-.345.029-.82.504-.13-.267-1.614 1.01-.034-.106-.493 2.054-.468-.433-1.617-2.354-.354-.49-.676-.16-.334.036-.703.012-1.791.02-.958 1.243-1.113 1.027-.945 1.015.119 1.09.1-.14 1.054 3.078.469 1.423.258.16.081.821-1.544.982-1.881.4.157.215.173.886.53 1.367.907.836.956.454.4.113.028 4.96-3.248.762-.08.806.865.276-.09.939-.118.369-.106-.013-.176.174-.074.03-.26.4-1.25.234.256.41-.05.763.288.475.238.399.248.603.141.117-.285.316-.066.523.1.724-.165.135.01.296-.223.658-.253.538.126.715.065.395.214.189-.045.376.223.181-.29.248-.109.152.045.272-.185.177-.018.463-.241.181-.215.268-.142.736-.246.357-.034.46-.708.466-.776.23-.272-.12-.667.184-.4.379-.228.122-.293.005-.349.552-.317.658-.968.571-.72 1.601-1.448.451-.381.004-.161-.156-.334.019-.226.179-.083.346-.148.666-.13.874.067.137.09.701-.261.604.133.517.932.108.477.789.465.405-.14.601.013.714.35.455.393.153.243.122.898.97-.098.908-.88.101-.052 1.691-1.736.563-.614.536-.405.229.103.888.842.372.066 1.373.519 1.165.463.598.238 1.765.65.925.289.538.204.568.096.064-.187.042-.483.217-.186.145-.29-.154-.227.187-.384 1.78-2.419 2.111-.101-.026-.334.421-.104.09 1.106-.052.156-.375.184.039 1.02-.641-.03.165 2.419-.679-.057-.571.282-.195.16-.167-.042-.366-.302-.254.1.058 1.125-.071.497.487-.193-.124.409-.442 1.145-.449 1.23 1.182.46-.109.306.379.454.208.171.654.073.324.11.519.359.123.036.224.352-.055.135-.657.4-.033.206.769 1.224-.408.239.102.723-.417-.076-.194.043-.121.427.245.344.639.535.38.262-.043.416.353.023.614-.123.045-.173.24.006.477.176-.716 1.624.965.57.794.656.795.689.732.417.041.86-.051.539-1.661.146-3.522.375-.968.06-.189.096.264.304.245.726-.281.977-.078.446.548.469-.373.729-.141.365.408.313.486-.013.708.608.157.075-.016.64.266.065-.003.476.176.304-.066.365-.707-.055-.089 1.313-.795-.11-.425.098-.527.256-.372.395-.207.09-.565.368-.266.091-.276.276.106.23.209-.012.576.183.3.211.673.034.593.274-.038.217.519.082-.455 1.365-.165 1.034-.107.676.03.053-.959.045-.748-.07-.827-.211-.434.575.177.305-.216.217-.613.173-.324.244-.137.574-.194.274-.342-.149-.212.013-.294.645.033.195.483.285v.587l-.274.404.489 1.668.194.563.423 1.532.496.988.199.333-.276.009-.369.323-.432.139-.277.27-.17.049-.551.304-.204.166-.209.462-.252.376-.079 1.035.48.421.489-.047.496.25.382.31.294.05.342.32.072.373-.057.214.042.308.362.315.711.493.961.187.524.31.199.174.273.417.205.127-1.652 2.1-.164.123-.11.275.545.146.077.137-.093.331.083.462-.047.323.154.323.212.27-.135.35.157.22.279-.007.38.515.036.267.593.092.094.103.04.462.215.342.133.39.357.11.197-.003.05.304.143.233.058.269-.039.834.246.092.37.455.089.406-.013.413.171.032-.347.932.301.309.147.075.844.204-.116.406-.262.146.075.544.16.674.176.351.072.31.026 1.204.106.332-1.084.76-.372.21-.911.263-.131.077-.12.558-.214.288-.405.336-.872 1.311-.355.266-.125-.32-.718-.55-.104-.16-.369-.292-.189-.003-.639-.538-.107.55-.255 1.112-1.764-.223-1.037-.236-2.232-.278-1.572-.223-.33.026-.553.13-.493-.043-.332.078-.522.014-.778.175-.602.252-.792.176-.66.205-.47.314-.421-.314-.091-.184-.221-.169-.308.228-.287.036-.347.16-.529-.134-.563-.054-.596-.342-.29.171.101.278-.11.09-.488.11"/></svg>