<svg xmlns="http://www.w3.org/2000/svg" width="213" height="228" fill="none" viewBox="0 0 213 228"><path id="Ковельський" fill="#C8C6C6" fill-rule="evenodd" d="m84.963 147.446.312-.65-.522-.297-1.068-.162-.527-.264-.484-.358-.873-.15.171-.376-.192-.377-.181.064-.285-.581-.111.074-.512-.12-.205.299-.144.411-.224-.009-.313-.185-.018-.317-.349-.442-.22-.049-.477-.377-.6-.176-.478-.577-.864-.439-.87-.618-.43-.417-.291.041-.188.593-.905-.207-.628-.396-.227-.084-1.88-.44-1.235-.593-.628-.583.303-.661.423-.617.11-.352-.564.023-1.026-.202-1.1-.395-.257-.698-.023-.321-.162.053-1.292-.177-.788-.049-.707-.453-.681-.306.174-.277.041-.208.46-.391.186-.341.211-.125.256.024.178.228.484.031.216-.264-.252-3.709-.654.027.069-.127-.05-.44.12-.985-.375-.091.224-1.23.228-1.098.056-.411-.315.005-2.555.816-.411.3-.846-.086-.716-.121.005-.297.222-.887.009-.291-.56-.034-.596.09-.668.009-.29-.242-.31-.348-.17.153-.11-.528.124-.593.064-.609.245-.899.146-.335.018-.299.201-.062-.046-.183.193-.333-.216-.238.104-.802-1.027.034-.035-.052-1.087.029-.143-.877-.7.092-.405-.056-1.195-.032-.004.399-.906-.135-.164.078-1.058.329-.18.012-.648-.262-.026.525-1.41.618-.694.655-.255.064-.359.229-.54.156-.157.395-.248.202.195.207-.002.26.263.216.207.35-.24.117-.206.22-.022.268-.278-.033-.185.218-.184-.01.046.701-1.172.391-.154.209-.31-.12.116-.18-.728-.399-.152.179-.19.024-.501 1.625-.24.671-.27.318-.21-.058-.208.543-.536 1.999-.184.586-.294-.182-.88.022-.708.083-.151-.223-.301-.162-.232-.024-.501.053-1.226-.3-.592.082-.353-.261-.122-.358-.623-.303-.354.068-.208-.184-.183.145-.784.051-.526-.37.064-.162-.935.219-1.138.237-.394-.439-.386-.078-.085-.278-.248-.286-.294-.153.021-.377-.24-.294-.117-.573-.446-.486-.667.351-.798.22-.578-.257-.115.34-.244.003-.476.233.028-.268-.523-.145-.224-.317.124-.154.325-.129.138-.298-.107-.116-.368.087.151-.249-.06-.384-.094-.191.038-.294-.133-.431.055-.226-.07-.491-.336-.082.004-.355.25-.299.043-.254-.197-.181.122-.237-.222-.232.008-.2-.195-.179-.146.066-.072.48-.523.014-.083-.3-.332.27-.098-.064-.14-.551-.288.051-.08-.441-.094-.038-.383.177-.099.148.065.317-.361.009.095-.236-.308-.438-.127-.464.015-.206-.109-.379.11-.518-.038-.108-.368.121.013-.615-.25-.104-.145.31-.186-.017-.252-.276-.014-.216.291-.122.132-.207-.205-.187-.017-.165.222-.207-.362-.204-.092-.204.118-.409-.25-.113.02-.579-.332-.006.125-.284.005-.227-.299-.157.097-.191.237-.181-.103-.18.309-.027.327-.409.17.062-.103.288.173.087.282-.183.273-.038-.06-.276.125-.145-.11-.363.068-.491.082-.23-.188-.276.246-.235-.016-.185-.46-.211.023-.144.262-.129-.457-.229-.122-.142.095-.466-.165-.327-.25-.039-.252.138-.21.216-.308-.023.025-.341.142-.249-.109-.101-.595.044-.06-.12.193-.185-.155-.244-.124.094-.02.278-.194.283-.113.027-.104-.334-.316.076-.306-.085-.21-.137-.212.129-.17-.257.035-.4.21.093.104-.149-.205-.187-.418-.049-.394-.255-.009-.421-.127-.213.194-.404-.226-.275-.377-.643-.31.052-.308-.07-.202-.272-.995-.205-.285-.297.104-.241-.064-.375-.003-.41-.495-.03-.083-.154-.256.055-.432-.026-.11-.293-.288-.009.064-.397-.326.039-.041-.419-.245-.089-.045-.172.167-.191-.152-.127-.207.147-.292.085-.113-.199-.189-.098-.375.095-.31-.039.056-.352-.192-.212-.105-.369.165-.182.258.035.142-.232.022-.277-.09-.399-.218-.094.095-.203-.112-.307-.469-.148-.033-.211-.535-.216-.045-.266.09-.243-.112-.276.265-.275-.404-.328.116-.581-.2-1.102.246-.118-.012-.308-.284-.101-.468-.263.259-.593-.281-.124-.214.075-.27-.437-.166-.17.191-.145-.207-.13-.18.167-.113-.243.256-.012.051-.184-.31-.177-.076-.297-.167-.135-.247.001-.213-.133-.168-.551-.3.125-.35.003-.126-.264-.164-.022.132-.298-.396-.142-.391-.022-.275.225-.395-.016.035-.198-.486-.076-.158.226-.313.222.023.214-.205.047-.117-.227-.399-.098-.277-.257.021-.224.23-.046-.177-.708.33.045.085-.273-.208-.124-.187-.264-.346-.145.035-.276-.254-.092-.079-.552.34.052-.022-.464-.32-.121.012-.216-.29-.231-.062-.213.143-.17.025-.336.352-.239-.048-.237-.43.026-.061-.126.126-.297.28-.328.424-.278.163-.295-.047-.309.107-.139.435-.03.25.162.14-.326-.049-.128-.283.058-.32-.167.021-.149.34-.02-.047-.25.084-.268-.052-.241.28-.092-.1-.435.059-.733.202-.006.157.21.19-.05-.026-.242-.169-.158.097-.191.353.308.169-.005.114-.179-.32-.334-.082-.3.268-.204.613.196.347-.348.189.136.28.02.147-.2-.128-.255-.222-.19.167-.554-.14-.269-.373.34-.056-.203.227-.349.045-.203-.204-.25.189-.183.357.11-.042-.335.395-.207-.236-.144-.594-.208-.226-.367.103-.216.339-.033.261.225.2-.1-.077-.222-.371-.17.05-.188.23-.127.251-.02.271.095.493-.573.263.018.187-.105-.214-.245-.203.016-.127-.203.054-.252.444-.267-.107-.214-.408.064-.235-.158.001-.316.283-.072.395-.257.131-.178-.132-.242-.644.302-.492-.112-.02-.243-.28-.748-.224-.143-.237-.014-.163-.255.058-.43.152-.085.345.118.176-.258-.386-.389.187-.424.286-.367-.021-.156-.312-.106-.225.372-.206.172-.194.02-.265-.313-.398-.272-.562.188-.553-.204-.258.04-.187-.265.194-.268-.229-.151.175-.277-.014-.248-.336-.342-.04-.19.18-.21.24.139.212-.09.406-.38.148-.395.34-.142.14-.215.052-.417.308-.067.23.189.204-.005.115-.212-.119-.281-.338-.187.025-.42-.066-.52-.181-.276-.26-.088-.197-.165.005-.32-.287-.342-.395.102-.163.452-.206.103-.402-.025-.304.126-.39-.096-.1-.195-.038-.419-.158-.137-.303.024-.362-.518-.46-.145-.078-.32.306-.084.101-.15-.09-.218-.45-.033-.18-.24.148-.533.352.27.106.21.188.09.293-.037.676.147 1.7.29.216-.054.704.244.36-.076-.04-.133.407-.826-.254-.686-.207-1.028-.402-.685-.43-.538-.062-.227-.286-.05-.163-.649-.786-.937-.48-.51-.377-.502v-.46l.237-.525.373-.275.327-.451.044-.603.146.04.246-.336.304.02.084.149.293-.203-.085-.234.202-.09.228-.843-.297-.926-.285-.425-.568-.176-.514-.374-.626-.342-.337.237-.217-.022.015-.229-.42-.692-.064-1.216-.363-.025-.434-.468-.106-.247-.792-.47.047-.553.359-.315.758-.26.427-.366.537-.138.089-.19.372-.518.747-.73.5-.025.81.073.526-.338.382-.592.39-.41.08-.375.161-.21.821.261.826.315.444.048 1.09-.329.47-.288.752-.286.46-.361 1.106-.31.516.123.4-.204.914-.534 1.044-.403.4.3.222.588.051.643-.186.362.03.399-.11.389.098.532-.031.47.37.045.916-.025.571-.225 1.038-.305.417-.153.664.185.911.506.9-.285.46-.047.622.027.378.214.482.17 1.439.571.217.154.92.283-.112.513-.29.427-1.084 1.348-.305.355-.727.633-.272 1.388.446.798 1.797-.752.466-.017 1.595.035 1.295.265 1.146 1.009 1.447.21 1.497.805.405.106 1.219-1.046.227-.068.369-.46-.022-.61.94-.854.332-.203.993-.532 1.832-1.06.789-.47.014.003 1.056-1.368 1.05-1.477.266-.486.209-.573L44.23 42l.515-.256 1.437-.792 2.46-1.298.91-.506 3.033-1.63 4.155-2.251.462-.513.355-.289 1-1.109.576-.698.616-.659 1.328-1.491-.53-1.218-.51-1.245-.132-1.469-.815-2.267-.153-.456.123-.985.25-.56.08-.438 1.064-1.688.796-.798.264-.298.801-1.425.292-.101.202-.53-.499-.887.46-1.105.65.077 1.425-1.389.679-.63.403-.045.749-.386.28-.084 3.429-.025 1.755-.056h1.154l1.173.041.112-.052 2.698-.704.594-.12 1.659.174 1.975-.263.605-.1.525-.606.467-.21 2.1-.705.273-.015.975-.155.501-.048 1.344.223 1.847.212.324.443.432.505 1.005-.164 2.427-.268.144-.09.44.369 1.343 1.211 1.232.532 1.473-.45 1.88-1.65.301-.029.297-.64.354-.358.207-.332.08-.39.533-.375.744-.083 1.338-.1.706 2.36 1.376-.663 1.385-.628.388-.211 1.313-.418.717-.155.555-.541.312-.249 1.149 2.237.239.508.277.773.119 1.4-.725.062-.481.192-.29.185-.445-.165-.25.24-.106.312.097.404.535.234.427.072h.846l.521.107.002.515.064 1.045-.483 1.544 1.287.555-.342.002-.183.191-.189.337-.53.408-.185-.286-.39.206-.514.828-.136.398-.608.354-.207.205-.241.752-.588.24-.437.277-.332.37-.292-.146-.122.079-.312-.169-.935-.42-.42-.224-.403-.023-.089-.418.028-.375-.997.026.007-.319-.279.04-.511 1.827-.154.24-.016.618-.452.455-.395.493-.202.434-.732 1.167-.001.92.034.7-.991.466-1.175-.915-2.555.953-1.048.646-1.391.893-.746.459.322.55.223.127.023.358.204.064-.028.28-.551 1.344-.297 2.92-.37.39-.208.418-.238.156-.183-.273-.113-.697.005-.246-.41-.438-.129-.284-.077-.553-.872-.457-.755-.016-.28.644-.571.232.122.404 2.163 1.65-1.082 1.108.255.29.353.117-.32.586.153.148-.008.302.262 1.032.28.756.248.31.056.402-.12.25.024.456-.226.451-.502.379-.231.904-.089.229-.374.553-.451.187-.22.193-.417.495-.25.106.124.297.345.08.559-.273.408-.004.217.13-.323.358.175.24-.273.288-.258-.038-.392.055-.03.752.135.084.447.608-.316.263-.041.64-.523.315-2.047-.76-.329.2-.282.363.012.233.133.309-.058.3.376.44.195.115.684.174 1.692-.013.928-.46 1.056.074.534.007 1.13-.234.305-.026.583-.153.794.096.773-.167.373.098.57-.115.51.008.32.182.034.531.102.363.201.333.256.254-.058.543-.178.121-.042.227.271.566.017.364.192.137.032.257-.277-.034.01.435.16.332.031.253-.162.253.14.365-.003.319-.088.45.177.004-.238.978-.107.157.031.382.153.282.007.33.181.481.16-.05.096.242.157.12-.227.18-.033.272.156.3.159-.06.096.66-.341.147-.101.406-.148.272-.295.018-.107.157.137.183-.514.294-.185.444-.006.49-.155.491-.03.65-.072.325.016.27-.214.121.157.344-.154.306.022.303-.376.114.136.54-.428.194-.038.46.215.263.008.376.172.367-.105.437.39.47.18.336-.155.246.336.529-.174.303-.279.135-.03.13-.378.726.414.375.02.13.415.455-.025.091.635.39.087.143.666.14.334.585.241-.103.238.092.232-.082.787.186.218.201.164-.08.671.163.794.135.229-.172.321.656.303.395-.374 1.052.276.257.136.44.25.175.304-.162.333-.031.525.317.879.376.266.249.472.145.067.106.61.045.17-.029.155.21.021.233.246.539.324.24.394.793-.377.25.426.282.351.823.873.354.856.143.657-.052.411.102.363.029 1.37-.087.388.017-.132.808-.323.567-1 .734-.246-.076-.838.634-.051.146.196.203 1.584.153 1.629.137.342-.262.119-.206.038-.276.634-.213.359-.055.469.173.514-.156.166-.176.355.017.08-.188.424-.327 2.402.087 1.314.01.028-1.127 2.494.079.015-.324.847-.005.268-.11 1.054-.067.248.025-.041-.967 2.36-.01 3.493.084 1.279.015.014.16-.229.544-.024.292-.535.962-.394.44-.144.36-.01.484.142.249-.155.303-.042.254-.279.507-.112.45.081.248-.184.375.09.182.02.337-.165.142.097.213.226.05-.031.24-.177.339.374.874.176.323.348-.013.013.502-.094.069.131.41.174.084-.047.263.099.368.462.406.069.381.151.08.069.3.203.319.21.646.069.341-.056.25.083.186.188.022.195.207.541-.123 1.284-.097 2.653-.156.196.536.79 1.967.11.464-.082.625.208.393.149.638.272.323.128.352.292-.33.43.18.375-1.017 1.18.502.468.225.455-.653.81.58.152.928.145 1.124.097.505.41 1.26.105.615-1.115.001-1.216-.281-2.081.234-1.028.411-.078.272-.53.326.767.115.562-.287.141.559.726 1.274.325-.17.506.064.4-.043.276.134.07.36-.579.027.177 1.478.275-.098.467.225.498.333.281-.168.472.117-.018.132.34.197.184-.038-.152.797-.304.06-.167.274.059.384.308.369.225.159.16-.192.013-.23.532-.278-.181.528.228.219.729.246.543-.215.674.359.081.155.257.149.52.059-.022.166-.436.226-.533.194-.16.151.134.257.423.459.65.553.547.39.885.398.744.22.251.223.47.237-.117.46-.43.214-.141.152-.264-.037-.437.39-.695.146-.313.276-.504.107-.237.131-.551.144-1.059.487-1.109.113-.85.211-.197-.472-.233-.398-.505-.269-.36-.112.221-.537.001-.308-.552-.052-.633.026-.972-.167-.197 1.245-.184-.005-1.288-.41-.785-.269-.156.651-.71-.232-.288 1.162-.223 1.007.017.103-.181.409-.384.572.178 1.058.057.648.067.34.212.287-.395.404-.051.283-.488.213-.116.259-.394.165-.407.066-.124.284-.286-.016-.064.213-.363.06-.124.347-.128.06-.03.361-.273.722-.224.042-.264.252-.164-.012-.107.265-.261.315-.454.239.012.467-.164.449-.276.097-.146-.984-.233-.257-.324-.027-.08.129-.258-.113-.605.142-1.021.302-.479.044-.899.157-.132.389-.087.977-.513.224-.53-.146-.347.504-.443-.061-.287.091-.276-.138-.359.151-1.192-.031-.28-.642-.712.13-.169-.004-1.946.377-.333.173-1.394.294-.402.255-.645-.099-.096.407-.185-.041-.882.478-.477.17-.7-.576-.646.219-.255-.07-.339.011-1.946.203-.756.043-2.294.959-.679.382-.261.53-.466.641-1.478-.081-.299-.057-.502.035-.617-.095-.26.012-.211.118-.927.007-.758-.085-1.132-.006-.279.091.302.885.41 1.033.335 1.018.011.362-.039 1.075.092-.004.493-.328.215.132.397.041.295.387.473-.197.124.214.034.304.259.095.133.3.284.187 1.041.779.464.882-.089.39-.107.173-.062.517.189.43.138.567-.221.406-1.059-.727-.213-.538-.242-.248-3.671-.14-.105.783.06.252-.039.291.515.839.021.187-.099.611-.177.119-.234.561-.059.763.125.496.147.078-.249.52.041.432-.048.392-.683 1.042-.753.118-.353.225-.504.194-.436-.468-.269-.129-1.094-.056-.586-.322-.195-.148-.44-.488-.976-.423-.913-.363-.225.287.016.284-.184.439-.415.769-.019.352.072.272-1.84.268.201 1.358-1.537.263-.758.39-1.401.437-1.12-.887-.791-.55-.253-.338-.666-.49-.702-.276-1.18-.646-.717-.304-.303.061" clip-rule="evenodd"/><path stroke="#000" stroke-linecap="round" stroke-linejoin="round" stroke-width=".2" d="m84.963 147.446.312-.65-.522-.297-1.068-.162-.527-.264-.484-.358-.873-.15.171-.376-.192-.377-.181.064-.285-.581-.111.074-.512-.12-.205.299-.144.411-.224-.009-.313-.185-.018-.317-.349-.442-.22-.049-.477-.377-.6-.176-.478-.577-.864-.439-.87-.618-.43-.417-.291.041-.188.593-.905-.207-.628-.396-.227-.084-1.88-.44-1.235-.593-.628-.583.303-.661.423-.617.11-.352-.564.023-1.026-.202-1.1-.395-.257-.698-.023-.321-.162.053-1.292-.177-.788-.049-.707-.453-.681-.306.174-.277.041-.208.46-.391.186-.341.211-.125.256.024.178.228.484.031.216-.264-.252-3.709-.654.027.069-.127-.05-.44.12-.985-.375-.091.224-1.23.228-1.098.056-.411-.315.005-2.555.816-.411.3-.846-.086-.716-.121.005-.297.222-.887.009-.291-.56-.034-.596.09-.668.009-.29-.242-.31-.348-.17.153-.11-.528.124-.593.064-.609.245-.899.146-.335.018-.299.201-.062-.046-.183.193-.333-.216-.238.104-.802-1.027.034-.035-.052-1.087.029-.143-.877-.7.092-.405-.056-1.195-.032-.004.399-.906-.135-.164.078-1.058.329-.18.012-.648-.262-.026.525-1.41.618-.694.655-.255.064-.359.229-.54.156-.157.395-.248.202.195.207-.002.26.263.216.207.35-.24.117-.206.22-.022.268-.278-.033-.185.218-.184-.01.046.701-1.172.391-.154.209-.31-.12.116-.18-.728-.399-.152.179-.19.024-.501 1.625-.24.671-.27.318-.21-.058-.208.543-.536 1.999-.184.586-.294-.182-.88.022-.708.083-.151-.223-.301-.162-.232-.024-.501.053-1.226-.3-.592.082-.353-.261-.122-.358-.623-.303-.354.068-.208-.184-.183.145-.784.051-.526-.37.064-.162-.935.219-1.138.237-.394-.439-.386-.078-.085-.278-.248-.286-.294-.153.021-.377-.24-.294-.117-.573-.446-.486-.667.351-.798.22-.578-.257-.115.34-.244.003-.476.233.028-.268-.523-.145-.224-.317.124-.154.325-.129.138-.298-.107-.116-.368.087.151-.249-.06-.384-.094-.191.038-.294-.133-.431.055-.226-.07-.491-.336-.082.004-.355.25-.299.043-.254-.197-.181.122-.237-.222-.232.008-.2-.195-.179-.146.066-.072.48-.523.014-.083-.3-.332.27-.098-.064-.14-.551-.288.051-.08-.441-.094-.038-.383.177-.099.148.065.317-.361.009.095-.236-.308-.438-.127-.464.015-.206-.109-.379.11-.518-.038-.108-.368.121.013-.615-.25-.104-.145.31-.186-.017-.252-.276-.014-.216.291-.122.132-.207-.205-.187-.017-.165.222-.207-.362-.204-.092-.204.118-.409-.25-.113.02-.579-.332-.006.125-.284.005-.227-.299-.157.097-.191.237-.181-.103-.18.309-.027.327-.409.17.062-.103.288.173.087.282-.183.273-.038-.06-.276.125-.145-.11-.363.068-.491.082-.23-.188-.276.246-.235-.016-.185-.46-.211.023-.144.262-.129-.457-.229-.122-.142.095-.466-.165-.327-.25-.039-.252.138-.21.216-.308-.023.025-.341.142-.249-.109-.101-.595.044-.06-.12.193-.185-.155-.244-.124.094-.02.278-.194.283-.113.027-.104-.334-.316.076-.306-.085-.21-.137-.212.129-.17-.257.035-.4.21.093.104-.149-.205-.187-.418-.049-.394-.255-.009-.421-.127-.213.194-.404-.226-.275-.377-.643-.31.052-.308-.07-.202-.272-.995-.205-.285-.297.104-.241-.064-.375-.003-.41-.495-.03-.083-.154-.256.055-.432-.026-.11-.293-.288-.009.064-.397-.326.039-.041-.419-.245-.089-.045-.172.167-.191-.152-.127-.207.147-.292.085-.113-.199-.189-.098-.375.095-.31-.039.056-.352-.192-.212-.105-.369.165-.182.258.035.142-.232.022-.277-.09-.399-.218-.094.095-.203-.112-.307-.469-.148-.033-.211-.535-.216-.045-.266.09-.243-.112-.276.265-.275-.404-.328.116-.581-.2-1.102.246-.118-.012-.308-.284-.101-.468-.263.259-.593-.281-.124-.214.075-.27-.437-.166-.17.191-.145-.207-.13-.18.167-.113-.243.256-.012.051-.184-.31-.177-.076-.297-.167-.135-.247.001-.213-.133-.168-.551-.3.125-.35.003-.126-.264-.164-.022.132-.298-.396-.142-.391-.022-.275.225-.395-.016.035-.198-.486-.076-.158.226-.313.222.023.214-.205.047-.117-.227-.399-.098-.277-.257.021-.224.23-.046-.177-.708.33.045.085-.273-.208-.124-.187-.264-.346-.145.035-.276-.254-.092-.079-.552.34.052-.022-.464-.32-.121.012-.216-.29-.231-.062-.213.143-.17.025-.336.352-.239-.048-.237-.43.026-.061-.126.126-.297.28-.328.424-.278.163-.295-.047-.309.107-.139.435-.03.25.162.14-.326-.049-.128-.283.058-.32-.167.021-.149.34-.02-.047-.25.084-.268-.052-.241.28-.092-.1-.435.059-.733.202-.006.157.21.19-.05-.026-.242-.169-.158.097-.191.353.308.169-.005.114-.179-.32-.334-.082-.3.268-.204.613.196.347-.348.189.136.28.02.147-.2-.128-.255-.222-.19.167-.554-.14-.269-.373.34-.056-.203.227-.349.045-.203-.204-.25.189-.183.357.11-.042-.335.395-.207-.236-.144-.594-.208-.226-.367.103-.216.339-.033.261.225.2-.1-.077-.222-.371-.17.05-.188.23-.127.251-.02.271.095.493-.573.263.018.187-.105-.214-.245-.203.016-.127-.203.054-.252.444-.267-.107-.214-.408.064-.235-.158.001-.316.283-.072.395-.257.131-.178-.132-.242-.644.302-.492-.112-.02-.243-.28-.748-.224-.143-.237-.014-.163-.255.058-.43.152-.085.345.118.176-.258-.386-.389.187-.424.286-.367-.021-.156-.312-.106-.225.372-.206.172-.194.02-.265-.313-.398-.272-.562.188-.553-.204-.258.04-.187-.265.194-.268-.229-.151.175-.277-.014-.248-.336-.342-.04-.19.18-.21.24.139.212-.09.406-.38.148-.395.34-.142.14-.215.052-.417.308-.067.23.189.204-.005.115-.212-.119-.281-.338-.187.025-.42-.066-.52-.181-.276-.26-.088-.197-.165.005-.32-.287-.342-.395.102-.163.452-.206.103-.402-.025-.304.126-.39-.096-.1-.195-.038-.419-.158-.137-.303.024-.362-.518-.46-.145-.078-.32.306-.084.101-.15-.09-.218-.45-.033-.18-.24.148-.533.352.27.106.21.188.09.293-.037.676.147 1.7.29.216-.054.704.244.36-.076-.04-.133.407-.826-.254-.686-.207-1.028-.402-.685-.43-.538-.062-.227-.286-.05-.163-.649-.786-.937-.48-.51-.377-.502v-.46l.237-.525.373-.275.327-.451.044-.603.146.04.246-.336.304.02.084.149.293-.203-.085-.234.202-.09.228-.843-.297-.926-.285-.425-.568-.176-.514-.374-.626-.342-.337.237-.217-.022.015-.229-.42-.692-.064-1.216-.363-.025-.434-.468-.106-.247-.792-.47.047-.553.359-.315.758-.26.427-.366.537-.138.089-.19.372-.518.747-.73.5-.025.81.073.526-.338.382-.592.39-.41.08-.375.161-.21.821.261.826.315.444.048 1.09-.329.47-.288.752-.286.46-.361 1.106-.31.516.123.4-.204.914-.534 1.044-.403.4.3.222.588.051.643-.186.362.03.399-.11.389.098.532-.031.47.37.045.916-.025.571-.225 1.038-.305.417-.153.664.185.911.506.9-.285.46-.047.622.027.378.214.482.17 1.439.571.217.154.92.283-.112.513-.29.427-1.084 1.348-.305.355-.727.633-.272 1.388.446.798 1.797-.752.466-.017 1.595.035 1.295.265 1.146 1.009 1.447.21 1.497.805.405.106 1.219-1.046.227-.068.369-.46-.022-.61.94-.854.332-.203.993-.532 1.832-1.06.789-.47.014.003 1.056-1.368 1.05-1.477.266-.486.209-.573L44.23 42l.515-.256 1.437-.792 2.46-1.298.91-.506 3.033-1.63 4.155-2.251.462-.513.355-.289 1-1.109.576-.698.616-.659 1.328-1.491-.53-1.218-.51-1.245-.132-1.469-.815-2.267-.153-.456.123-.985.25-.56.08-.438 1.064-1.688.796-.798.264-.298.801-1.425.292-.101.202-.53-.499-.887.46-1.105.65.077 1.425-1.389.679-.63.403-.045.749-.386.28-.084 3.429-.025 1.755-.056h1.154l1.173.041.112-.052 2.698-.704.594-.12 1.659.174 1.975-.263.605-.1.525-.606.467-.21 2.1-.705.273-.015.975-.155.501-.048 1.344.223 1.847.212.324.443.432.505 1.005-.164 2.427-.268.144-.09.44.369 1.343 1.211 1.232.532 1.473-.45 1.88-1.65.301-.029.297-.64.354-.358.207-.332.08-.39.533-.375.744-.083 1.338-.1.706 2.36 1.376-.663 1.385-.628.388-.211 1.313-.418.717-.155.555-.541.312-.249 1.149 2.237.239.508.277.773.119 1.4-.725.062-.481.192-.29.185-.445-.165-.25.24-.106.312.097.404.535.234.427.072h.846l.521.107.002.515.064 1.045-.483 1.544 1.287.555-.342.002-.183.191-.189.337-.53.408-.185-.286-.39.206-.514.828-.136.398-.608.354-.207.205-.241.752-.588.24-.437.277-.332.37-.292-.146-.122.079-.312-.169-.935-.42-.42-.224-.403-.023-.089-.418.028-.375-.997.026.007-.319-.279.04-.511 1.827-.154.24-.016.618-.452.455-.395.493-.202.434-.732 1.167-.001.92.034.7-.991.466-1.175-.915-2.555.953-1.048.646-1.391.893-.746.459.322.55.223.127.023.358.204.064-.028.28-.551 1.344-.297 2.92-.37.39-.208.418-.238.156-.183-.273-.113-.697.005-.246-.41-.438-.129-.284-.077-.553-.872-.457-.755-.016-.28.644-.571.232.122.404 2.163 1.65-1.082 1.108.255.29.353.117-.32.586.153.148-.008.302.262 1.032.28.756.248.31.056.402-.12.25.024.456-.226.451-.502.379-.231.904-.089.229-.374.553-.451.187-.22.193-.417.495-.25.106.124.297.345.08.559-.273.408-.004.217.13-.323.358.175.24-.273.288-.258-.038-.392.055-.03.752.135.084.447.608-.316.263-.041.64-.523.315-2.047-.76-.329.2-.282.363.012.233.133.309-.058.3.376.44.195.115.684.174 1.692-.013.928-.46 1.056.074.534.007 1.13-.234.305-.026.583-.153.794.096.773-.167.373.098.57-.115.51.008.32.182.034.531.102.363.201.333.256.254-.058.543-.178.121-.042.227.271.566.017.364.192.137.032.257-.277-.034.01.435.16.332.031.253-.162.253.14.365-.003.319-.088.45.177.004-.238.978-.107.157.031.382.153.282.007.33.181.481.16-.05.096.242.157.12-.227.18-.033.272.156.3.159-.06.096.66-.341.147-.101.406-.148.272-.295.018-.107.157.137.183-.514.294-.185.444-.006.49-.155.491-.03.65-.072.325.016.27-.214.121.157.344-.154.306.022.303-.376.114.136.54-.428.194-.038.46.215.263.008.376.172.367-.105.437.39.47.18.336-.155.246.336.529-.174.303-.279.135-.03.13-.378.726.414.375.02.13.415.455-.025.091.635.39.087.143.666.14.334.585.241-.103.238.092.232-.082.787.186.218.201.164-.08.671.163.794.135.229-.172.321.656.303.395-.374 1.052.276.257.136.44.25.175.304-.162.333-.031.525.317.879.376.266.249.472.145.067.106.61.045.17-.029.155.21.021.233.246.539.324.24.394.793-.377.25.426.282.351.823.873.354.856.143.657-.052.411.102.363.029 1.37-.087.388.017-.132.808-.323.567-1 .734-.246-.076-.838.634-.051.146.196.203 1.584.153 1.629.137.342-.262.119-.206.038-.276.634-.213.359-.055.469.173.514-.156.166-.176.355.017.08-.188.424-.327 2.402.087 1.314.01.028-1.127 2.494.079.015-.324.847-.005.268-.11 1.054-.067.248.025-.041-.967 2.36-.01 3.493.084 1.279.015.014.16-.229.544-.024.292-.535.962-.394.44-.144.36-.01.484.142.249-.155.303-.042.254-.279.507-.112.45.081.248-.184.375.09.182.02.337-.165.142.097.213.226.05-.031.24-.177.339.374.874.176.323.348-.013.013.502-.094.069.131.41.174.084-.047.263.099.368.462.406.069.381.151.08.069.3.203.319.21.646.069.341-.056.25.083.186.188.022.195.207.541-.123 1.284-.097 2.653-.156.196.536.79 1.967.11.464-.082.625.208.393.149.638.272.323.128.352.292-.33.43.18.375-1.017 1.18.502.468.225.455-.653.81.58.152.928.145 1.124.097.505.41 1.26.105.615-1.115.001-1.216-.281-2.081.234-1.028.411-.078.272-.53.326.767.115.562-.287.141.559.726 1.274.325-.17.506.064.4-.043.276.134.07.36-.579.027.177 1.478.275-.098.467.225.498.333.281-.168.472.117-.018.132.34.197.184-.038-.152.797-.304.06-.167.274.059.384.308.369.225.159.16-.192.013-.23.532-.278-.181.528.228.219.729.246.543-.215.674.359.081.155.257.149.52.059-.022.166-.436.226-.533.194-.16.151.134.257.423.459.65.553.547.39.885.398.744.22.251.223.47.237-.117.46-.43.214-.141.152-.264-.037-.437.39-.695.146-.313.276-.504.107-.237.131-.551.144-1.059.487-1.109.113-.85.211-.197-.472-.233-.398-.505-.269-.36-.112.221-.537.001-.308-.552-.052-.633.026-.972-.167-.197 1.245-.184-.005-1.288-.41-.785-.269-.156.651-.71-.232-.288 1.162-.223 1.007.017.103-.181.409-.384.572.178 1.058.057.648.067.34.212.287-.395.404-.051.283-.488.213-.116.259-.394.165-.407.066-.124.284-.286-.016-.064.213-.363.06-.124.347-.128.06-.03.361-.273.722-.224.042-.264.252-.164-.012-.107.265-.261.315-.454.239.012.467-.164.449-.276.097-.146-.984-.233-.257-.324-.027-.08.129-.258-.113-.605.142-1.021.302-.479.044-.899.157-.132.389-.087.977-.513.224-.53-.146-.347.504-.443-.061-.287.091-.276-.138-.359.151-1.192-.031-.28-.642-.712.13-.169-.004-1.946.377-.333.173-1.394.294-.402.255-.645-.099-.096.407-.185-.041-.882.478-.477.17-.7-.576-.646.219-.255-.07-.339.011-1.946.203-.756.043-2.294.959-.679.382-.261.53-.466.641-1.478-.081-.299-.057-.502.035-.617-.095-.26.012-.211.118-.927.007-.758-.085-1.132-.006-.279.091.302.885.41 1.033.335 1.018.011.362-.039 1.075.092-.004.493-.328.215.132.397.041.295.387.473-.197.124.214.034.304.259.095.133.3.284.187 1.041.779.464.882-.089.39-.107.173-.062.517.189.43.138.567-.221.406-1.059-.727-.213-.538-.242-.248-3.671-.14-.105.783.06.252-.039.291.515.839.021.187-.099.611-.177.119-.234.561-.059.763.125.496.147.078-.249.52.041.432-.048.392-.683 1.042-.753.118-.353.225-.504.194-.436-.468-.269-.129-1.094-.056-.586-.322-.195-.148-.44-.488-.976-.423-.913-.363-.225.287.016.284-.184.439-.415.769-.019.352.072.272-1.84.268.201 1.358-1.537.263-.758.39-1.401.437-1.12-.887-.791-.55-.253-.338-.666-.49-.702-.276-1.18-.646-.717-.304-.303.061"/><path id="Володимирський" fill="#C8C6C6" fill-rule="evenodd" stroke="#000" stroke-linecap="round" stroke-linejoin="round" stroke-width=".2" d="m79.757 193.772-.229-.423-.105-.385-.218-.118-.271-.502-.125-.035-1.084-.507-.726-.036-.666.184-.459-.035-.451-.219-.073.124-.015.541-.274.29-.466.229-.244.293-.642.392-.17.207-.71.1-.424-.119-.266.238-.08-.178-.852-.486-.39-.191-.336-.406-.641-.583-.361-.216-.176-.245-.083-.279-.793-.223-.248-.696-.25-.483.227-.253-.385-.407.061-.168.813-.796.144-.371.224-.343-.228-.166-.79-.299-.335-.433-.17-.525-.237-.334-.58-.813-.423-.431-.401.599-.38.372-.506.246-.24.391-.336-.018-.388-.165-.659.051-.793-.032-.279-.076-.874-.122.263.924-.568 1.292-.066.265.017.335-.125.186.08.283-.04.177-.28.088-.23.184-.194-.219-.631-.17-.27-.021-.534.109-.497-.25-.334-.043-.661-.254-.373-.057-.4-.27-.8.045-.524-.087-.448-.026-.735-.321-.198-.211-.18.212-.141-.02-.268-.455-.493-.263.01-.211.297-.084.014-.206-.216-.005-.196-.122-.284.304-.393-.015-.144-.177.179-.349-.02-.202-.158-.213-.082-.408-.255.051-.203-.276-.127-.382.128-.172-.384-.01.355-.342.014-.131-.2-.316-.244-.117-.16.155-.158-.105-.305-.484-.221.134.006.26-.181-.013-.108-.56-.108-.061-.208.317-.154-.155-.242-.063-.223.307-.102-.012.021-.368.243.005-.14-.282.049-.321-.47.06.097-.245.065-.455-.196-.204-.385-.045-.08-.209.713.163.078-.102-.07-.281-.386-.275-.222-.276-.258-.067-.224-.261.09-.302-.363.07-.496-.236-.076-.156.068-.302-.255.094-.11.432-.132.068-.256-.096-.261-.385-.026.413-.2-.094-.04-.159-.31-.004-.166-.112.069-.307-.39-.091-.326.372-.234-.21-.195.091.06.284.22-.004.114.208-.49.135.082.181-.264.13-.21.416-.382.292-.253.017-.33-.123-.141-.252-.397.316-.37-.296-.193-.289.062-.207-.06-.554-.317.151-.232-.06.251-.559.492-.38-.178-.141.223-.251-.331-.063.198-.295.123-.573-.348.039-.035-.371.138-.697-.194-.246-.23-.097.077-.314-.136-.135-.548.102-.285-.266-.008-.264-.227.104-.404.042-.115-.105.24-.32-.132-.163-.053-.293.356.083.199-.119-.352-.24.07-.4.114-.149.136-.647.265-.48-.009-.267-.136-.03-.039-.58-.213-.186-.012-.154.522-.054.14-.347-.105-.266.04-.216-.276-.227.173-.232-.117-.398-.368.073-.23.205-.139.014-.189-.301-.62.374-.185-.165-.278.105-.383.335-.033-.18-.181-.14-.407-.161-.74-.424-.239-.284-.247-.054.073.267-.2.06-.328-.074.23-.461.053-.558-.018-.542.079-.381-.314-.056.117-.354-.001-.214.145-.186.071-.275-.161-.173-.305.026.198-.515.372.183.165-.098-.142-.204-.42-.043.034-.23-.433.016-.056-.213.206-.19-.17-.126.313-.318.069-.36.307.126-.01.241.124.254.253-.076.055-.18-.144-.488-.029-.422-.18-.026-.129-.265-.33-.281-.483-.169-.697.206-.391.203-.837-.09-.544-.183.079.433-.228-.029-.188-.215.171-.341-.128-.212-.375-.013-.112-.131-.107-.459-.39.018-.19-.378.194-.159.115-.549-.165-.455-.413-.167-.264-.497.416-.374.232-.516.049-.576.116-.231-.002-.372.149-.142-.253-.293-.193-.109.394-.274.084-.138-.035-.263.291.086.027-.228.221-.211.007-.464.186-.222.141.348.1-.022.016-.42.259-.043-.19-.231.116-.321.212-.123.005-.182.363-.371.224.008.412-.306.68-.194.291.013.085.274.404-.068.413.095.045-.392.38.094.204.338.108-.428.249.193-.163.207.288.363.13-.038.094-.28.14-.149.29-.037.466.112.156.157-.52.06-.083.204.206.238.239.029.252-.296.478-.016.117.221.244-.124.246-.021.2.174.058-.264.253.141.67.134.132-.194.315.171.25-.289.17.122.779-.047.09-.083.369.055.096-.307.217.027.326-.097.09-.17.492-.15.153-.095.121-.374.472-.018.116-.109-.016-.229.515-.113.197-.195.108-.313.338-.378.41-.388.013-.402.192-.384.056-.66-.12-.187-.249.123-.26-.052-.072.301-.176.036-.286-.188-.291.044-.236-.059-.244-.442-.445.243-.166-.045.045-.225-.1-.246-.223-.293-.223.087-.315-.126-.392-.015-.216-.112-.39-.739-.214-.09-.174-.205-.272-.574-.31.268-.148-.072-.057-.223-.646-.234-.401-.014-.346-.135-.373-.033-.293.211-.366-.119-.15-.282.113-.407-.035-.11-.404-.487-.62-.34-.3-.411-.073-.272-.675-.701-.172-.258-.187-.105-.151.065-.242-.232-.61-.28-.309-.643-.765-.413-.192-.42.016-.414-.147-.433-.23-.495-.02-.236-.247-.282-.538-.201-.137-.274-.343.318-.17-.471-.263-.047-.097-.139-.131-.759.03-.204.192-.148-.283-.955-.042-.703.021-.586-.033-.35-.184-.239-.446-.829-.125-.353-.444-.637-.214-.157-.182.064-.558-.698-.135-.29-.247-.189.04-.174-.393.074-.404-.221-.278.112-.657-.061-.219-.235.31-.26-.261-.035-.052-.283.198-.113.211.102.084.238.178.072-.028-.472.326.018.218-.147.338-.103.22.2.03-.312-.265-.203-.239-.064-.285.105-.263-.052.052-.248.217.024.103-.138-.102-.191-.2-.083-.465-.559.242-.176-.373-.082-.064-.164.079-.237.216-.028.381-.522.314-.135.325-.275-.14-.097.115-.34.578.257.798-.22.667-.351.446.485.117.573.24.294-.02.377.293.154.249.286.084.278.387.078.393.438 1.138-.236.936-.219-.065.162.526.37.785-.051.182-.146.209.185.354-.068.623.303.122.358.353.261.591-.083 1.226.3.502-.052.231.024.301.162.152.223.707-.084.88-.021.294.182.185-.586.536-1.999.208-.543.21.058.269-.318.24-.672.5-1.624.192-.025.151-.179.728.399-.116.18.31.121.155-.209 1.171-.392-.045-.7.183.009.186-.217.277.033.023-.269.206-.219.24-.118-.207-.35-.264-.215.002-.26-.195-.207.249-.202.156-.396.54-.156.36-.229.255-.064.693-.655 1.41-.617.027-.525.647.262.18-.013 1.058-.328.165-.078.906.134.004-.399 1.194.033.406.055.7-.092.142.878 1.087-.03.036.053 1.026-.034-.103.801.215.238-.193.334.047.182-.201.062-.018.3-.147.334-.244.899-.065.61-.123.593.11.527.17-.152.309.348.29.241.668-.008.597-.091.56.035-.01.291-.221.887-.006.297.717.12.845.087.412-.3 2.555-.816.314-.006-.056.411-.227 1.099-.225 1.229.376.092-.12.985.05.439-.07.127.655-.027.252 3.71-.217.264-.483-.031-.179-.229-.255-.023-.212.125-.186.34-.46.392-.04.208-.175.277.681.306.707.452.788.049 1.292.178.162-.053.023.32.257.699 1.1.395 1.027.202.563-.023-.11.352-.422.617-.304.661.628.583 1.235.593 1.88.44.228.084.628.395.905.208.188-.594.29-.04.431.417.87.617.864.44.477.577.601.176.477.377.22.048.348.443.018.317.314.184.223.01.145-.411.204-.299.513.12.11-.074.285.581.182-.064.192.377-.171.376.872.149.484.359.527.264 1.069.161.522.298-.312.649.303-.06.717.303 1.18.647.702.276.666.49.252.338.793.55 1.119.887 1.401-.437.758-.39 1.537-.264-.201-1.358 1.84-.267-.072-.272.02-.352.413-.769.185-.44-.016-.283.224-.287.914.363.975.423.44.487.196.148.585.323 1.095.056.269.129.436.468.504-.194.353-.226.753-.117.683.065.117-.04.184 2.015.165.681-.292 1.101.581-.075 1.172.237.187.083.743.178.525.028.323.431.247.176.298.11.359.254.769.739.327.198.845.691-.022.194-.327 1.791.066.531.358 1.587 1.115.447.139 1.058.2 2.092.806.086.119.535.141.255.013.239.16.493.039.746.445.501-.25.531.018.772-.018 2.115.023.685-.041.749.049.694-.312 1.392-3.179-.405-1.931-1.075-.562.864-.177.754.042.228-.152.302.125.1-.07.927-.033.021-.185.466.099.474.399-.111.472.048.241.785.318.513.024.185-.512.472-.006.192.379.543.015.095-.35.201.022.608-.269.342-.322.121-.432-.074-.235.042-.249 1.386.006.348-.072.73.14.257.279-.072.116.072.254-.116.37.078.495-.006-.221.476-.298.216-.302.017-.118.235-.596.83-.721.7-.261.412-.723.355-.105.205-1.001 1.257.213.675.095.149-.028.265.178.466-.076.224.202.522-.161.619-.885.35-.546.097-.573-.061-.762-.016-.657.031-.477.119-.593.026-.756.435.012.154-1.616-.03-.47-.062-.43-.197-.212-.153.117-.556.06-.637-.126-.482-.175-.323-.046-.484-.89-.059-1.957.121-.714.249-.803.163-.672.177-.242-.124-.6-.135-1.774-.516-.15.527-.304.558-.111-.055-.148.36-.091.721-.203.18-.729.436.089.086-.786 1.285-.56.18-1.216.049-.585.119-.356.016-.558-.043-.406-.202-.499-.335-1.015-.162-.157.541-.048.369.27-.047.29.175.662.145.617-.012.128.05-.014.334-.24.169-.01.871-.561-.027-.055.78-.11.702-.217.048-.774-.128-.396-.32-.28-.47-.048-.268-.28.151Z" clip-rule="evenodd"/><path id="Камінь-Каширський" fill="#C8C6C6" fill-rule="evenodd" d="m153.47 114.979.117-.46-.469-.237-.251-.223-.745-.22-.884-.398-.548-.39-.65-.553-.422-.459-.134-.257.159-.15.533-.195.436-.226.022-.166-.52-.059-.256-.149-.082-.155-.673-.359-.544.215-.729-.246-.227-.219.18-.528-.532.279-.013.229-.16.192-.225-.159-.307-.369-.06-.384.167-.274.305-.06.152-.797-.185.038-.339-.197.018-.132-.472-.117-.281.168-.499-.332-.467-.225-.275.097-.177-1.478.579-.027-.069-.36-.276-.134-.401.043-.506-.064-.324.17-.727-1.274-.14-.558-.562.286-.768-.115.53-.326.079-.272 1.028-.411 2.081-.234 1.215.281 1.115-.001-.105-.615-.41-1.26-.097-.505-.145-1.123-.152-.928-.809-.581-.455.653-.469-.225-1.18-.502-.375 1.017-.43-.18-.291.33-.129-.352-.272-.323-.148-.638-.209-.393.083-.625-.111-.464-.789-1.967-.197-.536-2.652.156-1.285.097-.541.123-.194-.207-.189-.022-.082-.186.055-.25-.068-.341-.21-.646-.203-.32-.07-.3-.151-.079-.068-.381-.462-.406-.1-.368.048-.263-.175-.083-.131-.411.095-.069-.014-.502-.348.013-.176-.323-.374-.874.178-.339.03-.24-.225-.05-.097-.213.164-.142-.02-.337-.09-.182.184-.375-.081-.248.112-.45.279-.507.042-.254.156-.303-.142-.249.01-.483.143-.361.395-.44.534-.962.025-.291.229-.545-.015-.16-1.279-.015-3.493-.084-2.359.01.041.967-.249-.025-1.054.067-.267.11-.848.005-.014.324-2.494-.078-.029 1.126-1.313-.01-2.403-.087-.424.328-.079.187-.356-.017-.166.176-.514.156-.469-.173-.359.056-.634.212-.038.276-.119.206-.342.262-1.628-.136-1.584-.154-.197-.203.052-.146.837-.634.247.076 1-.734.322-.567.132-.808-.388-.017-1.37.087-.363-.03-.41-.1-.658.05-.856-.142-.873-.354-.35-.823-.426-.283.377-.249-.395-.792-.323-.241-.247-.538-.021-.233-.154-.21-.171.028-.61-.045-.067-.106-.472-.145-.266-.248-.879-.377-.525-.317-.333.03-.304.163-.249-.174-.137-.441-.275-.257.373-1.052-.303-.395-.321-.656-.228.172-.795-.135-.671-.162-.163.08-.219-.202-.787-.186-.232.082-.238-.091-.241.102-.334-.584-.666-.141-.087-.143-.634-.39.024-.09-.415-.455-.02-.13-.413-.376.377-.726.03-.13.28-.135.173-.303-.336-.529.156-.246-.18-.336-.39-.47.104-.437-.172-.367-.008-.376-.214-.263.037-.46.428-.194-.135-.54.376-.114-.023-.303.154-.306-.157-.344.215-.121-.017-.27.073-.325.03-.65.154-.491.006-.49.185-.444.515-.294-.138-.183.107-.157.295-.018.148-.272.101-.406.341-.148-.096-.66-.159.06-.156-.299.034-.272.226-.18-.157-.12-.095-.242-.16.05-.181-.48-.008-.33-.153-.283-.03-.382.107-.157.238-.978-.177-.005.087-.45.004-.318-.141-.365.163-.252-.03-.254-.16-.332-.011-.435.276.034-.032-.257-.191-.136-.018-.364-.27-.567.041-.227.178-.12.059-.544-.256-.254-.202-.333-.101-.363-.034-.531-.32-.182-.511-.008-.57.115-.373-.098-.772.167-.795-.096-.582.153-.306.026-1.13.234-.533-.007-1.057-.075-.927.46-1.692.014-.685-.174-.194-.115-.377-.44.058-.3-.133-.309-.012-.233.282-.363.33-.2 2.046.76.523-.315.041-.64.316-.263-.447-.608-.134-.084.03-.752.392-.055.257.038.274-.288-.176-.24.323-.357-.216-.131-.409.004-.56.274-.343-.08-.124-.298.249-.105.418-.496.22-.193.45-.187.375-.553.088-.229.231-.904.503-.379.225-.45-.024-.458.12-.249-.056-.402-.248-.31-.28-.756-.262-1.032.008-.302-.152-.148.32-.586-.353-.117-.255-.29 1.08-1.108-2.162-1.65-.122-.404.57-.232.28-.644.757.016.871.457.077.553.13.284.41.438-.006.247.114.696.183.273.237-.156.208-.417.37-.392.297-2.919.55-1.344.03-.28-.204-.064-.024-.358-.223-.127-.322-.55.746-.459 1.392-.893 1.047-.646 2.555-.953 1.175.915.991-.466-.034-.7.001-.92.733-1.166.201-.435.396-.493.452-.455.016-.618.154-.24.51-1.826.279-.04-.007.318.997-.026-.028.376.09.417.402.023.42.224.936.42.312.169.121-.08.292.146.333-.369.436-.277.588-.24.242-.752.206-.205.609-.354.136-.398.514-.827.39-.207.184.287.53-.409.189-.337.183-.19.342-.002-1.286-.556.482-1.543-.064-1.046-.002-.515-.52-.106h-.846l-.427-.073-.535-.234-.098-.404.106-.312.251-.24.445.165.289-.185.481-.191.725-.063-.118-1.4 2.407-.779.254.176.515-.116.227.038.387.557.19.115.28-.018.384-.128.565-.398.217-.199-.58-.004.194-2.392.126-.132 1.491-.277 1.672-1.116 1.286-1.117.87-.728.835-.292 1.047-.873 1.067-.543.626-.278 1.4.311 1.949-.275.193-.044 1.19-.438.781-.905 1.273-.323.916-.522.459.056 1.435.286.614.56.482.255.615-.039.952-.794 1.121-.27.453.04.598.675.32.19.783.144.488.24.133.5.952.228.61.695.831.553.073.099.054.47 1.351.218.361.607.225.306.319.095.261-.017.48-.26.274-.081.511.119.272.488.097.294.823.076.077.106.352-.044 1.028.044.76.187.362.49 1.977-.084-.002.054 1.228.015.924.11.211.166.33.107.071-.184.244.074 1.348-.345.029-.549-.06-.254.298-.272.341.078.319.297.345-.06.256.177.231.443.173.024.092.192.638-.457.151-.153.792-1.945 2.261.893 1.605.653 1.625.46.074.207.316.882-.183.38.524.004 1.667 1.253.646.133.015.196 4.132.214.753.174 1.926.82-1.721 1.843-.548.267-.589.444-.323.102-.315.19-.467.65-.581 1.337-.459.532-.038.485-.319-.124-.441.516.042.278-.095.46.106.304-.13.174.107.899.077-.02.441.718.251.166-.12.16.087.245-.158.309.038.323.202.133-.241.413-.273-.201-.114.256-.282.177-.235-.01-.181.278.188.583-.093.162-.257-.062-.034.446.995.828.281.94.509.07.518.94-.361.332-.458 1.978.309.031.223.35.399-.156.714-.922.033-.186.562 1.34.314.495.258.534-.125.057-.516 1.456-.003.387-.259.326-.578.94-.315.322.182.318.192.49-.037.615-.508.553-.97 1.056.137.15.111.431-.092.266-.02.515-.075.287.019.29-.22.152-.075.221-.673.239-.126.137.024.285.165.172.025.396.176.097-.34.49-.176.53-.518.157-.266.273.109.246-.059.375.069.112-.374.705-.342.335.029.504-.126.295-.391.506-.22.66-.121.325-1.689-.459-.941 2.703-.918-.235.084-.864-3.205.22.17 2.334.978-.334-.14-.426 1.145-.657.736 2.921 1.266-.81.271.53.182 1.323.124.435.73.652.359.863-.099.596-.546.886.434.452-.016.605-.669.232-.51.177-.665.672-.76 1.984.447.869 1.024.124 1.043.73.032.337-3.827.696.449 2.559 2.942-.534.311-.334.065.32 1.324-.317-.688 1.889 1.385-.277.451-.008-.485 2.45 1.282-.136.505-.139.198.062-.003.901.04.925.041 2.173v.615l-.529.77.875 3.033.821-.25.181.564 1.125-.298.429.44.21.582.698.508.214 1.676.802-.211.161.595-.043.47.257.382-.131.103-.922-.025.369.92-.068.128.504-.132.132-.497.74-.24.724.31.423-.107-.111-.531-.527-.612.786-1.021-.137-.482 2.946-.035-.089.716-.284 1.892 2.198.934.654-.6 1.548.549 2.019-1.692.491.746.251.457.375.347-.239.152-.454.035-.018.295-.455.082-.359.558.363.492.302.034.109.198-.135.384-.115.128.085.266-.073.36-.454.445-.318.114-.014.329-.179.218.175.311.443-.037.067.074.039 1.235.081.112.264.003-.084.36.506.29.353.473.377.612.633.09.134-.145.178.215.626.173.27-.084.015.29.356.04.322.301-.259.289-.087.295.406-.011-.176.446.631.287.064-.162.327-.014.047.606-.153.263.193.198-.003.309.533-.75.281.029.023.68-.497.557.267.17.156-.12.243.087.139-.157.279.18-.057.15.644.084.41.263v.235l.241.158.118.217-.018.208.146.106.501.098.114.278.402.181-.175.194.143.14-.173.279.287.293-.122.56.193.064-.122.266-.158-.012-.244-.204.136.575.142.251.01.263.373-.2.064.382.205.325.377.114.104.385-.205.527.182.09-.218.28.172.276-.207.409.131.208-.013.309.213.085.068.183-.162.459-1.713 1.136-1.314.069-.111.04-1.783.098-.705.443-.455.987-1.796.307-.932.645-.714.467-.523-.164-.595.326-.817.282-.286-.1-.34.053-.38.196-.316-.07-.307.166-.126.23-.487.184-.186.017-.167-.205-.342.31-.14.265-.069.374.085.393-.414-.008-.075.248.361.032-.139.569.233.055.209.302.166.105-.08.177.053.222-.185.159.081.993-.128.235.213.174.045.278-.197.162.397.221.239-.094.083.307.21.184-.238.274.042.182-.257.047-.085.287-.157.221-.247.004-.043-.194-.721-.197-6.079-1.391-3.245-.775.034.495-.613.209-.466.47-.238-.136-.077-.184.074-.199-.008-.43-.2-.254-.808.013-3.666.151-.014-.065-.602-.152-1.042.775-.291-.524-2.016-.061-.018.471-.904.012.204.391-2.32.597-.545-.615-1.191.332-.023-1.27-2.3.105-.702 1.064-1.683 2.508-1.437.398-.103-.022" clip-rule="evenodd"/><path stroke="#000" stroke-linecap="round" stroke-linejoin="round" stroke-width=".2" d="m153.47 114.979.117-.46-.469-.237-.251-.223-.745-.22-.884-.398-.548-.39-.65-.553-.422-.459-.134-.257.159-.15.533-.195.436-.226.022-.166-.52-.059-.256-.149-.082-.155-.673-.359-.544.215-.729-.246-.227-.219.18-.528-.532.279-.013.229-.16.192-.225-.159-.307-.369-.06-.384.167-.274.305-.06.152-.797-.185.038-.339-.197.018-.132-.472-.117-.281.168-.499-.332-.467-.225-.275.097-.177-1.478.579-.027-.069-.36-.276-.134-.401.043-.506-.064-.324.17-.727-1.274-.14-.558-.562.286-.768-.115.53-.326.079-.272 1.028-.411 2.081-.234 1.215.281 1.115-.001-.105-.615-.41-1.26-.097-.505-.145-1.123-.152-.928-.809-.581-.455.653-.469-.225-1.18-.502-.375 1.017-.43-.18-.291.33-.129-.352-.272-.323-.148-.638-.209-.393.083-.625-.111-.464-.789-1.967-.197-.536-2.652.156-1.285.097-.541.123-.194-.207-.189-.022-.082-.186.055-.25-.068-.341-.21-.646-.203-.32-.07-.3-.151-.079-.068-.381-.462-.406-.1-.368.048-.263-.175-.083-.131-.411.095-.069-.014-.502-.348.013-.176-.323-.374-.874.178-.339.03-.24-.225-.05-.097-.213.164-.142-.02-.337-.09-.182.184-.375-.081-.248.112-.45.279-.507.042-.254.156-.303-.142-.249.01-.483.143-.361.395-.44.534-.962.025-.291.229-.545-.015-.16-1.279-.015-3.493-.084-2.359.01.041.967-.249-.025-1.054.067-.267.11-.848.005-.014.324-2.494-.078-.029 1.126-1.313-.01-2.403-.087-.424.328-.079.187-.356-.017-.166.176-.514.156-.469-.173-.359.056-.634.212-.038.276-.119.206-.342.262-1.628-.136-1.584-.154-.197-.203.052-.146.837-.634.247.076 1-.734.322-.567.132-.808-.388-.017-1.37.087-.363-.03-.41-.1-.658.05-.856-.142-.873-.354-.35-.823-.426-.283.377-.249-.395-.792-.323-.241-.247-.538-.021-.233-.154-.21-.171.028-.61-.045-.067-.106-.472-.145-.266-.248-.879-.377-.525-.317-.333.03-.304.163-.249-.174-.137-.441-.275-.257.373-1.052-.303-.395-.321-.656-.228.172-.795-.135-.671-.162-.163.08-.219-.202-.787-.186-.232.082-.238-.091-.241.102-.334-.584-.666-.141-.087-.143-.634-.39.024-.09-.415-.455-.02-.13-.413-.376.377-.726.03-.13.28-.135.173-.303-.336-.529.156-.246-.18-.336-.39-.47.104-.437-.172-.367-.008-.376-.214-.263.037-.46.428-.194-.135-.54.376-.114-.023-.303.154-.306-.157-.344.215-.121-.017-.27.073-.325.03-.65.154-.491.006-.49.185-.444.515-.294-.138-.183.107-.157.295-.018.148-.272.101-.406.341-.148-.096-.66-.159.06-.156-.299.034-.272.226-.18-.157-.12-.095-.242-.16.05-.181-.48-.008-.33-.153-.283-.03-.382.107-.157.238-.978-.177-.005.087-.45.004-.318-.141-.365.163-.252-.03-.254-.16-.332-.011-.435.276.034-.032-.257-.191-.136-.018-.364-.27-.567.041-.227.178-.12.059-.544-.256-.254-.202-.333-.101-.363-.034-.531-.32-.182-.511-.008-.57.115-.373-.098-.772.167-.795-.096-.582.153-.306.026-1.13.234-.533-.007-1.057-.075-.927.46-1.692.014-.685-.174-.194-.115-.377-.44.058-.3-.133-.309-.012-.233.282-.363.33-.2 2.046.76.523-.315.041-.64.316-.263-.447-.608-.134-.084.03-.752.392-.055.257.038.274-.288-.176-.24.323-.357-.216-.131-.409.004-.56.274-.343-.08-.124-.298.249-.105.418-.496.22-.193.45-.187.375-.553.088-.229.231-.904.503-.379.225-.45-.024-.458.12-.249-.056-.402-.248-.31-.28-.756-.262-1.032.008-.302-.152-.148.32-.586-.353-.117-.255-.29 1.08-1.108-2.162-1.65-.122-.404.57-.232.28-.644.757.016.871.457.077.553.13.284.41.438-.006.247.114.696.183.273.237-.156.208-.417.37-.392.297-2.919.55-1.344.03-.28-.204-.064-.024-.358-.223-.127-.322-.55.746-.459 1.392-.893 1.047-.646 2.555-.953 1.175.915.991-.466-.034-.7.001-.92.733-1.166.201-.435.396-.493.452-.455.016-.618.154-.24.51-1.826.279-.04-.007.318.997-.026-.028.376.09.417.402.023.42.224.936.42.312.169.121-.08.292.146.333-.369.436-.277.588-.24.242-.752.206-.205.609-.354.136-.398.514-.827.39-.207.184.287.53-.409.189-.337.183-.19.342-.002-1.286-.556.482-1.543-.064-1.046-.002-.515-.52-.106h-.846l-.427-.073-.535-.234-.098-.404.106-.312.251-.24.445.165.289-.185.481-.191.725-.063-.118-1.4 2.407-.779.254.176.515-.116.227.038.387.557.19.115.28-.018.384-.128.565-.398.217-.199-.58-.004.194-2.392.126-.132 1.491-.277 1.672-1.116 1.286-1.117.87-.728.835-.292 1.047-.873 1.067-.543.626-.278 1.4.311 1.949-.275.193-.044 1.19-.438.781-.905 1.273-.323.916-.522.459.056 1.435.286.614.56.482.255.615-.039.952-.794 1.121-.27.453.04.598.675.32.19.783.144.488.24.133.5.952.228.61.695.831.553.073.099.054.47 1.351.218.361.607.225.306.319.095.261-.017.48-.26.274-.081.511.119.272.488.097.294.823.076.077.106.352-.044 1.028.044.76.187.362.49 1.977-.084-.002.054 1.228.015.924.11.211.166.33.107.071-.184.244.074 1.348-.345.029-.549-.06-.254.298-.272.341.078.319.297.345-.06.256.177.231.443.173.024.092.192.638-.457.151-.153.792-1.945 2.261.893 1.605.653 1.625.46.074.207.316.882-.183.38.524.004 1.667 1.253.646.133.015.196 4.132.214.753.174 1.926.82-1.721 1.843-.548.267-.589.444-.323.102-.315.19-.467.65-.581 1.337-.459.532-.038.485-.319-.124-.441.516.042.278-.095.46.106.304-.13.174.107.899.077-.02.441.718.251.166-.12.16.087.245-.158.309.038.323.202.133-.241.413-.273-.201-.114.256-.282.177-.235-.01-.181.278.188.583-.093.162-.257-.062-.034.446.995.828.281.94.509.07.518.94-.361.332-.458 1.978.309.031.223.35.399-.156.714-.922.033-.186.562 1.34.314.495.258.534-.125.057-.516 1.456-.003.387-.259.326-.578.94-.315.322.182.318.192.49-.037.615-.508.553-.97 1.056.137.15.111.431-.092.266-.02.515-.075.287.019.29-.22.152-.075.221-.673.239-.126.137.024.285.165.172.025.396.176.097-.34.49-.176.53-.518.157-.266.273.109.246-.059.375.069.112-.374.705-.342.335.029.504-.126.295-.391.506-.22.66-.121.325-1.689-.459-.941 2.703-.918-.235.084-.864-3.205.22.17 2.334.978-.334-.14-.426 1.145-.657.736 2.921 1.266-.81.271.53.182 1.323.124.435.73.652.359.863-.099.596-.546.886.434.452-.016.605-.669.232-.51.177-.665.672-.76 1.984.447.869 1.024.124 1.043.73.032.337-3.827.696.449 2.559 2.942-.534.311-.334.065.32 1.324-.317-.688 1.889 1.385-.277.451-.008-.485 2.45 1.282-.136.505-.139.198.062-.003.901.04.925.041 2.173v.615l-.529.77.875 3.033.821-.25.181.564 1.125-.298.429.44.21.582.698.508.214 1.676.802-.211.161.595-.043.47.257.382-.131.103-.922-.025.369.92-.068.128.504-.132.132-.497.74-.24.724.31.423-.107-.111-.531-.527-.612.786-1.021-.137-.482 2.946-.035-.089.716-.284 1.892 2.198.934.654-.6 1.548.549 2.019-1.692.491.746.251.457.375.347-.239.152-.454.035-.018.295-.455.082-.359.558.363.492.302.034.109.198-.135.384-.115.128.085.266-.073.36-.454.445-.318.114-.014.329-.179.218.175.311.443-.037.067.074.039 1.235.081.112.264.003-.084.36.506.29.353.473.377.612.633.09.134-.145.178.215.626.173.27-.084.015.29.356.04.322.301-.259.289-.087.295.406-.011-.176.446.631.287.064-.162.327-.014.047.606-.153.263.193.198-.003.309.533-.75.281.029.023.68-.497.557.267.17.156-.12.243.087.139-.157.279.18-.057.15.644.084.41.263v.235l.241.158.118.217-.018.208.146.106.501.098.114.278.402.181-.175.194.143.14-.173.279.287.293-.122.56.193.064-.122.266-.158-.012-.244-.204.136.575.142.251.01.263.373-.2.064.382.205.325.377.114.104.385-.205.527.182.09-.218.28.172.276-.207.409.131.208-.013.309.213.085.068.183-.162.459-1.713 1.136-1.314.069-.111.04-1.783.098-.705.443-.455.987-1.796.307-.932.645-.714.467-.523-.164-.595.326-.817.282-.286-.1-.34.053-.38.196-.316-.07-.307.166-.126.23-.487.184-.186.017-.167-.205-.342.31-.14.265-.069.374.085.393-.414-.008-.075.248.361.032-.139.569.233.055.209.302.166.105-.08.177.053.222-.185.159.081.993-.128.235.213.174.045.278-.197.162.397.221.239-.094.083.307.21.184-.238.274.042.182-.257.047-.085.287-.157.221-.247.004-.043-.194-.721-.197-6.079-1.391-3.245-.775.034.495-.613.209-.466.47-.238-.136-.077-.184.074-.199-.008-.43-.2-.254-.808.013-3.666.151-.014-.065-.602-.152-1.042.775-.291-.524-2.016-.061-.018.471-.904.012.204.391-2.32.597-.545-.615-1.191.332-.023-1.27-2.3.105-.702 1.064-1.683 2.508-1.437.398-.103-.022"/><path id="Луцький" fill="#C8C6C6" fill-rule="evenodd" d="m132.757 221.64-.848.506-.872.465-1.372.69.2.659v.39l-1.944-.217.116.923-.32-.037.009.743-.531-.065.092.701.838.112.113.925-.301-.047-.845-.359-1.327-.302-.372-.005-.659-.248-.505-.491-.82-.31.049-.316-.196-.168-.132-.234.204-.032-.076-.317.219-.118-.141-.164.188-.105-.121-.233-.06-.384.052-.429.179-.04-.124-.306.054-.298.227-.012.048-.708-.245-.62-.256-.108.235-.425-.027-.202.235-.084-.058-.229-.398-.07-.824.045-.241-.216-.696-.223-.67.152-.715.4-.942-1.045-1.118-1.05-.297-.255-.501-.602-.454-.365-.226-.241-.617-.516-.718-.843-.841-.91-.747-.486-.249.832-.705.648.531.681.354 1.215-.133 1.719-.115.678-1.15-.13-.523-.107-.373-.125-.14.399-.57.004-.877-.075-.422.007-.294.192.063-.533.082-1.368-.905-.185-.814-.118-.311.627-.215.247-.107.642-.284-.221-.594-.018-.957.22-.883.131-.127-.017-1.311.139-.169.176-1.029.095-.586-.003-.353.425-.542.421-.963.136-3.037-.377-.592-.057-.81-.148-.066-.081.168-1.539-.03-.409.073-.444.316-.727.077-.279.055-.552-.534-.688-.6-.55-.104-.145-1.235-.776-.173-.144-.834-.522-.437-.48-.18-.076-.603-.104-.08-.098-.276.014-.556-.148-.365-.289.254-.887-.32-.073-.374.049-.299.242-.203.031-.543-.055-.205.051-.433-.013-.638-.128-.143-.092-.555-.069-.2-.135-.307-.028-.658-.276.026-.652-.013-.213.057-.631.082-1.402-.045-.543-.017-1.436.137-.745-1.544-.231 1.24-.975.22-.331-.016-.613-.067-.008-.003-.803-.283-.039-.127-.222-.116-.558.003-.436-.298-.728-.415.268-.35.102-.344.033-.339.183-.627-.023-.023-.666-.701.014-.084-1.59.367-.379v-.315l-.199-.291-.034-.396-.171-.333-.194-.215-.094-.239-.127-.571.022-.691-.105-.331-.6-.876.28-.15.048.268.28.47.396.32.774.128.217-.048.11-.702.055-.781.562.028.01-.871.24-.169.013-.334-.127-.05-.618.012-.662-.145-.29-.175-.27.047.048-.369.157-.541 1.015.162.499.335.406.202.558.043.357-.016.584-.119 1.215-.049.561-.18.786-1.285-.089-.086.73-.436.202-.18.092-.721.147-.36.111.054.304-.558.15-.526 1.774.516.6.135.243.124.67-.177.804-.163.715-.249 1.956-.121.89.059.046.484.175.323.126.482-.06.637-.117.555.212.154.43.197.47.062 1.616.03-.011-.155.755-.434.593-.027.478-.118.656-.032.762.017.573.061.546-.097.885-.35.161-.62-.201-.521.075-.224-.177-.466.027-.265-.095-.149-.213-.675 1.001-1.258.105-.205.723-.355.262-.412.72-.699.596-.83.118-.236.302-.017.298-.215.221-.476-.495.005-.37-.078-.254.117-.116-.073-.279.073-.14-.257.072-.73-.006-.348.249-1.386.235-.042.432.074.322-.121.269-.342-.022-.608.35-.202-.015-.095-.379-.543.006-.192.513-.471-.025-.185-.318-.514-.241-.784-.472-.048-.399.111-.098-.474.184-.466.033-.022.07-.927-.125-.099.152-.302-.042-.228.177-.754.562-.864 1.931 1.075 3.179.404.312-1.392-.049-.693.041-.749-.023-.685.019-2.115-.019-.772.25-.531-.445-.501-.039-.746-.16-.494-.013-.239-.141-.254-.119-.535-.806-.086-.2-2.092-.139-1.058-1.115-.447-.358-1.587-.066-.531.327-1.791.023-.194-.846-.691-.327-.199-.769-.738-.359-.255-.298-.109-.247-.177-.323-.431-.525-.027-.743-.179-.187-.082-1.172-.238-.581.076.292-1.101-.165-.681-.184-2.015-.117.04-.683-.065.683-1.043.048-.391-.041-.432.249-.521-.147-.078-.125-.495.059-.763.234-.562.177-.118.099-.611-.021-.187-.515-.839.039-.291-.06-.253.105-.782 3.671.14.242.248.212.538 1.059.727.221-.406-.137-.568-.189-.43.062-.516.107-.174.088-.389-.463-.883-1.041-.778-.284-.188-.133-.299-.259-.096-.034-.303-.124-.215-.473.197-.295-.386-.397-.041-.215-.133-.493.329-.092.004.039-1.075-.011-.363-.335-1.018-.41-1.032-.302-.885.279-.091 1.132.006.758.085.927-.007.211-.118.26-.012.617.094.502-.034.299.056 1.478.081.466-.641.261-.529.678-.382 2.295-.959.756-.043 1.946-.203.339-.011.255.069.646-.218.7.576.477-.17.882-.478.185.041.096-.408.644.099.403-.254 1.394-.294.333-.173 1.946-.377.169.003.712-.13.28.643 1.192.03.359-.15.276.138.287-.091.443.06.347-.503.53.146.513-.225.087-.977.132-.388.899-.157.479-.044 1.021-.303.605-.141.258.112.08-.128.324.027.233.257.146.984.276-.098.164-.448-.012-.468.454-.238.261-.315.107-.265.164.011.264-.251.224-.043.273-.722.03-.36.128-.06.124-.348.363-.059.064-.214.286.016.124-.283.407-.066.394-.165.116-.259.488-.213.051-.283.395-.404-.212-.288-.067-.339-.057-.649-.178-1.058.384-.571.181-.41-.017-.102.223-1.008.288-1.161.71.231.156-.65.785.268 1.288.41.184.005.197-1.244.972.167.633-.026.552.052-.001.307-.221.538.36.112.505.269.233.398.196.472.85-.212 1.11-.113 1.059-.487.551-.143.237-.131.504-.107.313-.276.695-.146.437-.39.264.037.141-.153.43-.214.103.022 1.436-.398 1.684-2.507.702-1.065 2.3-.105.023 1.271 1.191-.333.545.616 2.32-.598-.204-.391.904-.012.018-.47 2.016.06.291.524 1.042-.774.602.151.014.065 3.666-.15.808-.014.199.254.009.431-.075.198.078.184.238.136.466-.47.613-.208-.034-.496 3.245.775 6.079 1.391.721.197.043.194.247-.004.157-.221.085-.287.257-.046-.042-.183.238-.274-.21-.183-.084-.308-.238.094-.397-.221.197-.162-.045-.278-.213-.174.128-.234-.082-.994.186-.158-.053-.223.08-.176-.166-.106-.209-.302-.233-.055.139-.569-.361-.032.075-.247.414.007-.085-.393.069-.374.14-.265.342-.31.167.205.186-.017.487-.183.126-.231.307-.166.316.07.38-.196.34-.053.286.1.817-.282.595-.326.523.164.714-.467.932-.645 1.796-.307.455-.987.705-.443 1.783-.098.111-.039 1.314-.07 1.713-1.136.162-.459-.068-.183.779.138 3.243.466 4.741 5.154.587.676.101.293.271.159.391.577-.166.165-.323.117-.132.214-.197.118.051.288.194.561.773 1.097.059.322-.217.543-.083.491-.172.086-.55.632-1.048.072-.27.359-.326.165-.755.188-.153.218-.348.217-1.087.369-.506.801-1.407.305-.765-.012-.557-.339-1.187-.07-.903.576-.584.32-.348.598.036.285.687.809.261.237.049.232-.049.735-.063.289-.128.153-.225.03.203.46-.129.138.112.389-.24.24.097.143 1.005.323.866.212.844.281.427.038.557-.156.867.062 1.525-.688 2.955 2.043 1.517 1.071 1.514 1.049.297.234.197.938.618 2.716.256 1.253.294 1.218-1.627.134-.205.197-.574 1.722.277.193.056.222-.192.102.099.47.26 1.248-.403.07-.258.206-.624-.112-.249.141-.317.039-.422-.234-.731.104-.103-.043-.415.134-.838.425-.518.209-.465.312-.298-.088-.68-.009-.218.151-.577-.133-.58.206-.09.232-.275.104-.475-.116-1.45.603 2.554 2.536.316.38-.282 3.449-.138 1.59-.352 4.275.672.511.15-.006.321-.265.052-.156.561-.154.439.458.4.36 1.215 1.215.068.158-.044.536.139.496.091.064-.084.118-.272.071-.494.011-.13.437-.253 1.128-.026.547-.233.49-.302-.263-.454-.137-.388.088-.146-.037-.361.107-.499.047-.138-.111-.471-.045-.564.094-.445.237-.322-.318-.037-.179-.321-.221-.31.092-.35.025-.188.18-.268-.138-.075-.265.124-.144-.192-.193-.649.391-.311-.071v-.256l-.408-.12-.223.032-.212-.117-.269.144-.273-.215-.37-.134-.091.199-.308.213-.291-.055-.147-.3-.221-.028-.311.231-.257-.063-.196.129.058.371-.122 1.824-.162.408-.214.35-.281.577-.169.579-.037.739.011.464-.18.513-.027 1.16-.035.059.011.742.008.435-.051.538-.182.474-.175.281-.237.594-.276.262-.332 1.28-.083.586.181 1.045.317 1.628.013.548-.07.459.133.313-.255.637.026.186-.219.245-.248.557.017.752-.115.484-.605.671-.244.178-.463.573-.28.684.018.347-.877 1.106-.603.794-.794.999-.021.082.208.646.558.556.552.495.442.343-.103.103-.435.501-.733.922-.27-.081-.168-.223-.073-.239-.241-.196-.181-.382.044-.522-.046-.2-.25-.563-.956-1.938-.247-.462-.708-1.443-.504-.422-.561-.402-.627-.467-.57.132-.403.255-.627.097-.245.106-.388.032-.327.25-.553-.042-.386-.106-.55-.075-1.083-.022-.273.04-.159-.638.044-.418.435-.084.475-.244.321-.254-.503-.413-.587-.579-.291-.463.029-.164-.132-.398-.239-.257-.371-.12-.115-.189-.097-.436.289-.106-.101-.78-.152-.859-.089-.754-1.055.307-1.811.506-1.119.274-1.68.338-.329-.066-.245-.148-.71-.064-.465-.174-.221.134-.415.106-.156.199.083.404.004.395.108-.001v.823l.189.865-.319-.059-.172-.143-.305-.398-.399-.028-.751.033-.558.622-.441.326-.299.09.015-.37-2.153.991-.688.338-1.475.099-.836.471.061.155-1.099.436-.768.334-.521.204-.166-.407-.039-.243-.278-.369-.836.646.17.29.014.182-.18 1.266-.493-.153-.673-.013-.677-.25-.286.079-.561-.263-.65-.008-.169.076-.376-.051-.286-.314-.275.073-.238-.088-.159-.334-.284.001-.07-.235-.15-.127-.154-.402-.238-.314.103-.059-.475-.74-.277-.586-.301-.108-.156.027-.1.278-.36.229.482.289-.33.253.093.159.44.109.303.397.208.403.068 1.237-.295.227.146.3.026.454-.184.427-.203-.024-.183.2-.057.256-.141.064-.563-.044.091-.278-.096-.084-.777.343-.275.289-.185.571-.118-.533-.177-.022-.101.167.017.255.14.14-.14.232-.064.292.268.033.188.21.236-.417.257-.1-.109.587-.435.177-.03.23.336.156.49.065.441-.143.762.283-.109.234.361.001.273.239-.3.047.119.719.162-.234.127.126.08.589.112.16.322-.078.002.31.333.156.126.28.009.226.177.344-.194.304-.425-.077-.64-.041-.275-.057-.58-.104-1.091.012-1.159-.099-.041-.123.13-.435-.848.067-.374.172-.331-.014-.397.084-.452-1.072-.326-.285-.363-.545-.158-.321-.467-.195-.491-.048-.754.003.041 2.632.282.131.256.031-.025.54.106.178-.237.299.124.489.549.041-.098.78-.296 1.665 1.086-.345.486-.177.159 1.261.057.726-.54 1.698.036.219-.26.575-.121.484-.285.132-.46-.131-.385.454.166.078-.283.383-.364-.006-.097.137-.42.134-.562.09-.229.08-.521.448-1.182.022-1.086-.148.227-.482-.491-.211-.873-.284-1.29-.054-.717-.007-.793-.061-.461-.102-.247-.367.022-.23.206-.533-.971.094-.232.06-.758.046-.894.192-.368.116-1.237-.112-.15.058-.582-.331-.507-.402-.178-.05-.087 1.151.182.667.04.46-.182.861.11.251.397.311.349.134.656.356.41.137.615.768.153.318-.038.273.377.272.221.472.036.614-.023.704-.086.563-.013.745-.172.648-.134.33-.287.893-.025.68-.405-.164-.151-.252-.47-.246-.209.438-.37-.031-.725-.176-.44-.162-.547-.147-.787.178-.516-.235-.549-.391-.302-.052-.229.055.468.481.369.279.373.208 1.23.365.781.47.601.228.481.024.282-.134.07.578-.1.493.953.095.221.616.151.574-.308-.177-.217.225.018.189-.232.259-.217-.291-.089.487-.216.007-.143.171-.022.291.246.401-.084.326.13.224.331-.144.126.153.176-.229.122.205.235-.023.118-.197.431.008.008.309-.169.123.171.192-.017.242.201.174-.015.148.23.262.305-.103.129.265-.141.141.168.157-.132.331.193.154.122.405-.044.462.203.449-.241.078-.119.339.14.327.318.254.162-.075.14.198.267-.29-.026-.161.504.017.447.09.5.245.308.201.163.233-.077.279.025.229.214.044.12.318-.141.171.108.237.239-.188.154.078-.237.216.153.518-.046.4-.421.343-.036.158.263.113-.144.163-.222.026-.204.152-.103.349-.289-.107-.018.262-.307-.314-.435.234-.241-.141-.019.243-.419-.075.148-.43-.209-.114-.041-.284-.425-.324-.084-.178.208-.101-.114-.184-.036-.332-.372-.041.134-.303-.427-.038-.145.05.139.391-.304.095.043.283-.282.125-.467.353-.223.034-.513-.057-.205.158.471.593-.191.325.252.422.408.904-.513 1.036.768.472.944 1.278M83.821 200.03l.214-.146.489-.112-.054-.268-.545-.275-.238-.016.134.817Z" clip-rule="evenodd"/><path stroke="#000" stroke-linecap="round" stroke-linejoin="round" stroke-width=".2" d="m132.757 221.64-.848.506-.872.465-1.372.69.2.659v.39l-1.944-.217.116.923-.32-.037.009.743-.531-.065.092.701.838.112.113.925-.301-.047-.845-.359-1.327-.302-.372-.005-.659-.248-.505-.491-.82-.31.049-.316-.196-.168-.132-.234.204-.032-.076-.317.219-.118-.141-.164.188-.105-.121-.233-.06-.384.052-.429.179-.04-.124-.306.054-.298.227-.012.048-.708-.245-.62-.256-.108.235-.425-.027-.202.235-.084-.058-.229-.398-.07-.824.045-.241-.216-.696-.223-.67.152-.715.4-.942-1.045-1.118-1.05-.297-.255-.501-.602-.454-.365-.226-.241-.617-.516-.718-.843-.841-.91-.747-.486-.249.832-.705.648.531.681.354 1.215-.133 1.719-.115.678-1.15-.13-.523-.107-.373-.125-.14.399-.57.004-.877-.075-.422.007-.294.192.063-.533.082-1.368-.905-.185-.814-.118-.311.627-.215.247-.107.642-.284-.221-.594-.018-.957.22-.883.131-.127-.017-1.311.139-.169.176-1.029.095-.586-.003-.353.425-.542.421-.963.136-3.037-.377-.592-.057-.81-.148-.066-.081.168-1.539-.03-.409.073-.444.316-.727.077-.279.055-.552-.534-.688-.6-.55-.104-.145-1.235-.776-.173-.144-.834-.522-.437-.48-.18-.076-.603-.104-.08-.098-.276.014-.556-.148-.365-.289.254-.887-.32-.073-.374.049-.299.242-.203.031-.543-.055-.205.051-.433-.013-.638-.128-.143-.092-.555-.069-.2-.135-.307-.028-.658-.276.026-.652-.013-.213.057-.631.082-1.402-.045-.543-.017-1.436.137-.745-1.544-.231 1.24-.975.22-.331-.016-.613-.067-.008-.003-.803-.283-.039-.127-.222-.116-.558.003-.436-.298-.728-.415.268-.35.102-.344.033-.339.183-.627-.023-.023-.666-.701.014-.084-1.59.367-.379v-.315l-.199-.291-.034-.396-.171-.333-.194-.215-.094-.239-.127-.571.022-.691-.105-.331-.6-.876.28-.15.048.268.28.47.396.32.774.128.217-.048.11-.702.055-.781.562.028.01-.871.24-.169.013-.334-.127-.05-.618.012-.662-.145-.29-.175-.27.047.048-.369.157-.541 1.015.162.499.335.406.202.558.043.357-.016.584-.119 1.215-.049.561-.18.786-1.285-.089-.086.73-.436.202-.18.092-.721.147-.36.111.054.304-.558.15-.526 1.774.516.6.135.243.124.67-.177.804-.163.715-.249 1.956-.121.89.059.046.484.175.323.126.482-.06.637-.117.555.212.154.43.197.47.062 1.616.03-.011-.155.755-.434.593-.027.478-.118.656-.032.762.017.573.061.546-.097.885-.35.161-.62-.201-.521.075-.224-.177-.466.027-.265-.095-.149-.213-.675 1.001-1.258.105-.205.723-.355.262-.412.72-.699.596-.83.118-.236.302-.017.298-.215.221-.476-.495.005-.37-.078-.254.117-.116-.073-.279.073-.14-.257.072-.73-.006-.348.249-1.386.235-.042.432.074.322-.121.269-.342-.022-.608.35-.202-.015-.095-.379-.543.006-.192.513-.471-.025-.185-.318-.514-.241-.784-.472-.048-.399.111-.098-.474.184-.466.033-.022.07-.927-.125-.099.152-.302-.042-.228.177-.754.562-.864 1.931 1.075 3.179.404.312-1.392-.049-.693.041-.749-.023-.685.019-2.115-.019-.772.25-.531-.445-.501-.039-.746-.16-.494-.013-.239-.141-.254-.119-.535-.806-.086-.2-2.092-.139-1.058-1.115-.447-.358-1.587-.066-.531.327-1.791.023-.194-.846-.691-.327-.199-.769-.738-.359-.255-.298-.109-.247-.177-.323-.431-.525-.027-.743-.179-.187-.082-1.172-.238-.581.076.292-1.101-.165-.681-.184-2.015-.117.04-.683-.065.683-1.043.048-.391-.041-.432.249-.521-.147-.078-.125-.495.059-.763.234-.562.177-.118.099-.611-.021-.187-.515-.839.039-.291-.06-.253.105-.782 3.671.14.242.248.212.538 1.059.727.221-.406-.137-.568-.189-.43.062-.516.107-.174.088-.389-.463-.883-1.041-.778-.284-.188-.133-.299-.259-.096-.034-.303-.124-.215-.473.197-.295-.386-.397-.041-.215-.133-.493.329-.092.004.039-1.075-.011-.363-.335-1.018-.41-1.032-.302-.885.279-.091 1.132.006.758.085.927-.007.211-.118.26-.012.617.094.502-.034.299.056 1.478.081.466-.641.261-.529.678-.382 2.295-.959.756-.043 1.946-.203.339-.011.255.069.646-.218.7.576.477-.17.882-.478.185.041.096-.408.644.099.403-.254 1.394-.294.333-.173 1.946-.377.169.003.712-.13.28.643 1.192.03.359-.15.276.138.287-.091.443.06.347-.503.53.146.513-.225.087-.977.132-.388.899-.157.479-.044 1.021-.303.605-.141.258.112.08-.128.324.027.233.257.146.984.276-.098.164-.448-.012-.468.454-.238.261-.315.107-.265.164.011.264-.251.224-.043.273-.722.03-.36.128-.06.124-.348.363-.059.064-.214.286.016.124-.283.407-.066.394-.165.116-.259.488-.213.051-.283.395-.404-.212-.288-.067-.339-.057-.649-.178-1.058.384-.571.181-.41-.017-.102.223-1.008.288-1.161.71.231.156-.65.785.268 1.288.41.184.005.197-1.244.972.167.633-.026.552.052-.001.307-.221.538.36.112.505.269.233.398.196.472.85-.212 1.11-.113 1.059-.487.551-.143.237-.131.504-.107.313-.276.695-.146.437-.39.264.037.141-.153.43-.214.103.022 1.436-.398 1.684-2.507.702-1.065 2.3-.105.023 1.271 1.191-.333.545.616 2.32-.598-.204-.391.904-.012.018-.47 2.016.06.291.524 1.042-.774.602.151.014.065 3.666-.15.808-.014.199.254.009.431-.075.198.078.184.238.136.466-.47.613-.208-.034-.496 3.245.775 6.079 1.391.721.197.043.194.247-.004.157-.221.085-.287.257-.046-.042-.183.238-.274-.21-.183-.084-.308-.238.094-.397-.221.197-.162-.045-.278-.213-.174.128-.234-.082-.994.186-.158-.053-.223.08-.176-.166-.106-.209-.302-.233-.055.139-.569-.361-.032.075-.247.414.007-.085-.393.069-.374.14-.265.342-.31.167.205.186-.017.487-.183.126-.231.307-.166.316.07.38-.196.34-.053.286.1.817-.282.595-.326.523.164.714-.467.932-.645 1.796-.307.455-.987.705-.443 1.783-.098.111-.039 1.314-.07 1.713-1.136.162-.459-.068-.183.779.138 3.243.466 4.741 5.154.587.676.101.293.271.159.391.577-.166.165-.323.117-.132.214-.197.118.051.288.194.561.773 1.097.059.322-.217.543-.083.491-.172.086-.55.632-1.048.072-.27.359-.326.165-.755.188-.153.218-.348.217-1.087.369-.506.801-1.407.305-.765-.012-.557-.339-1.187-.07-.903.576-.584.32-.348.598.036.285.687.809.261.237.049.232-.049.735-.063.289-.128.153-.225.03.203.46-.129.138.112.389-.24.24.097.143 1.005.323.866.212.844.281.427.038.557-.156.867.062 1.525-.688 2.955 2.043 1.517 1.071 1.514 1.049.297.234.197.938.618 2.716.256 1.253.294 1.218-1.627.134-.205.197-.574 1.722.277.193.056.222-.192.102.099.47.26 1.248-.403.07-.258.206-.624-.112-.249.141-.317.039-.422-.234-.731.104-.103-.043-.415.134-.838.425-.518.209-.465.312-.298-.088-.68-.009-.218.151-.577-.133-.58.206-.09.232-.275.104-.475-.116-1.45.603 2.554 2.536.316.38-.282 3.449-.138 1.59-.352 4.275.672.511.15-.006.321-.265.052-.156.561-.154.439.458.4.36 1.215 1.215.068.158-.044.536.139.496.091.064-.084.118-.272.071-.494.011-.13.437-.253 1.128-.026.547-.233.49-.302-.263-.454-.137-.388.088-.146-.037-.361.107-.499.047-.138-.111-.471-.045-.564.094-.445.237-.322-.318-.037-.179-.321-.221-.31.092-.35.025-.188.18-.268-.138-.075-.265.124-.144-.192-.193-.649.391-.311-.071v-.256l-.408-.12-.223.032-.212-.117-.269.144-.273-.215-.37-.134-.091.199-.308.213-.291-.055-.147-.3-.221-.028-.311.231-.257-.063-.196.129.058.371-.122 1.824-.162.408-.214.35-.281.577-.169.579-.037.739.011.464-.18.513-.027 1.16-.035.059.011.742.008.435-.051.538-.182.474-.175.281-.237.594-.276.262-.332 1.28-.083.586.181 1.045.317 1.628.013.548-.07.459.133.313-.255.637.026.186-.219.245-.248.557.017.752-.115.484-.605.671-.244.178-.463.573-.28.684.018.347-.877 1.106-.603.794-.794.999-.021.082.208.646.558.556.552.495.442.343-.103.103-.435.501-.733.922-.27-.081-.168-.223-.073-.239-.241-.196-.181-.382.044-.522-.046-.2-.25-.563-.956-1.938-.247-.462-.708-1.443-.504-.422-.561-.402-.627-.467-.57.132-.403.255-.627.097-.245.106-.388.032-.327.25-.553-.042-.386-.106-.55-.075-1.083-.022-.273.04-.159-.638.044-.418.435-.084.475-.244.321-.254-.503-.413-.587-.579-.291-.463.029-.164-.132-.398-.239-.257-.371-.12-.115-.189-.097-.436.289-.106-.101-.78-.152-.859-.089-.754-1.055.307-1.811.506-1.119.274-1.68.338-.329-.066-.245-.148-.71-.064-.465-.174-.221.134-.415.106-.156.199.083.404.004.395.108-.001v.823l.189.865-.319-.059-.172-.143-.305-.398-.399-.028-.751.033-.558.622-.441.326-.299.09.015-.37-2.153.991-.688.338-1.475.099-.836.471.061.155-1.099.436-.768.334-.521.204-.166-.407-.039-.243-.278-.369-.836.646.17.29.014.182-.18 1.266-.493-.153-.673-.013-.677-.25-.286.079-.561-.263-.65-.008-.169.076-.376-.051-.286-.314-.275.073-.238-.088-.159-.334-.284.001-.07-.235-.15-.127-.154-.402-.238-.314.103-.059-.475-.74-.277-.586-.301-.108-.156.027-.1.278-.36.229.482.289-.33.253.093.159.44.109.303.397.208.403.068 1.237-.295.227.146.3.026.454-.184.427-.203-.024-.183.2-.057.256-.141.064-.563-.044.091-.278-.096-.084-.777.343-.275.289-.185.571-.118-.533-.177-.022-.101.167.017.255.14.14-.14.232-.064.292.268.033.188.21.236-.417.257-.1-.109.587-.435.177-.03.23.336.156.49.065.441-.143.762.283-.109.234.361.001.273.239-.3.047.119.719.162-.234.127.126.08.589.112.16.322-.078.002.31.333.156.126.28.009.226.177.344-.194.304-.425-.077-.64-.041-.275-.057-.58-.104-1.091.012-1.159-.099-.041-.123.13-.435-.848.067-.374.172-.331-.014-.397.084-.452-1.072-.326-.285-.363-.545-.158-.321-.467-.195-.491-.048-.754.003.041 2.632.282.131.256.031-.025.54.106.178-.237.299.124.489.549.041-.098.78-.296 1.665 1.086-.345.486-.177.159 1.261.057.726-.54 1.698.036.219-.26.575-.121.484-.285.132-.46-.131-.385.454.166.078-.283.383-.364-.006-.097.137-.42.134-.562.09-.229.08-.521.448-1.182.022-1.086-.148.227-.482-.491-.211-.873-.284-1.29-.054-.717-.007-.793-.061-.461-.102-.247-.367.022-.23.206-.533-.971.094-.232.06-.758.046-.894.192-.368.116-1.237-.112-.15.058-.582-.331-.507-.402-.178-.05-.087 1.151.182.667.04.46-.182.861.11.251.397.311.349.134.656.356.41.137.615.768.153.318-.038.273.377.272.221.472.036.614-.023.704-.086.563-.013.745-.172.648-.134.33-.287.893-.025.68-.405-.164-.151-.252-.47-.246-.209.438-.37-.031-.725-.176-.44-.162-.547-.147-.787.178-.516-.235-.549-.391-.302-.052-.229.055.468.481.369.279.373.208 1.23.365.781.47.601.228.481.024.282-.134.07.578-.1.493.953.095.221.616.151.574-.308-.177-.217.225.018.189-.232.259-.217-.291-.089.487-.216.007-.143.171-.022.291.246.401-.084.326.13.224.331-.144.126.153.176-.229.122.205.235-.023.118-.197.431.008.008.309-.169.123.171.192-.017.242.201.174-.015.148.23.262.305-.103.129.265-.141.141.168.157-.132.331.193.154.122.405-.044.462.203.449-.241.078-.119.339.14.327.318.254.162-.075.14.198.267-.29-.026-.161.504.017.447.09.5.245.308.201.163.233-.077.279.025.229.214.044.12.318-.141.171.108.237.239-.188.154.078-.237.216.153.518-.046.4-.421.343-.036.158.263.113-.144.163-.222.026-.204.152-.103.349-.289-.107-.018.262-.307-.314-.435.234-.241-.141-.019.243-.419-.075.148-.43-.209-.114-.041-.284-.425-.324-.084-.178.208-.101-.114-.184-.036-.332-.372-.041.134-.303-.427-.038-.145.05.139.391-.304.095.043.283-.282.125-.467.353-.223.034-.513-.057-.205.158.471.593-.191.325.252.422.408.904-.513 1.036.768.472.944 1.278M83.821 200.03l.214-.146.489-.112-.054-.268-.545-.275-.238-.016.134.817Z"/></svg>