<svg xmlns="http://www.w3.org/2000/svg" width="264" height="259" fill="none" viewBox="0 0 264 259"><path id="Василівський" fill="#C8C6C6" fill-rule="evenodd" d="m85.324 133.349-2.88.274-.216-1.316-3.508.516.284 1.481-3.4.506-.093-.495-2.766.314-2.349.264-.097-1.022-.17-1.817-.15-1.734-.262-2.958-.052-.356-6.81 1.002-.16-1.446-1.869.274.53-1.44-2.297-2.194-1.37 1.461-1.246.145-6.85.8.123.991-2.272.283-5.063.651-2.71.361-.484-3.685-1.797.242-2.71.408.64 4.692-2.803.304-.814-5.641-.221-1.729-.474-3.195-.386-3.143-.32-2.292 1.793-.304.15-.124.226.072.32-.051.123-.103.463.103.32-.109-.345-2.064-.258.041-.242-1.073-.077-.666-.067-.284-.912.155-.695.165-.603.052-.36.082-.577-3.071-.18-1.259.664-.083.819-.144.458-.047.49-.123.685-.088-.16-.186-.026-.32-.031-.165-.17-.109-.258-.015-.123-.15.015-.232.201-.248.077-.273.165-.134.026-.171-.026-.062h-.86l-.953.351-6.531 1.074.458 2.854-1.694.31.18 1.378-2.653.459-1.04-1.275-2.37.387-.376.522-1.684 2.147-.237-.088-.098-.175-.18-.011-.556-.361.026-.196-.098-.501-.33-2.137-.577-3.39.114-.134-.85-4.485-.984.175-.752-3.814.479-.077-.824-4.155-.103.03-.551-3.065-.515-3.03-5.069.687-2.993-1.29.994-.191.686-.099.437-.03.588-.093.844-.197.727-.227 2.364-.696.845-.31 1.035-.47.87-.32.897-.583.247-.258.299-.227 2.616-1.347.551-.067 3.307-.325.495-.016 2.436-.46 1.319-.226 1.287-.243 1.18-.155 1.504-.02 1.282-.083.443-.062.7.016.217-.16.778-.387 1.751-1.095 2.174-1.171.778-.398 1.545-.33 1.344-.32.567-.093 1.112.036.418.047.54-.052.789.088 1.262.02.602.078.86.02.48.063.257.113.814.191.989.32.675.284 1.447.521 1.767.718.273.098 1.323.392 1.824.052 1.133.025 1.18.109.983-.02 1.7.856 1.252.764.84.48 1.668.67 1.252-.015 1.478-.33 2.838-.841 1.319-.609 2.797 2.606 1.622.155 2.37.397 1.978-.268 1.808-.392 2.915-1.466 3.183-1.961 1.942-3.071 1.329-4.14.17-.768.03-.718.635-1.052.906-.429 1.597-.423 2.374.15 1.515.485 1.261 1.037.13-.057.056-.531.077-.212-.077-.186-.026-.485-.113-.418.098-.237.01-.475-.082-.201.046-.248-.129-.315.02-.857-.04-.206.128-.145.304-.108.052-.191.175-.217.113-.32h.093l.504-.63.191-.294.891-.624.02-.108.34-.284.135-.207.087-.46.294.145.159-.196.186.13.283-.114.026-.17.247-.032.515-.526.371.975.222.501.494.97.453.155.696.29.463-.006 2.699-.088.103 2.266 2.354-.093.119 2.514.026.124h1.787l1.54-.042-.942 1.631 3.78-.134 3.936-.114.098.728.406 2.679.639 4.222.5 3.07.123.76.866 5.728.35 2.194.051.247.222 1.559 1.556-.036 1.905.052 2.241.097 1.746.057.567.413-1.87 2.364-.67.883-.242.345-1.658 2.297-1.535 2.096-.629.95-2.204 3.545 1.844 2.26.51.393-.587.789-.227-.165-1.798 2.983 1.025.594-.551.924-.273.604-1.983-1.12-1.123 1.558-1.452 2.106-.927-.511-.943 1.652.649.356-.34.789-1.417 3.324 1.561.423-1.416 4.506-2.849-1.089-1.323-.516.417-1.358-2.514-1.083-.896-.367-1.221-.681-.494 1.631-.387 1.228-2.472-1.399-1.247-.774-1.298-.779-.144 3.603-2.57-.336-.582.098-.232.65-1.046 3.04-.298.945-3.554.614-.289-1.708-.958.149-.195-1.13-2.735.454.5 2.88-.552.088.154 1.089-.638.067-1.643.33-.618 3.185" clip-rule="evenodd"/><path stroke="#000" stroke-linecap="round" stroke-linejoin="round" stroke-width=".2" d="m85.324 133.349-2.88.274-.216-1.316-3.508.516.284 1.481-3.4.506-.093-.495-2.766.314-2.349.264-.097-1.022-.17-1.817-.15-1.734-.262-2.958-.052-.356-6.81 1.002-.16-1.446-1.869.274.53-1.44-2.297-2.194-1.37 1.461-1.246.145-6.85.8.123.991-2.272.283-5.063.651-2.71.361-.484-3.685-1.797.242-2.71.408.64 4.692-2.803.304-.814-5.641-.221-1.729-.474-3.195-.386-3.143-.32-2.292 1.793-.304.15-.124.226.072.32-.051.123-.103.463.103.32-.109-.345-2.064-.258.041-.242-1.073-.077-.666-.067-.284-.912.155-.695.165-.603.052-.36.082-.577-3.071-.18-1.259.664-.083.819-.144.458-.047.49-.123.685-.088-.16-.186-.026-.32-.031-.165-.17-.109-.258-.015-.123-.15.015-.232.201-.248.077-.273.165-.134.026-.171-.026-.062h-.86l-.953.351-6.531 1.074.458 2.854-1.694.31.18 1.378-2.653.459-1.04-1.275-2.37.387-.376.522-1.684 2.147-.237-.088-.098-.175-.18-.011-.556-.361.026-.196-.098-.501-.33-2.137-.577-3.39.114-.134-.85-4.485-.984.175-.752-3.814.479-.077-.824-4.155-.103.03-.551-3.065-.515-3.03-5.069.687-2.993-1.29.994-.191.686-.099.437-.03.588-.093.844-.197.727-.227 2.364-.696.845-.31 1.035-.47.87-.32.897-.583.247-.258.299-.227 2.616-1.347.551-.067 3.307-.325.495-.016 2.436-.46 1.319-.226 1.287-.243 1.18-.155 1.504-.02 1.282-.083.443-.062.7.016.217-.16.778-.387 1.751-1.095 2.174-1.171.778-.398 1.545-.33 1.344-.32.567-.093 1.112.036.418.047.54-.052.789.088 1.262.02.602.078.86.02.48.063.257.113.814.191.989.32.675.284 1.447.521 1.767.718.273.098 1.323.392 1.824.052 1.133.025 1.18.109.983-.02 1.7.856 1.252.764.84.48 1.668.67 1.252-.015 1.478-.33 2.838-.841 1.319-.609 2.797 2.606 1.622.155 2.37.397 1.978-.268 1.808-.392 2.915-1.466 3.183-1.961 1.942-3.071 1.329-4.14.17-.768.03-.718.635-1.052.906-.429 1.597-.423 2.374.15 1.515.485 1.261 1.037.13-.057.056-.531.077-.212-.077-.186-.026-.485-.113-.418.098-.237.01-.475-.082-.201.046-.248-.129-.315.02-.857-.04-.206.128-.145.304-.108.052-.191.175-.217.113-.32h.093l.504-.63.191-.294.891-.624.02-.108.34-.284.135-.207.087-.46.294.145.159-.196.186.13.283-.114.026-.17.247-.032.515-.526.371.975.222.501.494.97.453.155.696.29.463-.006 2.699-.088.103 2.266 2.354-.093.119 2.514.026.124h1.787l1.54-.042-.942 1.631 3.78-.134 3.936-.114.098.728.406 2.679.639 4.222.5 3.07.123.76.866 5.728.35 2.194.051.247.222 1.559 1.556-.036 1.905.052 2.241.097 1.746.057.567.413-1.87 2.364-.67.883-.242.345-1.658 2.297-1.535 2.096-.629.95-2.204 3.545 1.844 2.26.51.393-.587.789-.227-.165-1.798 2.983 1.025.594-.551.924-.273.604-1.983-1.12-1.123 1.558-1.452 2.106-.927-.511-.943 1.652.649.356-.34.789-1.417 3.324 1.561.423-1.416 4.506-2.849-1.089-1.323-.516.417-1.358-2.514-1.083-.896-.367-1.221-.681-.494 1.631-.387 1.228-2.472-1.399-1.247-.774-1.298-.779-.144 3.603-2.57-.336-.582.098-.232.65-1.046 3.04-.298.945-3.554.614-.289-1.708-.958.149-.195-1.13-2.735.454.5 2.88-.552.088.154 1.089-.638.067-1.643.33-.618 3.185"/><path id="Бердянський" fill="#C8C6C6" fill-rule="evenodd" d="m151.146 186.725-.5-2.694-.314-1.9-.536-3.045 1.35-.088 2.364-.16 1.89-.113-.494-2.772 2.065-.397.943-.165 2.725-.578.031-3.056-.623-.041.298-3.556 5.62-1.667-.031-1.874-.639-1.527 2.591-1.337 2.524-1.363-2.905-1.543-.603.738-3.142-1.641-.314-.114-.17.326-.149.134-.083.222.16.175-1.386.398-1.607.541-1.828.573-1.602.537.314-4.397 1.293-.01 3.358-.057.392-.454.922-1.177.582-4.485.036-.418.226-3.402-7.278 1.203.124-3.19.072-2.472.309-.119.206-.572.16-.351-.479-.331.556-.531-.427-.449-.248-.325-.674-.016-.84-.217-.34.104-.175-2.086-.881.073-.077-1.115-2.586.175-.185-2.451-1.551.108-3.204.279-.082-1.378-.288-4.078.947-.118-.201-1.765-1.025.123-.108-1.341-.077-.284-1.205-1.105-.237-2.833-.021-.341-.046-.532 1.823-.046 1.577-.052 7.494-.216 3.029-.098-.036-2.22.144-.64.757-3.122-.093-.129-.505-.351-.273-.284-.18.268-.577-1.517-.875-2.23-.139.052-.253-.65-.417-2.173.881-1.265-.33-.686 2.122-3.04 1.288.531 2.879-.165 2.014-.134 2.72-.139 3.09 1.135 1.813.692.567-.238 1.823 3.727-1.045.65.7 1.342 2.885.609.35-.114.222-.294.432-.108.278-.124.371-.026.361-.119 1.612.114-.021.284-.097.268.659.202.057-.831 3.61 1.089-.097.805.144-.005-.042.314 1.463.568 1.077.367 1.545-4.646.634.011.958.722 1.545 1.193 1.427 1.073 1.164.857.314.268-.005.279.906 3.881.237 1.038-1.076 1.594-1.834 2.772-.901 1.352.546-.015 1.947-.165 2.003-.15.763-.041 1.514-.135.072.868.144 1.429.042.552.437 4.966 3.869-.945 4.512-1.048 4.172-.98 2.555-.604-.412-4.139-.129-1.451 1.777-.175-.309-.294-.216-.377.026-.165 1.292-.067 4.512-.279 3.73-.201-.428.851.067.016 1.437.077.938-.026-.011-.222 1.788-.103.886.041.046.103.53-.134.186-.201.242.243-.077.072-.021.304.134.217.201-.021-.077.403.201.067.201.196-.006.206.696.243.113.243.186.041.103.16.108.49.237.171.18-.196.227-.109.128.31-.031.232.17.263.382-.103.216-.165.335-.124.226.299-.005.196.304.15.093.279.19.165.222-.217.196.134.113-.407.201-.202.175-.046.36.227.052.253-.129.119.052.304-.15.372.175.057.588-.47.479-.176-.011.501.155.366.134.145.154-.005.145-.279.185-.062.34.217.046.439.196.026.16.149.01.501.175-.036.371.093.216.32-.01.16.587.325.268.32-.103.289-.139.031.046.289.361.119.129.32.242.092v.264l-.088.165.381.366.469-.155.149.197.155.01.062-.181.402-.521.262.196.15.284-.119.227.103.346-.278.542.036.33.551.119.139-.165.201.103.016.387-.067.351-.109.253-.226.284-.216.087-.104.253.253.356.402-.149.139.196-.196.351-.021.34.268.135.052.165-.18.139-.129.418-.376.052-.356.144-.165-.041-.319.155-.129.165-.427.083-.216.108 2.276 1.099.86.398 4.951 2.487.355-.531 1.133-.934 1.159 1.321 1.061 1.182-2.086 2.709-.922 1.224 3.389 2.436.995.707-1.221 1.027-.387.351-1.658 1.352-.871-1.032-5.099 4.237-.901.759.839 1.011.206.32.567 1.012.731 1.234.376.609.701 1.192.077.057-.644.34-.211.191-.314.171-.953.815-.268.155-.664.072-.428-.031-1.184.108-1.237.434-.607.434-.814.521-.871.676-.268.335-.494.367-1.133 1.027-.201.16-.232.294-.35.243-.433.376-.86.579-.361.325-.407.433-.345.449-.633.625-.237.325-.407.795-.35.738-.304.526-.217.454-.669 1.538-.835 1.611-.185.547-.747 1.863-.247.836-.325.934-.128.48-.248.687-.113.093-.221.712-.047.263-.149.263-.216.733-.134.227-.083.32-.273.553-.335.882-.092.077-.196.501-.124.114-.062.335-.206.361-.298.393-.088.263-.268.366-.128.269-.649.856-.351.599-.211.248-.201.351-.582.707-.139.222-.479.557-.227.222-.437.284-.521.134-.391-.072-.438-.263-.067-.222.041-.258-.031-.47.191-.526.16-.073.118.181-.17.227.299.036.314-.18.149.02.237-.186.093-.155-.113-.139-.191.098-.211-.144.057-.532.17.145.571-.011.248-.072.134.377.309-.083.046-.278.17-.315.02-.48.284-.103.216-.403.129-.408.35-.366v-.294l.216-.222.165-.062.093.464.232.181.128-.01.145-.336.092-.836-.278-.15.093-.361.031-.986.015-1.243.057-.212.196-.17.077-.444.108.031-.335.949-.051.248.015.687-.056.593.01.429.18.397.577-.227.129-.196.201-.15.226-.346.242-.175.464-.971.221-.619.026-.356-.092-.552-.371-.568-.175-.408-.093-.351-.319-.712-1.314-1.858-.989-1.042-.288-.222-.356-.176-.072.052-.288-.207-.139.119-.083.356-.149.01.015-.397.057-.201-.211-.036.108-.315-.103-.16-1.025-.821-.325-.175-.391-.3-1.422-.738-.216-.041-.448-.289-.397-.196-.463-.155-.747-.134-.824.005-1.262.18-.495-.051-.268.026-.412-.041-.355-.104-.768-.072h-1.143l-1.36.134-.422.052-1.025.284-.526.268-.216.176-.026.154-.314.202-.417.196-.268.217-.819.387-.819.315-.835.159h-.355l-.623.083-.273.119-.907.144-1.071.362-.381.144-1.031.48-1.586.47-.309.134-.35.088-.963.325-1.566.676-.351.186-.432.17-1.082.49-.953.336-.659.351-.907.671-1.025.64-.273.124-.267.216-.145.191-.412.264-.52.495-.572.418-1.473 1.724-.531.666-.381.598-.17.166-.355.495-.17.31-.592.841-.196.356-.489.681-.376.64-.176.362-.35.593-.391.878-.139.216-.49.945-.463.81-.69 1.481-.304.527-.66 1.048-.273.65-.582.975-.386.733-.417.527-.536.965-1.447 2.333-.428.526-.386.604-.319.392-.799 1.11-.7.841-.665.971-.572.732-.396.067-.247-.263-.212-.144-.654-.243-.232-.005-.731.114.505-.475.278-.651.273-1.145.026-.449-.041-.671.005-.491-.031-.779.149.021.217.325.19.469.026.295-.232-.057-.087-.465-.16.119.015.593.16.32.206.217.52.202.49-.037.448-.191.463-.294.469-.113.175-.088.84-.914.324-.474-.015.34.227-.067.159-.253.268-.026.134-.196.062-.289.17-.181-.031-.356.257.191.387-.139.072-.191.201-.176.216-.485.427-.567.031-.269.392-.588.268-.465.129-.371.031-.485.278-.269.01-.175.16-.403.237-.268.211-.707.34-.403.268-.882.118-.517.036-.707-.33-1.223-.391-.934-.268-.475-.505-.774-.721-.965-.35-.398-.994-.903-.84-.671-.231-.093-.923-.536-.818-.181-.892.026-.741.067-1.01-.01-.402.056-1.035.372-.721.356-.901.3-.32.144-.881.299-.607-.103-.881-.289-.51-.227-.783-.232-1.293-.31-.567-.098-.726-.077-.592-.016-.876.031-.412.047-.767.155-.278.026-.686.165-.587.036-.437.113-.984.068-.268.056-.629.005-.551.047-.18-.031-.397.072-1.365.129-.612.093-.557.124-.468.186" clip-rule="evenodd"/><path stroke="#000" stroke-linecap="round" stroke-linejoin="round" stroke-width=".2" d="m151.146 186.725-.5-2.694-.314-1.9-.536-3.045 1.35-.088 2.364-.16 1.89-.113-.494-2.772 2.065-.397.943-.165 2.725-.578.031-3.056-.623-.041.298-3.556 5.62-1.667-.031-1.874-.639-1.527 2.591-1.337 2.524-1.363-2.905-1.543-.603.738-3.142-1.641-.314-.114-.17.326-.149.134-.083.222.16.175-1.386.398-1.607.541-1.828.573-1.602.537.314-4.397 1.293-.01 3.358-.057.392-.454.922-1.177.582-4.485.036-.418.226-3.402-7.278 1.203.124-3.19.072-2.472.309-.119.206-.572.16-.351-.479-.331.556-.531-.427-.449-.248-.325-.674-.016-.84-.217-.34.104-.175-2.086-.881.073-.077-1.115-2.586.175-.185-2.451-1.551.108-3.204.279-.082-1.378-.288-4.078.947-.118-.201-1.765-1.025.123-.108-1.341-.077-.284-1.205-1.105-.237-2.833-.021-.341-.046-.532 1.823-.046 1.577-.052 7.494-.216 3.029-.098-.036-2.22.144-.64.757-3.122-.093-.129-.505-.351-.273-.284-.18.268-.577-1.517-.875-2.23-.139.052-.253-.65-.417-2.173.881-1.265-.33-.686 2.122-3.04 1.288.531 2.879-.165 2.014-.134 2.72-.139 3.09 1.135 1.813.692.567-.238 1.823 3.727-1.045.65.7 1.342 2.885.609.35-.114.222-.294.432-.108.278-.124.371-.026.361-.119 1.612.114-.021.284-.097.268.659.202.057-.831 3.61 1.089-.097.805.144-.005-.042.314 1.463.568 1.077.367 1.545-4.646.634.011.958.722 1.545 1.193 1.427 1.073 1.164.857.314.268-.005.279.906 3.881.237 1.038-1.076 1.594-1.834 2.772-.901 1.352.546-.015 1.947-.165 2.003-.15.763-.041 1.514-.135.072.868.144 1.429.042.552.437 4.966 3.869-.945 4.512-1.048 4.172-.98 2.555-.604-.412-4.139-.129-1.451 1.777-.175-.309-.294-.216-.377.026-.165 1.292-.067 4.512-.279 3.73-.201-.428.851.067.016 1.437.077.938-.026-.011-.222 1.788-.103.886.041.046.103.53-.134.186-.201.242.243-.077.072-.021.304.134.217.201-.021-.077.403.201.067.201.196-.006.206.696.243.113.243.186.041.103.16.108.49.237.171.18-.196.227-.109.128.31-.031.232.17.263.382-.103.216-.165.335-.124.226.299-.005.196.304.15.093.279.19.165.222-.217.196.134.113-.407.201-.202.175-.046.36.227.052.253-.129.119.052.304-.15.372.175.057.588-.47.479-.176-.011.501.155.366.134.145.154-.005.145-.279.185-.062.34.217.046.439.196.026.16.149.01.501.175-.036.371.093.216.32-.01.16.587.325.268.32-.103.289-.139.031.046.289.361.119.129.32.242.092v.264l-.088.165.381.366.469-.155.149.197.155.01.062-.181.402-.521.262.196.15.284-.119.227.103.346-.278.542.036.33.551.119.139-.165.201.103.016.387-.067.351-.109.253-.226.284-.216.087-.104.253.253.356.402-.149.139.196-.196.351-.021.34.268.135.052.165-.18.139-.129.418-.376.052-.356.144-.165-.041-.319.155-.129.165-.427.083-.216.108 2.276 1.099.86.398 4.951 2.487.355-.531 1.133-.934 1.159 1.321 1.061 1.182-2.086 2.709-.922 1.224 3.389 2.436.995.707-1.221 1.027-.387.351-1.658 1.352-.871-1.032-5.099 4.237-.901.759.839 1.011.206.32.567 1.012.731 1.234.376.609.701 1.192.077.057-.644.34-.211.191-.314.171-.953.815-.268.155-.664.072-.428-.031-1.184.108-1.237.434-.607.434-.814.521-.871.676-.268.335-.494.367-1.133 1.027-.201.16-.232.294-.35.243-.433.376-.86.579-.361.325-.407.433-.345.449-.633.625-.237.325-.407.795-.35.738-.304.526-.217.454-.669 1.538-.835 1.611-.185.547-.747 1.863-.247.836-.325.934-.128.48-.248.687-.113.093-.221.712-.047.263-.149.263-.216.733-.134.227-.083.32-.273.553-.335.882-.092.077-.196.501-.124.114-.062.335-.206.361-.298.393-.088.263-.268.366-.128.269-.649.856-.351.599-.211.248-.201.351-.582.707-.139.222-.479.557-.227.222-.437.284-.521.134-.391-.072-.438-.263-.067-.222.041-.258-.031-.47.191-.526.16-.073.118.181-.17.227.299.036.314-.18.149.02.237-.186.093-.155-.113-.139-.191.098-.211-.144.057-.532.17.145.571-.011.248-.072.134.377.309-.083.046-.278.17-.315.02-.48.284-.103.216-.403.129-.408.35-.366v-.294l.216-.222.165-.062.093.464.232.181.128-.01.145-.336.092-.836-.278-.15.093-.361.031-.986.015-1.243.057-.212.196-.17.077-.444.108.031-.335.949-.051.248.015.687-.056.593.01.429.18.397.577-.227.129-.196.201-.15.226-.346.242-.175.464-.971.221-.619.026-.356-.092-.552-.371-.568-.175-.408-.093-.351-.319-.712-1.314-1.858-.989-1.042-.288-.222-.356-.176-.072.052-.288-.207-.139.119-.083.356-.149.01.015-.397.057-.201-.211-.036.108-.315-.103-.16-1.025-.821-.325-.175-.391-.3-1.422-.738-.216-.041-.448-.289-.397-.196-.463-.155-.747-.134-.824.005-1.262.18-.495-.051-.268.026-.412-.041-.355-.104-.768-.072h-1.143l-1.36.134-.422.052-1.025.284-.526.268-.216.176-.026.154-.314.202-.417.196-.268.217-.819.387-.819.315-.835.159h-.355l-.623.083-.273.119-.907.144-1.071.362-.381.144-1.031.48-1.586.47-.309.134-.35.088-.963.325-1.566.676-.351.186-.432.17-1.082.49-.953.336-.659.351-.907.671-1.025.64-.273.124-.267.216-.145.191-.412.264-.52.495-.572.418-1.473 1.724-.531.666-.381.598-.17.166-.355.495-.17.31-.592.841-.196.356-.489.681-.376.64-.176.362-.35.593-.391.878-.139.216-.49.945-.463.81-.69 1.481-.304.527-.66 1.048-.273.65-.582.975-.386.733-.417.527-.536.965-1.447 2.333-.428.526-.386.604-.319.392-.799 1.11-.7.841-.665.971-.572.732-.396.067-.247-.263-.212-.144-.654-.243-.232-.005-.731.114.505-.475.278-.651.273-1.145.026-.449-.041-.671.005-.491-.031-.779.149.021.217.325.19.469.026.295-.232-.057-.087-.465-.16.119.015.593.16.32.206.217.52.202.49-.037.448-.191.463-.294.469-.113.175-.088.84-.914.324-.474-.015.34.227-.067.159-.253.268-.026.134-.196.062-.289.17-.181-.031-.356.257.191.387-.139.072-.191.201-.176.216-.485.427-.567.031-.269.392-.588.268-.465.129-.371.031-.485.278-.269.01-.175.16-.403.237-.268.211-.707.34-.403.268-.882.118-.517.036-.707-.33-1.223-.391-.934-.268-.475-.505-.774-.721-.965-.35-.398-.994-.903-.84-.671-.231-.093-.923-.536-.818-.181-.892.026-.741.067-1.01-.01-.402.056-1.035.372-.721.356-.901.3-.32.144-.881.299-.607-.103-.881-.289-.51-.227-.783-.232-1.293-.31-.567-.098-.726-.077-.592-.016-.876.031-.412.047-.767.155-.278.026-.686.165-.587.036-.437.113-.984.068-.268.056-.629.005-.551.047-.18-.031-.397.072-1.365.129-.612.093-.557.124-.468.186"/><path id="Мелітопольський" fill="#C8C6C6" d="m102.037 120.113 1.246.774 2.473 1.399.387-1.229.494-1.631 1.22.682.897.366 2.514 1.084-.418 1.358 1.324.515-.562 1.312 2.56.965 1.623.681 1.628.702-1.571 3.21.045.104-.05.66.329.17.335.289-.016.13.453.149.495.32.49.144.133-.304 2.813.289-.072.217 2.214.279.531-.31.35-.258.762-.656 1.401.217.985 1.172.381.485 1.215 1.445 1.473 1.791-.263-.01.367 1.801.118.65.329-.005.268-.088.144.047.773 7.101 2.766-.355-.077-.682 3.467-.424.175.377 1.931-.257 1.998-.258.027-.027 3.992-.52.293 1.775 2.071-.284-.222-1.76 3.271-.465.067-1.899-.737-.314.681-1.75-.233-3.149 2.586-.176.077 1.116.881-.073.175 2.085.34-.102.84.217.674.014.248.325.427.45-.555.531.478.331-.159.351-.206.573-.31.118-.072 2.473-.123 3.189 7.277-1.203-.226 3.401-.036.418-.582 4.486-.922 1.176-.392.454-3.358.057-1.292.011-.315 4.397 1.602-.537 1.829-.572 1.606-.542 1.386-.398-.159-.175.082-.222.149-.135.17-.325.315.114 3.141 1.641.603-.738 2.905 1.544-2.523 1.362-2.592 1.337.64 1.527.03 1.874-5.619 1.667-.299 3.556.623.042-.031 3.055-2.725.578-.942.165-2.066.397.494 2.772-1.889.114-2.364.159-1.35.088.535 3.045.315 1.899.5 2.695-.614.253-.097-.068-.593.223-.886.423-.324.067-.376.278-.351.171-.324.232-.206.083-.346-.077-.313.154-.557.418-.643.568-.367.403-.741.691-.891.547-.293.114-1.155.701-.752.377-1.318.542-.206.119-1.489.64-.504.253-1.129.599-.608.392-.278.227-.53.3-.118.009-.011-.009-.201.159-.54.614-.099.331-.313.397-.495.413-.325.207-.453.515-1.175 1.698-.844 1.105-1.174 1.394-.84 1.027-.324.335-.242.171-.737.727-.412.371-.258.28-.715.702-.603.495-.865.754-.629.52-1.422 1.028-.942.51-.551.269-.191.149-.361.037-.793.196-1.06.511-.418.284-.546.495-.443.259-.588.253-.262.025-.376.145-.402.211-.824.134-1.53.476-.277.154-.779.537-.278.247-.314.352-.345.288v.057l-.82 1.001-.633.887-.407.325-.154.274-.371.392-.16.28-.458.526-.093.17-.654.914-.067.216-.217.181-.545.666-.114.289-.34.408-.201.397-.134.145-.912 1.155-.283.393-.478.842-.804 1.068-.464.727-.515 1.079-.124.166-.586 1.037-.34.567-.516.774-.711 1.249-.494.527-.798.996-.047.176-.216.319-.66 1.131-.437.934-.408.758-.05-.009-3.37 5.489.02.088-.3.681-.417.81-.046.052-.798 1.822-.541 1.048-.505.836-.577 1.052-.995 1.585-.206.15-.525.738-.2.181-.201.309-.248.279-.437.356-.387.366-1.308 1.095-.793.475-.068.129-.319.144-.38.284-2.2 1.078-.618.233-1.087.217-.969.314-.216.114-.262.005-.392.119-.623.444-1.02.562-.88.429-1.36.552-.305.16-1.159.336-.767.304-.335.078-.417-.063.247-.149.212-.263.252-.465-.01-.531.057-.336.468-.893-.056-.268-.3-.3.196-.325.716-.464.536-.284.288-.233.19-.216.475-.744.443-.32.376-.051.258-.232.092-.352-.108-.542-.036-.578.083-.335-.145-.289.412-.113.032-.155.442-.243.505-.083.258.005.489-.108.299-.154.555-.186.372.051.087-.072.598-.031.35-.155.706-.098.757-.042.448-.072.706-.181.329-.045.289-.124 1.52-.373.344-.247.315-.108.69-.393.16-.139.448-.258.463-.16.304-.211 1.097-.476.242-.129.793-.262.82-.352.67-.355.112-.093.18-.393.29-.454.06-.32.295-.64.031-.284-.228-.8.109-.655-.005-.444.201-.155.047-.164-4.81-4.536-1.03-.939-2.256-2.111-2.215-2.086-.03.032-.006-.046-2.57.341-.505-3.882-.72-5.394.87-.118-.459-.46 1.02.093-.407-.181-1.153-10.193-.202-2.198-2.78.351-.053-.006-1.998-1.016-3.235-1.657-.541-.299-.392.061-.133-1.15-2.75.345-1.783.258-.262.027-.439-3.608.835-.114-.36-3.35-7.33 1.1-4.029.608-.643-4.05-2.158.345-.866-4.769 3.683-.898-.88-6.947-5.29.723-.237-1.744-4.1.5-.619-4.541 3.045-.393-.217-1.595 6.47-.898-.036-.268v-.914l1.257-.036-.047-2.88 1.499-.046-.742-5.131.289-.072 4.692-.614-.283-.609-.742-6.069-4.322.351-.556-3.779-.9-6.368.204-.036-4.398.655-.401-2.906-.985.14-1.638.206-.875.268-1.489.176-.34-2.565-1.71.258-.572-4.279-2.116.279-.752-5.625-.51-3.897.062-.135-.068-.49-2.797.13-.242-1.668 2.803-.304-.639-4.691 2.71-.408 1.797-.243.483 3.685 2.71-.361 5.064-.651 2.271-.283-.124-.991 6.851-.8 1.246-.144 1.37-1.461 2.298 2.193-.53 1.44 1.869-.273.16 1.444 6.81-1.001.05.357.263 2.957.15 1.734.17 1.817.098 1.022 2.349-.264 2.765-.314.093.495 3.4-.506-.284-1.481 3.508-.516.217 1.316 2.879-.274.618-3.184 1.644-.331.638-.066-.155-1.09.552-.087-.5-2.88 2.735-.454.195 1.13.958-.149.29 1.708 3.553-.615.299-.944 1.046-3.04.231-.65.582-.098 2.571.335.144-3.603 1.298.78Z"/><path fill="#000" d="m102.037 120.113.053-.085-.001-.001-.052.086Zm1.246.774-.053.085.004.002.049-.087Zm2.473 1.399-.049.087a.1.1 0 0 0 .144-.057l-.095-.03Zm.387-1.229.095.03v-.001l-.095-.029Zm.494-1.631.048-.087a.096.096 0 0 0-.086-.005.098.098 0 0 0-.058.063l.096.029Zm1.22.682-.049.088.012.004.037-.092Zm.897.366.04-.092h-.002l-.038.092Zm2.514 1.084.095.03a.1.1 0 0 0-.056-.122l-.039.092Zm-.418 1.358-.096-.03a.1.1 0 0 0 .059.123l.037-.093Zm1.324.515.092.04a.103.103 0 0 0 0-.079.1.1 0 0 0-.056-.054l-.036.093Zm-.562 1.312-.092-.04a.108.108 0 0 0 0 .079.1.1 0 0 0 .057.054l.035-.093Zm2.56.965.039-.093-.004-.001-.035.094Zm1.623.681.04-.092h-.001l-.039.092Zm1.628.702.09.044a.1.1 0 0 0-.051-.136l-.039.092Zm-1.571 3.21-.09-.044a.101.101 0 0 0-.002.085l.092-.041Zm.045.104.1.007a.1.1 0 0 0-.008-.048l-.092.041Zm-.05.66-.1-.008a.101.101 0 0 0 .054.097l.046-.089Zm.329.17.065-.076a.127.127 0 0 0-.019-.013l-.046.089Zm.335.289.099.012a.101.101 0 0 0-.034-.088l-.065.076Zm-.016.13-.099-.012a.1.1 0 0 0 .068.107l.031-.095Zm.453.149.054-.084a.15.15 0 0 0-.022-.011l-.032.095Zm.495.32-.054.084a.085.085 0 0 0 .026.011l.028-.095Zm.49.144-.029.096a.1.1 0 0 0 .12-.056l-.091-.04Zm.133-.304.011-.099a.098.098 0 0 0-.102.059l.091.04Zm2.813.289.095.032a.104.104 0 0 0-.011-.086.103.103 0 0 0-.074-.045l-.01.099Zm-.072.217-.095-.031a.099.099 0 0 0 .082.13l.013-.099Zm2.214.279-.012.099a.099.099 0 0 0 .063-.013l-.051-.086Zm.531-.31.05.087.009-.006-.059-.081Zm.35-.258.06.081.006-.005-.066-.076Zm.762-.656.015-.099a.1.1 0 0 0-.08.023l.065.076Zm1.401.217.077-.065a.104.104 0 0 0-.061-.034l-.016.099Zm.985 1.172.079-.062-.003-.003-.076.065Zm.381.485-.079.062.002.002.077-.064Zm1.215 1.445.078-.063-.001-.001-.077.064Zm1.473 1.791-.004.1a.1.1 0 0 0 .094-.055.101.101 0 0 0-.013-.108l-.077.063Zm-.263-.01.005-.1a.097.097 0 0 0-.081.035.098.098 0 0 0-.022.084l.098-.019Zm.367 1.801.098-.018v-.002l-.098.02Zm.118.65-.099.018a.1.1 0 0 0 .1.082l-.001-.1Zm.329-.005.001.1c.01 0 .02-.002.03-.005l-.031-.095Zm.268-.088.032-.095a.097.097 0 0 0-.063 0l.031.095Zm.144.047.099-.011a.1.1 0 0 0-.068-.084l-.031.095Zm.773 7.101-.099.011a.098.098 0 0 0 .038.068.1.1 0 0 0 .074.021l-.013-.1Zm2.766-.355.013.099a.099.099 0 0 0 .086-.11l-.099.011Zm-.077-.682-.012-.099a.1.1 0 0 0-.087.111l.099-.012Zm3.467-.424.09-.042a.1.1 0 0 0-.102-.057l.012.099Zm.175.377-.091.042a.1.1 0 0 0 .104.058l-.013-.1Zm1.931-.257-.013-.1.013.1Zm1.998-.258.013.099a.1.1 0 0 0 .058-.029l-.071-.07Zm.027-.027-.013-.099a.098.098 0 0 0-.058.029l.071.07Zm3.992-.52.098-.016a.099.099 0 0 0-.111-.083l.013.099Zm.293 1.775-.099.017a.1.1 0 0 0 .112.082l-.013-.099Zm2.071-.284.014.099a.099.099 0 0 0 .085-.111l-.099.012Zm-.222-1.76-.014-.099a.1.1 0 0 0-.085.112l.099-.013Zm3.271-.465.014.099a.1.1 0 0 0 .086-.095l-.1-.004Zm.067-1.899.1.004a.098.098 0 0 0-.061-.096l-.039.092Zm-.737-.314-.093-.037a.1.1 0 0 0 .054.129l.039-.092Zm.681-1.75.093.036a.11.11 0 0 0 .006-.044l-.099.008Zm-.233-3.149-.007-.1a.1.1 0 0 0-.068.035.102.102 0 0 0-.025.073l.1-.008Zm2.586-.176.1-.006a.1.1 0 0 0-.107-.093l.007.099Zm.077 1.116-.099.007a.096.096 0 0 0 .034.068c.02.018.047.026.073.024l-.008-.099Zm.881-.073.1-.008a.1.1 0 0 0-.108-.091l.008.099Zm.175 2.085-.1.009c.003.03.019.057.044.074a.099.099 0 0 0 .085.013l-.029-.096Zm.34-.102.025-.097a.099.099 0 0 0-.054.001l.029.096Zm.84.217-.025.096.022.004.003-.1Zm.674.014.08-.06a.099.099 0 0 0-.077-.04l-.003.1Zm.248.325-.081.061.008.008.073-.069Zm.427.45.069.072a.1.1 0 0 0 .004-.141l-.073.069Zm-.555.531-.07-.072a.102.102 0 0 0-.03.08c.002.03.018.057.043.074l.057-.082Zm.478.331.091.041a.099.099 0 0 0-.034-.123l-.057.082Zm-.159.351-.091-.042-.003.008.094.034Zm-.206.573.036.093a.1.1 0 0 0 .058-.059l-.094-.034Zm-.31.118-.035-.093a.1.1 0 0 0-.065.09l.1.003Zm-.072 2.473.1.003-.1-.003Zm-.123 3.189-.1-.004a.1.1 0 0 0 .034.079c.022.02.053.029.082.024l-.016-.099Zm7.277-1.203.1.007a.1.1 0 0 0-.116-.106l.016.099Zm-.226 3.401.099.009.001-.002-.1-.007Zm-.036.418.099.013v-.004l-.099-.009Zm-.582 4.486.078.061a.108.108 0 0 0 .021-.049l-.099-.012Zm-.922 1.176.076.066.002-.004-.078-.062Zm-.392.454.002.1a.101.101 0 0 0 .074-.034l-.076-.066Zm-3.358.057.001.1-.001-.1Zm-1.292.011-.001-.1a.1.1 0 0 0-.099.093l.1.007Zm-.315 4.397-.099-.007a.098.098 0 0 0 .038.086.097.097 0 0 0 .093.016l-.032-.095Zm1.602-.537-.03-.095h-.002l.032.095Zm1.829-.572.03.095h.002l-.032-.095Zm1.606-.542-.027-.096-.005.001.032.095Zm1.386-.398.028.097a.1.1 0 0 0 .046-.164l-.074.067Zm-.159-.175-.094-.035a.1.1 0 0 0 .02.102l.074-.067Zm.082-.222-.067-.074a.105.105 0 0 0-.027.039l.094.035Zm.149-.135.067.075a.097.097 0 0 0 .022-.028l-.089-.047Zm.17-.325.034-.094a.099.099 0 0 0-.122.048l.088.046Zm.315.114.046-.089-.012-.005-.034.094Zm3.141 1.641-.046.089a.1.1 0 0 0 .124-.026l-.078-.063Zm.603-.738.047-.089a.102.102 0 0 0-.125.025l.078.064Zm2.905 1.544.048.088a.102.102 0 0 0 .052-.089.1.1 0 0 0-.053-.088l-.047.089Zm-2.523 1.362.046.089.001-.001-.047-.088Zm-2.592 1.337-.046-.089c-.046.024-.066.079-.046.127l.092-.038Zm.64 1.527.1-.001a.111.111 0 0 0-.008-.037l-.092.038Zm.03 1.874.028.096a.1.1 0 0 0 .072-.097l-.1.001Zm-5.619 1.667-.029-.096a.102.102 0 0 0-.071.088l.1.008Zm-.299 3.556-.1-.009a.103.103 0 0 0 .024.074c.018.02.042.033.069.035l.007-.1Zm.623.042.1.001a.1.1 0 0 0-.093-.101l-.007.1Zm-.031 3.055.02.097a.1.1 0 0 0 .08-.096l-.1-.001Zm-2.725.578.017.098.004-.001-.021-.097Zm-.942.165-.018-.099-.001.001.019.098Zm-2.066.397-.019-.098a.1.1 0 0 0-.079.116l.098-.018Zm.494 2.772.006.099a.099.099 0 0 0 .093-.117l-.099.018Zm-1.889.114-.006-.1h-.001l.007.1Zm-2.364.159.006.1-.006-.1Zm-1.35.088-.007-.1a.103.103 0 0 0-.072.038.102.102 0 0 0-.02.079l.099-.017Zm.535 3.045.099-.016v-.001l-.099.017Zm.315 1.899-.099.017v.002l.099-.019Zm.5 2.695.038.092a.101.101 0 0 0 .06-.111l-.098.019Zm-.614.253-.057.082a.1.1 0 0 0 .095.01l-.038-.092Zm-.097-.068.056-.082a.097.097 0 0 0-.092-.011l.036.093Zm-.593.223-.035-.094-.008.004.043.09Zm-.886.423.02.098a.155.155 0 0 0 .023-.008l-.043-.09Zm-.324.067-.021-.098a.099.099 0 0 0-.039.018l.06.08Zm-.376.278.044.09.015-.009-.059-.081Zm-.351.171-.044-.09-.014.009.058.081Zm-.324.232.037.093a.072.072 0 0 0 .021-.012l-.058-.081Zm-.206.083-.022.097c.02.005.041.003.059-.004l-.037-.093Zm-.346-.077.022-.098a.101.101 0 0 0-.066.008l.044.09Zm-.313.154-.044-.09a.086.086 0 0 0-.016.01l.06.08Zm-.557.418-.06-.08-.006.005.066.075Zm-.643.568-.067-.075-.007.008.074.067Zm-.367.403.069.073.005-.006-.074-.067Zm-.741.691.052.085a.048.048 0 0 0 .016-.012l-.068-.073Zm-.891.547.036.093a.12.12 0 0 0 .016-.008l-.052-.085Zm-.293.114-.037-.093a.11.11 0 0 0-.015.008l.052.085Zm-1.155.701.045.09.007-.004-.052-.086Zm-.752.377.039.093.006-.003-.045-.09Zm-1.318.542-.038-.093-.012.007.05.086Zm-.206.119.04.093.01-.006-.05-.087Zm-1.489.64-.04-.092-.005.003.045.089Zm-.504.253-.045-.089-.002.001.047.088Zm-1.129.599-.047-.089-.007.005.054.084Zm-.608.392-.054-.084-.009.007.063.077Zm-.278.227.049.087.014-.01-.063-.077Zm-.53.3.008.099a.093.093 0 0 0 .041-.012l-.049-.087Zm-.118.009-.068.074a.101.101 0 0 0 .076.026l-.008-.1Zm-.011-.009.067-.074a.1.1 0 0 0-.129-.005l.062.079Zm-.201.159-.062-.079a.08.08 0 0 0-.013.013l.075.066Zm-.54.614-.075-.066a.098.098 0 0 0-.021.037l.096.029Zm-.099.331.079.062a.129.129 0 0 0 .017-.033l-.096-.029Zm-.313.397.064.077a.067.067 0 0 0 .014-.015l-.078-.062Zm-.495.413.054.085.01-.009-.064-.076Zm-.325.207-.053-.085a.1.1 0 0 0-.022.019l.075.066Zm-.453.515-.075-.066-.007.009.082.057Zm-1.175 1.698.08.061.003-.004-.083-.057Zm-.844 1.105.076.064.003-.003-.079-.061Zm-1.174 1.394-.077-.065-.001.001.078.064Zm-.84 1.027.072.07.005-.007-.077-.063Zm-.324.335.057.082a.093.093 0 0 0 .015-.013l-.072-.069Zm-.242.171-.058-.082a.069.069 0 0 0-.013.011l.071.071Zm-.737.727.067.075.004-.004-.071-.071Zm-.412.371-.067-.074-.006.007.073.067Zm-.258.28.07.071.004-.003-.074-.068Zm-.715.702.063.077.007-.006-.07-.071Zm-.603.495-.064-.077-.002.002.066.075Zm-.865.754.064.077.001-.002-.065-.075Zm-.629.52.059.082.005-.005-.064-.077Zm-1.422 1.028.048.088.011-.007-.059-.081Zm-.942.51.043.09.004-.002-.047-.088Zm-.551.269-.044-.09a.174.174 0 0 0-.018.011l.062.079Zm-.191.149.01.1a.1.1 0 0 0 .052-.021l-.062-.079Zm-.361.037-.01-.1-.014.002.024.098Zm-.793.196-.024-.097c-.007.001-.013.004-.019.007l.043.09Zm-1.06.511-.044-.091-.013.008.057.083Zm-.418.284-.057-.084-.011.01.068.074Zm-.546.495.05.086a.066.066 0 0 0 .017-.012l-.067-.074Zm-.443.259.04.092.011-.006-.051-.086Zm-.588.253.01.099a.084.084 0 0 0 .03-.008l-.04-.091Zm-.262.025-.01-.1a.077.077 0 0 0-.026.007l.036.093Zm-.376.145-.036-.094-.011.005.047.089Zm-.402.211.016.099a.112.112 0 0 0 .031-.01l-.047-.089Zm-.824.134-.016-.099-.014.004.03.095Zm-1.53.476-.03-.096a.154.154 0 0 0-.019.008l.049.088Zm-.277.154-.049-.088-.008.006.057.082Zm-.779.537-.057-.083-.009.008.066.075Zm-.278.247-.067-.075-.008.009.075.066Zm-.314.352.064.077a.057.057 0 0 0 .011-.011l-.075-.066Zm-.345.288-.064-.077a.1.1 0 0 0-.036.077h.1Zm0 .057.077.063a.098.098 0 0 0 .023-.063h-.1Zm-.82 1.001-.077-.064-.004.005.081.059Zm-.633.887.062.078a.073.073 0 0 0 .019-.02l-.081-.058Zm-.407.325-.062-.078a.099.099 0 0 0-.025.029l.087.049Zm-.154.274.073.069a.143.143 0 0 0 .014-.02l-.087-.049Zm-.371.392-.073-.068a.094.094 0 0 0-.014.019l.087.049Zm-.16.28.075.065a.222.222 0 0 0 .012-.016l-.087-.049Zm-.458.526-.076-.066-.012.018.088.048Zm-.093.17.082.059.006-.011-.088-.048Zm-.654.914-.082-.058a.097.097 0 0 0-.014.029l.096.029Zm-.067.216.064.077a.105.105 0 0 0 .032-.048l-.096-.029Zm-.217.181-.064-.077-.013.013.077.064Zm-.545.666-.078-.064a.12.12 0 0 0-.016.027l.094.037Zm-.114.289.077.064a.088.088 0 0 0 .016-.028l-.093-.036Zm-.34.408-.076-.064a.127.127 0 0 0-.013.019l.089.045Zm-.201.397.074.068a.134.134 0 0 0 .016-.023l-.09-.045Zm-.134.145-.073-.068-.005.006.078.062Zm-.912 1.155-.078-.062-.003.004.081.058Zm-.283.393-.081-.059-.006.009.087.05Zm-.478.842.08.06.007-.011-.087-.049Zm-.804 1.068-.08-.06-.004.006.084.054Zm-.464.727-.085-.054-.005.011.09.043Zm-.515 1.079.081.059.01-.016-.091-.043Zm-.124.166-.08-.061-.007.011.087.05Zm-.586 1.037.085.051.002-.002-.087-.049Zm-.34.567.083.056.002-.005-.085-.051Zm-.516.774-.083-.055-.004.006.087.049Zm-.711 1.249.073.069.014-.019-.087-.05Zm-.494.527-.073-.069-.005.006.078.063Zm-.798.996-.078-.063a.106.106 0 0 0-.019.037l.097.026Zm-.047.176.083.056c.006-.01.011-.02.014-.031l-.097-.025Zm-.216.319-.083-.056-.003.006.086.05Zm-.66 1.131-.087-.051-.003.008.09.043Zm-.437.934.088.047.002-.005-.09-.042Zm-.408.758-.018.098a.1.1 0 0 0 .107-.05l-.089-.048Zm-.05-.009.019-.099a.1.1 0 0 0-.105.046l.086.053Zm-3.37 5.489-.086-.053a.101.101 0 0 0-.012.074l.098-.021Zm.02.088.09.04a.1.1 0 0 0 .007-.062l-.098.022Zm-.3.681.09.046.002-.006-.092-.04Zm-.417.81.075.067a.103.103 0 0 0 .014-.021l-.089-.046Zm-.046.052-.075-.067a.098.098 0 0 0-.017.027l.092.04Zm-.798 1.822.089.046.002-.006-.091-.04Zm-.541 1.048.085.052.004-.006-.09-.046Zm-.505.836-.086-.052-.002.004.088.048Zm-.577 1.052.084.054.003-.005-.087-.049Zm-.995 1.585.06.081a.101.101 0 0 0 .025-.027l-.085-.054Zm-.206.15-.058-.081a.09.09 0 0 0-.023.023l.081.058Zm-.525.738.067.074a.105.105 0 0 0 .014-.016l-.081-.058Zm-.2.181-.067-.074a.083.083 0 0 0-.017.019l.084.055Zm-.201.309.074.067a.19.19 0 0 0 .01-.012l-.084-.055Zm-.248.279.064.077a.07.07 0 0 0 .011-.011l-.075-.066Zm-.437.356-.063-.078-.006.005.069.073Zm-.387.366.065.077.004-.004-.069-.073Zm-1.308 1.095.051.086a.284.284 0 0 0 .013-.009l-.064-.077Zm-.793.475-.052-.086a.099.099 0 0 0-.037.039l.089.047Zm-.068.129.042.091a.103.103 0 0 0 .047-.045l-.089-.046Zm-.319.144-.041-.091a.123.123 0 0 0-.019.011l.06.08Zm-.38.284.043.09a.1.1 0 0 0 .016-.01l-.06-.08Zm-2.2 1.078.035.094.009-.004-.044-.09Zm-.618.233.02.098a.088.088 0 0 0 .015-.005l-.035-.093Zm-1.087.217-.02-.099-.011.003.03.096Zm-.969.314-.03-.095a.094.094 0 0 0-.017.007l.047.088Zm-.216.114.002.1a.1.1 0 0 0 .045-.011l-.047-.089Zm-.262.005-.002-.1a.086.086 0 0 0-.027.005l.029.095Zm-.392.119-.03-.095a.103.103 0 0 0-.028.014l.058.081Zm-.623.444.049.088.009-.007-.058-.081Zm-1.02.562.044.09.005-.002-.049-.088Zm-.88.429.037.093.006-.003-.043-.09Zm-1.36.552-.038-.093-.01.004.047.089Zm-.305.16.028.096a.125.125 0 0 0 .02-.008l-.047-.088Zm-1.159.336-.028-.097-.009.004.037.093Zm-.767.304.022.098a.078.078 0 0 0 .015-.005l-.037-.093Zm-.335.078-.015.098a.093.093 0 0 0 .037-.001l-.022-.097Zm-.417-.063-.052-.085a.1.1 0 0 0 .037.184l.015-.099Zm.247-.149.052.085a.085.085 0 0 0 .026-.023l-.078-.062Zm.212-.263.078.063a.146.146 0 0 0 .01-.015l-.088-.048Zm.252-.465.088.048a.099.099 0 0 0 .012-.05l-.1.002Zm-.01-.531-.099-.017a.101.101 0 0 0-.001.019l.1-.002Zm.057-.336-.089-.047a.114.114 0 0 0-.01.03l.099.017Zm.468-.893.089.047a.1.1 0 0 0 .01-.067l-.099.02Zm-.056-.268.098-.021a.101.101 0 0 0-.027-.05l-.071.071Zm-.3-.3-.085-.051a.1.1 0 0 0 .015.122l.07-.071Zm.196-.325-.054-.084a.097.097 0 0 0-.031.032l.085.052Zm.716-.464-.047-.089-.007.005.054.084Zm.536-.284.047.088a.102.102 0 0 0 .016-.01l-.063-.078Zm.288-.233.063.078a.052.052 0 0 0 .012-.012l-.075-.066Zm.19-.216.076.066a.08.08 0 0 0 .009-.013l-.084-.053Zm.475-.744-.058-.081a.108.108 0 0 0-.026.028l.084.053Zm.443-.32-.014-.099a.094.094 0 0 0-.045.018l.059.081Zm.376-.051.013.099a.097.097 0 0 0 .054-.024l-.067-.075Zm.258-.232.066.074a.1.1 0 0 0 .03-.049l-.096-.025Zm.092-.352.097.026a.1.1 0 0 0 .001-.045l-.098.019Zm-.108-.542-.1.007.002.013.098-.02Zm-.036-.578-.097-.024a.102.102 0 0 0-.003.03l.1-.006Zm.083-.335.097.024a.098.098 0 0 0-.008-.068l-.09.044Zm-.145-.289-.026-.096a.1.1 0 0 0-.063.141l.09-.045Zm.412-.113.027.096a.099.099 0 0 0 .071-.076l-.098-.02Zm.032-.155-.049-.088a.1.1 0 0 0-.05.068l.099.02Zm.442-.243-.016-.098a.091.091 0 0 0-.032.011l.048.087Zm.505-.083.002-.1a.11.11 0 0 0-.018.002l.016.098Zm.258.005-.002.1c.008 0 .016 0 .023-.002l-.021-.098Zm.489-.108.022.098a.106.106 0 0 0 .024-.009l-.046-.089Zm.299-.154-.032-.095a.042.042 0 0 0-.014.006l.046.089Zm.555-.186.014-.099a.099.099 0 0 0-.045.004l.031.095Zm.372.051-.014.099a.098.098 0 0 0 .077-.022l-.063-.077Zm.087-.072-.005-.1a.103.103 0 0 0-.058.022l.063.078Zm.598-.031.005.1a.088.088 0 0 0 .036-.008l-.041-.092Zm.35-.155-.014-.099a.086.086 0 0 0-.027.008l.04.091Zm.706-.098-.006-.1-.008.001.014.099Zm.757-.042.005.101.01-.002-.016-.099Zm.448-.072.016.099.008-.002-.024-.097Zm.706-.181-.014-.099-.011.003.025.096Zm.329-.045.014.099a.114.114 0 0 0 .025-.008l-.04-.091Zm.289-.124-.024-.098-.016.006.04.092Zm1.52-.373.023.098a.109.109 0 0 0 .035-.016l-.058-.082Zm.344-.247-.032-.094a.085.085 0 0 0-.026.013l.058.081Zm.315-.108.032.095a.103.103 0 0 0 .017-.008l-.05-.087Zm.69-.393.05.087a.104.104 0 0 0 .016-.011l-.066-.076Zm.16-.139-.05-.087a.067.067 0 0 0-.017.012l.066.075Zm.448-.258-.033-.095a.108.108 0 0 0-.017.008l.05.087Zm.463-.16.033.094a.11.11 0 0 0 .025-.012l-.058-.082Zm.304-.211-.04-.092a.113.113 0 0 0-.017.01l.057.082Zm1.097-.476.04.092.007-.003-.047-.089Zm.242-.129-.032-.095a.093.093 0 0 0-.015.007l.047.088Zm.793-.262.032.095.007-.003-.039-.092Zm.82-.352.039.092.007-.004-.047-.088Zm.67-.355.046.088a.108.108 0 0 0 .017-.011l-.064-.077Zm.112-.093.064.077a.095.095 0 0 0 .027-.036l-.09-.041Zm.18-.393-.085-.054-.006.013.091.041Zm.29-.454.084.054a.104.104 0 0 0 .013-.035l-.098-.019Zm.06-.32-.09-.042a.092.092 0 0 0-.007.023l.098.019Zm.295-.64.09.042a.1.1 0 0 0 .01-.031l-.1-.011Zm.031-.284.1.011a.097.097 0 0 0-.004-.038l-.096.027Zm-.228-.8-.098-.016a.103.103 0 0 0 .002.044l.096-.028Zm.109-.655.099.016a.09.09 0 0 0 0-.017l-.1.001Zm-.005-.444-.06-.08a.1.1 0 0 0-.04.081l.1-.001Zm.201-.155.061.08a.103.103 0 0 0 .035-.052l-.096-.028Zm.047-.164.096.028a.1.1 0 0 0-.027-.1l-.069.072Zm-4.81-4.536.069-.073-.001-.001-.068.074Zm-1.03-.939-.068.073v.001l.068-.074Zm-2.256-2.111-.068.073.068-.073Zm-2.215-2.086.069-.072a.1.1 0 0 0-.14.002l.071.07Zm-.03.032-.1.01a.1.1 0 0 0 .17.06l-.07-.07Zm-.006-.046.1-.011a.1.1 0 0 0-.038-.068.096.096 0 0 0-.075-.02l.013.099Zm-2.57.341-.1.012a.1.1 0 0 0 .113.087l-.013-.099Zm-.505-3.882.1-.013v-.001l-.1.014Zm-.72-5.394-.014-.099a.1.1 0 0 0-.086.112l.1-.013Zm.87-.118.013.099a.1.1 0 0 0 .057-.17l-.07.071Zm-.459-.46.01-.1a.1.1 0 0 0-.08.171l.07-.071Zm1.02.093-.009.099a.1.1 0 0 0 .106-.074.1.1 0 0 0-.056-.117l-.041.092Zm-.407-.181-.1.011a.1.1 0 0 0 .06.081l.04-.092Zm-1.153-10.193-.1.009v.002l.1-.011Zm-.202-2.198.1-.01a.098.098 0 0 0-.037-.068.102.102 0 0 0-.075-.022l.012.1Zm-2.78.351-.012.099a.095.095 0 0 0 .024 0l-.013-.099Zm-.053-.006-.045.089c.01.006.022.009.034.011l.011-.1Zm-1.998-1.016-.045.089.045-.089Zm-3.235-1.657-.049.088.003.001.046-.089Zm-.541-.299.048-.088c-.02-.011-.042-.015-.064-.011l.016.099Zm-.392.061-.099.012a.1.1 0 0 0 .039.068c.021.016.049.023.076.019l-.016-.099Zm-.133-1.15.099-.012a.099.099 0 0 0-.112-.087l.012.099Zm-2.75.345-.013-.099h-.002l.014.099Zm-1.783.258.01.1.005-.001-.015-.099Zm-.262.027-.1.012a.1.1 0 0 0 .11.087l-.01-.099Zm-.439-3.608-.013-.099a.1.1 0 0 0-.086.111l.1-.012Zm.835-.114.014.099a.1.1 0 0 0 .086-.11l-.1.011Zm-.36-3.35.1-.01a.102.102 0 0 0-.04-.069.103.103 0 0 0-.075-.02l.015.099Zm-7.33 1.1-.015-.099.015.099Zm-4.029.608-.098.016a.1.1 0 0 0 .113.083l-.015-.099Zm-.643-4.05.098-.016a.098.098 0 0 0-.04-.065.1.1 0 0 0-.074-.018l.016.099Zm-2.158.345-.099.018a.1.1 0 0 0 .114.081l-.015-.099Zm-.866-4.769-.023-.097a.1.1 0 0 0-.075.115l.098-.018Zm3.683-.898.024.097a.1.1 0 0 0 .075-.109l-.099.012Zm-.88-6.947.098-.013a.1.1 0 0 0-.038-.066.096.096 0 0 0-.074-.02l.013.099Zm-5.29.723-.1.013a.1.1 0 0 0 .114.086l-.014-.099Zm-.237-1.744.099-.014a.1.1 0 0 0-.111-.086l.012.1Zm-4.1.5-.1.013a.1.1 0 0 0 .111.086l-.012-.099Zm-.619-4.541-.013-.1a.104.104 0 0 0-.066.039.1.1 0 0 0-.02.074l.099-.013Zm3.045-.393.013.099a.099.099 0 0 0 .066-.038.1.1 0 0 0 .02-.075l-.1.014Zm-.217-1.595-.014-.099a.1.1 0 0 0-.085.113l.1-.014Zm6.47-.898.014.099a.1.1 0 0 0 .085-.113l-.1.014Zm-.036-.268h-.101l.002.014.099-.014Zm0-.914-.003-.1a.1.1 0 0 0-.097.1h.1Zm1.257-.036.002.1a.1.1 0 0 0 .098-.102l-.1.002Zm-.047-2.88-.003-.1a.1.1 0 0 0-.097.102l.1-.002Zm1.499-.046.003.1a.103.103 0 0 0 .073-.035.102.102 0 0 0 .023-.079l-.1.014Zm-.742-5.131-.024-.097a.101.101 0 0 0-.075.112l.1-.015Zm.289-.072-.014-.1-.01.003.024.097Zm4.692-.614.013.099a.1.1 0 0 0 .078-.141l-.091.042Zm-.283-.609-.1.013c.002.01.005.02.01.03l.09-.043Zm-.742-6.069.099-.012a.1.1 0 0 0-.107-.088l.008.1Zm-4.322.351-.099.014a.1.1 0 0 0 .107.085l-.008-.099Zm-.556-3.779-.1.014v.001l.1-.015Zm-.9-6.368-.018-.098a.1.1 0 0 0-.082.112l.1-.014Zm.204-.036.018.099a.1.1 0 0 0-.032-.198l.014.099Zm-4.398.655-.1.014a.1.1 0 0 0 .115.085l-.015-.099Zm-.401-2.906.099-.014a.1.1 0 0 0-.04-.066.099.099 0 0 0-.074-.019l.014.099Zm-.985.14.013.099h.001l-.014-.099Zm-1.638.206-.012-.099a.049.049 0 0 0-.017.003l.03.096Zm-.875.268.012.1a.11.11 0 0 0 .018-.004l-.03-.096Zm-1.489.176-.099.013a.1.1 0 0 0 .11.086l-.01-.099Zm-.34-2.565.1-.013a.1.1 0 0 0-.115-.086l.015.099Zm-1.71.258-.099.014a.1.1 0 0 0 .114.085l-.015-.099Zm-.572-4.279.1-.013a.1.1 0 0 0-.113-.086l.013.099Zm-2.116.279-.1.014a.1.1 0 0 0 .113.086l-.013-.1Zm-.752-5.625-.1.013.1-.013Zm-.51-3.897-.092-.042a.1.1 0 0 0-.008.055l.1-.013Zm.062-.135.09.042a.097.097 0 0 0 .009-.055l-.1.013Zm-.068-.49.1-.014a.1.1 0 0 0-.104-.086l.004.1Zm-2.797.13-.099.014a.1.1 0 0 0 .104.086l-.005-.1Zm-.242-1.668-.01-.099a.095.095 0 0 0-.069.038.098.098 0 0 0-.02.075l.1-.014Zm2.803-.304.01.1a.1.1 0 0 0 .088-.113l-.098.013Zm-.639-4.691-.015-.099a.1.1 0 0 0-.084.112l.1-.013Zm2.71-.408-.014-.1-.002.001.015.099Zm1.797-.243.1-.013a.1.1 0 0 0-.113-.086l.013.099Zm.483 3.685-.099.013a.1.1 0 0 0 .039.066.095.095 0 0 0 .074.02l-.014-.099Zm2.71-.361-.012-.1v.001l.012.099Zm5.064-.651-.012-.099.012.099Zm2.271-.283.013.099a.099.099 0 0 0 .066-.038.097.097 0 0 0 .02-.073l-.099.012Zm-.124-.991-.011-.099a.099.099 0 0 0-.088.111l.1-.012Zm6.851-.8-.011-.099.011.099Zm1.246-.144.012.099a.103.103 0 0 0 .061-.031l-.073-.068Zm1.37-1.461.07-.073a.1.1 0 0 0-.072-.027.098.098 0 0 0-.07.031l.072.069Zm2.298 2.193.094.034a.098.098 0 0 0-.025-.106l-.069.072Zm-.53 1.44-.094-.034a.099.099 0 0 0 .016.097.099.099 0 0 0 .092.036l-.014-.099Zm1.869-.273.1-.011a.099.099 0 0 0-.039-.068.098.098 0 0 0-.075-.02l.014.099Zm.16 1.444-.1.011a.098.098 0 0 0 .039.068.098.098 0 0 0 .076.02l-.015-.099Zm6.81-1.001.099-.014a.101.101 0 0 0-.114-.085l.015.099Zm.05.357.1-.009v-.005l-.1.014Zm.263 2.957.1-.009-.1.009Zm.15 1.734-.1.009.1-.009Zm.17 1.817-.1.009.1-.009Zm.098 1.022-.1.01a.1.1 0 0 0 .11.089l-.01-.099Zm2.349-.264.01.1h.001l-.011-.1Zm2.765-.314.099-.019a.1.1 0 0 0-.11-.08l.011.099Zm.093.495-.098.018a.1.1 0 0 0 .113.081l-.015-.099Zm3.4-.506.014.099a.1.1 0 0 0 .084-.118l-.098.019Zm-.284-1.481-.014-.099a.101.101 0 0 0-.067.041.098.098 0 0 0-.017.076l.098-.018Zm3.508-.516.099-.016a.1.1 0 0 0-.113-.083l.014.099Zm.217 1.316-.099.017a.1.1 0 0 0 .109.083l-.01-.1Zm2.879-.274.01.1a.101.101 0 0 0 .088-.081l-.098-.019Zm.618-3.184-.02-.098a.101.101 0 0 0-.078.079l.098.019Zm1.644-.331-.01-.099-.01.001.02.098Zm.638-.066.01.099a.097.097 0 0 0 .07-.037.102.102 0 0 0 .02-.076l-.1.014Zm-.155-1.09-.016-.099a.1.1 0 0 0-.083.113l.099-.014Zm.552-.087.015.099a.1.1 0 0 0 .066-.041.098.098 0 0 0 .017-.075l-.098.017Zm-.5-2.88-.017-.098a.098.098 0 0 0-.065.041.098.098 0 0 0-.017.074l.099-.017Zm2.735-.454.099-.017a.1.1 0 0 0-.115-.081l.016.098Zm.195 1.13-.098.017a.1.1 0 0 0 .114.082l-.016-.099Zm.958-.149.099-.017a.1.1 0 0 0-.114-.082l.015.099Zm.29 1.708-.1.016c.005.027.02.05.042.065a.095.095 0 0 0 .075.017l-.017-.098Zm3.553-.615.017.099a.1.1 0 0 0 .079-.068l-.096-.031Zm.299-.944-.095-.032v.002l.095.03Zm1.046-3.04-.094-.033v.001l.094.032Zm.231-.65-.016-.099a.1.1 0 0 0-.078.065l.094.034Zm.582-.098.013-.099a.144.144 0 0 0-.03 0l.017.099Zm2.571.335-.013.099a.094.094 0 0 0 .077-.023.097.097 0 0 0 .036-.072l-.1-.004Zm.144-3.603.052-.085a.103.103 0 0 0-.099-.003.103.103 0 0 0-.053.084l.1.004Zm1.298.78-.053.085 1.246.774.053-.085.053-.085-1.246-.774-.053.085Zm1.246.774-.049.087 2.473 1.399.049-.087.049-.087-2.473-1.399-.049.087Zm2.473 1.399.095.03.387-1.229-.095-.03-.096-.03-.387 1.229.096.03Zm.387-1.229.095.029.494-1.631-.095-.029-.096-.029-.494 1.631.096.029Zm.494-1.631-.049.088 1.221.681.048-.087.049-.087-1.221-.682-.048.087Zm1.22.682-.037.092.896.367.038-.093.038-.092-.897-.367-.038.093Zm.897.366-.04.092 2.514 1.084.04-.092.039-.092-2.513-1.084-.04.092Zm2.514 1.084-.096-.029-.418 1.357.096.03.095.029.418-1.357-.095-.03Zm-.418 1.358-.037.093 1.325.515.036-.093.036-.093-1.324-.516-.036.094Zm1.324.515-.092-.039-.562 1.311.092.04.092.039.562-1.311-.092-.04Zm-.562 1.312-.035.093 2.56.965.035-.093.035-.094-2.559-.965-.036.094Zm2.56.965-.039.092 1.623.681.039-.092.039-.092-1.623-.682-.039.093Zm1.623.681-.04.092 1.628.702.04-.092.039-.092-1.627-.702-.04.092Zm1.628.702-.09-.044-1.571 3.21.09.044.089.044 1.572-3.21-.09-.044Zm-1.571 3.21-.092.041.046.103.091-.04.092-.041-.046-.103-.091.04Zm.045.104-.099-.008-.051.66.1.008.099.008.051-.661-.1-.007Zm-.05.66-.046.089.329.17.046-.089.046-.089-.329-.17-.046.089Zm.329.17-.066.076.335.289.066-.076.065-.076-.335-.289-.065.076Zm.335.289-.1-.012-.015.13.099.012.099.012.016-.13-.099-.012Zm-.016.13-.031.095.453.149.031-.095.032-.095-.454-.149-.031.095Zm.453.149-.054.084.495.32.054-.084.055-.084-.496-.32-.054.084Zm.495.32-.028.095.489.145.029-.096.028-.096-.489-.144-.029.096Zm.49.144.091.04.134-.303-.092-.041-.091-.04-.134.304.092.04Zm.133-.304-.01.1 2.813.289.01-.1.01-.099-2.812-.289-.011.099Zm2.813.289-.095-.031-.072.217.095.031.095.032.072-.217-.095-.032Zm-.072.217-.013.099 2.215.279.012-.099.013-.1-2.215-.278-.012.099Zm2.214.279.051.086.53-.31-.05-.086-.051-.086-.53.309.05.087Zm.531-.31.059.081.351-.258-.06-.081-.059-.08-.35.257.059.081Zm.35-.258.066.076.761-.656-.065-.076-.065-.076-.762.656.065.076Zm.762-.656-.015.099 1.401.217.015-.099.016-.099-1.402-.217-.015.099Zm1.401.217-.076.064.984 1.172.077-.064.076-.065-.984-1.172-.077.065Zm.985 1.172-.079.061.381.486.079-.062.078-.062-.381-.485-.078.062Zm.381.485-.077.064 1.216 1.446.076-.065.077-.064-1.216-1.445-.076.064Zm1.215 1.445-.077.064 1.473 1.791.077-.064.077-.063-1.472-1.791-.078.063Zm1.473 1.791.004-.1-.262-.01-.005.1-.004.099.263.011.004-.1Zm-.263-.01-.098.019.367 1.802.098-.02.098-.02-.367-1.801-.098.02Zm.367 1.801-.099.018.118.65.099-.018.098-.018-.118-.65-.098.018Zm.118.65.001.1.329-.005-.001-.1-.002-.1-.329.005.002.1Zm.329-.005.031.095.269-.088-.032-.095-.031-.095-.268.088.031.095Zm.268-.088-.031.095.144.047.031-.095.031-.095-.143-.047-.032.095Zm.144.047-.099.011.773 7.101.099-.011.1-.01-.774-7.102-.099.011Zm.773 7.101.013.1 2.766-.356-.013-.099-.013-.099-2.765.355.012.099Zm2.766-.355.099-.011-.077-.682-.099.011-.099.012.077.681.099-.011Zm-.077-.682.012.1 3.467-.424-.012-.1-.012-.099-3.467.424.012.099Zm3.467-.424-.091.043.175.376.091-.042.09-.042-.175-.377-.09.042Zm.175.377.013.1 1.931-.258-.013-.099-.013-.1-1.932.258.014.099Zm1.931-.257.013.099 1.998-.258-.013-.099-.013-.099-1.998.257.013.1Zm1.998-.258.071.07.026-.026-.07-.071-.071-.07-.026.026.07.071Zm.027-.027.013.1 3.992-.521-.013-.099-.013-.099-3.992.52.013.099Zm3.992-.52-.099.016.293 1.776.099-.017.098-.016-.293-1.775-.098.016Zm.293 1.775.013.099 2.072-.284-.014-.099-.014-.099-2.071.284.014.099Zm2.071-.284.099-.012-.221-1.76-.1.012-.099.013.222 1.76.099-.013Zm-.222-1.76.014.099 3.271-.465-.014-.099-.014-.099-3.271.465.014.099Zm3.271-.465.1.004.067-1.899-.1-.004-.1-.003-.067 1.899.1.003Zm.067-1.899.039-.092-.737-.314-.039.092-.039.092.737.314.039-.092Zm-.737-.314.093.036.681-1.75-.093-.036-.094-.037-.68 1.75.093.037Zm.681-1.75.099-.008-.232-3.148-.1.007-.1.008.233 3.148.1-.007Zm-.233-3.149.007.1 2.586-.176-.007-.1-.007-.099-2.586.175.007.1Zm2.586-.176-.1.007.078 1.116.099-.007.1-.007-.077-1.115-.1.006Zm.077 1.116.008.099.881-.072-.008-.1-.008-.099-.881.072.008.1Zm.881-.073-.1.009.175 2.085.1-.009.1-.008-.175-2.085-.1.008Zm.175 2.085.029.096.34-.102-.029-.096-.029-.096-.34.103.029.095Zm.34-.102-.025.097.84.216.025-.096.025-.097-.84-.217-.025.097Zm.84.217-.003.1.675.014.002-.1.003-.1-.675-.014-.002.1Zm.674.014-.079.061.247.325.08-.061.079-.06-.247-.325-.08.06Zm.248.325-.073.069.428.45.072-.069.073-.069-.428-.45-.072.069Zm.427.45-.069-.073-.556.532.07.072.069.072.555-.531-.069-.072Zm-.555.531-.057.082.478.331.057-.082.057-.082-.479-.331-.056.082Zm.478.331-.091-.041-.159.35.091.042.091.041.159-.351-.091-.041Zm-.159.351-.094-.034-.206.573.094.034.094.034.206-.574-.094-.033Zm-.206.573-.036-.094-.309.119.035.093.036.093.31-.118-.036-.093Zm-.31.118-.1-.003-.072 2.473.1.003.1.003.072-2.473-.1-.003Zm-.072 2.473-.1-.004-.123 3.189.1.004.1.004.123-3.19-.1-.003Zm-.123 3.189.016.099 7.278-1.203-.017-.099-.016-.099-7.277 1.203.016.099Zm7.277-1.203-.099-.007-.227 3.402.1.006.1.007.226-3.401-.1-.007Zm-.226 3.401-.1-.008-.036.418.1.008.099.009.036-.418-.099-.009Zm-.036.418-.1-.013-.582 4.486.1.013.099.012.582-4.485-.099-.013Zm-.582 4.486-.079-.062-.922 1.177.079.061.078.062.922-1.177-.078-.061Zm-.922 1.176-.076-.065-.392.454.076.065.076.066.391-.454-.075-.066Zm-.392.454-.002-.1-3.358.057.002.1.001.1 3.359-.057-.002-.1Zm-3.358.057-.001-.1-1.292.011.001.1.001.1 1.292-.011-.001-.1Zm-1.292.011-.1-.007-.314 4.397.099.007.1.007.314-4.397-.099-.007Zm-.315 4.397.032.095 1.602-.537-.032-.095-.032-.095-1.602.538.032.094Zm1.602-.537.03.096 1.829-.573-.03-.095-.03-.095-1.829.572.03.095Zm1.829-.572.032.095 1.606-.542-.032-.095-.032-.095-1.606.542.032.095Zm1.606-.542.028.096 1.386-.397-.028-.097-.027-.096-1.386.398.027.096Zm1.386-.398.074-.067-.159-.175-.074.067-.074.067.159.176.074-.068Zm-.159-.175.094.034.082-.221-.094-.035-.094-.035-.082.222.094.035Zm.082-.222.067.074.149-.134-.067-.075-.067-.074-.149.135.067.074Zm.149-.135.089.047.17-.326-.089-.046-.088-.046-.17.325.088.046Zm.17-.325-.034.094.315.114.034-.094.034-.094-.315-.114-.034.094Zm.315.114-.047.089 3.142 1.641.046-.089.047-.089-3.142-1.64-.046.088Zm3.141 1.641.078.063.602-.738-.077-.063-.078-.064-.602.739.077.063Zm.603-.738-.047.088 2.905 1.544.047-.088.047-.089-2.905-1.544-.047.089Zm2.905 1.544-.047-.088-2.524 1.362.048.088.047.088 2.524-1.362-.048-.088Zm-2.523 1.362-.046-.089-2.592 1.337.046.089.046.089 2.592-1.337-.046-.089Zm-2.592 1.337-.092.038.639 1.528.093-.039.092-.038-.64-1.528-.092.039Zm.64 1.527-.1.002.03 1.874.1-.002.1-.001-.03-1.874-.1.001Zm.03 1.874-.029-.096-5.619 1.667.029.096.028.096 5.619-1.667-.028-.096Zm-5.619 1.667-.1-.008-.299 3.555.1.009.1.008.298-3.555-.099-.009Zm-.299 3.556-.007.1.623.042.007-.1.007-.1-.623-.042-.007.1Zm.623.042-.1-.001-.031 3.055.1.001.1.001.031-3.055-.1-.001Zm-.031 3.055-.021-.098-2.725.578.021.098.021.097 2.724-.578-.02-.097Zm-2.725.578-.017-.099-.943.165.018.099.017.098.942-.165-.017-.098Zm-.942.165-.019-.098-2.066.397.019.098.019.098 2.066-.397-.019-.098Zm-2.066.397-.098.018.494 2.771.098-.017.099-.018-.494-2.771-.099.017Zm.494 2.772-.006-.1-1.889.114.006.1.006.1 1.889-.115-.006-.099Zm-1.889.114-.007-.1-2.364.159.007.1.006.1 2.364-.159-.006-.1Zm-2.364.159-.007-.1-1.35.088.007.1.006.1 1.35-.088-.006-.1Zm-1.35.088-.099.017.536 3.045.098-.017.099-.017-.536-3.045-.098.017Zm.535 3.045-.099.016.315 1.9.099-.017.098-.016-.314-1.899-.099.016Zm.315 1.899-.099.019.5 2.694.099-.018.098-.019-.5-2.694-.098.018Zm.5 2.695-.039-.093-.613.253.038.093.038.092.614-.253-.038-.092Zm-.614.253.057-.083-.098-.067-.056.082-.057.083.097.067.057-.082Zm-.097-.068-.036-.093-.592.222.035.094.035.093.593-.222-.035-.094Zm-.593.223-.043-.09-.886.422.043.091.043.09.886-.423-.043-.09Zm-.886.423-.02-.098-.325.067.021.098.02.098.324-.067-.02-.098Zm-.324.067-.06-.08-.376.278.06.08.059.081.376-.279-.059-.08Zm-.376.278-.044-.089-.351.17.044.09.044.09.351-.171-.044-.09Zm-.351.171-.058-.081-.324.231.058.082.058.081.324-.231-.058-.082Zm-.324.232-.037-.093-.206.083.037.093.037.093.206-.083-.037-.093Zm-.206.083.022-.098-.346-.077-.022.098-.021.097.345.077.022-.097Zm-.346-.077-.044-.09-.313.154.044.09.044.09.313-.155-.044-.089Zm-.313.154-.06-.08-.557.418.06.08.06.08.557-.418-.06-.08Zm-.557.418-.066-.075-.644.568.067.075.066.075.643-.568-.066-.075Zm-.643.568-.074-.067-.367.402.074.068.074.067.367-.402-.074-.068Zm-.367.403-.068-.074-.741.692.068.073.068.073.742-.691-.069-.073Zm-.741.691-.052-.085-.892.547.053.085.052.085.891-.547-.052-.085Zm-.891.547-.037-.093-.293.114.037.093.036.093.293-.114-.036-.093Zm-.293.114-.052-.085-1.155.701.052.085.052.086 1.155-.701-.052-.086Zm-1.155.701-.044-.089-.752.377.044.089.045.09.752-.377-.045-.09Zm-.752.377-.038-.092-1.318.542.038.092.038.093 1.318-.542-.038-.093Zm-1.318.542-.05-.086-.206.119.05.086.05.087.206-.119-.05-.087Zm-.206.119-.039-.092-1.49.64.04.092.039.092 1.489-.64-.039-.092Zm-1.489.64-.045-.089-.504.253.045.089.045.089.504-.253-.045-.089Zm-.504.253-.047-.088-1.129.598.047.089.047.088 1.129-.599-.047-.088Zm-1.129.599-.054-.084-.608.392.054.084.055.084.607-.392-.054-.084Zm-.608.392-.063-.077-.278.226.063.078.063.077.279-.226-.064-.078Zm-.278.227-.049-.087-.53.299.049.088.049.087.53-.3-.049-.087Zm-.53.3-.008-.1-.119.01.009.099.008.1.118-.01-.008-.099Zm-.118.009.067-.074-.011-.009-.067.074-.067.074.01.009.068-.074Zm-.011-.009-.062-.079-.201.159.062.079.062.078.201-.159-.062-.078Zm-.201.159-.075-.066-.54.614.075.066.075.066.54-.614-.075-.066Zm-.54.614-.096-.029-.099.331.096.029.096.029.099-.331-.096-.029Zm-.099.331-.078-.062-.314.398.079.061.078.062.314-.397-.079-.062Zm-.313.397-.064-.076-.495.412.064.077.064.076.495-.412-.064-.077Zm-.495.413-.054-.085-.324.207.053.085.054.084.324-.207-.053-.084Zm-.325.207-.075-.066-.453.515.075.066.075.066.453-.515-.075-.066Zm-.453.515-.082-.057-1.175 1.699.082.056.083.057 1.174-1.698-.082-.057Zm-1.175 1.698-.079-.06-.845 1.104.08.061.079.061.845-1.105-.08-.061Zm-.844 1.105-.077-.064-1.174 1.393.077.065.076.064 1.174-1.394-.076-.064Zm-1.174 1.394-.078-.064-.839 1.028.077.063.077.063.84-1.027-.077-.063Zm-.84 1.027-.072-.07-.324.335.072.07.072.069.324-.335-.072-.069Zm-.324.335-.058-.082-.242.171.058.082.057.081.242-.17-.057-.082Zm-.242.171-.071-.071-.736.727.07.071.071.071.736-.727-.07-.071Zm-.737.727-.067-.074-.412.371.067.074.067.075.412-.371-.067-.075Zm-.412.371-.073-.067-.258.279.073.068.074.068.258-.28-.074-.068Zm-.258.28-.07-.072-.716.702.071.072.07.071.715-.702-.07-.071Zm-.715.702-.064-.077-.603.495.064.077.063.077.603-.495-.063-.077Zm-.603.495-.066-.075-.865.753.066.076.065.075.866-.754-.066-.075Zm-.865.754-.064-.077-.629.52.064.077.064.077.629-.52-.064-.077Zm-.629.52-.059-.081-1.422 1.028.059.081.059.081 1.421-1.028-.058-.081Zm-1.422 1.028-.048-.088-.942.511.048.087.047.088.943-.51-.048-.088Zm-.942.51-.044-.089-.551.268.044.09.044.09.55-.269-.043-.09Zm-.551.269-.062-.079-.19.15.061.078.062.079.191-.149-.062-.079Zm-.191.149-.01-.099-.361.036.01.1.01.099.361-.036-.01-.1Zm-.361.037-.024-.098-.793.197.024.097.024.097.793-.196-.024-.097Zm-.793.196-.043-.09-1.061.51.044.091.043.09 1.06-.511-.043-.09Zm-1.06.511-.057-.083-.418.284.057.083.056.082.418-.284-.056-.082Zm-.418.284-.068-.074-.546.495.068.074.067.074.546-.495-.067-.074Zm-.546.495-.051-.086-.442.258.05.087.051.086.442-.259-.05-.086Zm-.443.259-.039-.092-.588.253.039.092.04.091.588-.252-.04-.092Zm-.588.253-.009-.1-.263.025.01.1.009.1.263-.026-.01-.099Zm-.262.025-.036-.093-.376.144.036.094.036.093.376-.145-.036-.093Zm-.376.145-.047-.089-.401.212.046.088.047.089.401-.212-.046-.088Zm-.402.211-.016-.098-.824.134.016.098.016.099.824-.134-.016-.099Zm-.824.134-.03-.095-1.53.475.03.096.03.095 1.53-.475-.03-.096Zm-1.53.476-.049-.088-.277.155.049.087.048.087.277-.154-.048-.087Zm-.277.154-.057-.082-.779.537.057.082.057.083.778-.538-.056-.082Zm-.779.537-.066-.075-.279.247.067.075.066.075.279-.247-.067-.075Zm-.278.247-.075-.066-.313.351.074.067.075.066.314-.351-.075-.067Zm-.314.352-.064-.077-.345.288.064.077.064.077.345-.288-.064-.077Zm-.345.288h-.1v.057h.2v-.057h-.1Zm0 .057-.078-.064-.819 1.001.077.064.078.063.819-1.001-.077-.063Zm-.82 1.001-.081-.059-.634.888.082.058.081.058.634-.887-.082-.058Zm-.633.887-.063-.078-.406.325.062.078.063.079.406-.326-.062-.078Zm-.407.325-.087-.049-.154.274.087.049.087.049.154-.273-.087-.05Zm-.154.274-.073-.069-.371.393.073.068.073.069.371-.392-.073-.069Zm-.371.392-.087-.049-.16.279.087.05.087.049.16-.279-.087-.05Zm-.16.28-.076-.066-.458.526.076.066.075.066.458-.527-.075-.065Zm-.458.526-.088-.048-.093.17.088.048.088.048.093-.17-.088-.048Zm-.093.17-.081-.058-.655.914.082.058.081.058.654-.914-.081-.058Zm-.654.914-.096-.029-.066.216.095.029.096.029.066-.215-.095-.03Zm-.067.216-.064-.077-.217.181.064.077.065.076.216-.18-.064-.077Zm-.217.181-.077-.064-.546.666.078.064.077.063.546-.666-.078-.063Zm-.545.666-.094-.037-.113.289.093.037.093.036.114-.289-.093-.036Zm-.114.289-.077-.064-.339.408.076.064.077.064.34-.408-.077-.064Zm-.34.408-.089-.045-.201.397.089.045.09.045.201-.397-.09-.045Zm-.201.397-.073-.068-.134.145.073.068.074.068.134-.145-.074-.068Zm-.134.145-.078-.062-.912 1.155.078.062.079.062.912-1.155-.079-.062Zm-.912 1.155-.081-.058-.283.392.081.059.081.058.283-.392-.081-.059Zm-.283.393-.087-.05-.478.842.087.05.087.049.478-.842-.087-.049Zm-.478.842-.08-.061-.804 1.069.08.06.08.06.804-1.068-.08-.06Zm-.804 1.068-.084-.054-.464.728.084.053.084.054.464-.727-.084-.054Zm-.464.727-.09-.043-.515 1.078.09.044.091.043.514-1.079-.09-.043Zm-.515 1.079-.08-.06-.124.166.08.06.081.059.124-.166-.081-.059Zm-.124.166-.087-.05-.587 1.037.088.05.087.049.586-1.037-.087-.049Zm-.586 1.037-.086-.052-.34.568.086.051.085.051.34-.567-.085-.051Zm-.34.567-.084-.055-.515.774.083.055.083.056.516-.775-.083-.055Zm-.516.774-.087-.049-.71 1.249.086.049.087.05.711-1.249-.087-.05Zm-.711 1.249-.073-.068-.494.526.073.069.073.068.494-.526-.073-.069Zm-.494.527-.078-.063-.798.996.078.063.078.062.798-.996-.078-.062Zm-.798.996-.097-.026-.046.176.096.026.097.025.047-.175-.097-.026Zm-.047.176-.083-.056-.215.319.082.056.083.056.216-.319-.083-.056Zm-.216.319-.086-.05-.66 1.13.086.051.087.05.66-1.131-.087-.05Zm-.66 1.131-.09-.043-.438.934.09.043.091.042.438-.934-.09-.042Zm-.437.934-.088-.048-.408.759.088.047.089.048.407-.759-.088-.047Zm-.408.758.02-.098-.051-.01-.02.099-.018.098.05.009.02-.098Zm-.05-.009-.085-.053-3.37 5.489.085.053.085.052 3.37-5.489-.085-.052Zm-3.37 5.489-.098.021.02.088.097-.021.098-.022-.02-.088-.097.022Zm.02.088-.092-.04-.3.681.092.04.092.04.299-.681-.092-.04Zm-.3.681-.089-.045-.417.809.09.046.088.046.417-.81-.089-.046Zm-.417.81-.074-.067-.047.052.075.067.074.067.046-.052-.074-.067Zm-.046.052-.092-.04-.798 1.822.092.04.091.04.798-1.822-.091-.04Zm-.798 1.822-.09-.046-.54 1.048.089.046.089.046.54-1.048-.088-.046Zm-.541 1.048-.086-.052-.505.836.086.052.085.051.505-.836-.085-.051Zm-.505.836-.088-.048-.577 1.052.088.048.087.049.577-1.053-.087-.048Zm-.577 1.052-.085-.053-.994 1.585.084.053.085.054.994-1.585-.084-.054Zm-.995 1.585-.058-.081-.206.15.058.081.06.081.205-.15-.059-.081Zm-.206.15-.081-.058-.526.738.082.058.081.058.526-.738-.082-.058Zm-.525.738-.067-.074-.2.181.067.074.067.074.2-.181-.067-.074Zm-.2.181-.084-.055-.201.31.084.054.083.055.202-.31-.084-.054Zm-.201.309-.075-.066-.247.278.075.067.074.066.247-.278-.074-.067Zm-.248.279-.063-.078-.437.357.063.077.063.078.438-.357-.063-.077Zm-.437.356-.069-.073-.386.367.068.072.07.073.386-.366-.069-.073Zm-.387.366-.064-.076-1.308 1.094.064.077.064.077 1.308-1.095-.064-.077Zm-1.308 1.095-.052-.086-.793.475.052.086.051.085.793-.474-.051-.086Zm-.793.475-.089-.047-.067.129.088.047.089.046.067-.129-.088-.046Zm-.068.129-.04-.092-.32.145.041.091.041.091.32-.144-.042-.091Zm-.319.144-.06-.08-.38.284.06.08.059.08.38-.284-.059-.08Zm-.38.284-.045-.09-2.199 1.079.044.089.044.09 2.2-1.078-.045-.09Zm-2.2 1.078-.035-.093-.618.232.035.094.035.093.618-.232-.035-.094Zm-.618.233-.02-.098-1.087.217.02.098.02.098 1.086-.217-.02-.098Zm-1.087.217-.031-.096-.969.315.031.095.031.095.969-.314-.031-.095Zm-.969.314-.047-.088-.216.114.047.088.047.089.216-.115-.047-.088Zm-.216.114-.002-.1-.262.005.002.1.001.1.263-.005-.002-.1Zm-.262.005-.03-.095-.391.119.029.095.03.096.39-.119-.028-.096Zm-.392.119-.058-.081-.623.443.058.082.058.081.623-.443-.058-.082Zm-.623.444-.048-.088-1.02.563.048.087.049.088 1.02-.563-.049-.087Zm-1.02.562-.043-.09-.881.429.044.09.043.09.881-.429-.044-.09Zm-.88.429-.038-.093-1.36.552.037.093.038.092 1.36-.551-.037-.093Zm-1.36.552-.047-.089-.304.16.046.089.047.088.304-.16-.047-.088Zm-.305.16-.027-.096-1.16.336.028.096.028.096 1.16-.336-.029-.096Zm-1.159.336-.037-.093-.767.304.037.093.037.093.767-.304-.037-.093Zm-.767.304-.023-.097-.335.077.023.098.022.097.335-.077-.022-.098Zm-.335.078.015-.099-.417-.063-.015.099-.015.099.417.062.015-.098Zm-.417-.063.052.086.247-.15-.052-.085-.052-.086-.247.15.052.085Zm.247-.149.078.062.212-.262-.078-.063-.078-.063-.212.263.078.063Zm.212-.263.088.048.252-.465-.088-.048-.088-.048-.252.465.088.048Zm.252-.465.1-.002-.01-.531-.1.002-.1.002.01.531.1-.002Zm-.01-.531.099.017.056-.336-.098-.017-.099-.017-.057.336.099.017Zm.057-.336.088.046.469-.892-.089-.047-.088-.046-.469.892.089.047Zm.468-.893.098-.02-.056-.269-.098.021-.098.02.056.269.098-.021Zm-.056-.268.07-.071-.298-.3-.071.071-.07.071.298.299.07-.07Zm-.3-.3.087.051.195-.325-.086-.051-.085-.052-.196.326.086.051Zm.196-.325.055.084.715-.464-.054-.084-.054-.084-.716.464.054.084Zm.716-.464.047.088.536-.284-.047-.088-.047-.089-.536.285.047.088Zm.536-.284.063.078.288-.233-.063-.078-.063-.077-.288.232.063.078Zm.288-.233.075.066.19-.216-.074-.066-.075-.066-.19.216.074.066Zm.19-.216.085.053.475-.743-.085-.054-.084-.053-.475.743.085.054Zm.475-.744.059.081.442-.32-.058-.081-.059-.081-.442.32.058.081Zm.443-.32.013.099.376-.051-.013-.099-.014-.099-.376.051.014.099Zm.376-.051.067.075.257-.233-.066-.074-.067-.074-.258.232.067.074Zm.258-.232.096.025.093-.351-.097-.026-.096-.025-.093.351.097.026Zm.092-.352.098-.019-.108-.542-.098.019-.098.02.108.542.098-.02Zm-.108-.542.1-.006-.037-.578-.1.006-.1.006.037.579.1-.007Zm-.036-.578.097.024.083-.335-.097-.024-.097-.024-.083.335.097.024Zm.083-.335.09-.044-.145-.29-.09.045-.09.045.145.289.09-.045Zm-.145-.289.027.097.412-.114-.027-.096-.026-.097-.412.114.026.096Zm.412-.113.098.02.032-.156-.099-.019-.097-.02-.032.155.098.02Zm.032-.155.048.087.442-.242-.048-.088-.048-.087-.442.242.047.088Zm.442-.243.016.099.505-.083-.016-.099-.016-.098-.505.083.016.098Zm.505-.083-.002.1.258.005.002-.1.001-.1-.257-.005-.002.1Zm.258.005.021.098.49-.108-.022-.098-.022-.098-.489.109.022.097Zm.489-.108.046.089.299-.155-.046-.088-.046-.089-.299.154.046.089Zm.299-.154.031.094.556-.185-.032-.095-.031-.095-.556.186.032.095Zm.555-.186-.013.099.37.051.015-.099.013-.099-.371-.051-.014.099Zm.372.051.063.077.088-.072-.064-.077-.063-.078-.088.073.064.077Zm.087-.072.005.099.598-.03-.005-.1-.005-.1-.598.031.005.1Zm.598-.031.04.092.35-.156-.04-.091-.041-.091-.35.155.041.091Zm.35-.155.013.099.706-.098-.013-.099-.014-.099-.706.098.014.099Zm.706-.098.005.1.757-.042-.005-.1-.006-.099-.757.042.006.099Zm.757-.042.015.099.449-.072-.016-.099-.016-.099-.448.073.016.098Zm.448-.072.024.097.707-.181-.025-.097-.025-.096-.706.18.025.097Zm.706-.181.014.099.329-.045-.014-.099-.014-.099-.329.045.014.099Zm.329-.045.04.091.288-.124-.039-.091-.04-.092-.288.124.039.092Zm.289-.124.024.097 1.52-.372-.025-.098-.023-.097-1.52.372.024.098Zm1.52-.373.058.082.345-.247-.059-.082-.058-.081-.345.247.058.081Zm.344-.247.033.095.314-.108-.032-.095-.033-.095-.314.109.032.094Zm.315-.108.05.087.69-.393-.05-.087-.05-.087-.69.393.05.087Zm.69-.393.066.076.16-.14-.067-.075-.066-.075-.159.139.066.075Zm.16-.139.05.086.447-.257-.05-.087-.05-.087-.448.258.05.087Zm.448-.258.032.094.464-.16-.033-.094-.032-.095-.464.16.033.095Zm.463-.16.058.082.303-.211-.057-.082-.057-.082-.304.211.057.082Zm.304-.211.04.092 1.097-.476-.04-.092-.04-.091-1.097.475.04.092Zm1.097-.476.047.089.242-.129-.047-.089-.047-.088-.242.129.047.088Zm.242-.129.031.095.793-.262-.031-.095-.031-.095-.794.262.032.095Zm.793-.262.04.092.819-.352-.04-.092-.04-.092-.819.352.04.092Zm.82-.352.046.088.67-.355-.047-.088-.047-.089-.67.356.047.088Zm.67-.355.063.077.113-.093-.064-.077-.063-.078-.113.093.063.078Zm.112-.093.091.041.18-.392-.09-.042-.092-.041-.18.392.091.042Zm.18-.393.084.054.29-.454-.085-.054-.084-.054-.29.455.085.053Zm.29-.454.097.019.062-.32-.098-.019-.098-.019-.062.32.098.019Zm.06-.32.092.042.294-.64-.091-.042-.091-.042-.294.64.09.042Zm.295-.64.1.011.03-.284-.099-.011-.1-.011-.03.284.099.011Zm.031-.284.096-.027-.227-.8-.097.027-.096.028.228.799.096-.027Zm-.228-.8.1.017.108-.656-.1-.016-.098-.016-.108.655.098.016Zm.109-.655.1-.001-.005-.444-.1.001-.1.001.005.444.1-.001Zm-.005-.444.06.079.202-.154-.06-.08-.062-.079-.2.154.06.08Zm.201-.155.096.028.047-.164-.096-.028-.096-.027-.047.164.096.027Zm.047-.164.069-.072-4.81-4.537-.069.073-.068.073 4.81 4.536.068-.073Zm-4.81-4.536.068-.074-1.03-.939-.068.074-.067.074 1.03.939.067-.074Zm-1.03-.939.069-.073-2.256-2.111-.069.073-.068.073 2.256 2.111.068-.073Zm-2.256-2.111.069-.072-2.215-2.086-.069.072-.068.073 2.215 2.086.068-.073Zm-2.215-2.086-.07-.07-.032.031.071.071.07.07.032-.031-.07-.071Zm-.03.032.099-.011-.005-.046-.1.011-.1.01.006.046.1-.01Zm-.006-.046-.013-.099-2.57.34.013.1.013.099 2.57-.341-.013-.099Zm-2.57.341.1-.013-.506-3.882-.099.013-.1.013.506 3.881.099-.012Zm-.505-3.882.1-.014-.722-5.393-.099.013-.099.013.721 5.394.1-.013Zm-.72-5.394.013.099.87-.118-.014-.099-.013-.099-.87.118.013.099Zm.87-.118.07-.071-.458-.46-.07.071-.071.071.458.46.07-.071Zm-.459-.46-.008.1 1.019.092.009-.099.01-.1-1.02-.093-.01.1Zm1.02.093.04-.092-.407-.18-.04.091-.04.092.406.18.041-.091Zm-.407-.181.1-.011-1.154-10.193-.1.011-.099.011 1.154 10.193.099-.011Zm-1.153-10.193.1-.009-.202-2.199-.1.01-.1.009.202 2.198.1-.009Zm-.202-2.198-.012-.1-2.782.352.013.099.013.099 2.78-.351-.012-.099Zm-2.78.351.01-.099-.051-.006-.012.099-.01.1.05.005.012-.099Zm-.053-.006.046-.089-1.998-1.016-.046.089-.045.089 1.998 1.016.045-.089Zm-1.998-1.016.046-.089-3.235-1.657-.046.089-.046.089 3.236 1.657.045-.089Zm-3.235-1.657.048-.087-.54-.3-.05.088-.048.087.541.3.049-.088Zm-.541-.299-.016-.099-.391.061.015.099.016.099.391-.062-.015-.098Zm-.392.061.1-.011-.134-1.151-.1.012-.099.011.134 1.151.1-.012Zm-.133-1.15-.013-.099-2.75.345.013.099.012.1 2.75-.346-.013-.099Zm-2.75.345-.015-.099-1.782.258.014.099.015.099 1.782-.258-.014-.099Zm-1.783.258-.01-.099-.262.026.01.1.01.099.262-.026-.01-.1Zm-.262.027.099-.012-.439-3.608-.099.012-.1.012.44 3.608.099-.012Zm-.439-3.608.014.099.835-.114-.014-.099-.013-.099-.835.114.013.099Zm.835-.114.1-.011-.36-3.349-.1.01-.1.011.36 3.35.1-.011Zm-.36-3.35-.015-.099-7.33 1.1.015.099.014.099 7.33-1.1-.014-.099Zm-7.33 1.1-.015-.099-4.029.608.015.099.015.099 4.029-.608-.015-.099Zm-4.029.608.1-.015-.645-4.051-.098.016-.099.015.644 4.051.098-.016Zm-.643-4.05-.016-.099-2.158.346.016.098.015.099 2.159-.346-.016-.098Zm-2.158.345.098-.018-.865-4.769-.099.018-.098.018.865 4.769.099-.018Zm-.866-4.769.024.097 3.683-.898-.024-.097-.024-.097-3.682.898.023.097Zm3.683-.898.1-.012-.882-6.948-.099.013-.1.013.882 6.947.099-.013Zm-.88-6.947-.014-.099-5.29.723.014.099.014.099 5.289-.723-.014-.099Zm-5.29.723.1-.014-.238-1.744-.1.014-.098.013.237 1.744.099-.013Zm-.237-1.744-.012-.1-4.101.5.012.1.012.099 4.1-.5-.011-.099Zm-4.1.5.098-.014-.618-4.541-.099.014-.1.013.62 4.541.098-.013Zm-.619-4.541.013.099 3.045-.393-.013-.099-.013-.099-3.045.392.013.1Zm3.045-.393.099-.014-.217-1.594-.099.013-.099.014.217 1.594.099-.013Zm-.217-1.595.014.099 6.47-.898-.014-.099-.014-.099-6.47.898.014.099Zm6.47-.898.099-.014-.036-.267-.1.013-.098.014.036.267.099-.013Zm-.036-.268h.1v-.914h-.2v.914h.1Zm0-.914.003.1 1.256-.036-.002-.1-.003-.1-1.257.036.003.1Zm1.257-.036.1-.002-.047-2.88-.1.002-.1.002.047 2.88.1-.002Zm-.047-2.88.003.1 1.499-.046-.003-.1-.003-.1-1.5.046.004.1Zm1.499-.046.099-.014-.742-5.131-.099.014-.098.015.74 5.131.1-.015Zm-.742-5.131.025.097.288-.072-.024-.097-.025-.097-.288.072.024.097Zm.289-.072.013.099 4.692-.614-.013-.099-.013-.099-4.692.614.013.099Zm4.692-.614.09-.042-.283-.609-.09.042-.09.043.282.608.09-.042Zm-.283-.609.099-.012-.742-6.069-.1.012-.099.012.742 6.07.1-.013Zm-.742-6.069-.008-.1-4.322.351.008.1.008.099 4.322-.35-.009-.1Zm-4.322.351.1-.015-.557-3.778-.1.014-.098.015.556 3.778.1-.014Zm-.556-3.779.099-.014-.9-6.368-.1.014-.099.014.9 6.368.1-.014Zm-.9-6.368.017.099.205-.036-.018-.099-.017-.098-.205.036.017.098Zm.204-.036-.014-.099-4.399.655.015.099.015.099 4.398-.655-.015-.099Zm-4.398.655.099-.013-.401-2.907-.1.014-.099.014.402 2.906.099-.014Zm-.401-2.906-.015-.099-.984.14.014.099.014.099.985-.14-.014-.099Zm-.985.14-.012-.099-1.638.206.012.099.013.099 1.638-.206-.013-.099Zm-1.638.206-.029-.096-.875.269.03.095.029.096.875-.269-.03-.095Zm-.875.268-.011-.099-1.49.176.012.099.012.099 1.49-.175-.013-.1Zm-1.489.176.1-.013-.34-2.565-.1.013-.099.013.34 2.565.1-.013Zm-.34-2.565-.015-.099-1.71.259.015.098.015.099 1.71-.258-.015-.099Zm-1.71.258.1-.013-.573-4.279-.099.013-.099.013.572 4.28.1-.014Zm-.572-4.279-.013-.099-2.116.279.013.099.013.1 2.116-.28-.013-.099Zm-2.116.279.099-.013-.752-5.626-.1.014-.098.013.752 5.626.099-.014Zm-.752-5.625.1-.013-.512-3.897-.099.013-.099.013.51 3.897.1-.013Zm-.51-3.897.09.042.062-.135-.09-.042-.091-.042-.063.135.091.042Zm.062-.135.099-.013-.068-.491-.099.014-.099.014.068.49.099-.014Zm-.068-.49-.004-.1-2.797.13.004.1.005.1 2.797-.13-.005-.1Zm-2.797.13.1-.014-.243-1.668-.099.014-.099.014.242 1.668.1-.014Zm-.242-1.668.011.099 2.803-.303-.011-.1-.01-.099-2.803.304.01.099Zm2.803-.304.1-.013-.64-4.692-.099.014-.099.013.639 4.692.099-.014Zm-.639-4.691.015.099 2.71-.409-.016-.098-.015-.099-2.709.408.015.099Zm2.71-.408.013.099 1.797-.242-.013-.1-.013-.099-1.798.243.013.099Zm1.797-.243-.099.013.483 3.685.1-.013.099-.013-.484-3.685-.099.013Zm.483 3.685.014.099 2.71-.361-.014-.099-.013-.099-2.71.361.014.099Zm2.71-.361.013.099 5.064-.651-.013-.099-.013-.099-5.063.65.012.1Zm5.064-.651.012.1 2.272-.284-.013-.099-.012-.099-2.271.283.012.099Zm2.271-.283.1-.012-.124-.992-.1.013-.099.012.124.991.1-.012Zm-.124-.991.012.099 6.85-.8-.011-.099-.012-.099-6.85.8.011.099Zm6.851-.8.012.099 1.246-.144-.012-.099-.011-.1-1.246.145.011.099Zm1.246-.144.073.068 1.37-1.461-.073-.068-.073-.069-1.37 1.461.073.069Zm1.37-1.461-.069.072 2.298 2.193.07-.072.068-.072-2.298-2.194-.069.073Zm2.298 2.193-.094-.035-.53 1.441.094.034.094.035.53-1.441-.094-.034Zm-.53 1.44.014.099 1.87-.273-.015-.099-.014-.099-1.87.273.015.099Zm1.869-.273-.1.011.16 1.444.1-.011.1-.011-.16-1.444-.1.011Zm.16 1.444.015.099 6.81-1.001-.015-.099-.015-.099-6.81 1.001.015.099Zm6.81-1.001-.1.014.052.357.099-.014.099-.014-.051-.357-.1.014Zm.05.357-.1.009.264 2.957.1-.009.099-.009-.263-2.957-.1.009Zm.263 2.957-.1.008.15 1.735.1-.009.1-.008-.15-1.735-.1.009Zm.15 1.734-.1.009.17 1.817.1-.009.1-.01-.17-1.816-.1.009Zm.17 1.817-.1.009.099 1.023.1-.01.099-.01-.099-1.022-.1.01Zm.098 1.022.011.099 2.349-.263-.011-.1-.011-.099-2.349.264.011.099Zm2.349-.264.011.1 2.766-.315-.012-.099-.01-.099-2.766.314.01.099Zm2.765-.314-.098.018.093.495.098-.018.099-.018-.093-.496-.099.019Zm.093.495.015.099 3.4-.506-.015-.099-.015-.099-3.4.506.015.099Zm3.4-.506.098-.019-.283-1.481-.099.019-.098.018.283 1.482.099-.019Zm-.284-1.481.015.099 3.508-.516-.015-.099-.014-.099-3.508.516.014.099Zm3.508-.516-.099.016.217 1.317.099-.017.099-.016-.217-1.316-.099.016Zm.217 1.316.01.1 2.878-.274-.01-.1-.009-.099-2.879.274.01.099Zm2.879-.274.098.019.618-3.183-.098-.02-.098-.019-.618 3.184.098.019Zm.618-3.184.02.099 1.643-.332-.02-.098-.02-.098-1.643.331.02.098Zm1.644-.331.01.1.639-.067-.01-.099-.011-.099-.639.066.01.099Zm.638-.066.1-.014-.156-1.09-.099.014-.099.014.155 1.09.1-.014Zm-.155-1.09.016.099.551-.087-.015-.099-.016-.099-.552.087.016.099Zm.552-.087.098-.017-.5-2.88-.098.017-.099.017.5 2.88.099-.017Zm-.5-2.88.016.099 2.736-.454-.017-.099-.016-.098-2.736.454.017.098Zm2.735-.454-.098.017.195 1.13.098-.017.099-.017-.195-1.13-.099.017Zm.195 1.13.016.099.958-.149-.016-.099-.015-.099-.958.149.015.099Zm.958-.149-.098.016.289 1.708.099-.016.098-.017-.289-1.708-.099.017Zm.29 1.708.016.098 3.554-.614-.017-.099-.017-.098-3.553.614.016.099Zm3.553-.615.096.031.298-.945-.095-.03-.095-.03-.3.944.096.03Zm.299-.944.095.033 1.045-3.04-.094-.033-.095-.032-1.046 3.04.095.032Zm1.046-3.04.094.034.232-.651-.095-.033-.094-.034-.231.651.094.033Zm.231-.65.017.098.582-.097-.017-.099-.016-.099-.582.098.016.099Zm.582-.098-.013.099 2.571.335.013-.099.013-.099-2.57-.335-.014.099Zm2.571.335.1.004.144-3.602-.1-.005-.1-.004-.144 3.603.1.004Zm.144-3.603-.051.086 1.298.78.051-.086.052-.086-1.298-.779-.052.085Z"/><path id="Запорізький" fill="#C8C6C6" fill-rule="evenodd" d="m155.465 54.566.458-.083-.556-3.241-.772.139-.16-.526-.242-.114-.124-.175-.01-.212.324-.057-.262-.278.01-.212-.206-.093-.603-.01-3.25.438.18-.603.356-.315-1.715-.367.077-.377-1.499-.314-2.709.289.319-2.137.134-1.223.268-2.183-.217-1.528-.185-1.187-2.256.34-1.607.222-1.097.145.098.94.195.273-.103.165.16.17.041.542-.082.165.056.718-.236.077-1.118.29-.309.056.165.914.834-.14.237 1.332-.752.438.463 3.164-.267.186.216 1.337.067.583.427 2.957.237 1.755.145.909.412 2.704.02.274-.149.464-.129.222.01.315-.237.5-.092-.015-2.648 7.272-.232.625-.35-.072-1.442-.16-.232-.47-.397-.687-.231-.196-.5-.701.108-.109-.53-.728-1.556.924-3.163 1.667-.092.073-2.54 1.197-1.035.717-4.121 1.09-.391-.14-.577-.305-.407-2.678-.098-.728-3.935.114-3.781.134.943-1.631-1.54.041h-1.788l-.026-.124-.118-2.513-2.354.093-.103-2.266-2.699.088-.464.005-.695-.29-.453-.154-.495-.97-.221-.501-.371-.976-.515.527-.247.031-.026.17-.284.114-.185-.13-.16.197-.293-.145-.088.46-.134.206-.34.284-.02.109-.891.624-.191.294-.505.63h-.093l-.113.32-.175.217-.051.19-.304.109-.129.145.041.206-.02.857.129.315-.047.247.082.202-.01.474-.098.238.114.418.026.485.077.186-.077.211-.057.532-.129.057-1.262-1.038-1.514-.485-2.375-.15-1.596.424-.907.428-.633 1.053-.031.718-.17.768-1.33 4.14-1.941 3.07-3.184 1.962-2.915 1.465-1.808.393-1.978.268-2.37-.397-1.622-.155-2.796-2.606.654-.506.644-.671.34-.63.149-.784-.36-1.265-.5.346-.995.052-.546.098-1.21.036.283-.134.7-.099.645-.061.901-.145.562-.418-.088-.403-.155-.335-.345-.294-.267-.088-.304.083-.804.36.077-.16.752-.52-.561-.795-.984.015v-.14l.706-.118-.124-.702-.505-.263-.242-.5.515.118.026.196.201.134.335-.48-.113-.438.396-.532-.741-4.222-1.437.253-.103-.604-.51-2.73-.278-1.708 2.75-.46-.68-4.278 2.205-.093-.35-1.827.468-.088-.242-1.43.88-.15-.638-3.71-2.478.552-2.915.64-.134-.743-.778-4.728-.33-1.78.408-.372.474-.361 1.18-.77-.135-.676-.206-1.243-.18-.991-2.22.371-.613-3.515v-.16l-.17-.16-.381-.056-.088.123-.561.284-.526.625-.489.294-.83.17-.226.155-.716.367-.18-.76-.294-1.47.026-.005-.489-2.524-.304-1.677 4.054-.635.103-.583-.165-1.6 1.86-.424.458-.087.036.242.325 1.425 3.178-.589-.407-.867-.376-2.157.262-.041-.468-2.669-.17-.898-.073.047-2.915.449-.397-2.199-.108-.464-.448-1.466-.386.01-.598.103-.33-2.916-.298-1.734.695-.129.907-.124 1.509-.248-.443-2.043-.88-5.317-.418-2.59 1.952-.099.242.852 2.936-.449.34 2.023-.705.114-.036 1.223-.036.01.334 1.678 1.273-.197.02.274 1.097-.201 3.127-.522.577-.082.175.46.067.355.556-.15 1.246-.412.454-.031.355-.17.99-.16.555-.124.062-.357.129-.418.31-.686.17-.14.421-.552.526-.624.35-.269.932-.01.381-.041.52-.258.83-.547.391-.109 1.2-.093.392.073.762.067.825.129.504.113.32.016.55.15.557.03.536-.15.391-.257.84-.356.618-.44.51-.397.123-.139.263-.067 1.21.108.773-.299.284.238.252.103.788.428.731.041.35-.03.742-.13.969-.552.448-.14.88-.216h.696l.587.217.644.402.814.614.5.351.777.388.268.443.356.191.273-.056.195-.037.211.212.479.031.052.165.34-.124.252.109.412.005.217.062.051.17.557.057.221.088.216-.062.176-.186.525.372.484.381.289.016.097-.109.33.052-.005.16.144.176.526.129.159-.047.34.145.289.185.103 1.053 2.008-.253-.051-.252.402.134.221-.036.386.196.299-.021.34.222.211-.062.763.392.206-.067.252.093.247.284.16.03.371-.071.206-.098.366.04.247-.102.386.051.268-.16.309.072.17.12.536.231-.016.109.418 2.374 2.503-1.161 2.426-1.332 2.395-1.306 3.276-1.806 2.962-1.616 1.03-.598.587-.5.381.644 2.019 3.448.958 1.595 1.128-.13v-.195l1.453.123.706.315.607-.118 1.025-.393.443-.242.155.924.396 2.074.304 1.384 1.123-.258 6.16-1.435 1.51-.346.546-.227 3.131-1.244.315-.119.664.3.052.232-.073.387.155.145.546-.078.134.093-.005.78-.093.268-.597.01-.181.227-.391.207-.031.252.386.687-.026.211-.19.548.139.227.149-.005.304-.486.191-.056.628.578v.253l-.407-.026-.474.794-.031.269-.196.707 6.449-1.946.093-.046.479 1.543-.175.057.819 2.658-2.642.82.581 1.76-.005.114.397.051 1.355.222.345 2.498.402 1.255-1.942.779.324.934 1.309-.578.587-.289.443 2.033.489 2.395.871-.64 1.179-.805.175.268.752 1.456-.788.418.361.733 1.097 2.11-.484.248.597 1.12.531-.325.17.17-.309.243-.222.284-.252.589-.124.087-.283.532-.417 1.388.02.398-.716.113-1.277.227-.69.083-.459-2.312-.118-.48-2.236.428.283 1.497.958.098.438 2.415.86-.124.732-.056.087-.062.541.108.134.877 2.447-.392 3.291-.537.809-.103-.134-.83 1.355-.285.329.088-.046.656-.381 1.068-.34.444.031.366.088.191.18-.134.165.026.061.33.294.207-.015.113-.088.387.314.062-.005.18.314.145.119.135-.15.474-.293-.108-.005.294.458.114-.041.15-.201.015.242.46-.51.257.232.3h.175l.211.304-.108.284-.206.077-.18-.222-.381-.118-.402.036-.139.144.062.207-.165.444.232.454-.273.248-.268-.088-.093.175.015.3-.097.077-.17-.294-.206.098.123.33-.232.145.067.315-.309.051-.031.165.258.073-.16.407.34.181.232-.237.17.077.031.377-1.942.026-2.926.005-2.22.263-2.178.336-1.221.2-4.538.729.53 5.15-3.363.48-.453.078" clip-rule="evenodd"/><path stroke="#000" stroke-linecap="round" stroke-linejoin="round" stroke-width=".2" d="m155.465 54.566.458-.083-.556-3.241-.772.139-.16-.526-.242-.114-.124-.175-.01-.212.324-.057-.262-.278.01-.212-.206-.093-.603-.01-3.25.438.18-.603.356-.315-1.715-.367.077-.377-1.499-.314-2.709.289.319-2.137.134-1.223.268-2.183-.217-1.528-.185-1.187-2.256.34-1.607.222-1.097.145.098.94.195.273-.103.165.16.17.041.542-.082.165.056.718-.236.077-1.118.29-.309.056.165.914.834-.14.237 1.332-.752.438.463 3.164-.267.186.216 1.337.067.583.427 2.957.237 1.755.145.909.412 2.704.02.274-.149.464-.129.222.01.315-.237.5-.092-.015-2.648 7.272-.232.625-.35-.072-1.442-.16-.232-.47-.397-.687-.231-.196-.5-.701.108-.109-.53-.728-1.556.924-3.163 1.667-.092.073-2.54 1.197-1.035.717-4.121 1.09-.391-.14-.577-.305-.407-2.678-.098-.728-3.935.114-3.781.134.943-1.631-1.54.041h-1.788l-.026-.124-.118-2.513-2.354.093-.103-2.266-2.699.088-.464.005-.695-.29-.453-.154-.495-.97-.221-.501-.371-.976-.515.527-.247.031-.026.17-.284.114-.185-.13-.16.197-.293-.145-.088.46-.134.206-.34.284-.02.109-.891.624-.191.294-.505.63h-.093l-.113.32-.175.217-.051.19-.304.109-.129.145.041.206-.02.857.129.315-.047.247.082.202-.01.474-.098.238.114.418.026.485.077.186-.077.211-.057.532-.129.057-1.262-1.038-1.514-.485-2.375-.15-1.596.424-.907.428-.633 1.053-.031.718-.17.768-1.33 4.14-1.941 3.07-3.184 1.962-2.915 1.465-1.808.393-1.978.268-2.37-.397-1.622-.155-2.796-2.606.654-.506.644-.671.34-.63.149-.784-.36-1.265-.5.346-.995.052-.546.098-1.21.036.283-.134.7-.099.645-.061.901-.145.562-.418-.088-.403-.155-.335-.345-.294-.267-.088-.304.083-.804.36.077-.16.752-.52-.561-.795-.984.015v-.14l.706-.118-.124-.702-.505-.263-.242-.5.515.118.026.196.201.134.335-.48-.113-.438.396-.532-.741-4.222-1.437.253-.103-.604-.51-2.73-.278-1.708 2.75-.46-.68-4.278 2.205-.093-.35-1.827.468-.088-.242-1.43.88-.15-.638-3.71-2.478.552-2.915.64-.134-.743-.778-4.728-.33-1.78.408-.372.474-.361 1.18-.77-.135-.676-.206-1.243-.18-.991-2.22.371-.613-3.515v-.16l-.17-.16-.381-.056-.088.123-.561.284-.526.625-.489.294-.83.17-.226.155-.716.367-.18-.76-.294-1.47.026-.005-.489-2.524-.304-1.677 4.054-.635.103-.583-.165-1.6 1.86-.424.458-.087.036.242.325 1.425 3.178-.589-.407-.867-.376-2.157.262-.041-.468-2.669-.17-.898-.073.047-2.915.449-.397-2.199-.108-.464-.448-1.466-.386.01-.598.103-.33-2.916-.298-1.734.695-.129.907-.124 1.509-.248-.443-2.043-.88-5.317-.418-2.59 1.952-.099.242.852 2.936-.449.34 2.023-.705.114-.036 1.223-.036.01.334 1.678 1.273-.197.02.274 1.097-.201 3.127-.522.577-.082.175.46.067.355.556-.15 1.246-.412.454-.031.355-.17.99-.16.555-.124.062-.357.129-.418.31-.686.17-.14.421-.552.526-.624.35-.269.932-.01.381-.041.52-.258.83-.547.391-.109 1.2-.093.392.073.762.067.825.129.504.113.32.016.55.15.557.03.536-.15.391-.257.84-.356.618-.44.51-.397.123-.139.263-.067 1.21.108.773-.299.284.238.252.103.788.428.731.041.35-.03.742-.13.969-.552.448-.14.88-.216h.696l.587.217.644.402.814.614.5.351.777.388.268.443.356.191.273-.056.195-.037.211.212.479.031.052.165.34-.124.252.109.412.005.217.062.051.17.557.057.221.088.216-.062.176-.186.525.372.484.381.289.016.097-.109.33.052-.005.16.144.176.526.129.159-.047.34.145.289.185.103 1.053 2.008-.253-.051-.252.402.134.221-.036.386.196.299-.021.34.222.211-.062.763.392.206-.067.252.093.247.284.16.03.371-.071.206-.098.366.04.247-.102.386.051.268-.16.309.072.17.12.536.231-.016.109.418 2.374 2.503-1.161 2.426-1.332 2.395-1.306 3.276-1.806 2.962-1.616 1.03-.598.587-.5.381.644 2.019 3.448.958 1.595 1.128-.13v-.195l1.453.123.706.315.607-.118 1.025-.393.443-.242.155.924.396 2.074.304 1.384 1.123-.258 6.16-1.435 1.51-.346.546-.227 3.131-1.244.315-.119.664.3.052.232-.073.387.155.145.546-.078.134.093-.005.78-.093.268-.597.01-.181.227-.391.207-.031.252.386.687-.026.211-.19.548.139.227.149-.005.304-.486.191-.056.628.578v.253l-.407-.026-.474.794-.031.269-.196.707 6.449-1.946.093-.046.479 1.543-.175.057.819 2.658-2.642.82.581 1.76-.005.114.397.051 1.355.222.345 2.498.402 1.255-1.942.779.324.934 1.309-.578.587-.289.443 2.033.489 2.395.871-.64 1.179-.805.175.268.752 1.456-.788.418.361.733 1.097 2.11-.484.248.597 1.12.531-.325.17.17-.309.243-.222.284-.252.589-.124.087-.283.532-.417 1.388.02.398-.716.113-1.277.227-.69.083-.459-2.312-.118-.48-2.236.428.283 1.497.958.098.438 2.415.86-.124.732-.056.087-.062.541.108.134.877 2.447-.392 3.291-.537.809-.103-.134-.83 1.355-.285.329.088-.046.656-.381 1.068-.34.444.031.366.088.191.18-.134.165.026.061.33.294.207-.015.113-.088.387.314.062-.005.18.314.145.119.135-.15.474-.293-.108-.005.294.458.114-.041.15-.201.015.242.46-.51.257.232.3h.175l.211.304-.108.284-.206.077-.18-.222-.381-.118-.402.036-.139.144.062.207-.165.444.232.454-.273.248-.268-.088-.093.175.015.3-.097.077-.17-.294-.206.098.123.33-.232.145.067.315-.309.051-.031.165.258.073-.16.407.34.181.232-.237.17.077.031.377-1.942.026-2.926.005-2.22.263-2.178.336-1.221.2-4.538.729.53 5.15-3.363.48-.453.078"/><path id="Пологівський" fill="#C8C6C6" fill-rule="evenodd" d="m151.307 136.133.232 3.148-.68 1.75.736.315-.067 1.899-3.27.465.221 1.759-2.07.284-.294-1.775-3.992.521-.026.026-1.999.258-1.931.258-.175-.377-3.467.424.078.681-2.766.356-.773-7.102-.144-.046-.268.088-.33.005-.118-.651-.366-1.801.263.01-1.473-1.79-1.216-1.446-.381-.485-.984-1.171-1.401-.217-.762.655-.35.258-.531.31-2.215-.279.072-.216-2.812-.289-.134.304-.489-.144-.495-.32-.453-.15.015-.129-.335-.289-.329-.17.051-.661-.046-.103 1.571-3.211-1.628-.701-1.622-.682-2.56-.965.561-1.311 2.849 1.089 1.416-4.506-1.561-.423 1.417-3.324.34-.789-.649-.356.942-1.652.928.511 1.452-2.106 1.123-1.558 1.983 1.12.273-.604.551-.924-1.025-.594 1.798-2.983.226.165.588-.789-.51-.393-1.844-2.26 2.204-3.546.629-.95 1.535-2.095 1.658-2.297.242-.345.67-.883 1.87-2.364-.567-.413-1.746-.056-2.241-.099-1.906-.051-1.555.036-.222-1.559-.051-.248-.35-2.193-.866-5.729-.123-.759-.5-3.07-.639-4.222.577.304.392.14 4.12-1.09 1.036-.717 2.539-1.197.093-.073 3.162-1.667 1.556-.924.53.728-.108.109.5.702.232.195.396.687.232.47 1.442.16.351.072.231-.625 2.648-7.272.093.015.236-.5-.01-.315.129-.222.149-.464-.02-.274-.412-2.704-.144-.909-.237-1.755-.428-2.957-.067-.583-.216-1.337.268-.186-.464-3.163.752-.44-.237-1.33-.834.139-.165-.914.309-.057 1.118-.289.237-.077-.057-.718.082-.165-.041-.542-.16-.17.104-.165-.196-.274-.098-.939 1.097-.145 1.607-.221 2.256-.341.186 1.187.216 1.528-.268 2.183-.134 1.223-.319 2.137 2.709-.29 1.499.316-.077.377 1.715.366-.355.315-.181.604 3.251-.44.602.011.206.093-.01.212.263.278-.325.057.01.212.124.175.242.114.16.526.772-.14.557 3.242-.459.083.453-.078 3.364-.48-.531-5.15 4.538-.728 1.221-.202 2.179-.335 2.22-.263 2.926-.005 1.941-.026-.031-.377-.17-.077-.231.237-.34-.18.159-.408-.257-.073.031-.165.309-.051-.067-.315.232-.145-.124-.33.206-.098.17.294.098-.077-.015-.3.092-.175.268.088.273-.248-.232-.454.165-.444-.062-.207.14-.144.401-.036.381.118.181.222.206-.077.108-.284-.211-.305h-.175l-.232-.299.51-.258-.242-.46.2-.015.042-.15-.459-.113.005-.294.294.108.149-.474-.118-.135-.314-.144.005-.18-.314-.063.087-.387 5.779-.087.273.588.366.63.124.825.051.212 1.916-.274.042.233.88-.176 2.025-.438-.15-.109-.087-.237.18-.248-.031-.155-.201-.191.113-.377-.206-.134-.082-.17-.356-.33.073-.403.298-.005 2.993.16.968.02.201 1.105.86-.13.938-.077.556.14.649.273.577-.062.247-.093.557.176.793.046.505.238.427.14 2.06.004.68-.082 3.508-.522-.16-.96 5.44-1.378 1.617-.407.33 1.274-.273 1.095-.5 1.878-.906.13v1.057l-.042 2.88.68.057 2.498-.438 1.18-.223 2.735-.474.448 2.606.299 1.652-.144.15.293 1.692.129.841.17.898 1.241-.216.412 2.555.124.815.381 2.338.196 1.11 1.777-.222 2.189-.253 2.72-.336-.186.135.212.34-.114.13-.639.05-.288.476.366.196.02.175-.263.083.083.134-.083.18-.216-.03.046.232-.18.057-.118.356-.139.082-.165-.15-.345-.154.072-.155-1.324.14.057.562-2.514.268-.577.083.418 2.482.19 1.08 1.514-.166 1.407-.18.51-.027-.052.532.02.439.062.356-.659.067-.361.077-.731.073.015.289.212 1.615.679-.088.732-.051-.227.557.093.346.118-.02 1.02-.568 3.941-2.055.597-.335 1.102 2.121.567 1.007.84 1.528 1.339 2.503.675 1.213.824 1.563 1.777-1.615.438-.377 2.101-1.91.994 1.471.912 1.404 1.154-.934.319.516 1.463 2.214 1.715-1.811 2.153 3.587 1.164 1.987 1.051 1.77.386.361.536-.573 1.633 1.44 2.179 1.905-.145.103 1.015.712 1.515 1.032.329-.588 1.561-3.02 1.396.615-.515.93-.052.32.16-.027 1.303.031.134.238.252.026-.005-.264.278-.093.567.021.252.093 1.288.02.005-.103.469.005-.474 1.193.716.289-.654 1.77-.325.83-.376-.154-.165.485-.916 2.39-.335.795-.809 2.07-.937 2.322.762 2.209-.453.217-3.075 1.563-1.36-4.985-1.339.268-1.978.387 1.298 4.454-.778.419-1.731.872.222.49-.999.532.092.227-.154.108.015.196-.113.191.175.176-1.602.655-2.38 1.177-.128-.145.066-.263-.015-.299-.149-.423-.114.031-.412-.398-.097-.371-2.468.196-2.122.139-2.168.16-.217-1.203-.803.099-.721.051.211 1.389.536 1.868.128.903.34 2.751.387 2.834.36 1.63.556-.087.201.991.376 2.431-.458.01-.634.062-1.545.036-.051-.795-1.077.052-.628.051-1.422.021-.16.743h-.618l-.438.042h-.71l-1.427.067-.186.201-.53.134-.047-.103-.885-.041-1.788.103.01.222-.937.026-1.437-.078-.067-.015.427-.852-3.729.202-4.512.278-1.293.067-.026.166.217.376.309.295-1.777.175.129 1.45.412 4.14-2.555.603-4.172.981-4.512 1.048-3.869.944-.437-4.965-.042-.552-.144-1.43-.072-.867-1.514.134-.763.042-2.003.149-1.947.166-.546.015.901-1.352 1.834-2.772 1.076-1.595-.237-1.037-.906-3.881.005-.279-.314-.268-1.164-.857-1.427-1.074-1.545-1.192-.958-.723-.634-.01-1.545 4.645-1.077-.366-1.463-.568.042-.315-.145.005.098-.805-3.611-1.089-.056.831-.659-.201.097-.268.021-.284-1.612-.114-.361.119-.371.026-.278.124-.433.108-.221.294-.35.114-2.885-.609-.7-1.342 1.045-.65-1.823-3.727-.567.238-1.813-.692-3.09-1.135-2.72.139-2.014.134-2.879.165-1.288-.531-2.122 3.04.33.686-.881 1.265.417 2.172.252.651.139-.052.876 2.23.577 1.517.18-.268.273.284.505.351.093.129-.757 3.122-.145.64.036 2.219-3.028.098-7.495.217-1.576.052-1.823.046.046.532.021.341.237 2.833 1.205 1.104.077.284.108 1.342 1.025-.124.201 1.765-.947.119.288 4.078.082 1.378 3.204-.279 1.551-.108.185 2.451" clip-rule="evenodd"/><path stroke="#000" stroke-linecap="round" stroke-linejoin="round" stroke-width=".2" d="m151.307 136.133.232 3.148-.68 1.75.736.315-.067 1.899-3.27.465.221 1.759-2.07.284-.294-1.775-3.992.521-.026.026-1.999.258-1.931.258-.175-.377-3.467.424.078.681-2.766.356-.773-7.102-.144-.046-.268.088-.33.005-.118-.651-.366-1.801.263.01-1.473-1.79-1.216-1.446-.381-.485-.984-1.171-1.401-.217-.762.655-.35.258-.531.31-2.215-.279.072-.216-2.812-.289-.134.304-.489-.144-.495-.32-.453-.15.015-.129-.335-.289-.329-.17.051-.661-.046-.103 1.571-3.211-1.628-.701-1.622-.682-2.56-.965.561-1.311 2.849 1.089 1.416-4.506-1.561-.423 1.417-3.324.34-.789-.649-.356.942-1.652.928.511 1.452-2.106 1.123-1.558 1.983 1.12.273-.604.551-.924-1.025-.594 1.798-2.983.226.165.588-.789-.51-.393-1.844-2.26 2.204-3.546.629-.95 1.535-2.095 1.658-2.297.242-.345.67-.883 1.87-2.364-.567-.413-1.746-.056-2.241-.099-1.906-.051-1.555.036-.222-1.559-.051-.248-.35-2.193-.866-5.729-.123-.759-.5-3.07-.639-4.222.577.304.392.14 4.12-1.09 1.036-.717 2.539-1.197.093-.073 3.162-1.667 1.556-.924.53.728-.108.109.5.702.232.195.396.687.232.47 1.442.16.351.072.231-.625 2.648-7.272.093.015.236-.5-.01-.315.129-.222.149-.464-.02-.274-.412-2.704-.144-.909-.237-1.755-.428-2.957-.067-.583-.216-1.337.268-.186-.464-3.163.752-.44-.237-1.33-.834.139-.165-.914.309-.057 1.118-.289.237-.077-.057-.718.082-.165-.041-.542-.16-.17.104-.165-.196-.274-.098-.939 1.097-.145 1.607-.221 2.256-.341.186 1.187.216 1.528-.268 2.183-.134 1.223-.319 2.137 2.709-.29 1.499.316-.077.377 1.715.366-.355.315-.181.604 3.251-.44.602.011.206.093-.01.212.263.278-.325.057.01.212.124.175.242.114.16.526.772-.14.557 3.242-.459.083.453-.078 3.364-.48-.531-5.15 4.538-.728 1.221-.202 2.179-.335 2.22-.263 2.926-.005 1.941-.026-.031-.377-.17-.077-.231.237-.34-.18.159-.408-.257-.073.031-.165.309-.051-.067-.315.232-.145-.124-.33.206-.098.17.294.098-.077-.015-.3.092-.175.268.088.273-.248-.232-.454.165-.444-.062-.207.14-.144.401-.036.381.118.181.222.206-.077.108-.284-.211-.305h-.175l-.232-.299.51-.258-.242-.46.2-.015.042-.15-.459-.113.005-.294.294.108.149-.474-.118-.135-.314-.144.005-.18-.314-.063.087-.387 5.779-.087.273.588.366.63.124.825.051.212 1.916-.274.042.233.88-.176 2.025-.438-.15-.109-.087-.237.18-.248-.031-.155-.201-.191.113-.377-.206-.134-.082-.17-.356-.33.073-.403.298-.005 2.993.16.968.02.201 1.105.86-.13.938-.077.556.14.649.273.577-.062.247-.093.557.176.793.046.505.238.427.14 2.06.004.68-.082 3.508-.522-.16-.96 5.44-1.378 1.617-.407.33 1.274-.273 1.095-.5 1.878-.906.13v1.057l-.042 2.88.68.057 2.498-.438 1.18-.223 2.735-.474.448 2.606.299 1.652-.144.15.293 1.692.129.841.17.898 1.241-.216.412 2.555.124.815.381 2.338.196 1.11 1.777-.222 2.189-.253 2.72-.336-.186.135.212.34-.114.13-.639.05-.288.476.366.196.02.175-.263.083.083.134-.083.18-.216-.03.046.232-.18.057-.118.356-.139.082-.165-.15-.345-.154.072-.155-1.324.14.057.562-2.514.268-.577.083.418 2.482.19 1.08 1.514-.166 1.407-.18.51-.027-.052.532.02.439.062.356-.659.067-.361.077-.731.073.015.289.212 1.615.679-.088.732-.051-.227.557.093.346.118-.02 1.02-.568 3.941-2.055.597-.335 1.102 2.121.567 1.007.84 1.528 1.339 2.503.675 1.213.824 1.563 1.777-1.615.438-.377 2.101-1.91.994 1.471.912 1.404 1.154-.934.319.516 1.463 2.214 1.715-1.811 2.153 3.587 1.164 1.987 1.051 1.77.386.361.536-.573 1.633 1.44 2.179 1.905-.145.103 1.015.712 1.515 1.032.329-.588 1.561-3.02 1.396.615-.515.93-.052.32.16-.027 1.303.031.134.238.252.026-.005-.264.278-.093.567.021.252.093 1.288.02.005-.103.469.005-.474 1.193.716.289-.654 1.77-.325.83-.376-.154-.165.485-.916 2.39-.335.795-.809 2.07-.937 2.322.762 2.209-.453.217-3.075 1.563-1.36-4.985-1.339.268-1.978.387 1.298 4.454-.778.419-1.731.872.222.49-.999.532.092.227-.154.108.015.196-.113.191.175.176-1.602.655-2.38 1.177-.128-.145.066-.263-.015-.299-.149-.423-.114.031-.412-.398-.097-.371-2.468.196-2.122.139-2.168.16-.217-1.203-.803.099-.721.051.211 1.389.536 1.868.128.903.34 2.751.387 2.834.36 1.63.556-.087.201.991.376 2.431-.458.01-.634.062-1.545.036-.051-.795-1.077.052-.628.051-1.422.021-.16.743h-.618l-.438.042h-.71l-1.427.067-.186.201-.53.134-.047-.103-.885-.041-1.788.103.01.222-.937.026-1.437-.078-.067-.015.427-.852-3.729.202-4.512.278-1.293.067-.026.166.217.376.309.295-1.777.175.129 1.45.412 4.14-2.555.603-4.172.981-4.512 1.048-3.869.944-.437-4.965-.042-.552-.144-1.43-.072-.867-1.514.134-.763.042-2.003.149-1.947.166-.546.015.901-1.352 1.834-2.772 1.076-1.595-.237-1.037-.906-3.881.005-.279-.314-.268-1.164-.857-1.427-1.074-1.545-1.192-.958-.723-.634-.01-1.545 4.645-1.077-.366-1.463-.568.042-.315-.145.005.098-.805-3.611-1.089-.056.831-.659-.201.097-.268.021-.284-1.612-.114-.361.119-.371.026-.278.124-.433.108-.221.294-.35.114-2.885-.609-.7-1.342 1.045-.65-1.823-3.727-.567.238-1.813-.692-3.09-1.135-2.72.139-2.014.134-2.879.165-1.288-.531-2.122 3.04.33.686-.881 1.265.417 2.172.252.651.139-.052.876 2.23.577 1.517.18-.268.273.284.505.351.093.129-.757 3.122-.145.64.036 2.219-3.028.098-7.495.217-1.576.052-1.823.046.046.532.021.341.237 2.833 1.205 1.104.077.284.108 1.342 1.025-.124.201 1.765-.947.119.288 4.078.082 1.378 3.204-.279 1.551-.108.185 2.451"/></svg>