<svg xmlns="http://www.w3.org/2000/svg" width="217" height="281" fill="none" viewBox="0 0 217 281"><path id="Житомирський" fill="#C8C6C6" fill-rule="evenodd" d="m186.774 245.128-.381-.055-.109-.11-.901-.206-.088-.794-.783-.045-2.214-.094-.15.063-.092.451.309.151.046.235-.139.11-.371.003-.015.211-.201.059-.191.189.211.15.737.008.01.585-.268.367-.474 1.005-1.174-.147-1.046-3.412-2.183-.221-1.777-.15.108-1.153-.119-.082-.02-.728.18-.004-.026-.596-.849-.046-.449.026-.067-.671.83-.531.324-.168-.68-2.978-.468-2.157-.34-.208-.212.02-.365-.311-.66-.326-.36-.49-.098-.235.031-.851.809-1.695-.67-.528.273-.301.232.179.319-.054 1.381.147 3.399.333.309-2.973-.242.043-.607-1.01.077-.127.51-.107-.114-.953-.412-.427-.386-.162.088-.305-.052-.305 2.673-1.596-1.39-2.32-.036-.101-.572-.967-.299-.121-1.952-.421.175-.732.283-.453.093-.344.366.018.572-.229.015-.337.402-.237-.078-.108-.005-1.44-.185-.443.237-1.254-.17-.35-.325-.104-.798-.431-.603-.149-2.385-.819.376-.511v-.073l.706-1.179-.948-.217-.401-1.479-2.339.166-.046-.615.479-.05.288-.182-.062-.78-.34.077-.643.312-.516-.197-.638.029-.098.32-.119.011-.206.102-.535-.007-.016 1.145.042 1.885.036.942.082 2.952-.458.03-.418-.091-.453.267-.706.176-.242.425-.638.765.443.386-.387.783-.649.732-.376-.021-.824-.81-.757.834-.242.328-1.643-1.823-1.149 1.4-.041.222-.386-.156-.68-.636-.309-.186-.392-.014-.082-.256-.216-.163-.273.077-.33-.323-.289-.078-.247-.163-.206.063-.304-.393-.432-.031-.989 1.321-.763.966-.36.148-.237-.096-.098-.322-.283.042-.124.279-.325.372-1.694 1.263-2.818-.656.129-.28.464-.539.051-1.373-.314-.161.165-.688.314-.158.072-.269.289-.351-.479-.159-.114-.277.196-.464-.211-.101.046-.232.258-.564.092-.109.382-.173.329.213.423-.046.01-.267-.412-.629-.041-.218-.248-.395-.19.035.005-.27.35-.238-.113-.28-.201-.208.026-.199.381-.196.103-.19.407-.322-.021-.397.814-2.26.217-.538.067-.036-.134-.108-.943-.35-.294-.162-.314-.03-.87.868-.974.308-.875.801-.186.007.098.544-.453-.056-.474.13-.294.309-.669.825-.345.292-.485.537-.7 1.037-1.051.819.263.412.257.049.366.284.495.157-.176.395.155.545-.098.08-.252-.173-.175.252-.243.076-.195.492-.263.104h-.479l-.242.153-.422.011-.443-.046-.268.177-.304-.191-.386-.111-.294-.192-.196-.274-.288-.217-.387.893-.504.103.046.695-.144.005-.438.299-1.875.553-.35 1.477-.469 2.749-2.374-.86-.371-.241-.114-.333-.37-.285-.423-.429-.165.016-.376-.276-.051-.234-.175-.008-.212-.313-.52.515-.551-.202-.154.003-.541-.228-.33.008-.268-.066-.329-.202-.335-.029-1.818 2.323-1.185.736-.361.164.083-.796-.438.137-.422-.057-.794-.486-.499-.131-.186.761-.35.035-.319-.042-.449-.254-.221.34.036.589-.108.169-.458-.09-.68.021-.268-.069-.824-.304-.407.059-1.077-.575-.283-.179-.881-.219-.494-.187-.284.037-.844-.46-.33.126-.644.089v-.22l-.319.079-.263-.042-.175.127-.144.515-.407-.158-2.158-.195-.196-.054-.119.401-.216.46.021.499.149.135-.057.449.191.357-.268.214-2.189-.02-.5-.049-.221.198.01.362-.18.463-.217.16-.139.301-.144.092-.082.318.144.183-.041.291-.86.204-.016.308.191.368-.175.263-.382.39-.638.854-.242.168-.309.365-.186.31-.293.205-.067.187.422.293.062.268-.103 1.142.036.369.118.293-.067.739-.113.829-.196-.062.011 1.105-.31.451-.144.713-.422.762-.232.222-.139.232-.273.244-1.7 1.778-.195.15-.248.908-1.004-.365-.19-.031-.577.035-.279-.169-.098.08-.267-.223-.176-.276-.288-.178-.494-.036-.588-.195-.86-.587-.01.198-.222.664-.406-.227.242-.249.026-.693-.279-.15-.303-.032-2.447 2.829-.927-.36-.402.603-.407-.139-.088.606-.535 1.184-.541.134-.386-.085-.294.085-.551.044-1.195.037-.155.412-.262.313-.665-.152-.922 1.138-.33.181-.02.158-.803.068-.083.993-.505.152-.267-.022.025.253-.113.094.057.318.263.018.175-.089.195.139.047.335-.304.121-.02.324.241.334-.886.591-.535.039.026-.33.226-.758.232-.38.067-.341-1.329.301-1.365-.267-.195.053-.098.856-.855-.152.123-.802-.324-.043-.15-2.284-.35-.279-.551-.639.314-.37.216.039.35-.344-1.158-.714-.02-1.411-1.258.024-2.07.07-.788-.143-.778-.262-.391-.314-.13-.456.068-.516-.18-.005-.598-.382-.37-.011-.207.057-.118.198-.428-.159-.566-.167-.407-.233-.52.01-.052.356.263.136.051.362.124.385-.134.49.01.465.067.095-1.545.06-.268 1.083-.237.044-.36-.184-.464-.049-.294.219-.093.595-.267.73.02.514-.15.011-.602.262-.762.117-.407.496-.273.133-.417.472-.175 1.006-.366.654-.469 1.339-.082.481-.16.32-.68.742.345.124.247.381.588.43-.3.947.397.359-.221.266-.14.419-.246 1.113-.18.157.149.221.278.209.144.612.14.344-.315.716.984.433 2.606.934-.175.287-.01.203-.474.489-.005.112-.505-.043-.407.036-.695-.034-.397.33-.15.312.006.598-.273.101-.66.135-.51.142-.921-.009-1.386.23-.391-.017-.742-.281-.016 1.399-1.555.245.02 1.133-.798.805-.154.109-.284-.155-.494.02-.34.121-.407.011-.113-.123-.546-.057-.15-.356-.283-.356-.17-.01-.335-.508-.067-.219-.257-.126-.145-.299-.298-.175-.315-.381.062-.396-.067-.153-.283-.187-.031-.205-.381-.354-.417-.094-.845-.511-.294-.214-1.272-.405-.958-.328.268-1.302.35-.439.402-.148.103-.209.273-.217.304-.497-.088-.234.371-.957-.896-.869-.546-.163-.7-.073-.387-.137-.448.916-.402-.213-.577-.235-.731-.204-.314-.009-.402 1.512-.227.04-.216-.196.2-.36-.298-.288-.221.014.036-.325-.335-.033-.026-.268-.325-.051-.118-.207-.093-.375-.211-.13-.088-.212.248-.155.02-.172-.237-.335-.314-.273.18-.205.02-.212-.195-.108-.237.12-.16-.152.289-.254-.273-.407-.35-.384.072-.282-.273-.056-.036-.151-.253-.184-.056-.244.092-.197.196-.102-.232-.193-.02-.164.34-.184-.031-.241.113-.275-.19-.046-.32-.198-.32-.554.16.025.14-.19-.021-.2.118-.166-.195-.233-.443-.239.062-1.189-.268-.236-.206-.099 1.292-2.183-.525-.191-.963.442-.072-.053-.541.003-.402.093-.062-.732-.396-.13-.206-.134-.294-.46-.654-.389-.165-.26-.041-.249-.53-.235-.407.041-.109.333.088.713-1.113.141-.262-.384.226-.637-.144-3.486.804-.097-.037-1.27.572-.114.201-.164.175.108.356-.097.288-.162-.35-.948-.196-.047-.268-.379-.2-1.123-.083-1.155-.124-1.021-.582-.48-.216-.583-.247-.549-.083-.606-.067-.159-.067-.695.016-.557.628.046.278-.099.392-.384.108-.483.392.033.288-.179.247.15.541.097.314.136.35.226.371.16.551.408 1.072.659.412-.792.747-1.134 1.344-2.088.247-.096.423.18.103.177.49.089.21.183-.061.845 1.035.065.051-.35.145.02.18-.25.103-.371.463-.275-.113-.145.02-.522-.206-.192.067-.415.304-.39-.278-.779-.165-.264-.2-.076.061-.317.289-.332-.083-.261.057-.128-.335-.835-.36-.112.144-.318-.32-.147.042-.431-.675-.16-3.832-.98.582-1.059.613-1.065-.211-.218-.294-.019.072-1.105.603.047.051-.443.587.054.016-.222-.562-.12.031-.4-.53-.109-.072-.125.056-.399.088-1.1.304-.015.129-.283-.155-.176.19-.43-.17-.472.135-.287.293.134.438-.224.479-.06.294.049.097-.744.042-.049.803.048.484-.057.356-.227-.072-.109.324-.266.268.004-.093-.223.145-.145-.376-.361-.201-.269-.474-.39-.335-.38.15-.315-.088-.427.062-.874-.026-.477-.083-.606.14-.19-.13-.133-.432.147-.165-.18-.309-.623.814-.271.036-.162-.17-.511-.66-.159.201-.677.371-.588.634-.258-.2-.062-.259-.208.201-.221.13.219.39.42.29.525.226-.101.438.045.206.117-.31-.723-1.03-1.051.124-.317-.196-.101-.025-.313 1.396-.225 1.107-.489.268.537.108.355-.747.58.057.364-.459.161.325.865.273-.081.726.088.598.132.355.214.196-.367.129-.019-.098-.727.16-.181.02-.721 3.003-.462.139.648-.124.368 2.097-.248-.376-2.221-2.01.294.078-.177-.288-.576v-.327l2.24-.354 2.442-.416.129.661-.207.183 3.457.882.154-.138-.036-.206.31.116 1.153.312-.134.249.062.322-.196.081-.185 1.052.453.179.242-.519.093.015.077-2.229.047-2.733.473-.04.428-.217.505.055.206-.877.123-.274.685.448.407-.346.15-.244.046-.274-.057-.356.232-.486.067-.246.587-.267.098.081.897.455 1.194.228.268-.007 2.545.467.16-1.01-.315-.087-.195-.228.082-.243.237-.041.273.076.752-4.761 2.745 1.15.835-1.717 1.514.601.634-.433.221-.084.15-.175.52-.159.144-.365.294-.24-.459-.294-.479-.388-.953-.878-.86-.752.263-.47.015-.554.165-.437.015-.423.14-.391.159-.165.453-.306-.036-.28-.252-.163.072-.432-.66-.06-1.364-.538-.412-.119-.423-.225-.618-.242-.299-.056-.257.564-.618-.265-.876-.216-.68-.254-.376.058-.479.222-3.343-1.327-.01-.514.258.011.273.106.144.152.896.119.211.221.366.187.19-.064.15-.3.263-.098-.114-.807-.298-.454-.35-.067-.35-.95.164-.156-.31-.291-.767-.02-.17-.394v-.141l.119-.161.221-.055.69-.441.346-.133-.387-1.704-.226-.565-.232-.428-.015-.276.303-2.085.016-.199-.392-.249-.216.004-.417-.172.417-.988.798-2.105.433-.932-.536-.296.984-.272.897-.224 1.2-.271.438-.136 1.225-.324.191-.187-.237-.272-.046-.195-.206-.144-.294.034-.113-.365.633-1.299 1.442.889.531-.912-.463-.257.345-.558.123.047.5-.085.283-.459-.01-.145.18-.219.464-.03.196.189.236.104.103-.238 1.113-1.549-.819-1.998-.196-2.116-.005-.074 1.252-.011.335.28.165.31.911.27.737.505.345-.096.376-.034.757-.149.685-.441.299-.103-.093-.465.567-.274.432-.353.325-.364.469-.24.906.072.634-.153.237-.015.077-.164.226-.13.021-.32.268-.16.479.023 1.107-.121 1.025-1.04.031-.208.16-.046 1.195-.864.402-.138.68-.308.417-.127.577-.116.674-.182.067-.329-.164-.251.252-.162.124-.182.38-.29.17-.326.027-.513.314-.401.051-.337.273-.074.145-.327.262-.339.7-.819.269-.139.304-.288.355-1.285v-.275l-.206-.2-.216-.348-.644-.468-.356-.382-.401-.202-.387-.672-.592-.727-.252-.379-.14-.07-.21-.424.159-.229.144.036.968-.134.335-.019.155-1.233.098-.156.365.37.577.116.536.33.737-.284-.546-.937.726-.776-.232-.513-.02-.213.16-2.224.612-.476 1.937.298.376.239.288-.032.474-.136.134-.526.083-.109.479.15 1.864-.091.314.067 1.015.317 1.015.286.824-.345.232-.241.458-.14.139 1.586.613-.146 1.025-.707.757-.172.109.167.422.088.175.52.139.589 1.231-.274.155.362 1.494-.01.303-1.078.119-.301.592-2.044 1.159.271.479.091-.113.943 1.102-.176.046.736.438.076.263.189.026.242.397.055.087 1.094.201-.005v.305l1.36-.05.278-.243.484-.156.093-.099.355-.05.175-.113.521-.135.257.008.484-.076.253.019.18.535.01.176.237.061.891.649.201.228.283-.026 1.458-.641 1.18-.555.623-.333-.289-.485-.36-.189.01-.452 2.576-.264.133-.089.212.086.68.53.067-.273.515-.019.52.148-.155.232-.01.183-.551.091-.273-.007-.119.269.057.601-.031.281-.397.202-.319.539-.134.304.052.098-.16.297.093.31-.294.442-.448.097-.165.256.181.09.334-.254.17-.048.206-.234.186.009-.047.306.248.156.051.869 3.178-.269 1.298-.16.026.136-.407.325-.165-.022-.968.577-.118.238-.32 1.032.18.578-.087.354.082.468-.293.376-.593.536-.793.387-.736.071.077 1.032.005.702 1.226.047.556-.042.634-.11.165.53-.232.902.077.604.124.686.551-.085 1.164-.69.216-1.587-.33-1.625.263-.087.227-.328.474-.91.129-.114.963-.517 1.705 1.646 1.9.491 1.607.432.979.25.067.335.628.456.819-.759-.268-.684.016-.263-.144-.126.061-.43-.175-.169-.005-.19-.345-.422.052-.267.164-.218.361-.106.082-.142.428-.388-.083-.52.294-.276.052-.154-.011-.124-.267-.117.067-.395.818-.412 2.035-.979 1.798-.841.298.032.598.388-.144.302.752.66.082.267-.036.231.206.146.283.353.407-.478.68-.331.675-.289.417.836 1.35-.629.262.541.644-.014.108-.525.989.116.031.501.124.108.345.089.247.261.186.067.53.065.227.696-.021.995.737.128.278.014.433.438v.558l-.186.041.006.341.741.734.361.307.51.009.736.163.737.056.515-.059.046.582-.855-.14-.015-.124-.417-.117.056.58-.685-.111-.592.013-.258.105-.118-.082-.361.475-.237.493.613.424 1.386.168.572.101 1.828-.14.376-.08.15-.225.252-.136.304-.062.51.024.427-.058.572-.36.345-.047.984-.327.845-.339.087-.066-.046-.307.35-.484.093-.299.252-.375.026-.282.114-.184.917.125.257-.004.191-.103.242.109.061.138.273.056.078.125.541.142.551.043.53.268-.113.226-.072.521.798.094.165.454-.139.882.361.074 2.08.564.15.016.056.441.16.716.52.581.634-.134.438-1.694.865.168.598-.08.437-.181 1.149-1.613 1.004-1.474-.788-.271-.695-.578.355-.766.855.541.021.086.762.413.356-.637 1.148 1.175.284.268.479-.616.046.041 1.859-.83.907-.237.273-.489.18-.676-.19-.273.17-.322.891.067.814-.306.103-.182.499-.219.613-.002.232-1.275-.247-1.014 1.988.337.371-.228.649-.474.366-1.052.751-.042.145.262.314 1.087-.242.267-.17.431.201.168.489.053.17.094.623.1.042-.188.53.104.021-.392-.057-.24-.33-.816-.299-.481-.396-.81-.319-.545.942.235.186.35-.021.183.561-.024.237.397-.051.431.345-.045.015-.231-.149-.397.18-.148.737-.114.005 1.277-.551.248-.567.446.217.453-.479.462 1.401.256-.067.242.819.245.164.23-.087.325.19.063.176.272.922.39-.119.128.258.246-.078.092.521.394.576.119.603-.059.242.177.196-.253.257.143.176-.274.067-.61.304-.501.252-.069.268-.581.85-.882.293-.555.077-.333-.056-.173-.469-.221.01-.393-.242-.538.144-.402-.02-.17.185-.388.433.11.185.156-.097.211.19.223.309.535.253-.142.128.069.109.299-.145.503-.164.134-.243.503-.237.928-.19.65-.345.527-.247.156-.196.581-.237.004-.046.18-.325-.03-.211.528-.18.137-.521.112-.231-.058-.129.121-.325-.172-.247.319-.052.209-.221-.021-.165.129-.031.301-.185.138.108.466-.268-.026-.124.227-.175-.02-.525.284-.052.144.279.438-.176.222.098.108-.082.421-.35.287-.212.539-.391.039-.479.23-.15-.027-.19-.341-.242.132-.119.248-.329-.173-.155.179-.175-.085-.247.15-.077-.209-.454-.185-.061.38-.243.087-.051.206-.33.018-.062.107.052.126-.108-.023.041.28-.108.122.36.34.32.437-.5.673-.211.142-1.097.979.741.671-.674.284-.273-.195-.222-.281-.376.345.124.43-.907.346.361.365.463.278.134.325.469.323.556.222.361.089.252.14.474.722.387.473.092.177.464.272.381.489.139.317v1.299l-.046.164.092.308.34.216.186.281-.304.445-.18.512-.078.672.098.336.278.615.036.443-.077.368-.592.228-.263.191-.283.713-.268.296-.067-.207-.273-.133-1.056-.062-.108.116-.278-.209-.557.116.129.248.078.61.257.444.211.096.057.222-.155.349.026.202-.087.291-.242.27-.078.3.407.372.366.154.458.306.752.157.073.292.329.135.268.25.546.177.129.087.293-.003.325.309-.325.132.011.505.479.951-.551.539.35.587.355 1.16-.463.637-.397-.231-.886.689-.124-.065-.443.491-.53-.358-1.164-.602-.541-.609-.706 1.869-.175.57.438.184 2.076-.091.015.376.32-.054 1.339-.092.113-.037.155.844-.134.037.062.497-.134.698-.155.212-.484.506-.665 1.404-.849-.171-.196.639-.263-.129-1.236-.515-.211-.005-.551.206.01.451 1.03 1.856.556-.075 1.499-.245.222-.017-.114-1.215 4.878-.906 1.89-.338 1.19 1.252.85 1.121.51.57-.366 1.477.047.112.232 1.033-.032.774.613.028.345-.069.752.293.232.239.474.816.129-.208.237.147.757-.97.129.068.252-.269.263.358-.309.34.16.283.298.177.145.952-.366.499-.268.054-.402.296.103.306-.262.432-.258.201-.324.123-.217.156-.273-.075-.288.237.195.197.263.104.433.561.324.648 1.061.542.546.213.84-.012.124.28.623-.21.35.254.273-.014.201.24.7-.011.907-.376-.072 1.025-.057.777-.747-.264-.551 1.859.206 1.7.969.072-.062.926-.366.019-.268.432-.103.03-.247-.349-.314-.217-.608.436.309.314.325.634-.685.325.288.193.644.522-.119.064.196.661.345-.123.253 1.156.36.819.407.455.505.432.216.372-.268.212-.288.019-.222.108-.288-.05-.335.282-.139.316-.098.995-.329.67-.258.591-.561.839-.603.694-.252.506-.34.515-.413.136-.128.154-.098.348-.376.377.268.281.031.192.345.556.185.086.345.03.711.446.536.733.407.397.314.203.371.115.304.17.237.046.092.384-.34 1.105-2.451 2.143-.289 1.264 1.211.509-.206.137-.062.176-.696.183-.355.129-.154-.076-.253.12-.232.342 2.694 3.166.242.266.933 1.128.34.436.02.105-.026 1.014-.051 1.475-.062.672-.181.034-.123.318-1.705 1.186.489.353.16.673.021.701.164.287.011.382.391.53.144.257.428.529h.139l.293-.243-.015.266-.386.194-.206.186-.011.398.325.207.17.636.433.431.458.57.361.163.345.278.128.293-.453.799.263.72.649-.181.129.118.401-.158.181.535-.124.218-.335.207-.324.333.247.185.5.879.144.023.278.793-.834.342.226 1.179-.978.504-3.771 2.027-.515.297-.819 1.176-.958.363-.149.141-.608 1.217-.201.461-.448-.091.051.442.114.14.19.636.165.027.381-.093.691-.015.216-.064.067.16 1.37.399-.973.961-.346-.196-.128.195-.237.017-.268-.333-.263-.076-.118.288-.263.368-.196.162-.195-.086-.433.559.103.221-.052.212-.34.33-.139.205-.443-.085-1.03-.352-.262.307-.186.332.149.46-.257.377-.361.403-.329-.042-1.345.179.109.382-.423.063-.922.015-.463.12-.531.079.062.852.221.108-.705 1.189-.289-.345-.515-.206-.453-.249-.258-.279-.113-.216-.654-.251-.283-.176-.212-.382-1.555 1.267.36.613.119.471-.124.248.108.199-.834.556.113.405-.628.417-.345-.538-.52-.934-1.68 1.428-.123.134-.69-.387-.15.017-.597-1.184-.114-.364-.592.015-.041.153-.448.296-.139.288-.418.243-.221-.08-1.247-1.134-.757-.656.799-.729.231-.173-1.076-1.94-.211-.307.036-.235" clip-rule="evenodd"/><path stroke="#000" stroke-linecap="round" stroke-linejoin="round" stroke-width=".2" d="m186.774 245.128-.381-.055-.109-.11-.901-.206-.088-.794-.783-.045-2.214-.094-.15.063-.092.451.309.151.046.235-.139.11-.371.003-.015.211-.201.059-.191.189.211.15.737.008.01.585-.268.367-.474 1.005-1.174-.147-1.046-3.412-2.183-.221-1.777-.15.108-1.153-.119-.082-.02-.728.18-.004-.026-.596-.849-.046-.449.026-.067-.671.83-.531.324-.168-.68-2.978-.468-2.157-.34-.208-.212.02-.365-.311-.66-.326-.36-.49-.098-.235.031-.851.809-1.695-.67-.528.273-.301.232.179.319-.054 1.381.147 3.399.333.309-2.973-.242.043-.607-1.01.077-.127.51-.107-.114-.953-.412-.427-.386-.162.088-.305-.052-.305 2.673-1.596-1.39-2.32-.036-.101-.572-.967-.299-.121-1.952-.421.175-.732.283-.453.093-.344.366.018.572-.229.015-.337.402-.237-.078-.108-.005-1.44-.185-.443.237-1.254-.17-.35-.325-.104-.798-.431-.603-.149-2.385-.819.376-.511v-.073l.706-1.179-.948-.217-.401-1.479-2.339.166-.046-.615.479-.05.288-.182-.062-.78-.34.077-.643.312-.516-.197-.638.029-.098.32-.119.011-.206.102-.535-.007-.016 1.145.042 1.885.036.942.082 2.952-.458.03-.418-.091-.453.267-.706.176-.242.425-.638.765.443.386-.387.783-.649.732-.376-.021-.824-.81-.757.834-.242.328-1.643-1.823-1.149 1.4-.041.222-.386-.156-.68-.636-.309-.186-.392-.014-.082-.256-.216-.163-.273.077-.33-.323-.289-.078-.247-.163-.206.063-.304-.393-.432-.031-.989 1.321-.763.966-.36.148-.237-.096-.098-.322-.283.042-.124.279-.325.372-1.694 1.263-2.818-.656.129-.28.464-.539.051-1.373-.314-.161.165-.688.314-.158.072-.269.289-.351-.479-.159-.114-.277.196-.464-.211-.101.046-.232.258-.564.092-.109.382-.173.329.213.423-.046.01-.267-.412-.629-.041-.218-.248-.395-.19.035.005-.27.35-.238-.113-.28-.201-.208.026-.199.381-.196.103-.19.407-.322-.021-.397.814-2.26.217-.538.067-.036-.134-.108-.943-.35-.294-.162-.314-.03-.87.868-.974.308-.875.801-.186.007.098.544-.453-.056-.474.13-.294.309-.669.825-.345.292-.485.537-.7 1.037-1.051.819.263.412.257.049.366.284.495.157-.176.395.155.545-.098.08-.252-.173-.175.252-.243.076-.195.492-.263.104h-.479l-.242.153-.422.011-.443-.046-.268.177-.304-.191-.386-.111-.294-.192-.196-.274-.288-.217-.387.893-.504.103.046.695-.144.005-.438.299-1.875.553-.35 1.477-.469 2.749-2.374-.86-.371-.241-.114-.333-.37-.285-.423-.429-.165.016-.376-.276-.051-.234-.175-.008-.212-.313-.52.515-.551-.202-.154.003-.541-.228-.33.008-.268-.066-.329-.202-.335-.029-1.818 2.323-1.185.736-.361.164.083-.796-.438.137-.422-.057-.794-.486-.499-.131-.186.761-.35.035-.319-.042-.449-.254-.221.34.036.589-.108.169-.458-.09-.68.021-.268-.069-.824-.304-.407.059-1.077-.575-.283-.179-.881-.219-.494-.187-.284.037-.844-.46-.33.126-.644.089v-.22l-.319.079-.263-.042-.175.127-.144.515-.407-.158-2.158-.195-.196-.054-.119.401-.216.46.021.499.149.135-.057.449.191.357-.268.214-2.189-.02-.5-.049-.221.198.01.362-.18.463-.217.16-.139.301-.144.092-.082.318.144.183-.041.291-.86.204-.016.308.191.368-.175.263-.382.39-.638.854-.242.168-.309.365-.186.31-.293.205-.067.187.422.293.062.268-.103 1.142.036.369.118.293-.067.739-.113.829-.196-.062.011 1.105-.31.451-.144.713-.422.762-.232.222-.139.232-.273.244-1.7 1.778-.195.15-.248.908-1.004-.365-.19-.031-.577.035-.279-.169-.098.08-.267-.223-.176-.276-.288-.178-.494-.036-.588-.195-.86-.587-.01.198-.222.664-.406-.227.242-.249.026-.693-.279-.15-.303-.032-2.447 2.829-.927-.36-.402.603-.407-.139-.088.606-.535 1.184-.541.134-.386-.085-.294.085-.551.044-1.195.037-.155.412-.262.313-.665-.152-.922 1.138-.33.181-.02.158-.803.068-.083.993-.505.152-.267-.022.025.253-.113.094.057.318.263.018.175-.089.195.139.047.335-.304.121-.02.324.241.334-.886.591-.535.039.026-.33.226-.758.232-.38.067-.341-1.329.301-1.365-.267-.195.053-.098.856-.855-.152.123-.802-.324-.043-.15-2.284-.35-.279-.551-.639.314-.37.216.039.35-.344-1.158-.714-.02-1.411-1.258.024-2.07.07-.788-.143-.778-.262-.391-.314-.13-.456.068-.516-.18-.005-.598-.382-.37-.011-.207.057-.118.198-.428-.159-.566-.167-.407-.233-.52.01-.052.356.263.136.051.362.124.385-.134.49.01.465.067.095-1.545.06-.268 1.083-.237.044-.36-.184-.464-.049-.294.219-.093.595-.267.73.02.514-.15.011-.602.262-.762.117-.407.496-.273.133-.417.472-.175 1.006-.366.654-.469 1.339-.082.481-.16.32-.68.742.345.124.247.381.588.43-.3.947.397.359-.221.266-.14.419-.246 1.113-.18.157.149.221.278.209.144.612.14.344-.315.716.984.433 2.606.934-.175.287-.01.203-.474.489-.005.112-.505-.043-.407.036-.695-.034-.397.33-.15.312.006.598-.273.101-.66.135-.51.142-.921-.009-1.386.23-.391-.017-.742-.281-.016 1.399-1.555.245.02 1.133-.798.805-.154.109-.284-.155-.494.02-.34.121-.407.011-.113-.123-.546-.057-.15-.356-.283-.356-.17-.01-.335-.508-.067-.219-.257-.126-.145-.299-.298-.175-.315-.381.062-.396-.067-.153-.283-.187-.031-.205-.381-.354-.417-.094-.845-.511-.294-.214-1.272-.405-.958-.328.268-1.302.35-.439.402-.148.103-.209.273-.217.304-.497-.088-.234.371-.957-.896-.869-.546-.163-.7-.073-.387-.137-.448.916-.402-.213-.577-.235-.731-.204-.314-.009-.402 1.512-.227.04-.216-.196.2-.36-.298-.288-.221.014.036-.325-.335-.033-.026-.268-.325-.051-.118-.207-.093-.375-.211-.13-.088-.212.248-.155.02-.172-.237-.335-.314-.273.18-.205.02-.212-.195-.108-.237.12-.16-.152.289-.254-.273-.407-.35-.384.072-.282-.273-.056-.036-.151-.253-.184-.056-.244.092-.197.196-.102-.232-.193-.02-.164.34-.184-.031-.241.113-.275-.19-.046-.32-.198-.32-.554.16.025.14-.19-.021-.2.118-.166-.195-.233-.443-.239.062-1.189-.268-.236-.206-.099 1.292-2.183-.525-.191-.963.442-.072-.053-.541.003-.402.093-.062-.732-.396-.13-.206-.134-.294-.46-.654-.389-.165-.26-.041-.249-.53-.235-.407.041-.109.333.088.713-1.113.141-.262-.384.226-.637-.144-3.486.804-.097-.037-1.27.572-.114.201-.164.175.108.356-.097.288-.162-.35-.948-.196-.047-.268-.379-.2-1.123-.083-1.155-.124-1.021-.582-.48-.216-.583-.247-.549-.083-.606-.067-.159-.067-.695.016-.557.628.046.278-.099.392-.384.108-.483.392.033.288-.179.247.15.541.097.314.136.35.226.371.16.551.408 1.072.659.412-.792.747-1.134 1.344-2.088.247-.096.423.18.103.177.49.089.21.183-.061.845 1.035.065.051-.35.145.02.18-.25.103-.371.463-.275-.113-.145.02-.522-.206-.192.067-.415.304-.39-.278-.779-.165-.264-.2-.076.061-.317.289-.332-.083-.261.057-.128-.335-.835-.36-.112.144-.318-.32-.147.042-.431-.675-.16-3.832-.98.582-1.059.613-1.065-.211-.218-.294-.019.072-1.105.603.047.051-.443.587.054.016-.222-.562-.12.031-.4-.53-.109-.072-.125.056-.399.088-1.1.304-.015.129-.283-.155-.176.19-.43-.17-.472.135-.287.293.134.438-.224.479-.06.294.049.097-.744.042-.049.803.048.484-.057.356-.227-.072-.109.324-.266.268.004-.093-.223.145-.145-.376-.361-.201-.269-.474-.39-.335-.38.15-.315-.088-.427.062-.874-.026-.477-.083-.606.14-.19-.13-.133-.432.147-.165-.18-.309-.623.814-.271.036-.162-.17-.511-.66-.159.201-.677.371-.588.634-.258-.2-.062-.259-.208.201-.221.13.219.39.42.29.525.226-.101.438.045.206.117-.31-.723-1.03-1.051.124-.317-.196-.101-.025-.313 1.396-.225 1.107-.489.268.537.108.355-.747.58.057.364-.459.161.325.865.273-.081.726.088.598.132.355.214.196-.367.129-.019-.098-.727.16-.181.02-.721 3.003-.462.139.648-.124.368 2.097-.248-.376-2.221-2.01.294.078-.177-.288-.576v-.327l2.24-.354 2.442-.416.129.661-.207.183 3.457.882.154-.138-.036-.206.31.116 1.153.312-.134.249.062.322-.196.081-.185 1.052.453.179.242-.519.093.015.077-2.229.047-2.733.473-.04.428-.217.505.055.206-.877.123-.274.685.448.407-.346.15-.244.046-.274-.057-.356.232-.486.067-.246.587-.267.098.081.897.455 1.194.228.268-.007 2.545.467.16-1.01-.315-.087-.195-.228.082-.243.237-.041.273.076.752-4.761 2.745 1.15.835-1.717 1.514.601.634-.433.221-.084.15-.175.52-.159.144-.365.294-.24-.459-.294-.479-.388-.953-.878-.86-.752.263-.47.015-.554.165-.437.015-.423.14-.391.159-.165.453-.306-.036-.28-.252-.163.072-.432-.66-.06-1.364-.538-.412-.119-.423-.225-.618-.242-.299-.056-.257.564-.618-.265-.876-.216-.68-.254-.376.058-.479.222-3.343-1.327-.01-.514.258.011.273.106.144.152.896.119.211.221.366.187.19-.064.15-.3.263-.098-.114-.807-.298-.454-.35-.067-.35-.95.164-.156-.31-.291-.767-.02-.17-.394v-.141l.119-.161.221-.055.69-.441.346-.133-.387-1.704-.226-.565-.232-.428-.015-.276.303-2.085.016-.199-.392-.249-.216.004-.417-.172.417-.988.798-2.105.433-.932-.536-.296.984-.272.897-.224 1.2-.271.438-.136 1.225-.324.191-.187-.237-.272-.046-.195-.206-.144-.294.034-.113-.365.633-1.299 1.442.889.531-.912-.463-.257.345-.558.123.047.5-.085.283-.459-.01-.145.18-.219.464-.03.196.189.236.104.103-.238 1.113-1.549-.819-1.998-.196-2.116-.005-.074 1.252-.011.335.28.165.31.911.27.737.505.345-.096.376-.034.757-.149.685-.441.299-.103-.093-.465.567-.274.432-.353.325-.364.469-.24.906.072.634-.153.237-.015.077-.164.226-.13.021-.32.268-.16.479.023 1.107-.121 1.025-1.04.031-.208.16-.046 1.195-.864.402-.138.68-.308.417-.127.577-.116.674-.182.067-.329-.164-.251.252-.162.124-.182.38-.29.17-.326.027-.513.314-.401.051-.337.273-.074.145-.327.262-.339.7-.819.269-.139.304-.288.355-1.285v-.275l-.206-.2-.216-.348-.644-.468-.356-.382-.401-.202-.387-.672-.592-.727-.252-.379-.14-.07-.21-.424.159-.229.144.036.968-.134.335-.019.155-1.233.098-.156.365.37.577.116.536.33.737-.284-.546-.937.726-.776-.232-.513-.02-.213.16-2.224.612-.476 1.937.298.376.239.288-.032.474-.136.134-.526.083-.109.479.15 1.864-.091.314.067 1.015.317 1.015.286.824-.345.232-.241.458-.14.139 1.586.613-.146 1.025-.707.757-.172.109.167.422.088.175.52.139.589 1.231-.274.155.362 1.494-.01.303-1.078.119-.301.592-2.044 1.159.271.479.091-.113.943 1.102-.176.046.736.438.076.263.189.026.242.397.055.087 1.094.201-.005v.305l1.36-.05.278-.243.484-.156.093-.099.355-.05.175-.113.521-.135.257.008.484-.076.253.019.18.535.01.176.237.061.891.649.201.228.283-.026 1.458-.641 1.18-.555.623-.333-.289-.485-.36-.189.01-.452 2.576-.264.133-.089.212.086.68.53.067-.273.515-.019.52.148-.155.232-.01.183-.551.091-.273-.007-.119.269.057.601-.031.281-.397.202-.319.539-.134.304.052.098-.16.297.093.31-.294.442-.448.097-.165.256.181.09.334-.254.17-.048.206-.234.186.009-.047.306.248.156.051.869 3.178-.269 1.298-.16.026.136-.407.325-.165-.022-.968.577-.118.238-.32 1.032.18.578-.087.354.082.468-.293.376-.593.536-.793.387-.736.071.077 1.032.005.702 1.226.047.556-.042.634-.11.165.53-.232.902.077.604.124.686.551-.085 1.164-.69.216-1.587-.33-1.625.263-.087.227-.328.474-.91.129-.114.963-.517 1.705 1.646 1.9.491 1.607.432.979.25.067.335.628.456.819-.759-.268-.684.016-.263-.144-.126.061-.43-.175-.169-.005-.19-.345-.422.052-.267.164-.218.361-.106.082-.142.428-.388-.083-.52.294-.276.052-.154-.011-.124-.267-.117.067-.395.818-.412 2.035-.979 1.798-.841.298.032.598.388-.144.302.752.66.082.267-.036.231.206.146.283.353.407-.478.68-.331.675-.289.417.836 1.35-.629.262.541.644-.014.108-.525.989.116.031.501.124.108.345.089.247.261.186.067.53.065.227.696-.021.995.737.128.278.014.433.438v.558l-.186.041.006.341.741.734.361.307.51.009.736.163.737.056.515-.059.046.582-.855-.14-.015-.124-.417-.117.056.58-.685-.111-.592.013-.258.105-.118-.082-.361.475-.237.493.613.424 1.386.168.572.101 1.828-.14.376-.08.15-.225.252-.136.304-.062.51.024.427-.058.572-.36.345-.047.984-.327.845-.339.087-.066-.046-.307.35-.484.093-.299.252-.375.026-.282.114-.184.917.125.257-.004.191-.103.242.109.061.138.273.056.078.125.541.142.551.043.53.268-.113.226-.072.521.798.094.165.454-.139.882.361.074 2.08.564.15.016.056.441.16.716.52.581.634-.134.438-1.694.865.168.598-.08.437-.181 1.149-1.613 1.004-1.474-.788-.271-.695-.578.355-.766.855.541.021.086.762.413.356-.637 1.148 1.175.284.268.479-.616.046.041 1.859-.83.907-.237.273-.489.18-.676-.19-.273.17-.322.891.067.814-.306.103-.182.499-.219.613-.002.232-1.275-.247-1.014 1.988.337.371-.228.649-.474.366-1.052.751-.042.145.262.314 1.087-.242.267-.17.431.201.168.489.053.17.094.623.1.042-.188.53.104.021-.392-.057-.24-.33-.816-.299-.481-.396-.81-.319-.545.942.235.186.35-.021.183.561-.024.237.397-.051.431.345-.045.015-.231-.149-.397.18-.148.737-.114.005 1.277-.551.248-.567.446.217.453-.479.462 1.401.256-.067.242.819.245.164.23-.087.325.19.063.176.272.922.39-.119.128.258.246-.078.092.521.394.576.119.603-.059.242.177.196-.253.257.143.176-.274.067-.61.304-.501.252-.069.268-.581.85-.882.293-.555.077-.333-.056-.173-.469-.221.01-.393-.242-.538.144-.402-.02-.17.185-.388.433.11.185.156-.097.211.19.223.309.535.253-.142.128.069.109.299-.145.503-.164.134-.243.503-.237.928-.19.65-.345.527-.247.156-.196.581-.237.004-.046.18-.325-.03-.211.528-.18.137-.521.112-.231-.058-.129.121-.325-.172-.247.319-.052.209-.221-.021-.165.129-.031.301-.185.138.108.466-.268-.026-.124.227-.175-.02-.525.284-.052.144.279.438-.176.222.098.108-.082.421-.35.287-.212.539-.391.039-.479.23-.15-.027-.19-.341-.242.132-.119.248-.329-.173-.155.179-.175-.085-.247.15-.077-.209-.454-.185-.061.38-.243.087-.051.206-.33.018-.062.107.052.126-.108-.023.041.28-.108.122.36.34.32.437-.5.673-.211.142-1.097.979.741.671-.674.284-.273-.195-.222-.281-.376.345.124.43-.907.346.361.365.463.278.134.325.469.323.556.222.361.089.252.14.474.722.387.473.092.177.464.272.381.489.139.317v1.299l-.046.164.092.308.34.216.186.281-.304.445-.18.512-.078.672.098.336.278.615.036.443-.077.368-.592.228-.263.191-.283.713-.268.296-.067-.207-.273-.133-1.056-.062-.108.116-.278-.209-.557.116.129.248.078.61.257.444.211.096.057.222-.155.349.026.202-.087.291-.242.27-.078.3.407.372.366.154.458.306.752.157.073.292.329.135.268.25.546.177.129.087.293-.003.325.309-.325.132.011.505.479.951-.551.539.35.587.355 1.16-.463.637-.397-.231-.886.689-.124-.065-.443.491-.53-.358-1.164-.602-.541-.609-.706 1.869-.175.57.438.184 2.076-.091.015.376.32-.054 1.339-.092.113-.037.155.844-.134.037.062.497-.134.698-.155.212-.484.506-.665 1.404-.849-.171-.196.639-.263-.129-1.236-.515-.211-.005-.551.206.01.451 1.03 1.856.556-.075 1.499-.245.222-.017-.114-1.215 4.878-.906 1.89-.338 1.19 1.252.85 1.121.51.57-.366 1.477.047.112.232 1.033-.032.774.613.028.345-.069.752.293.232.239.474.816.129-.208.237.147.757-.97.129.068.252-.269.263.358-.309.34.16.283.298.177.145.952-.366.499-.268.054-.402.296.103.306-.262.432-.258.201-.324.123-.217.156-.273-.075-.288.237.195.197.263.104.433.561.324.648 1.061.542.546.213.84-.012.124.28.623-.21.35.254.273-.014.201.24.7-.011.907-.376-.072 1.025-.057.777-.747-.264-.551 1.859.206 1.7.969.072-.062.926-.366.019-.268.432-.103.03-.247-.349-.314-.217-.608.436.309.314.325.634-.685.325.288.193.644.522-.119.064.196.661.345-.123.253 1.156.36.819.407.455.505.432.216.372-.268.212-.288.019-.222.108-.288-.05-.335.282-.139.316-.098.995-.329.67-.258.591-.561.839-.603.694-.252.506-.34.515-.413.136-.128.154-.098.348-.376.377.268.281.031.192.345.556.185.086.345.03.711.446.536.733.407.397.314.203.371.115.304.17.237.046.092.384-.34 1.105-2.451 2.143-.289 1.264 1.211.509-.206.137-.062.176-.696.183-.355.129-.154-.076-.253.12-.232.342 2.694 3.166.242.266.933 1.128.34.436.02.105-.026 1.014-.051 1.475-.062.672-.181.034-.123.318-1.705 1.186.489.353.16.673.021.701.164.287.011.382.391.53.144.257.428.529h.139l.293-.243-.015.266-.386.194-.206.186-.011.398.325.207.17.636.433.431.458.57.361.163.345.278.128.293-.453.799.263.72.649-.181.129.118.401-.158.181.535-.124.218-.335.207-.324.333.247.185.5.879.144.023.278.793-.834.342.226 1.179-.978.504-3.771 2.027-.515.297-.819 1.176-.958.363-.149.141-.608 1.217-.201.461-.448-.091.051.442.114.14.19.636.165.027.381-.093.691-.015.216-.064.067.16 1.37.399-.973.961-.346-.196-.128.195-.237.017-.268-.333-.263-.076-.118.288-.263.368-.196.162-.195-.086-.433.559.103.221-.052.212-.34.33-.139.205-.443-.085-1.03-.352-.262.307-.186.332.149.46-.257.377-.361.403-.329-.042-1.345.179.109.382-.423.063-.922.015-.463.12-.531.079.062.852.221.108-.705 1.189-.289-.345-.515-.206-.453-.249-.258-.279-.113-.216-.654-.251-.283-.176-.212-.382-1.555 1.267.36.613.119.471-.124.248.108.199-.834.556.113.405-.628.417-.345-.538-.52-.934-1.68 1.428-.123.134-.69-.387-.15.017-.597-1.184-.114-.364-.592.015-.041.153-.448.296-.139.288-.418.243-.221-.08-1.247-1.134-.757-.656.799-.729.231-.173-1.076-1.94-.211-.307.036-.235"/><path id="Бердичівський" fill="#C8C6C6" fill-rule="evenodd" d="m153.173 277.415-.031-.041.273-.783.16-.184.252-.456.232-.32.17-.351.257-.7.248-.466.53-.563-1.782-1.713-.608.128-.237-.578.546-.129-1.313-2.014-.531-.917-.742-.147-.273.03-.396-.09.015-.245-.134-.363.093-.598.917-.127.056-.235.5-1.544.031-.24.974.209.206-.4.85-1.318.535-.702-.355-.308.221-.393.072.035.129-.758.773.128.026-.34-.041-.331-.186-.555-.072-.528-.35-.231-2.725-1.703-.103-.025.155-2.821-.732-.258-1.138-.593-.057-.049-.072-.063 1.252-1.303.051-.015 1.066-1.285-.741-.757-.052-1.504-.433-.053-.211.15-.695.099.056-.36.469-1.812.211-.521-.118-.085-.335-.375-.484-.427-.412-.649.072-.177-2.647-1.012-.377-.381.243-.075.365-.311-.345-.382-.123-.255-.768-.237.273-1.127-.304-.12-.608-.133-.123-.111-.237-.008-.155-.11-.092-.378-.861-.093-.551.076-.577-.017-.237.711-.674 2.401-.222.647-2.282.193-.237-.026-.015.778-.515.021-2.035.132.073 1.176-1.252-.151-1.612-.095-.042.371.016.645-.016 1.717.016.127.695-.074.01.616-.752-.006-.334.132-.572 1.207-.376.747-.077.59-.722.219-.149-.374-.242-.395-.247-.666-.742.298-.232-.569-1.54.57-.051.158.201.583-.912-.499-.969-.606-.87-.375-.355-.181-1.504-.641.334.998-.329-.072-.191-.387-.227.087-.17-.102-.02-.277-.309.186-.237-.061-.252.084-.371.314-.217.084-.54-.039-.294.11-.052 3.26-.02.373-.304.209-1.798.727-.51.146-.072-.009-.571-1.695-.634.196.067-.214-.196-.203.093-.101-.134-.603-.345-.188-.654-1.431-.979-.924-.221-.455.087-.458-.499.29-.557.276-.556.204-.319.072-.861.335-.963.495-.195.077-.201-.437-.551-.275-.114-.522-.154-.331-.036-.474-.521.19-.267.161-.021-.241-.397.035-.139.139-.355-.129-.443.059-.381-.145-.232.101-.427.063-.644-.326-.17-.182-.248.326.021.163-.258.918.33.089-.134.25-.355.025-.253.111.047.289-.464 2.132-1.411 1.009-.927.521-2.586-1.557-1.762-.477-2.575-.676-.706.407-.515.026-.52-.097-1.195-.117-.062-1.458-.948-.582-.195.142-.402-.015.093 2.153-1.231.286-.17.065-.3.827.073.445-.448-.024-.283.044.262-.683-.587-.21-1.015.275-.602-.003-.392.04-.376.098-.638.091-.825.073-1.035.147-.082-.352-.685.273-.109.263-.767.374-.386.138-.449.089-.37.145-.402.361-.592.357-1.103.234-.257-.147-.098.179-1.7-.047h-1.17l-1.076.171-.571.03-.917-.076-.866-.019-.654-.476-.15-.171-.308-.02-.68-.217-.675-.182-.572-.103-.587.066-.479.105-.561.016-.629.14-.334.186-.964.733-.484.149-.175.141-.551.056-.628.131.005-.112.474-.488.01-.203.175-.287-2.606-.935-.984-.432.314-.716-.139-.345-.144-.611-.278-.21-.15-.22.18-.158.248-1.112.139-.419.221-.267-.396-.358.298-.947-.587-.43-.247-.381-.345-.125.68-.741.16-.32.082-.481.469-1.34.365-.653.175-1.006.418-.472.273-.133.407-.497.762-.116.602-.263.15-.01-.02-.514.267-.73.093-.596.294-.218.463.048.36.185.238-.044.267-1.084 1.546-.06-.067-.095-.01-.465.133-.489-.123-.385-.052-.362-.262-.136.051-.356.52-.01.407.233.567.167.427.159.119-.198.206-.057.37.011.598.381.18.005-.066.516.128.457.392.314.778.261.788.144 2.07-.071 1.257-.024.02 1.412 1.16.713-.35.345-.217-.04-.314.371.55.638.351.279.15 2.285.324.043-.124.801.855.152.098-.856.196-.053 1.365.268 1.329-.302-.067.341-.232.38-.226.758-.026.33.535-.038.886-.591-.242-.334.02-.324.305-.121-.047-.335-.196-.14-.175.089-.262-.018-.057-.318.113-.093-.025-.253.267.021.505-.151.083-.994.803-.067.02-.159.33-.18.922-1.139.665.153.263-.313.154-.412 1.195-.037.551-.044.294-.085.386.085.54-.134.537-1.184.087-.606.407.138.402-.602.927.36 2.447-2.829.303.032.279.149-.026.693-.242.249.406.227.222-.663.01-.199.86.588.588.195.494.036.289.177.175.277.268.223.097-.08.279.169.576-.036.191.032 1.004.364.248-.908.195-.15 1.7-1.778.273-.243.139-.233.232-.222.422-.762.145-.713.309-.451-.011-1.105.196.062.114-.829.066-.739-.118-.292-.036-.369.103-1.143-.062-.268-.422-.292.067-.187.293-.206.186-.309.309-.366.242-.168.639-.853.381-.391.175-.263-.191-.368.016-.307.86-.205.041-.291-.144-.183.082-.317.144-.093.14-.301.216-.16.18-.463-.01-.362.221-.198.5.049 2.189.02.268-.214-.191-.357.057-.448-.149-.136-.021-.499.217-.46.118-.401.196.054 2.158.196.407.158.144-.515.175-.127.263.041.319-.078v.219l.644-.088.33-.126.844.459.284-.037.494.188.881.219.283.178 1.077.576.407-.06.824.304.268.069.68-.021.458.091.108-.169-.036-.59.222-.34.448.255.319.041.35-.035.186-.761.499.132.794.486.422.056.438-.137-.083.796.361-.164 1.185-.736 1.818-2.323.335.029.329.203.268.065.33-.008.541.228.154-.003.551.203.521-.516.211.313.175.008.051.234.376.277.165-.017.423.429.371.285.113.334.371.24 2.374.861.469-2.749.35-1.478 1.875-.553.438-.299.144-.005-.046-.694.505-.103.386-.894.288.217.196.274.294.193.386.11.304.191.268-.177.443.047.422-.012.242-.152h.479l.263-.104.196-.493.242-.075.175-.253.252.173.098-.08-.154-.544.175-.396-.495-.156-.366-.285-.257-.048-.263-.412 1.051-.82.701-1.037.484-.537.345-.292.669-.825.294-.308.474-.131.453.057-.098-.545.186-.006.875-.802.974-.308.87-.868.315.03.293.162.943.35.134.109-.067.035-.217.538-.813 2.261.02.397-.407.322-.103.19-.381.195-.026.199.201.208.113.281-.35.237-.005.271.19-.036.248.395.041.219.412.629-.01.267-.423.046-.329-.214-.381.173-.093.11-.258.563-.046.233.211.101-.196.463.114.277.479.159-.289.351-.072.269-.314.158-.165.688.314.162-.051 1.373-.464.538-.128.281 2.817.655 1.695-1.263.324-.372.124-.278.283-.043.098.322.237.097.36-.149.763-.965.989-1.322.432.032.304.392.206-.062.248.162.288.078.33.323.273-.077.216.163.082.256.392.014.309.186.68.636.386.156.041-.222 1.149-1.399 1.643 1.823.242-.328.757-.835.824.811.376.02.649-.732.387-.782-.443-.387.638-.765.243-.424.705-.176.454-.267.417.091.458-.031-.082-2.951-.036-.942-.042-1.886.016-1.144.536.007.206-.102.118-.011.098-.32.639-.03.515.198.644-.312.339-.077.062.779-.288.182-.479.051.046.614 2.339-.165.401 1.478.948.218-.705 1.178v.074l-.376.511 2.384.818.603.149.798.431.325.105.17.349-.237 1.255.185.443.006 1.44.077.108-.402.237-.015.336-.572.229-.366-.018-.093.344-.283.453-.175.732 1.952.422.299.121.572.967.036.101 1.391 2.32-2.674 1.595.052.305-.088.305.386.162.413.428.113.953-.51.106-.077.128.607 1.009.243-.042-.31 2.973-3.399-.333-1.381-.147-.319.054-.232-.18-.273.301.67.528-.809 1.695-.031.851.098.235.361.49.659.327.366.311.211-.02.34.207.468 2.158.68 2.978-.324.167-.829.531.067.672.448-.026.85.045.025.597-.18.004.021.728.118.082-.108 1.153 1.777.15 2.184.22 1.046 3.412 1.174.147.474-1.004.268-.367-.011-.586-.736-.007-.211-.15.19-.189.201-.06.016-.21.37-.004.139-.11-.046-.234-.309-.151.093-.451.149-.063 2.215.094.783.044.087.795.902.205.108.11.381.056-.036.235.211.307 1.077 1.94-.232.173-.798.729.757.656 1.246 1.134.222.08.417-.243.139-.288.448-.296.041-.153.593-.015.113.364.598 1.183.231.884.103.192.186.577.221.526.181.271.623 1.619.093.447.329 1.174-.736 1.922-.737 1.97-.803.374.86 2.081 1.102.071.665.012 1.473.105.422-.135.386-.042.263-.106-.031.436-.319.195-.114.199.047.295-.047 1.035-.051 1.773.149.017-.067.406-.139.323-.041 1.239 1.689.662.381.131-.695 1.785-1.7-.658-.211.615-1.416-.553-.964-.334-1.983-.762-.376 1.089.016.233-.737-.365-.257-.274-.443-.3-1.175 1.512.011.301-.253.302-.355.978-.036.025-.732 2.026-.391-.092-.335.188-.289-.186-.473-.449-.103-.242-.222-.237-.17.124-.185-.145-1.149 1.647-.144-.152-.232-.403-.726-1.126-2.03.177-.989.026-1.38-.081.005 1.38-.015 3.44-1.963.011-.195-.554-.732-1.192-1.035.888-.459.419-.046.265-.144.107-.737.392-.159-.204-.603-.536-.211.007-.201.253-.582.434-.237.093-.67-.061-.237-.124-1.195-.346-.741.069-.263-.288-.592.072-.979.256-1.107.509-.371.386-.989-1.265-.891.055-.067-.139-.253-.034-.283.183-.51.112-.051-.079-.541-.033-.433-.161-.649.187-.412-.17-.361-.057-.649.061-.242.159-.736.13-.521.166-.35-.067-1.246-.362-.474-.205-.768-.258-.345-.33-.35-.414" clip-rule="evenodd"/><path stroke="#000" stroke-linecap="round" stroke-linejoin="round" stroke-width=".2" d="m153.173 277.415-.031-.041.273-.783.16-.184.252-.456.232-.32.17-.351.257-.7.248-.466.53-.563-1.782-1.713-.608.128-.237-.578.546-.129-1.313-2.014-.531-.917-.742-.147-.273.03-.396-.09.015-.245-.134-.363.093-.598.917-.127.056-.235.5-1.544.031-.24.974.209.206-.4.85-1.318.535-.702-.355-.308.221-.393.072.035.129-.758.773.128.026-.34-.041-.331-.186-.555-.072-.528-.35-.231-2.725-1.703-.103-.025.155-2.821-.732-.258-1.138-.593-.057-.049-.072-.063 1.252-1.303.051-.015 1.066-1.285-.741-.757-.052-1.504-.433-.053-.211.15-.695.099.056-.36.469-1.812.211-.521-.118-.085-.335-.375-.484-.427-.412-.649.072-.177-2.647-1.012-.377-.381.243-.075.365-.311-.345-.382-.123-.255-.768-.237.273-1.127-.304-.12-.608-.133-.123-.111-.237-.008-.155-.11-.092-.378-.861-.093-.551.076-.577-.017-.237.711-.674 2.401-.222.647-2.282.193-.237-.026-.015.778-.515.021-2.035.132.073 1.176-1.252-.151-1.612-.095-.042.371.016.645-.016 1.717.016.127.695-.074.01.616-.752-.006-.334.132-.572 1.207-.376.747-.077.59-.722.219-.149-.374-.242-.395-.247-.666-.742.298-.232-.569-1.54.57-.051.158.201.583-.912-.499-.969-.606-.87-.375-.355-.181-1.504-.641.334.998-.329-.072-.191-.387-.227.087-.17-.102-.02-.277-.309.186-.237-.061-.252.084-.371.314-.217.084-.54-.039-.294.11-.052 3.26-.02.373-.304.209-1.798.727-.51.146-.072-.009-.571-1.695-.634.196.067-.214-.196-.203.093-.101-.134-.603-.345-.188-.654-1.431-.979-.924-.221-.455.087-.458-.499.29-.557.276-.556.204-.319.072-.861.335-.963.495-.195.077-.201-.437-.551-.275-.114-.522-.154-.331-.036-.474-.521.19-.267.161-.021-.241-.397.035-.139.139-.355-.129-.443.059-.381-.145-.232.101-.427.063-.644-.326-.17-.182-.248.326.021.163-.258.918.33.089-.134.25-.355.025-.253.111.047.289-.464 2.132-1.411 1.009-.927.521-2.586-1.557-1.762-.477-2.575-.676-.706.407-.515.026-.52-.097-1.195-.117-.062-1.458-.948-.582-.195.142-.402-.015.093 2.153-1.231.286-.17.065-.3.827.073.445-.448-.024-.283.044.262-.683-.587-.21-1.015.275-.602-.003-.392.04-.376.098-.638.091-.825.073-1.035.147-.082-.352-.685.273-.109.263-.767.374-.386.138-.449.089-.37.145-.402.361-.592.357-1.103.234-.257-.147-.098.179-1.7-.047h-1.17l-1.076.171-.571.03-.917-.076-.866-.019-.654-.476-.15-.171-.308-.02-.68-.217-.675-.182-.572-.103-.587.066-.479.105-.561.016-.629.14-.334.186-.964.733-.484.149-.175.141-.551.056-.628.131.005-.112.474-.488.01-.203.175-.287-2.606-.935-.984-.432.314-.716-.139-.345-.144-.611-.278-.21-.15-.22.18-.158.248-1.112.139-.419.221-.267-.396-.358.298-.947-.587-.43-.247-.381-.345-.125.68-.741.16-.32.082-.481.469-1.34.365-.653.175-1.006.418-.472.273-.133.407-.497.762-.116.602-.263.15-.01-.02-.514.267-.73.093-.596.294-.218.463.048.36.185.238-.044.267-1.084 1.546-.06-.067-.095-.01-.465.133-.489-.123-.385-.052-.362-.262-.136.051-.356.52-.01.407.233.567.167.427.159.119-.198.206-.057.37.011.598.381.18.005-.066.516.128.457.392.314.778.261.788.144 2.07-.071 1.257-.024.02 1.412 1.16.713-.35.345-.217-.04-.314.371.55.638.351.279.15 2.285.324.043-.124.801.855.152.098-.856.196-.053 1.365.268 1.329-.302-.067.341-.232.38-.226.758-.026.33.535-.038.886-.591-.242-.334.02-.324.305-.121-.047-.335-.196-.14-.175.089-.262-.018-.057-.318.113-.093-.025-.253.267.021.505-.151.083-.994.803-.067.02-.159.33-.18.922-1.139.665.153.263-.313.154-.412 1.195-.037.551-.044.294-.085.386.085.54-.134.537-1.184.087-.606.407.138.402-.602.927.36 2.447-2.829.303.032.279.149-.026.693-.242.249.406.227.222-.663.01-.199.86.588.588.195.494.036.289.177.175.277.268.223.097-.08.279.169.576-.036.191.032 1.004.364.248-.908.195-.15 1.7-1.778.273-.243.139-.233.232-.222.422-.762.145-.713.309-.451-.011-1.105.196.062.114-.829.066-.739-.118-.292-.036-.369.103-1.143-.062-.268-.422-.292.067-.187.293-.206.186-.309.309-.366.242-.168.639-.853.381-.391.175-.263-.191-.368.016-.307.86-.205.041-.291-.144-.183.082-.317.144-.093.14-.301.216-.16.18-.463-.01-.362.221-.198.5.049 2.189.02.268-.214-.191-.357.057-.448-.149-.136-.021-.499.217-.46.118-.401.196.054 2.158.196.407.158.144-.515.175-.127.263.041.319-.078v.219l.644-.088.33-.126.844.459.284-.037.494.188.881.219.283.178 1.077.576.407-.06.824.304.268.069.68-.021.458.091.108-.169-.036-.59.222-.34.448.255.319.041.35-.035.186-.761.499.132.794.486.422.056.438-.137-.083.796.361-.164 1.185-.736 1.818-2.323.335.029.329.203.268.065.33-.008.541.228.154-.003.551.203.521-.516.211.313.175.008.051.234.376.277.165-.017.423.429.371.285.113.334.371.24 2.374.861.469-2.749.35-1.478 1.875-.553.438-.299.144-.005-.046-.694.505-.103.386-.894.288.217.196.274.294.193.386.11.304.191.268-.177.443.047.422-.012.242-.152h.479l.263-.104.196-.493.242-.075.175-.253.252.173.098-.08-.154-.544.175-.396-.495-.156-.366-.285-.257-.048-.263-.412 1.051-.82.701-1.037.484-.537.345-.292.669-.825.294-.308.474-.131.453.057-.098-.545.186-.006.875-.802.974-.308.87-.868.315.03.293.162.943.35.134.109-.067.035-.217.538-.813 2.261.02.397-.407.322-.103.19-.381.195-.026.199.201.208.113.281-.35.237-.005.271.19-.036.248.395.041.219.412.629-.01.267-.423.046-.329-.214-.381.173-.093.11-.258.563-.046.233.211.101-.196.463.114.277.479.159-.289.351-.072.269-.314.158-.165.688.314.162-.051 1.373-.464.538-.128.281 2.817.655 1.695-1.263.324-.372.124-.278.283-.043.098.322.237.097.36-.149.763-.965.989-1.322.432.032.304.392.206-.062.248.162.288.078.33.323.273-.077.216.163.082.256.392.014.309.186.68.636.386.156.041-.222 1.149-1.399 1.643 1.823.242-.328.757-.835.824.811.376.02.649-.732.387-.782-.443-.387.638-.765.243-.424.705-.176.454-.267.417.091.458-.031-.082-2.951-.036-.942-.042-1.886.016-1.144.536.007.206-.102.118-.011.098-.32.639-.03.515.198.644-.312.339-.077.062.779-.288.182-.479.051.046.614 2.339-.165.401 1.478.948.218-.705 1.178v.074l-.376.511 2.384.818.603.149.798.431.325.105.17.349-.237 1.255.185.443.006 1.44.077.108-.402.237-.015.336-.572.229-.366-.018-.093.344-.283.453-.175.732 1.952.422.299.121.572.967.036.101 1.391 2.32-2.674 1.595.052.305-.088.305.386.162.413.428.113.953-.51.106-.077.128.607 1.009.243-.042-.31 2.973-3.399-.333-1.381-.147-.319.054-.232-.18-.273.301.67.528-.809 1.695-.031.851.098.235.361.49.659.327.366.311.211-.02.34.207.468 2.158.68 2.978-.324.167-.829.531.067.672.448-.026.85.045.025.597-.18.004.021.728.118.082-.108 1.153 1.777.15 2.184.22 1.046 3.412 1.174.147.474-1.004.268-.367-.011-.586-.736-.007-.211-.15.19-.189.201-.06.016-.21.37-.004.139-.11-.046-.234-.309-.151.093-.451.149-.063 2.215.094.783.044.087.795.902.205.108.11.381.056-.036.235.211.307 1.077 1.94-.232.173-.798.729.757.656 1.246 1.134.222.08.417-.243.139-.288.448-.296.041-.153.593-.015.113.364.598 1.183.231.884.103.192.186.577.221.526.181.271.623 1.619.093.447.329 1.174-.736 1.922-.737 1.97-.803.374.86 2.081 1.102.071.665.012 1.473.105.422-.135.386-.042.263-.106-.031.436-.319.195-.114.199.047.295-.047 1.035-.051 1.773.149.017-.067.406-.139.323-.041 1.239 1.689.662.381.131-.695 1.785-1.7-.658-.211.615-1.416-.553-.964-.334-1.983-.762-.376 1.089.016.233-.737-.365-.257-.274-.443-.3-1.175 1.512.011.301-.253.302-.355.978-.036.025-.732 2.026-.391-.092-.335.188-.289-.186-.473-.449-.103-.242-.222-.237-.17.124-.185-.145-1.149 1.647-.144-.152-.232-.403-.726-1.126-2.03.177-.989.026-1.38-.081.005 1.38-.015 3.44-1.963.011-.195-.554-.732-1.192-1.035.888-.459.419-.046.265-.144.107-.737.392-.159-.204-.603-.536-.211.007-.201.253-.582.434-.237.093-.67-.061-.237-.124-1.195-.346-.741.069-.263-.288-.592.072-.979.256-1.107.509-.371.386-.989-1.265-.891.055-.067-.139-.253-.034-.283.183-.51.112-.051-.079-.541-.033-.433-.161-.649.187-.412-.17-.361-.057-.649.061-.242.159-.736.13-.521.166-.35-.067-1.246-.362-.474-.205-.768-.258-.345-.33-.35-.414"/><path id="Коростенський" fill="#C8C6C6" fill-rule="evenodd" d="m142.42 131.881-.051.153-.294.276.083.521-.428.387-.082.142-.361.107-.165.217-.051.268.345.421.005.19.175.169-.061.43.144.126-.016.264.268.684-.819.759-.628-.457-.067-.335-.979-.25-1.607-.432-1.9-.491-1.705-1.645-.964.517-.128.114-.474.91-.227.328-.263.087.33 1.624-.216 1.587-1.164.69-.551.085-.124-.685-.077-.605.231-.902-.164-.529-.634.11-.556.041-1.226-.047-.005-.701-.078-1.032.737-.071.793-.388.593-.536.293-.376-.082-.468.087-.353-.18-.578.319-1.033.119-.237.968-.577.165.022.407-.325-.026-.137-1.298.161-3.178.269-.051-.87-.248-.155.047-.307-.186-.009-.206.235-.17.047-.335.255-.18-.091.165-.256.448-.096.294-.443-.093-.309.16-.298-.052-.098.134-.303.319-.539.397-.203.031-.28-.057-.601.119-.27.273.008.551-.091.01-.183.155-.233-.521-.148-.515.019-.067.273-.679-.529-.212-.086-.134.088-2.575.265-.01.451.36.189.289.485-.623.334-1.18.555-1.458.641-.283.026-.201-.228-.891-.65-.237-.06-.01-.177-.18-.535-.253-.019-.484.076-.257-.008-.521.136-.175.113-.355.049-.093.1-.484.156-.278.243-1.36.05v-.306l-.201.005-.088-1.094-.396-.055-.026-.242-.263-.189-.438-.075-.046-.737-1.102.177.113-.944-.479-.091-1.159-.27-.592 2.043-.119.301-.304 1.078-1.493.011-.155-.363-1.231.275-.139-.589-.175-.521-.423-.087-.108-.168-.757.172-1.025.708-.613.145-.139-1.586-.458.141-.232.24-.824.346-1.015-.286-1.015-.317-.314-.067-1.865.09-.478-.15-.083.11-.134.526-.474.136-.288.032-.376-.24-1.937-.298-.613.476-.16 2.224.021.214.232.512-.727.776.547.938-.737.283-.536-.33-.577-.116-.365-.37-.098.156-1.417-.568-.18-.094.031-.316-.299-.017.114-1.166-1.123-.811.767-.63.418-.556-.593-.388-4.11-2.482.396-.536-2.127-.838.288-.657.433-1.08-2.153-.876.082-.856.14-.354.005-.8-.18-.224-.655-2.259-.237-.053-.736-2.728-.35.118-.346-.144-.072-.45-.757-.355.345-1.738.974-.633.38-1.356.032-.234.242.057.206-.611.278-.465 1.252-.983.608-.556.242-1.129.345-.096-.02-.756-.377-.51.098-.584-.525-.714-1.061-1.489-.124-.26-.232-.3-.319-1.163 1.416-.28-1.097-.631-.741-.529-2.478-1.573.82-1.378.504-.81.386-.739.428-.656-.536-.31-.108-.373-.077-.548.365-.244v-.336l-.345.2-.917.151-.365.142-.356.056-.458-.099-.155.02-.582-.22-.767-.126-1.324-.12-.603-.159-.52-.185.036-.148-.85-.421-.273-.177-.448-.143-.314-.318.268-.249-.366-.398.464-.396-.083-.197-.396-.374-2.246-.753-.793-.492-1.855.142-1.148.06-.14.137-.386-.398.392-.594-.114-.59-.195-.069-.124.187-.211.316-1.643 2.344-.994.1-.284-.49-.9.505-.98-.144-1.143.181-.907-.462-.736.286-1.072-.232-.633.073-1-.261-.298.093-.443.055-1.097-.39-.294-.054-.417.353-1.34.326-.18-.073-.17.256-.21.067-.505-.226-.444.058-.37.149-.423-.027.881 1.646-.129.243-.489.04-.031.197-.247.018-.31.28.516.544.015.596.53.302.397.134.268.37.283.242.032.207-.907.731-.737.98-.407-.03.032.386-.52-.018-1.71.044-1.052.006-.602-.14-.036-1.414-2.004-.813-1.622.056-.01-1.657.416-.175.093-1.514-.53-.502-.314-1.17-.016-.289-.257-.315-.943-.76-.479-.478-.232-.812-.731-.945-.268-.12-1.34-.23-.071.529-.304.128-.443-.143-.84-.72-.268-.146-.365.29.51 1.317-.268.004.36 1.903-.221.113-.201-.244-.48.216-.35-.118-.118-.222.325-.284.309.052-.103-.915.061-.154-.206-.117-.365.035-.495-.275-.128-.19.226-.206-.288-.273-.227.133-.15-.178-.18.047-.33-.099-.226-.217-1.468.802-2.534 1.365-1.252.653-1.406.767.304.083-.026.269.422.367.098.223-2.21 4.554-.473.087-.335.677-1.277.402-.31.178-.479.033.016.238-.232.12-.227-.2-.267-.108-.33.023-.5.876-.7-.274-.124.309-.252.897.01.134-.623-.508-1.36-1.182-.314-.39-.412-.4-.382-.467.042-.649.494.18.412.091.618.002.114.949.916.192.413-.642.819-.519.448-.195.319-.289.634-.46.782-.337-.067-.838-.314-.133-.03-.341.267-.01.015-.142 2.03-1.862-.165-.352-.675-.86-.118-.733-.14-.6-.087-.625-.525.226-1.592.87-.917.257-3.152-.153.108-2.382-.953-.301-1.287-.513.195-.743.799.225.314-.076.453.008-.051-1.107.54-.054.541-.226-.185-1.596.381-.403-.402-3.7-.02-.434.566.02.82-.669-.547-.95 2.056-2.074-.325-.263.814-1.355.18-.756-.304-.188-.149-1.568 1.282-.136 1.664-2.06.644-.782 1.22-.14.197-.553.314-1.125.875-.132-.061-.373-.284-.652-.051-.373-.155-.069-.525.034-.732-.062.067-.547-.432-.2-.103-.133.123-.355.134-.078.222-.493.366-.282.365-.056-1.097-2.425-.639-3.853 3.874-.632.262-.035.448-.437.418-.499.937-1.716.17-.035.793-.885-.067-.391.052-.297.453-.866-.288-.928.17-.832-2.674-1.133-.206-4.512.619-1.35-.026-.671.479-1.64.03-.164-.04-.982-.093-1.177 1.22-.092.799.013.603-.053-.67 1.351.561 1.11-.062.386.423.489.129.029.334.375.232.175.268.333.294.208 1.324.594.504.61.83.537.051.76 1.2-.05 1.288-.128-.026-.367.057-.428-.273-.347-.284-.125-.37-.353.123-.696-.443-.277-.03-1.087-1.381.045-.232-4.113-.103-2.504.505.002.556-.05 1.916-.356.834-.197 1.309-1.395.592-.613.19-.567.758.27.963.404-.226-1.393-.258-1.365 1.21 1.271 1.38 1.384.675-.007.753.484.86.663 1.463 1.947 1.318.273.696-.12.226-.575.18-2.068 1.345-1.804.958-2.423.18-.062.299-1.045 2.817-.319.397-.282.582-.329.433-.48-.026-.372-.113-.274-.134.045-.119-.357-.355.053-.134-.156.129-.279-.062-.262-.335-.071.02-.219.155-.232-.077-.412-.212-.131-.077-.452-.154-.22-.016-.231-.304-.335-.149-.257-.175-.087.041-.308.356-.786.026-.495.01-1.49.16-.281.386-.403v-.222l.18-.204.2-.409-.22-.198-.371-.118-.387-.25-.767-.724 1.293-.984.999-.552.278-.116.834-.171 1.319.784.077.25.376-.135.325.209.165-.048.17.494.267.256.237.081 1.422.01.422.486-.01.29.541.744.15 1.58-.361 2.24.927.018.793-.11.381-.13.222-.178.309-.808.535-.806.258.087.556-.517.66.185-.212.574-.53 1.252-.572.36-.257.827-.273.419-1.298 1.26.139.334.623-.006 1.73-.32 1.54-.192 4.853-.706.33-.053 1.195-.606.309-.297.118-.46.263-.303.391-.191.66.846 2.075-.725.062-.373.948-.328.103-1.286.113-.235-.067-.234.062-.216.242-.342.366-.316.144-.285.031-.325.922.243.299-.08.072-.18 1.355-1.831.2-.026.763-2.882.2-.202 1.057-.857 1.962-1.283.129-.037 1.133-.705.283.027.48-.346.226-.45v-.13L90.33.69l.68-.097.407-.192 1.05.502.083.497-.474 1.084-.154 1.372-.103.392-.134.887-.294 1.351-.232.713-.025.274.154.737.118.223 1.505-.419.576-.21.176.408 1.885 2.184.427.483 1.072 2.262.474.14.468.366.345.366.32.223.54 1.245.052.415.129.1.062.283.314.702-.067.869-.072.067-.216.947.669-.297.247.059 1.144-.244.16.144 1.236-.65 1.54-1.334.752-.444.051-.205.371-.314.474-.476.577-.3.783-.561.51-.545 1.19-.906.36-.156 1.108-.122.86-.202.783.058.669.086.294.088.294.172.345.87 2.848-.007-.005 1.323 2.89-.015 3.77-.034.005.581 1.674-.158.201.134.258.036-.32.311-.623.002-.912.314-.417.035-.242.102.093.328.304.2.571-.236.948-.443.098.625-.216.049-.387.288-.386.407.397.537.345.618.479 2.554-.366.241 1.52 6.018.52 2.03.216.987.51 1.882 1.19.408.757-.525 1.2-.788-.02-.978.355-.512.464-.181.371-.28.18.208-.113.379.061.253-.139.284-.113.6.051.46.124.31-.118.253.092.113-.061.31-.067.84-.052.132.314.484.392.377-.201.365.87.102-.046.576.144.442.005.304.248.084.849-1.318.304-.003-.025-.886.463-2.063.273-.076.315-.308.128-.794-.412-.945-.046-.587-.227-.818.268-.193-.443-.53-.757-.664.031-.657.417-.84.603-1.06.685-1.358.567-1.69.721-1.31.381-.413.304-.242.195-1.393.516-.624.247-.438.309-.39.731-.121.685.23.201-.2.34-.476.654-.154.711-.563.582-.153.17-.25.077-.43.109-.065.685-.14.278-.408-.005-.47.216-.21.907-.287.844-.3.402.032 1.803.343.309-.013.561-.245 1.154-.312 1.035-.22.17 1.49.083.357.371.666.68.196 1.457-.29.732-.65.654-.537.659-.662.587-.452.175-.72-.046-.184.098-.653 1.185-.966.674-.849.685-.795.783-.616.747-.38.258-.006.577-1.436.195-.553.624-.32.298-.4.49-.537.273-.213.422-.561.881.524 1.066.558.108-.133.191.143.288-.021.454-.192.535.248.387-.498.406.205.026.192.304.138-.031.32-.216.186-.32.613-.664.257.082.762-.16.72-.118.238 2.524.763-.752 1.054.02.772.186.004 2.07 1.405.098.74-.036.944-.247.35.067.238.222.125.278.344-.036.296.061.23.603.503-.041.377.51-.107.654-.05 1.066-.17.757.21.119.192.067.673.108.663.216.79.041.452-.082.297.17.274-.026.669-.123.592.242.403-.114.418-.355.448-.232.13-.108.547.02.596-.407 1.965.294 1.261.309 1.3 1.236.76-.077.668.031 1.128.242.507.273.288.412-.05.376-.245.464-.02.247.106.082.363.624.25.211.314.252.113.026.228-.139.357v.319l.124.446.175.27.35.8.093 1.668.453.685.036.467-.087.184.396.34-.134.28.253.715-.186.853-.273.222-.123.398.092.273-.036.34.32.65-.016.207.577-.242.17-.115.237-.376.525-.1.227.219.438.04.86-.255.005-.177.315-.152-.021.222.021 1.435 2.884-.473-.041 5.279.293 1.753-1.885.224-.649-.073-.999.168-.577.133.144.373.129.113-.134.566 1.298 1.113.196.3-.994 1.69.309.097.216.188.546.265-.747 1.382-.407.648-1.653.644-.072-.205-.428.016-.046-.189.396-.763-.154-.07-.17.308-.289-.01-.118.108-.592.052-.629-.067-.221.592-.289-.053-.149-.281-.263.073-2.307.918-.289.055-.087.171.118.61.752 3.374.258 1.087.86 3.878.391 1.657.047.29.376 1.716.093.471.303 1.34.516 2.055.412 1.53.427.498.67.145.015-.927.103-3.236 1.551-.329.994.743 2.281 1.62 1.092.801.655.448.396.323 1.231.929.139.302 1.844 3.283.304.519.371.522.247.212.515.248.567.63.196.263.314.19.175.195.613.333.345.092 1.174 1.254.325.499-2.395 3.089-.438.603-.314.366.144.067-.438.803-.319.657-.227.022.15.683.185.544-.247.683-.036.938.025.61.124.708.015.37-.577.32-.978-.385-.448-.334-.248-.057-.412.114-.922.175-.448.388-.484-.019.01.383-.144 3.229-.062 1.053.078-.003 1.571.48.381-.02.268.348 2.446 2.445.644 1.333-.314 1.501.556.638 1.041 1.243.185.027.67.317.571.601.541.519.665 1.317-.943 2.03-1.076 2.206 2.688 1.8.479-.812.618.211.438 1.93-1.071.104-.402-.248-1.061-.326-1.396-.192-1.076.886.489.388-.155.358.516.466.031.252.741.511.134.202.526.358.247-.122.288.209-.232.458-.746.519-.176-.06-.149.425.371.055v.66l-.062.167-.227.184-.494.052-.304-.016-.551.165-.479.01-.871-.035-.015.107.69.075.284.131.309.054.036.256.314-.119.072.168.299.023.53.332.454.032.092-.208-.072-.238.077-.121.495-.097.247-.224.443.047.325-.063.262-.454.227-.107.7.035.248.151.005.195.237.191.407.08.324-.185.361.363.386-.014.005-.139.309-.027-.113.237.252.105.011.232-.34.562.221.052.17.162-.036.305.268.356.005.22.196.687.314.089.015.201-.118.394-.093.097-.026.409.083.102-.186.388.021.171-.145.401.242.538-.01.393.469.221.057.173-.078.333-.293.555-.85.882-.268.581-.252.069-.304.501-.067.61-.175.274-.258-.143-.196.253-.242-.177-.602.059-.577-.119-.52-.394.077-.092-.258-.246.119-.128-.922-.39-.175-.272-.191-.063.088-.325-.165-.23-.819-.245.067-.242-1.401-.256.479-.462-.217-.453.567-.446.551-.248-.005-1.277-.737.114-.18.148.15.397-.016.231-.345.045.052-.431-.237-.397-.562.024.021-.183-.186-.35-.942-.235.319.545.397.811.298.48.33.816.057.24-.021.392-.53-.104-.041.188-.624-.1-.17-.094-.489-.053-.201-.168.17-.43.242-.268-.314-1.087-.144-.261-.752.041-.366 1.052-.649.475-.371.227-1.988-.337.247 1.014-.232 1.275-.613.002-.499.22-.103.181-.814.306-.891-.067-.17.322.19.273-.18.676-.273.489-.906.237-1.86.83-.046-.041-.479.616-.283-.267-1.149-1.176-.356.637-.762-.413-.02-.086-.855-.541-.356.766.696.578.788.271-1.005 1.474-1.148 1.613-.438.181-.598.08-.865-.167-.438 1.693-.633.134-.521-.581-.159-.716-.057-.441-.149-.016-2.081-.564-.361-.074.139-.882-.165-.454-.798-.094.072-.521.113-.226-.53-.267-.551-.044-.541-.142-.077-.125-.273-.056-.062-.138-.242-.109-.191.103-.257.004-.917-.125-.113.185-.026.281-.252.375-.093.299-.35.484.046.307-.088.066-.844.339-.984.327-.345.047-.572.36-.428.059-.51-.025-.303.062-.253.136-.149.225-.376.08-1.829.14-.571-.101-1.386-.168-.613-.424.237-.493.361-.475.118.082.258-.105.592-.013.685.111-.057-.58.417.117.016.124.855.14-.046-.582-.516.059-.736-.056-.737-.162-.51-.01-.36-.307-.742-.734-.005-.341.185-.041v-.558l-.432-.438-.278-.014-.737-.128.02-.995-.226-.696-.531-.065-.185-.067-.247-.261-.345-.089-.124-.108-.031-.501-.989-.116-.108.525-.644.014-.263-.541-1.349.629-.418-.836-.674.289-.68.331-.407.478-.283-.353-.206-.146.036-.231-.083-.267-.752-.66.144-.302-.597-.388-.299-.032-1.797.841-2.035.98-.819.411-.067.395.268.117.01.124" clip-rule="evenodd"/><path stroke="#000" stroke-linecap="round" stroke-linejoin="round" stroke-width=".2" d="m142.42 131.881-.051.153-.294.276.083.521-.428.387-.082.142-.361.107-.165.217-.051.268.345.421.005.19.175.169-.061.43.144.126-.016.264.268.684-.819.759-.628-.457-.067-.335-.979-.25-1.607-.432-1.9-.491-1.705-1.645-.964.517-.128.114-.474.91-.227.328-.263.087.33 1.624-.216 1.587-1.164.69-.551.085-.124-.685-.077-.605.231-.902-.164-.529-.634.11-.556.041-1.226-.047-.005-.701-.078-1.032.737-.071.793-.388.593-.536.293-.376-.082-.468.087-.353-.18-.578.319-1.033.119-.237.968-.577.165.022.407-.325-.026-.137-1.298.161-3.178.269-.051-.87-.248-.155.047-.307-.186-.009-.206.235-.17.047-.335.255-.18-.091.165-.256.448-.096.294-.443-.093-.309.16-.298-.052-.098.134-.303.319-.539.397-.203.031-.28-.057-.601.119-.27.273.008.551-.091.01-.183.155-.233-.521-.148-.515.019-.067.273-.679-.529-.212-.086-.134.088-2.575.265-.01.451.36.189.289.485-.623.334-1.18.555-1.458.641-.283.026-.201-.228-.891-.65-.237-.06-.01-.177-.18-.535-.253-.019-.484.076-.257-.008-.521.136-.175.113-.355.049-.093.1-.484.156-.278.243-1.36.05v-.306l-.201.005-.088-1.094-.396-.055-.026-.242-.263-.189-.438-.075-.046-.737-1.102.177.113-.944-.479-.091-1.159-.27-.592 2.043-.119.301-.304 1.078-1.493.011-.155-.363-1.231.275-.139-.589-.175-.521-.423-.087-.108-.168-.757.172-1.025.708-.613.145-.139-1.586-.458.141-.232.24-.824.346-1.015-.286-1.015-.317-.314-.067-1.865.09-.478-.15-.083.11-.134.526-.474.136-.288.032-.376-.24-1.937-.298-.613.476-.16 2.224.021.214.232.512-.727.776.547.938-.737.283-.536-.33-.577-.116-.365-.37-.098.156-1.417-.568-.18-.094.031-.316-.299-.017.114-1.166-1.123-.811.767-.63.418-.556-.593-.388-4.11-2.482.396-.536-2.127-.838.288-.657.433-1.08-2.153-.876.082-.856.14-.354.005-.8-.18-.224-.655-2.259-.237-.053-.736-2.728-.35.118-.346-.144-.072-.45-.757-.355.345-1.738.974-.633.38-1.356.032-.234.242.057.206-.611.278-.465 1.252-.983.608-.556.242-1.129.345-.096-.02-.756-.377-.51.098-.584-.525-.714-1.061-1.489-.124-.26-.232-.3-.319-1.163 1.416-.28-1.097-.631-.741-.529-2.478-1.573.82-1.378.504-.81.386-.739.428-.656-.536-.31-.108-.373-.077-.548.365-.244v-.336l-.345.2-.917.151-.365.142-.356.056-.458-.099-.155.02-.582-.22-.767-.126-1.324-.12-.603-.159-.52-.185.036-.148-.85-.421-.273-.177-.448-.143-.314-.318.268-.249-.366-.398.464-.396-.083-.197-.396-.374-2.246-.753-.793-.492-1.855.142-1.148.06-.14.137-.386-.398.392-.594-.114-.59-.195-.069-.124.187-.211.316-1.643 2.344-.994.1-.284-.49-.9.505-.98-.144-1.143.181-.907-.462-.736.286-1.072-.232-.633.073-1-.261-.298.093-.443.055-1.097-.39-.294-.054-.417.353-1.34.326-.18-.073-.17.256-.21.067-.505-.226-.444.058-.37.149-.423-.027.881 1.646-.129.243-.489.04-.031.197-.247.018-.31.28.516.544.015.596.53.302.397.134.268.37.283.242.032.207-.907.731-.737.98-.407-.03.032.386-.52-.018-1.71.044-1.052.006-.602-.14-.036-1.414-2.004-.813-1.622.056-.01-1.657.416-.175.093-1.514-.53-.502-.314-1.17-.016-.289-.257-.315-.943-.76-.479-.478-.232-.812-.731-.945-.268-.12-1.34-.23-.071.529-.304.128-.443-.143-.84-.72-.268-.146-.365.29.51 1.317-.268.004.36 1.903-.221.113-.201-.244-.48.216-.35-.118-.118-.222.325-.284.309.052-.103-.915.061-.154-.206-.117-.365.035-.495-.275-.128-.19.226-.206-.288-.273-.227.133-.15-.178-.18.047-.33-.099-.226-.217-1.468.802-2.534 1.365-1.252.653-1.406.767.304.083-.026.269.422.367.098.223-2.21 4.554-.473.087-.335.677-1.277.402-.31.178-.479.033.016.238-.232.12-.227-.2-.267-.108-.33.023-.5.876-.7-.274-.124.309-.252.897.01.134-.623-.508-1.36-1.182-.314-.39-.412-.4-.382-.467.042-.649.494.18.412.091.618.002.114.949.916.192.413-.642.819-.519.448-.195.319-.289.634-.46.782-.337-.067-.838-.314-.133-.03-.341.267-.01.015-.142 2.03-1.862-.165-.352-.675-.86-.118-.733-.14-.6-.087-.625-.525.226-1.592.87-.917.257-3.152-.153.108-2.382-.953-.301-1.287-.513.195-.743.799.225.314-.076.453.008-.051-1.107.54-.054.541-.226-.185-1.596.381-.403-.402-3.7-.02-.434.566.02.82-.669-.547-.95 2.056-2.074-.325-.263.814-1.355.18-.756-.304-.188-.149-1.568 1.282-.136 1.664-2.06.644-.782 1.22-.14.197-.553.314-1.125.875-.132-.061-.373-.284-.652-.051-.373-.155-.069-.525.034-.732-.062.067-.547-.432-.2-.103-.133.123-.355.134-.078.222-.493.366-.282.365-.056-1.097-2.425-.639-3.853 3.874-.632.262-.035.448-.437.418-.499.937-1.716.17-.035.793-.885-.067-.391.052-.297.453-.866-.288-.928.17-.832-2.674-1.133-.206-4.512.619-1.35-.026-.671.479-1.64.03-.164-.04-.982-.093-1.177 1.22-.092.799.013.603-.053-.67 1.351.561 1.11-.062.386.423.489.129.029.334.375.232.175.268.333.294.208 1.324.594.504.61.83.537.051.76 1.2-.05 1.288-.128-.026-.367.057-.428-.273-.347-.284-.125-.37-.353.123-.696-.443-.277-.03-1.087-1.381.045-.232-4.113-.103-2.504.505.002.556-.05 1.916-.356.834-.197 1.309-1.395.592-.613.19-.567.758.27.963.404-.226-1.393-.258-1.365 1.21 1.271 1.38 1.384.675-.007.753.484.86.663 1.463 1.947 1.318.273.696-.12.226-.575.18-2.068 1.345-1.804.958-2.423.18-.062.299-1.045 2.817-.319.397-.282.582-.329.433-.48-.026-.372-.113-.274-.134.045-.119-.357-.355.053-.134-.156.129-.279-.062-.262-.335-.071.02-.219.155-.232-.077-.412-.212-.131-.077-.452-.154-.22-.016-.231-.304-.335-.149-.257-.175-.087.041-.308.356-.786.026-.495.01-1.49.16-.281.386-.403v-.222l.18-.204.2-.409-.22-.198-.371-.118-.387-.25-.767-.724 1.293-.984.999-.552.278-.116.834-.171 1.319.784.077.25.376-.135.325.209.165-.048.17.494.267.256.237.081 1.422.01.422.486-.01.29.541.744.15 1.58-.361 2.24.927.018.793-.11.381-.13.222-.178.309-.808.535-.806.258.087.556-.517.66.185-.212.574-.53 1.252-.572.36-.257.827-.273.419-1.298 1.26.139.334.623-.006 1.73-.32 1.54-.192 4.853-.706.33-.053 1.195-.606.309-.297.118-.46.263-.303.391-.191.66.846 2.075-.725.062-.373.948-.328.103-1.286.113-.235-.067-.234.062-.216.242-.342.366-.316.144-.285.031-.325.922.243.299-.08.072-.18 1.355-1.831.2-.026.763-2.882.2-.202 1.057-.857 1.962-1.283.129-.037 1.133-.705.283.027.48-.346.226-.45v-.13L90.33.69l.68-.097.407-.192 1.05.502.083.497-.474 1.084-.154 1.372-.103.392-.134.887-.294 1.351-.232.713-.025.274.154.737.118.223 1.505-.419.576-.21.176.408 1.885 2.184.427.483 1.072 2.262.474.14.468.366.345.366.32.223.54 1.245.052.415.129.1.062.283.314.702-.067.869-.072.067-.216.947.669-.297.247.059 1.144-.244.16.144 1.236-.65 1.54-1.334.752-.444.051-.205.371-.314.474-.476.577-.3.783-.561.51-.545 1.19-.906.36-.156 1.108-.122.86-.202.783.058.669.086.294.088.294.172.345.87 2.848-.007-.005 1.323 2.89-.015 3.77-.034.005.581 1.674-.158.201.134.258.036-.32.311-.623.002-.912.314-.417.035-.242.102.093.328.304.2.571-.236.948-.443.098.625-.216.049-.387.288-.386.407.397.537.345.618.479 2.554-.366.241 1.52 6.018.52 2.03.216.987.51 1.882 1.19.408.757-.525 1.2-.788-.02-.978.355-.512.464-.181.371-.28.18.208-.113.379.061.253-.139.284-.113.6.051.46.124.31-.118.253.092.113-.061.31-.067.84-.052.132.314.484.392.377-.201.365.87.102-.046.576.144.442.005.304.248.084.849-1.318.304-.003-.025-.886.463-2.063.273-.076.315-.308.128-.794-.412-.945-.046-.587-.227-.818.268-.193-.443-.53-.757-.664.031-.657.417-.84.603-1.06.685-1.358.567-1.69.721-1.31.381-.413.304-.242.195-1.393.516-.624.247-.438.309-.39.731-.121.685.23.201-.2.34-.476.654-.154.711-.563.582-.153.17-.25.077-.43.109-.065.685-.14.278-.408-.005-.47.216-.21.907-.287.844-.3.402.032 1.803.343.309-.013.561-.245 1.154-.312 1.035-.22.17 1.49.083.357.371.666.68.196 1.457-.29.732-.65.654-.537.659-.662.587-.452.175-.72-.046-.184.098-.653 1.185-.966.674-.849.685-.795.783-.616.747-.38.258-.006.577-1.436.195-.553.624-.32.298-.4.49-.537.273-.213.422-.561.881.524 1.066.558.108-.133.191.143.288-.021.454-.192.535.248.387-.498.406.205.026.192.304.138-.031.32-.216.186-.32.613-.664.257.082.762-.16.72-.118.238 2.524.763-.752 1.054.02.772.186.004 2.07 1.405.098.74-.036.944-.247.35.067.238.222.125.278.344-.036.296.061.23.603.503-.041.377.51-.107.654-.05 1.066-.17.757.21.119.192.067.673.108.663.216.79.041.452-.082.297.17.274-.026.669-.123.592.242.403-.114.418-.355.448-.232.13-.108.547.02.596-.407 1.965.294 1.261.309 1.3 1.236.76-.077.668.031 1.128.242.507.273.288.412-.05.376-.245.464-.02.247.106.082.363.624.25.211.314.252.113.026.228-.139.357v.319l.124.446.175.27.35.8.093 1.668.453.685.036.467-.087.184.396.34-.134.28.253.715-.186.853-.273.222-.123.398.092.273-.036.34.32.65-.016.207.577-.242.17-.115.237-.376.525-.1.227.219.438.04.86-.255.005-.177.315-.152-.021.222.021 1.435 2.884-.473-.041 5.279.293 1.753-1.885.224-.649-.073-.999.168-.577.133.144.373.129.113-.134.566 1.298 1.113.196.3-.994 1.69.309.097.216.188.546.265-.747 1.382-.407.648-1.653.644-.072-.205-.428.016-.046-.189.396-.763-.154-.07-.17.308-.289-.01-.118.108-.592.052-.629-.067-.221.592-.289-.053-.149-.281-.263.073-2.307.918-.289.055-.087.171.118.61.752 3.374.258 1.087.86 3.878.391 1.657.047.29.376 1.716.093.471.303 1.34.516 2.055.412 1.53.427.498.67.145.015-.927.103-3.236 1.551-.329.994.743 2.281 1.62 1.092.801.655.448.396.323 1.231.929.139.302 1.844 3.283.304.519.371.522.247.212.515.248.567.63.196.263.314.19.175.195.613.333.345.092 1.174 1.254.325.499-2.395 3.089-.438.603-.314.366.144.067-.438.803-.319.657-.227.022.15.683.185.544-.247.683-.036.938.025.61.124.708.015.37-.577.32-.978-.385-.448-.334-.248-.057-.412.114-.922.175-.448.388-.484-.019.01.383-.144 3.229-.062 1.053.078-.003 1.571.48.381-.02.268.348 2.446 2.445.644 1.333-.314 1.501.556.638 1.041 1.243.185.027.67.317.571.601.541.519.665 1.317-.943 2.03-1.076 2.206 2.688 1.8.479-.812.618.211.438 1.93-1.071.104-.402-.248-1.061-.326-1.396-.192-1.076.886.489.388-.155.358.516.466.031.252.741.511.134.202.526.358.247-.122.288.209-.232.458-.746.519-.176-.06-.149.425.371.055v.66l-.062.167-.227.184-.494.052-.304-.016-.551.165-.479.01-.871-.035-.015.107.69.075.284.131.309.054.036.256.314-.119.072.168.299.023.53.332.454.032.092-.208-.072-.238.077-.121.495-.097.247-.224.443.047.325-.063.262-.454.227-.107.7.035.248.151.005.195.237.191.407.08.324-.185.361.363.386-.014.005-.139.309-.027-.113.237.252.105.011.232-.34.562.221.052.17.162-.036.305.268.356.005.22.196.687.314.089.015.201-.118.394-.093.097-.026.409.083.102-.186.388.021.171-.145.401.242.538-.01.393.469.221.057.173-.078.333-.293.555-.85.882-.268.581-.252.069-.304.501-.067.61-.175.274-.258-.143-.196.253-.242-.177-.602.059-.577-.119-.52-.394.077-.092-.258-.246.119-.128-.922-.39-.175-.272-.191-.063.088-.325-.165-.23-.819-.245.067-.242-1.401-.256.479-.462-.217-.453.567-.446.551-.248-.005-1.277-.737.114-.18.148.15.397-.016.231-.345.045.052-.431-.237-.397-.562.024.021-.183-.186-.35-.942-.235.319.545.397.811.298.48.33.816.057.24-.021.392-.53-.104-.041.188-.624-.1-.17-.094-.489-.053-.201-.168.17-.43.242-.268-.314-1.087-.144-.261-.752.041-.366 1.052-.649.475-.371.227-1.988-.337.247 1.014-.232 1.275-.613.002-.499.22-.103.181-.814.306-.891-.067-.17.322.19.273-.18.676-.273.489-.906.237-1.86.83-.046-.041-.479.616-.283-.267-1.149-1.176-.356.637-.762-.413-.02-.086-.855-.541-.356.766.696.578.788.271-1.005 1.474-1.148 1.613-.438.181-.598.08-.865-.167-.438 1.693-.633.134-.521-.581-.159-.716-.057-.441-.149-.016-2.081-.564-.361-.074.139-.882-.165-.454-.798-.094.072-.521.113-.226-.53-.267-.551-.044-.541-.142-.077-.125-.273-.056-.062-.138-.242-.109-.191.103-.257.004-.917-.125-.113.185-.026.281-.252.375-.093.299-.35.484.046.307-.088.066-.844.339-.984.327-.345.047-.572.36-.428.059-.51-.025-.303.062-.253.136-.149.225-.376.08-1.829.14-.571-.101-1.386-.168-.613-.424.237-.493.361-.475.118.082.258-.105.592-.013.685.111-.057-.58.417.117.016.124.855.14-.046-.582-.516.059-.736-.056-.737-.162-.51-.01-.36-.307-.742-.734-.005-.341.185-.041v-.558l-.432-.438-.278-.014-.737-.128.02-.995-.226-.696-.531-.065-.185-.067-.247-.261-.345-.089-.124-.108-.031-.501-.989-.116-.108.525-.644.014-.263-.541-1.349.629-.418-.836-.674.289-.68.331-.407.478-.283-.353-.206-.146.036-.231-.083-.267-.752-.66.144-.302-.597-.388-.299-.032-1.797.841-2.035.98-.819.411-.067.395.268.117.01.124"/><path id="Звягельський" fill="#C8C6C6" fill-rule="evenodd" stroke="#000" stroke-linecap="round" stroke-linejoin="round" stroke-width=".2" d="m40.696 199.912-1.747.613.279 1.167.195.935-1.756.39.02-.591.036-.225.047-1.73-.041-.317.061-1.112-.154.15-.5.218-.082.231-.217-.028-.067-.439-.185-1.578-.113-.158.046-.384-.448-.188-.803.039.154-2.005.33.086.288-1.662-.247-.844-.144-1.248-1.087-.034-.654.021-.32.642-.53.103-.01.663-.346.042-.02.241-1.617-.01-1.139 2.221-.237.514-.51-.025-1.385-.959-.16-.077-.67-.494-.468-.304-.248-.496-.051-.198-.438-.959.041-.69-1.7-.097-.004-.257-1.561-.194.18-1.89-1.746-.126-.051.554-.14-.004-.613-.45-.468-.674-.366-.206-.196-.244-.597-.458.242-.376.52.143.186-.042.33-.286-.552-.262.17-.139.51.06.062-.213.273.115.175-.123.175-.476-.309-.111.01-.923-.309-.179-2.76-2.02-.969-.68-.453-.404-.778.125-.268-.057-.639-.255-.34.148-.267.028-.623-.148-.371.031-.412.158-.366.035-.232-1.072.14-.372.416-.561.036-.365.284-.581-.041-.118.025-.791-.195-.505.046-.413-.83-.514.021-.095-.968-.542-.067.086-1.123-.583-1.597-.854-.067-.015-1.535-.799.242-1.056.3-.361-.238-.067.18-.448v-.245l.418-2.03 1.931-3.036.644-.976.16-.465.01-.218-.082-1.14-.067-.402.128-.741.474-.962.273-.422.062-.218.046-.548-.355-.185-.15.091-.344-.003-.572.066-.515.333-.366.017-.536-.141-.16-.3-.313-.219-.088-.497.077-.463.088-.849-.356-.509-.741-.342-1.18-.703-.757-.36-.232-.272.114-.183-1.566-.63-.31-1.596-.406-.799-.206-.329-.016-1.304.278-.116.964-.104.036-.216 1.674-.179-1.355-2.886.165-.604.551-.835.015-.606.062-.225-.263-.228-.942-.436-.165-.283-.355-.007-.51-.819-.783-.298.03-.263-.107-.255.108-.297.309-.052.144.163.458-.093.155-.173.289-.045-.083-.189-.304-.045-.026-.313.36-.296.233-.304.53-.325-.52-.561.412-.455-.026-.966.072-.358-.298-.255-.227.047-.206-.092-.2-.319.185-.617.2-.023.35-.381.428-.22.397.124.16-.363.494.283.237-.378.644.118.2-.261.315.202.134-.404.38-1.467-.004-.158.237-.188.062-.157-.273-.111.226-.425.186-.248.154.032.32-.326-.273-.38.216-.547.18-.02.01-.267.376-.308.14-.197.298-.049.072-.473-.015-.399.072-.196-.046-.342.092-.286-.03-.189-.325-.338.01-.432.196-.096.046-.235-.103-.193-.391-.037.113-.23-.335-.478.062-.252-.242-.277.155-.201-.006-.205.366-.369.098-.276-.041-.328.154-.775-.098-.268-.267.046-.093-.097-.48.237-.164-.364.082-.14-.226-.176-.407-.172-.273.008-.283-.173-.273-.048.082-.41-.175-.092.041-.174-.252-.23.128-.122.109-.836.18-1.167-.732-.379-.236-.199.092-.575.16-.216.02-.216.145-.095-.14-.506-.05-.341.236-.091.15-.299-.057-.32.026-.506-.067-.321.108-.275.206-.064-.067-.196.082-.263-.252-.215-.041-.312-.17-.075-.036-.328-.222-.094.088-.36.16-.178-.021-.409.124-.386.18-.346.227-.235.04-.254.222-.137.33-.354-.443-1.671.747-1.711-.562-.187.304-.803.211-.082.279-.577.066-.248-.252-.137-.237-.333-.232-.158-.623-.253-.551-.539.2-.328-.241-.415-.675-.012-.088.183-.278-.303-.005-.362-.247-.268-.144-.321-.124-.792.201.007.242-.655.32.125.345-.395.798-.312.088-.224-.402-.167.365-.983-.52-.192.14-.249-.907-.466.03-.49.14-.288.051-.56-.18-.261.031-.189-.407-1.02-.257-.253-.33-.687-.067-.28-.412-.639-.216-.267-.067-.292-.278-1.22.952-.532.392-.604.88.083.212-1.874-.726-.771-.016-.336.99-.065 3.806-.273.118-1.028 4.07-.254-.737-1.39.257-1.408.371-.848-.216-.97.128-.54.85-.317 1.288.513.953.302-.108 2.382 3.152.152.917-.257 1.592-.87.525-.225.088.624.139.6.118.733.675.86.165.352-2.03 1.862-.015.142-.268.01.031.341.314.133.067.838-.783.337-.633.46-.32.289-.448.195-.819.52-.412.64-.917-.19-.113-.95-.618-.002-.412-.09-.495-.18-.04.648.38.468.412.399.315.39 1.36 1.183.623.507-.01-.133.252-.898.123-.309.701.275.5-.876.33-.024.267.107.227.2.232-.12-.016-.237.48-.033.308-.178 1.278-.402.334-.676.474-.088 2.21-4.553-.098-.224-.422-.367.026-.269-.304-.082 1.406-.768 1.252-.653 2.534-1.364 1.468-.803.226.218.33.098.18-.046.15.178.226-.133.289.272-.227.206.129.19.494.275.366-.035.206.117-.062.154.103.915-.309-.052-.324.284.118.223.35.117.48-.216.2.244.222-.113-.36-1.902.267-.004-.51-1.319.366-.289.268.147.84.72.442.142.304-.128.072-.528 1.34.229.267.12.732.945.232.812.479.478.942.76.258.315.015.289.314 1.17.53.502-.092 1.514-.417.175.01 1.657 1.623-.055 2.003.813.036 1.413.603.14 1.05-.006 1.711-.044.52.018-.03-.386.406.03.737-.98.906-.73-.03-.208-.284-.242-.268-.37-.397-.134-.53-.302-.016-.596-.515-.543.31-.28.247-.019.03-.197.49-.04.129-.243-.881-1.646.422.027.371-.15.443-.056.505.226.211-.068.17-.255.18.073 1.34-.327.417-.352.293.053 1.098.39.443-.054.298-.094 1 .26.633-.072 1.072.232.736-.285.907.461 1.143-.181.979.145.901-.505.283.49.995-.1 1.643-2.345.21-.316.124-.187.196.068.114.591-.392.594.386.398.14-.138 1.148-.058 1.854-.142.794.491 2.245.754.397.374.082.196-.463.396.365.399-.267.248.314.318.448.143.273.177.85.421-.036.149.52.184.603.158 1.323.122.768.126.582.219.154-.02.459.1.355-.057.366-.141.917-.151.345-.2v.335l-.366.244.078.548.108.374.535.309-.427.656-.386.74-.505.81-.82 1.377 2.478 1.573.742.529 1.097.63-1.416.28.319 1.164.232.3.123.26 1.062 1.489.525.714-.098.585.376.51.02.755-.345.097-.242 1.128-.607.556-1.252.984-.278.465-.206.61-.242-.057-.031.234-.382 1.356-.973.633-.345 1.738.757.356.072.449.345.145.35-.118.737 2.727.237.053.654 2.259.18.224-.005.8-.139.355-.082.856 2.153.876-.433 1.079-.288.657 2.127.839-.397.535 4.11 2.482.593.388-.417.557-.767.629 1.122.812-.113 1.166.299.016-.031.316.18.095 1.416.568-.154 1.233-.335.019-.968.134-.144-.036-.16.229.211.424.14.07.252.379.592.727.386.672.402.202.355.382.644.468.217.348.206.2v.275l-.356 1.285-.304.288-.267.139-.701.819-.263.339-.144.327-.273.074-.052.336-.314.401-.026.513-.17.327-.38.29-.124.182-.253.161.165.252-.067.329-.675.182-.577.116-.417.127-.68.307-.401.139-1.195.864-.16.046-.031.208-1.025 1.04-1.108.12-.479-.022-.267.16-.02.32-.228.13-.077.164-.237.015-.633.153-.907-.072-.469.24-.324.364-.433.353-.566.274.092.465-.298.102-.685.442-.758.148-.376.034-.345.097-.736-.505-.912-.27-.165-.31-.335-.28-1.251.011.005.074.196 2.116.819 1.997-1.113 1.549-.103.239-.237-.104-.196-.189-.463.03-.18.219.01.144-.284.46-.5.084-.123-.046-.345.558.464.256-.53.913-1.443-.889-.634 1.299.114.365.293-.034.206.144.047.195.237.272-.191.187-1.226.324-.438.135-1.2.272-.896.224-.984.272.536.295-.433.933-.798 2.104-.417.989.417.172.216-.005.392.25-.016.198-.304 2.086.016.276.231.428.227.565.386 1.703-.345.134-.69.441-.222.055-.118.161v.141l.17.394.767.02.31.291-.165.155.35.95.35.068.299.454.113.806-.262.099-.15.299-.19.064-.366-.186-.211-.221-.897-.119-.144-.152-.273-.107-.257-.01.01.514 3.343 1.327.479-.222.376-.058.68.254.875.215.618.266.258-.564.299.055.618.243.422.225.412.119 1.365.538.66.06-.073.432.253.162.036.281-.453.306-.16.164-.14.392-.014.423-.165.437-.016.554-.262.469.86.753.953.877.479.388.458.295-.293.24-.145.365-.52.159-.15.175-.22.084-.634.433-1.515-.602-.834 1.718-2.746-1.15-.751 4.761-.273-.076-.237.041-.083.243.196.228.314.086-.16 1.01-2.544-.466-.268.007-1.195-.228-.896-.455-.098-.081-.587.267-.067.245-.232.487.057.356-.047.274-.149.243-.407.347-.685-.448-.124.274-.206.877-.505-.056-.427.218-.474.04-.046 2.733-.078 2.229-.092-.015-.242.519-.454-.179.186-1.052.196-.081-.062-.322.134-.25-1.154-.311-.31-.116.037.206-.155.137-3.456-.881.206-.183-.129-.661-2.441.415-2.24.354v.328l.288.576-.078.177 2.01-.294.375 2.22-2.096.249.123-.368-.139-.648-3.002.461-.021.721-.16.182.098.727-.129.019-.195.367-.356-.214-.597-.133-.727-.087-.273.081-.324-.865.458-.161-.056-.364.747-.58-.109-.355-.267-.538-1.108.49-1.396.225.026.313.196.101-.124.317 1.03 1.051.31.723-.206-.117-.438-.045-.227.1-.288-.524-.392-.421-.129-.218-.2.221.257.208.2.061-.633.259-.37.587-.201.678.659.159.17.511-.036.161-.814.271.309.623.165.181Z" clip-rule="evenodd"/></svg>