<svg xmlns="http://www.w3.org/2000/svg" width="232" height="155" fill="none" viewBox="0 0 232 155"><path id="Луганська область" fill="#C8C6C6" stroke="#000" stroke-width=".2" d="m207.056 47.636.259 1.311.816.46.207-.335.462.09.259.597.489.154.726-.387.8.429.519-.865.308.38-.244.917 1.218 1.08 1.425.187.402 1.432 1.169-.537.541.12 1.448-1.417 1.334 2.594 1.173.338.865-.41 2.06.534-.132.489.759 1.842 1.154.353.73.767 1.515-.21.409-.553 2.301-.354.395.906-1.594.944-.124 1.101.597 1.068 1.41 1.23-.184 1.04.474.948-.982.101-.766 1.019-.579.154-1.173 2.383-1.654-.09-.489.395-1.233-.011-.098.797 1.094.24.481.917-.187.282.687.767.226-.29.951.08.917.533.534-.947.545.906-1.274 1.496-2.252-.928-.413 1.45-.384.016-.421.853.218.696-.771 1.424.35.444 1.323-.128.722.447.218 1.143-.244.71.635.47.113 1.076.21.3.23-.218.064.684-1.218.339-.102.455.752.176.214.564.876-.872.436 1.203-.154.56-.85-.075-.071.902-.346.045-.537 1.872-.395.23.609.522-1.376.023.545 1.101-.327 2.045-.395.087-.33.8-1.448-.225-.988.252-.88-.685-.797.58-.357-.771-1.842.075-1.207.481-.774-.184-.139-.357.233-1.308-.666-.335-.003-.906-2.568-.177-.225-1.943-2.703-1.004-.218-1.605-.463-.444-1.142.136-.534-.282.139-1.015.748-.47-.579-.24-.195-1.335-.647.304-.868-.473-.248-.421.304-.662-.538-.635-.176-2.357.695-.357-.131-.553.267-.101-.805-.628.639-1.421-1.143-.267.015-1.782-1.436.117-1.349-.346.297-.557.308.17-.004-.391.587-.196-.602-1.225.354-1.707-.44-.079-.094.466-1.628-.443-.203-.459.538-.342-.82-.88.519-.447-.154-.203.74-.282-.127-.353-.812-.177.173-1.82-.241-.823-.414.004-.086-.943.143-.527.936-.327-.481-.252.188-.424.631.052-.071-.793.673-.327-.173-.38.778-.214-.556-.838.161-.263-.492.094-.29-.44.301-.696.278.279.707-.628-.556-.545.139-.47.894-.222-.752-1.038 1.155-.8.041.395 1.154-1.132-.492-2.004 1.176.154.538-.308.233.294Z"/><path id="Донецька область" fill="#C8C6C6" stroke="#000" stroke-width=".2" d="m201.191 64.04.82.88-.534.342.203.463 1.631.443.094-.466.44.079-.353 1.707.601 1.225-.586.196.004.39-.309-.169-.297.557 1.35.346 1.436-.117-.015 1.782 1.143.263-.639 1.425.804.624-.267.101.132.553-.692.357.177 2.357.537.639-.3.658.244.42.868.475.651-.305.195 1.335.579.244-.748.47-.139 1.011.534.282 1.142-.135.463.447.218 1.605 2.703 1.004.225 1.943 2.568.177.007.906.666.334-.233 1.312-3.038.14-.09.902-.489.018-.222 2.451-1.357-.263.027.56-.485.004-.151.47-1.996.015-.049.474-1.334.037-.004.737-.534.008-.06.594-.274.022.229 2.872-1.03 1.222.026.353 1.459.045-.072.778-1.263.598.061 1.696-.925 1.368-.376.064-.925-.91-.41.421-1.744-.398-1.304.466-3.207.09-3.049 3.977.249-.812-1.053-.729-2.18 1.24-.534-.845 1.515-.959-.639-.496.436-.617-1.778-.721.338-.207-.143-.718-1.868-1.323 1.387-.042-.466-2.184 1.425.32 1.048-.726-.169-.658.369-.094.323.726.504-.256.522-2.12-.812-.3-.301.556-.999-.715-.685-1.146-.259.278-.718-.68-.662.53-.827-1.429-1.052.286.222-.5-.493.079-.083-.523.929-.496-.989.105-.533-2.161-1.053.147.244-1.053-.297-.124-.534-1.079 1.241-.286-.15-.778-.549.064-.079-2.304.94-.365.819.267.376.628 1.346.36.537-.875-.289-1.974.819-.195-.33-2.214-1.177-.06-.116-.662.176-1.267.365-.06-.26-1.286.301-.082-.052-.538.703-.124-.064-.432-1.132-.466-.06-.53-.771-.008-.082-.568-.312-1.263.267-.244-.598-1.33.379-.58 1.305.624.428-.556 1.425.143.812.85.151-.309-.606-.458.354-.527.556.08.391-.715 1.188.707.015-1.245.966-.842.748.027-.402-.974.609-.646.372.21.169-1.075 1.199-.14.339-.266-.139-.684 1.778-.726-1.696-.894.737-.745 3.635.53.297-.722Z"/><path id="Харківська область" fill="#C8C6C6" stroke="#000" stroke-width=".2" d="m196.207 39.982-.177 1.497.252.526 1.147.977.793-.064-.286 1.839.357.86 1.436 1.899.53-.102 1.605.914.545 1.173.985.902-.139.635.752 1.038-.895.221-.139.47.557.545-.707.628-.278-.278-.301.695.289.44.493-.094-.162.263.557.839-.779.214.173.38-.672.327.071.793-.632-.053-.188.425.482.252-.936.327-.143.526.086.944.414-.004.24.823-.173 1.82.812.176.128.354-.74.282.154.203-.519.447-.323.714-3.635-.53-.737.748 1.695.895-1.774.722.135.688-.338.263-1.196.143-.169 1.075-.372-.21-.609.646.406.973-.752-.026-.966.842-.015 1.24-1.184-.702-.391.71-.556-.079-.354.53.606.459-.151.312-.816-.853-1.424-.143-.429.556-1.301-.624-.379.583.598 1.33-.267.245.312 1.263-1.895.485-1.383-1.177-.666.53.222.391-1.188 1.556-.38-.402-.349.451-.327-.24.598-.865-.831-.62.383-.74-1.782-1.26.237-.466-.289-.331.586-.338-.797-.496h-.744l.131-.512-.695-.353.252-.376-.338-.282.375-.553-1.319-1.597-.316.56-.387-.094-1.011.913-.226-.492-.808-.195-.188.285-.334-.387-.67.045-.03-.33-.819.225-.703-.26-.297.275-2.898-2.744-.846.064.496-.312-.455-.662-.643.188-.252-.3-.481.424-.402-.594-.444.485-.469-1.913.552-1.474.838.447 1.906-.015.47.508.053-.827 1.203-1.508-.342-.142.165-.839-.59-.203.256-.898 1.857.357.041-.579-.711-.252-.304-.537 1.03-.354-.673-1.966-1.026.154-1.399-.579.147-.789-.568-.286.094-1.601-.936-.549-.947-.007-.184-.527-.575.27-1.587-1.3-.346-.977 1.35-1.782-.372-.507.09-.985.391-.136-.139-.507 1.045.383.342-.782 1.015-.744 1.372.154.109-.586.801-.207-.414-.282.421-.586.647.47-.023-.47.576-.275 1.27.835-.09-.511.97-.249.804.339.309-.59-.23-.21.978-.072 1.203-1.527.462.196.252-.365 2.244-.192 1.199.395 1.526 1.827.211.921.895.087.83-.812 1.207.857.748.007-.301.696 1.113.605.504-.944 2.191-1.293 3.658-.425 1.793-.894.549-.74 1.007.086.839-.527Z"/><path id="Запорізька область" fill="#C8C6C6" stroke="#000" stroke-width=".2" d="m153.715 97.602 5.845-1.616 3.451.812 1.083-.26-.624-2.586.417-.12.226-1.707-.812.143.071-1.737-.353.015-.128-.51-.553.255-.191-.959 1.447-.338-.135-.955-.467.034-.255-.602-.09-.669.451-.098-.252-1.477.748.041-.004.76.947.015 1.414-.79 2.425-.248 2.883.951.049.343 2.315-1.188.489.82.812-.065.105.602 1.921-.496.124.887.978-.226.165.658-.402.154.466.827-.244.237.27-.094.143.665.308-.203.249.715-.158.718h-.572l.045.342 1.512-.222.037.511.88.004.146.29.654-.095-.011-.368 1.688.316 1.586-.451.297.124-.244 1.052 1.053-.146.533 2.161.989-.105-.928.496.082.523.493-.08-.222.5 1.052-.285.828 1.428.661-.53.718.68.26-.278.684 1.147 1 .714.3-.556.812.3-.522 2.12-.504.256-.323-.725-.369.094.17.658-1.049.725-1.425-.319.466 2.184-1.387.041 1.868 1.323.143.718-.338.207 1.778.722-.436.616.639.497-1.515.958.534.846-2.008 1.256-1.781 3.379-.26-.011 1.06-1.256-.259-.571-1.192-.88-1.308.045-3.019 1.293-2.259 3.436-1.049.606 1.793-1.963-.319-1.052-.59-.35-2.068.056-1.887.433-1.857 1.082-1.703 1.842-1.827.884-3.473 5.383-2.402 1.188.518-1.109 2.339-.85 1.823-3.157-.47.462-.699-.414.075-1.462-.759-.428-.414-.515.128-.358-.361.211.613 1.868-1.361 1.703-.365.034-.229-3.361-1.398-.545-.677.102-.011-1.109-1.703.27-.553-1.233.541-.154-.12-1.056-1.432-.079-.102-.684 1.403-.44.36-.586-.101-.797.767-.117-.154-1.004-.651.057-.218-1.526-1.451-.196-.409-.947-.286.037-.181-1.567-.417.038-.368-2.632.492-.09-.045-.305-.466-.236-.128-.624.466-.433-1.285.252-.17.673-.921-.056-.289.297-.827-3.015-1.293-.82Z"/><path id="Херсонська область" fill="#C8C6C6" stroke="#000" stroke-width=".2" d="m136.195 124.393 1.312-.541 2.499.838-2.432-.011-1.379-.286Zm26.239-1.939.477 3.022 1.207 3.293-.207.109-.571-1.361-.594.707-.395-.207.244-2.255-.349-1.504-.474-.211-.203.756-.647-.748.027-.583-.489-.195 1.143-.252.346.613.116-1.177.369-.007Zm-22.052-26.75 1.793.045-.229.838.899-.18.353 1.112.477-.203-.3-.567 2.018-.384-.112-.804 1.285-.26.395.519-.241 1.308.568-.192.109.538 3.658-.586.864 1.082 1.801-.36 1.304.811.827 3.015.29-.297.921.057.169-.673 1.286-.252-.467.432.128.624.466.237.045.304-.492.091.368 2.631.418-.037.18 1.567.286-.038.41.948 1.451.195.218 1.526.65-.056.154 1.004-.767.116.102.797-.361.587-1.402.44.101.684 1.432.079.121 1.056-.542.154.553 1.233 1.703-.271.011 1.109.677-.101 1.398.545.23 3.361.364-.034-.846.737-1.766.375-.805.658-.259.79-1.624-.418-.722.196.199 1.428-.47 1.177-.785.902-.414-.199-.395.707-.011-.857-.782-.549.2-.293.139-.106-.113-.605.413-.733.286.665.158-.518.53-.215.308.797.263-1.439-.582-.591-.312.203.21.681-.77.158-1.237-1.072-.372.094-.609-1.21.015 1.207.496.526-.56 1.116-.042-.988-1.552-2.455-.376.534.09.086.745 1.493-.613.665-.128.47-.387-.485-.425.286-.301-.643-.248.752-1.255-1.895-.655.049-.195-.305-.519.26-.797-.636-.658.264.203.766-1.289-.751.056.221-.368.064.274 1.59-.263.094-.424-.436-.557.737.305.782-.812.004.244.838-.725-.342-.467.35-1.112-1.5-.357.654-.32-.053.32-.77-.297-.222-.842.011-.237.432.315-1.992-1.236 1.707-1.222-.591-.233.865-3.116-.241-2.098.44-.714.609-.651-.15-3.717-1.162.439-.18v-.677l-.575.143-1.312-.872-.176-.485-1.309-.12-.394-.639-.568-.124-.244.511-1.26.086-.282-.575.418-.477 2.169-.395 1.282-.804-.609-1.177-.763.233-1.873-.729.643-.696 6.214 1 1.03-.417-.263-.199-1.068.421-.439-.29.263-.214-.395-.075.466-.03-.233-1.244-.624-.32-1.376.617-.451-1.012-.624-.041-.887-.748 1.301-.556-.357-1.102 2.06-.5-.079-.646.466-.237-.312-.542 1.567.997.342-.034-.094-.647 1.233-.203.087.459.786-.102-.016-1.101.673.5 1.342-.098.098.733 3.199-.703-.417-.477-.951.064-.038-.327 1.812-.647-.639-1.011.256-.229.913.503.579-.906-1.725-1.056-.316-.872.631-1.195.598-.125.417.343.361-.771.812.301.023-.549.62-.094-.966-.812-.023-.775.41-.184-.158-1.041-1.124.023.222-1.538.252 1.056.838-.127.06-2.215-.624.234-.015-1.03Z"/><path id="АР Крим" fill="#C8C6C6" stroke="#000" stroke-width=".2" d="m185.56 136.077-.455.715-1.654-.124-.082.402.462.304-1.019.621.263.353-.454.962.672 2.117-1.056.706-1.447.117-.474.444-2.507-.414-2.466.808-.835-1.248-1.067-.703-1.346-.417-1.086.229-1.436 1.184.026.459.458.229-.849.436.331.718-1.575-.293-.29.846-.985.383-.379 1.305-.606.552-.646-.657-.82-.192-.906.428-2.101.079-1.534.677-1.936 1.132-1.379 2.274-.023.616-.526-.086-.714.846-1.049.218-.512 1.161-1.999.621-1.162-.215-1.897.33-.5-.5-.5-.5-.5-1h-1.5l-1.5-1.5.5-.5h2l-.5-.5.202-.614v-2.422l.056-.53.669-.511-.026-2.308-.523-1.583-1.436-1.635-.804-.384-1.628.888-4.484-3.854-1.903-.067-1.353.921-1.996-.587.252-.503-.436-.391 1.376-1.538 2.571-1.47.455.158.24-.41-.282-.233 1.124-.932 2.895-1.406.526-.985.752.399 1.41-.609.936-.91.301.192.466-.553.752.346.898-1 .88.88-.038-1.184 1.023-.388-.185-.409-1.635.079-.034-1.944.357-.552-.345-.948.263-.094-.275-1.594.372-.064 1.903 2.004.473-.537-.3-.489.473.041.267.624-.549.654 1.598.887.677-.116-.85-.357.154-.222.974-.143.767.504.135.534 1.199.808-.568.59-.511-.229.624.785.88-.285-.421-1.263-.282.165-.767-.639.094-.365 1.323.406.324.963.372-1.034.143.865.511.278.176-.504-.278-.211.523-.187.676 1.225 1.019.827-.03.944.635-.903.617.117-.353-1.308 1.063.688-.139 1.154-.943.447-.542 1.038-.635.037.162.365.928-.196 1.414-1.349 1.214-.515.06.586-.308-.252-.767.414-.203 1.019 1.203-.421.387.545-1.41 1.312.286.266 2.327-.819-.718.583.177.451.515-.339.255.771.895-.301-.068.384.82.458.767 1.478.3 1.327-1.041.849.76 1.444 3.349 1.364-.241.53.29.425.244-.451 1.075-.09.045-.65-.59-.072-1.417-1.598-3.812-5.289-.816-1.894.211-.109 1.41 2.744 3.003 4.157 1.278 1.391 1.448.891 2.552-.906.496-.691-.128-.369 1.282-1.466.297.132-.346.327.282.507 1.357.906 1.038-.357.372-1.064 2.549-.586 1.609.624.827-.166.981.594.53-.27.605.909Z"/><path id="Дніпропетровська область" fill="#C8C6C6" stroke="#000" stroke-width=".2" d="m150.583 70.484 1.601.718.632.74.657.08.14.785 1.973.748.105.388.564-1.2-.522-.01-.045-.681.661-.057-.293-.173.32-.432-.587-.812.65-1.654-.334-.323 1.135-1.064-.177-.774 1.888.759.511-1.094 2.214-.586.007-.576 1.192-.33.508.263-.429.293.414.226.669-.854.861.846.443-.485.402.594.482-.425.251.301.643-.188.455.662-.496.312.846-.064 2.898 2.744.297-.275.703.26.819-.226.031.331.669-.045.334.387.188-.285.808.195.226.493 1.011-.914.387.094.316-.56 1.32 1.597-.376.553.338.282-.252.376.696.353-.132.512h.744l.797.496-.586.338.289.33-.237.467 1.782 1.26-.383.74.831.62-.598.865.327.24.35-.45.379.402 1.188-1.557-.222-.39.666-.53 1.383 1.176 1.895-.485.086.567.771.004.06.53 1.132.466.063.433-.699.124.053.537-.301.083.259 1.286-.364.06-.177 1.267.113.661 1.177.06.33 2.215-.819.195.289 1.97-.537.88-1.346-.361-.38-.628-.819-.267-.936.364.075 2.305.549-.064.15.778-1.24.286.533 1.079-1.586.45-1.688-.315.011.368-.654.094-.146-.289-.88-.004-.037-.511-1.512.222-.045-.342h.568l.162-.718-.249-.715-.308.203-.143-.661-.274.094.244-.237-.466-.83.402-.155-.161-.658-.978.226-.124-.887-1.921.492-.105-.598-.812.064-.489-.82-2.315 1.189-.049-.346-2.887-.951-2.425.248-1.413.79-.951-.012.003-.76-.748-.037.252 1.477-.451.098.087.67.255.6.466-.033.136.951-1.448.338.192.959.553-.256.128.511.353-.015-.075 1.737.812-.143-.226 1.707-.417.12.628 2.587-1.087.259-3.451-.816-5.845 1.617-1.801.36-.864-1.078-3.658.586-.109-.538-.572.192.245-1.312-.395-.515-1.286.26.117.804-2.019.384.297.57-.477.204-.353-1.113-.895.18.229-.838-1.793-.045.019-.36-1.684.09.451-.463-.305-1.955 1.256-.323-.263-.808.094-.944.297-.086-.023-1.571-.951.067-.011-1.383.214.083.263-.985.869-.102-.045-.48.488.03.113.42-.139-.658 1.067-.293.109-.387-.627.162-.045-.26.582-.143-.176-.868.744.35.237.977.327-.33-.305-.572 1.763-.403-.026-.323.647-.12.274-.688.564-.162-.41-.751.026-.985-.518.026-.192-.485.109-.65.372-.105-.319-2.91.466-.44 1.436.026-.139-.597.605.237 1.056-.594.805-1.361-.696.116-.857-.79-.819-.108-.418-.496-.037-.82.932.075.335-.458.669.526.955-.263.082.549.421.049.557-2.523Z"/><path id="Полтавська область" fill="#C8C6C6" stroke="#000" stroke-width=".2" d="m140.087 38.738.628.29.703-.361.605.39.722-.973.534.635.691.015.038.448.447-.02.278.46.369-.32.259.293.222-.39.301.334.609-.293 2.12.729 1.349-.643-.424-.496.793-.338.541.338.485-.624.91.958.477-.327.511.203-.052.474.263-.56 1.271-.496.364.308.139 1.677 1.624 1.342.316 1.139 1.259.522.094.744.688.388-.628.913.301.94 1.966.443.004-.736.417-.256.109.316 1.346-.391 1.184.237-.09.985.372.507-1.349 1.782.345.977 1.587 1.3.575-.27.184.526.947.008.936.549-.093 1.601.567.286-.146.79 1.398.578 1.026-.154.673 1.966-1.03.353.305.538.71.252-.041.579-1.857-.357-.256.898.59.203-.165.838.342.143-1.203 1.508-.053.827-.47-.508-1.905.015-.839-.447-.552 1.474.47 1.913-.861-.846-.669.853-.414-.225.429-.293-.508-.263-1.192.33-.007.575-2.214.587-.511 1.094-1.888-.76.177.775-1.135 1.064.334.323-.65 1.654.587.812-.32.432.293.173-.661.057.045.68.522.011-.564 1.2-.105-.388-1.973-.748-.14-.785-.657-.08-.632-.74-1.601-.718-.997-.677-1.293-.052-.624-.745-1.176 1.294-.448-.365-.8.29-.049-.722-.808-.068-.072.556-1.037-.424-.256-1.034.402-.436-.131-.7-.711-.575.466-.518-.744-.865.038 1.67-1.094-.099-.083-1.109-.541-.85-1.493-.386-.259-.801-.553.24-.936-.263-1.188.294-.579-.5-1.345.079-1.835-1.467.534-1.54.406.507 2.541.537-1.105-1.654.304-1.199.933-.515.079-1.011-.745-.538.143-1.082-1.706-.842-.234-1.346-.503-.072-.166-.612-.673.176-.966-1.533.775-.271-.26-.3.147-1.113-.594-.388-.398-1.334-.226-.18-.263.38-.699-.873-.061-.575.662-.158-.071-.481-1.564-.455-.752-1.233-.338-.383.12-.752.534-.357.045-.846 1.38-.011.007-.523.47-.132.417-.89.553-.053.349.41 1.241.154-.079.586.5.493 1.887-.515-.019.259 1.515.203-.007-.459 1.609-.752.721-1.308.512.02.135-.584.56-.368Z"/><path id="Сумська область" fill="#C8C6C6" stroke="#000" stroke-width=".2" d="m149.864 1.26.049.853 1.004.327.259 1.18.752.376.136.5.537.075.079.714.722.523-.218 1.022-.463.425.467.61-.008.706.507.165.072.647.571-.019.41 1.007.492.196-.131.609.639-.147 1.481 1.26-.094.763.414.92-.237.437-1.44.052-2.876 1.09 1.06.467.203.95.388-.052.052.496.248-.195.282 1.06.639.3-1.135 2.087 1.504 1.244-.711.418-.643 1.436 1.012.548.954-.703 2.478.79.285-.406.756.143.105 1.018.609.478.891-.24.541.3.384-.583.962-.12.53-.598.786.59.402-.537.985.165-.308 1.215.598.8.003.71-.315.117.511.61 1.049-.102.436-.414 1.263.583.045.466-.466.372-.658-.158.413.782-.3.658.913.587-.222.887.459.503-.053.91.94.477-.428 1.008.507 1.019-.098.432-.315-.21-.816.285.346.981-.406.466 1.067 1.805 1.376.76.244 1.65.752.289.23.21-.309.59-.804-.338-.97.248.09.512-1.27-.835-.576.275.023.47-.647-.47-.421.586.414.282-.801.207-.109.586-1.372-.154-1.015.744-.342.782-1.045-.383.139.507-.391.136-1.184-.237-1.346.39-.109-.315-.417.256-.004.736-1.966-.443-.301-.94.628-.914-.688-.387-.094-.744-1.259-.523-.316-1.139-1.624-1.342-.139-1.676-.364-.308-1.271.496-.263.56.052-.474-.511-.203-.477.327-.91-.958-.485.624-.541-.339-.793.339.424.496-1.349.643-2.12-.73-.609.294-.301-.335-.222.391-.259-.293-.369.32-.278-.46-.447.02-.038-.448-.691-.015-.534-.635-.722.973-.605-.39-.703.36-.628-.289-.233-.41.925-1.075-.068-1.026.402-.21-.135-1.095 1.278-.436-.635-.285-.448-.876.391-1.14-.169-.781.466-.147-.082-1.35-.782.076-.278-.996-.504.485-.451-.192.526-.899-.165-.639-1.609-.48.601-1.035-.379-.368.18-.537.819-.339-.105-.458.466-.523.064-.725-.417-.094.485-.606-.181-.458-.353.007-.225-1.007.36-.263-.124.368.617.462.312-.048-.301-.459.549.23-.004-2.095.786-.47-.459-1.154.835-.353-.399-.071-.793-1.263.09-1.594-.706-1.049.838-.86-.308-.956.688-.436.011-.402 1.737-.665.492.146.293-.985-.894-.785.154-.335.917-.39.481.488.929-.244.007-1.02-.778.027-.316-.77-1.165-.267-.075-1.602.665-.59.271-1.541.477-.583.245.075.135-.53.722.215-.433.902.981.252-.154-.452.463.241 1.285-.955 1.966-.079Z"/><path id="Чернігівська область" fill="#C8C6C6" stroke="#000" stroke-width=".2" d="m141.747 1 1.357.477 1.113-.413.439.526-.477.583-.271 1.541-.665.59.075 1.602 1.166.267.315.77.778-.026-.007 1.019-.929.244-.481-.489-.917.391-.154.335.895.785-.294.985-.492-.146-1.737.665-.011.402-.688.436.308.955-.838.861.707 1.049-.091 1.594.794 1.263.398.071-.834.354.458 1.154-.786.47.004 2.093-.549-.229.301.459-.312.049-.616-.463.124-.368-.361.263.225 1.007.354-.007.18.459-.485.605.417.094-.063.725-.467.523.106.458-.82.339-.18.537.379.369-.601 1.033 1.609.482.165.639-.526.898.451.192.504-.485.278.996.782-.075.083 1.35-.467.146.17.782-.391 1.139.447.876.635.285-1.278.437.136 1.093-.403.21.068 1.027-.925 1.075.233.41-.56.368-.135.583-.511-.019-.722 1.308-1.609.752.007.459-1.515-.203.019-.26-1.887.516-.5-.493.079-.586-1.24-.154-.35-.41-.553.052-.417.891-.47.132-.007.522-1.38.012.143-.583-.902.038.18-.805-.631.293-.324-1.146-.721-.252.229-.519.744.038.233-.936-1.402-.064-.391-1.004-.808-.718-.936.527-.049.898-1.695.113-.203.624-1.384-.143-1.06.571-.887-.665-.526.665-1.06-1.353-.985-.406.007-.398.745-.08-.346-.605.229-1.026-1.203-1.146.026-.478-2.221.353-.771-.323-.496.583-.263-.233.041-.09-1.214-.233-.068-.88.369.086.225-.424-.154-.876-1.026-.55-.541-1.939-.546-.53-1.263.08.094-1.038-.3-.422.409-.323-.345-1.158.624-.248-.448-.947.673-.173-.237-.556.951-.478.113-.406-.372-.165.726-.515.052-.816-.458-.955-.418-.037-.056-.451.522-.324-.676-.906.169-.733-.44.11-.237-.444.324-.331-.568-.36.594-.185-.609-.421.338-.609-.229-.26.684.155-.083-.902.763-.162.32-.944-.451-.161.541-.124-.06-1.038.553-.244.658-1.354.691.087.286-.477-.188-.564 1.007-.429.162-.725.383.206-.221-.56.458-1.394.466.24 1.97-.504L117 7.86l.545-.21.346-1.086.778-.328-.097-.251.936-.166.225.451 2.594.094.632.395.755-.357.447.304.643-.244 1.158.673-.545.673.71-.177 1.568.391.68-.744 1.346-.372 1.448-1.203-.515-.117.266-.79-.293-.638.271-.455.654-.098-.538-1.353.162-.466 1.526.462.786-.24 1.928 1.57.696-.371.763.142.271-.387.579.098.3.583 1.117-.557.831-1.135.105.5.831-.865.436.098.026-.661.376-.023Z"/><path id="Миколаївська область" fill="#C8C6C6" stroke="#000" stroke-width=".2" d="m121.127 115.098 2.245-.173 1.289.56-.643.695-1.056-.079-.252.839-1.583-1.842Zm-16.232-30.103.839-.594 1.68.364.297-.372.365.417.834-.011.361-.564.898-.222.876.11.117.44.278-.43.508.568.552.027.417-.482.718-.048-.131-.67.913-.184 1.433.24.199.738.504.172.203 1.023 1.071-.35.068.421.733-.353.15.447 1.173-.394.161.77-.342.448.26.26.722-.32-.098-.741.316.14.218-.546.62-.117.113.369.556-.075.132.488.921-.165.169 1.128-.654.338.267 1.537 1.169-.353.127.925.309-.064.086 1.019-.342.019.154.748-.519.116.109.617 2.771-.61 1.079 1.305 1.131-.237.124-1.026.797-.2.812.651 3.692-.545.376-1.03-.406-.868 1.165-.215-.124-.368-.485.098-.056-.67 2.545-.063-.279-.888 1.546-.342.157 1.154.012 1.384.951-.068.022 1.572-.297.086-.094.947.263.808-1.251.324.304 1.954-.451.467 1.684-.094-.019.364.019 1.008.624-.233-.06 2.214-.838.128-.252-1.057-.222 1.538 1.124-.023.158 1.042-.41.184.023.774.966.812-.62.094-.023.549-.812-.301-.361.771-.417-.342-.598.124-.631 1.195.315.872 1.726 1.057-.579.906-.913-.504-.256.229.639 1.011-1.812.647.038.327.951-.064.417.478-3.199.702-.098-.733-1.342.098-.673-.5.015 1.102-.785.101-.087-.458-1.233.203.094.646-.342.034-1.567-.996.312.541-.467.237.079.646-2.06.5.357 1.102-1.3.556-.978-.079-.289.47-1.113.451-2.319-.684-.793.853-.824-.477-1.511.056-.21.414-2.199-.496.244-.609-.632-1.478.361-.53-.259-1.188-1.485-1.24-.282-1.132.906-.424 1.977-.143-.184-.572.782-.033.139-1.106-.425-1.646-2.003.289-.012-.624.606.139.188-1.575-1.944.5-.406-.526.117-.402-1.136.229-.466-1.049.466-.237-.338-.398.049-1.098-.466.076.289-2.275-1.248-.097-.319-.41.398-.263.124-1.226-1.019.2.14.552-.568.154-.147-.62-2.413.3-.098-.436-.564.102-.406-2.23.444-.15.147-.733-.173-.39-1.173.157-.293-2.191-.775-.7-.233-.902.383-.199-.612-.812 1.349-.74.504.064-.538-.256-.139-.572Z"/><path id="Одеська область" fill="#C8C6C6" stroke="#000" stroke-width=".2" d="m98.258 83.776.82-.083.54.538.531-.902.545.293.203-.256.199.88.628.56 3.173.188.131.575.538.256-.504-.064-1.349.74.612.812-.383.2.233.902.774.699.294 2.191 1.172-.157.173.39-.146.734-.444.15.406 2.23.564-.102.098.436 2.413-.301.147.62.567-.154-.139-.552 1.019-.2-.124 1.226-.398.263.319.41 1.248.097-.289 2.275.466-.076-.049 1.098.338.399-.466.236.466 1.049 1.135-.229-.116.402.406.526 1.943-.5-.188 1.576-.605-.14.012.624 2.003-.289.425 1.647-.139 1.105-.782.034.184.571-1.977.143-.906.425.282 1.131 1.485 1.241.259 1.188-.361.53.632 1.477-.245.609-5.428 1.519-.289.654.556 1.218-.282 1.24-.88.944-2.563 4.499-3.342 3.944-7.432 6.33-.36.617.522.511.195-.481.2.424 1.12-.146-.297 4.244-.358.293-.492-.034-.102-1.729-.883-1.372-2.176-1.049-2.384.188-3.484 1.85-.316.924-1.835-.992.038.635-.62.309.515.725-.936.316-1.978-.432-2.759-1.331-.797-1.353-.034-.88-.853-.353.413-.722.786-.726 1.523.293.063.782 1.038-.255-.29-1.275.719-.169-.365-1.549-.462-.007.424-.91.342-.349.636.086-.075-.74 1.567-.173-.117-.651 1.076-.308-.346-1.673.222-.838 2.605-.586.33-.816-.706-.891 1.447-1.805-1.425-1.18.553-1.319-.82-2.32 1.21-.09-.473-.466 2.2-.493.022-.53.913-.27.252 1.349-.447.399.316.861-.49.59.426.146.32-.526.747-.162-.165-.943.481-.707.624 1.44-.113-.399.816-.883.654.658-.29.361 1.034.417.204 1.023.338.12.887-.128-.158-1.346.921.027.079-.703 1.053 1.372-.18.214.977.594-.02-.372.662-.527.621.343.951-.305.406.335.876-.583-.061-.305-.285.343-.485-.542-.23.301-.169-.346-.518.008-.373-.331.361-.169-.417-.181-.03-.56-.632.275-.793-.955.94-.233.312-3.572-.481-.992.526-.199-.124-.297-.793.229-.275-1.207-1.665.47-.402-1.297-.917.166-.12-.609-.839.237-.195-.309.496-.094.071-1.39.316-.136-.188-1.003-.835.071-.195.398-.455-.909 1.087-.271-.373-2.12.598-.154-.33-2.113-1.098.297-.045.902-.68.316-.403-.21-.11-1.485-.665.184-.251-1.44-.895.61-.064-.847-.658.677.019-.82-.425.173.372-.315.015-.722-.477.094-.474-.872.88-.327.624-1.297-.33.015.308-.805-.313-.695.865-1.56-.673.132-.26-.58.978-1.202-.958.109-.343-2.038-1.052.207.079.406-.252-.177-.18.515-1.267-.706-.545.383-1.072-1.425.12-.89.26.221.763-.474.23-1.172.842.135.157.616.192-.124.38-1.342 1.105.839-.184.176 1.39-.142.117.33-.725.218.195.294.508-.162.297.432 1.15-.026.278-.459.947-.169.421.402.876.083.41-.65.797.455-.102-1.632 1.568-.278Z"/><path id="Кіровоградська область" fill="#C8C6C6" stroke="#000" stroke-width=".2" d="m137.388 63.846.936.263.552-.24.26.8 1.492.387.541.85.083 1.109 1.094.097-.038-1.669.745.865-.466.519.71.575.132.7-.403.435.256 1.034 1.037.425.072-.557.808.068.049.722.801-.29.447.365 1.177-1.293.624.744 1.293.053.996.676-.556 2.523-.421-.05-.083-.548-.955.263-.669-.526-.335.459-.932-.076.038.82.417.496.82.109.857.79.695-.117-.804 1.36-1.057.595-.605-.237.139.598-1.436-.027-.466.44.319 2.91-.372.105-.109.65.192.485.519-.026-.027.985.41.752-.564.161-.274.688-.647.12.027.324-1.763.402.304.571-.327.331-.237-.977-.744-.35.177.869-.583.142.045.26.628-.162-.109.387-1.068.293.139.658-.112-.42-.489-.03.045.48-.868.102-.264.985-.214-.083-.158-1.154-1.548.342.278.883-2.545.064.06.67.485-.098.12.368-1.165.214.406.869-.376 1.026-3.692.545-.812-.65-.797.2-.127 1.022-1.128.236-1.083-1.3-2.767.609-.112-.617.522-.112-.154-.749.342-.018-.086-1.02-.309.065-.127-.925-1.169.353-.267-1.533.654-.339-.173-1.127-.921.169-.128-.489-.56.075-.113-.368-.62.116-.218.546-.316-.14.098.74-.722.32-.259-.255.346-.448-.162-.77-1.173.395-.15-.448-.733.354-.072-.421-1.071.35-.203-1.023-.508-.173-.199-.74-1.432-.241-.914.184.132.669-.718.049-.417.481-.549-.026-.511-.564-.279.428-.116-.44-.872-.109-.899.222-.361.564-.834.011-.369-.417-.296.372-1.681-.368-.838.598-3.169-.188-.632-.56-.195-.88-.203.256-.545-.294-.53.903-.541-.538-.82.083-.391-1.53.786-1.128-.309-.406 2.278-1.951 1.027-.173.823.564.647-1.015.86.428.316-.432 1.684-.462.203-.868 2.049.131.071-.722-.511-.432.842-.68.162-.636-.436-.462.425.022.357-.609.737-.315 1.387.207.105-.249.902.44.872-.47 2.098.827 1.297-.793.571.395.594-.173.252.583.658-.03 2.289-1.951.282-1.587-.045.5.53-.357.831.158.192-.662.597.083.726-.436 1.417.816-.008.47 1.41-.951.91.56.586-.18-.131-1.02.549-.161.105-.47.402.222.192-1.391.661-.504.839.083.398.913.526.075.264-.44.387.343.609 1.838.334-.015-.105-.515.541.312 1.226-.143-.034-.511.737.364 1.406-.3.342-.35-.541-.233-.188-1.218.977-.425.004-.424-1.699-.839 1.248-1.646Z"/><path id="Черкаська область" fill="#C8C6C6" stroke="#000" stroke-width=".2" d="m127.977 44.546.752 1.233 1.564.455.071.48-.661.159.06.575.699.872.263-.38.226.18.398 1.335.594.388-.146 1.112.259.301-.774.27.966 1.534.673-.176.165.612.504.072.233 1.346 1.706.842-.142 1.082.744.538-.079 1.011-.932.515-.305 1.2 1.105 1.653-2.541-.537-.406-.508-.534 1.541 1.835 1.467 1.346-.08.579.5 1.187-.293-1.248 1.647 1.7.838-.004.425-.978.425.188 1.218.542.233-.342.35-1.406.3-.737-.365.034.512-1.226.142-.541-.311.105.514-.334.016-.609-1.839-.388-.342-.263.44-.526-.075-.399-.914-.838-.082-.661.503-.192 1.391-.402-.221-.106.47-.548.161.131 1.019-.586.18-.91-.56-1.41.951.008-.47-1.417-.815-.726.436-.598-.083-.191.662-.831-.158-.53.357.045-.5-.282 1.586-2.289 1.951-.658.03-.252-.583-.594.173-.571-.394-1.297.793-2.098-.827-.872.47-.902-.44-.106.248-1.387-.207-.736.316-.358.61-.424-.023.436.462-.162.635-.842.68.511.433-.071.722-2.049-.132-.203.868-1.684.463-.316.432-.861-.428-.646 1.015-.823-.564-1.027.173-.007-.343.451-.112-.132-.444.354.011-.196-1.037-.729-.414.586-.759-1.676-1.27.3-.628-.229-.575-1.26-.41-.123-1.18-.575-.93.233-.25-1.015-.58.552-1.221-.139-.433-.537.226-.44-.812.113-.237.161.26.294-.816.458.15-.075-.485.662-.195-.384-1.982.387-.101.267.06-.368.372.485.538 1.515-.124-.113-.286 1.026-1.067-.105-1.132 1.034-.383.579.165.413 1.03.5-1.23.696.117-.151 1.023 2.203.383.147.372.533-1.793.733-.714.579.725 1.128-.808 1.571.737 2.263-.534.297-.432-.135-.684.951-.14.425-.913.199.278-.056-.323.673-.485.244-1.135.523-.026-.218-.94 1.071-1.726-.267-.15.203-1.489-.32-.259.252-1.226 2.124-.962-.5-.725.151-.264-.756-.131.196-.647 1.729.188-.203 1.575.985 1.12 1.109-1.262.285.018.06 1.012 1.26.112 1.289-2.285.917.064.166.425-.019-1.53 1.034-.46-.951-.292.045-.891.789-.44-.462-.654.365.105.368-.981.797.263.759-.808Z"/><path id="Київська область" fill="#C8C6C6" stroke="#000" stroke-width=".2" d="m127.574 41.662.18-.804-.632.293-.323-1.15-.725-.248.229-.52.744.038.233-.94-1.402-.06-.391-1.007-.808-.714-.936.522-.049.899-1.699.113-.199.623-1.384-.142-1.06.571-.891-.665-.522.669-1.06-1.354-.985-.406.007-.398.745-.079-.346-.605.229-1.023-1.207-1.15.027-.477-2.222.353-.771-.323-.496.583-.263-.23.038-.09-1.215-.233-.067-.88.372.09.225-.424-.154-.876-1.026-.553-.541-1.94-.545-.533-1.263.079.09-1.038-.301-.42.41-.32-.346-1.158.628-.248-.448-.951.673-.17-.229-.56-.41-.38-.68.155.113-.677-.752-.056-.891-.899.218-1.41-2.248-1.781-.158.45-.447-.371-.106.394-1.308-.334-.639.677-.895-.271-.221.793-.936-.29-.147.361-.616-.323-.012-1.165-.357-.297-.601.552-.459-.04-.635.852-.553-.357-.485 1.658-1.146-.274-.658.541.451.116.056 1.125-.548 1.018-1.113.18.346 1.715.3 1.067.388-.635 2.03 1.985-.58.898.159.764-.797-.15-.02.728 1.29 1.418-.173.853.624.47-.688-.011.203.781.794.064.327.842-1.936 2.196.748.913-.557 1.177.572.285.052.568-.338.252-.35-.222-.086.354.647.274-.722.451.199.312.383-.26.944-.16.342.499.015.432.594.117-.15.804.86.098-.063.887-.294.113.463.876-.71.955.605.575-.557.95.598.7-.248.733.748 1.718-.805.632.297.165-.556.786-1.417.883-.417-.304-.32.631-.583-.045.316.846-.3.673.112.304.598.008.132 1.236.36.252-.406.824.523 1.44.556.285-.443.64.549.439-1.188 1.496.492 1.03 1.026.327-.094.82.963.496.3-.451.286.635.27.06-.368.372.485.538 1.511-.124-.112-.282 1.026-1.068-.102-1.131 1.03-.384.579.166.414 1.03.496-1.23.696.117-.147 1.026 2.207.38.146.372.534-1.793.733-.714.579.721 1.128-.808 1.567.737 2.263-.534.297-.432-.135-.684.955-.143.425-.913.199.281-.06-.327.672-.485.245-1.135.522-.022-.218-.94 1.072-1.726-.267-.15.203-1.489-.32-.259.252-1.225 2.124-.963-.5-.725.15-.263-.755-.132.195-.65 1.73.191-.203 1.572.984 1.12 1.109-1.26.286.02.06 1.01 1.26.113 1.289-2.285.921.064.165.424-.018-1.53 1.033-.458-.954-.293.048-.891.79-.44-.463-.654.365.105.368-.981.797.263.76-.808-.342-.38.12-.755.534-.357.045-.846.143-.58-.902.042Z"/><path id="Вінницька область" fill="#C8C6C6" stroke="#000" stroke-width=".2" d="m73.473 54.056 1.56-.631 1.466.165 1.955-.316.275-.526 1.669.65.567-.838.782.29.55-.215.544.865.662-.76 1.41.309.259-.902 1.154-.342.36-.55 1.012.94.2.734-.339.417.782.895-.71 1.139.811.88-.251.729 1.646.255 1.556-.372.406.252.057-.752.793.27.184-.285.316.162.338-.73 1.24.173.362.256-.406.823.526 1.44.552.282-.443.643.549.44-1.188 1.496.492 1.03 1.026.327-.093.82.962.495.304-.45.286.63-.387.102.383 1.981-.661.196.075.485-.459-.15-.293.815-.162-.26-.112.238.44.812.537-.226.14.432-.553 1.222 1.014.579-.233.252.576.928.124 1.18 1.259.41.23.576-.302.627 1.677 1.271-.586.76.729.413.195 1.037-.353-.01.132.443-.451.112.007.343-2.278 1.95.308.406-.785 1.128.39 1.53-1.582.29.101 1.631-.796-.451-.41.647-.872-.08-.421-.402-.948.17-.278.454-1.154.027-.293-.433-.508.162-.199-.293.726-.218-.117-.33-1.39.142.183-.173-1.105-.842-.38 1.342-.191.124-.158-.617-.838-.135-.23 1.173-.763.47-.26-.222-.086-.834-1.913-.02-.12-.379-1.455-.556-.793.462-.053 1.62-.447-.142-.55-.929.087-.94-.59-.041-.387.722-.568-.06.775-1.192-.192-.85-1.86.805-.542-1.064-.932.511-.158-1.549-1.628-.297-.718-.59-.3-.838-1.102-.805-1.827.08-.643-.369.068-.575-.801.42-.688-.717-.338-1.76-1.011-.586.537-1.285-.33-1.335.492-.568-.451-2.127.32-1.252-.456-.733.733-1.173.778-.034-.078-1 .548.008-.033-.357.563.372.215-.684.579-.21 1.259.525.492-1.07.185.364.285-.23.5.331.553-.297-.53-.966.037-1.755-.571-.568.447-1.417-1.27-.2.075-.454.353-.466-.59-.166.004-.654.68-.026.038-.489-.462-.436.684-.928-.613-1.421.598-.083.3-.899Z"/><path id="Житомирська область" fill="#C8C6C6" stroke="#000" stroke-width=".2" d="m78.882 16.503.32-.045.793 1 .131.718 1.463-1.105 1.094.466 1.293.037-.346.166.282-.004.376 2.304.684-.383.196 1.037.368-.744-.256-.71.79-1.489 1.067-.575 1.15.293 1.38-1.571.752-.034.568 1.631.534.128-.076 1.44.264.695.462.147.214 1.541.493-.128.45.12.057 1.12-.549 1.02-1.112.18.345 1.714.297 1.064.388-.635 2.03 1.985-.583.898.162.763-.797-.15-.02.73 1.29 1.416-.173.857.624.467-.692-.012.207.782.79.064.33.842-1.935 2.195.748.914-.557 1.18.572.286.052.568-.338.251-.353-.221-.087.353.643.274-.722.455.2.312.383-.26.876-.165.41.504.015.432.594.117-.15.804.86.098-.064.887-.293.113.462.876-.71.955.605.575-.556.951.597.7-.248.732.748 1.718-.804.632.3.165-.556.786-1.417.883-.417-.304-.32.631-.582-.041.311.846-.296.673.112.304.598.008.132 1.233-1.24-.173-.34.729-.315-.162-.184.286-.793-.27-.057.751-.406-.252-1.556.373-1.647-.256.252-.73-.812-.879.71-1.139-.781-.895.338-.417-.199-.733-1.011-.94-.361.549-1.154.342-.26.902-1.41-.308-.66.76-.546-.865-.549.214-.782-.29-.567.839-1.67-.65-.274.526-1.955.316-1.466-.166-1.56.632-.567.395-1.102-.831.323-.632-.887.098-.462-.83.049-1.046-1.004-.233.342-.89-.327-1.238.797.124.391-.639.5.008-.162-.8-.661-.189.338-.56-.124-.59.617-.275-.218-.687-.508.436-.338-1.71-.996.616-1.636-1.252.365-.177-.447-.458-.858-.185.03-.74-.871-.526.624-1.955-.407.03-.924-1.417.45-.094-.018-.752-.5-.372.154-.76.534-.263.398-.936-.522-1.545.27-1.977-.488-.432.255-.545-.5-1.11.343-.161-.034-.447 1.342-.252-.064-.726.541-.368.113-1.188 1.263-1.654-.428-1.477.684-.143.334-.504-.007-.53-.342-.162.169-1.533.357-.012-.056.403.684.631.394-.004-.42-.56-.02-.992 1.15-.41-.078-.38 1.23.835.503-1.147.628-.218-.365-1.518.402-.282.779.285.09.79.722-.331-.46.726 2.027-.395.936-1.406 1.079-.733-.004 1.248Z"/><path id="Чернівецька область" fill="#C8C6C6" stroke="#000" stroke-width=".2" d="m45.42 74.908 1.072.21.297.565.628-.812.89 1.015-.056.477.737.2.846-.662.583.221.38-.71.195.786-.278.428.639.891.41-.286-.4-.894.272-.399.65 1.76 1.274-.222.425.594.654.022.493-.526.654-.053.545-.131.85 1.646.605.124.338-.195-.192-.861.594.417.722-.165-.515-.891-.62.094-.068-.357.485-.14.883.564.015-1.075.643.801-.011-.947.323-.278.951 1.327 1.41-.906.12.338 1.087.26 1.003-.486 1.038.335.24-.342-.24-.76.947.444.665-.59 1.012.586.338 1.76.688.718-.782.338-.342.786-.73.003-.262-.605-.598-.004-.463 1.361-1.146-.42-.7.375-.71-1.158-.85.226.418.8-.587.02-.116.413-.85-.113-.627-1.053-1.24.02-.317.375-.353-.21.481 1.06.726.195-.094.955-.929-.365-.714-.8.162.519-.99 1.022.005.658-.433-.124-.188.507-1.3-.004-.406.49-1.327.195-.74 1.924-.779.583-.368 1.086-4.132.474-1.09.579-1.62-.203-4.248.665-1.041.421-1.462 2.594-.786.15-.196.407-1.5-.03.955-2.425-1-1.714-.067-1.545 1.034-1.132-.11-.549.632.083.73-.985-.095-.35.662-.018-.38-.801.966-.507 1.929-2.391 1.71-.496 1.846.394-.383-4.748.575-.823Z"/><path id="Хмельницька область" fill="#C8C6C6" stroke="#000" stroke-width=".2" d="m52.956 45.49.857-.008.474-.97.913-.692 1.38.034-.158-.346.436-.601.955-1.132.59.064 1.132-1.597-.019-.658.075.32.575-.129-.3-.048.048-.38.745-.62.38.236.578-.729 1.023.44.47-.722.661.147.034-.474.553-.346.192.662.808-.038.925 1.418.406-.03-.624 1.954.872.527-.03.74.857.184.447.459-.365.176 1.636 1.252.996-.616.338 1.71.508-.436.218.688-.617.274.124.59-.338.56.662.189.161.8-.5-.007-.39.639-.798-.124.327 1.237-.342.89 1.004.234-.049 1.045.462.83.888-.097-.324.631 1.102.831.567-.395-.3.899-.598.083.613 1.42-.684.929.462.436-.038.489-.68.026-.004.654.59.166-.353.466-.075.454 1.27.2-.447 1.417.571.568-.037 1.755.53.966-.553.297-.5-.33-.285.229-.185-.365-.492 1.071-1.26-.526-.578.21-.215.685-.563-.372.033.357-.548-.008.079 1-.779.034-.733 1.173.455.733-.32 1.252.452 2.127-.493.568.331 1.335-.538 1.285-.665.59-.947-.443.24.759-.24.342-1.038-.334-1.003.484-1.087-.259-.12-.338-1.41.906-.95-1.327-.324.278.011.947-.643-.8-.015 1.075-.883-.564-.485.139.068.357.62-.094.515.89-.722.166-.594-.417.192.86-.338.196-.606-.124-.85-1.646-.544.131-.767-.496-.29.402-.297-.496.279-.35-.835-.683.38-.136-.425-.169.244-.316-.477.143.06-.436-.677-.35.271-.95-.263-.305.278-.023-.474-.838.35.14-.12-.445.413-.07-.71-.757.255-1.037-.488-.17.293-.683-.383-.361.447-.215-.436-.244.47-.192-.384-.917.38-.342-.297-.075-.026-1.632.27-.04-.338-.681.24-.918.52.008.21-.88-.432-.721.214-.831-.62-1.196-.034-.988-.624-.598.424-.76.542-.03-.237-1.13.94-.907-1.057-1.082.68-.692-.07-.572-.782-1.405.3-.418-.868-.714.395-.32-.203-1.09.669-.338.131-.47-.428-.162.631-.42-.327-1.038.925-.064-.82-1.026.143-.538Z"/><path id="Рівненська область" fill="#C8C6C6" stroke="#000" stroke-width=".2" d="m47.97 10.304 1.331.195.951-.368 2.297 1.443 2.598-.267.037.831.948.733.906.034.631-.643 1.252.083.76.447.037.538.522.413.677-.184 1.27.628.587-.68 2.662-.106.086 2.237.827.203-.376 1.049 1.489-.294.827.256.334-.33.654.687.177-1 1.316.64 1.29.018-.042.812-.71.97.078.38-1.15.41.019.992.42.56-.394.004-.684-.632.056-.402-.357.011-.169 1.534.342.162.008.53-.335.503-.684.143.428 1.477-1.263 1.654-.113 1.188-.54.369.063.725-1.342.252.034.447-.342.162.5 1.11-.256.544.489.433-.27 1.977.522 1.545-.399.936-.533.263-.155.76.5.371.02.752-.452.094-.808.038-.192-.662-.553.346-.033.474-.662-.147-.47.722-1.022-.44-.58.73-.379-.237-.744.62-.05.38.302.048-.576.128-.075-.32.019.659-1.132 1.597-.59-.064-.955 1.132-.435.601.157.346-1.38-.034-.913.692-.473.97-.858.007-.515-.35.534-1.349-.748.737-1.285-.541-.65.518-1.023-.53-.932 1.316-1.643.079-1.267.695-.658-.443-.278.496-1.008-.327-.334.756.496.496-.459.15-.278.823-.85.143-.191.823-1.932-2.473.244-.996-.609-.752.489-1.225-1.192-.15-.03-.47.718-.388-.293-.778.308-.196.38.331.158-.346-.493-.315-.173-.688-.26.071.159-.504-.805-.462.816.128.12-.714-.447-.914 2.192.286.353-.572-.102-.35-.27.121-.128-1.079 1.474.369-.598-.617.485-.47-.12-.417 1.048.523 1.707-.707-.045-.384 1.207-.206.229 1.071.83-.098.768 1.068.943-4.17 1.425.226.222-.44-.594-.522.142-1.394-.5-.403 1.482-.27.315-.688-.218-.966-.894-.598-1.004-.072-.071-.672 1.51-.478.129-.797-.79-.872-.695-.158-.094-.812-1.402-1.248.045-1.052-.662.259-.244-.53-.414.004-.022.417-.342.068-.737-.997.004-1.142-.46-.489-.653.071.515-.428-.35-.342.455-.899-.902-.966.571.132.365-.338.79-1.575.21-.741-.654-.977.086-.899.842-1.011-.943-.135-.511-.49 2.41.057-.008-.575.556.147.071.39Z"/><path id="Тернопільська область" fill="#C8C6C6" stroke="#000" stroke-width=".2" d="m41.86 48.982.193-.823.85-.143.277-.823.459-.15-.496-.496.334-.756 1.008.327.278-.496.658.443 1.267-.695 1.642-.08.933-1.315 1.022.53.65-.519 1.286.542.748-.737-.534 1.35.515.35-.142.537.82 1.026-.926.064.327 1.037-.631.421.428.162-.131.47-.67.338.204 1.09-.395.32.868.714-.3.417.782 1.406.07.572-.68.691 1.057 1.083-.94.906.237 1.132-.541.03-.425.759.624.598.034.988.62 1.196-.214.83.432.722-.21.88-.52-.008-.24.918.338.68-.27.041.026 1.632.297.075-.38.342.384.917-.47.192.436.244-.447.215.383.36-.293.685.489.169-.256 1.037.71.756-.413.071.12.444-.35-.14.474.84-.278.022.263.304-.27.951.676.35-.06.436.477-.143-.244.316.425.169-.38.135.835.684-.279.35.297.496.29-.402.767.496-.654.053-.493.526-.654-.022-.425-.594-1.274.221-.65-1.759-.271.399.399.894-.41.286-.64-.89.279-.43-.196-.785-.38.71-.582-.221-.846.661-.736-.199.056-.477-.891-1.015-.628.812-.297-.564-1.071-.21.293-.666-.541-.365.39-.44-2.356-1.586-.023-.692-.323-.019.026.486-1.075-.294.117.989-.504-.24-.429.71-.346-.034-.154-.643 1.068-.443-1.019-.523-.474.391.328-1.616-.568.094-.26 1.093-.372.023-.274-1.086.36-.376-.47-.38.072-.617-.312.305-.917-.575-.654.342-.786-1.177.15-.545.948.226-.102-.914-1.018-.225-.56-.647.91-1.402-1.08-.537-.233-1.094.41-.61-.575-.755-.462.026-.715-2.146-.078-1.459 2.823-.759.631-.601.421-1.865.59.504.628-.643-.522-.538.09-1.105 2.613-.015.135-.519.932-.244.18-1.308.485-.162-.308-.864-.65-.388Z"/><path id="Івано-Франківська область" fill="#C8C6C6" stroke="#000" stroke-width=".2" d="m18.965 73.856.38-1.075-.309-.778.26-.816.428-.2-.594-.642.327-.823-.263-.406.745-1.004.567-.173.267-1.184.86-.549 1.828.444.864-.74.613.439.523-.601 1.338.394.094-.32.744-.01 1.605-.805.959.222.222-1.098-1.3-.052.195-.906-.775-.076-.034-.357.015-.278.963.094.199-.834.538-.482-.594-.278-.23-.718.512-.29-.094-.95.56-.237-.128-.59.5-.44.598.323-.05.346.689-.207.834.692 1.072.056.714 2.147.462-.027.575.756-.41.609.234 1.094 1.078.538-.91 1.402.56.646 1.02.226.101.913-.947-.225-.15.545.785 1.176.654-.342.917.575.312-.304-.071.616.47.38-.361.376.274 1.086.373-.022.259-1.094.568-.094-.327 1.616.473-.39 1.019.522-1.068.444.154.642.346.034.429-.71.504.24-.117-.988 1.075.293-.026-.485.323.019.023.691 2.357 1.587-.391.44.541.364-.293.666-.575.823.383 4.748-1.846-.395-1.71.496-1.928 2.39-.967.508.38.801-.661.019.093.35-.729.984-.631-.082.109.549-1.034 1.131.068 1.545 1 1.714-.955 2.425-.489.06-.71-1.808-1.557-.399-.992-2.056-.793-.35.15-.992.635-.549-1.571-2.086.553-1.139-.771-.508-.008-.703-1.522-1.27-.338-.73-.67-.138-.383.853-.974-.335-.5-.804-.229-2.395-1.094.62-.485-.09-.364.895-.617-.158-.2-1.797-.71.143-.684-.7-.075-.871-1.053-.057-1.037-1.297-.966-.398Z"/><path id="Закарпатська область" fill="#C8C6C6" stroke="#000" stroke-width=".2" d="m7.616 67.66 1.436-.093.981.985.55-.113-.114-.594.722.406-.455.316.207.62-.571.556.263.632.913.582.29.835 1.39-.564.674.594.646 1.387 1.064-.274.511.413.466-.304.775.785 1.601.027.966.398 1.038 1.297 1.052.056.075.873.685.699.71-.143.2 1.797.616.158.365-.895.484.09 1.094-.62.23 2.394.5.805.973.335.384-.854.669.14.338.729 1.523 1.27.007.703.77.508-.552 1.139 1.572 2.086-.636.549-.15.992-.696.324-.958-.361-1.09 1.045-.316-.215-1.222.553-.462-.395-1.023.06-1.312-.985-1.815.655-1.11-1.177-1.424.2-1.748-.674-.432.985-2.075-.996.045-.335-.707-.323-.173-.853-.951.037-.316-.428-.673.62-.278 1.553-.973.3-1.106-.545.256.993-.662.21-.77-.646.571-1.21-.707-1.215-1.139-.064-.842.538-1.018-.316-.26-1.688-.88-.989-1.281-.03-.256.275-.865-1.7.072-.514-.985-.62.304-.47-.729-.316-.786.443L1 79.453l.571-3.203 2-1.556.282-.947-.203-.55.523-.736-.06-1.165.485-.482.052-.841.688-1.219.857-.278.342-1.665.68.237.4.613Z"/><path id="Львівська область" fill="#C8C6C6" stroke="#000" stroke-width=".2" d="m25.819 35.907.658-.041 1.334 1.631.89.162.178-.455.661-.203.331.944.526.368 1.008-.222.327 1.173.556-.064-.022 1.688.736.064.861.654-.105.643 1.985-.294.872.29.071-.86 1.399.928.075.785.7.286 1.19.15-.488 1.226.61.752-.245.996 1.932 2.473.65.388.309.864-.485.162-.18 1.308-.933.244-.135.52-2.613.014-.09 1.105.522.538-.628.643-.59-.504-.42 1.864-.632.602-2.823.76.079 1.458-1.072-.056-.834-.692-.688.207.049-.346-.598-.324-.5.44.128.59-.56.237.094.951-.512.29.23.718.594.278-.538.481-.2.835-.962-.094-.015.278.034.357.775.075-.196.906 1.3.053-.22 1.097-.96-.221-1.605.804-.744.011-.094.32-1.338-.395-.523.602-.612-.44-.865.74-1.827-.443-.86.549-.268 1.184-.567.173-.745 1.003.263.406-.327.824.594.642-.428.2-.26.815.309.779-.38 1.075-1.602-.027-.774-.785-.466.304-.511-.413-1.064.274-.647-1.387-.673-.594-1.39.564-.29-.835-.913-.582-.264-.632.572-.556-.207-.62.455-.316-.722-.406-.203-.538.312-.579-.763-.297-.511-.89-.64-.02.211-.462-.466.35-.146-.203.5-.782-.406-.297.315-.33.083-2.219-.62-2.571-.726-.71 8.116-11.263 5.158-4.518.515-1.113 3.47-.489 1.101-2.601.053-2.406Z"/><path id="Волинська область" fill="#C8C6C6" stroke="#000" stroke-width=".2" d="m40.306 9.567.44-.158 1.917.985 1.275-.041.225-.369.779.301.51.489.944.135-.842 1.011-.086.899.654.977-.21.74-.79 1.576-.365.338-.571-.131.902.966-.455.898.35.342-.515.429.654-.072.459.489-.004 1.143.737.996.342-.068.022-.417.414-.004.244.53.662-.26-.045 1.053 1.402 1.248.094.812.695.158.79.872-.128.797-1.511.478.071.673 1.004.071.895.598.218.966-.316.688-1.481.27.5.403-.143 1.394.594.523-.222.44-1.425-.226-.943 4.169-.767-1.068-.831.098-.23-1.071-1.206.206.045.384-1.707.707-1.048-.523.12.417-.485.47.598.617-1.474-.369.128 1.08.27-.121.102.35-.353.571-2.192-.286.447.914-.12.714-.816-.128.805.463-.158.503.26-.071.172.688.493.316-.158.345-.38-.33-.308.195.293.778-.718.387.03.47-.699-.285-.075-.786-1.399-.929-.071.861-.872-.29-1.985.294.105-.643-.86-.654-.737-.064.022-1.688-.556.064-.327-1.173-1.008.222-.526-.368-.33-.944-.662.203-.177.455-.89-.161-1.335-1.632-.658.041-.309-.338.106-.827-.688-.075.071-.842-.703-.188-.079-.782.53-.549 1.305.034.507-.583-1.18-.466-1.056-1.195-.177-.782-.553-.421.275-.075-.32-1.196-.661-.522.157-1.034-1.661-1.274-.545-1.583h-.65l-.113-.834.601-.722.226-1.026-.673-.553.255-.744-.635-.29-.026-.304.748.124-.504-.94.338-.617-.718-.86.899-.606 1.312-.27.146.564 1.523.154-.387.83 1.466.215 1.586-1.744 2.492-1.703-.289-1.076.545-1.187.62-.46 3.094-.413 1.635.395.85-.605.244.327.951-.29.59.294 1.666-1.12 1.676-.18Z"/></svg>